<?xml version="1.0" encoding="utf-8"?>
<svg xmlns="http://www.w3.org/2000/svg" xmlns:xlink="http://www.w3.org/1999/xlink" width="600" height="400" viewBox="0 0 2400 1600">
<defs>
  <clipPath id="clip7900">
    <rect x="0" y="0" width="2000" height="2000"/>
  </clipPath>
</defs>
<defs>
  <clipPath id="clip7901">
    <rect x="0" y="0" width="2400" height="1600"/>
  </clipPath>
</defs>
<polygon clip-path="url(#clip7901)" points="
0,1600 2400,1600 2400,0 0,0 
  " fill="#ffffff" fill-rule="evenodd" fill-opacity="1"/>
<defs>
  <clipPath id="clip7902">
    <rect x="480" y="0" width="1681" height="1600"/>
  </clipPath>
</defs>
<polygon clip-path="url(#clip7901)" points="
212.353,1440.48 2321.26,1440.48 2321.26,47.2441 212.353,47.2441 
  " fill="#ffffff" fill-rule="evenodd" fill-opacity="1"/>
<defs>
  <clipPath id="clip7903">
    <rect x="212" y="47" width="2110" height="1394"/>
  </clipPath>
</defs>
<polyline clip-path="url(#clip7903)" style="stroke:#000000; stroke-width:2; stroke-opacity:0.1; fill:none" points="
  235.196,1440.48 235.196,47.2441 
  "/>
<polyline clip-path="url(#clip7903)" style="stroke:#000000; stroke-width:2; stroke-opacity:0.1; fill:none" points="
  603.628,1440.48 603.628,47.2441 
  "/>
<polyline clip-path="url(#clip7903)" style="stroke:#000000; stroke-width:2; stroke-opacity:0.1; fill:none" points="
  972.06,1440.48 972.06,47.2441 
  "/>
<polyline clip-path="url(#clip7903)" style="stroke:#000000; stroke-width:2; stroke-opacity:0.1; fill:none" points="
  1340.49,1440.48 1340.49,47.2441 
  "/>
<polyline clip-path="url(#clip7903)" style="stroke:#000000; stroke-width:2; stroke-opacity:0.1; fill:none" points="
  1708.93,1440.48 1708.93,47.2441 
  "/>
<polyline clip-path="url(#clip7903)" style="stroke:#000000; stroke-width:2; stroke-opacity:0.1; fill:none" points="
  2077.36,1440.48 2077.36,47.2441 
  "/>
<polyline clip-path="url(#clip7903)" style="stroke:#000000; stroke-width:2; stroke-opacity:0.1; fill:none" points="
  212.353,1294.29 2321.26,1294.29 
  "/>
<polyline clip-path="url(#clip7903)" style="stroke:#000000; stroke-width:2; stroke-opacity:0.1; fill:none" points="
  212.353,1026.96 2321.26,1026.96 
  "/>
<polyline clip-path="url(#clip7903)" style="stroke:#000000; stroke-width:2; stroke-opacity:0.1; fill:none" points="
  212.353,759.619 2321.26,759.619 
  "/>
<polyline clip-path="url(#clip7903)" style="stroke:#000000; stroke-width:2; stroke-opacity:0.1; fill:none" points="
  212.353,492.282 2321.26,492.282 
  "/>
<polyline clip-path="url(#clip7903)" style="stroke:#000000; stroke-width:2; stroke-opacity:0.1; fill:none" points="
  212.353,224.944 2321.26,224.944 
  "/>
<polyline clip-path="url(#clip7901)" style="stroke:#000000; stroke-width:4; stroke-opacity:1; fill:none" points="
  212.353,1440.48 2321.26,1440.48 
  "/>
<polyline clip-path="url(#clip7901)" style="stroke:#000000; stroke-width:4; stroke-opacity:1; fill:none" points="
  212.353,1440.48 212.353,47.2441 
  "/>
<polyline clip-path="url(#clip7901)" style="stroke:#000000; stroke-width:4; stroke-opacity:1; fill:none" points="
  235.196,1440.48 235.196,1419.58 
  "/>
<polyline clip-path="url(#clip7901)" style="stroke:#000000; stroke-width:4; stroke-opacity:1; fill:none" points="
  603.628,1440.48 603.628,1419.58 
  "/>
<polyline clip-path="url(#clip7901)" style="stroke:#000000; stroke-width:4; stroke-opacity:1; fill:none" points="
  972.06,1440.48 972.06,1419.58 
  "/>
<polyline clip-path="url(#clip7901)" style="stroke:#000000; stroke-width:4; stroke-opacity:1; fill:none" points="
  1340.49,1440.48 1340.49,1419.58 
  "/>
<polyline clip-path="url(#clip7901)" style="stroke:#000000; stroke-width:4; stroke-opacity:1; fill:none" points="
  1708.93,1440.48 1708.93,1419.58 
  "/>
<polyline clip-path="url(#clip7901)" style="stroke:#000000; stroke-width:4; stroke-opacity:1; fill:none" points="
  2077.36,1440.48 2077.36,1419.58 
  "/>
<polyline clip-path="url(#clip7901)" style="stroke:#000000; stroke-width:4; stroke-opacity:1; fill:none" points="
  212.353,1294.29 243.986,1294.29 
  "/>
<polyline clip-path="url(#clip7901)" style="stroke:#000000; stroke-width:4; stroke-opacity:1; fill:none" points="
  212.353,1026.96 243.986,1026.96 
  "/>
<polyline clip-path="url(#clip7901)" style="stroke:#000000; stroke-width:4; stroke-opacity:1; fill:none" points="
  212.353,759.619 243.986,759.619 
  "/>
<polyline clip-path="url(#clip7901)" style="stroke:#000000; stroke-width:4; stroke-opacity:1; fill:none" points="
  212.353,492.282 243.986,492.282 
  "/>
<polyline clip-path="url(#clip7901)" style="stroke:#000000; stroke-width:4; stroke-opacity:1; fill:none" points="
  212.353,224.944 243.986,224.944 
  "/>
<g clip-path="url(#clip7901)">
<text style="fill:#000000; fill-opacity:1; font-family:Arial,Helvetica Neue,Helvetica,sans-serif; font-size:48px; text-anchor:middle;" transform="rotate(0, 235.196, 1494.48)" x="235.196" y="1494.48">0</text>
</g>
<g clip-path="url(#clip7901)">
<text style="fill:#000000; fill-opacity:1; font-family:Arial,Helvetica Neue,Helvetica,sans-serif; font-size:48px; text-anchor:middle;" transform="rotate(0, 603.628, 1494.48)" x="603.628" y="1494.48">10</text>
</g>
<g clip-path="url(#clip7901)">
<text style="fill:#000000; fill-opacity:1; font-family:Arial,Helvetica Neue,Helvetica,sans-serif; font-size:48px; text-anchor:middle;" transform="rotate(0, 972.06, 1494.48)" x="972.06" y="1494.48">20</text>
</g>
<g clip-path="url(#clip7901)">
<text style="fill:#000000; fill-opacity:1; font-family:Arial,Helvetica Neue,Helvetica,sans-serif; font-size:48px; text-anchor:middle;" transform="rotate(0, 1340.49, 1494.48)" x="1340.49" y="1494.48">30</text>
</g>
<g clip-path="url(#clip7901)">
<text style="fill:#000000; fill-opacity:1; font-family:Arial,Helvetica Neue,Helvetica,sans-serif; font-size:48px; text-anchor:middle;" transform="rotate(0, 1708.93, 1494.48)" x="1708.93" y="1494.48">40</text>
</g>
<g clip-path="url(#clip7901)">
<text style="fill:#000000; fill-opacity:1; font-family:Arial,Helvetica Neue,Helvetica,sans-serif; font-size:48px; text-anchor:middle;" transform="rotate(0, 2077.36, 1494.48)" x="2077.36" y="1494.48">50</text>
</g>
<g clip-path="url(#clip7901)">
<text style="fill:#000000; fill-opacity:1; font-family:Arial,Helvetica Neue,Helvetica,sans-serif; font-size:48px; text-anchor:end;" transform="rotate(0, 188.353, 1311.79)" x="188.353" y="1311.79">-6</text>
</g>
<g clip-path="url(#clip7901)">
<text style="fill:#000000; fill-opacity:1; font-family:Arial,Helvetica Neue,Helvetica,sans-serif; font-size:48px; text-anchor:end;" transform="rotate(0, 188.353, 1044.46)" x="188.353" y="1044.46">-4</text>
</g>
<g clip-path="url(#clip7901)">
<text style="fill:#000000; fill-opacity:1; font-family:Arial,Helvetica Neue,Helvetica,sans-serif; font-size:48px; text-anchor:end;" transform="rotate(0, 188.353, 777.119)" x="188.353" y="777.119">-2</text>
</g>
<g clip-path="url(#clip7901)">
<text style="fill:#000000; fill-opacity:1; font-family:Arial,Helvetica Neue,Helvetica,sans-serif; font-size:48px; text-anchor:end;" transform="rotate(0, 188.353, 509.782)" x="188.353" y="509.782">0</text>
</g>
<g clip-path="url(#clip7901)">
<text style="fill:#000000; fill-opacity:1; font-family:Arial,Helvetica Neue,Helvetica,sans-serif; font-size:48px; text-anchor:end;" transform="rotate(0, 188.353, 242.444)" x="188.353" y="242.444">2</text>
</g>
<g clip-path="url(#clip7901)">
<text style="fill:#000000; fill-opacity:1; font-family:Arial,Helvetica Neue,Helvetica,sans-serif; font-size:66px; text-anchor:middle;" transform="rotate(0, 1266.81, 1590.4)" x="1266.81" y="1590.4">Index</text>
</g>
<g clip-path="url(#clip7901)">
<text style="fill:#000000; fill-opacity:1; font-family:Arial,Helvetica Neue,Helvetica,sans-serif; font-size:66px; text-anchor:middle;" transform="rotate(-90, 57.6, 743.863)" x="57.6" y="743.863">Value</text>
</g>
<polyline clip-path="url(#clip7903)" style="stroke:#000000; stroke-width:4; stroke-opacity:1; fill:none" points="
  272.039,731.479 272.039,558.887 
  "/>
<line clip-path="url(#clip7903)" x1="292.039" y1="731.479" x2="252.039" y2="731.479" style="stroke:#000000; stroke-width:4; stroke-opacity:1"/>
<line clip-path="url(#clip7903)" x1="292.039" y1="558.887" x2="252.039" y2="558.887" style="stroke:#000000; stroke-width:4; stroke-opacity:1"/>
<polyline clip-path="url(#clip7903)" style="stroke:#000000; stroke-width:4; stroke-opacity:1; fill:none" points="
  308.882,763.396 308.882,594.438 
  "/>
<line clip-path="url(#clip7903)" x1="328.882" y1="763.396" x2="288.882" y2="763.396" style="stroke:#000000; stroke-width:4; stroke-opacity:1"/>
<line clip-path="url(#clip7903)" x1="328.882" y1="594.438" x2="288.882" y2="594.438" style="stroke:#000000; stroke-width:4; stroke-opacity:1"/>
<polyline clip-path="url(#clip7903)" style="stroke:#000000; stroke-width:4; stroke-opacity:1; fill:none" points="
  345.725,885.839 345.725,694.645 
  "/>
<line clip-path="url(#clip7903)" x1="365.725" y1="885.839" x2="325.725" y2="885.839" style="stroke:#000000; stroke-width:4; stroke-opacity:1"/>
<line clip-path="url(#clip7903)" x1="365.725" y1="694.645" x2="325.725" y2="694.645" style="stroke:#000000; stroke-width:4; stroke-opacity:1"/>
<polyline clip-path="url(#clip7903)" style="stroke:#000000; stroke-width:4; stroke-opacity:1; fill:none" points="
  382.569,879.489 382.569,687.139 
  "/>
<line clip-path="url(#clip7903)" x1="402.569" y1="879.489" x2="362.569" y2="879.489" style="stroke:#000000; stroke-width:4; stroke-opacity:1"/>
<line clip-path="url(#clip7903)" x1="402.569" y1="687.139" x2="362.569" y2="687.139" style="stroke:#000000; stroke-width:4; stroke-opacity:1"/>
<polyline clip-path="url(#clip7903)" style="stroke:#000000; stroke-width:4; stroke-opacity:1; fill:none" points="
  419.412,671.121 419.412,538.294 
  "/>
<line clip-path="url(#clip7903)" x1="439.412" y1="671.121" x2="399.412" y2="671.121" style="stroke:#000000; stroke-width:4; stroke-opacity:1"/>
<line clip-path="url(#clip7903)" x1="439.412" y1="538.294" x2="399.412" y2="538.294" style="stroke:#000000; stroke-width:4; stroke-opacity:1"/>
<polyline clip-path="url(#clip7903)" style="stroke:#000000; stroke-width:4; stroke-opacity:1; fill:none" points="
  456.255,683.65 456.255,476.391 
  "/>
<line clip-path="url(#clip7903)" x1="476.255" y1="683.65" x2="436.255" y2="683.65" style="stroke:#000000; stroke-width:4; stroke-opacity:1"/>
<line clip-path="url(#clip7903)" x1="476.255" y1="476.391" x2="436.255" y2="476.391" style="stroke:#000000; stroke-width:4; stroke-opacity:1"/>
<polyline clip-path="url(#clip7903)" style="stroke:#000000; stroke-width:4; stroke-opacity:1; fill:none" points="
  493.098,779.308 493.098,598.634 
  "/>
<line clip-path="url(#clip7903)" x1="513.098" y1="779.308" x2="473.098" y2="779.308" style="stroke:#000000; stroke-width:4; stroke-opacity:1"/>
<line clip-path="url(#clip7903)" x1="513.098" y1="598.634" x2="473.098" y2="598.634" style="stroke:#000000; stroke-width:4; stroke-opacity:1"/>
<polyline clip-path="url(#clip7903)" style="stroke:#000000; stroke-width:4; stroke-opacity:1; fill:none" points="
  529.941,767.822 529.941,556.283 
  "/>
<line clip-path="url(#clip7903)" x1="549.941" y1="767.822" x2="509.941" y2="767.822" style="stroke:#000000; stroke-width:4; stroke-opacity:1"/>
<line clip-path="url(#clip7903)" x1="549.941" y1="556.283" x2="509.941" y2="556.283" style="stroke:#000000; stroke-width:4; stroke-opacity:1"/>
<polyline clip-path="url(#clip7903)" style="stroke:#000000; stroke-width:4; stroke-opacity:1; fill:none" points="
  566.785,762.001 566.785,624.832 
  "/>
<line clip-path="url(#clip7903)" x1="586.785" y1="762.001" x2="546.785" y2="762.001" style="stroke:#000000; stroke-width:4; stroke-opacity:1"/>
<line clip-path="url(#clip7903)" x1="586.785" y1="624.832" x2="546.785" y2="624.832" style="stroke:#000000; stroke-width:4; stroke-opacity:1"/>
<polyline clip-path="url(#clip7903)" style="stroke:#000000; stroke-width:4; stroke-opacity:1; fill:none" points="
  603.628,834.416 603.628,614.59 
  "/>
<line clip-path="url(#clip7903)" x1="623.628" y1="834.416" x2="583.628" y2="834.416" style="stroke:#000000; stroke-width:4; stroke-opacity:1"/>
<line clip-path="url(#clip7903)" x1="623.628" y1="614.59" x2="583.628" y2="614.59" style="stroke:#000000; stroke-width:4; stroke-opacity:1"/>
<polyline clip-path="url(#clip7903)" style="stroke:#000000; stroke-width:4; stroke-opacity:1; fill:none" points="
  640.471,842.03 640.471,663.521 
  "/>
<line clip-path="url(#clip7903)" x1="660.471" y1="842.03" x2="620.471" y2="842.03" style="stroke:#000000; stroke-width:4; stroke-opacity:1"/>
<line clip-path="url(#clip7903)" x1="660.471" y1="663.521" x2="620.471" y2="663.521" style="stroke:#000000; stroke-width:4; stroke-opacity:1"/>
<polyline clip-path="url(#clip7903)" style="stroke:#000000; stroke-width:4; stroke-opacity:1; fill:none" points="
  677.314,733.702 677.314,596.116 
  "/>
<line clip-path="url(#clip7903)" x1="697.314" y1="733.702" x2="657.314" y2="733.702" style="stroke:#000000; stroke-width:4; stroke-opacity:1"/>
<line clip-path="url(#clip7903)" x1="697.314" y1="596.116" x2="657.314" y2="596.116" style="stroke:#000000; stroke-width:4; stroke-opacity:1"/>
<polyline clip-path="url(#clip7903)" style="stroke:#000000; stroke-width:4; stroke-opacity:1; fill:none" points="
  714.158,803.447 714.158,663.299 
  "/>
<line clip-path="url(#clip7903)" x1="734.158" y1="803.447" x2="694.158" y2="803.447" style="stroke:#000000; stroke-width:4; stroke-opacity:1"/>
<line clip-path="url(#clip7903)" x1="734.158" y1="663.299" x2="694.158" y2="663.299" style="stroke:#000000; stroke-width:4; stroke-opacity:1"/>
<polyline clip-path="url(#clip7903)" style="stroke:#000000; stroke-width:4; stroke-opacity:1; fill:none" points="
  751.001,918.728 751.001,778.626 
  "/>
<line clip-path="url(#clip7903)" x1="771.001" y1="918.728" x2="731.001" y2="918.728" style="stroke:#000000; stroke-width:4; stroke-opacity:1"/>
<line clip-path="url(#clip7903)" x1="771.001" y1="778.626" x2="731.001" y2="778.626" style="stroke:#000000; stroke-width:4; stroke-opacity:1"/>
<polyline clip-path="url(#clip7903)" style="stroke:#000000; stroke-width:4; stroke-opacity:1; fill:none" points="
  787.844,1098.54 787.844,914.482 
  "/>
<line clip-path="url(#clip7903)" x1="807.844" y1="1098.54" x2="767.844" y2="1098.54" style="stroke:#000000; stroke-width:4; stroke-opacity:1"/>
<line clip-path="url(#clip7903)" x1="807.844" y1="914.482" x2="767.844" y2="914.482" style="stroke:#000000; stroke-width:4; stroke-opacity:1"/>
<polyline clip-path="url(#clip7903)" style="stroke:#000000; stroke-width:4; stroke-opacity:1; fill:none" points="
  824.687,1298.37 824.687,1141.56 
  "/>
<line clip-path="url(#clip7903)" x1="844.687" y1="1298.37" x2="804.687" y2="1298.37" style="stroke:#000000; stroke-width:4; stroke-opacity:1"/>
<line clip-path="url(#clip7903)" x1="844.687" y1="1141.56" x2="804.687" y2="1141.56" style="stroke:#000000; stroke-width:4; stroke-opacity:1"/>
<polyline clip-path="url(#clip7903)" style="stroke:#000000; stroke-width:4; stroke-opacity:1; fill:none" points="
  861.531,1401.05 861.531,1241.91 
  "/>
<line clip-path="url(#clip7903)" x1="881.531" y1="1401.05" x2="841.531" y2="1401.05" style="stroke:#000000; stroke-width:4; stroke-opacity:1"/>
<line clip-path="url(#clip7903)" x1="881.531" y1="1241.91" x2="841.531" y2="1241.91" style="stroke:#000000; stroke-width:4; stroke-opacity:1"/>
<polyline clip-path="url(#clip7903)" style="stroke:#000000; stroke-width:4; stroke-opacity:1; fill:none" points="
  898.374,1257.75 898.374,1117.59 
  "/>
<line clip-path="url(#clip7903)" x1="918.374" y1="1257.75" x2="878.374" y2="1257.75" style="stroke:#000000; stroke-width:4; stroke-opacity:1"/>
<line clip-path="url(#clip7903)" x1="918.374" y1="1117.59" x2="878.374" y2="1117.59" style="stroke:#000000; stroke-width:4; stroke-opacity:1"/>
<polyline clip-path="url(#clip7903)" style="stroke:#000000; stroke-width:4; stroke-opacity:1; fill:none" points="
  935.217,1207.63 935.217,1008.43 
  "/>
<line clip-path="url(#clip7903)" x1="955.217" y1="1207.63" x2="915.217" y2="1207.63" style="stroke:#000000; stroke-width:4; stroke-opacity:1"/>
<line clip-path="url(#clip7903)" x1="955.217" y1="1008.43" x2="915.217" y2="1008.43" style="stroke:#000000; stroke-width:4; stroke-opacity:1"/>
<polyline clip-path="url(#clip7903)" style="stroke:#000000; stroke-width:4; stroke-opacity:1; fill:none" points="
  972.06,1031.05 972.06,823.417 
  "/>
<line clip-path="url(#clip7903)" x1="992.06" y1="1031.05" x2="952.06" y2="1031.05" style="stroke:#000000; stroke-width:4; stroke-opacity:1"/>
<line clip-path="url(#clip7903)" x1="992.06" y1="823.417" x2="952.06" y2="823.417" style="stroke:#000000; stroke-width:4; stroke-opacity:1"/>
<polyline clip-path="url(#clip7903)" style="stroke:#000000; stroke-width:4; stroke-opacity:1; fill:none" points="
  1008.9,1119.27 1008.9,970.087 
  "/>
<line clip-path="url(#clip7903)" x1="1028.9" y1="1119.27" x2="988.904" y2="1119.27" style="stroke:#000000; stroke-width:4; stroke-opacity:1"/>
<line clip-path="url(#clip7903)" x1="1028.9" y1="970.087" x2="988.904" y2="970.087" style="stroke:#000000; stroke-width:4; stroke-opacity:1"/>
<polyline clip-path="url(#clip7903)" style="stroke:#000000; stroke-width:4; stroke-opacity:1; fill:none" points="
  1045.75,996.331 1045.75,817.131 
  "/>
<line clip-path="url(#clip7903)" x1="1065.75" y1="996.331" x2="1025.75" y2="996.331" style="stroke:#000000; stroke-width:4; stroke-opacity:1"/>
<line clip-path="url(#clip7903)" x1="1065.75" y1="817.131" x2="1025.75" y2="817.131" style="stroke:#000000; stroke-width:4; stroke-opacity:1"/>
<polyline clip-path="url(#clip7903)" style="stroke:#000000; stroke-width:4; stroke-opacity:1; fill:none" points="
  1082.59,793.806 1082.59,575.543 
  "/>
<line clip-path="url(#clip7903)" x1="1102.59" y1="793.806" x2="1062.59" y2="793.806" style="stroke:#000000; stroke-width:4; stroke-opacity:1"/>
<line clip-path="url(#clip7903)" x1="1102.59" y1="575.543" x2="1062.59" y2="575.543" style="stroke:#000000; stroke-width:4; stroke-opacity:1"/>
<polyline clip-path="url(#clip7903)" style="stroke:#000000; stroke-width:4; stroke-opacity:1; fill:none" points="
  1119.43,757.817 1119.43,548.479 
  "/>
<line clip-path="url(#clip7903)" x1="1139.43" y1="757.817" x2="1099.43" y2="757.817" style="stroke:#000000; stroke-width:4; stroke-opacity:1"/>
<line clip-path="url(#clip7903)" x1="1139.43" y1="548.479" x2="1099.43" y2="548.479" style="stroke:#000000; stroke-width:4; stroke-opacity:1"/>
<polyline clip-path="url(#clip7903)" style="stroke:#000000; stroke-width:4; stroke-opacity:1; fill:none" points="
  1156.28,762.544 1156.28,566.001 
  "/>
<line clip-path="url(#clip7903)" x1="1176.28" y1="762.544" x2="1136.28" y2="762.544" style="stroke:#000000; stroke-width:4; stroke-opacity:1"/>
<line clip-path="url(#clip7903)" x1="1176.28" y1="566.001" x2="1136.28" y2="566.001" style="stroke:#000000; stroke-width:4; stroke-opacity:1"/>
<polyline clip-path="url(#clip7903)" style="stroke:#000000; stroke-width:4; stroke-opacity:1; fill:none" points="
  1193.12,696.386 1193.12,529.223 
  "/>
<line clip-path="url(#clip7903)" x1="1213.12" y1="696.386" x2="1173.12" y2="696.386" style="stroke:#000000; stroke-width:4; stroke-opacity:1"/>
<line clip-path="url(#clip7903)" x1="1213.12" y1="529.223" x2="1173.12" y2="529.223" style="stroke:#000000; stroke-width:4; stroke-opacity:1"/>
<polyline clip-path="url(#clip7903)" style="stroke:#000000; stroke-width:4; stroke-opacity:1; fill:none" points="
  1229.96,777.51 1229.96,608.972 
  "/>
<line clip-path="url(#clip7903)" x1="1249.96" y1="777.51" x2="1209.96" y2="777.51" style="stroke:#000000; stroke-width:4; stroke-opacity:1"/>
<line clip-path="url(#clip7903)" x1="1249.96" y1="608.972" x2="1209.96" y2="608.972" style="stroke:#000000; stroke-width:4; stroke-opacity:1"/>
<polyline clip-path="url(#clip7903)" style="stroke:#000000; stroke-width:4; stroke-opacity:1; fill:none" points="
  1266.81,582.35 1266.81,382.413 
  "/>
<line clip-path="url(#clip7903)" x1="1286.81" y1="582.35" x2="1246.81" y2="582.35" style="stroke:#000000; stroke-width:4; stroke-opacity:1"/>
<line clip-path="url(#clip7903)" x1="1286.81" y1="382.413" x2="1246.81" y2="382.413" style="stroke:#000000; stroke-width:4; stroke-opacity:1"/>
<polyline clip-path="url(#clip7903)" style="stroke:#000000; stroke-width:4; stroke-opacity:1; fill:none" points="
  1303.65,582.836 1303.65,370.242 
  "/>
<line clip-path="url(#clip7903)" x1="1323.65" y1="582.836" x2="1283.65" y2="582.836" style="stroke:#000000; stroke-width:4; stroke-opacity:1"/>
<line clip-path="url(#clip7903)" x1="1323.65" y1="370.242" x2="1283.65" y2="370.242" style="stroke:#000000; stroke-width:4; stroke-opacity:1"/>
<polyline clip-path="url(#clip7903)" style="stroke:#000000; stroke-width:4; stroke-opacity:1; fill:none" points="
  1340.49,592.23 1340.49,385.628 
  "/>
<line clip-path="url(#clip7903)" x1="1360.49" y1="592.23" x2="1320.49" y2="592.23" style="stroke:#000000; stroke-width:4; stroke-opacity:1"/>
<line clip-path="url(#clip7903)" x1="1360.49" y1="385.628" x2="1320.49" y2="385.628" style="stroke:#000000; stroke-width:4; stroke-opacity:1"/>
<polyline clip-path="url(#clip7903)" style="stroke:#000000; stroke-width:4; stroke-opacity:1; fill:none" points="
  1377.34,347.982 1377.34,188.103 
  "/>
<line clip-path="url(#clip7903)" x1="1397.34" y1="347.982" x2="1357.34" y2="347.982" style="stroke:#000000; stroke-width:4; stroke-opacity:1"/>
<line clip-path="url(#clip7903)" x1="1397.34" y1="188.103" x2="1357.34" y2="188.103" style="stroke:#000000; stroke-width:4; stroke-opacity:1"/>
<polyline clip-path="url(#clip7903)" style="stroke:#000000; stroke-width:4; stroke-opacity:1; fill:none" points="
  1414.18,278.193 1414.18,126.331 
  "/>
<line clip-path="url(#clip7903)" x1="1434.18" y1="278.193" x2="1394.18" y2="278.193" style="stroke:#000000; stroke-width:4; stroke-opacity:1"/>
<line clip-path="url(#clip7903)" x1="1434.18" y1="126.331" x2="1394.18" y2="126.331" style="stroke:#000000; stroke-width:4; stroke-opacity:1"/>
<polyline clip-path="url(#clip7903)" style="stroke:#000000; stroke-width:4; stroke-opacity:1; fill:none" points="
  1451.02,357.585 1451.02,157.094 
  "/>
<line clip-path="url(#clip7903)" x1="1471.02" y1="357.585" x2="1431.02" y2="357.585" style="stroke:#000000; stroke-width:4; stroke-opacity:1"/>
<line clip-path="url(#clip7903)" x1="1471.02" y1="157.094" x2="1431.02" y2="157.094" style="stroke:#000000; stroke-width:4; stroke-opacity:1"/>
<polyline clip-path="url(#clip7903)" style="stroke:#000000; stroke-width:4; stroke-opacity:1; fill:none" points="
  1487.87,288.881 1487.87,86.6754 
  "/>
<line clip-path="url(#clip7903)" x1="1507.87" y1="288.881" x2="1467.87" y2="288.881" style="stroke:#000000; stroke-width:4; stroke-opacity:1"/>
<line clip-path="url(#clip7903)" x1="1507.87" y1="86.6754" x2="1467.87" y2="86.6754" style="stroke:#000000; stroke-width:4; stroke-opacity:1"/>
<polyline clip-path="url(#clip7903)" style="stroke:#000000; stroke-width:4; stroke-opacity:1; fill:none" points="
  1524.71,393.626 1524.71,218.423 
  "/>
<line clip-path="url(#clip7903)" x1="1544.71" y1="393.626" x2="1504.71" y2="393.626" style="stroke:#000000; stroke-width:4; stroke-opacity:1"/>
<line clip-path="url(#clip7903)" x1="1544.71" y1="218.423" x2="1504.71" y2="218.423" style="stroke:#000000; stroke-width:4; stroke-opacity:1"/>
<polyline clip-path="url(#clip7903)" style="stroke:#000000; stroke-width:4; stroke-opacity:1; fill:none" points="
  1561.55,488.899 1561.55,279.142 
  "/>
<line clip-path="url(#clip7903)" x1="1581.55" y1="488.899" x2="1541.55" y2="488.899" style="stroke:#000000; stroke-width:4; stroke-opacity:1"/>
<line clip-path="url(#clip7903)" x1="1581.55" y1="279.142" x2="1541.55" y2="279.142" style="stroke:#000000; stroke-width:4; stroke-opacity:1"/>
<polyline clip-path="url(#clip7903)" style="stroke:#000000; stroke-width:4; stroke-opacity:1; fill:none" points="
  1598.4,250.61 1598.4,100.491 
  "/>
<line clip-path="url(#clip7903)" x1="1618.4" y1="250.61" x2="1578.4" y2="250.61" style="stroke:#000000; stroke-width:4; stroke-opacity:1"/>
<line clip-path="url(#clip7903)" x1="1618.4" y1="100.491" x2="1578.4" y2="100.491" style="stroke:#000000; stroke-width:4; stroke-opacity:1"/>
<polyline clip-path="url(#clip7903)" style="stroke:#000000; stroke-width:4; stroke-opacity:1; fill:none" points="
  1635.24,390.374 1635.24,212.449 
  "/>
<line clip-path="url(#clip7903)" x1="1655.24" y1="390.374" x2="1615.24" y2="390.374" style="stroke:#000000; stroke-width:4; stroke-opacity:1"/>
<line clip-path="url(#clip7903)" x1="1655.24" y1="212.449" x2="1615.24" y2="212.449" style="stroke:#000000; stroke-width:4; stroke-opacity:1"/>
<polyline clip-path="url(#clip7903)" style="stroke:#000000; stroke-width:4; stroke-opacity:1; fill:none" points="
  1672.08,417.22 1672.08,202.609 
  "/>
<line clip-path="url(#clip7903)" x1="1692.08" y1="417.22" x2="1652.08" y2="417.22" style="stroke:#000000; stroke-width:4; stroke-opacity:1"/>
<line clip-path="url(#clip7903)" x1="1692.08" y1="202.609" x2="1652.08" y2="202.609" style="stroke:#000000; stroke-width:4; stroke-opacity:1"/>
<polyline clip-path="url(#clip7903)" style="stroke:#000000; stroke-width:4; stroke-opacity:1; fill:none" points="
  1708.93,349.751 1708.93,135.24 
  "/>
<line clip-path="url(#clip7903)" x1="1728.93" y1="349.751" x2="1688.93" y2="349.751" style="stroke:#000000; stroke-width:4; stroke-opacity:1"/>
<line clip-path="url(#clip7903)" x1="1728.93" y1="135.24" x2="1688.93" y2="135.24" style="stroke:#000000; stroke-width:4; stroke-opacity:1"/>
<polyline clip-path="url(#clip7903)" style="stroke:#000000; stroke-width:4; stroke-opacity:1; fill:none" points="
  1745.77,482.516 1745.77,278.4 
  "/>
<line clip-path="url(#clip7903)" x1="1765.77" y1="482.516" x2="1725.77" y2="482.516" style="stroke:#000000; stroke-width:4; stroke-opacity:1"/>
<line clip-path="url(#clip7903)" x1="1765.77" y1="278.4" x2="1725.77" y2="278.4" style="stroke:#000000; stroke-width:4; stroke-opacity:1"/>
<polyline clip-path="url(#clip7903)" style="stroke:#000000; stroke-width:4; stroke-opacity:1; fill:none" points="
  1782.61,583.461 1782.61,444.543 
  "/>
<line clip-path="url(#clip7903)" x1="1802.61" y1="583.461" x2="1762.61" y2="583.461" style="stroke:#000000; stroke-width:4; stroke-opacity:1"/>
<line clip-path="url(#clip7903)" x1="1802.61" y1="444.543" x2="1762.61" y2="444.543" style="stroke:#000000; stroke-width:4; stroke-opacity:1"/>
<polyline clip-path="url(#clip7903)" style="stroke:#000000; stroke-width:4; stroke-opacity:1; fill:none" points="
  1819.45,668.504 1819.45,479.598 
  "/>
<line clip-path="url(#clip7903)" x1="1839.45" y1="668.504" x2="1799.45" y2="668.504" style="stroke:#000000; stroke-width:4; stroke-opacity:1"/>
<line clip-path="url(#clip7903)" x1="1839.45" y1="479.598" x2="1799.45" y2="479.598" style="stroke:#000000; stroke-width:4; stroke-opacity:1"/>
<polyline clip-path="url(#clip7903)" style="stroke:#000000; stroke-width:4; stroke-opacity:1; fill:none" points="
  1856.3,534.476 1856.3,340.91 
  "/>
<line clip-path="url(#clip7903)" x1="1876.3" y1="534.476" x2="1836.3" y2="534.476" style="stroke:#000000; stroke-width:4; stroke-opacity:1"/>
<line clip-path="url(#clip7903)" x1="1876.3" y1="340.91" x2="1836.3" y2="340.91" style="stroke:#000000; stroke-width:4; stroke-opacity:1"/>
<polyline clip-path="url(#clip7903)" style="stroke:#000000; stroke-width:4; stroke-opacity:1; fill:none" points="
  1893.14,412.808 1893.14,264.451 
  "/>
<line clip-path="url(#clip7903)" x1="1913.14" y1="412.808" x2="1873.14" y2="412.808" style="stroke:#000000; stroke-width:4; stroke-opacity:1"/>
<line clip-path="url(#clip7903)" x1="1913.14" y1="264.451" x2="1873.14" y2="264.451" style="stroke:#000000; stroke-width:4; stroke-opacity:1"/>
<polyline clip-path="url(#clip7903)" style="stroke:#000000; stroke-width:4; stroke-opacity:1; fill:none" points="
  1929.98,640.395 1929.98,497.614 
  "/>
<line clip-path="url(#clip7903)" x1="1949.98" y1="640.395" x2="1909.98" y2="640.395" style="stroke:#000000; stroke-width:4; stroke-opacity:1"/>
<line clip-path="url(#clip7903)" x1="1949.98" y1="497.614" x2="1909.98" y2="497.614" style="stroke:#000000; stroke-width:4; stroke-opacity:1"/>
<polyline clip-path="url(#clip7903)" style="stroke:#000000; stroke-width:4; stroke-opacity:1; fill:none" points="
  1966.83,624.56 1966.83,479.861 
  "/>
<line clip-path="url(#clip7903)" x1="1986.83" y1="624.56" x2="1946.83" y2="624.56" style="stroke:#000000; stroke-width:4; stroke-opacity:1"/>
<line clip-path="url(#clip7903)" x1="1986.83" y1="479.861" x2="1946.83" y2="479.861" style="stroke:#000000; stroke-width:4; stroke-opacity:1"/>
<polyline clip-path="url(#clip7903)" style="stroke:#000000; stroke-width:4; stroke-opacity:1; fill:none" points="
  2003.67,710.671 2003.67,553.875 
  "/>
<line clip-path="url(#clip7903)" x1="2023.67" y1="710.671" x2="1983.67" y2="710.671" style="stroke:#000000; stroke-width:4; stroke-opacity:1"/>
<line clip-path="url(#clip7903)" x1="2023.67" y1="553.875" x2="1983.67" y2="553.875" style="stroke:#000000; stroke-width:4; stroke-opacity:1"/>
<polyline clip-path="url(#clip7903)" style="stroke:#000000; stroke-width:4; stroke-opacity:1; fill:none" points="
  2040.51,514.861 2040.51,304.868 
  "/>
<line clip-path="url(#clip7903)" x1="2060.51" y1="514.861" x2="2020.51" y2="514.861" style="stroke:#000000; stroke-width:4; stroke-opacity:1"/>
<line clip-path="url(#clip7903)" x1="2060.51" y1="304.868" x2="2020.51" y2="304.868" style="stroke:#000000; stroke-width:4; stroke-opacity:1"/>
<polyline clip-path="url(#clip7903)" style="stroke:#000000; stroke-width:4; stroke-opacity:1; fill:none" points="
  2077.36,576.928 2077.36,442.961 
  "/>
<line clip-path="url(#clip7903)" x1="2097.36" y1="576.928" x2="2057.36" y2="576.928" style="stroke:#000000; stroke-width:4; stroke-opacity:1"/>
<line clip-path="url(#clip7903)" x1="2097.36" y1="442.961" x2="2057.36" y2="442.961" style="stroke:#000000; stroke-width:4; stroke-opacity:1"/>
<polyline clip-path="url(#clip7903)" style="stroke:#000000; stroke-width:4; stroke-opacity:1; fill:none" points="
  2114.2,636.291 2114.2,457.153 
  "/>
<line clip-path="url(#clip7903)" x1="2134.2" y1="636.291" x2="2094.2" y2="636.291" style="stroke:#000000; stroke-width:4; stroke-opacity:1"/>
<line clip-path="url(#clip7903)" x1="2134.2" y1="457.153" x2="2094.2" y2="457.153" style="stroke:#000000; stroke-width:4; stroke-opacity:1"/>
<polyline clip-path="url(#clip7903)" style="stroke:#000000; stroke-width:4; stroke-opacity:1; fill:none" points="
  2151.04,832.971 2151.04,624.66 
  "/>
<line clip-path="url(#clip7903)" x1="2171.04" y1="832.971" x2="2131.04" y2="832.971" style="stroke:#000000; stroke-width:4; stroke-opacity:1"/>
<line clip-path="url(#clip7903)" x1="2171.04" y1="624.66" x2="2131.04" y2="624.66" style="stroke:#000000; stroke-width:4; stroke-opacity:1"/>
<polyline clip-path="url(#clip7903)" style="stroke:#000000; stroke-width:4; stroke-opacity:1; fill:none" points="
  2187.89,853.049 2187.89,687.362 
  "/>
<line clip-path="url(#clip7903)" x1="2207.89" y1="853.049" x2="2167.89" y2="853.049" style="stroke:#000000; stroke-width:4; stroke-opacity:1"/>
<line clip-path="url(#clip7903)" x1="2207.89" y1="687.362" x2="2167.89" y2="687.362" style="stroke:#000000; stroke-width:4; stroke-opacity:1"/>
<polyline clip-path="url(#clip7903)" style="stroke:#000000; stroke-width:4; stroke-opacity:1; fill:none" points="
  2224.73,673.961 2224.73,512.386 
  "/>
<line clip-path="url(#clip7903)" x1="2244.73" y1="673.961" x2="2204.73" y2="673.961" style="stroke:#000000; stroke-width:4; stroke-opacity:1"/>
<line clip-path="url(#clip7903)" x1="2244.73" y1="512.386" x2="2204.73" y2="512.386" style="stroke:#000000; stroke-width:4; stroke-opacity:1"/>
<polyline clip-path="url(#clip7903)" style="stroke:#000000; stroke-width:4; stroke-opacity:1; fill:none" points="
  2261.57,697.382 2261.57,542.082 
  "/>
<line clip-path="url(#clip7903)" x1="2281.57" y1="697.382" x2="2241.57" y2="697.382" style="stroke:#000000; stroke-width:4; stroke-opacity:1"/>
<line clip-path="url(#clip7903)" x1="2281.57" y1="542.082" x2="2241.57" y2="542.082" style="stroke:#000000; stroke-width:4; stroke-opacity:1"/>
</svg>
