<?xml version="1.0" encoding="utf-8"?>
<svg xmlns="http://www.w3.org/2000/svg" xmlns:xlink="http://www.w3.org/1999/xlink" width="600" height="400" viewBox="0 0 2400 1600">
<defs>
  <clipPath id="clip7500">
    <rect x="0" y="0" width="2000" height="2000"/>
  </clipPath>
</defs>
<defs>
  <clipPath id="clip7501">
    <rect x="0" y="0" width="2400" height="1600"/>
  </clipPath>
</defs>
<polygon clip-path="url(#clip7501)" points="
0,1600 2400,1600 2400,0 0,0 
  " fill="#ffffff" fill-rule="evenodd" fill-opacity="1"/>
<defs>
  <clipPath id="clip7502">
    <rect x="480" y="0" width="1681" height="1600"/>
  </clipPath>
</defs>
<polygon clip-path="url(#clip7501)" points="
212.353,1440.48 2321.26,1440.48 2321.26,47.2441 212.353,47.2441 
  " fill="#ffffff" fill-rule="evenodd" fill-opacity="1"/>
<defs>
  <clipPath id="clip7503">
    <rect x="212" y="47" width="2110" height="1394"/>
  </clipPath>
</defs>
<polyline clip-path="url(#clip7503)" style="stroke:#000000; stroke-width:2; stroke-opacity:0.1; fill:none" points="
  235.196,1440.48 235.196,47.2441 
  "/>
<polyline clip-path="url(#clip7503)" style="stroke:#000000; stroke-width:2; stroke-opacity:0.1; fill:none" points="
  603.628,1440.48 603.628,47.2441 
  "/>
<polyline clip-path="url(#clip7503)" style="stroke:#000000; stroke-width:2; stroke-opacity:0.1; fill:none" points="
  972.06,1440.48 972.06,47.2441 
  "/>
<polyline clip-path="url(#clip7503)" style="stroke:#000000; stroke-width:2; stroke-opacity:0.1; fill:none" points="
  1340.49,1440.48 1340.49,47.2441 
  "/>
<polyline clip-path="url(#clip7503)" style="stroke:#000000; stroke-width:2; stroke-opacity:0.1; fill:none" points="
  1708.93,1440.48 1708.93,47.2441 
  "/>
<polyline clip-path="url(#clip7503)" style="stroke:#000000; stroke-width:2; stroke-opacity:0.1; fill:none" points="
  2077.36,1440.48 2077.36,47.2441 
  "/>
<polyline clip-path="url(#clip7503)" style="stroke:#000000; stroke-width:2; stroke-opacity:0.1; fill:none" points="
  212.353,1347.39 2321.26,1347.39 
  "/>
<polyline clip-path="url(#clip7503)" style="stroke:#000000; stroke-width:2; stroke-opacity:0.1; fill:none" points="
  212.353,1051.44 2321.26,1051.44 
  "/>
<polyline clip-path="url(#clip7503)" style="stroke:#000000; stroke-width:2; stroke-opacity:0.1; fill:none" points="
  212.353,755.487 2321.26,755.487 
  "/>
<polyline clip-path="url(#clip7503)" style="stroke:#000000; stroke-width:2; stroke-opacity:0.1; fill:none" points="
  212.353,459.533 2321.26,459.533 
  "/>
<polyline clip-path="url(#clip7503)" style="stroke:#000000; stroke-width:2; stroke-opacity:0.1; fill:none" points="
  212.353,163.579 2321.26,163.579 
  "/>
<polyline clip-path="url(#clip7501)" style="stroke:#000000; stroke-width:4; stroke-opacity:1; fill:none" points="
  212.353,1440.48 2321.26,1440.48 
  "/>
<polyline clip-path="url(#clip7501)" style="stroke:#000000; stroke-width:4; stroke-opacity:1; fill:none" points="
  212.353,1440.48 212.353,47.2441 
  "/>
<polyline clip-path="url(#clip7501)" style="stroke:#000000; stroke-width:4; stroke-opacity:1; fill:none" points="
  235.196,1440.48 235.196,1419.58 
  "/>
<polyline clip-path="url(#clip7501)" style="stroke:#000000; stroke-width:4; stroke-opacity:1; fill:none" points="
  603.628,1440.48 603.628,1419.58 
  "/>
<polyline clip-path="url(#clip7501)" style="stroke:#000000; stroke-width:4; stroke-opacity:1; fill:none" points="
  972.06,1440.48 972.06,1419.58 
  "/>
<polyline clip-path="url(#clip7501)" style="stroke:#000000; stroke-width:4; stroke-opacity:1; fill:none" points="
  1340.49,1440.48 1340.49,1419.58 
  "/>
<polyline clip-path="url(#clip7501)" style="stroke:#000000; stroke-width:4; stroke-opacity:1; fill:none" points="
  1708.93,1440.48 1708.93,1419.58 
  "/>
<polyline clip-path="url(#clip7501)" style="stroke:#000000; stroke-width:4; stroke-opacity:1; fill:none" points="
  2077.36,1440.48 2077.36,1419.58 
  "/>
<polyline clip-path="url(#clip7501)" style="stroke:#000000; stroke-width:4; stroke-opacity:1; fill:none" points="
  212.353,1347.39 243.986,1347.39 
  "/>
<polyline clip-path="url(#clip7501)" style="stroke:#000000; stroke-width:4; stroke-opacity:1; fill:none" points="
  212.353,1051.44 243.986,1051.44 
  "/>
<polyline clip-path="url(#clip7501)" style="stroke:#000000; stroke-width:4; stroke-opacity:1; fill:none" points="
  212.353,755.487 243.986,755.487 
  "/>
<polyline clip-path="url(#clip7501)" style="stroke:#000000; stroke-width:4; stroke-opacity:1; fill:none" points="
  212.353,459.533 243.986,459.533 
  "/>
<polyline clip-path="url(#clip7501)" style="stroke:#000000; stroke-width:4; stroke-opacity:1; fill:none" points="
  212.353,163.579 243.986,163.579 
  "/>
<g clip-path="url(#clip7501)">
<text style="fill:#000000; fill-opacity:1; font-family:Arial,Helvetica Neue,Helvetica,sans-serif; font-size:48px; text-anchor:middle;" transform="rotate(0, 235.196, 1494.48)" x="235.196" y="1494.48">0</text>
</g>
<g clip-path="url(#clip7501)">
<text style="fill:#000000; fill-opacity:1; font-family:Arial,Helvetica Neue,Helvetica,sans-serif; font-size:48px; text-anchor:middle;" transform="rotate(0, 603.628, 1494.48)" x="603.628" y="1494.48">10</text>
</g>
<g clip-path="url(#clip7501)">
<text style="fill:#000000; fill-opacity:1; font-family:Arial,Helvetica Neue,Helvetica,sans-serif; font-size:48px; text-anchor:middle;" transform="rotate(0, 972.06, 1494.48)" x="972.06" y="1494.48">20</text>
</g>
<g clip-path="url(#clip7501)">
<text style="fill:#000000; fill-opacity:1; font-family:Arial,Helvetica Neue,Helvetica,sans-serif; font-size:48px; text-anchor:middle;" transform="rotate(0, 1340.49, 1494.48)" x="1340.49" y="1494.48">30</text>
</g>
<g clip-path="url(#clip7501)">
<text style="fill:#000000; fill-opacity:1; font-family:Arial,Helvetica Neue,Helvetica,sans-serif; font-size:48px; text-anchor:middle;" transform="rotate(0, 1708.93, 1494.48)" x="1708.93" y="1494.48">40</text>
</g>
<g clip-path="url(#clip7501)">
<text style="fill:#000000; fill-opacity:1; font-family:Arial,Helvetica Neue,Helvetica,sans-serif; font-size:48px; text-anchor:middle;" transform="rotate(0, 2077.36, 1494.48)" x="2077.36" y="1494.48">50</text>
</g>
<g clip-path="url(#clip7501)">
<text style="fill:#000000; fill-opacity:1; font-family:Arial,Helvetica Neue,Helvetica,sans-serif; font-size:48px; text-anchor:end;" transform="rotate(0, 188.353, 1364.89)" x="188.353" y="1364.89">-6</text>
</g>
<g clip-path="url(#clip7501)">
<text style="fill:#000000; fill-opacity:1; font-family:Arial,Helvetica Neue,Helvetica,sans-serif; font-size:48px; text-anchor:end;" transform="rotate(0, 188.353, 1068.94)" x="188.353" y="1068.94">-4</text>
</g>
<g clip-path="url(#clip7501)">
<text style="fill:#000000; fill-opacity:1; font-family:Arial,Helvetica Neue,Helvetica,sans-serif; font-size:48px; text-anchor:end;" transform="rotate(0, 188.353, 772.987)" x="188.353" y="772.987">-2</text>
</g>
<g clip-path="url(#clip7501)">
<text style="fill:#000000; fill-opacity:1; font-family:Arial,Helvetica Neue,Helvetica,sans-serif; font-size:48px; text-anchor:end;" transform="rotate(0, 188.353, 477.033)" x="188.353" y="477.033">0</text>
</g>
<g clip-path="url(#clip7501)">
<text style="fill:#000000; fill-opacity:1; font-family:Arial,Helvetica Neue,Helvetica,sans-serif; font-size:48px; text-anchor:end;" transform="rotate(0, 188.353, 181.079)" x="188.353" y="181.079">2</text>
</g>
<g clip-path="url(#clip7501)">
<text style="fill:#000000; fill-opacity:1; font-family:Arial,Helvetica Neue,Helvetica,sans-serif; font-size:66px; text-anchor:middle;" transform="rotate(0, 1266.81, 1590.4)" x="1266.81" y="1590.4">Index</text>
</g>
<g clip-path="url(#clip7501)">
<text style="fill:#000000; fill-opacity:1; font-family:Arial,Helvetica Neue,Helvetica,sans-serif; font-size:66px; text-anchor:middle;" transform="rotate(-90, 57.6, 743.863)" x="57.6" y="743.863">Value</text>
</g>
<polyline clip-path="url(#clip7503)" style="stroke:#000000; stroke-width:4; stroke-opacity:1; fill:none" points="
  272.039,654.352 272.039,603.252 
  "/>
<line clip-path="url(#clip7503)" x1="292.039" y1="654.352" x2="252.039" y2="654.352" style="stroke:#000000; stroke-width:4; stroke-opacity:1"/>
<line clip-path="url(#clip7503)" x1="292.039" y1="603.252" x2="252.039" y2="603.252" style="stroke:#000000; stroke-width:4; stroke-opacity:1"/>
<polyline clip-path="url(#clip7503)" style="stroke:#000000; stroke-width:4; stroke-opacity:1; fill:none" points="
  308.882,691.158 308.882,641.134 
  "/>
<line clip-path="url(#clip7503)" x1="328.882" y1="691.158" x2="288.882" y2="691.158" style="stroke:#000000; stroke-width:4; stroke-opacity:1"/>
<line clip-path="url(#clip7503)" x1="328.882" y1="641.134" x2="288.882" y2="641.134" style="stroke:#000000; stroke-width:4; stroke-opacity:1"/>
<polyline clip-path="url(#clip7503)" style="stroke:#000000; stroke-width:4; stroke-opacity:1; fill:none" points="
  345.725,817.692 345.725,761.084 
  "/>
<line clip-path="url(#clip7503)" x1="365.725" y1="817.692" x2="325.725" y2="817.692" style="stroke:#000000; stroke-width:4; stroke-opacity:1"/>
<line clip-path="url(#clip7503)" x1="365.725" y1="761.084" x2="325.725" y2="761.084" style="stroke:#000000; stroke-width:4; stroke-opacity:1"/>
<polyline clip-path="url(#clip7503)" style="stroke:#000000; stroke-width:4; stroke-opacity:1; fill:none" points="
  382.569,810.194 382.569,753.243 
  "/>
<line clip-path="url(#clip7503)" x1="402.569" y1="810.194" x2="362.569" y2="810.194" style="stroke:#000000; stroke-width:4; stroke-opacity:1"/>
<line clip-path="url(#clip7503)" x1="402.569" y1="753.243" x2="362.569" y2="753.243" style="stroke:#000000; stroke-width:4; stroke-opacity:1"/>
<polyline clip-path="url(#clip7503)" style="stroke:#000000; stroke-width:4; stroke-opacity:1; fill:none" points="
  419.412,603.657 419.412,564.33 
  "/>
<line clip-path="url(#clip7503)" x1="439.412" y1="603.657" x2="399.412" y2="603.657" style="stroke:#000000; stroke-width:4; stroke-opacity:1"/>
<line clip-path="url(#clip7503)" x1="439.412" y1="564.33" x2="399.412" y2="564.33" style="stroke:#000000; stroke-width:4; stroke-opacity:1"/>
<polyline clip-path="url(#clip7503)" style="stroke:#000000; stroke-width:4; stroke-opacity:1; fill:none" points="
  456.255,587.346 456.255,525.982 
  "/>
<line clip-path="url(#clip7503)" x1="476.255" y1="587.346" x2="436.255" y2="587.346" style="stroke:#000000; stroke-width:4; stroke-opacity:1"/>
<line clip-path="url(#clip7503)" x1="476.255" y1="525.982" x2="436.255" y2="525.982" style="stroke:#000000; stroke-width:4; stroke-opacity:1"/>
<polyline clip-path="url(#clip7503)" style="stroke:#000000; stroke-width:4; stroke-opacity:1; fill:none" points="
  493.098,704.023 493.098,650.53 
  "/>
<line clip-path="url(#clip7503)" x1="513.098" y1="704.023" x2="473.098" y2="704.023" style="stroke:#000000; stroke-width:4; stroke-opacity:1"/>
<line clip-path="url(#clip7503)" x1="513.098" y1="650.53" x2="473.098" y2="650.53" style="stroke:#000000; stroke-width:4; stroke-opacity:1"/>
<polyline clip-path="url(#clip7503)" style="stroke:#000000; stroke-width:4; stroke-opacity:1; fill:none" points="
  529.941,678.793 529.941,616.161 
  "/>
<line clip-path="url(#clip7503)" x1="549.941" y1="678.793" x2="509.941" y2="678.793" style="stroke:#000000; stroke-width:4; stroke-opacity:1"/>
<line clip-path="url(#clip7503)" x1="549.941" y1="616.161" x2="509.941" y2="616.161" style="stroke:#000000; stroke-width:4; stroke-opacity:1"/>
<polyline clip-path="url(#clip7503)" style="stroke:#000000; stroke-width:4; stroke-opacity:1; fill:none" points="
  566.785,702.504 566.785,661.892 
  "/>
<line clip-path="url(#clip7503)" x1="586.785" y1="702.504" x2="546.785" y2="702.504" style="stroke:#000000; stroke-width:4; stroke-opacity:1"/>
<line clip-path="url(#clip7503)" x1="586.785" y1="661.892" x2="546.785" y2="661.892" style="stroke:#000000; stroke-width:4; stroke-opacity:1"/>
<polyline clip-path="url(#clip7503)" style="stroke:#000000; stroke-width:4; stroke-opacity:1; fill:none" points="
  603.628,749.155 603.628,684.069 
  "/>
<line clip-path="url(#clip7503)" x1="623.628" y1="749.155" x2="583.628" y2="749.155" style="stroke:#000000; stroke-width:4; stroke-opacity:1"/>
<line clip-path="url(#clip7503)" x1="623.628" y1="684.069" x2="583.628" y2="684.069" style="stroke:#000000; stroke-width:4; stroke-opacity:1"/>
<polyline clip-path="url(#clip7503)" style="stroke:#000000; stroke-width:4; stroke-opacity:1; fill:none" points="
  640.471,774.337 640.471,721.485 
  "/>
<line clip-path="url(#clip7503)" x1="660.471" y1="774.337" x2="620.471" y2="774.337" style="stroke:#000000; stroke-width:4; stroke-opacity:1"/>
<line clip-path="url(#clip7503)" x1="660.471" y1="721.485" x2="620.471" y2="721.485" style="stroke:#000000; stroke-width:4; stroke-opacity:1"/>
<polyline clip-path="url(#clip7503)" style="stroke:#000000; stroke-width:4; stroke-opacity:1; fill:none" points="
  677.314,671.007 677.314,630.271 
  "/>
<line clip-path="url(#clip7503)" x1="697.314" y1="671.007" x2="657.314" y2="671.007" style="stroke:#000000; stroke-width:4; stroke-opacity:1"/>
<line clip-path="url(#clip7503)" x1="697.314" y1="630.271" x2="657.314" y2="630.271" style="stroke:#000000; stroke-width:4; stroke-opacity:1"/>
<polyline clip-path="url(#clip7503)" style="stroke:#000000; stroke-width:4; stroke-opacity:1; fill:none" points="
  714.158,747.179 714.158,705.684 
  "/>
<line clip-path="url(#clip7503)" x1="734.158" y1="747.179" x2="694.158" y2="747.179" style="stroke:#000000; stroke-width:4; stroke-opacity:1"/>
<line clip-path="url(#clip7503)" x1="734.158" y1="705.684" x2="694.158" y2="705.684" style="stroke:#000000; stroke-width:4; stroke-opacity:1"/>
<polyline clip-path="url(#clip7503)" style="stroke:#000000; stroke-width:4; stroke-opacity:1; fill:none" points="
  751.001,874.818 751.001,833.337 
  "/>
<line clip-path="url(#clip7503)" x1="771.001" y1="874.818" x2="731.001" y2="874.818" style="stroke:#000000; stroke-width:4; stroke-opacity:1"/>
<line clip-path="url(#clip7503)" x1="771.001" y1="833.337" x2="731.001" y2="833.337" style="stroke:#000000; stroke-width:4; stroke-opacity:1"/>
<polyline clip-path="url(#clip7503)" style="stroke:#000000; stroke-width:4; stroke-opacity:1; fill:none" points="
  787.844,1056.05 787.844,1001.56 
  "/>
<line clip-path="url(#clip7503)" x1="807.844" y1="1056.05" x2="767.844" y2="1056.05" style="stroke:#000000; stroke-width:4; stroke-opacity:1"/>
<line clip-path="url(#clip7503)" x1="807.844" y1="1001.56" x2="767.844" y2="1001.56" style="stroke:#000000; stroke-width:4; stroke-opacity:1"/>
<polyline clip-path="url(#clip7503)" style="stroke:#000000; stroke-width:4; stroke-opacity:1; fill:none" points="
  824.687,1288.32 824.687,1241.89 
  "/>
<line clip-path="url(#clip7503)" x1="844.687" y1="1288.32" x2="804.687" y2="1288.32" style="stroke:#000000; stroke-width:4; stroke-opacity:1"/>
<line clip-path="url(#clip7503)" x1="844.687" y1="1241.89" x2="804.687" y2="1241.89" style="stroke:#000000; stroke-width:4; stroke-opacity:1"/>
<polyline clip-path="url(#clip7503)" style="stroke:#000000; stroke-width:4; stroke-opacity:1; fill:none" points="
  861.531,1401.05 861.531,1353.93 
  "/>
<line clip-path="url(#clip7503)" x1="881.531" y1="1401.05" x2="841.531" y2="1401.05" style="stroke:#000000; stroke-width:4; stroke-opacity:1"/>
<line clip-path="url(#clip7503)" x1="881.531" y1="1353.93" x2="841.531" y2="1353.93" style="stroke:#000000; stroke-width:4; stroke-opacity:1"/>
<polyline clip-path="url(#clip7503)" style="stroke:#000000; stroke-width:4; stroke-opacity:1; fill:none" points="
  898.374,1250.1 898.374,1208.6 
  "/>
<line clip-path="url(#clip7503)" x1="918.374" y1="1250.1" x2="878.374" y2="1250.1" style="stroke:#000000; stroke-width:4; stroke-opacity:1"/>
<line clip-path="url(#clip7503)" x1="918.374" y1="1208.6" x2="878.374" y2="1208.6" style="stroke:#000000; stroke-width:4; stroke-opacity:1"/>
<polyline clip-path="url(#clip7503)" style="stroke:#000000; stroke-width:4; stroke-opacity:1; fill:none" points="
  935.217,1170.68 935.217,1111.71 
  "/>
<line clip-path="url(#clip7503)" x1="955.217" y1="1170.68" x2="915.217" y2="1170.68" style="stroke:#000000; stroke-width:4; stroke-opacity:1"/>
<line clip-path="url(#clip7503)" x1="955.217" y1="1111.71" x2="915.217" y2="1111.71" style="stroke:#000000; stroke-width:4; stroke-opacity:1"/>
<polyline clip-path="url(#clip7503)" style="stroke:#000000; stroke-width:4; stroke-opacity:1; fill:none" points="
  972.06,971.779 972.06,910.305 
  "/>
<line clip-path="url(#clip7503)" x1="992.06" y1="971.779" x2="952.06" y2="971.779" style="stroke:#000000; stroke-width:4; stroke-opacity:1"/>
<line clip-path="url(#clip7503)" x1="992.06" y1="910.305" x2="952.06" y2="910.305" style="stroke:#000000; stroke-width:4; stroke-opacity:1"/>
<polyline clip-path="url(#clip7503)" style="stroke:#000000; stroke-width:4; stroke-opacity:1; fill:none" points="
  1008.9,1093.14 1008.9,1048.97 
  "/>
<line clip-path="url(#clip7503)" x1="1028.9" y1="1093.14" x2="988.904" y2="1093.14" style="stroke:#000000; stroke-width:4; stroke-opacity:1"/>
<line clip-path="url(#clip7503)" x1="1028.9" y1="1048.97" x2="988.904" y2="1048.97" style="stroke:#000000; stroke-width:4; stroke-opacity:1"/>
<polyline clip-path="url(#clip7503)" style="stroke:#000000; stroke-width:4; stroke-opacity:1; fill:none" points="
  1045.75,944.875 1045.75,891.818 
  "/>
<line clip-path="url(#clip7503)" x1="1065.75" y1="944.875" x2="1025.75" y2="944.875" style="stroke:#000000; stroke-width:4; stroke-opacity:1"/>
<line clip-path="url(#clip7503)" x1="1065.75" y1="891.818" x2="1025.75" y2="891.818" style="stroke:#000000; stroke-width:4; stroke-opacity:1"/>
<polyline clip-path="url(#clip7503)" style="stroke:#000000; stroke-width:4; stroke-opacity:1; fill:none" points="
  1082.59,704.831 1082.59,640.209 
  "/>
<line clip-path="url(#clip7503)" x1="1102.59" y1="704.831" x2="1062.59" y2="704.831" style="stroke:#000000; stroke-width:4; stroke-opacity:1"/>
<line clip-path="url(#clip7503)" x1="1102.59" y1="640.209" x2="1062.59" y2="640.209" style="stroke:#000000; stroke-width:4; stroke-opacity:1"/>
<polyline clip-path="url(#clip7503)" style="stroke:#000000; stroke-width:4; stroke-opacity:1; fill:none" points="
  1119.43,668.609 1119.43,606.629 
  "/>
<line clip-path="url(#clip7503)" x1="1139.43" y1="668.609" x2="1099.43" y2="668.609" style="stroke:#000000; stroke-width:4; stroke-opacity:1"/>
<line clip-path="url(#clip7503)" x1="1139.43" y1="606.629" x2="1099.43" y2="606.629" style="stroke:#000000; stroke-width:4; stroke-opacity:1"/>
<polyline clip-path="url(#clip7503)" style="stroke:#000000; stroke-width:4; stroke-opacity:1; fill:none" points="
  1156.28,679.03 1156.28,620.838 
  "/>
<line clip-path="url(#clip7503)" x1="1176.28" y1="679.03" x2="1136.28" y2="679.03" style="stroke:#000000; stroke-width:4; stroke-opacity:1"/>
<line clip-path="url(#clip7503)" x1="1176.28" y1="620.838" x2="1136.28" y2="620.838" style="stroke:#000000; stroke-width:4; stroke-opacity:1"/>
<polyline clip-path="url(#clip7503)" style="stroke:#000000; stroke-width:4; stroke-opacity:1; fill:none" points="
  1193.12,617.704 1193.12,568.211 
  "/>
<line clip-path="url(#clip7503)" x1="1213.12" y1="617.704" x2="1173.12" y2="617.704" style="stroke:#000000; stroke-width:4; stroke-opacity:1"/>
<line clip-path="url(#clip7503)" x1="1213.12" y1="568.211" x2="1173.12" y2="568.211" style="stroke:#000000; stroke-width:4; stroke-opacity:1"/>
<polyline clip-path="url(#clip7503)" style="stroke:#000000; stroke-width:4; stroke-opacity:1; fill:none" points="
  1229.96,706.954 1229.96,657.054 
  "/>
<line clip-path="url(#clip7503)" x1="1249.96" y1="706.954" x2="1209.96" y2="706.954" style="stroke:#000000; stroke-width:4; stroke-opacity:1"/>
<line clip-path="url(#clip7503)" x1="1249.96" y1="657.054" x2="1209.96" y2="657.054" style="stroke:#000000; stroke-width:4; stroke-opacity:1"/>
<polyline clip-path="url(#clip7503)" style="stroke:#000000; stroke-width:4; stroke-opacity:1; fill:none" points="
  1266.81,478.172 1266.81,418.975 
  "/>
<line clip-path="url(#clip7503)" x1="1286.81" y1="478.172" x2="1246.81" y2="478.172" style="stroke:#000000; stroke-width:4; stroke-opacity:1"/>
<line clip-path="url(#clip7503)" x1="1286.81" y1="418.975" x2="1246.81" y2="418.975" style="stroke:#000000; stroke-width:4; stroke-opacity:1"/>
<polyline clip-path="url(#clip7503)" style="stroke:#000000; stroke-width:4; stroke-opacity:1; fill:none" points="
  1303.65,473.578 1303.65,410.633 
  "/>
<line clip-path="url(#clip7503)" x1="1323.65" y1="473.578" x2="1283.65" y2="473.578" style="stroke:#000000; stroke-width:4; stroke-opacity:1"/>
<line clip-path="url(#clip7503)" x1="1323.65" y1="410.633" x2="1283.65" y2="410.633" style="stroke:#000000; stroke-width:4; stroke-opacity:1"/>
<polyline clip-path="url(#clip7503)" style="stroke:#000000; stroke-width:4; stroke-opacity:1; fill:none" points="
  1340.49,486.407 1340.49,425.237 
  "/>
<line clip-path="url(#clip7503)" x1="1360.49" y1="486.407" x2="1320.49" y2="486.407" style="stroke:#000000; stroke-width:4; stroke-opacity:1"/>
<line clip-path="url(#clip7503)" x1="1360.49" y1="425.237" x2="1320.49" y2="425.237" style="stroke:#000000; stroke-width:4; stroke-opacity:1"/>
<polyline clip-path="url(#clip7503)" style="stroke:#000000; stroke-width:4; stroke-opacity:1; fill:none" points="
  1377.34,234.96 1377.34,187.623 
  "/>
<line clip-path="url(#clip7503)" x1="1397.34" y1="234.96" x2="1357.34" y2="234.96" style="stroke:#000000; stroke-width:4; stroke-opacity:1"/>
<line clip-path="url(#clip7503)" x1="1397.34" y1="187.623" x2="1357.34" y2="187.623" style="stroke:#000000; stroke-width:4; stroke-opacity:1"/>
<polyline clip-path="url(#clip7503)" style="stroke:#000000; stroke-width:4; stroke-opacity:1; fill:none" points="
  1414.18,160.951 1414.18,115.988 
  "/>
<line clip-path="url(#clip7503)" x1="1434.18" y1="160.951" x2="1394.18" y2="160.951" style="stroke:#000000; stroke-width:4; stroke-opacity:1"/>
<line clip-path="url(#clip7503)" x1="1434.18" y1="115.988" x2="1394.18" y2="115.988" style="stroke:#000000; stroke-width:4; stroke-opacity:1"/>
<polyline clip-path="url(#clip7503)" style="stroke:#000000; stroke-width:4; stroke-opacity:1; fill:none" points="
  1451.02,229.123 1451.02,169.763 
  "/>
<line clip-path="url(#clip7503)" x1="1471.02" y1="229.123" x2="1431.02" y2="229.123" style="stroke:#000000; stroke-width:4; stroke-opacity:1"/>
<line clip-path="url(#clip7503)" x1="1471.02" y1="169.763" x2="1431.02" y2="169.763" style="stroke:#000000; stroke-width:4; stroke-opacity:1"/>
<polyline clip-path="url(#clip7503)" style="stroke:#000000; stroke-width:4; stroke-opacity:1; fill:none" points="
  1487.87,152.369 1487.87,92.5012 
  "/>
<line clip-path="url(#clip7503)" x1="1507.87" y1="152.369" x2="1467.87" y2="152.369" style="stroke:#000000; stroke-width:4; stroke-opacity:1"/>
<line clip-path="url(#clip7503)" x1="1507.87" y1="92.5012" x2="1467.87" y2="92.5012" style="stroke:#000000; stroke-width:4; stroke-opacity:1"/>
<polyline clip-path="url(#clip7503)" style="stroke:#000000; stroke-width:4; stroke-opacity:1; fill:none" points="
  1524.71,279.276 1524.71,227.402 
  "/>
<line clip-path="url(#clip7503)" x1="1544.71" y1="279.276" x2="1504.71" y2="279.276" style="stroke:#000000; stroke-width:4; stroke-opacity:1"/>
<line clip-path="url(#clip7503)" x1="1544.71" y1="227.402" x2="1504.71" y2="227.402" style="stroke:#000000; stroke-width:4; stroke-opacity:1"/>
<polyline clip-path="url(#clip7503)" style="stroke:#000000; stroke-width:4; stroke-opacity:1; fill:none" points="
  1561.55,370.736 1561.55,308.631 
  "/>
<line clip-path="url(#clip7503)" x1="1581.55" y1="370.736" x2="1541.55" y2="370.736" style="stroke:#000000; stroke-width:4; stroke-opacity:1"/>
<line clip-path="url(#clip7503)" x1="1581.55" y1="308.631" x2="1541.55" y2="308.631" style="stroke:#000000; stroke-width:4; stroke-opacity:1"/>
<polyline clip-path="url(#clip7503)" style="stroke:#000000; stroke-width:4; stroke-opacity:1; fill:none" points="
  1598.4,131.122 1598.4,86.6754 
  "/>
<line clip-path="url(#clip7503)" x1="1618.4" y1="131.122" x2="1578.4" y2="131.122" style="stroke:#000000; stroke-width:4; stroke-opacity:1"/>
<line clip-path="url(#clip7503)" x1="1618.4" y1="86.6754" x2="1578.4" y2="86.6754" style="stroke:#000000; stroke-width:4; stroke-opacity:1"/>
<polyline clip-path="url(#clip7503)" style="stroke:#000000; stroke-width:4; stroke-opacity:1; fill:none" points="
  1635.24,274.572 1635.24,221.893 
  "/>
<line clip-path="url(#clip7503)" x1="1655.24" y1="274.572" x2="1615.24" y2="274.572" style="stroke:#000000; stroke-width:4; stroke-opacity:1"/>
<line clip-path="url(#clip7503)" x1="1655.24" y1="221.893" x2="1615.24" y2="221.893" style="stroke:#000000; stroke-width:4; stroke-opacity:1"/>
<polyline clip-path="url(#clip7503)" style="stroke:#000000; stroke-width:4; stroke-opacity:1; fill:none" points="
  1672.08,289.416 1672.08,225.874 
  "/>
<line clip-path="url(#clip7503)" x1="1692.08" y1="289.416" x2="1652.08" y2="289.416" style="stroke:#000000; stroke-width:4; stroke-opacity:1"/>
<line clip-path="url(#clip7503)" x1="1692.08" y1="225.874" x2="1652.08" y2="225.874" style="stroke:#000000; stroke-width:4; stroke-opacity:1"/>
<polyline clip-path="url(#clip7503)" style="stroke:#000000; stroke-width:4; stroke-opacity:1; fill:none" points="
  1708.93,214.766 1708.93,151.254 
  "/>
<line clip-path="url(#clip7503)" x1="1728.93" y1="214.766" x2="1688.93" y2="214.766" style="stroke:#000000; stroke-width:4; stroke-opacity:1"/>
<line clip-path="url(#clip7503)" x1="1728.93" y1="151.254" x2="1688.93" y2="151.254" style="stroke:#000000; stroke-width:4; stroke-opacity:1"/>
<polyline clip-path="url(#clip7503)" style="stroke:#000000; stroke-width:4; stroke-opacity:1; fill:none" points="
  1745.77,365.956 1745.77,305.523 
  "/>
<line clip-path="url(#clip7503)" x1="1765.77" y1="365.956" x2="1725.77" y2="365.956" style="stroke:#000000; stroke-width:4; stroke-opacity:1"/>
<line clip-path="url(#clip7503)" x1="1765.77" y1="305.523" x2="1725.77" y2="305.523" style="stroke:#000000; stroke-width:4; stroke-opacity:1"/>
<polyline clip-path="url(#clip7503)" style="stroke:#000000; stroke-width:4; stroke-opacity:1; fill:none" points="
  1782.61,504.144 1782.61,463.013 
  "/>
<line clip-path="url(#clip7503)" x1="1802.61" y1="504.144" x2="1762.61" y2="504.144" style="stroke:#000000; stroke-width:4; stroke-opacity:1"/>
<line clip-path="url(#clip7503)" x1="1802.61" y1="463.013" x2="1762.61" y2="463.013" style="stroke:#000000; stroke-width:4; stroke-opacity:1"/>
<polyline clip-path="url(#clip7503)" style="stroke:#000000; stroke-width:4; stroke-opacity:1; fill:none" points="
  1819.45,578.021 1819.45,522.09 
  "/>
<line clip-path="url(#clip7503)" x1="1839.45" y1="578.021" x2="1799.45" y2="578.021" style="stroke:#000000; stroke-width:4; stroke-opacity:1"/>
<line clip-path="url(#clip7503)" x1="1839.45" y1="522.09" x2="1799.45" y2="522.09" style="stroke:#000000; stroke-width:4; stroke-opacity:1"/>
<polyline clip-path="url(#clip7503)" style="stroke:#000000; stroke-width:4; stroke-opacity:1; fill:none" points="
  1856.3,427.757 1856.3,370.446 
  "/>
<line clip-path="url(#clip7503)" x1="1876.3" y1="427.757" x2="1836.3" y2="427.757" style="stroke:#000000; stroke-width:4; stroke-opacity:1"/>
<line clip-path="url(#clip7503)" x1="1876.3" y1="370.446" x2="1836.3" y2="370.446" style="stroke:#000000; stroke-width:4; stroke-opacity:1"/>
<polyline clip-path="url(#clip7503)" style="stroke:#000000; stroke-width:4; stroke-opacity:1; fill:none" points="
  1893.14,311.396 1893.14,267.472 
  "/>
<line clip-path="url(#clip7503)" x1="1913.14" y1="311.396" x2="1873.14" y2="311.396" style="stroke:#000000; stroke-width:4; stroke-opacity:1"/>
<line clip-path="url(#clip7503)" x1="1913.14" y1="267.472" x2="1873.14" y2="267.472" style="stroke:#000000; stroke-width:4; stroke-opacity:1"/>
<polyline clip-path="url(#clip7503)" style="stroke:#000000; stroke-width:4; stroke-opacity:1; fill:none" points="
  1929.98,565.606 1929.98,523.332 
  "/>
<line clip-path="url(#clip7503)" x1="1949.98" y1="565.606" x2="1909.98" y2="565.606" style="stroke:#000000; stroke-width:4; stroke-opacity:1"/>
<line clip-path="url(#clip7503)" x1="1949.98" y1="523.332" x2="1909.98" y2="523.332" style="stroke:#000000; stroke-width:4; stroke-opacity:1"/>
<polyline clip-path="url(#clip7503)" style="stroke:#000000; stroke-width:4; stroke-opacity:1; fill:none" points="
  1966.83,547.298 1966.83,504.456 
  "/>
<line clip-path="url(#clip7503)" x1="1986.83" y1="547.298" x2="1946.83" y2="547.298" style="stroke:#000000; stroke-width:4; stroke-opacity:1"/>
<line clip-path="url(#clip7503)" x1="1986.83" y1="504.456" x2="1946.83" y2="504.456" style="stroke:#000000; stroke-width:4; stroke-opacity:1"/>
<polyline clip-path="url(#clip7503)" style="stroke:#000000; stroke-width:4; stroke-opacity:1; fill:none" points="
  2003.67,637.721 2003.67,591.298 
  "/>
<line clip-path="url(#clip7503)" x1="2023.67" y1="637.721" x2="1983.67" y2="637.721" style="stroke:#000000; stroke-width:4; stroke-opacity:1"/>
<line clip-path="url(#clip7503)" x1="2023.67" y1="591.298" x2="1983.67" y2="591.298" style="stroke:#000000; stroke-width:4; stroke-opacity:1"/>
<polyline clip-path="url(#clip7503)" style="stroke:#000000; stroke-width:4; stroke-opacity:1; fill:none" points="
  2040.51,399.381 2040.51,337.207 
  "/>
<line clip-path="url(#clip7503)" x1="2060.51" y1="399.381" x2="2020.51" y2="399.381" style="stroke:#000000; stroke-width:4; stroke-opacity:1"/>
<line clip-path="url(#clip7503)" x1="2060.51" y1="337.207" x2="2020.51" y2="337.207" style="stroke:#000000; stroke-width:4; stroke-opacity:1"/>
<polyline clip-path="url(#clip7503)" style="stroke:#000000; stroke-width:4; stroke-opacity:1; fill:none" points="
  2077.36,498.919 2077.36,459.255 
  "/>
<line clip-path="url(#clip7503)" x1="2097.36" y1="498.919" x2="2057.36" y2="498.919" style="stroke:#000000; stroke-width:4; stroke-opacity:1"/>
<line clip-path="url(#clip7503)" x1="2097.36" y1="459.255" x2="2057.36" y2="459.255" style="stroke:#000000; stroke-width:4; stroke-opacity:1"/>
<polyline clip-path="url(#clip7503)" style="stroke:#000000; stroke-width:4; stroke-opacity:1; fill:none" points="
  2114.2,546.32 2114.2,493.282 
  "/>
<line clip-path="url(#clip7503)" x1="2134.2" y1="546.32" x2="2094.2" y2="546.32" style="stroke:#000000; stroke-width:4; stroke-opacity:1"/>
<line clip-path="url(#clip7503)" x1="2134.2" y1="493.282" x2="2094.2" y2="493.282" style="stroke:#000000; stroke-width:4; stroke-opacity:1"/>
<polyline clip-path="url(#clip7503)" style="stroke:#000000; stroke-width:4; stroke-opacity:1; fill:none" points="
  2151.04,752.224 2151.04,690.548 
  "/>
<line clip-path="url(#clip7503)" x1="2171.04" y1="752.224" x2="2131.04" y2="752.224" style="stroke:#000000; stroke-width:4; stroke-opacity:1"/>
<line clip-path="url(#clip7503)" x1="2171.04" y1="690.548" x2="2131.04" y2="690.548" style="stroke:#000000; stroke-width:4; stroke-opacity:1"/>
<polyline clip-path="url(#clip7503)" style="stroke:#000000; stroke-width:4; stroke-opacity:1; fill:none" points="
  2187.89,791.734 2187.89,742.678 
  "/>
<line clip-path="url(#clip7503)" x1="2207.89" y1="791.734" x2="2167.89" y2="791.734" style="stroke:#000000; stroke-width:4; stroke-opacity:1"/>
<line clip-path="url(#clip7503)" x1="2207.89" y1="742.678" x2="2167.89" y2="742.678" style="stroke:#000000; stroke-width:4; stroke-opacity:1"/>
<polyline clip-path="url(#clip7503)" style="stroke:#000000; stroke-width:4; stroke-opacity:1; fill:none" points="
  2224.73,595.144 2224.73,547.306 
  "/>
<line clip-path="url(#clip7503)" x1="2244.73" y1="595.144" x2="2204.73" y2="595.144" style="stroke:#000000; stroke-width:4; stroke-opacity:1"/>
<line clip-path="url(#clip7503)" x1="2244.73" y1="547.306" x2="2204.73" y2="547.306" style="stroke:#000000; stroke-width:4; stroke-opacity:1"/>
<polyline clip-path="url(#clip7503)" style="stroke:#000000; stroke-width:4; stroke-opacity:1; fill:none" points="
  2261.57,623.616 2261.57,577.636 
  "/>
<line clip-path="url(#clip7503)" x1="2281.57" y1="623.616" x2="2241.57" y2="623.616" style="stroke:#000000; stroke-width:4; stroke-opacity:1"/>
<line clip-path="url(#clip7503)" x1="2281.57" y1="577.636" x2="2241.57" y2="577.636" style="stroke:#000000; stroke-width:4; stroke-opacity:1"/>
</svg>
