<?xml version="1.0" encoding="utf-8"?>
<svg xmlns="http://www.w3.org/2000/svg" xmlns:xlink="http://www.w3.org/1999/xlink" width="600" height="400" viewBox="0 0 2400 1600">
<defs>
  <clipPath id="clip0400">
    <rect x="0" y="0" width="2000" height="2000"/>
  </clipPath>
</defs>
<defs>
  <clipPath id="clip0401">
    <rect x="0" y="0" width="2400" height="1600"/>
  </clipPath>
</defs>
<polygon clip-path="url(#clip0401)" points="
0,1600 2400,1600 2400,0 0,0 
  " fill="#ffffff" fill-rule="evenodd" fill-opacity="1"/>
<defs>
  <clipPath id="clip0402">
    <rect x="480" y="0" width="1681" height="1600"/>
  </clipPath>
</defs>
<polygon clip-path="url(#clip0401)" points="
264.53,1440.48 2321.26,1440.48 2321.26,47.2441 264.53,47.2441 
  " fill="#ffffff" fill-rule="evenodd" fill-opacity="1"/>
<defs>
  <clipPath id="clip0403">
    <rect x="264" y="47" width="2058" height="1394"/>
  </clipPath>
</defs>
<polyline clip-path="url(#clip0403)" style="stroke:#000000; stroke-width:2; stroke-opacity:0.1; fill:none" points="
  290.488,1440.48 290.488,47.2441 
  "/>
<polyline clip-path="url(#clip0403)" style="stroke:#000000; stroke-width:2; stroke-opacity:0.1; fill:none" points="
  726.317,1440.48 726.317,47.2441 
  "/>
<polyline clip-path="url(#clip0403)" style="stroke:#000000; stroke-width:2; stroke-opacity:0.1; fill:none" points="
  1162.15,1440.48 1162.15,47.2441 
  "/>
<polyline clip-path="url(#clip0403)" style="stroke:#000000; stroke-width:2; stroke-opacity:0.1; fill:none" points="
  1597.98,1440.48 1597.98,47.2441 
  "/>
<polyline clip-path="url(#clip0403)" style="stroke:#000000; stroke-width:2; stroke-opacity:0.1; fill:none" points="
  2033.8,1440.48 2033.8,47.2441 
  "/>
<polyline clip-path="url(#clip0403)" style="stroke:#000000; stroke-width:2; stroke-opacity:0.1; fill:none" points="
  264.53,1401.05 2321.26,1401.05 
  "/>
<polyline clip-path="url(#clip0403)" style="stroke:#000000; stroke-width:2; stroke-opacity:0.1; fill:none" points="
  264.53,1198.22 2321.26,1198.22 
  "/>
<polyline clip-path="url(#clip0403)" style="stroke:#000000; stroke-width:2; stroke-opacity:0.1; fill:none" points="
  264.53,995.38 2321.26,995.38 
  "/>
<polyline clip-path="url(#clip0403)" style="stroke:#000000; stroke-width:2; stroke-opacity:0.1; fill:none" points="
  264.53,792.544 2321.26,792.544 
  "/>
<polyline clip-path="url(#clip0403)" style="stroke:#000000; stroke-width:2; stroke-opacity:0.1; fill:none" points="
  264.53,589.708 2321.26,589.708 
  "/>
<polyline clip-path="url(#clip0403)" style="stroke:#000000; stroke-width:2; stroke-opacity:0.1; fill:none" points="
  264.53,386.872 2321.26,386.872 
  "/>
<polyline clip-path="url(#clip0403)" style="stroke:#000000; stroke-width:2; stroke-opacity:0.1; fill:none" points="
  264.53,184.037 2321.26,184.037 
  "/>
<polyline clip-path="url(#clip0401)" style="stroke:#000000; stroke-width:4; stroke-opacity:1; fill:none" points="
  264.53,1440.48 2321.26,1440.48 
  "/>
<polyline clip-path="url(#clip0401)" style="stroke:#000000; stroke-width:4; stroke-opacity:1; fill:none" points="
  264.53,1440.48 264.53,47.2441 
  "/>
<polyline clip-path="url(#clip0401)" style="stroke:#000000; stroke-width:4; stroke-opacity:1; fill:none" points="
  290.488,1440.48 290.488,1419.58 
  "/>
<polyline clip-path="url(#clip0401)" style="stroke:#000000; stroke-width:4; stroke-opacity:1; fill:none" points="
  726.317,1440.48 726.317,1419.58 
  "/>
<polyline clip-path="url(#clip0401)" style="stroke:#000000; stroke-width:4; stroke-opacity:1; fill:none" points="
  1162.15,1440.48 1162.15,1419.58 
  "/>
<polyline clip-path="url(#clip0401)" style="stroke:#000000; stroke-width:4; stroke-opacity:1; fill:none" points="
  1597.98,1440.48 1597.98,1419.58 
  "/>
<polyline clip-path="url(#clip0401)" style="stroke:#000000; stroke-width:4; stroke-opacity:1; fill:none" points="
  2033.8,1440.48 2033.8,1419.58 
  "/>
<polyline clip-path="url(#clip0401)" style="stroke:#000000; stroke-width:4; stroke-opacity:1; fill:none" points="
  264.53,1401.05 295.381,1401.05 
  "/>
<polyline clip-path="url(#clip0401)" style="stroke:#000000; stroke-width:4; stroke-opacity:1; fill:none" points="
  264.53,1198.22 295.381,1198.22 
  "/>
<polyline clip-path="url(#clip0401)" style="stroke:#000000; stroke-width:4; stroke-opacity:1; fill:none" points="
  264.53,995.38 295.381,995.38 
  "/>
<polyline clip-path="url(#clip0401)" style="stroke:#000000; stroke-width:4; stroke-opacity:1; fill:none" points="
  264.53,792.544 295.381,792.544 
  "/>
<polyline clip-path="url(#clip0401)" style="stroke:#000000; stroke-width:4; stroke-opacity:1; fill:none" points="
  264.53,589.708 295.381,589.708 
  "/>
<polyline clip-path="url(#clip0401)" style="stroke:#000000; stroke-width:4; stroke-opacity:1; fill:none" points="
  264.53,386.872 295.381,386.872 
  "/>
<polyline clip-path="url(#clip0401)" style="stroke:#000000; stroke-width:4; stroke-opacity:1; fill:none" points="
  264.53,184.037 295.381,184.037 
  "/>
<g clip-path="url(#clip0401)">
<text style="fill:#000000; fill-opacity:1; font-family:Arial,Helvetica Neue,Helvetica,sans-serif; font-size:48px; text-anchor:middle;" transform="rotate(0, 290.488, 1494.48)" x="290.488" y="1494.48">-10</text>
</g>
<g clip-path="url(#clip0401)">
<text style="fill:#000000; fill-opacity:1; font-family:Arial,Helvetica Neue,Helvetica,sans-serif; font-size:48px; text-anchor:middle;" transform="rotate(0, 726.317, 1494.48)" x="726.317" y="1494.48">-5</text>
</g>
<g clip-path="url(#clip0401)">
<text style="fill:#000000; fill-opacity:1; font-family:Arial,Helvetica Neue,Helvetica,sans-serif; font-size:48px; text-anchor:middle;" transform="rotate(0, 1162.15, 1494.48)" x="1162.15" y="1494.48">0</text>
</g>
<g clip-path="url(#clip0401)">
<text style="fill:#000000; fill-opacity:1; font-family:Arial,Helvetica Neue,Helvetica,sans-serif; font-size:48px; text-anchor:middle;" transform="rotate(0, 1597.98, 1494.48)" x="1597.98" y="1494.48">5</text>
</g>
<g clip-path="url(#clip0401)">
<text style="fill:#000000; fill-opacity:1; font-family:Arial,Helvetica Neue,Helvetica,sans-serif; font-size:48px; text-anchor:middle;" transform="rotate(0, 2033.8, 1494.48)" x="2033.8" y="1494.48">10</text>
</g>
<g clip-path="url(#clip0401)">
<text style="fill:#000000; fill-opacity:1; font-family:Arial,Helvetica Neue,Helvetica,sans-serif; font-size:48px; text-anchor:end;" transform="rotate(0, 240.53, 1418.55)" x="240.53" y="1418.55">0</text>
</g>
<g clip-path="url(#clip0401)">
<text style="fill:#000000; fill-opacity:1; font-family:Arial,Helvetica Neue,Helvetica,sans-serif; font-size:48px; text-anchor:end;" transform="rotate(0, 240.53, 1215.72)" x="240.53" y="1215.72">200</text>
</g>
<g clip-path="url(#clip0401)">
<text style="fill:#000000; fill-opacity:1; font-family:Arial,Helvetica Neue,Helvetica,sans-serif; font-size:48px; text-anchor:end;" transform="rotate(0, 240.53, 1012.88)" x="240.53" y="1012.88">400</text>
</g>
<g clip-path="url(#clip0401)">
<text style="fill:#000000; fill-opacity:1; font-family:Arial,Helvetica Neue,Helvetica,sans-serif; font-size:48px; text-anchor:end;" transform="rotate(0, 240.53, 810.044)" x="240.53" y="810.044">600</text>
</g>
<g clip-path="url(#clip0401)">
<text style="fill:#000000; fill-opacity:1; font-family:Arial,Helvetica Neue,Helvetica,sans-serif; font-size:48px; text-anchor:end;" transform="rotate(0, 240.53, 607.208)" x="240.53" y="607.208">800</text>
</g>
<g clip-path="url(#clip0401)">
<text style="fill:#000000; fill-opacity:1; font-family:Arial,Helvetica Neue,Helvetica,sans-serif; font-size:48px; text-anchor:end;" transform="rotate(0, 240.53, 404.372)" x="240.53" y="404.372">1000</text>
</g>
<g clip-path="url(#clip0401)">
<text style="fill:#000000; fill-opacity:1; font-family:Arial,Helvetica Neue,Helvetica,sans-serif; font-size:48px; text-anchor:end;" transform="rotate(0, 240.53, 201.537)" x="240.53" y="201.537">1200</text>
</g>
<g clip-path="url(#clip0401)">
<text style="fill:#000000; fill-opacity:1; font-family:Arial,Helvetica Neue,Helvetica,sans-serif; font-size:66px; text-anchor:middle;" transform="rotate(0, 1292.89, 1590.4)" x="1292.89" y="1590.4">value</text>
</g>
<g clip-path="url(#clip0401)">
<text style="fill:#000000; fill-opacity:1; font-family:Arial,Helvetica Neue,Helvetica,sans-serif; font-size:66px; text-anchor:middle;" transform="rotate(-90, 57.6, 743.863)" x="57.6" y="743.863"># counts</text>
</g>
<polygon clip-path="url(#clip0403)" points="
377.653,1398.01 377.653,1401.05 464.819,1401.05 464.819,1398.01 377.653,1398.01 377.653,1398.01 
  " fill="#009af9" fill-rule="evenodd" fill-opacity="1"/>
<polyline clip-path="url(#clip0403)" style="stroke:#000000; stroke-width:4; stroke-opacity:1; fill:none" points="
  377.653,1398.01 377.653,1401.05 464.819,1401.05 464.819,1398.01 377.653,1398.01 
  "/>
<polygon clip-path="url(#clip0403)" points="
464.819,1398.01 464.819,1401.05 551.985,1401.05 551.985,1398.01 464.819,1398.01 464.819,1398.01 
  " fill="#009af9" fill-rule="evenodd" fill-opacity="1"/>
<polyline clip-path="url(#clip0403)" style="stroke:#000000; stroke-width:4; stroke-opacity:1; fill:none" points="
  464.819,1398.01 464.819,1401.05 551.985,1401.05 551.985,1398.01 464.819,1398.01 
  "/>
<polygon clip-path="url(#clip0403)" points="
551.985,1363.53 551.985,1401.05 639.151,1401.05 639.151,1363.53 551.985,1363.53 551.985,1363.53 
  " fill="#009af9" fill-rule="evenodd" fill-opacity="1"/>
<polyline clip-path="url(#clip0403)" style="stroke:#000000; stroke-width:4; stroke-opacity:1; fill:none" points="
  551.985,1363.53 551.985,1401.05 639.151,1401.05 639.151,1363.53 551.985,1363.53 
  "/>
<polygon clip-path="url(#clip0403)" points="
639.151,1190.1 639.151,1401.05 726.317,1401.05 726.317,1190.1 639.151,1190.1 639.151,1190.1 
  " fill="#009af9" fill-rule="evenodd" fill-opacity="1"/>
<polyline clip-path="url(#clip0403)" style="stroke:#000000; stroke-width:4; stroke-opacity:1; fill:none" points="
  639.151,1190.1 639.151,1401.05 726.317,1401.05 726.317,1190.1 639.151,1190.1 
  "/>
<polygon clip-path="url(#clip0403)" points="
726.317,770.232 726.317,1401.05 813.483,1401.05 813.483,770.232 726.317,770.232 726.317,770.232 
  " fill="#009af9" fill-rule="evenodd" fill-opacity="1"/>
<polyline clip-path="url(#clip0403)" style="stroke:#000000; stroke-width:4; stroke-opacity:1; fill:none" points="
  726.317,770.232 726.317,1401.05 813.483,1401.05 813.483,770.232 726.317,770.232 
  "/>
<polygon clip-path="url(#clip0403)" points="
813.483,186.065 813.483,1401.05 900.649,1401.05 900.649,186.065 813.483,186.065 813.483,186.065 
  " fill="#009af9" fill-rule="evenodd" fill-opacity="1"/>
<polyline clip-path="url(#clip0403)" style="stroke:#000000; stroke-width:4; stroke-opacity:1; fill:none" points="
  813.483,186.065 813.483,1401.05 900.649,1401.05 900.649,186.065 813.483,186.065 
  "/>
<polygon clip-path="url(#clip0403)" points="
900.649,86.6754 900.649,1401.05 987.814,1401.05 987.814,86.6754 900.649,86.6754 900.649,86.6754 
  " fill="#009af9" fill-rule="evenodd" fill-opacity="1"/>
<polyline clip-path="url(#clip0403)" style="stroke:#000000; stroke-width:4; stroke-opacity:1; fill:none" points="
  900.649,86.6754 900.649,1401.05 987.814,1401.05 987.814,86.6754 900.649,86.6754 
  "/>
<polygon clip-path="url(#clip0403)" points="
987.814,465.978 987.814,1401.05 1074.98,1401.05 1074.98,465.978 987.814,465.978 987.814,465.978 
  " fill="#009af9" fill-rule="evenodd" fill-opacity="1"/>
<polyline clip-path="url(#clip0403)" style="stroke:#000000; stroke-width:4; stroke-opacity:1; fill:none" points="
  987.814,465.978 987.814,1401.05 1074.98,1401.05 1074.98,465.978 987.814,465.978 
  "/>
<polygon clip-path="url(#clip0403)" points="
1074.98,745.892 1074.98,1401.05 1162.15,1401.05 1162.15,745.892 1074.98,745.892 1074.98,745.892 
  " fill="#009af9" fill-rule="evenodd" fill-opacity="1"/>
<polyline clip-path="url(#clip0403)" style="stroke:#000000; stroke-width:4; stroke-opacity:1; fill:none" points="
  1074.98,745.892 1074.98,1401.05 1162.15,1401.05 1162.15,745.892 1074.98,745.892 
  "/>
<polygon clip-path="url(#clip0403)" points="
1162.15,846.295 1162.15,1401.05 1249.31,1401.05 1249.31,846.295 1162.15,846.295 1162.15,846.295 
  " fill="#009af9" fill-rule="evenodd" fill-opacity="1"/>
<polyline clip-path="url(#clip0403)" style="stroke:#000000; stroke-width:4; stroke-opacity:1; fill:none" points="
  1162.15,846.295 1162.15,1401.05 1249.31,1401.05 1249.31,846.295 1162.15,846.295 
  "/>
<polygon clip-path="url(#clip0403)" points="
1249.31,953.798 1249.31,1401.05 1336.48,1401.05 1336.48,953.798 1249.31,953.798 1249.31,953.798 
  " fill="#009af9" fill-rule="evenodd" fill-opacity="1"/>
<polyline clip-path="url(#clip0403)" style="stroke:#000000; stroke-width:4; stroke-opacity:1; fill:none" points="
  1249.31,953.798 1249.31,1401.05 1336.48,1401.05 1336.48,953.798 1249.31,953.798 
  "/>
<polygon clip-path="url(#clip0403)" points="
1336.48,1061.3 1336.48,1401.05 1423.64,1401.05 1423.64,1061.3 1336.48,1061.3 1336.48,1061.3 
  " fill="#009af9" fill-rule="evenodd" fill-opacity="1"/>
<polyline clip-path="url(#clip0403)" style="stroke:#000000; stroke-width:4; stroke-opacity:1; fill:none" points="
  1336.48,1061.3 1336.48,1401.05 1423.64,1401.05 1423.64,1061.3 1336.48,1061.3 
  "/>
<polygon clip-path="url(#clip0403)" points="
1423.64,1191.12 1423.64,1401.05 1510.81,1401.05 1510.81,1191.12 1423.64,1191.12 1423.64,1191.12 
  " fill="#009af9" fill-rule="evenodd" fill-opacity="1"/>
<polyline clip-path="url(#clip0403)" style="stroke:#000000; stroke-width:4; stroke-opacity:1; fill:none" points="
  1423.64,1191.12 1423.64,1401.05 1510.81,1401.05 1510.81,1191.12 1423.64,1191.12 
  "/>
<polygon clip-path="url(#clip0403)" points="
1510.81,1297.61 1510.81,1401.05 1597.98,1401.05 1597.98,1297.61 1510.81,1297.61 1510.81,1297.61 
  " fill="#009af9" fill-rule="evenodd" fill-opacity="1"/>
<polyline clip-path="url(#clip0403)" style="stroke:#000000; stroke-width:4; stroke-opacity:1; fill:none" points="
  1510.81,1297.61 1510.81,1401.05 1597.98,1401.05 1597.98,1297.61 1510.81,1297.61 
  "/>
<polygon clip-path="url(#clip0403)" points="
1597.98,1195.17 1597.98,1401.05 1685.14,1401.05 1685.14,1195.17 1597.98,1195.17 1597.98,1195.17 
  " fill="#009af9" fill-rule="evenodd" fill-opacity="1"/>
<polyline clip-path="url(#clip0403)" style="stroke:#000000; stroke-width:4; stroke-opacity:1; fill:none" points="
  1597.98,1195.17 1597.98,1401.05 1685.14,1401.05 1685.14,1195.17 1597.98,1195.17 
  "/>
<polygon clip-path="url(#clip0403)" points="
1685.14,841.225 1685.14,1401.05 1772.31,1401.05 1772.31,841.225 1685.14,841.225 1685.14,841.225 
  " fill="#009af9" fill-rule="evenodd" fill-opacity="1"/>
<polyline clip-path="url(#clip0403)" style="stroke:#000000; stroke-width:4; stroke-opacity:1; fill:none" points="
  1685.14,841.225 1685.14,1401.05 1772.31,1401.05 1772.31,841.225 1685.14,841.225 
  "/>
<polygon clip-path="url(#clip0403)" points="
1772.31,379.773 1772.31,1401.05 1859.47,1401.05 1859.47,379.773 1772.31,379.773 1772.31,379.773 
  " fill="#009af9" fill-rule="evenodd" fill-opacity="1"/>
<polyline clip-path="url(#clip0403)" style="stroke:#000000; stroke-width:4; stroke-opacity:1; fill:none" points="
  1772.31,379.773 1772.31,1401.05 1859.47,1401.05 1859.47,379.773 1772.31,379.773 
  "/>
<polygon clip-path="url(#clip0403)" points="
1859.47,380.787 1859.47,1401.05 1946.64,1401.05 1946.64,380.787 1859.47,380.787 1859.47,380.787 
  " fill="#009af9" fill-rule="evenodd" fill-opacity="1"/>
<polyline clip-path="url(#clip0403)" style="stroke:#000000; stroke-width:4; stroke-opacity:1; fill:none" points="
  1859.47,380.787 1859.47,1401.05 1946.64,1401.05 1946.64,380.787 1859.47,380.787 
  "/>
<polygon clip-path="url(#clip0403)" points="
1946.64,871.65 1946.64,1401.05 2033.8,1401.05 2033.8,871.65 1946.64,871.65 1946.64,871.65 
  " fill="#009af9" fill-rule="evenodd" fill-opacity="1"/>
<polyline clip-path="url(#clip0403)" style="stroke:#000000; stroke-width:4; stroke-opacity:1; fill:none" points="
  1946.64,871.65 1946.64,1401.05 2033.8,1401.05 2033.8,871.65 1946.64,871.65 
  "/>
<polygon clip-path="url(#clip0403)" points="
2033.8,1277.32 2033.8,1401.05 2120.97,1401.05 2120.97,1277.32 2033.8,1277.32 2033.8,1277.32 
  " fill="#009af9" fill-rule="evenodd" fill-opacity="1"/>
<polyline clip-path="url(#clip0403)" style="stroke:#000000; stroke-width:4; stroke-opacity:1; fill:none" points="
  2033.8,1277.32 2033.8,1401.05 2120.97,1401.05 2120.97,1277.32 2033.8,1277.32 
  "/>
<polygon clip-path="url(#clip0403)" points="
2120.97,1379.75 2120.97,1401.05 2208.14,1401.05 2208.14,1379.75 2120.97,1379.75 2120.97,1379.75 
  " fill="#009af9" fill-rule="evenodd" fill-opacity="1"/>
<polyline clip-path="url(#clip0403)" style="stroke:#000000; stroke-width:4; stroke-opacity:1; fill:none" points="
  2120.97,1379.75 2120.97,1401.05 2208.14,1401.05 2208.14,1379.75 2120.97,1379.75 
  "/>
<polygon clip-path="url(#clip0401)" points="
1907.6,251.724 2249.26,251.724 2249.26,130.764 1907.6,130.764 
  " fill="#ffffff" fill-rule="evenodd" fill-opacity="1"/>
<polyline clip-path="url(#clip0401)" style="stroke:#000000; stroke-width:4; stroke-opacity:1; fill:none" points="
  1907.6,251.724 2249.26,251.724 2249.26,130.764 1907.6,130.764 1907.6,251.724 
  "/>
<polygon clip-path="url(#clip0401)" points="
1931.6,215.436 2075.6,215.436 2075.6,167.052 1931.6,167.052 1931.6,215.436 
  " fill="#009af9" fill-rule="evenodd" fill-opacity="1"/>
<polyline clip-path="url(#clip0401)" style="stroke:#000000; stroke-width:4; stroke-opacity:1; fill:none" points="
  1931.6,215.436 2075.6,215.436 2075.6,167.052 1931.6,167.052 1931.6,215.436 
  "/>
<g clip-path="url(#clip0401)">
<text style="fill:#000000; fill-opacity:1; font-family:Arial,Helvetica Neue,Helvetica,sans-serif; font-size:48px; text-anchor:start;" transform="rotate(0, 2099.6, 208.744)" x="2099.6" y="208.744">false</text>
</g>
</svg>
