<?xml version="1.0" encoding="utf-8"?>
<svg xmlns="http://www.w3.org/2000/svg" xmlns:xlink="http://www.w3.org/1999/xlink" width="600" height="400" viewBox="0 0 2400 1600">
<defs>
  <clipPath id="clip4700">
    <rect x="0" y="0" width="2000" height="2000"/>
  </clipPath>
</defs>
<defs>
  <clipPath id="clip4701">
    <rect x="0" y="0" width="2400" height="1600"/>
  </clipPath>
</defs>
<polygon clip-path="url(#clip4701)" points="
0,1600 2400,1600 2400,0 0,0 
  " fill="#ffffff" fill-rule="evenodd" fill-opacity="1"/>
<defs>
  <clipPath id="clip4702">
    <rect x="480" y="0" width="1681" height="1600"/>
  </clipPath>
</defs>
<polygon clip-path="url(#clip4701)" points="
239.115,1440.48 2321.26,1440.48 2321.26,47.2441 239.115,47.2441 
  " fill="#ffffff" fill-rule="evenodd" fill-opacity="1"/>
<defs>
  <clipPath id="clip4703">
    <rect x="239" y="47" width="2083" height="1394"/>
  </clipPath>
</defs>
<polyline clip-path="url(#clip4703)" style="stroke:#000000; stroke-width:2; stroke-opacity:0.1; fill:none" points="
  298.044,1440.48 298.044,47.2441 
  "/>
<polyline clip-path="url(#clip4703)" style="stroke:#000000; stroke-width:2; stroke-opacity:0.1; fill:none" points="
  625.425,1440.48 625.425,47.2441 
  "/>
<polyline clip-path="url(#clip4703)" style="stroke:#000000; stroke-width:2; stroke-opacity:0.1; fill:none" points="
  952.806,1440.48 952.806,47.2441 
  "/>
<polyline clip-path="url(#clip4703)" style="stroke:#000000; stroke-width:2; stroke-opacity:0.1; fill:none" points="
  1280.19,1440.48 1280.19,47.2441 
  "/>
<polyline clip-path="url(#clip4703)" style="stroke:#000000; stroke-width:2; stroke-opacity:0.1; fill:none" points="
  1607.57,1440.48 1607.57,47.2441 
  "/>
<polyline clip-path="url(#clip4703)" style="stroke:#000000; stroke-width:2; stroke-opacity:0.1; fill:none" points="
  1934.95,1440.48 1934.95,47.2441 
  "/>
<polyline clip-path="url(#clip4703)" style="stroke:#000000; stroke-width:2; stroke-opacity:0.1; fill:none" points="
  2262.33,1440.48 2262.33,47.2441 
  "/>
<polyline clip-path="url(#clip4703)" style="stroke:#000000; stroke-width:2; stroke-opacity:0.1; fill:none" points="
  239.115,1394.25 2321.26,1394.25 
  "/>
<polyline clip-path="url(#clip4703)" style="stroke:#000000; stroke-width:2; stroke-opacity:0.1; fill:none" points="
  239.115,1110.38 2321.26,1110.38 
  "/>
<polyline clip-path="url(#clip4703)" style="stroke:#000000; stroke-width:2; stroke-opacity:0.1; fill:none" points="
  239.115,826.5 2321.26,826.5 
  "/>
<polyline clip-path="url(#clip4703)" style="stroke:#000000; stroke-width:2; stroke-opacity:0.1; fill:none" points="
  239.115,542.624 2321.26,542.624 
  "/>
<polyline clip-path="url(#clip4703)" style="stroke:#000000; stroke-width:2; stroke-opacity:0.1; fill:none" points="
  239.115,258.748 2321.26,258.748 
  "/>
<polyline clip-path="url(#clip4701)" style="stroke:#000000; stroke-width:4; stroke-opacity:1; fill:none" points="
  239.115,1440.48 2321.26,1440.48 
  "/>
<polyline clip-path="url(#clip4701)" style="stroke:#000000; stroke-width:4; stroke-opacity:1; fill:none" points="
  239.115,1440.48 239.115,47.2441 
  "/>
<polyline clip-path="url(#clip4701)" style="stroke:#000000; stroke-width:4; stroke-opacity:1; fill:none" points="
  298.044,1440.48 298.044,1419.58 
  "/>
<polyline clip-path="url(#clip4701)" style="stroke:#000000; stroke-width:4; stroke-opacity:1; fill:none" points="
  625.425,1440.48 625.425,1419.58 
  "/>
<polyline clip-path="url(#clip4701)" style="stroke:#000000; stroke-width:4; stroke-opacity:1; fill:none" points="
  952.806,1440.48 952.806,1419.58 
  "/>
<polyline clip-path="url(#clip4701)" style="stroke:#000000; stroke-width:4; stroke-opacity:1; fill:none" points="
  1280.19,1440.48 1280.19,1419.58 
  "/>
<polyline clip-path="url(#clip4701)" style="stroke:#000000; stroke-width:4; stroke-opacity:1; fill:none" points="
  1607.57,1440.48 1607.57,1419.58 
  "/>
<polyline clip-path="url(#clip4701)" style="stroke:#000000; stroke-width:4; stroke-opacity:1; fill:none" points="
  1934.95,1440.48 1934.95,1419.58 
  "/>
<polyline clip-path="url(#clip4701)" style="stroke:#000000; stroke-width:4; stroke-opacity:1; fill:none" points="
  2262.33,1440.48 2262.33,1419.58 
  "/>
<polyline clip-path="url(#clip4701)" style="stroke:#000000; stroke-width:4; stroke-opacity:1; fill:none" points="
  239.115,1394.25 270.347,1394.25 
  "/>
<polyline clip-path="url(#clip4701)" style="stroke:#000000; stroke-width:4; stroke-opacity:1; fill:none" points="
  239.115,1110.38 270.347,1110.38 
  "/>
<polyline clip-path="url(#clip4701)" style="stroke:#000000; stroke-width:4; stroke-opacity:1; fill:none" points="
  239.115,826.5 270.347,826.5 
  "/>
<polyline clip-path="url(#clip4701)" style="stroke:#000000; stroke-width:4; stroke-opacity:1; fill:none" points="
  239.115,542.624 270.347,542.624 
  "/>
<polyline clip-path="url(#clip4701)" style="stroke:#000000; stroke-width:4; stroke-opacity:1; fill:none" points="
  239.115,258.748 270.347,258.748 
  "/>
<g clip-path="url(#clip4701)">
<text style="fill:#000000; fill-opacity:1; font-family:Arial,Helvetica Neue,Helvetica,sans-serif; font-size:48px; text-anchor:middle;" transform="rotate(0, 298.044, 1494.48)" x="298.044" y="1494.48">1</text>
</g>
<g clip-path="url(#clip4701)">
<text style="fill:#000000; fill-opacity:1; font-family:Arial,Helvetica Neue,Helvetica,sans-serif; font-size:48px; text-anchor:middle;" transform="rotate(0, 625.425, 1494.48)" x="625.425" y="1494.48">2</text>
</g>
<g clip-path="url(#clip4701)">
<text style="fill:#000000; fill-opacity:1; font-family:Arial,Helvetica Neue,Helvetica,sans-serif; font-size:48px; text-anchor:middle;" transform="rotate(0, 952.806, 1494.48)" x="952.806" y="1494.48">3</text>
</g>
<g clip-path="url(#clip4701)">
<text style="fill:#000000; fill-opacity:1; font-family:Arial,Helvetica Neue,Helvetica,sans-serif; font-size:48px; text-anchor:middle;" transform="rotate(0, 1280.19, 1494.48)" x="1280.19" y="1494.48">4</text>
</g>
<g clip-path="url(#clip4701)">
<text style="fill:#000000; fill-opacity:1; font-family:Arial,Helvetica Neue,Helvetica,sans-serif; font-size:48px; text-anchor:middle;" transform="rotate(0, 1607.57, 1494.48)" x="1607.57" y="1494.48">5</text>
</g>
<g clip-path="url(#clip4701)">
<text style="fill:#000000; fill-opacity:1; font-family:Arial,Helvetica Neue,Helvetica,sans-serif; font-size:48px; text-anchor:middle;" transform="rotate(0, 1934.95, 1494.48)" x="1934.95" y="1494.48">6</text>
</g>
<g clip-path="url(#clip4701)">
<text style="fill:#000000; fill-opacity:1; font-family:Arial,Helvetica Neue,Helvetica,sans-serif; font-size:48px; text-anchor:middle;" transform="rotate(0, 2262.33, 1494.48)" x="2262.33" y="1494.48">7</text>
</g>
<g clip-path="url(#clip4701)">
<text style="fill:#000000; fill-opacity:1; font-family:Arial,Helvetica Neue,Helvetica,sans-serif; font-size:48px; text-anchor:end;" transform="rotate(0, 215.115, 1411.75)" x="215.115" y="1411.75">-10</text>
</g>
<g clip-path="url(#clip4701)">
<text style="fill:#000000; fill-opacity:1; font-family:Arial,Helvetica Neue,Helvetica,sans-serif; font-size:48px; text-anchor:end;" transform="rotate(0, 215.115, 1127.88)" x="215.115" y="1127.88">0</text>
</g>
<g clip-path="url(#clip4701)">
<text style="fill:#000000; fill-opacity:1; font-family:Arial,Helvetica Neue,Helvetica,sans-serif; font-size:48px; text-anchor:end;" transform="rotate(0, 215.115, 844)" x="215.115" y="844">10</text>
</g>
<g clip-path="url(#clip4701)">
<text style="fill:#000000; fill-opacity:1; font-family:Arial,Helvetica Neue,Helvetica,sans-serif; font-size:48px; text-anchor:end;" transform="rotate(0, 215.115, 560.124)" x="215.115" y="560.124">20</text>
</g>
<g clip-path="url(#clip4701)">
<text style="fill:#000000; fill-opacity:1; font-family:Arial,Helvetica Neue,Helvetica,sans-serif; font-size:48px; text-anchor:end;" transform="rotate(0, 215.115, 276.248)" x="215.115" y="276.248">30</text>
</g>
<g clip-path="url(#clip4701)">
<text style="fill:#000000; fill-opacity:1; font-family:Arial,Helvetica Neue,Helvetica,sans-serif; font-size:66px; text-anchor:middle;" transform="rotate(0, 1280.19, 1590.4)" x="1280.19" y="1590.4">time step</text>
</g>
<g clip-path="url(#clip4701)">
<text style="fill:#000000; fill-opacity:1; font-family:Arial,Helvetica Neue,Helvetica,sans-serif; font-size:66px; text-anchor:middle;" transform="rotate(-90, 57.6, 743.863)" x="57.6" y="743.863">value</text>
</g>
<polyline clip-path="url(#clip4703)" style="stroke:#0000ff; stroke-width:12; stroke-opacity:1; fill:none" points="
  298.044,1110.38 625.425,1053.6 952.806,1053.6 1280.19,1096.17 1607.57,968.081 1934.95,885.951 2262.33,1105.36 
  "/>
<polyline clip-path="url(#clip4703)" style="stroke:#000000; stroke-width:1.6; stroke-opacity:0.1; fill:none" points="
  298.044,1109.27 625.425,1047.57 952.806,1106.53 1280.19,1083.87 1607.57,964.64 1934.95,1243.59 2262.33,1157.66 
  "/>
<polyline clip-path="url(#clip4703)" style="stroke:#000000; stroke-width:1.6; stroke-opacity:0.1; fill:none" points="
  298.044,1125.02 625.425,1051.52 952.806,1001.8 1280.19,1109.72 1607.57,868.722 1934.95,828.201 2262.33,1154.11 
  "/>
<polyline clip-path="url(#clip4703)" style="stroke:#000000; stroke-width:1.6; stroke-opacity:0.1; fill:none" points="
  298.044,1096.85 625.425,1065.73 952.806,1002.09 1280.19,1103.49 1607.57,784.477 1934.95,1224.23 2262.33,1075.29 
  "/>
<polyline clip-path="url(#clip4703)" style="stroke:#000000; stroke-width:1.6; stroke-opacity:0.1; fill:none" points="
  298.044,1116.44 625.425,1046.84 952.806,1058.43 1280.19,1082.86 1607.57,955.024 1934.95,1273.51 2262.33,1170.47 
  "/>
<polyline clip-path="url(#clip4703)" style="stroke:#000000; stroke-width:1.6; stroke-opacity:0.1; fill:none" points="
  298.044,1104.43 625.425,1049.87 952.806,1016.88 1280.19,1098.97 1607.57,886.632 1934.95,1268.7 2262.33,1173.65 
  "/>
<polyline clip-path="url(#clip4703)" style="stroke:#000000; stroke-width:1.6; stroke-opacity:0.1; fill:none" points="
  298.044,1118.26 625.425,1042.03 952.806,1002.35 1280.19,1109.24 1607.57,875.836 1934.95,760.359 2262.33,1166.52 
  "/>
<polyline clip-path="url(#clip4703)" style="stroke:#000000; stroke-width:1.6; stroke-opacity:0.1; fill:none" points="
  298.044,1101.64 625.425,1058.82 952.806,1033.31 1280.19,1103.75 1607.57,1050.67 1934.95,867.662 2262.33,1083.29 
  "/>
<polyline clip-path="url(#clip4703)" style="stroke:#000000; stroke-width:1.6; stroke-opacity:0.1; fill:none" points="
  298.044,1096.47 625.425,1054.32 952.806,1077.26 1280.19,1106.11 1607.57,910.494 1934.95,746.794 2262.33,1186.86 
  "/>
<polyline clip-path="url(#clip4703)" style="stroke:#000000; stroke-width:1.6; stroke-opacity:0.1; fill:none" points="
  298.044,1124.69 625.425,1056.78 952.806,1086.48 1280.19,1090.31 1607.57,932.388 1934.95,1094.06 2262.33,1163.63 
  "/>
<polyline clip-path="url(#clip4703)" style="stroke:#000000; stroke-width:1.6; stroke-opacity:0.1; fill:none" points="
  298.044,1113.61 625.425,1045.14 952.806,1046.85 1280.19,1108.43 1607.57,1074.02 1934.95,827.256 2262.33,1163.67 
  "/>
<polyline clip-path="url(#clip4703)" style="stroke:#000000; stroke-width:1.6; stroke-opacity:0.1; fill:none" points="
  298.044,1151.67 625.425,1046.55 952.806,1010.16 1280.19,1096.15 1607.57,722.499 1934.95,1401.05 2262.33,1085.61 
  "/>
<polyline clip-path="url(#clip4703)" style="stroke:#000000; stroke-width:1.6; stroke-opacity:0.1; fill:none" points="
  298.044,1130.34 625.425,1061.45 952.806,998.182 1280.19,1097.66 1607.57,977.717 1934.95,849.736 2262.33,1083.28 
  "/>
<polyline clip-path="url(#clip4703)" style="stroke:#000000; stroke-width:1.6; stroke-opacity:0.1; fill:none" points="
  298.044,1115.29 625.425,1043.28 952.806,1045.86 1280.19,1102.27 1607.57,799.482 1934.95,1362.15 2262.33,1063.86 
  "/>
<polyline clip-path="url(#clip4703)" style="stroke:#000000; stroke-width:1.6; stroke-opacity:0.1; fill:none" points="
  298.044,1121.58 625.425,1051.99 952.806,1045.13 1280.19,1088.63 1607.57,942.027 1934.95,753.505 2262.33,1167.31 
  "/>
<polyline clip-path="url(#clip4703)" style="stroke:#000000; stroke-width:1.6; stroke-opacity:0.1; fill:none" points="
  298.044,1115.35 625.425,1049.78 952.806,1026.13 1280.19,1098.53 1607.57,708.903 1934.95,794.843 2262.33,1157.27 
  "/>
<polyline clip-path="url(#clip4703)" style="stroke:#000000; stroke-width:1.6; stroke-opacity:0.1; fill:none" points="
  298.044,1098.26 625.425,1067.97 952.806,1018.58 1280.19,1093.04 1607.57,925.491 1934.95,724.15 2262.33,1089.3 
  "/>
<polyline clip-path="url(#clip4703)" style="stroke:#000000; stroke-width:1.6; stroke-opacity:0.1; fill:none" points="
  298.044,1092.86 625.425,1050.02 952.806,1023.4 1280.19,1108.55 1607.57,987.171 1934.95,1174.2 2262.33,1067.74 
  "/>
<polyline clip-path="url(#clip4703)" style="stroke:#000000; stroke-width:1.6; stroke-opacity:0.1; fill:none" points="
  298.044,1108.7 625.425,1063.21 952.806,1018.01 1280.19,1096.71 1607.57,967.797 1934.95,741.001 2262.33,1065.42 
  "/>
<polyline clip-path="url(#clip4703)" style="stroke:#000000; stroke-width:1.6; stroke-opacity:0.1; fill:none" points="
  298.044,1139.66 625.425,1043.05 952.806,1051.44 1280.19,1105.35 1607.57,915.994 1934.95,714.469 2262.33,1178.71 
  "/>
<polyline clip-path="url(#clip4703)" style="stroke:#000000; stroke-width:1.6; stroke-opacity:0.1; fill:none" points="
  298.044,1109.44 625.425,1050.96 952.806,1057.95 1280.19,1107.41 1607.57,965.548 1934.95,775.315 2262.33,1052.58 
  "/>
<polyline clip-path="url(#clip4703)" style="stroke:#000000; stroke-width:1.6; stroke-opacity:0.1; fill:none" points="
  298.044,1110.42 625.425,1044.69 952.806,1081.83 1280.19,1101.83 1607.57,1078.24 1934.95,1327.96 2262.33,1174.54 
  "/>
<polyline clip-path="url(#clip4703)" style="stroke:#000000; stroke-width:1.6; stroke-opacity:0.1; fill:none" points="
  298.044,1112.5 625.425,1070.4 952.806,1051.74 1280.19,1097.38 1607.57,639.567 1934.95,1375.43 2262.33,1094.79 
  "/>
<polyline clip-path="url(#clip4703)" style="stroke:#000000; stroke-width:1.6; stroke-opacity:0.1; fill:none" points="
  298.044,1121.19 625.425,1047.59 952.806,1034.81 1280.19,1101.89 1607.57,1091 1934.95,1011.49 2262.33,1091.87 
  "/>
<polyline clip-path="url(#clip4703)" style="stroke:#000000; stroke-width:1.6; stroke-opacity:0.1; fill:none" points="
  298.044,1122.97 625.425,1068.14 952.806,1099.43 1280.19,1097.03 1607.57,885.855 1934.95,743.973 2262.33,1082.13 
  "/>
<polyline clip-path="url(#clip4703)" style="stroke:#000000; stroke-width:1.6; stroke-opacity:0.1; fill:none" points="
  298.044,1131.51 625.425,1053.08 952.806,1046.45 1280.19,1102.92 1607.57,991.014 1934.95,705.806 2262.33,1171.22 
  "/>
<polyline clip-path="url(#clip4703)" style="stroke:#000000; stroke-width:1.6; stroke-opacity:0.1; fill:none" points="
  298.044,1097.36 625.425,1039.53 952.806,998.286 1280.19,1105.55 1607.57,747.099 1934.95,1262.49 2262.33,1090.02 
  "/>
<polyline clip-path="url(#clip4703)" style="stroke:#000000; stroke-width:1.6; stroke-opacity:0.1; fill:none" points="
  298.044,1096.47 625.425,1046.13 952.806,1008 1280.19,1090.02 1607.57,885.223 1934.95,1228.65 2262.33,1166.16 
  "/>
<polyline clip-path="url(#clip4703)" style="stroke:#000000; stroke-width:1.6; stroke-opacity:0.1; fill:none" points="
  298.044,1123.73 625.425,1054.08 952.806,1035.43 1280.19,1087.2 1607.57,938.346 1934.95,746.413 2262.33,1170.92 
  "/>
<polyline clip-path="url(#clip4703)" style="stroke:#000000; stroke-width:1.6; stroke-opacity:0.1; fill:none" points="
  298.044,1111.61 625.425,1054.63 952.806,1091.32 1280.19,1087.87 1607.57,974.558 1934.95,935.763 2262.33,1171.22 
  "/>
<polyline clip-path="url(#clip4703)" style="stroke:#000000; stroke-width:1.6; stroke-opacity:0.1; fill:none" points="
  298.044,1113.06 625.425,1048.78 952.806,1081.29 1280.19,1099.6 1607.57,847.547 1934.95,563.768 2262.33,1072.7 
  "/>
<polyline clip-path="url(#clip4703)" style="stroke:#000000; stroke-width:1.6; stroke-opacity:0.1; fill:none" points="
  298.044,1124.67 625.425,1066.37 952.806,1106.09 1280.19,1082.85 1607.57,879.865 1934.95,1246.21 2262.33,1076.92 
  "/>
<polyline clip-path="url(#clip4703)" style="stroke:#000000; stroke-width:1.6; stroke-opacity:0.1; fill:none" points="
  298.044,1117.18 625.425,1059.35 952.806,1041.77 1280.19,1102 1607.57,1024.62 1934.95,1290.7 2262.33,1161.55 
  "/>
<polyline clip-path="url(#clip4703)" style="stroke:#000000; stroke-width:1.6; stroke-opacity:0.1; fill:none" points="
  298.044,1137.37 625.425,1046.27 952.806,1040.34 1280.19,1102.5 1607.57,1065.42 1934.95,929.99 2262.33,1184.88 
  "/>
<polyline clip-path="url(#clip4703)" style="stroke:#000000; stroke-width:1.6; stroke-opacity:0.1; fill:none" points="
  298.044,1095.49 625.425,1048.99 952.806,1005.45 1280.19,1103.65 1607.57,1047.24 1934.95,766.888 2262.33,1160.39 
  "/>
<polyline clip-path="url(#clip4703)" style="stroke:#000000; stroke-width:1.6; stroke-opacity:0.1; fill:none" points="
  298.044,1118.53 625.425,1064.27 952.806,1090.4 1280.19,1086.08 1607.57,855.848 1934.95,793.493 2262.33,1156.74 
  "/>
<polyline clip-path="url(#clip4703)" style="stroke:#000000; stroke-width:1.6; stroke-opacity:0.1; fill:none" points="
  298.044,1102.03 625.425,1047.81 952.806,1056.28 1280.19,1090.33 1607.57,1001.98 1934.95,1280.65 2262.33,1168.71 
  "/>
<polyline clip-path="url(#clip4703)" style="stroke:#000000; stroke-width:1.6; stroke-opacity:0.1; fill:none" points="
  298.044,1113.54 625.425,1053.07 952.806,1082.85 1280.19,1098.63 1607.57,941.865 1934.95,1248.66 2262.33,1078.19 
  "/>
<polyline clip-path="url(#clip4703)" style="stroke:#000000; stroke-width:1.6; stroke-opacity:0.1; fill:none" points="
  298.044,1099.3 625.425,1066.73 952.806,1065.26 1280.19,1110.28 1607.57,929.692 1934.95,1335.41 2262.33,1165.25 
  "/>
<polyline clip-path="url(#clip4703)" style="stroke:#000000; stroke-width:1.6; stroke-opacity:0.1; fill:none" points="
  298.044,1130.66 625.425,1063.73 952.806,1013.28 1280.19,1103.42 1607.57,1014.49 1934.95,1274.23 2262.33,1173.57 
  "/>
<polyline clip-path="url(#clip4703)" style="stroke:#000000; stroke-width:1.6; stroke-opacity:0.1; fill:none" points="
  298.044,1125.02 625.425,1033.2 952.806,1033.5 1280.19,1084.68 1607.57,842.779 1934.95,1354.43 2262.33,1153.34 
  "/>
<polyline clip-path="url(#clip4703)" style="stroke:#000000; stroke-width:1.6; stroke-opacity:0.1; fill:none" points="
  298.044,1102.32 625.425,1048.64 952.806,1089.9 1280.19,1091.08 1607.57,909.082 1934.95,867.457 2262.33,1072.73 
  "/>
<polyline clip-path="url(#clip4703)" style="stroke:#000000; stroke-width:1.6; stroke-opacity:0.1; fill:none" points="
  298.044,1151.19 625.425,1043.99 952.806,1081.49 1280.19,1103.37 1607.57,1002.19 1934.95,756.136 2262.33,1161.57 
  "/>
<polyline clip-path="url(#clip4703)" style="stroke:#000000; stroke-width:1.6; stroke-opacity:0.1; fill:none" points="
  298.044,1111.14 625.425,1055.78 952.806,1073.86 1280.19,1088.04 1607.57,1045.19 1934.95,788.581 2262.33,1082.75 
  "/>
<polyline clip-path="url(#clip4703)" style="stroke:#000000; stroke-width:1.6; stroke-opacity:0.1; fill:none" points="
  298.044,1095.97 625.425,1063.81 952.806,1040.26 1280.19,1098.16 1607.57,915.159 1934.95,1214.13 2262.33,1093.65 
  "/>
<polyline clip-path="url(#clip4703)" style="stroke:#000000; stroke-width:1.6; stroke-opacity:0.1; fill:none" points="
  298.044,1092.09 625.425,1060.83 952.806,1103.27 1280.19,1092.75 1607.57,888.133 1934.95,841.292 2262.33,1162.25 
  "/>
<polyline clip-path="url(#clip4703)" style="stroke:#000000; stroke-width:1.6; stroke-opacity:0.1; fill:none" points="
  298.044,1133.35 625.425,1052.31 952.806,1039.52 1280.19,1087.79 1607.57,1027.94 1934.95,657.301 2262.33,1083.88 
  "/>
<polyline clip-path="url(#clip4703)" style="stroke:#000000; stroke-width:1.6; stroke-opacity:0.1; fill:none" points="
  298.044,1112.85 625.425,1057.86 952.806,1014.68 1280.19,1108.84 1607.57,971.588 1934.95,737.38 2262.33,1174.12 
  "/>
<polyline clip-path="url(#clip4703)" style="stroke:#000000; stroke-width:1.6; stroke-opacity:0.1; fill:none" points="
  298.044,1131.29 625.425,1059.79 952.806,1040.37 1280.19,1096.19 1607.57,972.658 1934.95,1201.62 2262.33,1095.67 
  "/>
<polyline clip-path="url(#clip4703)" style="stroke:#000000; stroke-width:1.6; stroke-opacity:0.1; fill:none" points="
  298.044,1113.34 625.425,1062.79 952.806,998.191 1280.19,1102.88 1607.57,1044.11 1934.95,905.228 2262.33,1085.72 
  "/>
<polyline clip-path="url(#clip4703)" style="stroke:#000000; stroke-width:1.6; stroke-opacity:0.1; fill:none" points="
  298.044,1104.95 625.425,1038.43 952.806,1064.92 1280.19,1104.32 1607.57,989.302 1934.95,1257.2 2262.33,1089.85 
  "/>
<polyline clip-path="url(#clip4703)" style="stroke:#000000; stroke-width:1.6; stroke-opacity:0.1; fill:none" points="
  298.044,1088.65 625.425,1063.12 952.806,1046.28 1280.19,1106.23 1607.57,974.034 1934.95,483.13 2262.33,1093.7 
  "/>
<polyline clip-path="url(#clip4703)" style="stroke:#000000; stroke-width:1.6; stroke-opacity:0.1; fill:none" points="
  298.044,1103.58 625.425,1060.38 952.806,1000.96 1280.19,1103.1 1607.57,943.346 1934.95,825.245 2262.33,1183.64 
  "/>
<polyline clip-path="url(#clip4703)" style="stroke:#000000; stroke-width:1.6; stroke-opacity:0.1; fill:none" points="
  298.044,1118.46 625.425,1057.87 952.806,1093.46 1280.19,1084.32 1607.57,905.876 1934.95,761.215 2262.33,1180.35 
  "/>
<polyline clip-path="url(#clip4703)" style="stroke:#000000; stroke-width:1.6; stroke-opacity:0.1; fill:none" points="
  298.044,1090.72 625.425,1059.1 952.806,1029.01 1280.19,1103.16 1607.57,995.523 1934.95,811.774 2262.33,1190.38 
  "/>
<polyline clip-path="url(#clip4703)" style="stroke:#000000; stroke-width:1.6; stroke-opacity:0.1; fill:none" points="
  298.044,1135.05 625.425,1056.81 952.806,1019.92 1280.19,1095.61 1607.57,926.938 1934.95,790.859 2262.33,1094.36 
  "/>
<polyline clip-path="url(#clip4703)" style="stroke:#000000; stroke-width:1.6; stroke-opacity:0.1; fill:none" points="
  298.044,1120.48 625.425,1064.79 952.806,1055.18 1280.19,1097.92 1607.57,975.043 1934.95,692.86 2262.33,1181.38 
  "/>
<polyline clip-path="url(#clip4703)" style="stroke:#000000; stroke-width:1.6; stroke-opacity:0.1; fill:none" points="
  298.044,1109.22 625.425,1042.69 952.806,1056.92 1280.19,1088.83 1607.57,1048.18 1934.95,1155.73 2262.33,1079.01 
  "/>
<polyline clip-path="url(#clip4703)" style="stroke:#000000; stroke-width:1.6; stroke-opacity:0.1; fill:none" points="
  298.044,1099.86 625.425,1053.78 952.806,1031.95 1280.19,1090.36 1607.57,1004.27 1934.95,1181.09 2262.33,1166.62 
  "/>
<polyline clip-path="url(#clip4703)" style="stroke:#000000; stroke-width:1.6; stroke-opacity:0.1; fill:none" points="
  298.044,1130.53 625.425,1057.37 952.806,1041.25 1280.19,1092.41 1607.57,842.41 1934.95,608.042 2262.33,1093.03 
  "/>
<polyline clip-path="url(#clip4703)" style="stroke:#000000; stroke-width:1.6; stroke-opacity:0.1; fill:none" points="
  298.044,1119.46 625.425,1062.63 952.806,1094.76 1280.19,1083.5 1607.57,904.382 1934.95,733.553 2262.33,1171.62 
  "/>
<polyline clip-path="url(#clip4703)" style="stroke:#000000; stroke-width:1.6; stroke-opacity:0.1; fill:none" points="
  298.044,1126.7 625.425,1047.67 952.806,1077.32 1280.19,1103.48 1607.57,932.343 1934.95,1326.54 2262.33,1091.43 
  "/>
<polyline clip-path="url(#clip4703)" style="stroke:#000000; stroke-width:1.6; stroke-opacity:0.1; fill:none" points="
  298.044,1107.11 625.425,1060.84 952.806,1008.41 1280.19,1104.29 1607.57,934.613 1934.95,764.093 2262.33,1071.33 
  "/>
<polyline clip-path="url(#clip4703)" style="stroke:#000000; stroke-width:1.6; stroke-opacity:0.1; fill:none" points="
  298.044,1105.74 625.425,1062.61 952.806,1102.99 1280.19,1099.31 1607.57,941.214 1934.95,762.43 2262.33,1071.73 
  "/>
<polyline clip-path="url(#clip4703)" style="stroke:#000000; stroke-width:1.6; stroke-opacity:0.1; fill:none" points="
  298.044,1088.12 625.425,1046.12 952.806,1019.92 1280.19,1106.57 1607.57,983.171 1934.95,1119.25 2262.33,1071.16 
  "/>
<polyline clip-path="url(#clip4703)" style="stroke:#000000; stroke-width:1.6; stroke-opacity:0.1; fill:none" points="
  298.044,1097.72 625.425,1057.78 952.806,1104.32 1280.19,1083.67 1607.57,654.599 1934.95,1214.3 2262.33,1067.55 
  "/>
<polyline clip-path="url(#clip4703)" style="stroke:#000000; stroke-width:1.6; stroke-opacity:0.1; fill:none" points="
  298.044,1109.15 625.425,1043.58 952.806,1090.56 1280.19,1101.55 1607.57,896.971 1934.95,634.28 2262.33,1176.8 
  "/>
<polyline clip-path="url(#clip4703)" style="stroke:#000000; stroke-width:1.6; stroke-opacity:0.1; fill:none" points="
  298.044,1092.07 625.425,1066 952.806,1050.5 1280.19,1089.69 1607.57,1033.22 1934.95,572.773 2262.33,1169.6 
  "/>
<polyline clip-path="url(#clip4703)" style="stroke:#000000; stroke-width:1.6; stroke-opacity:0.1; fill:none" points="
  298.044,1116.48 625.425,1064.05 952.806,1007.87 1280.19,1091.8 1607.57,1021.87 1934.95,1283.47 2262.33,1172.8 
  "/>
<polyline clip-path="url(#clip4703)" style="stroke:#000000; stroke-width:1.6; stroke-opacity:0.1; fill:none" points="
  298.044,1110.04 625.425,1056.17 952.806,1033.62 1280.19,1083.03 1607.57,1047.63 1934.95,1256.93 2262.33,1176.26 
  "/>
<polyline clip-path="url(#clip4703)" style="stroke:#000000; stroke-width:1.6; stroke-opacity:0.1; fill:none" points="
  298.044,1107.79 625.425,1060.96 952.806,1042.38 1280.19,1101.4 1607.57,1045.24 1934.95,494.505 2262.33,1168.4 
  "/>
<polyline clip-path="url(#clip4703)" style="stroke:#000000; stroke-width:1.6; stroke-opacity:0.1; fill:none" points="
  298.044,1104.47 625.425,1053.35 952.806,1042.54 1280.19,1101.29 1607.57,698.778 1934.95,192.164 2262.33,1168.92 
  "/>
<polyline clip-path="url(#clip4703)" style="stroke:#000000; stroke-width:1.6; stroke-opacity:0.1; fill:none" points="
  298.044,1116.93 625.425,1060.53 952.806,1107.96 1280.19,1107.13 1607.57,1015.43 1934.95,1308.14 2262.33,1081.22 
  "/>
<polyline clip-path="url(#clip4703)" style="stroke:#000000; stroke-width:1.6; stroke-opacity:0.1; fill:none" points="
  298.044,1118.21 625.425,1046.43 952.806,1084.65 1280.19,1088.39 1607.57,985.84 1934.95,1323.6 2262.33,1098.36 
  "/>
<polyline clip-path="url(#clip4703)" style="stroke:#000000; stroke-width:1.6; stroke-opacity:0.1; fill:none" points="
  298.044,1118.51 625.425,1038.12 952.806,1094.33 1280.19,1082.1 1607.57,964.96 1934.95,741.273 2262.33,1073.94 
  "/>
<polyline clip-path="url(#clip4703)" style="stroke:#000000; stroke-width:1.6; stroke-opacity:0.1; fill:none" points="
  298.044,1128.02 625.425,1064.64 952.806,1107.93 1280.19,1107.8 1607.57,1072.45 1934.95,1338.28 2262.33,1158.87 
  "/>
<polyline clip-path="url(#clip4703)" style="stroke:#000000; stroke-width:1.6; stroke-opacity:0.1; fill:none" points="
  298.044,1099.19 625.425,1053.97 952.806,1068.76 1280.19,1089.14 1607.57,874.884 1934.95,668.691 2262.33,1156.39 
  "/>
<polyline clip-path="url(#clip4703)" style="stroke:#000000; stroke-width:1.6; stroke-opacity:0.1; fill:none" points="
  298.044,1123.57 625.425,1040.79 952.806,1019.16 1280.19,1086.59 1607.57,1025.17 1934.95,777.868 2262.33,1073.32 
  "/>
<polyline clip-path="url(#clip4703)" style="stroke:#000000; stroke-width:1.6; stroke-opacity:0.1; fill:none" points="
  298.044,1103.29 625.425,1054.33 952.806,1034.1 1280.19,1089.82 1607.57,752.989 1934.95,1220.73 2262.33,1160.62 
  "/>
<polyline clip-path="url(#clip4703)" style="stroke:#000000; stroke-width:1.6; stroke-opacity:0.1; fill:none" points="
  298.044,1109.96 625.425,1066.22 952.806,1089.15 1280.19,1102.87 1607.57,1062.67 1934.95,1233.5 2262.33,1158.73 
  "/>
<polyline clip-path="url(#clip4703)" style="stroke:#000000; stroke-width:1.6; stroke-opacity:0.1; fill:none" points="
  298.044,1112.48 625.425,1048.53 952.806,1075.72 1280.19,1082.72 1607.57,1062.95 1934.95,706.249 2262.33,1172.14 
  "/>
<polyline clip-path="url(#clip4703)" style="stroke:#000000; stroke-width:1.6; stroke-opacity:0.1; fill:none" points="
  298.044,1109.32 625.425,1050.93 952.806,1013.04 1280.19,1107.58 1607.57,1007.52 1934.95,709.105 2262.33,1085.97 
  "/>
<polyline clip-path="url(#clip4703)" style="stroke:#000000; stroke-width:1.6; stroke-opacity:0.1; fill:none" points="
  298.044,1103.64 625.425,1054.13 952.806,1028.69 1280.19,1083.24 1607.57,978.257 1934.95,1269.4 2262.33,1157.52 
  "/>
<polyline clip-path="url(#clip4703)" style="stroke:#000000; stroke-width:1.6; stroke-opacity:0.1; fill:none" points="
  298.044,1098.29 625.425,1072.1 952.806,1005.56 1280.19,1099.99 1607.57,999.285 1934.95,655.619 2262.33,1143.02 
  "/>
<polyline clip-path="url(#clip4703)" style="stroke:#000000; stroke-width:1.6; stroke-opacity:0.1; fill:none" points="
  298.044,1114.81 625.425,1046.87 952.806,1082.02 1280.19,1109.8 1607.57,964.215 1934.95,836.32 2262.33,1082.79 
  "/>
<polyline clip-path="url(#clip4703)" style="stroke:#000000; stroke-width:1.6; stroke-opacity:0.1; fill:none" points="
  298.044,1105.36 625.425,1051.3 952.806,1004.96 1280.19,1089.47 1607.57,1089.99 1934.95,1077.52 2262.33,1171.47 
  "/>
<polyline clip-path="url(#clip4703)" style="stroke:#000000; stroke-width:1.6; stroke-opacity:0.1; fill:none" points="
  298.044,1109.01 625.425,1053.88 952.806,1007.14 1280.19,1107.64 1607.57,983.935 1934.95,891.563 2262.33,1179.74 
  "/>
<polyline clip-path="url(#clip4703)" style="stroke:#000000; stroke-width:1.6; stroke-opacity:0.1; fill:none" points="
  298.044,1129.88 625.425,1036.42 952.806,1087.75 1280.19,1106.38 1607.57,810.964 1934.95,1252.69 2262.33,1099.44 
  "/>
<polyline clip-path="url(#clip4703)" style="stroke:#000000; stroke-width:1.6; stroke-opacity:0.1; fill:none" points="
  298.044,1103.71 625.425,1070.68 952.806,1009.32 1280.19,1102.69 1607.57,999.675 1934.95,767.87 2262.33,1091.83 
  "/>
<polyline clip-path="url(#clip4703)" style="stroke:#000000; stroke-width:1.6; stroke-opacity:0.1; fill:none" points="
  298.044,1117.09 625.425,1046.5 952.806,1083.66 1280.19,1095.45 1607.57,943.084 1934.95,1302.93 2262.33,1073.9 
  "/>
<polyline clip-path="url(#clip4703)" style="stroke:#000000; stroke-width:1.6; stroke-opacity:0.1; fill:none" points="
  298.044,1114.27 625.425,1042.56 952.806,1024.21 1280.19,1100.59 1607.57,868.504 1934.95,749.506 2262.33,1089.86 
  "/>
<polyline clip-path="url(#clip4703)" style="stroke:#000000; stroke-width:1.6; stroke-opacity:0.1; fill:none" points="
  298.044,1108.93 625.425,1045.13 952.806,1045.21 1280.19,1098.43 1607.57,760.776 1934.95,1059.65 2262.33,1178.39 
  "/>
<polyline clip-path="url(#clip4703)" style="stroke:#000000; stroke-width:1.6; stroke-opacity:0.1; fill:none" points="
  298.044,1126 625.425,1063.89 952.806,1012.62 1280.19,1090.16 1607.57,927.661 1934.95,1205.3 2262.33,1167.58 
  "/>
<polyline clip-path="url(#clip4703)" style="stroke:#000000; stroke-width:1.6; stroke-opacity:0.1; fill:none" points="
  298.044,1122.2 625.425,1059.25 952.806,1069.33 1280.19,1088.35 1607.57,894.427 1934.95,940.474 2262.33,1158.08 
  "/>
<polyline clip-path="url(#clip4703)" style="stroke:#000000; stroke-width:1.6; stroke-opacity:0.1; fill:none" points="
  298.044,1120.18 625.425,1061.93 952.806,1032.49 1280.19,1091.68 1607.57,764.48 1934.95,929.979 2262.33,1085.59 
  "/>
<polyline clip-path="url(#clip4703)" style="stroke:#000000; stroke-width:1.6; stroke-opacity:0.1; fill:none" points="
  298.044,1109.08 625.425,1052.25 952.806,1012.69 1280.19,1096.53 1607.57,950.306 1934.95,126.906 2262.33,1180.81 
  "/>
<polyline clip-path="url(#clip4703)" style="stroke:#000000; stroke-width:1.6; stroke-opacity:0.1; fill:none" points="
  298.044,1110.47 625.425,1040.83 952.806,1074.15 1280.19,1090.67 1607.57,868.36 1934.95,694.37 2262.33,1162.5 
  "/>
<polyline clip-path="url(#clip4703)" style="stroke:#000000; stroke-width:1.6; stroke-opacity:0.1; fill:none" points="
  298.044,1112.62 625.425,1048.14 952.806,1053.82 1280.19,1085.21 1607.57,993.167 1934.95,722.335 2262.33,1080.06 
  "/>
<polyline clip-path="url(#clip4703)" style="stroke:#000000; stroke-width:1.6; stroke-opacity:0.1; fill:none" points="
  298.044,1122.11 625.425,1053.78 952.806,1027.96 1280.19,1103.23 1607.57,1047.64 1934.95,924.424 2262.33,1170.16 
  "/>
<polyline clip-path="url(#clip4703)" style="stroke:#000000; stroke-width:1.6; stroke-opacity:0.1; fill:none" points="
  298.044,1120.05 625.425,1037.65 952.806,1062.98 1280.19,1083.61 1607.57,929.505 1934.95,980.223 2262.33,1108.88 
  "/>
<polyline clip-path="url(#clip4703)" style="stroke:#000000; stroke-width:1.6; stroke-opacity:0.1; fill:none" points="
  298.044,1114.64 625.425,1053.64 952.806,1068.74 1280.19,1097.32 1607.57,1066.32 1934.95,859.3 2262.33,1168.52 
  "/>
<polyline clip-path="url(#clip4703)" style="stroke:#000000; stroke-width:1.6; stroke-opacity:0.1; fill:none" points="
  298.044,1097.98 625.425,1054.89 952.806,1011.13 1280.19,1101.11 1607.57,946.875 1934.95,1280.91 2262.33,1084.73 
  "/>
<polyline clip-path="url(#clip4703)" style="stroke:#000000; stroke-width:1.6; stroke-opacity:0.1; fill:none" points="
  298.044,1117.79 625.425,1059.03 952.806,1034.49 1280.19,1091.39 1607.57,809.071 1934.95,1279.86 2262.33,1158.93 
  "/>
<polyline clip-path="url(#clip4703)" style="stroke:#000000; stroke-width:1.6; stroke-opacity:0.1; fill:none" points="
  298.044,1115.75 625.425,1045.59 952.806,1017.02 1280.19,1086.25 1607.57,920.96 1934.95,1384.2 2262.33,1089.91 
  "/>
<polyline clip-path="url(#clip4703)" style="stroke:#000000; stroke-width:1.6; stroke-opacity:0.1; fill:none" points="
  298.044,1104.43 625.425,1056.02 952.806,1082.1 1280.19,1083.25 1607.57,901.347 1934.95,1263.57 2262.33,1061.23 
  "/>
<polyline clip-path="url(#clip4703)" style="stroke:#000000; stroke-width:1.6; stroke-opacity:0.1; fill:none" points="
  298.044,1098.41 625.425,1045.27 952.806,1089.65 1280.19,1090.13 1607.57,1059.1 1934.95,1256.5 2262.33,1074.56 
  "/>
<polyline clip-path="url(#clip4703)" style="stroke:#000000; stroke-width:1.6; stroke-opacity:0.1; fill:none" points="
  298.044,1126.09 625.425,1071.02 952.806,1023.87 1280.19,1093.29 1607.57,1026.95 1934.95,1050.42 2262.33,1177.56 
  "/>
<polyline clip-path="url(#clip4703)" style="stroke:#000000; stroke-width:1.6; stroke-opacity:0.1; fill:none" points="
  298.044,1088.89 625.425,1064.14 952.806,1002.91 1280.19,1102.34 1607.57,522.855 1934.95,689.248 2262.33,1080.51 
  "/>
<polyline clip-path="url(#clip4703)" style="stroke:#000000; stroke-width:1.6; stroke-opacity:0.1; fill:none" points="
  298.044,1106.21 625.425,1040.81 952.806,1083.89 1280.19,1092.81 1607.57,973.21 1934.95,396.866 2262.33,1155.46 
  "/>
<polyline clip-path="url(#clip4703)" style="stroke:#000000; stroke-width:1.6; stroke-opacity:0.1; fill:none" points="
  298.044,1088.04 625.425,1061.93 952.806,1025.89 1280.19,1106.03 1607.57,894.059 1934.95,1265.87 2262.33,1083.19 
  "/>
<polyline clip-path="url(#clip4703)" style="stroke:#000000; stroke-width:1.6; stroke-opacity:0.1; fill:none" points="
  298.044,1114.9 625.425,1052.01 952.806,1023.93 1280.19,1109.97 1607.57,920.563 1934.95,657.912 2262.33,1164.76 
  "/>
<polyline clip-path="url(#clip4703)" style="stroke:#000000; stroke-width:1.6; stroke-opacity:0.1; fill:none" points="
  298.044,1098.86 625.425,1035.67 952.806,1101.1 1280.19,1104.95 1607.57,1003.69 1934.95,1225.65 2262.33,1164.71 
  "/>
<polyline clip-path="url(#clip4703)" style="stroke:#000000; stroke-width:1.6; stroke-opacity:0.1; fill:none" points="
  298.044,1107.52 625.425,1052.16 952.806,1085.02 1280.19,1082.17 1607.57,947.722 1934.95,1218.73 2262.33,1163.41 
  "/>
<polyline clip-path="url(#clip4703)" style="stroke:#000000; stroke-width:1.6; stroke-opacity:0.1; fill:none" points="
  298.044,1077.58 625.425,1057.21 952.806,1059.95 1280.19,1095.71 1607.57,922.134 1934.95,724.493 2262.33,1151.85 
  "/>
<polyline clip-path="url(#clip4703)" style="stroke:#000000; stroke-width:1.6; stroke-opacity:0.1; fill:none" points="
  298.044,1118.41 625.425,1059.45 952.806,1091.33 1280.19,1087.55 1607.57,1042.08 1934.95,777.069 2262.33,1080.92 
  "/>
<polyline clip-path="url(#clip4703)" style="stroke:#000000; stroke-width:1.6; stroke-opacity:0.1; fill:none" points="
  298.044,1129.6 625.425,1055.56 952.806,1016.82 1280.19,1104.79 1607.57,990.24 1934.95,770.827 2262.33,1064.87 
  "/>
<polyline clip-path="url(#clip4703)" style="stroke:#000000; stroke-width:1.6; stroke-opacity:0.1; fill:none" points="
  298.044,1093.01 625.425,1047.8 952.806,1045.4 1280.19,1102.5 1607.57,997.477 1934.95,912.951 2262.33,1066.5 
  "/>
<polyline clip-path="url(#clip4703)" style="stroke:#000000; stroke-width:1.6; stroke-opacity:0.1; fill:none" points="
  298.044,1113.58 625.425,1061.52 952.806,1067.94 1280.19,1109.76 1607.57,1040.87 1934.95,822.318 2262.33,1155.36 
  "/>
<polyline clip-path="url(#clip4703)" style="stroke:#000000; stroke-width:1.6; stroke-opacity:0.1; fill:none" points="
  298.044,1123.92 625.425,1055.36 952.806,1071.63 1280.19,1107.46 1607.57,742.918 1934.95,988.222 2262.33,1084.15 
  "/>
<polyline clip-path="url(#clip4703)" style="stroke:#000000; stroke-width:1.6; stroke-opacity:0.1; fill:none" points="
  298.044,1092.51 625.425,1041.45 952.806,1036.85 1280.19,1095.75 1607.57,1008.22 1934.95,723.361 2262.33,1089.01 
  "/>
<polyline clip-path="url(#clip4703)" style="stroke:#000000; stroke-width:1.6; stroke-opacity:0.1; fill:none" points="
  298.044,1126.26 625.425,1062.29 952.806,1086.41 1280.19,1084.31 1607.57,1014.97 1934.95,741.102 2262.33,1161.18 
  "/>
<polyline clip-path="url(#clip4703)" style="stroke:#000000; stroke-width:1.6; stroke-opacity:0.1; fill:none" points="
  298.044,1104.49 625.425,1060.71 952.806,1032.68 1280.19,1088.26 1607.57,1052.27 1934.95,777.91 2262.33,1173.53 
  "/>
<polyline clip-path="url(#clip4703)" style="stroke:#000000; stroke-width:1.6; stroke-opacity:0.1; fill:none" points="
  298.044,1138.85 625.425,1044.68 952.806,1069.37 1280.19,1107.1 1607.57,972.015 1934.95,842.097 2262.33,1076.61 
  "/>
<polyline clip-path="url(#clip4703)" style="stroke:#000000; stroke-width:1.6; stroke-opacity:0.1; fill:none" points="
  298.044,1092.53 625.425,1050.79 952.806,1049.83 1280.19,1103.01 1607.57,1029.23 1934.95,847.413 2262.33,1175.34 
  "/>
<polyline clip-path="url(#clip4703)" style="stroke:#000000; stroke-width:1.6; stroke-opacity:0.1; fill:none" points="
  298.044,1131.51 625.425,1058.04 952.806,1049.54 1280.19,1088.35 1607.57,999.242 1934.95,1237.43 2262.33,1076.47 
  "/>
<polyline clip-path="url(#clip4703)" style="stroke:#000000; stroke-width:1.6; stroke-opacity:0.1; fill:none" points="
  298.044,1138.23 625.425,1053.45 952.806,1043.42 1280.19,1104.62 1607.57,927.697 1934.95,1248.58 2262.33,1080.77 
  "/>
<polyline clip-path="url(#clip4703)" style="stroke:#000000; stroke-width:1.6; stroke-opacity:0.1; fill:none" points="
  298.044,1112.53 625.425,1047.84 952.806,1003.58 1280.19,1106.75 1607.57,938.736 1934.95,784.673 2262.33,1165.57 
  "/>
<polyline clip-path="url(#clip4703)" style="stroke:#000000; stroke-width:1.6; stroke-opacity:0.1; fill:none" points="
  298.044,1113.9 625.425,1049.85 952.806,1082.25 1280.19,1104.92 1607.57,1060.91 1934.95,761.125 2262.33,1171.84 
  "/>
<polyline clip-path="url(#clip4703)" style="stroke:#000000; stroke-width:1.6; stroke-opacity:0.1; fill:none" points="
  298.044,1106.66 625.425,1054.05 952.806,1084.17 1280.19,1106.67 1607.57,1052.7 1934.95,1217.84 2262.33,1194.91 
  "/>
<polyline clip-path="url(#clip4703)" style="stroke:#000000; stroke-width:1.6; stroke-opacity:0.1; fill:none" points="
  298.044,1117.81 625.425,1052.42 952.806,1068.25 1280.19,1088.69 1607.57,974.5 1934.95,734.199 2262.33,1155.15 
  "/>
<polyline clip-path="url(#clip4703)" style="stroke:#000000; stroke-width:1.6; stroke-opacity:0.1; fill:none" points="
  298.044,1136.19 625.425,1057.67 952.806,1037.11 1280.19,1091.35 1607.57,841.215 1934.95,655.529 2262.33,1077.91 
  "/>
<polyline clip-path="url(#clip4703)" style="stroke:#000000; stroke-width:1.6; stroke-opacity:0.1; fill:none" points="
  298.044,1093.72 625.425,1053.09 952.806,1035.14 1280.19,1098.66 1607.57,887.241 1934.95,942.531 2262.33,1086.01 
  "/>
<polyline clip-path="url(#clip4703)" style="stroke:#000000; stroke-width:1.6; stroke-opacity:0.1; fill:none" points="
  298.044,1105.39 625.425,1039.58 952.806,1090.2 1280.19,1104.55 1607.57,1040.85 1934.95,1223.28 2262.33,1167.67 
  "/>
<polyline clip-path="url(#clip4703)" style="stroke:#000000; stroke-width:1.6; stroke-opacity:0.1; fill:none" points="
  298.044,1121.04 625.425,1058.56 952.806,1032.94 1280.19,1106.34 1607.57,1026.43 1934.95,624.999 2262.33,1181.96 
  "/>
<polyline clip-path="url(#clip4703)" style="stroke:#000000; stroke-width:1.6; stroke-opacity:0.1; fill:none" points="
  298.044,1128.06 625.425,1042.72 952.806,1095.43 1280.19,1086.08 1607.57,877.786 1934.95,657.941 2262.33,1084.32 
  "/>
<polyline clip-path="url(#clip4703)" style="stroke:#000000; stroke-width:1.6; stroke-opacity:0.1; fill:none" points="
  298.044,1091.29 625.425,1037.13 952.806,1040.9 1280.19,1085.34 1607.57,892.338 1934.95,707.803 2262.33,1080.18 
  "/>
<polyline clip-path="url(#clip4703)" style="stroke:#000000; stroke-width:1.6; stroke-opacity:0.1; fill:none" points="
  298.044,1096.66 625.425,1049.11 952.806,1057.86 1280.19,1107.86 1607.57,853.316 1934.95,937.215 2262.33,1080.93 
  "/>
<polyline clip-path="url(#clip4703)" style="stroke:#000000; stroke-width:1.6; stroke-opacity:0.1; fill:none" points="
  298.044,1097.09 625.425,1053.65 952.806,1009.82 1280.19,1098.39 1607.57,1049.02 1934.95,820.71 2262.33,1161.83 
  "/>
<polyline clip-path="url(#clip4703)" style="stroke:#000000; stroke-width:1.6; stroke-opacity:0.1; fill:none" points="
  298.044,1096.71 625.425,1039.02 952.806,1102.54 1280.19,1109.92 1607.57,946.546 1934.95,1276.41 2262.33,1170.51 
  "/>
<polyline clip-path="url(#clip4703)" style="stroke:#000000; stroke-width:1.6; stroke-opacity:0.1; fill:none" points="
  298.044,1117.12 625.425,1052.76 952.806,1036.33 1280.19,1098.11 1607.57,923.152 1934.95,667.1 2262.33,1080.7 
  "/>
<polyline clip-path="url(#clip4703)" style="stroke:#000000; stroke-width:1.6; stroke-opacity:0.1; fill:none" points="
  298.044,1103.78 625.425,1049.82 952.806,1053.86 1280.19,1084.83 1607.57,990.217 1934.95,809.479 2262.33,1115.8 
  "/>
<polyline clip-path="url(#clip4703)" style="stroke:#000000; stroke-width:1.6; stroke-opacity:0.1; fill:none" points="
  298.044,1097.9 625.425,1058.7 952.806,1020.11 1280.19,1093.2 1607.57,978.841 1934.95,86.6754 2262.33,1079.78 
  "/>
<polyline clip-path="url(#clip4703)" style="stroke:#000000; stroke-width:1.6; stroke-opacity:0.1; fill:none" points="
  298.044,1111.18 625.425,1052.22 952.806,999.276 1280.19,1102.36 1607.57,891.183 1934.95,711.166 2262.33,1088.88 
  "/>
<polyline clip-path="url(#clip4703)" style="stroke:#000000; stroke-width:1.6; stroke-opacity:0.1; fill:none" points="
  298.044,1118.59 625.425,1052.18 952.806,1023.85 1280.19,1100.26 1607.57,951.194 1934.95,1066.43 2262.33,1089.8 
  "/>
<polyline clip-path="url(#clip4703)" style="stroke:#000000; stroke-width:1.6; stroke-opacity:0.1; fill:none" points="
  298.044,1120.58 625.425,1051.88 952.806,1109.61 1280.19,1107.29 1607.57,1006.97 1934.95,738.112 2262.33,1076.48 
  "/>
<polyline clip-path="url(#clip4703)" style="stroke:#000000; stroke-width:1.6; stroke-opacity:0.1; fill:none" points="
  298.044,1110.43 625.425,1056.29 952.806,1053.45 1280.19,1086.27 1607.57,1022.71 1934.95,1270.75 2262.33,1084.06 
  "/>
<polyline clip-path="url(#clip4703)" style="stroke:#000000; stroke-width:1.6; stroke-opacity:0.1; fill:none" points="
  298.044,1100.67 625.425,1054.83 952.806,1023.03 1280.19,1083.95 1607.57,792.617 1934.95,994.191 2262.33,1168.4 
  "/>
<polyline clip-path="url(#clip4703)" style="stroke:#000000; stroke-width:1.6; stroke-opacity:0.1; fill:none" points="
  298.044,1130.37 625.425,1058.79 952.806,1008.19 1280.19,1097.08 1607.57,1096.17 1934.95,710.49 2262.33,1167.34 
  "/>
<polyline clip-path="url(#clip4703)" style="stroke:#000000; stroke-width:1.6; stroke-opacity:0.1; fill:none" points="
  298.044,1112.54 625.425,1050 952.806,1038.53 1280.19,1091.54 1607.57,952.66 1934.95,764.257 2262.33,1095 
  "/>
<polyline clip-path="url(#clip4703)" style="stroke:#000000; stroke-width:1.6; stroke-opacity:0.1; fill:none" points="
  298.044,1149.62 625.425,1059.41 952.806,1066.13 1280.19,1086.81 1607.57,856.61 1934.95,799.851 2262.33,1163.97 
  "/>
<polyline clip-path="url(#clip4703)" style="stroke:#000000; stroke-width:1.6; stroke-opacity:0.1; fill:none" points="
  298.044,1123.92 625.425,1069.38 952.806,1085.12 1280.19,1108.43 1607.57,1088.97 1934.95,785.108 2262.33,1098.95 
  "/>
<polyline clip-path="url(#clip4703)" style="stroke:#000000; stroke-width:1.6; stroke-opacity:0.1; fill:none" points="
  298.044,1133.95 625.425,1066.35 952.806,1034.85 1280.19,1083.81 1607.57,898.882 1934.95,1270.83 2262.33,1170.67 
  "/>
<polyline clip-path="url(#clip4703)" style="stroke:#000000; stroke-width:1.6; stroke-opacity:0.1; fill:none" points="
  298.044,1096.82 625.425,1034.91 952.806,1044.24 1280.19,1088.48 1607.57,949.689 1934.95,1251.89 2262.33,1076.66 
  "/>
<polyline clip-path="url(#clip4703)" style="stroke:#000000; stroke-width:1.6; stroke-opacity:0.1; fill:none" points="
  298.044,1114 625.425,1047.01 952.806,1100.23 1280.19,1099.81 1607.57,958.778 1934.95,740.461 2262.33,1167.78 
  "/>
<polyline clip-path="url(#clip4703)" style="stroke:#000000; stroke-width:1.6; stroke-opacity:0.1; fill:none" points="
  298.044,1105.21 625.425,1060.15 952.806,1051.08 1280.19,1092.15 1607.57,897.739 1934.95,1330.7 2262.33,1183.77 
  "/>
<polyline clip-path="url(#clip4703)" style="stroke:#000000; stroke-width:1.6; stroke-opacity:0.1; fill:none" points="
  298.044,1116.28 625.425,1047.74 952.806,1063.28 1280.19,1107.78 1607.57,1065.26 1934.95,770.413 2262.33,1169.25 
  "/>
<polyline clip-path="url(#clip4703)" style="stroke:#000000; stroke-width:1.6; stroke-opacity:0.1; fill:none" points="
  298.044,1137.48 625.425,1048.45 952.806,1017.79 1280.19,1099.08 1607.57,1057.16 1934.95,748.479 2262.33,1168.8 
  "/>
<polyline clip-path="url(#clip4703)" style="stroke:#000000; stroke-width:1.6; stroke-opacity:0.1; fill:none" points="
  298.044,1109.52 625.425,1062.59 952.806,1009.37 1280.19,1084.84 1607.57,812.412 1934.95,944.217 2262.33,1088.48 
  "/>
<polyline clip-path="url(#clip4703)" style="stroke:#000000; stroke-width:1.6; stroke-opacity:0.1; fill:none" points="
  298.044,1104.66 625.425,1056.51 952.806,1096.92 1280.19,1093.42 1607.57,846.979 1934.95,749.433 2262.33,1172.27 
  "/>
<polyline clip-path="url(#clip4703)" style="stroke:#000000; stroke-width:1.6; stroke-opacity:0.1; fill:none" points="
  298.044,1119.49 625.425,1053.56 952.806,1049.61 1280.19,1092.46 1607.57,916.8 1934.95,1195.92 2262.33,1158.92 
  "/>
<polyline clip-path="url(#clip4703)" style="stroke:#000000; stroke-width:1.6; stroke-opacity:0.1; fill:none" points="
  298.044,1129.51 625.425,1046.96 952.806,1095.1 1280.19,1108.01 1607.57,1040.08 1934.95,663.853 2262.33,1076.22 
  "/>
<polyline clip-path="url(#clip4703)" style="stroke:#000000; stroke-width:1.6; stroke-opacity:0.1; fill:none" points="
  298.044,1113.2 625.425,1040.89 952.806,1085.58 1280.19,1091.42 1607.57,900.06 1934.95,1189.23 2262.33,1062.36 
  "/>
<polyline clip-path="url(#clip4703)" style="stroke:#000000; stroke-width:1.6; stroke-opacity:0.1; fill:none" points="
  298.044,1091.49 625.425,1046.36 952.806,1042.15 1280.19,1089.97 1607.57,1002.82 1934.95,1095.74 2262.33,1164.99 
  "/>
<polyline clip-path="url(#clip4703)" style="stroke:#000000; stroke-width:1.6; stroke-opacity:0.1; fill:none" points="
  298.044,1116.44 625.425,1050.6 952.806,997.236 1280.19,1103.66 1607.57,1053.55 1934.95,785.31 2262.33,1092.79 
  "/>
<polyline clip-path="url(#clip4703)" style="stroke:#000000; stroke-width:1.6; stroke-opacity:0.1; fill:none" points="
  298.044,1108.42 625.425,1060.09 952.806,1019.8 1280.19,1084.25 1607.57,916.918 1934.95,810.762 2262.33,1089 
  "/>
<polyline clip-path="url(#clip4703)" style="stroke:#000000; stroke-width:1.6; stroke-opacity:0.1; fill:none" points="
  298.044,1113.06 625.425,1047.9 952.806,1051.34 1280.19,1083.17 1607.57,1029.92 1934.95,1110.34 2262.33,1157.26 
  "/>
<polyline clip-path="url(#clip4703)" style="stroke:#000000; stroke-width:1.6; stroke-opacity:0.1; fill:none" points="
  298.044,1093.01 625.425,1055.7 952.806,1002 1280.19,1103.43 1607.57,975.768 1934.95,691.894 2262.33,1157.43 
  "/>
<polyline clip-path="url(#clip4703)" style="stroke:#000000; stroke-width:1.6; stroke-opacity:0.1; fill:none" points="
  298.044,1109.29 625.425,1052.66 952.806,1033.33 1280.19,1082.17 1607.57,829.284 1934.95,776.633 2262.33,1098.85 
  "/>
<polyline clip-path="url(#clip4703)" style="stroke:#000000; stroke-width:1.6; stroke-opacity:0.1; fill:none" points="
  298.044,1113.27 625.425,1054.15 952.806,1050.08 1280.19,1091.63 1607.57,901.386 1934.95,959.75 2262.33,1073.08 
  "/>
<polyline clip-path="url(#clip4703)" style="stroke:#000000; stroke-width:1.6; stroke-opacity:0.1; fill:none" points="
  298.044,1136.8 625.425,1061.16 952.806,1067.29 1280.19,1107.99 1607.57,1047.48 1934.95,1242.06 2262.33,1164.26 
  "/>
<polyline clip-path="url(#clip4703)" style="stroke:#000000; stroke-width:1.6; stroke-opacity:0.1; fill:none" points="
  298.044,1106.87 625.425,1058.24 952.806,1067.06 1280.19,1101.11 1607.57,1003.37 1934.95,979.026 2262.33,1177.7 
  "/>
<polyline clip-path="url(#clip4703)" style="stroke:#000000; stroke-width:1.6; stroke-opacity:0.1; fill:none" points="
  298.044,1093.69 625.425,1060.67 952.806,1048.57 1280.19,1106.89 1607.57,1026.89 1934.95,1055.28 2262.33,1055.13 
  "/>
<polyline clip-path="url(#clip4703)" style="stroke:#000000; stroke-width:1.6; stroke-opacity:0.1; fill:none" points="
  298.044,1111.48 625.425,1062.16 952.806,1051.74 1280.19,1099.58 1607.57,1015.81 1934.95,722.571 2262.33,1095.95 
  "/>
<polyline clip-path="url(#clip4703)" style="stroke:#000000; stroke-width:1.6; stroke-opacity:0.1; fill:none" points="
  298.044,1100.64 625.425,1044.21 952.806,1087.52 1280.19,1103.41 1607.57,867.567 1934.95,818.087 2262.33,1093.98 
  "/>
<polyline clip-path="url(#clip4703)" style="stroke:#000000; stroke-width:1.6; stroke-opacity:0.1; fill:none" points="
  298.044,1107.33 625.425,1043.94 952.806,1068.41 1280.19,1107.42 1607.57,834.279 1934.95,776.908 2262.33,1163.85 
  "/>
<polyline clip-path="url(#clip4703)" style="stroke:#000000; stroke-width:1.6; stroke-opacity:0.1; fill:none" points="
  298.044,1095.76 625.425,1048.22 952.806,1027.85 1280.19,1098.59 1607.57,902.328 1934.95,899.809 2262.33,1169.03 
  "/>
<polyline clip-path="url(#clip4703)" style="stroke:#000000; stroke-width:1.6; stroke-opacity:0.1; fill:none" points="
  298.044,1106.33 625.425,1066.62 952.806,1017.38 1280.19,1085.88 1607.57,795.281 1934.95,1207.27 2262.33,1146.23 
  "/>
<polyline clip-path="url(#clip4703)" style="stroke:#000000; stroke-width:1.6; stroke-opacity:0.1; fill:none" points="
  298.044,1100.56 625.425,1052.82 952.806,1012.73 1280.19,1083.84 1607.57,1083.56 1934.95,1162.83 2262.33,1082.5 
  "/>
<polyline clip-path="url(#clip4703)" style="stroke:#000000; stroke-width:1.6; stroke-opacity:0.1; fill:none" points="
  298.044,1105.09 625.425,1040.51 952.806,1062.12 1280.19,1105.51 1607.57,887.051 1934.95,737.961 2262.33,1085.19 
  "/>
<polyline clip-path="url(#clip4703)" style="stroke:#000000; stroke-width:1.6; stroke-opacity:0.1; fill:none" points="
  298.044,1069.31 625.425,1053.43 952.806,1036.65 1280.19,1101.34 1607.57,977.908 1934.95,1223.51 2262.33,1087.14 
  "/>
<polyline clip-path="url(#clip4703)" style="stroke:#000000; stroke-width:1.6; stroke-opacity:0.1; fill:none" points="
  298.044,1117.83 625.425,1051.83 952.806,1011.73 1280.19,1083.24 1607.57,1085.3 1934.95,1245.76 2262.33,1073.63 
  "/>
<polyline clip-path="url(#clip4703)" style="stroke:#000000; stroke-width:1.6; stroke-opacity:0.1; fill:none" points="
  298.044,1147.19 625.425,1060.2 952.806,1068.08 1280.19,1090.6 1607.57,955.83 1934.95,741.903 2262.33,1077.26 
  "/>
<polyline clip-path="url(#clip4703)" style="stroke:#000000; stroke-width:1.6; stroke-opacity:0.1; fill:none" points="
  298.044,1134.05 625.425,1057.67 952.806,1038.96 1280.19,1084.1 1607.57,929.661 1934.95,504.925 2262.33,1168.41 
  "/>
<polyline clip-path="url(#clip4703)" style="stroke:#000000; stroke-width:1.6; stroke-opacity:0.1; fill:none" points="
  298.044,1110.13 625.425,1057.44 952.806,1052.09 1280.19,1087.8 1607.57,951.893 1934.95,752.955 2262.33,1075.71 
  "/>
<polyline clip-path="url(#clip4703)" style="stroke:#000000; stroke-width:1.6; stroke-opacity:0.1; fill:none" points="
  298.044,1126.8 625.425,1041.22 952.806,1039.16 1280.19,1090.97 1607.57,988.628 1934.95,1212.65 2262.33,1058.05 
  "/>
<polyline clip-path="url(#clip4703)" style="stroke:#000000; stroke-width:1.6; stroke-opacity:0.1; fill:none" points="
  298.044,1094.99 625.425,1061.21 952.806,1084.24 1280.19,1109.01 1607.57,994.254 1934.95,1237.03 2262.33,1052.31 
  "/>
<polyline clip-path="url(#clip4703)" style="stroke:#000000; stroke-width:1.6; stroke-opacity:0.1; fill:none" points="
  298.044,1084.24 625.425,1048.12 952.806,1063.23 1280.19,1102.45 1607.57,908.615 1934.95,846.364 2262.33,1162.47 
  "/>
<polyline clip-path="url(#clip4703)" style="stroke:#000000; stroke-width:1.6; stroke-opacity:0.1; fill:none" points="
  298.044,1098.34 625.425,1063.25 952.806,1050.51 1280.19,1089.66 1607.57,1068 1934.95,735.072 2262.33,1072.08 
  "/>
<polyline clip-path="url(#clip4703)" style="stroke:#000000; stroke-width:1.6; stroke-opacity:0.1; fill:none" points="
  298.044,1103.6 625.425,1054.84 952.806,1068.11 1280.19,1109.11 1607.57,846.716 1934.95,774.874 2262.33,1170.88 
  "/>
<polyline clip-path="url(#clip4703)" style="stroke:#000000; stroke-width:1.6; stroke-opacity:0.1; fill:none" points="
  298.044,1119.48 625.425,1066.32 952.806,1010.19 1280.19,1085.27 1607.57,1050.85 1934.95,1176.4 2262.33,1160.22 
  "/>
<polyline clip-path="url(#clip4703)" style="stroke:#000000; stroke-width:1.6; stroke-opacity:0.1; fill:none" points="
  298.044,1090.17 625.425,1046.5 952.806,1059 1280.19,1089.23 1607.57,966.741 1934.95,948.158 2262.33,1090.44 
  "/>
<polyline clip-path="url(#clip4703)" style="stroke:#000000; stroke-width:1.6; stroke-opacity:0.1; fill:none" points="
  298.044,1123.34 625.425,1062.36 952.806,1037.62 1280.19,1095.45 1607.57,869.636 1934.95,1313.15 2262.33,1094.58 
  "/>
<polyline clip-path="url(#clip4703)" style="stroke:#000000; stroke-width:1.6; stroke-opacity:0.1; fill:none" points="
  298.044,1101.03 625.425,1057.63 952.806,1070.36 1280.19,1087.59 1607.57,799.447 1934.95,1335.1 2262.33,1082.36 
  "/>
<polyline clip-path="url(#clip4703)" style="stroke:#000000; stroke-width:1.6; stroke-opacity:0.1; fill:none" points="
  298.044,1110.24 625.425,1034.46 952.806,1050.51 1280.19,1100.97 1607.57,1060.32 1934.95,853.809 2262.33,1175.41 
  "/>
<polyline clip-path="url(#clip4703)" style="stroke:#000000; stroke-width:1.6; stroke-opacity:0.1; fill:none" points="
  298.044,1089.76 625.425,1060.85 952.806,1087.71 1280.19,1108.48 1607.57,997.446 1934.95,779.824 2262.33,1163.61 
  "/>
<polyline clip-path="url(#clip4703)" style="stroke:#000000; stroke-width:1.6; stroke-opacity:0.1; fill:none" points="
  298.044,1126.02 625.425,1065.5 952.806,1020.24 1280.19,1097.53 1607.57,1020.59 1934.95,859.165 2262.33,1097.11 
  "/>
<polyline clip-path="url(#clip4703)" style="stroke:#000000; stroke-width:1.6; stroke-opacity:0.1; fill:none" points="
  298.044,1116.02 625.425,1059.69 952.806,1020.48 1280.19,1087.73 1607.57,905.315 1934.95,1162.97 2262.33,1179.72 
  "/>
<polyline clip-path="url(#clip4703)" style="stroke:#000000; stroke-width:1.6; stroke-opacity:0.1; fill:none" points="
  298.044,1106.11 625.425,1053.07 952.806,1107.71 1280.19,1093.45 1607.57,921.528 1934.95,1230.58 2262.33,1078.19 
  "/>
<polyline clip-path="url(#clip4703)" style="stroke:#000000; stroke-width:1.6; stroke-opacity:0.1; fill:none" points="
  298.044,1081.65 625.425,1055.71 952.806,1016.45 1280.19,1090.28 1607.57,894.633 1934.95,1364.55 2262.33,1096.88 
  "/>
<polyline clip-path="url(#clip4703)" style="stroke:#000000; stroke-width:1.6; stroke-opacity:0.1; fill:none" points="
  298.044,1117.48 625.425,1059.05 952.806,1085.61 1280.19,1101.79 1607.57,999.146 1934.95,749.319 2262.33,1163.09 
  "/>
<polyline clip-path="url(#clip4703)" style="stroke:#000000; stroke-width:1.6; stroke-opacity:0.1; fill:none" points="
  298.044,1113.15 625.425,1062.36 952.806,1017.19 1280.19,1099.54 1607.57,1052.01 1934.95,995.621 2262.33,1068.85 
  "/>
</svg>
