<?xml version="1.0" encoding="utf-8"?>
<svg xmlns="http://www.w3.org/2000/svg" xmlns:xlink="http://www.w3.org/1999/xlink" width="600" height="400" viewBox="0 0 2400 1600">
<defs>
  <clipPath id="clip0400">
    <rect x="0" y="0" width="2000" height="2000"/>
  </clipPath>
</defs>
<defs>
  <clipPath id="clip0401">
    <rect x="0" y="0" width="2400" height="1600"/>
  </clipPath>
</defs>
<polygon clip-path="url(#clip0401)" points="
0,1600 2400,1600 2400,0 0,0 
  " fill="#ffffff" fill-rule="evenodd" fill-opacity="1"/>
<defs>
  <clipPath id="clip0402">
    <rect x="480" y="0" width="1681" height="1600"/>
  </clipPath>
</defs>
<polygon clip-path="url(#clip0401)" points="
251.149,640.483 2321.26,640.483 2321.26,47.2441 251.149,47.2441 
  " fill="#ffffff" fill-rule="evenodd" fill-opacity="1"/>
<defs>
  <clipPath id="clip0403">
    <rect x="251" y="47" width="2071" height="594"/>
  </clipPath>
</defs>
<polyline clip-path="url(#clip0403)" style="stroke:#000000; stroke-width:2; stroke-opacity:0.1; fill:none" points="
  365.008,640.483 365.008,47.2441 
  "/>
<polyline clip-path="url(#clip0403)" style="stroke:#000000; stroke-width:2; stroke-opacity:0.1; fill:none" points="
  923.309,640.483 923.309,47.2441 
  "/>
<polyline clip-path="url(#clip0403)" style="stroke:#000000; stroke-width:2; stroke-opacity:0.1; fill:none" points="
  1481.61,640.483 1481.61,47.2441 
  "/>
<polyline clip-path="url(#clip0403)" style="stroke:#000000; stroke-width:2; stroke-opacity:0.1; fill:none" points="
  2039.91,640.483 2039.91,47.2441 
  "/>
<polyline clip-path="url(#clip0403)" style="stroke:#000000; stroke-width:2; stroke-opacity:0.1; fill:none" points="
  251.149,623.693 2321.26,623.693 
  "/>
<polyline clip-path="url(#clip0403)" style="stroke:#000000; stroke-width:2; stroke-opacity:0.1; fill:none" points="
  251.149,475.439 2321.26,475.439 
  "/>
<polyline clip-path="url(#clip0403)" style="stroke:#000000; stroke-width:2; stroke-opacity:0.1; fill:none" points="
  251.149,327.185 2321.26,327.185 
  "/>
<polyline clip-path="url(#clip0403)" style="stroke:#000000; stroke-width:2; stroke-opacity:0.1; fill:none" points="
  251.149,178.931 2321.26,178.931 
  "/>
<polyline clip-path="url(#clip0401)" style="stroke:#000000; stroke-width:4; stroke-opacity:1; fill:none" points="
  251.149,640.483 2321.26,640.483 
  "/>
<polyline clip-path="url(#clip0401)" style="stroke:#000000; stroke-width:4; stroke-opacity:1; fill:none" points="
  251.149,640.483 251.149,47.2441 
  "/>
<polyline clip-path="url(#clip0401)" style="stroke:#000000; stroke-width:4; stroke-opacity:1; fill:none" points="
  365.008,640.483 365.008,631.584 
  "/>
<polyline clip-path="url(#clip0401)" style="stroke:#000000; stroke-width:4; stroke-opacity:1; fill:none" points="
  923.309,640.483 923.309,631.584 
  "/>
<polyline clip-path="url(#clip0401)" style="stroke:#000000; stroke-width:4; stroke-opacity:1; fill:none" points="
  1481.61,640.483 1481.61,631.584 
  "/>
<polyline clip-path="url(#clip0401)" style="stroke:#000000; stroke-width:4; stroke-opacity:1; fill:none" points="
  2039.91,640.483 2039.91,631.584 
  "/>
<polyline clip-path="url(#clip0401)" style="stroke:#000000; stroke-width:4; stroke-opacity:1; fill:none" points="
  251.149,623.693 282.2,623.693 
  "/>
<polyline clip-path="url(#clip0401)" style="stroke:#000000; stroke-width:4; stroke-opacity:1; fill:none" points="
  251.149,475.439 282.2,475.439 
  "/>
<polyline clip-path="url(#clip0401)" style="stroke:#000000; stroke-width:4; stroke-opacity:1; fill:none" points="
  251.149,327.185 282.2,327.185 
  "/>
<polyline clip-path="url(#clip0401)" style="stroke:#000000; stroke-width:4; stroke-opacity:1; fill:none" points="
  251.149,178.931 282.2,178.931 
  "/>
<g clip-path="url(#clip0401)">
<text style="fill:#000000; fill-opacity:1; font-family:Arial,Helvetica Neue,Helvetica,sans-serif; font-size:48px; text-anchor:middle;" transform="rotate(0, 365.008, 694.483)" x="365.008" y="694.483">0</text>
</g>
<g clip-path="url(#clip0401)">
<text style="fill:#000000; fill-opacity:1; font-family:Arial,Helvetica Neue,Helvetica,sans-serif; font-size:48px; text-anchor:middle;" transform="rotate(0, 923.309, 694.483)" x="923.309" y="694.483">20</text>
</g>
<g clip-path="url(#clip0401)">
<text style="fill:#000000; fill-opacity:1; font-family:Arial,Helvetica Neue,Helvetica,sans-serif; font-size:48px; text-anchor:middle;" transform="rotate(0, 1481.61, 694.483)" x="1481.61" y="694.483">40</text>
</g>
<g clip-path="url(#clip0401)">
<text style="fill:#000000; fill-opacity:1; font-family:Arial,Helvetica Neue,Helvetica,sans-serif; font-size:48px; text-anchor:middle;" transform="rotate(0, 2039.91, 694.483)" x="2039.91" y="694.483">60</text>
</g>
<g clip-path="url(#clip0401)">
<text style="fill:#000000; fill-opacity:1; font-family:Arial,Helvetica Neue,Helvetica,sans-serif; font-size:48px; text-anchor:end;" transform="rotate(0, 227.149, 641.193)" x="227.149" y="641.193">0.00</text>
</g>
<g clip-path="url(#clip0401)">
<text style="fill:#000000; fill-opacity:1; font-family:Arial,Helvetica Neue,Helvetica,sans-serif; font-size:48px; text-anchor:end;" transform="rotate(0, 227.149, 492.939)" x="227.149" y="492.939">0.02</text>
</g>
<g clip-path="url(#clip0401)">
<text style="fill:#000000; fill-opacity:1; font-family:Arial,Helvetica Neue,Helvetica,sans-serif; font-size:48px; text-anchor:end;" transform="rotate(0, 227.149, 344.685)" x="227.149" y="344.685">0.04</text>
</g>
<g clip-path="url(#clip0401)">
<text style="fill:#000000; fill-opacity:1; font-family:Arial,Helvetica Neue,Helvetica,sans-serif; font-size:48px; text-anchor:end;" transform="rotate(0, 227.149, 196.431)" x="227.149" y="196.431">0.06</text>
</g>
<g clip-path="url(#clip0401)">
<text style="fill:#000000; fill-opacity:1; font-family:Arial,Helvetica Neue,Helvetica,sans-serif; font-size:66px; text-anchor:middle;" transform="rotate(0, 1286.2, 790.4)" x="1286.2" y="790.4">value</text>
</g>
<g clip-path="url(#clip0401)">
<text style="fill:#000000; fill-opacity:1; font-family:Arial,Helvetica Neue,Helvetica,sans-serif; font-size:66px; text-anchor:middle;" transform="rotate(-90, 57.6, 343.863)" x="57.6" y="343.863">density</text>
</g>
<polygon clip-path="url(#clip0403)" points="
365.008,277.149 365.008,623.693 420.838,623.693 420.838,277.149 365.008,277.149 365.008,277.149 
  " fill="#000000" fill-rule="evenodd" fill-opacity="1"/>
<polyline clip-path="url(#clip0403)" style="stroke:#000000; stroke-width:4; stroke-opacity:1; fill:none" points="
  365.008,277.149 365.008,623.693 420.838,623.693 420.838,277.149 365.008,277.149 
  "/>
<polygon clip-path="url(#clip0403)" points="
420.838,65.887 420.838,623.693 476.668,623.693 476.668,65.887 420.838,65.887 420.838,65.887 
  " fill="#000000" fill-rule="evenodd" fill-opacity="1"/>
<polyline clip-path="url(#clip0403)" style="stroke:#000000; stroke-width:4; stroke-opacity:1; fill:none" points="
  420.838,65.887 420.838,623.693 476.668,623.693 476.668,65.887 420.838,65.887 
  "/>
<polygon clip-path="url(#clip0403)" points="
476.668,64.0339 476.668,623.693 532.498,623.693 532.498,64.0339 476.668,64.0339 476.668,64.0339 
  " fill="#000000" fill-rule="evenodd" fill-opacity="1"/>
<polyline clip-path="url(#clip0403)" style="stroke:#000000; stroke-width:4; stroke-opacity:1; fill:none" points="
  476.668,64.0339 476.668,623.693 532.498,623.693 532.498,64.0339 476.668,64.0339 
  "/>
<polygon clip-path="url(#clip0403)" points="
532.498,91.8315 532.498,623.693 588.329,623.693 588.329,91.8315 532.498,91.8315 532.498,91.8315 
  " fill="#000000" fill-rule="evenodd" fill-opacity="1"/>
<polyline clip-path="url(#clip0403)" style="stroke:#000000; stroke-width:4; stroke-opacity:1; fill:none" points="
  532.498,91.8315 532.498,623.693 588.329,623.693 588.329,91.8315 532.498,91.8315 
  "/>
<polygon clip-path="url(#clip0403)" points="
588.329,230.82 588.329,623.693 644.159,623.693 644.159,230.82 588.329,230.82 588.329,230.82 
  " fill="#000000" fill-rule="evenodd" fill-opacity="1"/>
<polyline clip-path="url(#clip0403)" style="stroke:#000000; stroke-width:4; stroke-opacity:1; fill:none" points="
  588.329,230.82 588.329,623.693 644.159,623.693 644.159,230.82 588.329,230.82 
  "/>
<polygon clip-path="url(#clip0403)" points="
644.159,303.093 644.159,623.693 699.989,623.693 699.989,303.093 644.159,303.093 644.159,303.093 
  " fill="#000000" fill-rule="evenodd" fill-opacity="1"/>
<polyline clip-path="url(#clip0403)" style="stroke:#000000; stroke-width:4; stroke-opacity:1; fill:none" points="
  644.159,303.093 644.159,623.693 699.989,623.693 699.989,303.093 644.159,303.093 
  "/>
<polygon clip-path="url(#clip0403)" points="
699.989,369.808 699.989,623.693 755.819,623.693 755.819,369.808 699.989,369.808 699.989,369.808 
  " fill="#000000" fill-rule="evenodd" fill-opacity="1"/>
<polyline clip-path="url(#clip0403)" style="stroke:#000000; stroke-width:4; stroke-opacity:1; fill:none" points="
  699.989,369.808 699.989,623.693 755.819,623.693 755.819,369.808 699.989,369.808 
  "/>
<polygon clip-path="url(#clip0403)" points="
755.819,443.935 755.819,623.693 811.649,623.693 811.649,443.935 755.819,443.935 755.819,443.935 
  " fill="#000000" fill-rule="evenodd" fill-opacity="1"/>
<polyline clip-path="url(#clip0403)" style="stroke:#000000; stroke-width:4; stroke-opacity:1; fill:none" points="
  755.819,443.935 755.819,623.693 811.649,623.693 811.649,443.935 755.819,443.935 
  "/>
<polygon clip-path="url(#clip0403)" points="
811.649,484.705 811.649,623.693 867.479,623.693 867.479,484.705 811.649,484.705 811.649,484.705 
  " fill="#000000" fill-rule="evenodd" fill-opacity="1"/>
<polyline clip-path="url(#clip0403)" style="stroke:#000000; stroke-width:4; stroke-opacity:1; fill:none" points="
  811.649,484.705 811.649,623.693 867.479,623.693 867.479,484.705 811.649,484.705 
  "/>
<polygon clip-path="url(#clip0403)" points="
867.479,499.53 867.479,623.693 923.309,623.693 923.309,499.53 867.479,499.53 867.479,499.53 
  " fill="#000000" fill-rule="evenodd" fill-opacity="1"/>
<polyline clip-path="url(#clip0403)" style="stroke:#000000; stroke-width:4; stroke-opacity:1; fill:none" points="
  867.479,499.53 867.479,623.693 923.309,623.693 923.309,499.53 867.479,499.53 
  "/>
<polygon clip-path="url(#clip0403)" points="
923.309,542.153 923.309,623.693 979.139,623.693 979.139,542.153 923.309,542.153 923.309,542.153 
  " fill="#000000" fill-rule="evenodd" fill-opacity="1"/>
<polyline clip-path="url(#clip0403)" style="stroke:#000000; stroke-width:4; stroke-opacity:1; fill:none" points="
  923.309,542.153 923.309,623.693 979.139,623.693 979.139,542.153 923.309,542.153 
  "/>
<polygon clip-path="url(#clip0403)" points="
979.139,577.363 979.139,623.693 1034.97,623.693 1034.97,577.363 979.139,577.363 979.139,577.363 
  " fill="#000000" fill-rule="evenodd" fill-opacity="1"/>
<polyline clip-path="url(#clip0403)" style="stroke:#000000; stroke-width:4; stroke-opacity:1; fill:none" points="
  979.139,577.363 979.139,623.693 1034.97,623.693 1034.97,577.363 979.139,577.363 
  "/>
<polygon clip-path="url(#clip0403)" points="
1034.97,560.685 1034.97,623.693 1090.8,623.693 1090.8,560.685 1034.97,560.685 1034.97,560.685 
  " fill="#000000" fill-rule="evenodd" fill-opacity="1"/>
<polyline clip-path="url(#clip0403)" style="stroke:#000000; stroke-width:4; stroke-opacity:1; fill:none" points="
  1034.97,560.685 1034.97,623.693 1090.8,623.693 1090.8,560.685 1034.97,560.685 
  "/>
<polygon clip-path="url(#clip0403)" points="
1090.8,586.629 1090.8,623.693 1146.63,623.693 1146.63,586.629 1090.8,586.629 1090.8,586.629 
  " fill="#000000" fill-rule="evenodd" fill-opacity="1"/>
<polyline clip-path="url(#clip0403)" style="stroke:#000000; stroke-width:4; stroke-opacity:1; fill:none" points="
  1090.8,586.629 1090.8,623.693 1146.63,623.693 1146.63,586.629 1090.8,586.629 
  "/>
<polygon clip-path="url(#clip0403)" points="
1146.63,592.189 1146.63,623.693 1202.46,623.693 1202.46,592.189 1146.63,592.189 1146.63,592.189 
  " fill="#000000" fill-rule="evenodd" fill-opacity="1"/>
<polyline clip-path="url(#clip0403)" style="stroke:#000000; stroke-width:4; stroke-opacity:1; fill:none" points="
  1146.63,592.189 1146.63,623.693 1202.46,623.693 1202.46,592.189 1146.63,592.189 
  "/>
<polygon clip-path="url(#clip0403)" points="
1202.46,612.574 1202.46,623.693 1258.29,623.693 1258.29,612.574 1202.46,612.574 1202.46,612.574 
  " fill="#000000" fill-rule="evenodd" fill-opacity="1"/>
<polyline clip-path="url(#clip0403)" style="stroke:#000000; stroke-width:4; stroke-opacity:1; fill:none" points="
  1202.46,612.574 1202.46,623.693 1258.29,623.693 1258.29,612.574 1202.46,612.574 
  "/>
<polygon clip-path="url(#clip0403)" points="
1258.29,607.014 1258.29,623.693 1314.12,623.693 1314.12,607.014 1258.29,607.014 1258.29,607.014 
  " fill="#000000" fill-rule="evenodd" fill-opacity="1"/>
<polyline clip-path="url(#clip0403)" style="stroke:#000000; stroke-width:4; stroke-opacity:1; fill:none" points="
  1258.29,607.014 1258.29,623.693 1314.12,623.693 1314.12,607.014 1258.29,607.014 
  "/>
<polygon clip-path="url(#clip0403)" points="
1314.12,616.28 1314.12,623.693 1369.95,623.693 1369.95,616.28 1314.12,616.28 1314.12,616.28 
  " fill="#000000" fill-rule="evenodd" fill-opacity="1"/>
<polyline clip-path="url(#clip0403)" style="stroke:#000000; stroke-width:4; stroke-opacity:1; fill:none" points="
  1314.12,616.28 1314.12,623.693 1369.95,623.693 1369.95,616.28 1314.12,616.28 
  "/>
<polygon clip-path="url(#clip0403)" points="
1369.95,621.84 1369.95,623.693 1425.78,623.693 1425.78,621.84 1369.95,621.84 1369.95,621.84 
  " fill="#000000" fill-rule="evenodd" fill-opacity="1"/>
<polyline clip-path="url(#clip0403)" style="stroke:#000000; stroke-width:4; stroke-opacity:1; fill:none" points="
  1369.95,621.84 1369.95,623.693 1425.78,623.693 1425.78,621.84 1369.95,621.84 
  "/>
<polygon clip-path="url(#clip0403)" points="
1425.78,623.693 1425.78,623.693 1481.61,623.693 1481.61,623.693 1425.78,623.693 1425.78,623.693 
  " fill="#000000" fill-rule="evenodd" fill-opacity="1"/>
<polyline clip-path="url(#clip0403)" style="stroke:#000000; stroke-width:4; stroke-opacity:1; fill:none" points="
  1425.78,623.693 1425.78,623.693 1481.61,623.693 1425.78,623.693 
  "/>
<polygon clip-path="url(#clip0403)" points="
1481.61,621.84 1481.61,623.693 1537.44,623.693 1537.44,621.84 1481.61,621.84 1481.61,621.84 
  " fill="#000000" fill-rule="evenodd" fill-opacity="1"/>
<polyline clip-path="url(#clip0403)" style="stroke:#000000; stroke-width:4; stroke-opacity:1; fill:none" points="
  1481.61,621.84 1481.61,623.693 1537.44,623.693 1537.44,621.84 1481.61,621.84 
  "/>
<polygon clip-path="url(#clip0403)" points="
1537.44,623.693 1537.44,623.693 1593.27,623.693 1593.27,623.693 1537.44,623.693 1537.44,623.693 
  " fill="#000000" fill-rule="evenodd" fill-opacity="1"/>
<polyline clip-path="url(#clip0403)" style="stroke:#000000; stroke-width:4; stroke-opacity:1; fill:none" points="
  1537.44,623.693 1537.44,623.693 1593.27,623.693 1537.44,623.693 
  "/>
<polygon clip-path="url(#clip0403)" points="
1593.27,623.693 1593.27,623.693 1649.1,623.693 1649.1,623.693 1593.27,623.693 1593.27,623.693 
  " fill="#000000" fill-rule="evenodd" fill-opacity="1"/>
<polyline clip-path="url(#clip0403)" style="stroke:#000000; stroke-width:4; stroke-opacity:1; fill:none" points="
  1593.27,623.693 1593.27,623.693 1649.1,623.693 1593.27,623.693 
  "/>
<polygon clip-path="url(#clip0403)" points="
1649.1,623.693 1649.1,623.693 1704.93,623.693 1704.93,623.693 1649.1,623.693 1649.1,623.693 
  " fill="#000000" fill-rule="evenodd" fill-opacity="1"/>
<polyline clip-path="url(#clip0403)" style="stroke:#000000; stroke-width:4; stroke-opacity:1; fill:none" points="
  1649.1,623.693 1649.1,623.693 1704.93,623.693 1649.1,623.693 
  "/>
<polygon clip-path="url(#clip0403)" points="
1704.93,623.693 1704.93,623.693 1760.76,623.693 1760.76,623.693 1704.93,623.693 1704.93,623.693 
  " fill="#000000" fill-rule="evenodd" fill-opacity="1"/>
<polyline clip-path="url(#clip0403)" style="stroke:#000000; stroke-width:4; stroke-opacity:1; fill:none" points="
  1704.93,623.693 1704.93,623.693 1760.76,623.693 1704.93,623.693 
  "/>
<polygon clip-path="url(#clip0403)" points="
1760.76,623.693 1760.76,623.693 1816.59,623.693 1816.59,623.693 1760.76,623.693 1760.76,623.693 
  " fill="#000000" fill-rule="evenodd" fill-opacity="1"/>
<polyline clip-path="url(#clip0403)" style="stroke:#000000; stroke-width:4; stroke-opacity:1; fill:none" points="
  1760.76,623.693 1760.76,623.693 1816.59,623.693 1760.76,623.693 
  "/>
<polygon clip-path="url(#clip0403)" points="
1816.59,623.693 1816.59,623.693 1872.42,623.693 1872.42,623.693 1816.59,623.693 1816.59,623.693 
  " fill="#000000" fill-rule="evenodd" fill-opacity="1"/>
<polyline clip-path="url(#clip0403)" style="stroke:#000000; stroke-width:4; stroke-opacity:1; fill:none" points="
  1816.59,623.693 1816.59,623.693 1872.42,623.693 1816.59,623.693 
  "/>
<polygon clip-path="url(#clip0403)" points="
1872.42,621.84 1872.42,623.693 1928.25,623.693 1928.25,621.84 1872.42,621.84 1872.42,621.84 
  " fill="#000000" fill-rule="evenodd" fill-opacity="1"/>
<polyline clip-path="url(#clip0403)" style="stroke:#000000; stroke-width:4; stroke-opacity:1; fill:none" points="
  1872.42,621.84 1872.42,623.693 1928.25,623.693 1928.25,621.84 1872.42,621.84 
  "/>
<polygon clip-path="url(#clip0401)" points="
251.149,1440.48 2321.26,1440.48 2321.26,847.244 251.149,847.244 
  " fill="#ffffff" fill-rule="evenodd" fill-opacity="1"/>
<defs>
  <clipPath id="clip0404">
    <rect x="251" y="847" width="2071" height="594"/>
  </clipPath>
</defs>
<polyline clip-path="url(#clip0404)" style="stroke:#000000; stroke-width:2; stroke-opacity:0.1; fill:none" points="
  365.008,1440.48 365.008,847.244 
  "/>
<polyline clip-path="url(#clip0404)" style="stroke:#000000; stroke-width:2; stroke-opacity:0.1; fill:none" points="
  923.309,1440.48 923.309,847.244 
  "/>
<polyline clip-path="url(#clip0404)" style="stroke:#000000; stroke-width:2; stroke-opacity:0.1; fill:none" points="
  1481.61,1440.48 1481.61,847.244 
  "/>
<polyline clip-path="url(#clip0404)" style="stroke:#000000; stroke-width:2; stroke-opacity:0.1; fill:none" points="
  2039.91,1440.48 2039.91,847.244 
  "/>
<polyline clip-path="url(#clip0404)" style="stroke:#000000; stroke-width:2; stroke-opacity:0.1; fill:none" points="
  251.149,1423.69 2321.26,1423.69 
  "/>
<polyline clip-path="url(#clip0404)" style="stroke:#000000; stroke-width:2; stroke-opacity:0.1; fill:none" points="
  251.149,1282.01 2321.26,1282.01 
  "/>
<polyline clip-path="url(#clip0404)" style="stroke:#000000; stroke-width:2; stroke-opacity:0.1; fill:none" points="
  251.149,1140.32 2321.26,1140.32 
  "/>
<polyline clip-path="url(#clip0404)" style="stroke:#000000; stroke-width:2; stroke-opacity:0.1; fill:none" points="
  251.149,998.635 2321.26,998.635 
  "/>
<polyline clip-path="url(#clip0404)" style="stroke:#000000; stroke-width:2; stroke-opacity:0.1; fill:none" points="
  251.149,856.95 2321.26,856.95 
  "/>
<polyline clip-path="url(#clip0401)" style="stroke:#000000; stroke-width:4; stroke-opacity:1; fill:none" points="
  251.149,1440.48 2321.26,1440.48 
  "/>
<polyline clip-path="url(#clip0401)" style="stroke:#000000; stroke-width:4; stroke-opacity:1; fill:none" points="
  251.149,1440.48 251.149,847.244 
  "/>
<polyline clip-path="url(#clip0401)" style="stroke:#000000; stroke-width:4; stroke-opacity:1; fill:none" points="
  365.008,1440.48 365.008,1431.58 
  "/>
<polyline clip-path="url(#clip0401)" style="stroke:#000000; stroke-width:4; stroke-opacity:1; fill:none" points="
  923.309,1440.48 923.309,1431.58 
  "/>
<polyline clip-path="url(#clip0401)" style="stroke:#000000; stroke-width:4; stroke-opacity:1; fill:none" points="
  1481.61,1440.48 1481.61,1431.58 
  "/>
<polyline clip-path="url(#clip0401)" style="stroke:#000000; stroke-width:4; stroke-opacity:1; fill:none" points="
  2039.91,1440.48 2039.91,1431.58 
  "/>
<polyline clip-path="url(#clip0401)" style="stroke:#000000; stroke-width:4; stroke-opacity:1; fill:none" points="
  251.149,1423.69 282.2,1423.69 
  "/>
<polyline clip-path="url(#clip0401)" style="stroke:#000000; stroke-width:4; stroke-opacity:1; fill:none" points="
  251.149,1282.01 282.2,1282.01 
  "/>
<polyline clip-path="url(#clip0401)" style="stroke:#000000; stroke-width:4; stroke-opacity:1; fill:none" points="
  251.149,1140.32 282.2,1140.32 
  "/>
<polyline clip-path="url(#clip0401)" style="stroke:#000000; stroke-width:4; stroke-opacity:1; fill:none" points="
  251.149,998.635 282.2,998.635 
  "/>
<polyline clip-path="url(#clip0401)" style="stroke:#000000; stroke-width:4; stroke-opacity:1; fill:none" points="
  251.149,856.95 282.2,856.95 
  "/>
<g clip-path="url(#clip0401)">
<text style="fill:#000000; fill-opacity:1; font-family:Arial,Helvetica Neue,Helvetica,sans-serif; font-size:48px; text-anchor:middle;" transform="rotate(0, 365.008, 1494.48)" x="365.008" y="1494.48">0</text>
</g>
<g clip-path="url(#clip0401)">
<text style="fill:#000000; fill-opacity:1; font-family:Arial,Helvetica Neue,Helvetica,sans-serif; font-size:48px; text-anchor:middle;" transform="rotate(0, 923.309, 1494.48)" x="923.309" y="1494.48">20</text>
</g>
<g clip-path="url(#clip0401)">
<text style="fill:#000000; fill-opacity:1; font-family:Arial,Helvetica Neue,Helvetica,sans-serif; font-size:48px; text-anchor:middle;" transform="rotate(0, 1481.61, 1494.48)" x="1481.61" y="1494.48">40</text>
</g>
<g clip-path="url(#clip0401)">
<text style="fill:#000000; fill-opacity:1; font-family:Arial,Helvetica Neue,Helvetica,sans-serif; font-size:48px; text-anchor:middle;" transform="rotate(0, 2039.91, 1494.48)" x="2039.91" y="1494.48">60</text>
</g>
<g clip-path="url(#clip0401)">
<text style="fill:#000000; fill-opacity:1; font-family:Arial,Helvetica Neue,Helvetica,sans-serif; font-size:48px; text-anchor:end;" transform="rotate(0, 227.149, 1441.19)" x="227.149" y="1441.19">0.00</text>
</g>
<g clip-path="url(#clip0401)">
<text style="fill:#000000; fill-opacity:1; font-family:Arial,Helvetica Neue,Helvetica,sans-serif; font-size:48px; text-anchor:end;" transform="rotate(0, 227.149, 1299.51)" x="227.149" y="1299.51">0.02</text>
</g>
<g clip-path="url(#clip0401)">
<text style="fill:#000000; fill-opacity:1; font-family:Arial,Helvetica Neue,Helvetica,sans-serif; font-size:48px; text-anchor:end;" transform="rotate(0, 227.149, 1157.82)" x="227.149" y="1157.82">0.04</text>
</g>
<g clip-path="url(#clip0401)">
<text style="fill:#000000; fill-opacity:1; font-family:Arial,Helvetica Neue,Helvetica,sans-serif; font-size:48px; text-anchor:end;" transform="rotate(0, 227.149, 1016.14)" x="227.149" y="1016.14">0.06</text>
</g>
<g clip-path="url(#clip0401)">
<text style="fill:#000000; fill-opacity:1; font-family:Arial,Helvetica Neue,Helvetica,sans-serif; font-size:48px; text-anchor:end;" transform="rotate(0, 227.149, 874.45)" x="227.149" y="874.45">0.08</text>
</g>
<g clip-path="url(#clip0401)">
<text style="fill:#000000; fill-opacity:1; font-family:Arial,Helvetica Neue,Helvetica,sans-serif; font-size:66px; text-anchor:middle;" transform="rotate(0, 1286.2, 1590.4)" x="1286.2" y="1590.4">value</text>
</g>
<g clip-path="url(#clip0401)">
<text style="fill:#000000; fill-opacity:1; font-family:Arial,Helvetica Neue,Helvetica,sans-serif; font-size:66px; text-anchor:middle;" transform="rotate(-90, 57.6, 1143.86)" x="57.6" y="1143.86">density</text>
</g>
<polygon clip-path="url(#clip0404)" points="
365.008,1202.66 365.008,1423.69 392.923,1423.69 392.923,1202.66 365.008,1202.66 365.008,1202.66 
  " fill="#0000ff" fill-rule="evenodd" fill-opacity="1"/>
<polyline clip-path="url(#clip0404)" style="stroke:#0000ff; stroke-width:4; stroke-opacity:1; fill:none" points="
  365.008,1202.66 365.008,1423.69 392.923,1423.69 392.923,1202.66 365.008,1202.66 
  "/>
<polygon clip-path="url(#clip0404)" points="
392.923,960.38 392.923,1423.69 420.838,1423.69 420.838,960.38 392.923,960.38 392.923,960.38 
  " fill="#0000ff" fill-rule="evenodd" fill-opacity="1"/>
<polyline clip-path="url(#clip0404)" style="stroke:#0000ff; stroke-width:4; stroke-opacity:1; fill:none" points="
  392.923,960.38 392.923,1423.69 420.838,1423.69 420.838,960.38 392.923,960.38 
  "/>
<polygon clip-path="url(#clip0404)" points="
420.838,890.246 420.838,1423.69 448.753,1423.69 448.753,890.246 420.838,890.246 420.838,890.246 
  " fill="#0000ff" fill-rule="evenodd" fill-opacity="1"/>
<polyline clip-path="url(#clip0404)" style="stroke:#0000ff; stroke-width:4; stroke-opacity:1; fill:none" points="
  420.838,890.246 420.838,1423.69 448.753,1423.69 448.753,890.246 420.838,890.246 
  "/>
<polygon clip-path="url(#clip0404)" points="
448.753,881.036 448.753,1423.69 476.668,1423.69 476.668,881.036 448.753,881.036 448.753,881.036 
  " fill="#0000ff" fill-rule="evenodd" fill-opacity="1"/>
<polyline clip-path="url(#clip0404)" style="stroke:#0000ff; stroke-width:4; stroke-opacity:1; fill:none" points="
  448.753,881.036 448.753,1423.69 476.668,1423.69 476.668,881.036 448.753,881.036 
  "/>
<polygon clip-path="url(#clip0404)" points="
476.668,876.077 476.668,1423.69 504.583,1423.69 504.583,876.077 476.668,876.077 476.668,876.077 
  " fill="#0000ff" fill-rule="evenodd" fill-opacity="1"/>
<polyline clip-path="url(#clip0404)" style="stroke:#0000ff; stroke-width:4; stroke-opacity:1; fill:none" points="
  476.668,876.077 476.668,1423.69 504.583,1423.69 504.583,876.077 476.668,876.077 
  "/>
<polygon clip-path="url(#clip0404)" points="
504.583,864.034 504.583,1423.69 532.498,1423.69 532.498,864.034 504.583,864.034 504.583,864.034 
  " fill="#0000ff" fill-rule="evenodd" fill-opacity="1"/>
<polyline clip-path="url(#clip0404)" style="stroke:#0000ff; stroke-width:4; stroke-opacity:1; fill:none" points="
  504.583,864.034 504.583,1423.69 532.498,1423.69 532.498,864.034 504.583,864.034 
  "/>
<polygon clip-path="url(#clip0404)" points="
532.498,946.212 532.498,1423.69 560.413,1423.69 560.413,946.212 532.498,946.212 532.498,946.212 
  " fill="#0000ff" fill-rule="evenodd" fill-opacity="1"/>
<polyline clip-path="url(#clip0404)" style="stroke:#0000ff; stroke-width:4; stroke-opacity:1; fill:none" points="
  532.498,946.212 532.498,1423.69 560.413,1423.69 560.413,946.212 532.498,946.212 
  "/>
<polygon clip-path="url(#clip0404)" points="
560.413,971.007 560.413,1423.69 588.329,1423.69 588.329,971.007 560.413,971.007 560.413,971.007 
  " fill="#0000ff" fill-rule="evenodd" fill-opacity="1"/>
<polyline clip-path="url(#clip0404)" style="stroke:#0000ff; stroke-width:4; stroke-opacity:1; fill:none" points="
  560.413,971.007 560.413,1423.69 588.329,1423.69 588.329,971.007 560.413,971.007 
  "/>
<polygon clip-path="url(#clip0404)" points="
588.329,995.093 588.329,1423.69 616.244,1423.69 616.244,995.093 588.329,995.093 588.329,995.093 
  " fill="#0000ff" fill-rule="evenodd" fill-opacity="1"/>
<polyline clip-path="url(#clip0404)" style="stroke:#0000ff; stroke-width:4; stroke-opacity:1; fill:none" points="
  588.329,995.093 588.329,1423.69 616.244,1423.69 616.244,995.093 588.329,995.093 
  "/>
<polygon clip-path="url(#clip0404)" points="
616.244,1060.27 616.244,1423.69 644.159,1423.69 644.159,1060.27 616.244,1060.27 616.244,1060.27 
  " fill="#0000ff" fill-rule="evenodd" fill-opacity="1"/>
<polyline clip-path="url(#clip0404)" style="stroke:#0000ff; stroke-width:4; stroke-opacity:1; fill:none" points="
  616.244,1060.27 616.244,1423.69 644.159,1423.69 644.159,1060.27 616.244,1060.27 
  "/>
<polygon clip-path="url(#clip0404)" points="
644.159,1111.98 644.159,1423.69 672.074,1423.69 672.074,1111.98 644.159,1111.98 644.159,1111.98 
  " fill="#0000ff" fill-rule="evenodd" fill-opacity="1"/>
<polyline clip-path="url(#clip0404)" style="stroke:#0000ff; stroke-width:4; stroke-opacity:1; fill:none" points="
  644.159,1111.98 644.159,1423.69 672.074,1423.69 672.074,1111.98 644.159,1111.98 
  "/>
<polygon clip-path="url(#clip0404)" points="
672.074,1102.77 672.074,1423.69 699.989,1423.69 699.989,1102.77 672.074,1102.77 672.074,1102.77 
  " fill="#0000ff" fill-rule="evenodd" fill-opacity="1"/>
<polyline clip-path="url(#clip0404)" style="stroke:#0000ff; stroke-width:4; stroke-opacity:1; fill:none" points="
  672.074,1102.77 672.074,1423.69 699.989,1423.69 699.989,1102.77 672.074,1102.77 
  "/>
<polygon clip-path="url(#clip0404)" points="
699.989,1160.16 699.989,1423.69 727.904,1423.69 727.904,1160.16 699.989,1160.16 699.989,1160.16 
  " fill="#0000ff" fill-rule="evenodd" fill-opacity="1"/>
<polyline clip-path="url(#clip0404)" style="stroke:#0000ff; stroke-width:4; stroke-opacity:1; fill:none" points="
  699.989,1160.16 699.989,1423.69 727.904,1423.69 727.904,1160.16 699.989,1160.16 
  "/>
<polygon clip-path="url(#clip0404)" points="
727.904,1212.58 727.904,1423.69 755.819,1423.69 755.819,1212.58 727.904,1212.58 727.904,1212.58 
  " fill="#0000ff" fill-rule="evenodd" fill-opacity="1"/>
<polyline clip-path="url(#clip0404)" style="stroke:#0000ff; stroke-width:4; stroke-opacity:1; fill:none" points="
  727.904,1212.58 727.904,1423.69 755.819,1423.69 755.819,1212.58 727.904,1212.58 
  "/>
<polygon clip-path="url(#clip0404)" points="
755.819,1228.87 755.819,1423.69 783.734,1423.69 783.734,1228.87 755.819,1228.87 755.819,1228.87 
  " fill="#0000ff" fill-rule="evenodd" fill-opacity="1"/>
<polyline clip-path="url(#clip0404)" style="stroke:#0000ff; stroke-width:4; stroke-opacity:1; fill:none" points="
  755.819,1228.87 755.819,1423.69 783.734,1423.69 783.734,1228.87 755.819,1228.87 
  "/>
<polygon clip-path="url(#clip0404)" points="
783.734,1265 783.734,1423.69 811.649,1423.69 811.649,1265 783.734,1265 783.734,1265 
  " fill="#0000ff" fill-rule="evenodd" fill-opacity="1"/>
<polyline clip-path="url(#clip0404)" style="stroke:#0000ff; stroke-width:4; stroke-opacity:1; fill:none" points="
  783.734,1265 783.734,1423.69 811.649,1423.69 811.649,1265 783.734,1265 
  "/>
<polygon clip-path="url(#clip0404)" points="
811.649,1279.17 811.649,1423.69 839.564,1423.69 839.564,1279.17 811.649,1279.17 811.649,1279.17 
  " fill="#0000ff" fill-rule="evenodd" fill-opacity="1"/>
<polyline clip-path="url(#clip0404)" style="stroke:#0000ff; stroke-width:4; stroke-opacity:1; fill:none" points="
  811.649,1279.17 811.649,1423.69 839.564,1423.69 839.564,1279.17 811.649,1279.17 
  "/>
<polygon clip-path="url(#clip0404)" points="
839.564,1299.72 839.564,1423.69 867.479,1423.69 867.479,1299.72 839.564,1299.72 839.564,1299.72 
  " fill="#0000ff" fill-rule="evenodd" fill-opacity="1"/>
<polyline clip-path="url(#clip0404)" style="stroke:#0000ff; stroke-width:4; stroke-opacity:1; fill:none" points="
  839.564,1299.72 839.564,1423.69 867.479,1423.69 867.479,1299.72 839.564,1299.72 
  "/>
<polygon clip-path="url(#clip0404)" points="
867.479,1305.39 867.479,1423.69 895.394,1423.69 895.394,1305.39 867.479,1305.39 867.479,1305.39 
  " fill="#0000ff" fill-rule="evenodd" fill-opacity="1"/>
<polyline clip-path="url(#clip0404)" style="stroke:#0000ff; stroke-width:4; stroke-opacity:1; fill:none" points="
  867.479,1305.39 867.479,1423.69 895.394,1423.69 895.394,1305.39 867.479,1305.39 
  "/>
<polygon clip-path="url(#clip0404)" points="
895.394,1333.01 895.394,1423.69 923.309,1423.69 923.309,1333.01 895.394,1333.01 895.394,1333.01 
  " fill="#0000ff" fill-rule="evenodd" fill-opacity="1"/>
<polyline clip-path="url(#clip0404)" style="stroke:#0000ff; stroke-width:4; stroke-opacity:1; fill:none" points="
  895.394,1333.01 895.394,1423.69 923.309,1423.69 923.309,1333.01 895.394,1333.01 
  "/>
<polygon clip-path="url(#clip0404)" points="
923.309,1341.52 923.309,1423.69 951.224,1423.69 951.224,1341.52 923.309,1341.52 923.309,1341.52 
  " fill="#0000ff" fill-rule="evenodd" fill-opacity="1"/>
<polyline clip-path="url(#clip0404)" style="stroke:#0000ff; stroke-width:4; stroke-opacity:1; fill:none" points="
  923.309,1341.52 923.309,1423.69 951.224,1423.69 951.224,1341.52 923.309,1341.52 
  "/>
<polygon clip-path="url(#clip0404)" points="
951.224,1350.72 951.224,1423.69 979.139,1423.69 979.139,1350.72 951.224,1350.72 951.224,1350.72 
  " fill="#0000ff" fill-rule="evenodd" fill-opacity="1"/>
<polyline clip-path="url(#clip0404)" style="stroke:#0000ff; stroke-width:4; stroke-opacity:1; fill:none" points="
  951.224,1350.72 951.224,1423.69 979.139,1423.69 979.139,1350.72 951.224,1350.72 
  "/>
<polygon clip-path="url(#clip0404)" points="
979.139,1364.89 979.139,1423.69 1007.05,1423.69 1007.05,1364.89 979.139,1364.89 979.139,1364.89 
  " fill="#0000ff" fill-rule="evenodd" fill-opacity="1"/>
<polyline clip-path="url(#clip0404)" style="stroke:#0000ff; stroke-width:4; stroke-opacity:1; fill:none" points="
  979.139,1364.89 979.139,1423.69 1007.05,1423.69 1007.05,1364.89 979.139,1364.89 
  "/>
<polygon clip-path="url(#clip0404)" points="
1007.05,1371.98 1007.05,1423.69 1034.97,1423.69 1034.97,1371.98 1007.05,1371.98 1007.05,1371.98 
  " fill="#0000ff" fill-rule="evenodd" fill-opacity="1"/>
<polyline clip-path="url(#clip0404)" style="stroke:#0000ff; stroke-width:4; stroke-opacity:1; fill:none" points="
  1007.05,1371.98 1007.05,1423.69 1034.97,1423.69 1034.97,1371.98 1007.05,1371.98 
  "/>
<polygon clip-path="url(#clip0404)" points="
1034.97,1371.98 1034.97,1423.69 1062.88,1423.69 1062.88,1371.98 1034.97,1371.98 1034.97,1371.98 
  " fill="#0000ff" fill-rule="evenodd" fill-opacity="1"/>
<polyline clip-path="url(#clip0404)" style="stroke:#0000ff; stroke-width:4; stroke-opacity:1; fill:none" points="
  1034.97,1371.98 1034.97,1423.69 1062.88,1423.69 1062.88,1371.98 1034.97,1371.98 
  "/>
<polygon clip-path="url(#clip0404)" points="
1062.88,1386.85 1062.88,1423.69 1090.8,1423.69 1090.8,1386.85 1062.88,1386.85 1062.88,1386.85 
  " fill="#0000ff" fill-rule="evenodd" fill-opacity="1"/>
<polyline clip-path="url(#clip0404)" style="stroke:#0000ff; stroke-width:4; stroke-opacity:1; fill:none" points="
  1062.88,1386.85 1062.88,1423.69 1090.8,1423.69 1090.8,1386.85 1062.88,1386.85 
  "/>
<polygon clip-path="url(#clip0404)" points="
1090.8,1391.81 1090.8,1423.69 1118.71,1423.69 1118.71,1391.81 1090.8,1391.81 1090.8,1391.81 
  " fill="#0000ff" fill-rule="evenodd" fill-opacity="1"/>
<polyline clip-path="url(#clip0404)" style="stroke:#0000ff; stroke-width:4; stroke-opacity:1; fill:none" points="
  1090.8,1391.81 1090.8,1423.69 1118.71,1423.69 1118.71,1391.81 1090.8,1391.81 
  "/>
<polygon clip-path="url(#clip0404)" points="
1118.71,1396.77 1118.71,1423.69 1146.63,1423.69 1146.63,1396.77 1118.71,1396.77 1118.71,1396.77 
  " fill="#0000ff" fill-rule="evenodd" fill-opacity="1"/>
<polyline clip-path="url(#clip0404)" style="stroke:#0000ff; stroke-width:4; stroke-opacity:1; fill:none" points="
  1118.71,1396.77 1118.71,1423.69 1146.63,1423.69 1146.63,1396.77 1118.71,1396.77 
  "/>
<polygon clip-path="url(#clip0404)" points="
1146.63,1403.15 1146.63,1423.69 1174.54,1423.69 1174.54,1403.15 1146.63,1403.15 1146.63,1403.15 
  " fill="#0000ff" fill-rule="evenodd" fill-opacity="1"/>
<polyline clip-path="url(#clip0404)" style="stroke:#0000ff; stroke-width:4; stroke-opacity:1; fill:none" points="
  1146.63,1403.15 1146.63,1423.69 1174.54,1423.69 1174.54,1403.15 1146.63,1403.15 
  "/>
<polygon clip-path="url(#clip0404)" points="
1174.54,1401.73 1174.54,1423.69 1202.46,1423.69 1202.46,1401.73 1174.54,1401.73 1174.54,1401.73 
  " fill="#0000ff" fill-rule="evenodd" fill-opacity="1"/>
<polyline clip-path="url(#clip0404)" style="stroke:#0000ff; stroke-width:4; stroke-opacity:1; fill:none" points="
  1174.54,1401.73 1174.54,1423.69 1202.46,1423.69 1202.46,1401.73 1174.54,1401.73 
  "/>
<polygon clip-path="url(#clip0404)" points="
1202.46,1407.4 1202.46,1423.69 1230.37,1423.69 1230.37,1407.4 1202.46,1407.4 1202.46,1407.4 
  " fill="#0000ff" fill-rule="evenodd" fill-opacity="1"/>
<polyline clip-path="url(#clip0404)" style="stroke:#0000ff; stroke-width:4; stroke-opacity:1; fill:none" points="
  1202.46,1407.4 1202.46,1423.69 1230.37,1423.69 1230.37,1407.4 1202.46,1407.4 
  "/>
<polygon clip-path="url(#clip0404)" points="
1230.37,1410.23 1230.37,1423.69 1258.29,1423.69 1258.29,1410.23 1230.37,1410.23 1230.37,1410.23 
  " fill="#0000ff" fill-rule="evenodd" fill-opacity="1"/>
<polyline clip-path="url(#clip0404)" style="stroke:#0000ff; stroke-width:4; stroke-opacity:1; fill:none" points="
  1230.37,1410.23 1230.37,1423.69 1258.29,1423.69 1258.29,1410.23 1230.37,1410.23 
  "/>
<polygon clip-path="url(#clip0404)" points="
1258.29,1413.07 1258.29,1423.69 1286.2,1423.69 1286.2,1413.07 1258.29,1413.07 1258.29,1413.07 
  " fill="#0000ff" fill-rule="evenodd" fill-opacity="1"/>
<polyline clip-path="url(#clip0404)" style="stroke:#0000ff; stroke-width:4; stroke-opacity:1; fill:none" points="
  1258.29,1413.07 1258.29,1423.69 1286.2,1423.69 1286.2,1413.07 1258.29,1413.07 
  "/>
<polygon clip-path="url(#clip0404)" points="
1286.2,1413.07 1286.2,1423.69 1314.12,1423.69 1314.12,1413.07 1286.2,1413.07 1286.2,1413.07 
  " fill="#0000ff" fill-rule="evenodd" fill-opacity="1"/>
<polyline clip-path="url(#clip0404)" style="stroke:#0000ff; stroke-width:4; stroke-opacity:1; fill:none" points="
  1286.2,1413.07 1286.2,1423.69 1314.12,1423.69 1314.12,1413.07 1286.2,1413.07 
  "/>
<polygon clip-path="url(#clip0404)" points="
1314.12,1410.94 1314.12,1423.69 1342.03,1423.69 1342.03,1410.94 1314.12,1410.94 1314.12,1410.94 
  " fill="#0000ff" fill-rule="evenodd" fill-opacity="1"/>
<polyline clip-path="url(#clip0404)" style="stroke:#0000ff; stroke-width:4; stroke-opacity:1; fill:none" points="
  1314.12,1410.94 1314.12,1423.69 1342.03,1423.69 1342.03,1410.94 1314.12,1410.94 
  "/>
<polygon clip-path="url(#clip0404)" points="
1342.03,1420.15 1342.03,1423.69 1369.95,1423.69 1369.95,1420.15 1342.03,1420.15 1342.03,1420.15 
  " fill="#0000ff" fill-rule="evenodd" fill-opacity="1"/>
<polyline clip-path="url(#clip0404)" style="stroke:#0000ff; stroke-width:4; stroke-opacity:1; fill:none" points="
  1342.03,1420.15 1342.03,1423.69 1369.95,1423.69 1369.95,1420.15 1342.03,1420.15 
  "/>
<polygon clip-path="url(#clip0404)" points="
1369.95,1420.86 1369.95,1423.69 1397.86,1423.69 1397.86,1420.86 1369.95,1420.86 1369.95,1420.86 
  " fill="#0000ff" fill-rule="evenodd" fill-opacity="1"/>
<polyline clip-path="url(#clip0404)" style="stroke:#0000ff; stroke-width:4; stroke-opacity:1; fill:none" points="
  1369.95,1420.86 1369.95,1423.69 1397.86,1423.69 1397.86,1420.86 1369.95,1420.86 
  "/>
<polygon clip-path="url(#clip0404)" points="
1397.86,1418.03 1397.86,1423.69 1425.78,1423.69 1425.78,1418.03 1397.86,1418.03 1397.86,1418.03 
  " fill="#0000ff" fill-rule="evenodd" fill-opacity="1"/>
<polyline clip-path="url(#clip0404)" style="stroke:#0000ff; stroke-width:4; stroke-opacity:1; fill:none" points="
  1397.86,1418.03 1397.86,1423.69 1425.78,1423.69 1425.78,1418.03 1397.86,1418.03 
  "/>
<polygon clip-path="url(#clip0404)" points="
1425.78,1419.44 1425.78,1423.69 1453.69,1423.69 1453.69,1419.44 1425.78,1419.44 1425.78,1419.44 
  " fill="#0000ff" fill-rule="evenodd" fill-opacity="1"/>
<polyline clip-path="url(#clip0404)" style="stroke:#0000ff; stroke-width:4; stroke-opacity:1; fill:none" points="
  1425.78,1419.44 1425.78,1423.69 1453.69,1423.69 1453.69,1419.44 1425.78,1419.44 
  "/>
<polygon clip-path="url(#clip0404)" points="
1453.69,1421.57 1453.69,1423.69 1481.61,1423.69 1481.61,1421.57 1453.69,1421.57 1453.69,1421.57 
  " fill="#0000ff" fill-rule="evenodd" fill-opacity="1"/>
<polyline clip-path="url(#clip0404)" style="stroke:#0000ff; stroke-width:4; stroke-opacity:1; fill:none" points="
  1453.69,1421.57 1453.69,1423.69 1481.61,1423.69 1481.61,1421.57 1453.69,1421.57 
  "/>
<polygon clip-path="url(#clip0404)" points="
1481.61,1421.57 1481.61,1423.69 1509.52,1423.69 1509.52,1421.57 1481.61,1421.57 1481.61,1421.57 
  " fill="#0000ff" fill-rule="evenodd" fill-opacity="1"/>
<polyline clip-path="url(#clip0404)" style="stroke:#0000ff; stroke-width:4; stroke-opacity:1; fill:none" points="
  1481.61,1421.57 1481.61,1423.69 1509.52,1423.69 1509.52,1421.57 1481.61,1421.57 
  "/>
<polygon clip-path="url(#clip0404)" points="
1509.52,1420.15 1509.52,1423.69 1537.44,1423.69 1537.44,1420.15 1509.52,1420.15 1509.52,1420.15 
  " fill="#0000ff" fill-rule="evenodd" fill-opacity="1"/>
<polyline clip-path="url(#clip0404)" style="stroke:#0000ff; stroke-width:4; stroke-opacity:1; fill:none" points="
  1509.52,1420.15 1509.52,1423.69 1537.44,1423.69 1537.44,1420.15 1509.52,1420.15 
  "/>
<polygon clip-path="url(#clip0404)" points="
1537.44,1420.86 1537.44,1423.69 1565.35,1423.69 1565.35,1420.86 1537.44,1420.86 1537.44,1420.86 
  " fill="#0000ff" fill-rule="evenodd" fill-opacity="1"/>
<polyline clip-path="url(#clip0404)" style="stroke:#0000ff; stroke-width:4; stroke-opacity:1; fill:none" points="
  1537.44,1420.86 1537.44,1423.69 1565.35,1423.69 1565.35,1420.86 1537.44,1420.86 
  "/>
<polygon clip-path="url(#clip0404)" points="
1565.35,1423.69 1565.35,1423.69 1593.27,1423.69 1593.27,1423.69 1565.35,1423.69 1565.35,1423.69 
  " fill="#0000ff" fill-rule="evenodd" fill-opacity="1"/>
<polyline clip-path="url(#clip0404)" style="stroke:#0000ff; stroke-width:4; stroke-opacity:1; fill:none" points="
  1565.35,1423.69 1565.35,1423.69 1593.27,1423.69 1565.35,1423.69 
  "/>
<polygon clip-path="url(#clip0404)" points="
1593.27,1421.57 1593.27,1423.69 1621.18,1423.69 1621.18,1421.57 1593.27,1421.57 1593.27,1421.57 
  " fill="#0000ff" fill-rule="evenodd" fill-opacity="1"/>
<polyline clip-path="url(#clip0404)" style="stroke:#0000ff; stroke-width:4; stroke-opacity:1; fill:none" points="
  1593.27,1421.57 1593.27,1423.69 1621.18,1423.69 1621.18,1421.57 1593.27,1421.57 
  "/>
<polygon clip-path="url(#clip0404)" points="
1621.18,1422.98 1621.18,1423.69 1649.1,1423.69 1649.1,1422.98 1621.18,1422.98 1621.18,1422.98 
  " fill="#0000ff" fill-rule="evenodd" fill-opacity="1"/>
<polyline clip-path="url(#clip0404)" style="stroke:#0000ff; stroke-width:4; stroke-opacity:1; fill:none" points="
  1621.18,1422.98 1621.18,1423.69 1649.1,1423.69 1649.1,1422.98 1621.18,1422.98 
  "/>
<polygon clip-path="url(#clip0404)" points="
1649.1,1422.28 1649.1,1423.69 1677.01,1423.69 1677.01,1422.28 1649.1,1422.28 1649.1,1422.28 
  " fill="#0000ff" fill-rule="evenodd" fill-opacity="1"/>
<polyline clip-path="url(#clip0404)" style="stroke:#0000ff; stroke-width:4; stroke-opacity:1; fill:none" points="
  1649.1,1422.28 1649.1,1423.69 1677.01,1423.69 1677.01,1422.28 1649.1,1422.28 
  "/>
<polygon clip-path="url(#clip0404)" points="
1677.01,1423.69 1677.01,1423.69 1704.93,1423.69 1704.93,1423.69 1677.01,1423.69 1677.01,1423.69 
  " fill="#0000ff" fill-rule="evenodd" fill-opacity="1"/>
<polyline clip-path="url(#clip0404)" style="stroke:#0000ff; stroke-width:4; stroke-opacity:1; fill:none" points="
  1677.01,1423.69 1677.01,1423.69 1704.93,1423.69 1677.01,1423.69 
  "/>
<polygon clip-path="url(#clip0404)" points="
1704.93,1423.69 1704.93,1423.69 1732.84,1423.69 1732.84,1423.69 1704.93,1423.69 1704.93,1423.69 
  " fill="#0000ff" fill-rule="evenodd" fill-opacity="1"/>
<polyline clip-path="url(#clip0404)" style="stroke:#0000ff; stroke-width:4; stroke-opacity:1; fill:none" points="
  1704.93,1423.69 1704.93,1423.69 1732.84,1423.69 1704.93,1423.69 
  "/>
<polygon clip-path="url(#clip0404)" points="
1732.84,1423.69 1732.84,1423.69 1760.76,1423.69 1760.76,1423.69 1732.84,1423.69 1732.84,1423.69 
  " fill="#0000ff" fill-rule="evenodd" fill-opacity="1"/>
<polyline clip-path="url(#clip0404)" style="stroke:#0000ff; stroke-width:4; stroke-opacity:1; fill:none" points="
  1732.84,1423.69 1732.84,1423.69 1760.76,1423.69 1732.84,1423.69 
  "/>
<polygon clip-path="url(#clip0404)" points="
1760.76,1422.98 1760.76,1423.69 1788.67,1423.69 1788.67,1422.98 1760.76,1422.98 1760.76,1422.98 
  " fill="#0000ff" fill-rule="evenodd" fill-opacity="1"/>
<polyline clip-path="url(#clip0404)" style="stroke:#0000ff; stroke-width:4; stroke-opacity:1; fill:none" points="
  1760.76,1422.98 1760.76,1423.69 1788.67,1423.69 1788.67,1422.98 1760.76,1422.98 
  "/>
<polygon clip-path="url(#clip0404)" points="
1788.67,1422.98 1788.67,1423.69 1816.59,1423.69 1816.59,1422.98 1788.67,1422.98 1788.67,1422.98 
  " fill="#0000ff" fill-rule="evenodd" fill-opacity="1"/>
<polyline clip-path="url(#clip0404)" style="stroke:#0000ff; stroke-width:4; stroke-opacity:1; fill:none" points="
  1788.67,1422.98 1788.67,1423.69 1816.59,1423.69 1816.59,1422.98 1788.67,1422.98 
  "/>
<polygon clip-path="url(#clip0404)" points="
1816.59,1422.98 1816.59,1423.69 1844.5,1423.69 1844.5,1422.98 1816.59,1422.98 1816.59,1422.98 
  " fill="#0000ff" fill-rule="evenodd" fill-opacity="1"/>
<polyline clip-path="url(#clip0404)" style="stroke:#0000ff; stroke-width:4; stroke-opacity:1; fill:none" points="
  1816.59,1422.98 1816.59,1423.69 1844.5,1423.69 1844.5,1422.98 1816.59,1422.98 
  "/>
<polygon clip-path="url(#clip0404)" points="
1844.5,1422.98 1844.5,1423.69 1872.42,1423.69 1872.42,1422.98 1844.5,1422.98 1844.5,1422.98 
  " fill="#0000ff" fill-rule="evenodd" fill-opacity="1"/>
<polyline clip-path="url(#clip0404)" style="stroke:#0000ff; stroke-width:4; stroke-opacity:1; fill:none" points="
  1844.5,1422.98 1844.5,1423.69 1872.42,1423.69 1872.42,1422.98 1844.5,1422.98 
  "/>
<polygon clip-path="url(#clip0404)" points="
1872.42,1423.69 1872.42,1423.69 1900.33,1423.69 1900.33,1423.69 1872.42,1423.69 1872.42,1423.69 
  " fill="#0000ff" fill-rule="evenodd" fill-opacity="1"/>
<polyline clip-path="url(#clip0404)" style="stroke:#0000ff; stroke-width:4; stroke-opacity:1; fill:none" points="
  1872.42,1423.69 1872.42,1423.69 1900.33,1423.69 1872.42,1423.69 
  "/>
<polygon clip-path="url(#clip0404)" points="
1900.33,1423.69 1900.33,1423.69 1928.25,1423.69 1928.25,1423.69 1900.33,1423.69 1900.33,1423.69 
  " fill="#0000ff" fill-rule="evenodd" fill-opacity="1"/>
<polyline clip-path="url(#clip0404)" style="stroke:#0000ff; stroke-width:4; stroke-opacity:1; fill:none" points="
  1900.33,1423.69 1900.33,1423.69 1928.25,1423.69 1900.33,1423.69 
  "/>
<polygon clip-path="url(#clip0404)" points="
1928.25,1422.28 1928.25,1423.69 1956.16,1423.69 1956.16,1422.28 1928.25,1422.28 1928.25,1422.28 
  " fill="#0000ff" fill-rule="evenodd" fill-opacity="1"/>
<polyline clip-path="url(#clip0404)" style="stroke:#0000ff; stroke-width:4; stroke-opacity:1; fill:none" points="
  1928.25,1422.28 1928.25,1423.69 1956.16,1423.69 1956.16,1422.28 1928.25,1422.28 
  "/>
<polygon clip-path="url(#clip0404)" points="
1956.16,1423.69 1956.16,1423.69 1984.08,1423.69 1984.08,1423.69 1956.16,1423.69 1956.16,1423.69 
  " fill="#0000ff" fill-rule="evenodd" fill-opacity="1"/>
<polyline clip-path="url(#clip0404)" style="stroke:#0000ff; stroke-width:4; stroke-opacity:1; fill:none" points="
  1956.16,1423.69 1956.16,1423.69 1984.08,1423.69 1956.16,1423.69 
  "/>
<polygon clip-path="url(#clip0404)" points="
1984.08,1423.69 1984.08,1423.69 2011.99,1423.69 2011.99,1423.69 1984.08,1423.69 1984.08,1423.69 
  " fill="#0000ff" fill-rule="evenodd" fill-opacity="1"/>
<polyline clip-path="url(#clip0404)" style="stroke:#0000ff; stroke-width:4; stroke-opacity:1; fill:none" points="
  1984.08,1423.69 1984.08,1423.69 2011.99,1423.69 1984.08,1423.69 
  "/>
<polygon clip-path="url(#clip0404)" points="
2011.99,1422.98 2011.99,1423.69 2039.91,1423.69 2039.91,1422.98 2011.99,1422.98 2011.99,1422.98 
  " fill="#0000ff" fill-rule="evenodd" fill-opacity="1"/>
<polyline clip-path="url(#clip0404)" style="stroke:#0000ff; stroke-width:4; stroke-opacity:1; fill:none" points="
  2011.99,1422.98 2011.99,1423.69 2039.91,1423.69 2039.91,1422.98 2011.99,1422.98 
  "/>
<polygon clip-path="url(#clip0404)" points="
2039.91,1423.69 2039.91,1423.69 2067.82,1423.69 2067.82,1423.69 2039.91,1423.69 2039.91,1423.69 
  " fill="#0000ff" fill-rule="evenodd" fill-opacity="1"/>
<polyline clip-path="url(#clip0404)" style="stroke:#0000ff; stroke-width:4; stroke-opacity:1; fill:none" points="
  2039.91,1423.69 2039.91,1423.69 2067.82,1423.69 2039.91,1423.69 
  "/>
<polygon clip-path="url(#clip0404)" points="
2067.82,1423.69 2067.82,1423.69 2095.74,1423.69 2095.74,1423.69 2067.82,1423.69 2067.82,1423.69 
  " fill="#0000ff" fill-rule="evenodd" fill-opacity="1"/>
<polyline clip-path="url(#clip0404)" style="stroke:#0000ff; stroke-width:4; stroke-opacity:1; fill:none" points="
  2067.82,1423.69 2067.82,1423.69 2095.74,1423.69 2067.82,1423.69 
  "/>
<polygon clip-path="url(#clip0404)" points="
2095.74,1423.69 2095.74,1423.69 2123.65,1423.69 2123.65,1423.69 2095.74,1423.69 2095.74,1423.69 
  " fill="#0000ff" fill-rule="evenodd" fill-opacity="1"/>
<polyline clip-path="url(#clip0404)" style="stroke:#0000ff; stroke-width:4; stroke-opacity:1; fill:none" points="
  2095.74,1423.69 2095.74,1423.69 2123.65,1423.69 2095.74,1423.69 
  "/>
<polygon clip-path="url(#clip0404)" points="
2123.65,1423.69 2123.65,1423.69 2151.57,1423.69 2151.57,1423.69 2123.65,1423.69 2123.65,1423.69 
  " fill="#0000ff" fill-rule="evenodd" fill-opacity="1"/>
<polyline clip-path="url(#clip0404)" style="stroke:#0000ff; stroke-width:4; stroke-opacity:1; fill:none" points="
  2123.65,1423.69 2123.65,1423.69 2151.57,1423.69 2123.65,1423.69 
  "/>
<polygon clip-path="url(#clip0404)" points="
2151.57,1423.69 2151.57,1423.69 2179.49,1423.69 2179.49,1423.69 2151.57,1423.69 2151.57,1423.69 
  " fill="#0000ff" fill-rule="evenodd" fill-opacity="1"/>
<polyline clip-path="url(#clip0404)" style="stroke:#0000ff; stroke-width:4; stroke-opacity:1; fill:none" points="
  2151.57,1423.69 2151.57,1423.69 2179.49,1423.69 2151.57,1423.69 
  "/>
<polygon clip-path="url(#clip0404)" points="
2179.49,1422.98 2179.49,1423.69 2207.4,1423.69 2207.4,1422.98 2179.49,1422.98 2179.49,1422.98 
  " fill="#0000ff" fill-rule="evenodd" fill-opacity="1"/>
<polyline clip-path="url(#clip0404)" style="stroke:#0000ff; stroke-width:4; stroke-opacity:1; fill:none" points="
  2179.49,1422.98 2179.49,1423.69 2207.4,1423.69 2207.4,1422.98 2179.49,1422.98 
  "/>
</svg>
