<?xml version="1.0" encoding="utf-8" standalone="no"?>
<!DOCTYPE svg PUBLIC "-//W3C//DTD SVG 1.1//EN"
  "http://www.w3.org/Graphics/SVG/1.1/DTD/svg11.dtd">
<!-- Created with matplotlib (https://matplotlib.org/) -->
<svg height="288pt" version="1.1" viewBox="0 0 432 288" width="432pt" xmlns="http://www.w3.org/2000/svg" xmlns:xlink="http://www.w3.org/1999/xlink">
 <defs>
  <style type="text/css">
*{stroke-linecap:butt;stroke-linejoin:round;}
  </style>
 </defs>
 <g id="figure_1">
  <g id="patch_1">
   <path d="M 0 288 
L 432 288 
L 432 0 
L 0 0 
z
" style="fill:#ffffff;"/>
  </g>
  <g id="axes_1">
   <g id="patch_2">
    <path d="M 32.384646 261.105354 
L 429.165354 261.105354 
L 429.165354 2.834646 
L 32.384646 2.834646 
z
" style="fill:#ffffff;"/>
   </g>
   <g id="matplotlib.axis_1">
    <g id="xtick_1">
     <g id="line2d_1">
      <path clip-path="url(#p1f4a2196ed)" d="M 89.231707 261.105354 
L 89.231707 2.834646 
" style="fill:none;stroke:#000000;stroke-linecap:square;stroke-opacity:0.1;stroke-width:0.5;"/>
     </g>
     <g id="line2d_2">
      <defs>
       <path d="M 0 0 
L 0 -3.5 
" id="m021162e18a" style="stroke:#000000;stroke-width:0.8;"/>
      </defs>
      <g>
       <use style="stroke:#000000;stroke-width:0.8;" x="89.231707" xlink:href="#m021162e18a" y="261.105354"/>
      </g>
     </g>
     <g id="text_1">
      <!-- 2.5 -->
      <defs>
       <path d="M 19.1875 8.296875 
L 53.609375 8.296875 
L 53.609375 0 
L 7.328125 0 
L 7.328125 8.296875 
Q 12.9375 14.109375 22.625 23.890625 
Q 32.328125 33.6875 34.8125 36.53125 
Q 39.546875 41.84375 41.421875 45.53125 
Q 43.3125 49.21875 43.3125 52.78125 
Q 43.3125 58.59375 39.234375 62.25 
Q 35.15625 65.921875 28.609375 65.921875 
Q 23.96875 65.921875 18.8125 64.3125 
Q 13.671875 62.703125 7.8125 59.421875 
L 7.8125 69.390625 
Q 13.765625 71.78125 18.9375 73 
Q 24.125 74.21875 28.421875 74.21875 
Q 39.75 74.21875 46.484375 68.546875 
Q 53.21875 62.890625 53.21875 53.421875 
Q 53.21875 48.921875 51.53125 44.890625 
Q 49.859375 40.875 45.40625 35.40625 
Q 44.1875 33.984375 37.640625 27.21875 
Q 31.109375 20.453125 19.1875 8.296875 
z
" id="DejaVuSans-50"/>
       <path d="M 10.6875 12.40625 
L 21 12.40625 
L 21 0 
L 10.6875 0 
z
" id="DejaVuSans-46"/>
       <path d="M 10.796875 72.90625 
L 49.515625 72.90625 
L 49.515625 64.59375 
L 19.828125 64.59375 
L 19.828125 46.734375 
Q 21.96875 47.46875 24.109375 47.828125 
Q 26.265625 48.1875 28.421875 48.1875 
Q 40.625 48.1875 47.75 41.5 
Q 54.890625 34.8125 54.890625 23.390625 
Q 54.890625 11.625 47.5625 5.09375 
Q 40.234375 -1.421875 26.90625 -1.421875 
Q 22.3125 -1.421875 17.546875 -0.640625 
Q 12.796875 0.140625 7.71875 1.703125 
L 7.71875 11.625 
Q 12.109375 9.234375 16.796875 8.0625 
Q 21.484375 6.890625 26.703125 6.890625 
Q 35.15625 6.890625 40.078125 11.328125 
Q 45.015625 15.765625 45.015625 23.390625 
Q 45.015625 31 40.078125 35.4375 
Q 35.15625 39.890625 26.703125 39.890625 
Q 22.75 39.890625 18.8125 39.015625 
Q 14.890625 38.140625 10.796875 36.28125 
z
" id="DejaVuSans-53"/>
      </defs>
      <g transform="translate(82.870457 270.684104)scale(0.08 -0.08)">
       <use xlink:href="#DejaVuSans-50"/>
       <use x="63.623047" xlink:href="#DejaVuSans-46"/>
       <use x="95.410156" xlink:href="#DejaVuSans-53"/>
      </g>
     </g>
    </g>
    <g id="xtick_2">
     <g id="line2d_3">
      <path clip-path="url(#p1f4a2196ed)" d="M 157.406761 261.105354 
L 157.406761 2.834646 
" style="fill:none;stroke:#000000;stroke-linecap:square;stroke-opacity:0.1;stroke-width:0.5;"/>
     </g>
     <g id="line2d_4">
      <g>
       <use style="stroke:#000000;stroke-width:0.8;" x="157.406761" xlink:href="#m021162e18a" y="261.105354"/>
      </g>
     </g>
     <g id="text_2">
      <!-- 5.0 -->
      <defs>
       <path d="M 31.78125 66.40625 
Q 24.171875 66.40625 20.328125 58.90625 
Q 16.5 51.421875 16.5 36.375 
Q 16.5 21.390625 20.328125 13.890625 
Q 24.171875 6.390625 31.78125 6.390625 
Q 39.453125 6.390625 43.28125 13.890625 
Q 47.125 21.390625 47.125 36.375 
Q 47.125 51.421875 43.28125 58.90625 
Q 39.453125 66.40625 31.78125 66.40625 
z
M 31.78125 74.21875 
Q 44.046875 74.21875 50.515625 64.515625 
Q 56.984375 54.828125 56.984375 36.375 
Q 56.984375 17.96875 50.515625 8.265625 
Q 44.046875 -1.421875 31.78125 -1.421875 
Q 19.53125 -1.421875 13.0625 8.265625 
Q 6.59375 17.96875 6.59375 36.375 
Q 6.59375 54.828125 13.0625 64.515625 
Q 19.53125 74.21875 31.78125 74.21875 
z
" id="DejaVuSans-48"/>
      </defs>
      <g transform="translate(151.045511 270.684104)scale(0.08 -0.08)">
       <use xlink:href="#DejaVuSans-53"/>
       <use x="63.623047" xlink:href="#DejaVuSans-46"/>
       <use x="95.410156" xlink:href="#DejaVuSans-48"/>
      </g>
     </g>
    </g>
    <g id="xtick_3">
     <g id="line2d_5">
      <path clip-path="url(#p1f4a2196ed)" d="M 225.581816 261.105354 
L 225.581816 2.834646 
" style="fill:none;stroke:#000000;stroke-linecap:square;stroke-opacity:0.1;stroke-width:0.5;"/>
     </g>
     <g id="line2d_6">
      <g>
       <use style="stroke:#000000;stroke-width:0.8;" x="225.581816" xlink:href="#m021162e18a" y="261.105354"/>
      </g>
     </g>
     <g id="text_3">
      <!-- 7.5 -->
      <defs>
       <path d="M 8.203125 72.90625 
L 55.078125 72.90625 
L 55.078125 68.703125 
L 28.609375 0 
L 18.3125 0 
L 43.21875 64.59375 
L 8.203125 64.59375 
z
" id="DejaVuSans-55"/>
      </defs>
      <g transform="translate(219.220566 270.684104)scale(0.08 -0.08)">
       <use xlink:href="#DejaVuSans-55"/>
       <use x="63.623047" xlink:href="#DejaVuSans-46"/>
       <use x="95.410156" xlink:href="#DejaVuSans-53"/>
      </g>
     </g>
    </g>
    <g id="xtick_4">
     <g id="line2d_7">
      <path clip-path="url(#p1f4a2196ed)" d="M 293.756871 261.105354 
L 293.756871 2.834646 
" style="fill:none;stroke:#000000;stroke-linecap:square;stroke-opacity:0.1;stroke-width:0.5;"/>
     </g>
     <g id="line2d_8">
      <g>
       <use style="stroke:#000000;stroke-width:0.8;" x="293.756871" xlink:href="#m021162e18a" y="261.105354"/>
      </g>
     </g>
     <g id="text_4">
      <!-- 10.0 -->
      <defs>
       <path d="M 12.40625 8.296875 
L 28.515625 8.296875 
L 28.515625 63.921875 
L 10.984375 60.40625 
L 10.984375 69.390625 
L 28.421875 72.90625 
L 38.28125 72.90625 
L 38.28125 8.296875 
L 54.390625 8.296875 
L 54.390625 0 
L 12.40625 0 
z
" id="DejaVuSans-49"/>
      </defs>
      <g transform="translate(284.850621 270.684104)scale(0.08 -0.08)">
       <use xlink:href="#DejaVuSans-49"/>
       <use x="63.623047" xlink:href="#DejaVuSans-48"/>
       <use x="127.246094" xlink:href="#DejaVuSans-46"/>
       <use x="159.033203" xlink:href="#DejaVuSans-48"/>
      </g>
     </g>
    </g>
    <g id="xtick_5">
     <g id="line2d_9">
      <path clip-path="url(#p1f4a2196ed)" d="M 361.931925 261.105354 
L 361.931925 2.834646 
" style="fill:none;stroke:#000000;stroke-linecap:square;stroke-opacity:0.1;stroke-width:0.5;"/>
     </g>
     <g id="line2d_10">
      <g>
       <use style="stroke:#000000;stroke-width:0.8;" x="361.931925" xlink:href="#m021162e18a" y="261.105354"/>
      </g>
     </g>
     <g id="text_5">
      <!-- 12.5 -->
      <g transform="translate(353.025675 270.684104)scale(0.08 -0.08)">
       <use xlink:href="#DejaVuSans-49"/>
       <use x="63.623047" xlink:href="#DejaVuSans-50"/>
       <use x="127.246094" xlink:href="#DejaVuSans-46"/>
       <use x="159.033203" xlink:href="#DejaVuSans-53"/>
      </g>
     </g>
    </g>
    <g id="text_6">
     <!-- Index -->
     <defs>
      <path d="M 9.8125 72.90625 
L 19.671875 72.90625 
L 19.671875 0 
L 9.8125 0 
z
" id="DejaVuSans-73"/>
      <path d="M 54.890625 33.015625 
L 54.890625 0 
L 45.90625 0 
L 45.90625 32.71875 
Q 45.90625 40.484375 42.875 44.328125 
Q 39.84375 48.1875 33.796875 48.1875 
Q 26.515625 48.1875 22.3125 43.546875 
Q 18.109375 38.921875 18.109375 30.90625 
L 18.109375 0 
L 9.078125 0 
L 9.078125 54.6875 
L 18.109375 54.6875 
L 18.109375 46.1875 
Q 21.34375 51.125 25.703125 53.5625 
Q 30.078125 56 35.796875 56 
Q 45.21875 56 50.046875 50.171875 
Q 54.890625 44.34375 54.890625 33.015625 
z
" id="DejaVuSans-110"/>
      <path d="M 45.40625 46.390625 
L 45.40625 75.984375 
L 54.390625 75.984375 
L 54.390625 0 
L 45.40625 0 
L 45.40625 8.203125 
Q 42.578125 3.328125 38.25 0.953125 
Q 33.9375 -1.421875 27.875 -1.421875 
Q 17.96875 -1.421875 11.734375 6.484375 
Q 5.515625 14.40625 5.515625 27.296875 
Q 5.515625 40.1875 11.734375 48.09375 
Q 17.96875 56 27.875 56 
Q 33.9375 56 38.25 53.625 
Q 42.578125 51.265625 45.40625 46.390625 
z
M 14.796875 27.296875 
Q 14.796875 17.390625 18.875 11.75 
Q 22.953125 6.109375 30.078125 6.109375 
Q 37.203125 6.109375 41.296875 11.75 
Q 45.40625 17.390625 45.40625 27.296875 
Q 45.40625 37.203125 41.296875 42.84375 
Q 37.203125 48.484375 30.078125 48.484375 
Q 22.953125 48.484375 18.875 42.84375 
Q 14.796875 37.203125 14.796875 27.296875 
z
" id="DejaVuSans-100"/>
      <path d="M 56.203125 29.59375 
L 56.203125 25.203125 
L 14.890625 25.203125 
Q 15.484375 15.921875 20.484375 11.0625 
Q 25.484375 6.203125 34.421875 6.203125 
Q 39.59375 6.203125 44.453125 7.46875 
Q 49.3125 8.734375 54.109375 11.28125 
L 54.109375 2.78125 
Q 49.265625 0.734375 44.1875 -0.34375 
Q 39.109375 -1.421875 33.890625 -1.421875 
Q 20.796875 -1.421875 13.15625 6.1875 
Q 5.515625 13.8125 5.515625 26.8125 
Q 5.515625 40.234375 12.765625 48.109375 
Q 20.015625 56 32.328125 56 
Q 43.359375 56 49.78125 48.890625 
Q 56.203125 41.796875 56.203125 29.59375 
z
M 47.21875 32.234375 
Q 47.125 39.59375 43.09375 43.984375 
Q 39.0625 48.390625 32.421875 48.390625 
Q 24.90625 48.390625 20.390625 44.140625 
Q 15.875 39.890625 15.1875 32.171875 
z
" id="DejaVuSans-101"/>
      <path d="M 54.890625 54.6875 
L 35.109375 28.078125 
L 55.90625 0 
L 45.3125 0 
L 29.390625 21.484375 
L 13.484375 0 
L 2.875 0 
L 24.125 28.609375 
L 4.6875 54.6875 
L 15.28125 54.6875 
L 29.78125 35.203125 
L 44.28125 54.6875 
z
" id="DejaVuSans-120"/>
     </defs>
     <g transform="translate(215.536562 284.706136)scale(0.11 -0.11)">
      <use xlink:href="#DejaVuSans-73"/>
      <use x="29.492188" xlink:href="#DejaVuSans-110"/>
      <use x="92.871094" xlink:href="#DejaVuSans-100"/>
      <use x="156.347656" xlink:href="#DejaVuSans-101"/>
      <use x="217.855469" xlink:href="#DejaVuSans-120"/>
     </g>
    </g>
   </g>
   <g id="matplotlib.axis_2">
    <g id="ytick_1">
     <g id="line2d_11">
      <path clip-path="url(#p1f4a2196ed)" d="M 32.384646 213.423883 
L 429.165354 213.423883 
" style="fill:none;stroke:#000000;stroke-linecap:square;stroke-opacity:0.1;stroke-width:0.5;"/>
     </g>
     <g id="line2d_12">
      <defs>
       <path d="M 0 0 
L 3.5 0 
" id="m02b36eff85" style="stroke:#000000;stroke-width:0.8;"/>
      </defs>
      <g>
       <use style="stroke:#000000;stroke-width:0.8;" x="32.384646" xlink:href="#m02b36eff85" y="213.423883"/>
      </g>
     </g>
     <g id="text_7">
      <!-- 0.0 -->
      <g transform="translate(16.162146 216.463258)scale(0.08 -0.08)">
       <use xlink:href="#DejaVuSans-48"/>
       <use x="63.623047" xlink:href="#DejaVuSans-46"/>
       <use x="95.410156" xlink:href="#DejaVuSans-48"/>
      </g>
     </g>
    </g>
    <g id="ytick_2">
     <g id="line2d_13">
      <path clip-path="url(#p1f4a2196ed)" d="M 32.384646 165.145868 
L 429.165354 165.145868 
" style="fill:none;stroke:#000000;stroke-linecap:square;stroke-opacity:0.1;stroke-width:0.5;"/>
     </g>
     <g id="line2d_14">
      <g>
       <use style="stroke:#000000;stroke-width:0.8;" x="32.384646" xlink:href="#m02b36eff85" y="165.145868"/>
      </g>
     </g>
     <g id="text_8">
      <!-- 0.3 -->
      <defs>
       <path d="M 40.578125 39.3125 
Q 47.65625 37.796875 51.625 33 
Q 55.609375 28.21875 55.609375 21.1875 
Q 55.609375 10.40625 48.1875 4.484375 
Q 40.765625 -1.421875 27.09375 -1.421875 
Q 22.515625 -1.421875 17.65625 -0.515625 
Q 12.796875 0.390625 7.625 2.203125 
L 7.625 11.71875 
Q 11.71875 9.328125 16.59375 8.109375 
Q 21.484375 6.890625 26.8125 6.890625 
Q 36.078125 6.890625 40.9375 10.546875 
Q 45.796875 14.203125 45.796875 21.1875 
Q 45.796875 27.640625 41.28125 31.265625 
Q 36.765625 34.90625 28.71875 34.90625 
L 20.21875 34.90625 
L 20.21875 43.015625 
L 29.109375 43.015625 
Q 36.375 43.015625 40.234375 45.921875 
Q 44.09375 48.828125 44.09375 54.296875 
Q 44.09375 59.90625 40.109375 62.90625 
Q 36.140625 65.921875 28.71875 65.921875 
Q 24.65625 65.921875 20.015625 65.03125 
Q 15.375 64.15625 9.8125 62.3125 
L 9.8125 71.09375 
Q 15.4375 72.65625 20.34375 73.4375 
Q 25.25 74.21875 29.59375 74.21875 
Q 40.828125 74.21875 47.359375 69.109375 
Q 53.90625 64.015625 53.90625 55.328125 
Q 53.90625 49.265625 50.4375 45.09375 
Q 46.96875 40.921875 40.578125 39.3125 
z
" id="DejaVuSans-51"/>
      </defs>
      <g transform="translate(16.162146 168.185243)scale(0.08 -0.08)">
       <use xlink:href="#DejaVuSans-48"/>
       <use x="63.623047" xlink:href="#DejaVuSans-46"/>
       <use x="95.410156" xlink:href="#DejaVuSans-51"/>
      </g>
     </g>
    </g>
    <g id="ytick_3">
     <g id="line2d_15">
      <path clip-path="url(#p1f4a2196ed)" d="M 32.384646 116.867852 
L 429.165354 116.867852 
" style="fill:none;stroke:#000000;stroke-linecap:square;stroke-opacity:0.1;stroke-width:0.5;"/>
     </g>
     <g id="line2d_16">
      <g>
       <use style="stroke:#000000;stroke-width:0.8;" x="32.384646" xlink:href="#m02b36eff85" y="116.867852"/>
      </g>
     </g>
     <g id="text_9">
      <!-- 0.6 -->
      <defs>
       <path d="M 33.015625 40.375 
Q 26.375 40.375 22.484375 35.828125 
Q 18.609375 31.296875 18.609375 23.390625 
Q 18.609375 15.53125 22.484375 10.953125 
Q 26.375 6.390625 33.015625 6.390625 
Q 39.65625 6.390625 43.53125 10.953125 
Q 47.40625 15.53125 47.40625 23.390625 
Q 47.40625 31.296875 43.53125 35.828125 
Q 39.65625 40.375 33.015625 40.375 
z
M 52.59375 71.296875 
L 52.59375 62.3125 
Q 48.875 64.0625 45.09375 64.984375 
Q 41.3125 65.921875 37.59375 65.921875 
Q 27.828125 65.921875 22.671875 59.328125 
Q 17.53125 52.734375 16.796875 39.40625 
Q 19.671875 43.65625 24.015625 45.921875 
Q 28.375 48.1875 33.59375 48.1875 
Q 44.578125 48.1875 50.953125 41.515625 
Q 57.328125 34.859375 57.328125 23.390625 
Q 57.328125 12.15625 50.6875 5.359375 
Q 44.046875 -1.421875 33.015625 -1.421875 
Q 20.359375 -1.421875 13.671875 8.265625 
Q 6.984375 17.96875 6.984375 36.375 
Q 6.984375 53.65625 15.1875 63.9375 
Q 23.390625 74.21875 37.203125 74.21875 
Q 40.921875 74.21875 44.703125 73.484375 
Q 48.484375 72.75 52.59375 71.296875 
z
" id="DejaVuSans-54"/>
      </defs>
      <g transform="translate(16.162146 119.907227)scale(0.08 -0.08)">
       <use xlink:href="#DejaVuSans-48"/>
       <use x="63.623047" xlink:href="#DejaVuSans-46"/>
       <use x="95.410156" xlink:href="#DejaVuSans-54"/>
      </g>
     </g>
    </g>
    <g id="ytick_4">
     <g id="line2d_17">
      <path clip-path="url(#p1f4a2196ed)" d="M 32.384646 68.589837 
L 429.165354 68.589837 
" style="fill:none;stroke:#000000;stroke-linecap:square;stroke-opacity:0.1;stroke-width:0.5;"/>
     </g>
     <g id="line2d_18">
      <g>
       <use style="stroke:#000000;stroke-width:0.8;" x="32.384646" xlink:href="#m02b36eff85" y="68.589837"/>
      </g>
     </g>
     <g id="text_10">
      <!-- 0.9 -->
      <defs>
       <path d="M 10.984375 1.515625 
L 10.984375 10.5 
Q 14.703125 8.734375 18.5 7.8125 
Q 22.3125 6.890625 25.984375 6.890625 
Q 35.75 6.890625 40.890625 13.453125 
Q 46.046875 20.015625 46.78125 33.40625 
Q 43.953125 29.203125 39.59375 26.953125 
Q 35.25 24.703125 29.984375 24.703125 
Q 19.046875 24.703125 12.671875 31.3125 
Q 6.296875 37.9375 6.296875 49.421875 
Q 6.296875 60.640625 12.9375 67.421875 
Q 19.578125 74.21875 30.609375 74.21875 
Q 43.265625 74.21875 49.921875 64.515625 
Q 56.59375 54.828125 56.59375 36.375 
Q 56.59375 19.140625 48.40625 8.859375 
Q 40.234375 -1.421875 26.421875 -1.421875 
Q 22.703125 -1.421875 18.890625 -0.6875 
Q 15.09375 0.046875 10.984375 1.515625 
z
M 30.609375 32.421875 
Q 37.25 32.421875 41.125 36.953125 
Q 45.015625 41.5 45.015625 49.421875 
Q 45.015625 57.28125 41.125 61.84375 
Q 37.25 66.40625 30.609375 66.40625 
Q 23.96875 66.40625 20.09375 61.84375 
Q 16.21875 57.28125 16.21875 49.421875 
Q 16.21875 41.5 20.09375 36.953125 
Q 23.96875 32.421875 30.609375 32.421875 
z
" id="DejaVuSans-57"/>
      </defs>
      <g transform="translate(16.162146 71.629212)scale(0.08 -0.08)">
       <use xlink:href="#DejaVuSans-48"/>
       <use x="63.623047" xlink:href="#DejaVuSans-46"/>
       <use x="95.410156" xlink:href="#DejaVuSans-57"/>
      </g>
     </g>
    </g>
    <g id="ytick_5">
     <g id="line2d_19">
      <path clip-path="url(#p1f4a2196ed)" d="M 32.384646 20.311822 
L 429.165354 20.311822 
" style="fill:none;stroke:#000000;stroke-linecap:square;stroke-opacity:0.1;stroke-width:0.5;"/>
     </g>
     <g id="line2d_20">
      <g>
       <use style="stroke:#000000;stroke-width:0.8;" x="32.384646" xlink:href="#m02b36eff85" y="20.311822"/>
      </g>
     </g>
     <g id="text_11">
      <!-- 1.2 -->
      <g transform="translate(16.162146 23.351197)scale(0.08 -0.08)">
       <use xlink:href="#DejaVuSans-49"/>
       <use x="63.623047" xlink:href="#DejaVuSans-46"/>
       <use x="95.410156" xlink:href="#DejaVuSans-50"/>
      </g>
     </g>
    </g>
    <g id="text_12">
     <!-- Value -->
     <defs>
      <path d="M 28.609375 0 
L 0.78125 72.90625 
L 11.078125 72.90625 
L 34.1875 11.53125 
L 57.328125 72.90625 
L 67.578125 72.90625 
L 39.796875 0 
z
" id="DejaVuSans-86"/>
      <path d="M 34.28125 27.484375 
Q 23.390625 27.484375 19.1875 25 
Q 14.984375 22.515625 14.984375 16.5 
Q 14.984375 11.71875 18.140625 8.90625 
Q 21.296875 6.109375 26.703125 6.109375 
Q 34.1875 6.109375 38.703125 11.40625 
Q 43.21875 16.703125 43.21875 25.484375 
L 43.21875 27.484375 
z
M 52.203125 31.203125 
L 52.203125 0 
L 43.21875 0 
L 43.21875 8.296875 
Q 40.140625 3.328125 35.546875 0.953125 
Q 30.953125 -1.421875 24.3125 -1.421875 
Q 15.921875 -1.421875 10.953125 3.296875 
Q 6 8.015625 6 15.921875 
Q 6 25.140625 12.171875 29.828125 
Q 18.359375 34.515625 30.609375 34.515625 
L 43.21875 34.515625 
L 43.21875 35.40625 
Q 43.21875 41.609375 39.140625 45 
Q 35.0625 48.390625 27.6875 48.390625 
Q 23 48.390625 18.546875 47.265625 
Q 14.109375 46.140625 10.015625 43.890625 
L 10.015625 52.203125 
Q 14.9375 54.109375 19.578125 55.046875 
Q 24.21875 56 28.609375 56 
Q 40.484375 56 46.34375 49.84375 
Q 52.203125 43.703125 52.203125 31.203125 
z
" id="DejaVuSans-97"/>
      <path d="M 9.421875 75.984375 
L 18.40625 75.984375 
L 18.40625 0 
L 9.421875 0 
z
" id="DejaVuSans-108"/>
      <path d="M 8.5 21.578125 
L 8.5 54.6875 
L 17.484375 54.6875 
L 17.484375 21.921875 
Q 17.484375 14.15625 20.5 10.265625 
Q 23.53125 6.390625 29.59375 6.390625 
Q 36.859375 6.390625 41.078125 11.03125 
Q 45.3125 15.671875 45.3125 23.6875 
L 45.3125 54.6875 
L 54.296875 54.6875 
L 54.296875 0 
L 45.3125 0 
L 45.3125 8.40625 
Q 42.046875 3.421875 37.71875 1 
Q 33.40625 -1.421875 27.6875 -1.421875 
Q 18.265625 -1.421875 13.375 4.4375 
Q 8.5 10.296875 8.5 21.578125 
z
M 31.109375 56 
z
" id="DejaVuSans-117"/>
     </defs>
     <g transform="translate(9.874489 147.494609)rotate(-90)scale(0.11 -0.11)">
      <use xlink:href="#DejaVuSans-86"/>
      <use x="68.298828" xlink:href="#DejaVuSans-97"/>
      <use x="129.578125" xlink:href="#DejaVuSans-108"/>
      <use x="157.361328" xlink:href="#DejaVuSans-117"/>
      <use x="220.740234" xlink:href="#DejaVuSans-101"/>
     </g>
    </g>
   </g>
   <g id="line2d_21">
    <path clip-path="url(#p1f4a2196ed)" d="M 48.326674 98.395739 
" style="fill:none;stroke:#009afa;stroke-linecap:round;"/>
   </g>
   <g id="line2d_22">
    <path clip-path="url(#p1f4a2196ed)" d="M 43.614288 98.395739 
L 53.039059 98.395739 
" style="fill:none;stroke:#009afa;stroke-linecap:round;"/>
   </g>
   <g id="line2d_23">
    <path clip-path="url(#p1f4a2196ed)" d="M 48.326674 146.899729 
L 48.326674 29.575342 
" style="fill:none;stroke:#009afa;stroke-linecap:round;"/>
   </g>
   <g id="PathCollection_1">
    <defs>
     <path d="M 0 2 
L 0 -2 
" id="ma05b3495ee" style="stroke:#009afa;stroke-width:1.5;"/>
    </defs>
    <g clip-path="url(#p1f4a2196ed)">
     <use style="fill:#009afa;stroke:#009afa;stroke-width:1.5;" x="43.614288" xlink:href="#ma05b3495ee" y="98.395739"/>
     <use style="fill:#009afa;stroke:#009afa;stroke-width:1.5;" x="53.039059" xlink:href="#ma05b3495ee" y="98.395739"/>
    </g>
   </g>
   <g id="PathCollection_2">
    <defs>
     <path d="M 2 0 
L -2 -0 
" id="m5592415ee0" style="stroke:#009afa;stroke-width:1.5;"/>
    </defs>
    <g clip-path="url(#p1f4a2196ed)">
     <use style="fill:#009afa;stroke:#009afa;stroke-width:1.5;" x="48.326674" xlink:href="#m5592415ee0" y="146.899729"/>
     <use style="fill:#009afa;stroke:#009afa;stroke-width:1.5;" x="48.326674" xlink:href="#m5592415ee0" y="29.575342"/>
    </g>
   </g>
   <g id="line2d_24">
    <path clip-path="url(#p1f4a2196ed)" d="M 75.596696 122.975568 
" style="fill:none;stroke:#e36f47;stroke-linecap:round;"/>
   </g>
   <g id="line2d_25">
    <path clip-path="url(#p1f4a2196ed)" d="M 57.954958 122.975568 
L 93.238434 122.975568 
" style="fill:none;stroke:#e36f47;stroke-linecap:round;"/>
   </g>
   <g id="line2d_26">
    <path clip-path="url(#p1f4a2196ed)" d="M 75.596696 182.481972 
L 75.596696 66.163436 
" style="fill:none;stroke:#e36f47;stroke-linecap:round;"/>
   </g>
   <g id="PathCollection_3">
    <defs>
     <path d="M 0 2 
L 0 -2 
" id="m331818353b" style="stroke:#e36f47;stroke-width:1.5;"/>
    </defs>
    <g clip-path="url(#p1f4a2196ed)">
     <use style="fill:#e36f47;stroke:#e36f47;stroke-width:1.5;" x="57.954958" xlink:href="#m331818353b" y="122.975568"/>
     <use style="fill:#e36f47;stroke:#e36f47;stroke-width:1.5;" x="93.238434" xlink:href="#m331818353b" y="122.975568"/>
    </g>
   </g>
   <g id="PathCollection_4">
    <defs>
     <path d="M 2 0 
L -2 -0 
" id="mdf446c6a4f" style="stroke:#e36f47;stroke-width:1.5;"/>
    </defs>
    <g clip-path="url(#p1f4a2196ed)">
     <use style="fill:#e36f47;stroke:#e36f47;stroke-width:1.5;" x="75.596696" xlink:href="#mdf446c6a4f" y="182.481972"/>
     <use style="fill:#e36f47;stroke:#e36f47;stroke-width:1.5;" x="75.596696" xlink:href="#mdf446c6a4f" y="66.163436"/>
    </g>
   </g>
   <g id="patch_3">
    <path d="M 32.384646 261.105354 
L 32.384646 2.834646 
" style="fill:none;stroke:#000000;stroke-linecap:square;stroke-linejoin:miter;"/>
   </g>
   <g id="patch_4">
    <path d="M 32.384646 261.105354 
L 429.165354 261.105354 
" style="fill:none;stroke:#000000;stroke-linecap:square;stroke-linejoin:miter;"/>
   </g>
   <g id="line2d_27">
    <path clip-path="url(#p1f4a2196ed)" d="M 102.866718 108.400015 
" style="fill:none;stroke:#3ea44e;stroke-linecap:round;"/>
   </g>
   <g id="line2d_28">
    <path clip-path="url(#p1f4a2196ed)" d="M 92.633195 108.400015 
L 113.10024 108.400015 
" style="fill:none;stroke:#3ea44e;stroke-linecap:round;"/>
   </g>
   <g id="line2d_29">
    <path clip-path="url(#p1f4a2196ed)" d="M 102.866718 146.681267 
L 102.866718 70.118763 
" style="fill:none;stroke:#3ea44e;stroke-linecap:round;"/>
   </g>
   <g id="PathCollection_5">
    <defs>
     <path d="M 0 2 
L 0 -2 
" id="m2ccc084b69" style="stroke:#3ea44e;stroke-width:1.5;"/>
    </defs>
    <g clip-path="url(#p1f4a2196ed)">
     <use style="fill:#3ea44e;stroke:#3ea44e;stroke-width:1.5;" x="92.633195" xlink:href="#m2ccc084b69" y="108.400015"/>
     <use style="fill:#3ea44e;stroke:#3ea44e;stroke-width:1.5;" x="113.10024" xlink:href="#m2ccc084b69" y="108.400015"/>
    </g>
   </g>
   <g id="PathCollection_6">
    <defs>
     <path d="M 2 0 
L -2 -0 
" id="m7903d33ce0" style="stroke:#3ea44e;stroke-width:1.5;"/>
    </defs>
    <g clip-path="url(#p1f4a2196ed)">
     <use style="fill:#3ea44e;stroke:#3ea44e;stroke-width:1.5;" x="102.866718" xlink:href="#m7903d33ce0" y="146.681267"/>
     <use style="fill:#3ea44e;stroke:#3ea44e;stroke-width:1.5;" x="102.866718" xlink:href="#m7903d33ce0" y="70.118763"/>
    </g>
   </g>
   <g id="line2d_30">
    <path clip-path="url(#p1f4a2196ed)" d="M 130.13674 80.794124 
" style="fill:none;stroke:#c371d2;stroke-linecap:round;"/>
   </g>
   <g id="line2d_31">
    <path clip-path="url(#p1f4a2196ed)" d="M 113.022434 80.794124 
L 147.251045 80.794124 
" style="fill:none;stroke:#c371d2;stroke-linecap:round;"/>
   </g>
   <g id="line2d_32">
    <path clip-path="url(#p1f4a2196ed)" d="M 130.13674 136.647627 
L 130.13674 24.940622 
" style="fill:none;stroke:#c371d2;stroke-linecap:round;"/>
   </g>
   <g id="PathCollection_7">
    <defs>
     <path d="M 0 2 
L 0 -2 
" id="m41b4135aa8" style="stroke:#c371d2;stroke-width:1.5;"/>
    </defs>
    <g clip-path="url(#p1f4a2196ed)">
     <use style="fill:#c371d2;stroke:#c371d2;stroke-width:1.5;" x="113.022434" xlink:href="#m41b4135aa8" y="80.794124"/>
     <use style="fill:#c371d2;stroke:#c371d2;stroke-width:1.5;" x="147.251045" xlink:href="#m41b4135aa8" y="80.794124"/>
    </g>
   </g>
   <g id="PathCollection_8">
    <defs>
     <path d="M 2 0 
L -2 -0 
" id="m8af41a9fd4" style="stroke:#c371d2;stroke-width:1.5;"/>
    </defs>
    <g clip-path="url(#p1f4a2196ed)">
     <use style="fill:#c371d2;stroke:#c371d2;stroke-width:1.5;" x="130.13674" xlink:href="#m8af41a9fd4" y="136.647627"/>
     <use style="fill:#c371d2;stroke:#c371d2;stroke-width:1.5;" x="130.13674" xlink:href="#m8af41a9fd4" y="24.940622"/>
    </g>
   </g>
   <g id="line2d_33">
    <path clip-path="url(#p1f4a2196ed)" d="M 157.406761 110.162217 
" style="fill:none;stroke:#ac8e18;stroke-linecap:round;"/>
   </g>
   <g id="line2d_34">
    <path clip-path="url(#p1f4a2196ed)" d="M 135.830687 110.162217 
L 178.982836 110.162217 
" style="fill:none;stroke:#ac8e18;stroke-linecap:round;"/>
   </g>
   <g id="line2d_35">
    <path clip-path="url(#p1f4a2196ed)" d="M 157.406761 171.910352 
L 157.406761 48.414082 
" style="fill:none;stroke:#ac8e18;stroke-linecap:round;"/>
   </g>
   <g id="PathCollection_9">
    <defs>
     <path d="M 0 2 
L 0 -2 
" id="mce61bb2981" style="stroke:#ac8e18;stroke-width:1.5;"/>
    </defs>
    <g clip-path="url(#p1f4a2196ed)">
     <use style="fill:#ac8e18;stroke:#ac8e18;stroke-width:1.5;" x="135.830687" xlink:href="#mce61bb2981" y="110.162217"/>
     <use style="fill:#ac8e18;stroke:#ac8e18;stroke-width:1.5;" x="178.982836" xlink:href="#mce61bb2981" y="110.162217"/>
    </g>
   </g>
   <g id="PathCollection_10">
    <defs>
     <path d="M 2 0 
L -2 -0 
" id="mfdadf8b496" style="stroke:#ac8e18;stroke-width:1.5;"/>
    </defs>
    <g clip-path="url(#p1f4a2196ed)">
     <use style="fill:#ac8e18;stroke:#ac8e18;stroke-width:1.5;" x="157.406761" xlink:href="#mfdadf8b496" y="171.910352"/>
     <use style="fill:#ac8e18;stroke:#ac8e18;stroke-width:1.5;" x="157.406761" xlink:href="#mfdadf8b496" y="48.414082"/>
    </g>
   </g>
   <g id="line2d_36">
    <path clip-path="url(#p1f4a2196ed)" d="M 184.676783 124.345514 
" style="fill:none;stroke:#00aaae;stroke-linecap:round;"/>
   </g>
   <g id="line2d_37">
    <path clip-path="url(#p1f4a2196ed)" d="M 158.023923 124.345514 
L 211.329643 124.345514 
" style="fill:none;stroke:#00aaae;stroke-linecap:round;"/>
   </g>
   <g id="line2d_38">
    <path clip-path="url(#p1f4a2196ed)" d="M 184.676783 174.153176 
L 184.676783 74.537852 
" style="fill:none;stroke:#00aaae;stroke-linecap:round;"/>
   </g>
   <g id="PathCollection_11">
    <defs>
     <path d="M 0 2 
L 0 -2 
" id="m982e3fda9f" style="stroke:#00aaae;stroke-width:1.5;"/>
    </defs>
    <g clip-path="url(#p1f4a2196ed)">
     <use style="fill:#00aaae;stroke:#00aaae;stroke-width:1.5;" x="158.023923" xlink:href="#m982e3fda9f" y="124.345514"/>
     <use style="fill:#00aaae;stroke:#00aaae;stroke-width:1.5;" x="211.329643" xlink:href="#m982e3fda9f" y="124.345514"/>
    </g>
   </g>
   <g id="PathCollection_12">
    <defs>
     <path d="M 2 0 
L -2 -0 
" id="m8f5504b6e0" style="stroke:#00aaae;stroke-width:1.5;"/>
    </defs>
    <g clip-path="url(#p1f4a2196ed)">
     <use style="fill:#00aaae;stroke:#00aaae;stroke-width:1.5;" x="184.676783" xlink:href="#m8f5504b6e0" y="174.153176"/>
     <use style="fill:#00aaae;stroke:#00aaae;stroke-width:1.5;" x="184.676783" xlink:href="#m8f5504b6e0" y="74.537852"/>
    </g>
   </g>
   <g id="line2d_39">
    <path clip-path="url(#p1f4a2196ed)" d="M 211.946805 202.972964 
" style="fill:none;stroke:#ed5e93;stroke-linecap:round;"/>
   </g>
   <g id="line2d_40">
    <path clip-path="url(#p1f4a2196ed)" d="M 192.176597 202.972964 
L 231.717014 202.972964 
" style="fill:none;stroke:#ed5e93;stroke-linecap:round;"/>
   </g>
   <g id="line2d_41">
    <path clip-path="url(#p1f4a2196ed)" d="M 211.946805 209.923014 
L 211.946805 196.022914 
" style="fill:none;stroke:#ed5e93;stroke-linecap:round;"/>
   </g>
   <g id="PathCollection_13">
    <defs>
     <path d="M 0 2 
L 0 -2 
" id="meb32c6657c" style="stroke:#ed5e93;stroke-width:1.5;"/>
    </defs>
    <g clip-path="url(#p1f4a2196ed)">
     <use style="fill:#ed5e93;stroke:#ed5e93;stroke-width:1.5;" x="192.176597" xlink:href="#meb32c6657c" y="202.972964"/>
     <use style="fill:#ed5e93;stroke:#ed5e93;stroke-width:1.5;" x="231.717014" xlink:href="#meb32c6657c" y="202.972964"/>
    </g>
   </g>
   <g id="PathCollection_14">
    <defs>
     <path d="M 2 0 
L -2 -0 
" id="m243074d95e" style="stroke:#ed5e93;stroke-width:1.5;"/>
    </defs>
    <g clip-path="url(#p1f4a2196ed)">
     <use style="fill:#ed5e93;stroke:#ed5e93;stroke-width:1.5;" x="211.946805" xlink:href="#m243074d95e" y="209.923014"/>
     <use style="fill:#ed5e93;stroke:#ed5e93;stroke-width:1.5;" x="211.946805" xlink:href="#m243074d95e" y="196.022914"/>
    </g>
   </g>
   <g id="line2d_42">
    <path clip-path="url(#p1f4a2196ed)" d="M 239.216827 73.613781 
" style="fill:none;stroke:#c68225;stroke-linecap:round;"/>
   </g>
   <g id="line2d_43">
    <path clip-path="url(#p1f4a2196ed)" d="M 206.539736 73.613781 
L 271.893918 73.613781 
" style="fill:none;stroke:#c68225;stroke-linecap:round;"/>
   </g>
   <g id="line2d_44">
    <path clip-path="url(#p1f4a2196ed)" d="M 239.216827 124.017351 
L 239.216827 23.21021 
" style="fill:none;stroke:#c68225;stroke-linecap:round;"/>
   </g>
   <g id="PathCollection_15">
    <defs>
     <path d="M 0 2 
L 0 -2 
" id="m264e962db7" style="stroke:#c68225;stroke-width:1.5;"/>
    </defs>
    <g clip-path="url(#p1f4a2196ed)">
     <use style="fill:#c68225;stroke:#c68225;stroke-width:1.5;" x="206.539736" xlink:href="#m264e962db7" y="73.613781"/>
     <use style="fill:#c68225;stroke:#c68225;stroke-width:1.5;" x="271.893918" xlink:href="#m264e962db7" y="73.613781"/>
    </g>
   </g>
   <g id="PathCollection_16">
    <defs>
     <path d="M 2 0 
L -2 -0 
" id="m08dcd4fab0" style="stroke:#c68225;stroke-width:1.5;"/>
    </defs>
    <g clip-path="url(#p1f4a2196ed)">
     <use style="fill:#c68225;stroke:#c68225;stroke-width:1.5;" x="239.216827" xlink:href="#m08dcd4fab0" y="124.017351"/>
     <use style="fill:#c68225;stroke:#c68225;stroke-width:1.5;" x="239.216827" xlink:href="#m08dcd4fab0" y="23.21021"/>
    </g>
   </g>
   <g id="line2d_45">
    <path clip-path="url(#p1f4a2196ed)" d="M 266.486849 76.597164 
" style="fill:none;stroke:#00a98d;stroke-linecap:round;"/>
   </g>
   <g id="line2d_46">
    <path clip-path="url(#p1f4a2196ed)" d="M 235.677665 76.597164 
L 297.296033 76.597164 
" style="fill:none;stroke:#00a98d;stroke-linecap:round;"/>
   </g>
   <g id="line2d_47">
    <path clip-path="url(#p1f4a2196ed)" d="M 266.486849 143.050134 
L 266.486849 10.144194 
" style="fill:none;stroke:#00a98d;stroke-linecap:round;"/>
   </g>
   <g id="PathCollection_17">
    <defs>
     <path d="M 0 2 
L 0 -2 
" id="maa4d547164" style="stroke:#00a98d;stroke-width:1.5;"/>
    </defs>
    <g clip-path="url(#p1f4a2196ed)">
     <use style="fill:#00a98d;stroke:#00a98d;stroke-width:1.5;" x="235.677665" xlink:href="#maa4d547164" y="76.597164"/>
     <use style="fill:#00a98d;stroke:#00a98d;stroke-width:1.5;" x="297.296033" xlink:href="#maa4d547164" y="76.597164"/>
    </g>
   </g>
   <g id="PathCollection_18">
    <defs>
     <path d="M 2 0 
L -2 -0 
" id="ma0d5b66a59" style="stroke:#00a98d;stroke-width:1.5;"/>
    </defs>
    <g clip-path="url(#p1f4a2196ed)">
     <use style="fill:#00a98d;stroke:#00a98d;stroke-width:1.5;" x="266.486849" xlink:href="#ma0d5b66a59" y="143.050134"/>
     <use style="fill:#00a98d;stroke:#00a98d;stroke-width:1.5;" x="266.486849" xlink:href="#ma0d5b66a59" y="10.144194"/>
    </g>
   </g>
   <g id="line2d_48">
    <path clip-path="url(#p1f4a2196ed)" d="M 293.756871 160.417625 
" style="fill:none;stroke:#8e971e;stroke-linecap:round;"/>
   </g>
   <g id="line2d_49">
    <path clip-path="url(#p1f4a2196ed)" d="M 263.407398 160.417625 
L 324.106343 160.417625 
" style="fill:none;stroke:#8e971e;stroke-linecap:round;"/>
   </g>
   <g id="line2d_50">
    <path clip-path="url(#p1f4a2196ed)" d="M 293.756871 190.343681 
L 293.756871 130.491569 
" style="fill:none;stroke:#8e971e;stroke-linecap:round;"/>
   </g>
   <g id="PathCollection_19">
    <defs>
     <path d="M 0 2 
L 0 -2 
" id="mbcfeb56be6" style="stroke:#8e971e;stroke-width:1.5;"/>
    </defs>
    <g clip-path="url(#p1f4a2196ed)">
     <use style="fill:#8e971e;stroke:#8e971e;stroke-width:1.5;" x="263.407398" xlink:href="#mbcfeb56be6" y="160.417625"/>
     <use style="fill:#8e971e;stroke:#8e971e;stroke-width:1.5;" x="324.106343" xlink:href="#mbcfeb56be6" y="160.417625"/>
    </g>
   </g>
   <g id="PathCollection_20">
    <defs>
     <path d="M 2 0 
L -2 -0 
" id="m6752c03eba" style="stroke:#8e971e;stroke-width:1.5;"/>
    </defs>
    <g clip-path="url(#p1f4a2196ed)">
     <use style="fill:#8e971e;stroke:#8e971e;stroke-width:1.5;" x="293.756871" xlink:href="#m6752c03eba" y="190.343681"/>
     <use style="fill:#8e971e;stroke:#8e971e;stroke-width:1.5;" x="293.756871" xlink:href="#m6752c03eba" y="130.491569"/>
    </g>
   </g>
   <g id="line2d_51">
    <path clip-path="url(#p1f4a2196ed)" d="M 321.026893 52.533505 
" style="fill:none;stroke:#00a9cc;stroke-linecap:round;"/>
   </g>
   <g id="line2d_52">
    <path clip-path="url(#p1f4a2196ed)" d="M 282.606065 52.533505 
L 359.447721 52.533505 
" style="fill:none;stroke:#00a9cc;stroke-linecap:round;"/>
   </g>
   <g id="line2d_53">
    <path clip-path="url(#p1f4a2196ed)" d="M 321.026893 88.15603 
L 321.026893 16.910981 
" style="fill:none;stroke:#00a9cc;stroke-linecap:round;"/>
   </g>
   <g id="PathCollection_21">
    <defs>
     <path d="M 0 2 
L 0 -2 
" id="m92f953af19" style="stroke:#00a9cc;stroke-width:1.5;"/>
    </defs>
    <g clip-path="url(#p1f4a2196ed)">
     <use style="fill:#00a9cc;stroke:#00a9cc;stroke-width:1.5;" x="282.606065" xlink:href="#m92f953af19" y="52.533505"/>
     <use style="fill:#00a9cc;stroke:#00a9cc;stroke-width:1.5;" x="359.447721" xlink:href="#m92f953af19" y="52.533505"/>
    </g>
   </g>
   <g id="PathCollection_22">
    <defs>
     <path d="M 2 0 
L -2 -0 
" id="m691ddf4490" style="stroke:#00a9cc;stroke-width:1.5;"/>
    </defs>
    <g clip-path="url(#p1f4a2196ed)">
     <use style="fill:#00a9cc;stroke:#00a9cc;stroke-width:1.5;" x="321.026893" xlink:href="#m691ddf4490" y="88.15603"/>
     <use style="fill:#00a9cc;stroke:#00a9cc;stroke-width:1.5;" x="321.026893" xlink:href="#m691ddf4490" y="16.910981"/>
    </g>
   </g>
   <g id="line2d_54">
    <path clip-path="url(#p1f4a2196ed)" d="M 348.296915 204.684564 
" style="fill:none;stroke:#9b7fe9;stroke-linecap:round;"/>
   </g>
   <g id="line2d_55">
    <path clip-path="url(#p1f4a2196ed)" d="M 310.216381 204.684564 
L 386.377448 204.684564 
" style="fill:none;stroke:#9b7fe9;stroke-linecap:round;"/>
   </g>
   <g id="line2d_56">
    <path clip-path="url(#p1f4a2196ed)" d="M 348.296915 253.795806 
L 348.296915 155.573323 
" style="fill:none;stroke:#9b7fe9;stroke-linecap:round;"/>
   </g>
   <g id="PathCollection_23">
    <defs>
     <path d="M 0 2 
L 0 -2 
" id="m14424e914b" style="stroke:#9b7fe9;stroke-width:1.5;"/>
    </defs>
    <g clip-path="url(#p1f4a2196ed)">
     <use style="fill:#9b7fe9;stroke:#9b7fe9;stroke-width:1.5;" x="310.216381" xlink:href="#m14424e914b" y="204.684564"/>
     <use style="fill:#9b7fe9;stroke:#9b7fe9;stroke-width:1.5;" x="386.377448" xlink:href="#m14424e914b" y="204.684564"/>
    </g>
   </g>
   <g id="PathCollection_24">
    <defs>
     <path d="M 2 0 
L -2 -0 
" id="m357c600808" style="stroke:#9b7fe9;stroke-width:1.5;"/>
    </defs>
    <g clip-path="url(#p1f4a2196ed)">
     <use style="fill:#9b7fe9;stroke:#9b7fe9;stroke-width:1.5;" x="348.296915" xlink:href="#m357c600808" y="253.795806"/>
     <use style="fill:#9b7fe9;stroke:#9b7fe9;stroke-width:1.5;" x="348.296915" xlink:href="#m357c600808" y="155.573323"/>
    </g>
   </g>
   <g id="line2d_57">
    <path clip-path="url(#p1f4a2196ed)" d="M 375.566936 147.600656 
" style="fill:none;stroke:#618df6;stroke-linecap:round;"/>
   </g>
   <g id="line2d_58">
    <path clip-path="url(#p1f4a2196ed)" d="M 333.198161 147.600656 
L 417.935712 147.600656 
" style="fill:none;stroke:#618df6;stroke-linecap:round;"/>
   </g>
   <g id="line2d_59">
    <path clip-path="url(#p1f4a2196ed)" d="M 375.566936 157.331684 
L 375.566936 137.869629 
" style="fill:none;stroke:#618df6;stroke-linecap:round;"/>
   </g>
   <g id="PathCollection_25">
    <defs>
     <path d="M 0 2 
L 0 -2 
" id="m357ca2659f" style="stroke:#618df6;stroke-width:1.5;"/>
    </defs>
    <g clip-path="url(#p1f4a2196ed)">
     <use style="fill:#618df6;stroke:#618df6;stroke-width:1.5;" x="333.198161" xlink:href="#m357ca2659f" y="147.600656"/>
     <use style="fill:#618df6;stroke:#618df6;stroke-width:1.5;" x="417.935712" xlink:href="#m357ca2659f" y="147.600656"/>
    </g>
   </g>
   <g id="PathCollection_26">
    <defs>
     <path d="M 2 0 
L -2 -0 
" id="m612e748854" style="stroke:#618df6;stroke-width:1.5;"/>
    </defs>
    <g clip-path="url(#p1f4a2196ed)">
     <use style="fill:#618df6;stroke:#618df6;stroke-width:1.5;" x="375.566936" xlink:href="#m612e748854" y="157.331684"/>
     <use style="fill:#618df6;stroke:#618df6;stroke-width:1.5;" x="375.566936" xlink:href="#m612e748854" y="137.869629"/>
    </g>
   </g>
  </g>
 </g>
 <defs>
  <clipPath id="p1f4a2196ed">
   <rect height="258.270709" width="396.780709" x="32.384646" y="2.834646"/>
  </clipPath>
 </defs>
</svg>
