<?xml version="1.0" encoding="utf-8" standalone="no"?>
<!DOCTYPE svg PUBLIC "-//W3C//DTD SVG 1.1//EN"
  "http://www.w3.org/Graphics/SVG/1.1/DTD/svg11.dtd">
<!-- Created with matplotlib (https://matplotlib.org/) -->
<svg height="288pt" version="1.1" viewBox="0 0 432 288" width="432pt" xmlns="http://www.w3.org/2000/svg" xmlns:xlink="http://www.w3.org/1999/xlink">
 <defs>
  <style type="text/css">
*{stroke-linecap:butt;stroke-linejoin:round;}
  </style>
 </defs>
 <g id="figure_1">
  <g id="patch_1">
   <path d="M 0 288 
L 432 288 
L 432 0 
L 0 0 
z
" style="fill:#ffffff;"/>
  </g>
  <g id="axes_1">
   <g id="patch_2">
    <path d="M 37.424646 261.105354 
L 429.165354 261.105354 
L 429.165354 2.834646 
L 37.424646 2.834646 
z
" style="fill:#ffffff;"/>
   </g>
   <g id="matplotlib.axis_1">
    <g id="xtick_1">
     <g id="line2d_1">
      <path clip-path="url(#p9b784bab91)" d="M 94.707485 261.105354 
L 94.707485 2.834646 
" style="fill:none;stroke:#000000;stroke-linecap:square;stroke-opacity:0.1;stroke-width:0.5;"/>
     </g>
     <g id="line2d_2">
      <defs>
       <path d="M 0 0 
L 0 -3.5 
" id="m081e1c8d34" style="stroke:#000000;stroke-width:0.8;"/>
      </defs>
      <g>
       <use style="stroke:#000000;stroke-width:0.8;" x="94.707485" xlink:href="#m081e1c8d34" y="261.105354"/>
      </g>
     </g>
     <g id="text_1">
      <!-- 2.5 -->
      <defs>
       <path d="M 19.1875 8.296875 
L 53.609375 8.296875 
L 53.609375 0 
L 7.328125 0 
L 7.328125 8.296875 
Q 12.9375 14.109375 22.625 23.890625 
Q 32.328125 33.6875 34.8125 36.53125 
Q 39.546875 41.84375 41.421875 45.53125 
Q 43.3125 49.21875 43.3125 52.78125 
Q 43.3125 58.59375 39.234375 62.25 
Q 35.15625 65.921875 28.609375 65.921875 
Q 23.96875 65.921875 18.8125 64.3125 
Q 13.671875 62.703125 7.8125 59.421875 
L 7.8125 69.390625 
Q 13.765625 71.78125 18.9375 73 
Q 24.125 74.21875 28.421875 74.21875 
Q 39.75 74.21875 46.484375 68.546875 
Q 53.21875 62.890625 53.21875 53.421875 
Q 53.21875 48.921875 51.53125 44.890625 
Q 49.859375 40.875 45.40625 35.40625 
Q 44.1875 33.984375 37.640625 27.21875 
Q 31.109375 20.453125 19.1875 8.296875 
z
" id="DejaVuSans-50"/>
       <path d="M 10.6875 12.40625 
L 21 12.40625 
L 21 0 
L 10.6875 0 
z
" id="DejaVuSans-46"/>
       <path d="M 10.796875 72.90625 
L 49.515625 72.90625 
L 49.515625 64.59375 
L 19.828125 64.59375 
L 19.828125 46.734375 
Q 21.96875 47.46875 24.109375 47.828125 
Q 26.265625 48.1875 28.421875 48.1875 
Q 40.625 48.1875 47.75 41.5 
Q 54.890625 34.8125 54.890625 23.390625 
Q 54.890625 11.625 47.5625 5.09375 
Q 40.234375 -1.421875 26.90625 -1.421875 
Q 22.3125 -1.421875 17.546875 -0.640625 
Q 12.796875 0.140625 7.71875 1.703125 
L 7.71875 11.625 
Q 12.109375 9.234375 16.796875 8.0625 
Q 21.484375 6.890625 26.703125 6.890625 
Q 35.15625 6.890625 40.078125 11.328125 
Q 45.015625 15.765625 45.015625 23.390625 
Q 45.015625 31 40.078125 35.4375 
Q 35.15625 39.890625 26.703125 39.890625 
Q 22.75 39.890625 18.8125 39.015625 
Q 14.890625 38.140625 10.796875 36.28125 
z
" id="DejaVuSans-53"/>
      </defs>
      <g transform="translate(88.346235 270.684104)scale(0.08 -0.08)">
       <use xlink:href="#DejaVuSans-50"/>
       <use x="63.623047" xlink:href="#DejaVuSans-46"/>
       <use x="95.410156" xlink:href="#DejaVuSans-53"/>
      </g>
     </g>
    </g>
    <g id="xtick_2">
     <g id="line2d_3">
      <path clip-path="url(#p9b784bab91)" d="M 171.700549 261.105354 
L 171.700549 2.834646 
" style="fill:none;stroke:#000000;stroke-linecap:square;stroke-opacity:0.1;stroke-width:0.5;"/>
     </g>
     <g id="line2d_4">
      <g>
       <use style="stroke:#000000;stroke-width:0.8;" x="171.700549" xlink:href="#m081e1c8d34" y="261.105354"/>
      </g>
     </g>
     <g id="text_2">
      <!-- 5.0 -->
      <defs>
       <path d="M 31.78125 66.40625 
Q 24.171875 66.40625 20.328125 58.90625 
Q 16.5 51.421875 16.5 36.375 
Q 16.5 21.390625 20.328125 13.890625 
Q 24.171875 6.390625 31.78125 6.390625 
Q 39.453125 6.390625 43.28125 13.890625 
Q 47.125 21.390625 47.125 36.375 
Q 47.125 51.421875 43.28125 58.90625 
Q 39.453125 66.40625 31.78125 66.40625 
z
M 31.78125 74.21875 
Q 44.046875 74.21875 50.515625 64.515625 
Q 56.984375 54.828125 56.984375 36.375 
Q 56.984375 17.96875 50.515625 8.265625 
Q 44.046875 -1.421875 31.78125 -1.421875 
Q 19.53125 -1.421875 13.0625 8.265625 
Q 6.59375 17.96875 6.59375 36.375 
Q 6.59375 54.828125 13.0625 64.515625 
Q 19.53125 74.21875 31.78125 74.21875 
z
" id="DejaVuSans-48"/>
      </defs>
      <g transform="translate(165.339299 270.684104)scale(0.08 -0.08)">
       <use xlink:href="#DejaVuSans-53"/>
       <use x="63.623047" xlink:href="#DejaVuSans-46"/>
       <use x="95.410156" xlink:href="#DejaVuSans-48"/>
      </g>
     </g>
    </g>
    <g id="xtick_3">
     <g id="line2d_5">
      <path clip-path="url(#p9b784bab91)" d="M 248.693613 261.105354 
L 248.693613 2.834646 
" style="fill:none;stroke:#000000;stroke-linecap:square;stroke-opacity:0.1;stroke-width:0.5;"/>
     </g>
     <g id="line2d_6">
      <g>
       <use style="stroke:#000000;stroke-width:0.8;" x="248.693613" xlink:href="#m081e1c8d34" y="261.105354"/>
      </g>
     </g>
     <g id="text_3">
      <!-- 7.5 -->
      <defs>
       <path d="M 8.203125 72.90625 
L 55.078125 72.90625 
L 55.078125 68.703125 
L 28.609375 0 
L 18.3125 0 
L 43.21875 64.59375 
L 8.203125 64.59375 
z
" id="DejaVuSans-55"/>
      </defs>
      <g transform="translate(242.332363 270.684104)scale(0.08 -0.08)">
       <use xlink:href="#DejaVuSans-55"/>
       <use x="63.623047" xlink:href="#DejaVuSans-46"/>
       <use x="95.410156" xlink:href="#DejaVuSans-53"/>
      </g>
     </g>
    </g>
    <g id="xtick_4">
     <g id="line2d_7">
      <path clip-path="url(#p9b784bab91)" d="M 325.686677 261.105354 
L 325.686677 2.834646 
" style="fill:none;stroke:#000000;stroke-linecap:square;stroke-opacity:0.1;stroke-width:0.5;"/>
     </g>
     <g id="line2d_8">
      <g>
       <use style="stroke:#000000;stroke-width:0.8;" x="325.686677" xlink:href="#m081e1c8d34" y="261.105354"/>
      </g>
     </g>
     <g id="text_4">
      <!-- 10.0 -->
      <defs>
       <path d="M 12.40625 8.296875 
L 28.515625 8.296875 
L 28.515625 63.921875 
L 10.984375 60.40625 
L 10.984375 69.390625 
L 28.421875 72.90625 
L 38.28125 72.90625 
L 38.28125 8.296875 
L 54.390625 8.296875 
L 54.390625 0 
L 12.40625 0 
z
" id="DejaVuSans-49"/>
      </defs>
      <g transform="translate(316.780427 270.684104)scale(0.08 -0.08)">
       <use xlink:href="#DejaVuSans-49"/>
       <use x="63.623047" xlink:href="#DejaVuSans-48"/>
       <use x="127.246094" xlink:href="#DejaVuSans-46"/>
       <use x="159.033203" xlink:href="#DejaVuSans-48"/>
      </g>
     </g>
    </g>
    <g id="xtick_5">
     <g id="line2d_9">
      <path clip-path="url(#p9b784bab91)" d="M 402.67974 261.105354 
L 402.67974 2.834646 
" style="fill:none;stroke:#000000;stroke-linecap:square;stroke-opacity:0.1;stroke-width:0.5;"/>
     </g>
     <g id="line2d_10">
      <g>
       <use style="stroke:#000000;stroke-width:0.8;" x="402.67974" xlink:href="#m081e1c8d34" y="261.105354"/>
      </g>
     </g>
     <g id="text_5">
      <!-- 12.5 -->
      <g transform="translate(393.77349 270.684104)scale(0.08 -0.08)">
       <use xlink:href="#DejaVuSans-49"/>
       <use x="63.623047" xlink:href="#DejaVuSans-50"/>
       <use x="127.246094" xlink:href="#DejaVuSans-46"/>
       <use x="159.033203" xlink:href="#DejaVuSans-53"/>
      </g>
     </g>
    </g>
    <g id="text_6">
     <!-- Index -->
     <defs>
      <path d="M 9.8125 72.90625 
L 19.671875 72.90625 
L 19.671875 0 
L 9.8125 0 
z
" id="DejaVuSans-73"/>
      <path d="M 54.890625 33.015625 
L 54.890625 0 
L 45.90625 0 
L 45.90625 32.71875 
Q 45.90625 40.484375 42.875 44.328125 
Q 39.84375 48.1875 33.796875 48.1875 
Q 26.515625 48.1875 22.3125 43.546875 
Q 18.109375 38.921875 18.109375 30.90625 
L 18.109375 0 
L 9.078125 0 
L 9.078125 54.6875 
L 18.109375 54.6875 
L 18.109375 46.1875 
Q 21.34375 51.125 25.703125 53.5625 
Q 30.078125 56 35.796875 56 
Q 45.21875 56 50.046875 50.171875 
Q 54.890625 44.34375 54.890625 33.015625 
z
" id="DejaVuSans-110"/>
      <path d="M 45.40625 46.390625 
L 45.40625 75.984375 
L 54.390625 75.984375 
L 54.390625 0 
L 45.40625 0 
L 45.40625 8.203125 
Q 42.578125 3.328125 38.25 0.953125 
Q 33.9375 -1.421875 27.875 -1.421875 
Q 17.96875 -1.421875 11.734375 6.484375 
Q 5.515625 14.40625 5.515625 27.296875 
Q 5.515625 40.1875 11.734375 48.09375 
Q 17.96875 56 27.875 56 
Q 33.9375 56 38.25 53.625 
Q 42.578125 51.265625 45.40625 46.390625 
z
M 14.796875 27.296875 
Q 14.796875 17.390625 18.875 11.75 
Q 22.953125 6.109375 30.078125 6.109375 
Q 37.203125 6.109375 41.296875 11.75 
Q 45.40625 17.390625 45.40625 27.296875 
Q 45.40625 37.203125 41.296875 42.84375 
Q 37.203125 48.484375 30.078125 48.484375 
Q 22.953125 48.484375 18.875 42.84375 
Q 14.796875 37.203125 14.796875 27.296875 
z
" id="DejaVuSans-100"/>
      <path d="M 56.203125 29.59375 
L 56.203125 25.203125 
L 14.890625 25.203125 
Q 15.484375 15.921875 20.484375 11.0625 
Q 25.484375 6.203125 34.421875 6.203125 
Q 39.59375 6.203125 44.453125 7.46875 
Q 49.3125 8.734375 54.109375 11.28125 
L 54.109375 2.78125 
Q 49.265625 0.734375 44.1875 -0.34375 
Q 39.109375 -1.421875 33.890625 -1.421875 
Q 20.796875 -1.421875 13.15625 6.1875 
Q 5.515625 13.8125 5.515625 26.8125 
Q 5.515625 40.234375 12.765625 48.109375 
Q 20.015625 56 32.328125 56 
Q 43.359375 56 49.78125 48.890625 
Q 56.203125 41.796875 56.203125 29.59375 
z
M 47.21875 32.234375 
Q 47.125 39.59375 43.09375 43.984375 
Q 39.0625 48.390625 32.421875 48.390625 
Q 24.90625 48.390625 20.390625 44.140625 
Q 15.875 39.890625 15.1875 32.171875 
z
" id="DejaVuSans-101"/>
      <path d="M 54.890625 54.6875 
L 35.109375 28.078125 
L 55.90625 0 
L 45.3125 0 
L 29.390625 21.484375 
L 13.484375 0 
L 2.875 0 
L 24.125 28.609375 
L 4.6875 54.6875 
L 15.28125 54.6875 
L 29.78125 35.203125 
L 44.28125 54.6875 
z
" id="DejaVuSans-120"/>
     </defs>
     <g transform="translate(218.056563 284.706136)scale(0.11 -0.11)">
      <use xlink:href="#DejaVuSans-73"/>
      <use x="29.492188" xlink:href="#DejaVuSans-110"/>
      <use x="92.871094" xlink:href="#DejaVuSans-100"/>
      <use x="156.347656" xlink:href="#DejaVuSans-101"/>
      <use x="217.855469" xlink:href="#DejaVuSans-120"/>
     </g>
    </g>
   </g>
   <g id="matplotlib.axis_2">
    <g id="ytick_1">
     <g id="line2d_11">
      <path clip-path="url(#p9b784bab91)" d="M 37.424646 223.992979 
L 429.165354 223.992979 
" style="fill:none;stroke:#000000;stroke-linecap:square;stroke-opacity:0.1;stroke-width:0.5;"/>
     </g>
     <g id="line2d_12">
      <defs>
       <path d="M 0 0 
L 3.5 0 
" id="mbcfa445412" style="stroke:#000000;stroke-width:0.8;"/>
      </defs>
      <g>
       <use style="stroke:#000000;stroke-width:0.8;" x="37.424646" xlink:href="#mbcfa445412" y="223.992979"/>
      </g>
     </g>
     <g id="text_7">
      <!-- 2.5 -->
      <g transform="translate(21.202146 227.032354)scale(0.08 -0.08)">
       <use xlink:href="#DejaVuSans-50"/>
       <use x="63.623047" xlink:href="#DejaVuSans-46"/>
       <use x="95.410156" xlink:href="#DejaVuSans-53"/>
      </g>
     </g>
    </g>
    <g id="ytick_2">
     <g id="line2d_13">
      <path clip-path="url(#p9b784bab91)" d="M 37.424646 178.698929 
L 429.165354 178.698929 
" style="fill:none;stroke:#000000;stroke-linecap:square;stroke-opacity:0.1;stroke-width:0.5;"/>
     </g>
     <g id="line2d_14">
      <g>
       <use style="stroke:#000000;stroke-width:0.8;" x="37.424646" xlink:href="#mbcfa445412" y="178.698929"/>
      </g>
     </g>
     <g id="text_8">
      <!-- 5.0 -->
      <g transform="translate(21.202146 181.738304)scale(0.08 -0.08)">
       <use xlink:href="#DejaVuSans-53"/>
       <use x="63.623047" xlink:href="#DejaVuSans-46"/>
       <use x="95.410156" xlink:href="#DejaVuSans-48"/>
      </g>
     </g>
    </g>
    <g id="ytick_3">
     <g id="line2d_15">
      <path clip-path="url(#p9b784bab91)" d="M 37.424646 133.404879 
L 429.165354 133.404879 
" style="fill:none;stroke:#000000;stroke-linecap:square;stroke-opacity:0.1;stroke-width:0.5;"/>
     </g>
     <g id="line2d_16">
      <g>
       <use style="stroke:#000000;stroke-width:0.8;" x="37.424646" xlink:href="#mbcfa445412" y="133.404879"/>
      </g>
     </g>
     <g id="text_9">
      <!-- 7.5 -->
      <g transform="translate(21.202146 136.444254)scale(0.08 -0.08)">
       <use xlink:href="#DejaVuSans-55"/>
       <use x="63.623047" xlink:href="#DejaVuSans-46"/>
       <use x="95.410156" xlink:href="#DejaVuSans-53"/>
      </g>
     </g>
    </g>
    <g id="ytick_4">
     <g id="line2d_17">
      <path clip-path="url(#p9b784bab91)" d="M 37.424646 88.110829 
L 429.165354 88.110829 
" style="fill:none;stroke:#000000;stroke-linecap:square;stroke-opacity:0.1;stroke-width:0.5;"/>
     </g>
     <g id="line2d_18">
      <g>
       <use style="stroke:#000000;stroke-width:0.8;" x="37.424646" xlink:href="#mbcfa445412" y="88.110829"/>
      </g>
     </g>
     <g id="text_10">
      <!-- 10.0 -->
      <g transform="translate(16.112146 91.150204)scale(0.08 -0.08)">
       <use xlink:href="#DejaVuSans-49"/>
       <use x="63.623047" xlink:href="#DejaVuSans-48"/>
       <use x="127.246094" xlink:href="#DejaVuSans-46"/>
       <use x="159.033203" xlink:href="#DejaVuSans-48"/>
      </g>
     </g>
    </g>
    <g id="ytick_5">
     <g id="line2d_19">
      <path clip-path="url(#p9b784bab91)" d="M 37.424646 42.816779 
L 429.165354 42.816779 
" style="fill:none;stroke:#000000;stroke-linecap:square;stroke-opacity:0.1;stroke-width:0.5;"/>
     </g>
     <g id="line2d_20">
      <g>
       <use style="stroke:#000000;stroke-width:0.8;" x="37.424646" xlink:href="#mbcfa445412" y="42.816779"/>
      </g>
     </g>
     <g id="text_11">
      <!-- 12.5 -->
      <g transform="translate(16.112146 45.856154)scale(0.08 -0.08)">
       <use xlink:href="#DejaVuSans-49"/>
       <use x="63.623047" xlink:href="#DejaVuSans-50"/>
       <use x="127.246094" xlink:href="#DejaVuSans-46"/>
       <use x="159.033203" xlink:href="#DejaVuSans-53"/>
      </g>
     </g>
    </g>
    <g id="text_12">
     <!-- Value -->
     <defs>
      <path d="M 28.609375 0 
L 0.78125 72.90625 
L 11.078125 72.90625 
L 34.1875 11.53125 
L 57.328125 72.90625 
L 67.578125 72.90625 
L 39.796875 0 
z
" id="DejaVuSans-86"/>
      <path d="M 34.28125 27.484375 
Q 23.390625 27.484375 19.1875 25 
Q 14.984375 22.515625 14.984375 16.5 
Q 14.984375 11.71875 18.140625 8.90625 
Q 21.296875 6.109375 26.703125 6.109375 
Q 34.1875 6.109375 38.703125 11.40625 
Q 43.21875 16.703125 43.21875 25.484375 
L 43.21875 27.484375 
z
M 52.203125 31.203125 
L 52.203125 0 
L 43.21875 0 
L 43.21875 8.296875 
Q 40.140625 3.328125 35.546875 0.953125 
Q 30.953125 -1.421875 24.3125 -1.421875 
Q 15.921875 -1.421875 10.953125 3.296875 
Q 6 8.015625 6 15.921875 
Q 6 25.140625 12.171875 29.828125 
Q 18.359375 34.515625 30.609375 34.515625 
L 43.21875 34.515625 
L 43.21875 35.40625 
Q 43.21875 41.609375 39.140625 45 
Q 35.0625 48.390625 27.6875 48.390625 
Q 23 48.390625 18.546875 47.265625 
Q 14.109375 46.140625 10.015625 43.890625 
L 10.015625 52.203125 
Q 14.9375 54.109375 19.578125 55.046875 
Q 24.21875 56 28.609375 56 
Q 40.484375 56 46.34375 49.84375 
Q 52.203125 43.703125 52.203125 31.203125 
z
" id="DejaVuSans-97"/>
      <path d="M 9.421875 75.984375 
L 18.40625 75.984375 
L 18.40625 0 
L 9.421875 0 
z
" id="DejaVuSans-108"/>
      <path d="M 8.5 21.578125 
L 8.5 54.6875 
L 17.484375 54.6875 
L 17.484375 21.921875 
Q 17.484375 14.15625 20.5 10.265625 
Q 23.53125 6.390625 29.59375 6.390625 
Q 36.859375 6.390625 41.078125 11.03125 
Q 45.3125 15.671875 45.3125 23.6875 
L 45.3125 54.6875 
L 54.296875 54.6875 
L 54.296875 0 
L 45.3125 0 
L 45.3125 8.40625 
Q 42.046875 3.421875 37.71875 1 
Q 33.40625 -1.421875 27.6875 -1.421875 
Q 18.265625 -1.421875 13.375 4.4375 
Q 8.5 10.296875 8.5 21.578125 
z
M 31.109375 56 
z
" id="DejaVuSans-117"/>
     </defs>
     <g transform="translate(9.824489 147.494609)rotate(-90)scale(0.11 -0.11)">
      <use xlink:href="#DejaVuSans-86"/>
      <use x="68.298828" xlink:href="#DejaVuSans-97"/>
      <use x="129.578125" xlink:href="#DejaVuSans-108"/>
      <use x="157.361328" xlink:href="#DejaVuSans-117"/>
      <use x="220.740234" xlink:href="#DejaVuSans-101"/>
     </g>
    </g>
   </g>
   <g id="line2d_21">
    <path clip-path="url(#p9b784bab91)" d="M 48.511647 251.169409 
" style="fill:none;stroke:#000000;stroke-linecap:round;"/>
   </g>
   <g id="line2d_22">
    <path clip-path="url(#p9b784bab91)" d="M 48.511647 253.795806 
L 48.511647 248.543013 
" style="fill:none;stroke:#000000;stroke-linecap:round;"/>
   </g>
   <g id="PathCollection_1">
    <defs>
     <path d="M 2 0 
L -2 -0 
" id="m182f1995d9" style="stroke:#000000;stroke-width:1.5;"/>
    </defs>
    <g clip-path="url(#p9b784bab91)">
     <use style="stroke:#000000;stroke-width:1.5;" x="48.511647" xlink:href="#m182f1995d9" y="253.795806"/>
     <use style="stroke:#000000;stroke-width:1.5;" x="48.511647" xlink:href="#m182f1995d9" y="248.543013"/>
    </g>
   </g>
   <g id="line2d_23">
    <path clip-path="url(#p9b784bab91)" d="M 79.308872 233.051789 
" style="fill:none;stroke:#000000;stroke-linecap:round;"/>
   </g>
   <g id="line2d_24">
    <path clip-path="url(#p9b784bab91)" d="M 79.308872 242.88422 
L 79.308872 223.219359 
" style="fill:none;stroke:#000000;stroke-linecap:round;"/>
   </g>
   <g id="PathCollection_2">
    <g clip-path="url(#p9b784bab91)">
     <use style="stroke:#000000;stroke-width:1.5;" x="79.308872" xlink:href="#m182f1995d9" y="242.88422"/>
     <use style="stroke:#000000;stroke-width:1.5;" x="79.308872" xlink:href="#m182f1995d9" y="223.219359"/>
    </g>
   </g>
   <g id="patch_3">
    <path d="M 37.424646 261.105354 
L 37.424646 2.834646 
" style="fill:none;stroke:#000000;stroke-linecap:square;stroke-linejoin:miter;"/>
   </g>
   <g id="patch_4">
    <path d="M 37.424646 261.105354 
L 429.165354 261.105354 
" style="fill:none;stroke:#000000;stroke-linecap:square;stroke-linejoin:miter;"/>
   </g>
   <g id="line2d_25">
    <path clip-path="url(#p9b784bab91)" d="M 110.106098 214.934169 
" style="fill:none;stroke:#000000;stroke-linecap:round;"/>
   </g>
   <g id="line2d_26">
    <path clip-path="url(#p9b784bab91)" d="M 110.106098 220.637712 
L 110.106098 209.230627 
" style="fill:none;stroke:#000000;stroke-linecap:round;"/>
   </g>
   <g id="PathCollection_3">
    <g clip-path="url(#p9b784bab91)">
     <use style="stroke:#000000;stroke-width:1.5;" x="110.106098" xlink:href="#m182f1995d9" y="220.637712"/>
     <use style="stroke:#000000;stroke-width:1.5;" x="110.106098" xlink:href="#m182f1995d9" y="209.230627"/>
    </g>
   </g>
   <g id="line2d_27">
    <path clip-path="url(#p9b784bab91)" d="M 140.903323 196.816549 
" style="fill:none;stroke:#000000;stroke-linecap:round;"/>
   </g>
   <g id="line2d_28">
    <path clip-path="url(#p9b784bab91)" d="M 140.903323 206.355021 
L 140.903323 187.278078 
" style="fill:none;stroke:#000000;stroke-linecap:round;"/>
   </g>
   <g id="PathCollection_4">
    <g clip-path="url(#p9b784bab91)">
     <use style="stroke:#000000;stroke-width:1.5;" x="140.903323" xlink:href="#m182f1995d9" y="206.355021"/>
     <use style="stroke:#000000;stroke-width:1.5;" x="140.903323" xlink:href="#m182f1995d9" y="187.278078"/>
    </g>
   </g>
   <g id="line2d_29">
    <path clip-path="url(#p9b784bab91)" d="M 171.700549 178.698929 
" style="fill:none;stroke:#000000;stroke-linecap:round;"/>
   </g>
   <g id="line2d_30">
    <path clip-path="url(#p9b784bab91)" d="M 171.700549 190.724119 
L 171.700549 166.673739 
" style="fill:none;stroke:#000000;stroke-linecap:round;"/>
   </g>
   <g id="PathCollection_5">
    <g clip-path="url(#p9b784bab91)">
     <use style="stroke:#000000;stroke-width:1.5;" x="171.700549" xlink:href="#m182f1995d9" y="190.724119"/>
     <use style="stroke:#000000;stroke-width:1.5;" x="171.700549" xlink:href="#m182f1995d9" y="166.673739"/>
    </g>
   </g>
   <g id="line2d_31">
    <path clip-path="url(#p9b784bab91)" d="M 202.497774 160.581309 
" style="fill:none;stroke:#000000;stroke-linecap:round;"/>
   </g>
   <g id="line2d_32">
    <path clip-path="url(#p9b784bab91)" d="M 202.497774 175.43599 
L 202.497774 145.726628 
" style="fill:none;stroke:#000000;stroke-linecap:round;"/>
   </g>
   <g id="PathCollection_6">
    <g clip-path="url(#p9b784bab91)">
     <use style="stroke:#000000;stroke-width:1.5;" x="202.497774" xlink:href="#m182f1995d9" y="175.43599"/>
     <use style="stroke:#000000;stroke-width:1.5;" x="202.497774" xlink:href="#m182f1995d9" y="145.726628"/>
    </g>
   </g>
   <g id="line2d_33">
    <path clip-path="url(#p9b784bab91)" d="M 233.295 142.463689 
" style="fill:none;stroke:#000000;stroke-linecap:round;"/>
   </g>
   <g id="line2d_34">
    <path clip-path="url(#p9b784bab91)" d="M 233.295 153.482399 
L 233.295 131.444979 
" style="fill:none;stroke:#000000;stroke-linecap:round;"/>
   </g>
   <g id="PathCollection_7">
    <g clip-path="url(#p9b784bab91)">
     <use style="stroke:#000000;stroke-width:1.5;" x="233.295" xlink:href="#m182f1995d9" y="153.482399"/>
     <use style="stroke:#000000;stroke-width:1.5;" x="233.295" xlink:href="#m182f1995d9" y="131.444979"/>
    </g>
   </g>
   <g id="line2d_35">
    <path clip-path="url(#p9b784bab91)" d="M 264.092226 124.346069 
" style="fill:none;stroke:#000000;stroke-linecap:round;"/>
   </g>
   <g id="line2d_36">
    <path clip-path="url(#p9b784bab91)" d="M 264.092226 142.55829 
L 264.092226 106.133849 
" style="fill:none;stroke:#000000;stroke-linecap:round;"/>
   </g>
   <g id="PathCollection_8">
    <g clip-path="url(#p9b784bab91)">
     <use style="stroke:#000000;stroke-width:1.5;" x="264.092226" xlink:href="#m182f1995d9" y="142.55829"/>
     <use style="stroke:#000000;stroke-width:1.5;" x="264.092226" xlink:href="#m182f1995d9" y="106.133849"/>
    </g>
   </g>
   <g id="line2d_37">
    <path clip-path="url(#p9b784bab91)" d="M 294.889451 106.228449 
" style="fill:none;stroke:#000000;stroke-linecap:round;"/>
   </g>
   <g id="line2d_38">
    <path clip-path="url(#p9b784bab91)" d="M 294.889451 123.399612 
L 294.889451 89.057286 
" style="fill:none;stroke:#000000;stroke-linecap:round;"/>
   </g>
   <g id="PathCollection_9">
    <g clip-path="url(#p9b784bab91)">
     <use style="stroke:#000000;stroke-width:1.5;" x="294.889451" xlink:href="#m182f1995d9" y="123.399612"/>
     <use style="stroke:#000000;stroke-width:1.5;" x="294.889451" xlink:href="#m182f1995d9" y="89.057286"/>
    </g>
   </g>
   <g id="line2d_39">
    <path clip-path="url(#p9b784bab91)" d="M 325.686677 88.110829 
" style="fill:none;stroke:#000000;stroke-linecap:round;"/>
   </g>
   <g id="line2d_40">
    <path clip-path="url(#p9b784bab91)" d="M 325.686677 105.025777 
L 325.686677 71.195881 
" style="fill:none;stroke:#000000;stroke-linecap:round;"/>
   </g>
   <g id="PathCollection_10">
    <g clip-path="url(#p9b784bab91)">
     <use style="stroke:#000000;stroke-width:1.5;" x="325.686677" xlink:href="#m182f1995d9" y="105.025777"/>
     <use style="stroke:#000000;stroke-width:1.5;" x="325.686677" xlink:href="#m182f1995d9" y="71.195881"/>
    </g>
   </g>
   <g id="line2d_41">
    <path clip-path="url(#p9b784bab91)" d="M 356.483902 69.993209 
" style="fill:none;stroke:#000000;stroke-linecap:round;"/>
   </g>
   <g id="line2d_42">
    <path clip-path="url(#p9b784bab91)" d="M 356.483902 91.406639 
L 356.483902 48.579779 
" style="fill:none;stroke:#000000;stroke-linecap:round;"/>
   </g>
   <g id="PathCollection_11">
    <g clip-path="url(#p9b784bab91)">
     <use style="stroke:#000000;stroke-width:1.5;" x="356.483902" xlink:href="#m182f1995d9" y="91.406639"/>
     <use style="stroke:#000000;stroke-width:1.5;" x="356.483902" xlink:href="#m182f1995d9" y="48.579779"/>
    </g>
   </g>
   <g id="line2d_43">
    <path clip-path="url(#p9b784bab91)" d="M 387.281128 51.875589 
" style="fill:none;stroke:#000000;stroke-linecap:round;"/>
   </g>
   <g id="line2d_44">
    <path clip-path="url(#p9b784bab91)" d="M 387.281128 73.099359 
L 387.281128 30.651819 
" style="fill:none;stroke:#000000;stroke-linecap:round;"/>
   </g>
   <g id="PathCollection_12">
    <g clip-path="url(#p9b784bab91)">
     <use style="stroke:#000000;stroke-width:1.5;" x="387.281128" xlink:href="#m182f1995d9" y="73.099359"/>
     <use style="stroke:#000000;stroke-width:1.5;" x="387.281128" xlink:href="#m182f1995d9" y="30.651819"/>
    </g>
   </g>
   <g id="line2d_45">
    <path clip-path="url(#p9b784bab91)" d="M 418.078353 33.757969 
" style="fill:none;stroke:#000000;stroke-linecap:round;"/>
   </g>
   <g id="line2d_46">
    <path clip-path="url(#p9b784bab91)" d="M 418.078353 57.371744 
L 418.078353 10.144194 
" style="fill:none;stroke:#000000;stroke-linecap:round;"/>
   </g>
   <g id="PathCollection_13">
    <g clip-path="url(#p9b784bab91)">
     <use style="stroke:#000000;stroke-width:1.5;" x="418.078353" xlink:href="#m182f1995d9" y="57.371744"/>
     <use style="stroke:#000000;stroke-width:1.5;" x="418.078353" xlink:href="#m182f1995d9" y="10.144194"/>
    </g>
   </g>
  </g>
 </g>
 <defs>
  <clipPath id="p9b784bab91">
   <rect height="258.270709" width="391.740709" x="37.424646" y="2.834646"/>
  </clipPath>
 </defs>
</svg>
