<?xml version="1.0" encoding="utf-8"?>
<svg xmlns="http://www.w3.org/2000/svg" xmlns:xlink="http://www.w3.org/1999/xlink" width="600" height="400" viewBox="0 0 2400 1600">
<defs>
  <clipPath id="clip4200">
    <rect x="0" y="0" width="2000" height="2000"/>
  </clipPath>
</defs>
<defs>
  <clipPath id="clip4201">
    <rect x="0" y="0" width="2400" height="1600"/>
  </clipPath>
</defs>
<polygon clip-path="url(#clip4201)" points="
0,1600 2400,1600 2400,0 0,0 
  " fill="#ffffff" fill-rule="evenodd" fill-opacity="1"/>
<defs>
  <clipPath id="clip4202">
    <rect x="480" y="0" width="1681" height="1600"/>
  </clipPath>
</defs>
<polygon clip-path="url(#clip4201)" points="
304.673,1440.48 2321.26,1440.48 2321.26,47.2441 304.673,47.2441 
  " fill="#ffffff" fill-rule="evenodd" fill-opacity="1"/>
<defs>
  <clipPath id="clip4203">
    <rect x="304" y="47" width="2018" height="1394"/>
  </clipPath>
</defs>
<polyline clip-path="url(#clip4203)" style="stroke:#000000; stroke-width:2; stroke-opacity:0.1; fill:none" points="
  499.959,1440.48 499.959,47.2441 
  "/>
<polyline clip-path="url(#clip4203)" style="stroke:#000000; stroke-width:2; stroke-opacity:0.1; fill:none" points="
  890.803,1440.48 890.803,47.2441 
  "/>
<polyline clip-path="url(#clip4203)" style="stroke:#000000; stroke-width:2; stroke-opacity:0.1; fill:none" points="
  1281.65,1440.48 1281.65,47.2441 
  "/>
<polyline clip-path="url(#clip4203)" style="stroke:#000000; stroke-width:2; stroke-opacity:0.1; fill:none" points="
  1672.49,1440.48 1672.49,47.2441 
  "/>
<polyline clip-path="url(#clip4203)" style="stroke:#000000; stroke-width:2; stroke-opacity:0.1; fill:none" points="
  2063.33,1440.48 2063.33,47.2441 
  "/>
<polyline clip-path="url(#clip4203)" style="stroke:#000000; stroke-width:2; stroke-opacity:0.1; fill:none" points="
  304.673,1401.05 2321.26,1401.05 
  "/>
<polyline clip-path="url(#clip4203)" style="stroke:#000000; stroke-width:2; stroke-opacity:0.1; fill:none" points="
  304.673,1072.46 2321.26,1072.46 
  "/>
<polyline clip-path="url(#clip4203)" style="stroke:#000000; stroke-width:2; stroke-opacity:0.1; fill:none" points="
  304.673,743.863 2321.26,743.863 
  "/>
<polyline clip-path="url(#clip4203)" style="stroke:#000000; stroke-width:2; stroke-opacity:0.1; fill:none" points="
  304.673,415.269 2321.26,415.269 
  "/>
<polyline clip-path="url(#clip4203)" style="stroke:#000000; stroke-width:2; stroke-opacity:0.1; fill:none" points="
  304.673,86.6754 2321.26,86.6754 
  "/>
<polyline clip-path="url(#clip4201)" style="stroke:#000000; stroke-width:4; stroke-opacity:1; fill:none" points="
  304.673,1440.48 2321.26,1440.48 
  "/>
<polyline clip-path="url(#clip4201)" style="stroke:#000000; stroke-width:4; stroke-opacity:1; fill:none" points="
  304.673,1440.48 304.673,47.2441 
  "/>
<polyline clip-path="url(#clip4201)" style="stroke:#000000; stroke-width:4; stroke-opacity:1; fill:none" points="
  499.959,1440.48 499.959,1419.58 
  "/>
<polyline clip-path="url(#clip4201)" style="stroke:#000000; stroke-width:4; stroke-opacity:1; fill:none" points="
  890.803,1440.48 890.803,1419.58 
  "/>
<polyline clip-path="url(#clip4201)" style="stroke:#000000; stroke-width:4; stroke-opacity:1; fill:none" points="
  1281.65,1440.48 1281.65,1419.58 
  "/>
<polyline clip-path="url(#clip4201)" style="stroke:#000000; stroke-width:4; stroke-opacity:1; fill:none" points="
  1672.49,1440.48 1672.49,1419.58 
  "/>
<polyline clip-path="url(#clip4201)" style="stroke:#000000; stroke-width:4; stroke-opacity:1; fill:none" points="
  2063.33,1440.48 2063.33,1419.58 
  "/>
<polyline clip-path="url(#clip4201)" style="stroke:#000000; stroke-width:4; stroke-opacity:1; fill:none" points="
  304.673,1401.05 334.922,1401.05 
  "/>
<polyline clip-path="url(#clip4201)" style="stroke:#000000; stroke-width:4; stroke-opacity:1; fill:none" points="
  304.673,1072.46 334.922,1072.46 
  "/>
<polyline clip-path="url(#clip4201)" style="stroke:#000000; stroke-width:4; stroke-opacity:1; fill:none" points="
  304.673,743.863 334.922,743.863 
  "/>
<polyline clip-path="url(#clip4201)" style="stroke:#000000; stroke-width:4; stroke-opacity:1; fill:none" points="
  304.673,415.269 334.922,415.269 
  "/>
<polyline clip-path="url(#clip4201)" style="stroke:#000000; stroke-width:4; stroke-opacity:1; fill:none" points="
  304.673,86.6754 334.922,86.6754 
  "/>
<g clip-path="url(#clip4201)">
<text style="fill:#000000; fill-opacity:1; font-family:Arial,Helvetica Neue,Helvetica,sans-serif; font-size:48px; text-anchor:middle;" transform="rotate(0, 499.959, 1494.48)" x="499.959" y="1494.48">1.00</text>
</g>
<g clip-path="url(#clip4201)">
<text style="fill:#000000; fill-opacity:1; font-family:Arial,Helvetica Neue,Helvetica,sans-serif; font-size:48px; text-anchor:middle;" transform="rotate(0, 890.803, 1494.48)" x="890.803" y="1494.48">1.25</text>
</g>
<g clip-path="url(#clip4201)">
<text style="fill:#000000; fill-opacity:1; font-family:Arial,Helvetica Neue,Helvetica,sans-serif; font-size:48px; text-anchor:middle;" transform="rotate(0, 1281.65, 1494.48)" x="1281.65" y="1494.48">1.50</text>
</g>
<g clip-path="url(#clip4201)">
<text style="fill:#000000; fill-opacity:1; font-family:Arial,Helvetica Neue,Helvetica,sans-serif; font-size:48px; text-anchor:middle;" transform="rotate(0, 1672.49, 1494.48)" x="1672.49" y="1494.48">1.75</text>
</g>
<g clip-path="url(#clip4201)">
<text style="fill:#000000; fill-opacity:1; font-family:Arial,Helvetica Neue,Helvetica,sans-serif; font-size:48px; text-anchor:middle;" transform="rotate(0, 2063.33, 1494.48)" x="2063.33" y="1494.48">2.00</text>
</g>
<g clip-path="url(#clip4201)">
<text style="fill:#000000; fill-opacity:1; font-family:Arial,Helvetica Neue,Helvetica,sans-serif; font-size:48px; text-anchor:end;" transform="rotate(0, 280.673, 1418.55)" x="280.673" y="1418.55">0.0000</text>
</g>
<g clip-path="url(#clip4201)">
<text style="fill:#000000; fill-opacity:1; font-family:Arial,Helvetica Neue,Helvetica,sans-serif; font-size:48px; text-anchor:end;" transform="rotate(0, 280.673, 1089.96)" x="280.673" y="1089.96">0.0025</text>
</g>
<g clip-path="url(#clip4201)">
<text style="fill:#000000; fill-opacity:1; font-family:Arial,Helvetica Neue,Helvetica,sans-serif; font-size:48px; text-anchor:end;" transform="rotate(0, 280.673, 761.363)" x="280.673" y="761.363">0.0050</text>
</g>
<g clip-path="url(#clip4201)">
<text style="fill:#000000; fill-opacity:1; font-family:Arial,Helvetica Neue,Helvetica,sans-serif; font-size:48px; text-anchor:end;" transform="rotate(0, 280.673, 432.769)" x="280.673" y="432.769">0.0075</text>
</g>
<g clip-path="url(#clip4201)">
<text style="fill:#000000; fill-opacity:1; font-family:Arial,Helvetica Neue,Helvetica,sans-serif; font-size:48px; text-anchor:end;" transform="rotate(0, 280.673, 104.175)" x="280.673" y="104.175">0.0100</text>
</g>
<g clip-path="url(#clip4201)">
<text style="fill:#000000; fill-opacity:1; font-family:Arial,Helvetica Neue,Helvetica,sans-serif; font-size:66px; text-anchor:middle;" transform="rotate(0, 1312.97, 1590.4)" x="1312.97" y="1590.4">value</text>
</g>
<g clip-path="url(#clip4201)">
<text style="fill:#000000; fill-opacity:1; font-family:Arial,Helvetica Neue,Helvetica,sans-serif; font-size:66px; text-anchor:middle;" transform="rotate(-90, 57.6, 743.863)" x="57.6" y="743.863">probability density</text>
</g>
<polygon clip-path="url(#clip4203)" points="
415.589,1401.05 415.589,1401.05 428.096,1401.05 428.096,1401.05 415.589,1401.05 415.589,1401.05 
  " fill="#009af9" fill-rule="evenodd" fill-opacity="1"/>
<polyline clip-path="url(#clip4203)" style="stroke:#000000; stroke-width:4; stroke-opacity:1; fill:none" points="
  415.589,1401.05 415.589,1401.05 428.096,1401.05 415.589,1401.05 
  "/>
<polygon clip-path="url(#clip4203)" points="
431.223,1401.05 431.223,1401.05 443.73,1401.05 443.73,1401.05 431.223,1401.05 431.223,1401.05 
  " fill="#009af9" fill-rule="evenodd" fill-opacity="1"/>
<polyline clip-path="url(#clip4203)" style="stroke:#000000; stroke-width:4; stroke-opacity:1; fill:none" points="
  431.223,1401.05 431.223,1401.05 443.73,1401.05 431.223,1401.05 
  "/>
<polygon clip-path="url(#clip4203)" points="
446.857,1401.05 446.857,1401.05 459.364,1401.05 459.364,1401.05 446.857,1401.05 446.857,1401.05 
  " fill="#009af9" fill-rule="evenodd" fill-opacity="1"/>
<polyline clip-path="url(#clip4203)" style="stroke:#000000; stroke-width:4; stroke-opacity:1; fill:none" points="
  446.857,1401.05 446.857,1401.05 459.364,1401.05 446.857,1401.05 
  "/>
<polygon clip-path="url(#clip4203)" points="
462.49,1401.05 462.49,1401.05 474.997,1401.05 474.997,1401.05 462.49,1401.05 462.49,1401.05 
  " fill="#009af9" fill-rule="evenodd" fill-opacity="1"/>
<polyline clip-path="url(#clip4203)" style="stroke:#000000; stroke-width:4; stroke-opacity:1; fill:none" points="
  462.49,1401.05 462.49,1401.05 474.997,1401.05 462.49,1401.05 
  "/>
<polygon clip-path="url(#clip4203)" points="
478.124,1401.05 478.124,1401.05 490.631,1401.05 490.631,1401.05 478.124,1401.05 478.124,1401.05 
  " fill="#009af9" fill-rule="evenodd" fill-opacity="1"/>
<polyline clip-path="url(#clip4203)" style="stroke:#000000; stroke-width:4; stroke-opacity:1; fill:none" points="
  478.124,1401.05 478.124,1401.05 490.631,1401.05 478.124,1401.05 
  "/>
<polygon clip-path="url(#clip4203)" points="
493.758,86.6754 493.758,1401.05 506.265,1401.05 506.265,86.6754 493.758,86.6754 493.758,86.6754 
  " fill="#009af9" fill-rule="evenodd" fill-opacity="1"/>
<polyline clip-path="url(#clip4203)" style="stroke:#000000; stroke-width:4; stroke-opacity:1; fill:none" points="
  493.758,86.6754 493.758,1401.05 506.265,1401.05 506.265,86.6754 493.758,86.6754 
  "/>
<polygon clip-path="url(#clip4203)" points="
509.392,86.6754 509.392,1401.05 521.899,1401.05 521.899,86.6754 509.392,86.6754 509.392,86.6754 
  " fill="#009af9" fill-rule="evenodd" fill-opacity="1"/>
<polyline clip-path="url(#clip4203)" style="stroke:#000000; stroke-width:4; stroke-opacity:1; fill:none" points="
  509.392,86.6754 509.392,1401.05 521.899,1401.05 521.899,86.6754 509.392,86.6754 
  "/>
<polygon clip-path="url(#clip4203)" points="
525.025,86.6754 525.025,1401.05 537.532,1401.05 537.532,86.6754 525.025,86.6754 525.025,86.6754 
  " fill="#009af9" fill-rule="evenodd" fill-opacity="1"/>
<polyline clip-path="url(#clip4203)" style="stroke:#000000; stroke-width:4; stroke-opacity:1; fill:none" points="
  525.025,86.6754 525.025,1401.05 537.532,1401.05 537.532,86.6754 525.025,86.6754 
  "/>
<polygon clip-path="url(#clip4203)" points="
540.659,86.6754 540.659,1401.05 553.166,1401.05 553.166,86.6754 540.659,86.6754 540.659,86.6754 
  " fill="#009af9" fill-rule="evenodd" fill-opacity="1"/>
<polyline clip-path="url(#clip4203)" style="stroke:#000000; stroke-width:4; stroke-opacity:1; fill:none" points="
  540.659,86.6754 540.659,1401.05 553.166,1401.05 553.166,86.6754 540.659,86.6754 
  "/>
<polygon clip-path="url(#clip4203)" points="
556.293,86.6754 556.293,1401.05 568.8,1401.05 568.8,86.6754 556.293,86.6754 556.293,86.6754 
  " fill="#009af9" fill-rule="evenodd" fill-opacity="1"/>
<polyline clip-path="url(#clip4203)" style="stroke:#000000; stroke-width:4; stroke-opacity:1; fill:none" points="
  556.293,86.6754 556.293,1401.05 568.8,1401.05 568.8,86.6754 556.293,86.6754 
  "/>
<polygon clip-path="url(#clip4203)" points="
571.927,86.6754 571.927,1401.05 584.434,1401.05 584.434,86.6754 571.927,86.6754 571.927,86.6754 
  " fill="#009af9" fill-rule="evenodd" fill-opacity="1"/>
<polyline clip-path="url(#clip4203)" style="stroke:#000000; stroke-width:4; stroke-opacity:1; fill:none" points="
  571.927,86.6754 571.927,1401.05 584.434,1401.05 584.434,86.6754 571.927,86.6754 
  "/>
<polygon clip-path="url(#clip4203)" points="
587.56,86.6754 587.56,1401.05 600.067,1401.05 600.067,86.6754 587.56,86.6754 587.56,86.6754 
  " fill="#009af9" fill-rule="evenodd" fill-opacity="1"/>
<polyline clip-path="url(#clip4203)" style="stroke:#000000; stroke-width:4; stroke-opacity:1; fill:none" points="
  587.56,86.6754 587.56,1401.05 600.067,1401.05 600.067,86.6754 587.56,86.6754 
  "/>
<polygon clip-path="url(#clip4203)" points="
603.194,86.6754 603.194,1401.05 615.701,1401.05 615.701,86.6754 603.194,86.6754 603.194,86.6754 
  " fill="#009af9" fill-rule="evenodd" fill-opacity="1"/>
<polyline clip-path="url(#clip4203)" style="stroke:#000000; stroke-width:4; stroke-opacity:1; fill:none" points="
  603.194,86.6754 603.194,1401.05 615.701,1401.05 615.701,86.6754 603.194,86.6754 
  "/>
<polygon clip-path="url(#clip4203)" points="
618.828,86.6754 618.828,1401.05 631.335,1401.05 631.335,86.6754 618.828,86.6754 618.828,86.6754 
  " fill="#009af9" fill-rule="evenodd" fill-opacity="1"/>
<polyline clip-path="url(#clip4203)" style="stroke:#000000; stroke-width:4; stroke-opacity:1; fill:none" points="
  618.828,86.6754 618.828,1401.05 631.335,1401.05 631.335,86.6754 618.828,86.6754 
  "/>
<polygon clip-path="url(#clip4203)" points="
634.462,86.6754 634.462,1401.05 646.969,1401.05 646.969,86.6754 634.462,86.6754 634.462,86.6754 
  " fill="#009af9" fill-rule="evenodd" fill-opacity="1"/>
<polyline clip-path="url(#clip4203)" style="stroke:#000000; stroke-width:4; stroke-opacity:1; fill:none" points="
  634.462,86.6754 634.462,1401.05 646.969,1401.05 646.969,86.6754 634.462,86.6754 
  "/>
<polygon clip-path="url(#clip4203)" points="
650.095,86.6754 650.095,1401.05 662.602,1401.05 662.602,86.6754 650.095,86.6754 650.095,86.6754 
  " fill="#009af9" fill-rule="evenodd" fill-opacity="1"/>
<polyline clip-path="url(#clip4203)" style="stroke:#000000; stroke-width:4; stroke-opacity:1; fill:none" points="
  650.095,86.6754 650.095,1401.05 662.602,1401.05 662.602,86.6754 650.095,86.6754 
  "/>
<polygon clip-path="url(#clip4203)" points="
665.729,86.6754 665.729,1401.05 678.236,1401.05 678.236,86.6754 665.729,86.6754 665.729,86.6754 
  " fill="#009af9" fill-rule="evenodd" fill-opacity="1"/>
<polyline clip-path="url(#clip4203)" style="stroke:#000000; stroke-width:4; stroke-opacity:1; fill:none" points="
  665.729,86.6754 665.729,1401.05 678.236,1401.05 678.236,86.6754 665.729,86.6754 
  "/>
<polygon clip-path="url(#clip4203)" points="
681.363,86.6754 681.363,1401.05 693.87,1401.05 693.87,86.6754 681.363,86.6754 681.363,86.6754 
  " fill="#009af9" fill-rule="evenodd" fill-opacity="1"/>
<polyline clip-path="url(#clip4203)" style="stroke:#000000; stroke-width:4; stroke-opacity:1; fill:none" points="
  681.363,86.6754 681.363,1401.05 693.87,1401.05 693.87,86.6754 681.363,86.6754 
  "/>
<polygon clip-path="url(#clip4203)" points="
696.997,86.6754 696.997,1401.05 709.504,1401.05 709.504,86.6754 696.997,86.6754 696.997,86.6754 
  " fill="#009af9" fill-rule="evenodd" fill-opacity="1"/>
<polyline clip-path="url(#clip4203)" style="stroke:#000000; stroke-width:4; stroke-opacity:1; fill:none" points="
  696.997,86.6754 696.997,1401.05 709.504,1401.05 709.504,86.6754 696.997,86.6754 
  "/>
<polygon clip-path="url(#clip4203)" points="
712.63,86.6754 712.63,1401.05 725.137,1401.05 725.137,86.6754 712.63,86.6754 712.63,86.6754 
  " fill="#009af9" fill-rule="evenodd" fill-opacity="1"/>
<polyline clip-path="url(#clip4203)" style="stroke:#000000; stroke-width:4; stroke-opacity:1; fill:none" points="
  712.63,86.6754 712.63,1401.05 725.137,1401.05 725.137,86.6754 712.63,86.6754 
  "/>
<polygon clip-path="url(#clip4203)" points="
728.264,86.6754 728.264,1401.05 740.771,1401.05 740.771,86.6754 728.264,86.6754 728.264,86.6754 
  " fill="#009af9" fill-rule="evenodd" fill-opacity="1"/>
<polyline clip-path="url(#clip4203)" style="stroke:#000000; stroke-width:4; stroke-opacity:1; fill:none" points="
  728.264,86.6754 728.264,1401.05 740.771,1401.05 740.771,86.6754 728.264,86.6754 
  "/>
<polygon clip-path="url(#clip4203)" points="
743.898,86.6754 743.898,1401.05 756.405,1401.05 756.405,86.6754 743.898,86.6754 743.898,86.6754 
  " fill="#009af9" fill-rule="evenodd" fill-opacity="1"/>
<polyline clip-path="url(#clip4203)" style="stroke:#000000; stroke-width:4; stroke-opacity:1; fill:none" points="
  743.898,86.6754 743.898,1401.05 756.405,1401.05 756.405,86.6754 743.898,86.6754 
  "/>
<polygon clip-path="url(#clip4203)" points="
759.532,86.6754 759.532,1401.05 772.039,1401.05 772.039,86.6754 759.532,86.6754 759.532,86.6754 
  " fill="#009af9" fill-rule="evenodd" fill-opacity="1"/>
<polyline clip-path="url(#clip4203)" style="stroke:#000000; stroke-width:4; stroke-opacity:1; fill:none" points="
  759.532,86.6754 759.532,1401.05 772.039,1401.05 772.039,86.6754 759.532,86.6754 
  "/>
<polygon clip-path="url(#clip4203)" points="
775.165,86.6754 775.165,1401.05 787.672,1401.05 787.672,86.6754 775.165,86.6754 775.165,86.6754 
  " fill="#009af9" fill-rule="evenodd" fill-opacity="1"/>
<polyline clip-path="url(#clip4203)" style="stroke:#000000; stroke-width:4; stroke-opacity:1; fill:none" points="
  775.165,86.6754 775.165,1401.05 787.672,1401.05 787.672,86.6754 775.165,86.6754 
  "/>
<polygon clip-path="url(#clip4203)" points="
790.799,86.6754 790.799,1401.05 803.306,1401.05 803.306,86.6754 790.799,86.6754 790.799,86.6754 
  " fill="#009af9" fill-rule="evenodd" fill-opacity="1"/>
<polyline clip-path="url(#clip4203)" style="stroke:#000000; stroke-width:4; stroke-opacity:1; fill:none" points="
  790.799,86.6754 790.799,1401.05 803.306,1401.05 803.306,86.6754 790.799,86.6754 
  "/>
<polygon clip-path="url(#clip4203)" points="
806.433,86.6754 806.433,1401.05 818.94,1401.05 818.94,86.6754 806.433,86.6754 806.433,86.6754 
  " fill="#009af9" fill-rule="evenodd" fill-opacity="1"/>
<polyline clip-path="url(#clip4203)" style="stroke:#000000; stroke-width:4; stroke-opacity:1; fill:none" points="
  806.433,86.6754 806.433,1401.05 818.94,1401.05 818.94,86.6754 806.433,86.6754 
  "/>
<polygon clip-path="url(#clip4203)" points="
822.067,86.6754 822.067,1401.05 834.574,1401.05 834.574,86.6754 822.067,86.6754 822.067,86.6754 
  " fill="#009af9" fill-rule="evenodd" fill-opacity="1"/>
<polyline clip-path="url(#clip4203)" style="stroke:#000000; stroke-width:4; stroke-opacity:1; fill:none" points="
  822.067,86.6754 822.067,1401.05 834.574,1401.05 834.574,86.6754 822.067,86.6754 
  "/>
<polygon clip-path="url(#clip4203)" points="
837.7,86.6754 837.7,1401.05 850.207,1401.05 850.207,86.6754 837.7,86.6754 837.7,86.6754 
  " fill="#009af9" fill-rule="evenodd" fill-opacity="1"/>
<polyline clip-path="url(#clip4203)" style="stroke:#000000; stroke-width:4; stroke-opacity:1; fill:none" points="
  837.7,86.6754 837.7,1401.05 850.207,1401.05 850.207,86.6754 837.7,86.6754 
  "/>
<polygon clip-path="url(#clip4203)" points="
853.334,86.6754 853.334,1401.05 865.841,1401.05 865.841,86.6754 853.334,86.6754 853.334,86.6754 
  " fill="#009af9" fill-rule="evenodd" fill-opacity="1"/>
<polyline clip-path="url(#clip4203)" style="stroke:#000000; stroke-width:4; stroke-opacity:1; fill:none" points="
  853.334,86.6754 853.334,1401.05 865.841,1401.05 865.841,86.6754 853.334,86.6754 
  "/>
<polygon clip-path="url(#clip4203)" points="
868.968,86.6754 868.968,1401.05 881.475,1401.05 881.475,86.6754 868.968,86.6754 868.968,86.6754 
  " fill="#009af9" fill-rule="evenodd" fill-opacity="1"/>
<polyline clip-path="url(#clip4203)" style="stroke:#000000; stroke-width:4; stroke-opacity:1; fill:none" points="
  868.968,86.6754 868.968,1401.05 881.475,1401.05 881.475,86.6754 868.968,86.6754 
  "/>
<polygon clip-path="url(#clip4203)" points="
884.602,86.6754 884.602,1401.05 897.109,1401.05 897.109,86.6754 884.602,86.6754 884.602,86.6754 
  " fill="#009af9" fill-rule="evenodd" fill-opacity="1"/>
<polyline clip-path="url(#clip4203)" style="stroke:#000000; stroke-width:4; stroke-opacity:1; fill:none" points="
  884.602,86.6754 884.602,1401.05 897.109,1401.05 897.109,86.6754 884.602,86.6754 
  "/>
<polygon clip-path="url(#clip4203)" points="
900.235,86.6754 900.235,1401.05 912.742,1401.05 912.742,86.6754 900.235,86.6754 900.235,86.6754 
  " fill="#009af9" fill-rule="evenodd" fill-opacity="1"/>
<polyline clip-path="url(#clip4203)" style="stroke:#000000; stroke-width:4; stroke-opacity:1; fill:none" points="
  900.235,86.6754 900.235,1401.05 912.742,1401.05 912.742,86.6754 900.235,86.6754 
  "/>
<polygon clip-path="url(#clip4203)" points="
915.869,86.6754 915.869,1401.05 928.376,1401.05 928.376,86.6754 915.869,86.6754 915.869,86.6754 
  " fill="#009af9" fill-rule="evenodd" fill-opacity="1"/>
<polyline clip-path="url(#clip4203)" style="stroke:#000000; stroke-width:4; stroke-opacity:1; fill:none" points="
  915.869,86.6754 915.869,1401.05 928.376,1401.05 928.376,86.6754 915.869,86.6754 
  "/>
<polygon clip-path="url(#clip4203)" points="
931.503,86.6754 931.503,1401.05 944.01,1401.05 944.01,86.6754 931.503,86.6754 931.503,86.6754 
  " fill="#009af9" fill-rule="evenodd" fill-opacity="1"/>
<polyline clip-path="url(#clip4203)" style="stroke:#000000; stroke-width:4; stroke-opacity:1; fill:none" points="
  931.503,86.6754 931.503,1401.05 944.01,1401.05 944.01,86.6754 931.503,86.6754 
  "/>
<polygon clip-path="url(#clip4203)" points="
947.137,86.6754 947.137,1401.05 959.644,1401.05 959.644,86.6754 947.137,86.6754 947.137,86.6754 
  " fill="#009af9" fill-rule="evenodd" fill-opacity="1"/>
<polyline clip-path="url(#clip4203)" style="stroke:#000000; stroke-width:4; stroke-opacity:1; fill:none" points="
  947.137,86.6754 947.137,1401.05 959.644,1401.05 959.644,86.6754 947.137,86.6754 
  "/>
<polygon clip-path="url(#clip4203)" points="
962.77,86.6754 962.77,1401.05 975.277,1401.05 975.277,86.6754 962.77,86.6754 962.77,86.6754 
  " fill="#009af9" fill-rule="evenodd" fill-opacity="1"/>
<polyline clip-path="url(#clip4203)" style="stroke:#000000; stroke-width:4; stroke-opacity:1; fill:none" points="
  962.77,86.6754 962.77,1401.05 975.277,1401.05 975.277,86.6754 962.77,86.6754 
  "/>
<polygon clip-path="url(#clip4203)" points="
978.404,86.6754 978.404,1401.05 990.911,1401.05 990.911,86.6754 978.404,86.6754 978.404,86.6754 
  " fill="#009af9" fill-rule="evenodd" fill-opacity="1"/>
<polyline clip-path="url(#clip4203)" style="stroke:#000000; stroke-width:4; stroke-opacity:1; fill:none" points="
  978.404,86.6754 978.404,1401.05 990.911,1401.05 990.911,86.6754 978.404,86.6754 
  "/>
<polygon clip-path="url(#clip4203)" points="
994.038,86.6754 994.038,1401.05 1006.54,1401.05 1006.54,86.6754 994.038,86.6754 994.038,86.6754 
  " fill="#009af9" fill-rule="evenodd" fill-opacity="1"/>
<polyline clip-path="url(#clip4203)" style="stroke:#000000; stroke-width:4; stroke-opacity:1; fill:none" points="
  994.038,86.6754 994.038,1401.05 1006.54,1401.05 1006.54,86.6754 994.038,86.6754 
  "/>
<polygon clip-path="url(#clip4203)" points="
1009.67,86.6754 1009.67,1401.05 1022.18,1401.05 1022.18,86.6754 1009.67,86.6754 1009.67,86.6754 
  " fill="#009af9" fill-rule="evenodd" fill-opacity="1"/>
<polyline clip-path="url(#clip4203)" style="stroke:#000000; stroke-width:4; stroke-opacity:1; fill:none" points="
  1009.67,86.6754 1009.67,1401.05 1022.18,1401.05 1022.18,86.6754 1009.67,86.6754 
  "/>
<polygon clip-path="url(#clip4203)" points="
1025.31,86.6754 1025.31,1401.05 1037.81,1401.05 1037.81,86.6754 1025.31,86.6754 1025.31,86.6754 
  " fill="#009af9" fill-rule="evenodd" fill-opacity="1"/>
<polyline clip-path="url(#clip4203)" style="stroke:#000000; stroke-width:4; stroke-opacity:1; fill:none" points="
  1025.31,86.6754 1025.31,1401.05 1037.81,1401.05 1037.81,86.6754 1025.31,86.6754 
  "/>
<polygon clip-path="url(#clip4203)" points="
1040.94,86.6754 1040.94,1401.05 1053.45,1401.05 1053.45,86.6754 1040.94,86.6754 1040.94,86.6754 
  " fill="#009af9" fill-rule="evenodd" fill-opacity="1"/>
<polyline clip-path="url(#clip4203)" style="stroke:#000000; stroke-width:4; stroke-opacity:1; fill:none" points="
  1040.94,86.6754 1040.94,1401.05 1053.45,1401.05 1053.45,86.6754 1040.94,86.6754 
  "/>
<polygon clip-path="url(#clip4203)" points="
1056.57,86.6754 1056.57,1401.05 1069.08,1401.05 1069.08,86.6754 1056.57,86.6754 1056.57,86.6754 
  " fill="#009af9" fill-rule="evenodd" fill-opacity="1"/>
<polyline clip-path="url(#clip4203)" style="stroke:#000000; stroke-width:4; stroke-opacity:1; fill:none" points="
  1056.57,86.6754 1056.57,1401.05 1069.08,1401.05 1069.08,86.6754 1056.57,86.6754 
  "/>
<polygon clip-path="url(#clip4203)" points="
1072.21,86.6754 1072.21,1401.05 1084.71,1401.05 1084.71,86.6754 1072.21,86.6754 1072.21,86.6754 
  " fill="#009af9" fill-rule="evenodd" fill-opacity="1"/>
<polyline clip-path="url(#clip4203)" style="stroke:#000000; stroke-width:4; stroke-opacity:1; fill:none" points="
  1072.21,86.6754 1072.21,1401.05 1084.71,1401.05 1084.71,86.6754 1072.21,86.6754 
  "/>
<polygon clip-path="url(#clip4203)" points="
1087.84,86.6754 1087.84,1401.05 1100.35,1401.05 1100.35,86.6754 1087.84,86.6754 1087.84,86.6754 
  " fill="#009af9" fill-rule="evenodd" fill-opacity="1"/>
<polyline clip-path="url(#clip4203)" style="stroke:#000000; stroke-width:4; stroke-opacity:1; fill:none" points="
  1087.84,86.6754 1087.84,1401.05 1100.35,1401.05 1100.35,86.6754 1087.84,86.6754 
  "/>
<polygon clip-path="url(#clip4203)" points="
1103.47,86.6754 1103.47,1401.05 1115.98,1401.05 1115.98,86.6754 1103.47,86.6754 1103.47,86.6754 
  " fill="#009af9" fill-rule="evenodd" fill-opacity="1"/>
<polyline clip-path="url(#clip4203)" style="stroke:#000000; stroke-width:4; stroke-opacity:1; fill:none" points="
  1103.47,86.6754 1103.47,1401.05 1115.98,1401.05 1115.98,86.6754 1103.47,86.6754 
  "/>
<polygon clip-path="url(#clip4203)" points="
1119.11,86.6754 1119.11,1401.05 1131.61,1401.05 1131.61,86.6754 1119.11,86.6754 1119.11,86.6754 
  " fill="#009af9" fill-rule="evenodd" fill-opacity="1"/>
<polyline clip-path="url(#clip4203)" style="stroke:#000000; stroke-width:4; stroke-opacity:1; fill:none" points="
  1119.11,86.6754 1119.11,1401.05 1131.61,1401.05 1131.61,86.6754 1119.11,86.6754 
  "/>
<polygon clip-path="url(#clip4203)" points="
1134.74,86.6754 1134.74,1401.05 1147.25,1401.05 1147.25,86.6754 1134.74,86.6754 1134.74,86.6754 
  " fill="#009af9" fill-rule="evenodd" fill-opacity="1"/>
<polyline clip-path="url(#clip4203)" style="stroke:#000000; stroke-width:4; stroke-opacity:1; fill:none" points="
  1134.74,86.6754 1134.74,1401.05 1147.25,1401.05 1147.25,86.6754 1134.74,86.6754 
  "/>
<polygon clip-path="url(#clip4203)" points="
1150.38,86.6754 1150.38,1401.05 1162.88,1401.05 1162.88,86.6754 1150.38,86.6754 1150.38,86.6754 
  " fill="#009af9" fill-rule="evenodd" fill-opacity="1"/>
<polyline clip-path="url(#clip4203)" style="stroke:#000000; stroke-width:4; stroke-opacity:1; fill:none" points="
  1150.38,86.6754 1150.38,1401.05 1162.88,1401.05 1162.88,86.6754 1150.38,86.6754 
  "/>
<polygon clip-path="url(#clip4203)" points="
1166.01,86.6754 1166.01,1401.05 1178.52,1401.05 1178.52,86.6754 1166.01,86.6754 1166.01,86.6754 
  " fill="#009af9" fill-rule="evenodd" fill-opacity="1"/>
<polyline clip-path="url(#clip4203)" style="stroke:#000000; stroke-width:4; stroke-opacity:1; fill:none" points="
  1166.01,86.6754 1166.01,1401.05 1178.52,1401.05 1178.52,86.6754 1166.01,86.6754 
  "/>
<polygon clip-path="url(#clip4203)" points="
1181.64,86.6754 1181.64,1401.05 1194.15,1401.05 1194.15,86.6754 1181.64,86.6754 1181.64,86.6754 
  " fill="#009af9" fill-rule="evenodd" fill-opacity="1"/>
<polyline clip-path="url(#clip4203)" style="stroke:#000000; stroke-width:4; stroke-opacity:1; fill:none" points="
  1181.64,86.6754 1181.64,1401.05 1194.15,1401.05 1194.15,86.6754 1181.64,86.6754 
  "/>
<polygon clip-path="url(#clip4203)" points="
1197.28,86.6754 1197.28,1401.05 1209.78,1401.05 1209.78,86.6754 1197.28,86.6754 1197.28,86.6754 
  " fill="#009af9" fill-rule="evenodd" fill-opacity="1"/>
<polyline clip-path="url(#clip4203)" style="stroke:#000000; stroke-width:4; stroke-opacity:1; fill:none" points="
  1197.28,86.6754 1197.28,1401.05 1209.78,1401.05 1209.78,86.6754 1197.28,86.6754 
  "/>
<polygon clip-path="url(#clip4203)" points="
1212.91,86.6754 1212.91,1401.05 1225.42,1401.05 1225.42,86.6754 1212.91,86.6754 1212.91,86.6754 
  " fill="#009af9" fill-rule="evenodd" fill-opacity="1"/>
<polyline clip-path="url(#clip4203)" style="stroke:#000000; stroke-width:4; stroke-opacity:1; fill:none" points="
  1212.91,86.6754 1212.91,1401.05 1225.42,1401.05 1225.42,86.6754 1212.91,86.6754 
  "/>
<polygon clip-path="url(#clip4203)" points="
1228.54,86.6754 1228.54,1401.05 1241.05,1401.05 1241.05,86.6754 1228.54,86.6754 1228.54,86.6754 
  " fill="#009af9" fill-rule="evenodd" fill-opacity="1"/>
<polyline clip-path="url(#clip4203)" style="stroke:#000000; stroke-width:4; stroke-opacity:1; fill:none" points="
  1228.54,86.6754 1228.54,1401.05 1241.05,1401.05 1241.05,86.6754 1228.54,86.6754 
  "/>
<polygon clip-path="url(#clip4203)" points="
1244.18,86.6754 1244.18,1401.05 1256.68,1401.05 1256.68,86.6754 1244.18,86.6754 1244.18,86.6754 
  " fill="#009af9" fill-rule="evenodd" fill-opacity="1"/>
<polyline clip-path="url(#clip4203)" style="stroke:#000000; stroke-width:4; stroke-opacity:1; fill:none" points="
  1244.18,86.6754 1244.18,1401.05 1256.68,1401.05 1256.68,86.6754 1244.18,86.6754 
  "/>
<polygon clip-path="url(#clip4203)" points="
1259.81,86.6754 1259.81,1401.05 1272.32,1401.05 1272.32,86.6754 1259.81,86.6754 1259.81,86.6754 
  " fill="#009af9" fill-rule="evenodd" fill-opacity="1"/>
<polyline clip-path="url(#clip4203)" style="stroke:#000000; stroke-width:4; stroke-opacity:1; fill:none" points="
  1259.81,86.6754 1259.81,1401.05 1272.32,1401.05 1272.32,86.6754 1259.81,86.6754 
  "/>
<polygon clip-path="url(#clip4203)" points="
1275.45,86.6754 1275.45,1401.05 1287.95,1401.05 1287.95,86.6754 1275.45,86.6754 1275.45,86.6754 
  " fill="#009af9" fill-rule="evenodd" fill-opacity="1"/>
<polyline clip-path="url(#clip4203)" style="stroke:#000000; stroke-width:4; stroke-opacity:1; fill:none" points="
  1275.45,86.6754 1275.45,1401.05 1287.95,1401.05 1287.95,86.6754 1275.45,86.6754 
  "/>
<polygon clip-path="url(#clip4203)" points="
1291.08,86.6754 1291.08,1401.05 1303.59,1401.05 1303.59,86.6754 1291.08,86.6754 1291.08,86.6754 
  " fill="#009af9" fill-rule="evenodd" fill-opacity="1"/>
<polyline clip-path="url(#clip4203)" style="stroke:#000000; stroke-width:4; stroke-opacity:1; fill:none" points="
  1291.08,86.6754 1291.08,1401.05 1303.59,1401.05 1303.59,86.6754 1291.08,86.6754 
  "/>
<polygon clip-path="url(#clip4203)" points="
1306.71,86.6754 1306.71,1401.05 1319.22,1401.05 1319.22,86.6754 1306.71,86.6754 1306.71,86.6754 
  " fill="#009af9" fill-rule="evenodd" fill-opacity="1"/>
<polyline clip-path="url(#clip4203)" style="stroke:#000000; stroke-width:4; stroke-opacity:1; fill:none" points="
  1306.71,86.6754 1306.71,1401.05 1319.22,1401.05 1319.22,86.6754 1306.71,86.6754 
  "/>
<polygon clip-path="url(#clip4203)" points="
1322.35,86.6754 1322.35,1401.05 1334.85,1401.05 1334.85,86.6754 1322.35,86.6754 1322.35,86.6754 
  " fill="#009af9" fill-rule="evenodd" fill-opacity="1"/>
<polyline clip-path="url(#clip4203)" style="stroke:#000000; stroke-width:4; stroke-opacity:1; fill:none" points="
  1322.35,86.6754 1322.35,1401.05 1334.85,1401.05 1334.85,86.6754 1322.35,86.6754 
  "/>
<polygon clip-path="url(#clip4203)" points="
1337.98,86.6754 1337.98,1401.05 1350.49,1401.05 1350.49,86.6754 1337.98,86.6754 1337.98,86.6754 
  " fill="#009af9" fill-rule="evenodd" fill-opacity="1"/>
<polyline clip-path="url(#clip4203)" style="stroke:#000000; stroke-width:4; stroke-opacity:1; fill:none" points="
  1337.98,86.6754 1337.98,1401.05 1350.49,1401.05 1350.49,86.6754 1337.98,86.6754 
  "/>
<polygon clip-path="url(#clip4203)" points="
1353.61,86.6754 1353.61,1401.05 1366.12,1401.05 1366.12,86.6754 1353.61,86.6754 1353.61,86.6754 
  " fill="#009af9" fill-rule="evenodd" fill-opacity="1"/>
<polyline clip-path="url(#clip4203)" style="stroke:#000000; stroke-width:4; stroke-opacity:1; fill:none" points="
  1353.61,86.6754 1353.61,1401.05 1366.12,1401.05 1366.12,86.6754 1353.61,86.6754 
  "/>
<polygon clip-path="url(#clip4203)" points="
1369.25,86.6754 1369.25,1401.05 1381.76,1401.05 1381.76,86.6754 1369.25,86.6754 1369.25,86.6754 
  " fill="#009af9" fill-rule="evenodd" fill-opacity="1"/>
<polyline clip-path="url(#clip4203)" style="stroke:#000000; stroke-width:4; stroke-opacity:1; fill:none" points="
  1369.25,86.6754 1369.25,1401.05 1381.76,1401.05 1381.76,86.6754 1369.25,86.6754 
  "/>
<polygon clip-path="url(#clip4203)" points="
1384.88,86.6754 1384.88,1401.05 1397.39,1401.05 1397.39,86.6754 1384.88,86.6754 1384.88,86.6754 
  " fill="#009af9" fill-rule="evenodd" fill-opacity="1"/>
<polyline clip-path="url(#clip4203)" style="stroke:#000000; stroke-width:4; stroke-opacity:1; fill:none" points="
  1384.88,86.6754 1384.88,1401.05 1397.39,1401.05 1397.39,86.6754 1384.88,86.6754 
  "/>
<polygon clip-path="url(#clip4203)" points="
1400.52,86.6754 1400.52,1401.05 1413.02,1401.05 1413.02,86.6754 1400.52,86.6754 1400.52,86.6754 
  " fill="#009af9" fill-rule="evenodd" fill-opacity="1"/>
<polyline clip-path="url(#clip4203)" style="stroke:#000000; stroke-width:4; stroke-opacity:1; fill:none" points="
  1400.52,86.6754 1400.52,1401.05 1413.02,1401.05 1413.02,86.6754 1400.52,86.6754 
  "/>
<polygon clip-path="url(#clip4203)" points="
1416.15,86.6754 1416.15,1401.05 1428.66,1401.05 1428.66,86.6754 1416.15,86.6754 1416.15,86.6754 
  " fill="#009af9" fill-rule="evenodd" fill-opacity="1"/>
<polyline clip-path="url(#clip4203)" style="stroke:#000000; stroke-width:4; stroke-opacity:1; fill:none" points="
  1416.15,86.6754 1416.15,1401.05 1428.66,1401.05 1428.66,86.6754 1416.15,86.6754 
  "/>
<polygon clip-path="url(#clip4203)" points="
1431.78,86.6754 1431.78,1401.05 1444.29,1401.05 1444.29,86.6754 1431.78,86.6754 1431.78,86.6754 
  " fill="#009af9" fill-rule="evenodd" fill-opacity="1"/>
<polyline clip-path="url(#clip4203)" style="stroke:#000000; stroke-width:4; stroke-opacity:1; fill:none" points="
  1431.78,86.6754 1431.78,1401.05 1444.29,1401.05 1444.29,86.6754 1431.78,86.6754 
  "/>
<polygon clip-path="url(#clip4203)" points="
1447.42,86.6754 1447.42,1401.05 1459.92,1401.05 1459.92,86.6754 1447.42,86.6754 1447.42,86.6754 
  " fill="#009af9" fill-rule="evenodd" fill-opacity="1"/>
<polyline clip-path="url(#clip4203)" style="stroke:#000000; stroke-width:4; stroke-opacity:1; fill:none" points="
  1447.42,86.6754 1447.42,1401.05 1459.92,1401.05 1459.92,86.6754 1447.42,86.6754 
  "/>
<polygon clip-path="url(#clip4203)" points="
1463.05,86.6754 1463.05,1401.05 1475.56,1401.05 1475.56,86.6754 1463.05,86.6754 1463.05,86.6754 
  " fill="#009af9" fill-rule="evenodd" fill-opacity="1"/>
<polyline clip-path="url(#clip4203)" style="stroke:#000000; stroke-width:4; stroke-opacity:1; fill:none" points="
  1463.05,86.6754 1463.05,1401.05 1475.56,1401.05 1475.56,86.6754 1463.05,86.6754 
  "/>
<polygon clip-path="url(#clip4203)" points="
1478.68,86.6754 1478.68,1401.05 1491.19,1401.05 1491.19,86.6754 1478.68,86.6754 1478.68,86.6754 
  " fill="#009af9" fill-rule="evenodd" fill-opacity="1"/>
<polyline clip-path="url(#clip4203)" style="stroke:#000000; stroke-width:4; stroke-opacity:1; fill:none" points="
  1478.68,86.6754 1478.68,1401.05 1491.19,1401.05 1491.19,86.6754 1478.68,86.6754 
  "/>
<polygon clip-path="url(#clip4203)" points="
1494.32,86.6754 1494.32,1401.05 1506.83,1401.05 1506.83,86.6754 1494.32,86.6754 1494.32,86.6754 
  " fill="#009af9" fill-rule="evenodd" fill-opacity="1"/>
<polyline clip-path="url(#clip4203)" style="stroke:#000000; stroke-width:4; stroke-opacity:1; fill:none" points="
  1494.32,86.6754 1494.32,1401.05 1506.83,1401.05 1506.83,86.6754 1494.32,86.6754 
  "/>
<polygon clip-path="url(#clip4203)" points="
1509.95,86.6754 1509.95,1401.05 1522.46,1401.05 1522.46,86.6754 1509.95,86.6754 1509.95,86.6754 
  " fill="#009af9" fill-rule="evenodd" fill-opacity="1"/>
<polyline clip-path="url(#clip4203)" style="stroke:#000000; stroke-width:4; stroke-opacity:1; fill:none" points="
  1509.95,86.6754 1509.95,1401.05 1522.46,1401.05 1522.46,86.6754 1509.95,86.6754 
  "/>
<polygon clip-path="url(#clip4203)" points="
1525.59,86.6754 1525.59,1401.05 1538.09,1401.05 1538.09,86.6754 1525.59,86.6754 1525.59,86.6754 
  " fill="#009af9" fill-rule="evenodd" fill-opacity="1"/>
<polyline clip-path="url(#clip4203)" style="stroke:#000000; stroke-width:4; stroke-opacity:1; fill:none" points="
  1525.59,86.6754 1525.59,1401.05 1538.09,1401.05 1538.09,86.6754 1525.59,86.6754 
  "/>
<polygon clip-path="url(#clip4203)" points="
1541.22,86.6754 1541.22,1401.05 1553.73,1401.05 1553.73,86.6754 1541.22,86.6754 1541.22,86.6754 
  " fill="#009af9" fill-rule="evenodd" fill-opacity="1"/>
<polyline clip-path="url(#clip4203)" style="stroke:#000000; stroke-width:4; stroke-opacity:1; fill:none" points="
  1541.22,86.6754 1541.22,1401.05 1553.73,1401.05 1553.73,86.6754 1541.22,86.6754 
  "/>
<polygon clip-path="url(#clip4203)" points="
1556.85,86.6754 1556.85,1401.05 1569.36,1401.05 1569.36,86.6754 1556.85,86.6754 1556.85,86.6754 
  " fill="#009af9" fill-rule="evenodd" fill-opacity="1"/>
<polyline clip-path="url(#clip4203)" style="stroke:#000000; stroke-width:4; stroke-opacity:1; fill:none" points="
  1556.85,86.6754 1556.85,1401.05 1569.36,1401.05 1569.36,86.6754 1556.85,86.6754 
  "/>
<polygon clip-path="url(#clip4203)" points="
1572.49,86.6754 1572.49,1401.05 1584.99,1401.05 1584.99,86.6754 1572.49,86.6754 1572.49,86.6754 
  " fill="#009af9" fill-rule="evenodd" fill-opacity="1"/>
<polyline clip-path="url(#clip4203)" style="stroke:#000000; stroke-width:4; stroke-opacity:1; fill:none" points="
  1572.49,86.6754 1572.49,1401.05 1584.99,1401.05 1584.99,86.6754 1572.49,86.6754 
  "/>
<polygon clip-path="url(#clip4203)" points="
1588.12,86.6754 1588.12,1401.05 1600.63,1401.05 1600.63,86.6754 1588.12,86.6754 1588.12,86.6754 
  " fill="#009af9" fill-rule="evenodd" fill-opacity="1"/>
<polyline clip-path="url(#clip4203)" style="stroke:#000000; stroke-width:4; stroke-opacity:1; fill:none" points="
  1588.12,86.6754 1588.12,1401.05 1600.63,1401.05 1600.63,86.6754 1588.12,86.6754 
  "/>
<polygon clip-path="url(#clip4203)" points="
1603.75,86.6754 1603.75,1401.05 1616.26,1401.05 1616.26,86.6754 1603.75,86.6754 1603.75,86.6754 
  " fill="#009af9" fill-rule="evenodd" fill-opacity="1"/>
<polyline clip-path="url(#clip4203)" style="stroke:#000000; stroke-width:4; stroke-opacity:1; fill:none" points="
  1603.75,86.6754 1603.75,1401.05 1616.26,1401.05 1616.26,86.6754 1603.75,86.6754 
  "/>
<polygon clip-path="url(#clip4203)" points="
1619.39,86.6754 1619.39,1401.05 1631.9,1401.05 1631.9,86.6754 1619.39,86.6754 1619.39,86.6754 
  " fill="#009af9" fill-rule="evenodd" fill-opacity="1"/>
<polyline clip-path="url(#clip4203)" style="stroke:#000000; stroke-width:4; stroke-opacity:1; fill:none" points="
  1619.39,86.6754 1619.39,1401.05 1631.9,1401.05 1631.9,86.6754 1619.39,86.6754 
  "/>
<polygon clip-path="url(#clip4203)" points="
1635.02,86.6754 1635.02,1401.05 1647.53,1401.05 1647.53,86.6754 1635.02,86.6754 1635.02,86.6754 
  " fill="#009af9" fill-rule="evenodd" fill-opacity="1"/>
<polyline clip-path="url(#clip4203)" style="stroke:#000000; stroke-width:4; stroke-opacity:1; fill:none" points="
  1635.02,86.6754 1635.02,1401.05 1647.53,1401.05 1647.53,86.6754 1635.02,86.6754 
  "/>
<polygon clip-path="url(#clip4203)" points="
1650.66,86.6754 1650.66,1401.05 1663.16,1401.05 1663.16,86.6754 1650.66,86.6754 1650.66,86.6754 
  " fill="#009af9" fill-rule="evenodd" fill-opacity="1"/>
<polyline clip-path="url(#clip4203)" style="stroke:#000000; stroke-width:4; stroke-opacity:1; fill:none" points="
  1650.66,86.6754 1650.66,1401.05 1663.16,1401.05 1663.16,86.6754 1650.66,86.6754 
  "/>
<polygon clip-path="url(#clip4203)" points="
1666.29,86.6754 1666.29,1401.05 1678.8,1401.05 1678.8,86.6754 1666.29,86.6754 1666.29,86.6754 
  " fill="#009af9" fill-rule="evenodd" fill-opacity="1"/>
<polyline clip-path="url(#clip4203)" style="stroke:#000000; stroke-width:4; stroke-opacity:1; fill:none" points="
  1666.29,86.6754 1666.29,1401.05 1678.8,1401.05 1678.8,86.6754 1666.29,86.6754 
  "/>
<polygon clip-path="url(#clip4203)" points="
1681.92,86.6754 1681.92,1401.05 1694.43,1401.05 1694.43,86.6754 1681.92,86.6754 1681.92,86.6754 
  " fill="#009af9" fill-rule="evenodd" fill-opacity="1"/>
<polyline clip-path="url(#clip4203)" style="stroke:#000000; stroke-width:4; stroke-opacity:1; fill:none" points="
  1681.92,86.6754 1681.92,1401.05 1694.43,1401.05 1694.43,86.6754 1681.92,86.6754 
  "/>
<polygon clip-path="url(#clip4203)" points="
1697.56,86.6754 1697.56,1401.05 1710.06,1401.05 1710.06,86.6754 1697.56,86.6754 1697.56,86.6754 
  " fill="#009af9" fill-rule="evenodd" fill-opacity="1"/>
<polyline clip-path="url(#clip4203)" style="stroke:#000000; stroke-width:4; stroke-opacity:1; fill:none" points="
  1697.56,86.6754 1697.56,1401.05 1710.06,1401.05 1710.06,86.6754 1697.56,86.6754 
  "/>
<polygon clip-path="url(#clip4203)" points="
1713.19,86.6754 1713.19,1401.05 1725.7,1401.05 1725.7,86.6754 1713.19,86.6754 1713.19,86.6754 
  " fill="#009af9" fill-rule="evenodd" fill-opacity="1"/>
<polyline clip-path="url(#clip4203)" style="stroke:#000000; stroke-width:4; stroke-opacity:1; fill:none" points="
  1713.19,86.6754 1713.19,1401.05 1725.7,1401.05 1725.7,86.6754 1713.19,86.6754 
  "/>
<polygon clip-path="url(#clip4203)" points="
1728.82,86.6754 1728.82,1401.05 1741.33,1401.05 1741.33,86.6754 1728.82,86.6754 1728.82,86.6754 
  " fill="#009af9" fill-rule="evenodd" fill-opacity="1"/>
<polyline clip-path="url(#clip4203)" style="stroke:#000000; stroke-width:4; stroke-opacity:1; fill:none" points="
  1728.82,86.6754 1728.82,1401.05 1741.33,1401.05 1741.33,86.6754 1728.82,86.6754 
  "/>
<polygon clip-path="url(#clip4203)" points="
1744.46,86.6754 1744.46,1401.05 1756.97,1401.05 1756.97,86.6754 1744.46,86.6754 1744.46,86.6754 
  " fill="#009af9" fill-rule="evenodd" fill-opacity="1"/>
<polyline clip-path="url(#clip4203)" style="stroke:#000000; stroke-width:4; stroke-opacity:1; fill:none" points="
  1744.46,86.6754 1744.46,1401.05 1756.97,1401.05 1756.97,86.6754 1744.46,86.6754 
  "/>
<polygon clip-path="url(#clip4203)" points="
1760.09,86.6754 1760.09,1401.05 1772.6,1401.05 1772.6,86.6754 1760.09,86.6754 1760.09,86.6754 
  " fill="#009af9" fill-rule="evenodd" fill-opacity="1"/>
<polyline clip-path="url(#clip4203)" style="stroke:#000000; stroke-width:4; stroke-opacity:1; fill:none" points="
  1760.09,86.6754 1760.09,1401.05 1772.6,1401.05 1772.6,86.6754 1760.09,86.6754 
  "/>
<polygon clip-path="url(#clip4203)" points="
1775.73,86.6754 1775.73,1401.05 1788.23,1401.05 1788.23,86.6754 1775.73,86.6754 1775.73,86.6754 
  " fill="#009af9" fill-rule="evenodd" fill-opacity="1"/>
<polyline clip-path="url(#clip4203)" style="stroke:#000000; stroke-width:4; stroke-opacity:1; fill:none" points="
  1775.73,86.6754 1775.73,1401.05 1788.23,1401.05 1788.23,86.6754 1775.73,86.6754 
  "/>
<polygon clip-path="url(#clip4203)" points="
1791.36,86.6754 1791.36,1401.05 1803.87,1401.05 1803.87,86.6754 1791.36,86.6754 1791.36,86.6754 
  " fill="#009af9" fill-rule="evenodd" fill-opacity="1"/>
<polyline clip-path="url(#clip4203)" style="stroke:#000000; stroke-width:4; stroke-opacity:1; fill:none" points="
  1791.36,86.6754 1791.36,1401.05 1803.87,1401.05 1803.87,86.6754 1791.36,86.6754 
  "/>
<polygon clip-path="url(#clip4203)" points="
1806.99,86.6754 1806.99,1401.05 1819.5,1401.05 1819.5,86.6754 1806.99,86.6754 1806.99,86.6754 
  " fill="#009af9" fill-rule="evenodd" fill-opacity="1"/>
<polyline clip-path="url(#clip4203)" style="stroke:#000000; stroke-width:4; stroke-opacity:1; fill:none" points="
  1806.99,86.6754 1806.99,1401.05 1819.5,1401.05 1819.5,86.6754 1806.99,86.6754 
  "/>
<polygon clip-path="url(#clip4203)" points="
1822.63,86.6754 1822.63,1401.05 1835.13,1401.05 1835.13,86.6754 1822.63,86.6754 1822.63,86.6754 
  " fill="#009af9" fill-rule="evenodd" fill-opacity="1"/>
<polyline clip-path="url(#clip4203)" style="stroke:#000000; stroke-width:4; stroke-opacity:1; fill:none" points="
  1822.63,86.6754 1822.63,1401.05 1835.13,1401.05 1835.13,86.6754 1822.63,86.6754 
  "/>
<polygon clip-path="url(#clip4203)" points="
1838.26,86.6754 1838.26,1401.05 1850.77,1401.05 1850.77,86.6754 1838.26,86.6754 1838.26,86.6754 
  " fill="#009af9" fill-rule="evenodd" fill-opacity="1"/>
<polyline clip-path="url(#clip4203)" style="stroke:#000000; stroke-width:4; stroke-opacity:1; fill:none" points="
  1838.26,86.6754 1838.26,1401.05 1850.77,1401.05 1850.77,86.6754 1838.26,86.6754 
  "/>
<polygon clip-path="url(#clip4203)" points="
1853.89,86.6754 1853.89,1401.05 1866.4,1401.05 1866.4,86.6754 1853.89,86.6754 1853.89,86.6754 
  " fill="#009af9" fill-rule="evenodd" fill-opacity="1"/>
<polyline clip-path="url(#clip4203)" style="stroke:#000000; stroke-width:4; stroke-opacity:1; fill:none" points="
  1853.89,86.6754 1853.89,1401.05 1866.4,1401.05 1866.4,86.6754 1853.89,86.6754 
  "/>
<polygon clip-path="url(#clip4203)" points="
1869.53,86.6754 1869.53,1401.05 1882.04,1401.05 1882.04,86.6754 1869.53,86.6754 1869.53,86.6754 
  " fill="#009af9" fill-rule="evenodd" fill-opacity="1"/>
<polyline clip-path="url(#clip4203)" style="stroke:#000000; stroke-width:4; stroke-opacity:1; fill:none" points="
  1869.53,86.6754 1869.53,1401.05 1882.04,1401.05 1882.04,86.6754 1869.53,86.6754 
  "/>
<polygon clip-path="url(#clip4203)" points="
1885.16,86.6754 1885.16,1401.05 1897.67,1401.05 1897.67,86.6754 1885.16,86.6754 1885.16,86.6754 
  " fill="#009af9" fill-rule="evenodd" fill-opacity="1"/>
<polyline clip-path="url(#clip4203)" style="stroke:#000000; stroke-width:4; stroke-opacity:1; fill:none" points="
  1885.16,86.6754 1885.16,1401.05 1897.67,1401.05 1897.67,86.6754 1885.16,86.6754 
  "/>
<polygon clip-path="url(#clip4203)" points="
1900.8,86.6754 1900.8,1401.05 1913.3,1401.05 1913.3,86.6754 1900.8,86.6754 1900.8,86.6754 
  " fill="#009af9" fill-rule="evenodd" fill-opacity="1"/>
<polyline clip-path="url(#clip4203)" style="stroke:#000000; stroke-width:4; stroke-opacity:1; fill:none" points="
  1900.8,86.6754 1900.8,1401.05 1913.3,1401.05 1913.3,86.6754 1900.8,86.6754 
  "/>
<polygon clip-path="url(#clip4203)" points="
1916.43,86.6754 1916.43,1401.05 1928.94,1401.05 1928.94,86.6754 1916.43,86.6754 1916.43,86.6754 
  " fill="#009af9" fill-rule="evenodd" fill-opacity="1"/>
<polyline clip-path="url(#clip4203)" style="stroke:#000000; stroke-width:4; stroke-opacity:1; fill:none" points="
  1916.43,86.6754 1916.43,1401.05 1928.94,1401.05 1928.94,86.6754 1916.43,86.6754 
  "/>
<polygon clip-path="url(#clip4203)" points="
1932.06,86.6754 1932.06,1401.05 1944.57,1401.05 1944.57,86.6754 1932.06,86.6754 1932.06,86.6754 
  " fill="#009af9" fill-rule="evenodd" fill-opacity="1"/>
<polyline clip-path="url(#clip4203)" style="stroke:#000000; stroke-width:4; stroke-opacity:1; fill:none" points="
  1932.06,86.6754 1932.06,1401.05 1944.57,1401.05 1944.57,86.6754 1932.06,86.6754 
  "/>
<polygon clip-path="url(#clip4203)" points="
1947.7,86.6754 1947.7,1401.05 1960.2,1401.05 1960.2,86.6754 1947.7,86.6754 1947.7,86.6754 
  " fill="#009af9" fill-rule="evenodd" fill-opacity="1"/>
<polyline clip-path="url(#clip4203)" style="stroke:#000000; stroke-width:4; stroke-opacity:1; fill:none" points="
  1947.7,86.6754 1947.7,1401.05 1960.2,1401.05 1960.2,86.6754 1947.7,86.6754 
  "/>
<polygon clip-path="url(#clip4203)" points="
1963.33,86.6754 1963.33,1401.05 1975.84,1401.05 1975.84,86.6754 1963.33,86.6754 1963.33,86.6754 
  " fill="#009af9" fill-rule="evenodd" fill-opacity="1"/>
<polyline clip-path="url(#clip4203)" style="stroke:#000000; stroke-width:4; stroke-opacity:1; fill:none" points="
  1963.33,86.6754 1963.33,1401.05 1975.84,1401.05 1975.84,86.6754 1963.33,86.6754 
  "/>
<polygon clip-path="url(#clip4203)" points="
1978.96,86.6754 1978.96,1401.05 1991.47,1401.05 1991.47,86.6754 1978.96,86.6754 1978.96,86.6754 
  " fill="#009af9" fill-rule="evenodd" fill-opacity="1"/>
<polyline clip-path="url(#clip4203)" style="stroke:#000000; stroke-width:4; stroke-opacity:1; fill:none" points="
  1978.96,86.6754 1978.96,1401.05 1991.47,1401.05 1991.47,86.6754 1978.96,86.6754 
  "/>
<polygon clip-path="url(#clip4203)" points="
1994.6,86.6754 1994.6,1401.05 2007.11,1401.05 2007.11,86.6754 1994.6,86.6754 1994.6,86.6754 
  " fill="#009af9" fill-rule="evenodd" fill-opacity="1"/>
<polyline clip-path="url(#clip4203)" style="stroke:#000000; stroke-width:4; stroke-opacity:1; fill:none" points="
  1994.6,86.6754 1994.6,1401.05 2007.11,1401.05 2007.11,86.6754 1994.6,86.6754 
  "/>
<polygon clip-path="url(#clip4203)" points="
2010.23,86.6754 2010.23,1401.05 2022.74,1401.05 2022.74,86.6754 2010.23,86.6754 2010.23,86.6754 
  " fill="#009af9" fill-rule="evenodd" fill-opacity="1"/>
<polyline clip-path="url(#clip4203)" style="stroke:#000000; stroke-width:4; stroke-opacity:1; fill:none" points="
  2010.23,86.6754 2010.23,1401.05 2022.74,1401.05 2022.74,86.6754 2010.23,86.6754 
  "/>
<polygon clip-path="url(#clip4203)" points="
2025.87,86.6754 2025.87,1401.05 2038.37,1401.05 2038.37,86.6754 2025.87,86.6754 2025.87,86.6754 
  " fill="#009af9" fill-rule="evenodd" fill-opacity="1"/>
<polyline clip-path="url(#clip4203)" style="stroke:#000000; stroke-width:4; stroke-opacity:1; fill:none" points="
  2025.87,86.6754 2025.87,1401.05 2038.37,1401.05 2038.37,86.6754 2025.87,86.6754 
  "/>
<polygon clip-path="url(#clip4203)" points="
2041.5,86.6754 2041.5,1401.05 2054.01,1401.05 2054.01,86.6754 2041.5,86.6754 2041.5,86.6754 
  " fill="#009af9" fill-rule="evenodd" fill-opacity="1"/>
<polyline clip-path="url(#clip4203)" style="stroke:#000000; stroke-width:4; stroke-opacity:1; fill:none" points="
  2041.5,86.6754 2041.5,1401.05 2054.01,1401.05 2054.01,86.6754 2041.5,86.6754 
  "/>
<polygon clip-path="url(#clip4203)" points="
2057.13,1401.05 2057.13,1401.05 2069.64,1401.05 2069.64,1401.05 2057.13,1401.05 2057.13,1401.05 
  " fill="#009af9" fill-rule="evenodd" fill-opacity="1"/>
<polyline clip-path="url(#clip4203)" style="stroke:#000000; stroke-width:4; stroke-opacity:1; fill:none" points="
  2057.13,1401.05 2057.13,1401.05 2069.64,1401.05 2057.13,1401.05 
  "/>
<polygon clip-path="url(#clip4203)" points="
2072.77,1401.05 2072.77,1401.05 2085.27,1401.05 2085.27,1401.05 2072.77,1401.05 2072.77,1401.05 
  " fill="#009af9" fill-rule="evenodd" fill-opacity="1"/>
<polyline clip-path="url(#clip4203)" style="stroke:#000000; stroke-width:4; stroke-opacity:1; fill:none" points="
  2072.77,1401.05 2072.77,1401.05 2085.27,1401.05 2072.77,1401.05 
  "/>
<polygon clip-path="url(#clip4203)" points="
2088.4,1401.05 2088.4,1401.05 2100.91,1401.05 2100.91,1401.05 2088.4,1401.05 2088.4,1401.05 
  " fill="#009af9" fill-rule="evenodd" fill-opacity="1"/>
<polyline clip-path="url(#clip4203)" style="stroke:#000000; stroke-width:4; stroke-opacity:1; fill:none" points="
  2088.4,1401.05 2088.4,1401.05 2100.91,1401.05 2088.4,1401.05 
  "/>
<polygon clip-path="url(#clip4203)" points="
2104.03,1401.05 2104.03,1401.05 2116.54,1401.05 2116.54,1401.05 2104.03,1401.05 2104.03,1401.05 
  " fill="#009af9" fill-rule="evenodd" fill-opacity="1"/>
<polyline clip-path="url(#clip4203)" style="stroke:#000000; stroke-width:4; stroke-opacity:1; fill:none" points="
  2104.03,1401.05 2104.03,1401.05 2116.54,1401.05 2104.03,1401.05 
  "/>
<polygon clip-path="url(#clip4203)" points="
2119.67,1401.05 2119.67,1401.05 2132.18,1401.05 2132.18,1401.05 2119.67,1401.05 2119.67,1401.05 
  " fill="#009af9" fill-rule="evenodd" fill-opacity="1"/>
<polyline clip-path="url(#clip4203)" style="stroke:#000000; stroke-width:4; stroke-opacity:1; fill:none" points="
  2119.67,1401.05 2119.67,1401.05 2132.18,1401.05 2119.67,1401.05 
  "/>
<polygon clip-path="url(#clip4203)" points="
2135.3,1401.05 2135.3,1401.05 2147.81,1401.05 2147.81,1401.05 2135.3,1401.05 2135.3,1401.05 
  " fill="#009af9" fill-rule="evenodd" fill-opacity="1"/>
<polyline clip-path="url(#clip4203)" style="stroke:#000000; stroke-width:4; stroke-opacity:1; fill:none" points="
  2135.3,1401.05 2135.3,1401.05 2147.81,1401.05 2135.3,1401.05 
  "/>
<polygon clip-path="url(#clip4203)" points="
2150.94,1401.05 2150.94,1401.05 2163.44,1401.05 2163.44,1401.05 2150.94,1401.05 2150.94,1401.05 
  " fill="#009af9" fill-rule="evenodd" fill-opacity="1"/>
<polyline clip-path="url(#clip4203)" style="stroke:#000000; stroke-width:4; stroke-opacity:1; fill:none" points="
  2150.94,1401.05 2150.94,1401.05 2163.44,1401.05 2150.94,1401.05 
  "/>
<polygon clip-path="url(#clip4203)" points="
2166.57,1401.05 2166.57,1401.05 2179.08,1401.05 2179.08,1401.05 2166.57,1401.05 2166.57,1401.05 
  " fill="#009af9" fill-rule="evenodd" fill-opacity="1"/>
<polyline clip-path="url(#clip4203)" style="stroke:#000000; stroke-width:4; stroke-opacity:1; fill:none" points="
  2166.57,1401.05 2166.57,1401.05 2179.08,1401.05 2166.57,1401.05 
  "/>
<polygon clip-path="url(#clip4203)" points="
2182.2,1401.05 2182.2,1401.05 2194.71,1401.05 2194.71,1401.05 2182.2,1401.05 2182.2,1401.05 
  " fill="#009af9" fill-rule="evenodd" fill-opacity="1"/>
<polyline clip-path="url(#clip4203)" style="stroke:#000000; stroke-width:4; stroke-opacity:1; fill:none" points="
  2182.2,1401.05 2182.2,1401.05 2194.71,1401.05 2182.2,1401.05 
  "/>
<polygon clip-path="url(#clip4203)" points="
2197.84,1401.05 2197.84,1401.05 2210.34,1401.05 2210.34,1401.05 2197.84,1401.05 2197.84,1401.05 
  " fill="#009af9" fill-rule="evenodd" fill-opacity="1"/>
<polyline clip-path="url(#clip4203)" style="stroke:#000000; stroke-width:4; stroke-opacity:1; fill:none" points="
  2197.84,1401.05 2197.84,1401.05 2210.34,1401.05 2197.84,1401.05 
  "/>
</svg>
