<?xml version="1.0" encoding="utf-8"?>
<svg xmlns="http://www.w3.org/2000/svg" xmlns:xlink="http://www.w3.org/1999/xlink" width="600" height="400" viewBox="0 0 2400 1600">
<defs>
  <clipPath id="clip360">
    <rect x="0" y="0" width="2400" height="1600"/>
  </clipPath>
</defs>
<path clip-path="url(#clip360)" d="
M0 1600 L2400 1600 L2400 0 L0 0  Z
  " fill="#ffffff" fill-rule="evenodd" fill-opacity="1"/>
<defs>
  <clipPath id="clip361">
    <rect x="480" y="0" width="1681" height="1600"/>
  </clipPath>
</defs>
<path clip-path="url(#clip360)" d="
M205.121 1423.18 L2352.76 1423.18 L2352.76 47.2441 L205.121 47.2441  Z
  " fill="#ffffff" fill-rule="evenodd" fill-opacity="1"/>
<defs>
  <clipPath id="clip362">
    <rect x="205" y="47" width="2149" height="1377"/>
  </clipPath>
</defs>
<polyline clip-path="url(#clip362)" style="stroke:#000000; stroke-width:2; stroke-opacity:0.1; fill:none" points="
  529.881,1423.18 529.881,47.2441 
  "/>
<polyline clip-path="url(#clip362)" style="stroke:#000000; stroke-width:2; stroke-opacity:0.1; fill:none" points="
  1046.47,1423.18 1046.47,47.2441 
  "/>
<polyline clip-path="url(#clip362)" style="stroke:#000000; stroke-width:2; stroke-opacity:0.1; fill:none" points="
  1563.06,1423.18 1563.06,47.2441 
  "/>
<polyline clip-path="url(#clip362)" style="stroke:#000000; stroke-width:2; stroke-opacity:0.1; fill:none" points="
  2079.65,1423.18 2079.65,47.2441 
  "/>
<polyline clip-path="url(#clip360)" style="stroke:#000000; stroke-width:4; stroke-opacity:1; fill:none" points="
  205.121,1423.18 2352.76,1423.18 
  "/>
<polyline clip-path="url(#clip360)" style="stroke:#000000; stroke-width:4; stroke-opacity:1; fill:none" points="
  529.881,1423.18 529.881,1406.67 
  "/>
<polyline clip-path="url(#clip360)" style="stroke:#000000; stroke-width:4; stroke-opacity:1; fill:none" points="
  1046.47,1423.18 1046.47,1406.67 
  "/>
<polyline clip-path="url(#clip360)" style="stroke:#000000; stroke-width:4; stroke-opacity:1; fill:none" points="
  1563.06,1423.18 1563.06,1406.67 
  "/>
<polyline clip-path="url(#clip360)" style="stroke:#000000; stroke-width:4; stroke-opacity:1; fill:none" points="
  2079.65,1423.18 2079.65,1406.67 
  "/>
<path clip-path="url(#clip360)" d="M 0 0 M499.523 1467.02 L529.198 1467.02 L529.198 1470.96 L499.523 1470.96 L499.523 1467.02 Z" fill="#000000" fill-rule="evenodd" fill-opacity="1" /><path clip-path="url(#clip360)" d="M 0 0 M539.337 1449.29 L557.694 1449.29 L557.694 1453.23 L543.62 1453.23 L543.62 1461.7 Q544.638 1461.35 545.657 1461.19 Q546.675 1461 547.694 1461 Q553.481 1461 556.86 1464.18 Q560.24 1467.35 560.24 1472.76 Q560.24 1478.34 556.768 1481.44 Q553.295 1484.52 546.976 1484.52 Q544.8 1484.52 542.532 1484.15 Q540.286 1483.78 537.879 1483.04 L537.879 1478.34 Q539.962 1479.48 542.184 1480.03 Q544.407 1480.59 546.883 1480.59 Q550.888 1480.59 553.226 1478.48 Q555.564 1476.38 555.564 1472.76 Q555.564 1469.15 553.226 1467.05 Q550.888 1464.94 546.883 1464.94 Q545.008 1464.94 543.133 1465.36 Q541.282 1465.77 539.337 1466.65 L539.337 1449.29 Z" fill="#000000" fill-rule="evenodd" fill-opacity="1" /><path clip-path="url(#clip360)" d="M 0 0 M1046.47 1452.37 Q1042.86 1452.37 1041.03 1455.94 Q1039.23 1459.48 1039.23 1466.61 Q1039.23 1473.71 1041.03 1477.28 Q1042.86 1480.82 1046.47 1480.82 Q1050.11 1480.82 1051.91 1477.28 Q1053.74 1473.71 1053.74 1466.61 Q1053.74 1459.48 1051.91 1455.94 Q1050.11 1452.37 1046.47 1452.37 M1046.47 1448.67 Q1052.28 1448.67 1055.34 1453.27 Q1058.42 1457.86 1058.42 1466.61 Q1058.42 1475.33 1055.34 1479.94 Q1052.28 1484.52 1046.47 1484.52 Q1040.66 1484.52 1037.58 1479.94 Q1034.53 1475.33 1034.53 1466.61 Q1034.53 1457.86 1037.58 1453.27 Q1040.66 1448.67 1046.47 1448.67 Z" fill="#000000" fill-rule="evenodd" fill-opacity="1" /><path clip-path="url(#clip360)" d="M 0 0 M1553.34 1449.29 L1571.7 1449.29 L1571.7 1453.23 L1557.62 1453.23 L1557.62 1461.7 Q1558.64 1461.35 1559.66 1461.19 Q1560.68 1461 1561.7 1461 Q1567.48 1461 1570.86 1464.18 Q1574.24 1467.35 1574.24 1472.76 Q1574.24 1478.34 1570.77 1481.44 Q1567.3 1484.52 1560.98 1484.52 Q1558.8 1484.52 1556.54 1484.15 Q1554.29 1483.78 1551.88 1483.04 L1551.88 1478.34 Q1553.97 1479.48 1556.19 1480.03 Q1558.41 1480.59 1560.89 1480.59 Q1564.89 1480.59 1567.23 1478.48 Q1569.57 1476.38 1569.57 1472.76 Q1569.57 1469.15 1567.23 1467.05 Q1564.89 1464.94 1560.89 1464.94 Q1559.01 1464.94 1557.14 1465.36 Q1555.29 1465.77 1553.34 1466.65 L1553.34 1449.29 Z" fill="#000000" fill-rule="evenodd" fill-opacity="1" /><path clip-path="url(#clip360)" d="M 0 0 M2054.34 1479.92 L2061.98 1479.92 L2061.98 1453.55 L2053.67 1455.22 L2053.67 1450.96 L2061.93 1449.29 L2066.61 1449.29 L2066.61 1479.92 L2074.25 1479.92 L2074.25 1483.85 L2054.34 1483.85 L2054.34 1479.92 Z" fill="#000000" fill-rule="evenodd" fill-opacity="1" /><path clip-path="url(#clip360)" d="M 0 0 M2093.69 1452.37 Q2090.08 1452.37 2088.25 1455.94 Q2086.45 1459.48 2086.45 1466.61 Q2086.45 1473.71 2088.25 1477.28 Q2090.08 1480.82 2093.69 1480.82 Q2097.33 1480.82 2099.13 1477.28 Q2100.96 1473.71 2100.96 1466.61 Q2100.96 1459.48 2099.13 1455.94 Q2097.33 1452.37 2093.69 1452.37 M2093.69 1448.67 Q2099.5 1448.67 2102.56 1453.27 Q2105.64 1457.86 2105.64 1466.61 Q2105.64 1475.33 2102.56 1479.94 Q2099.5 1484.52 2093.69 1484.52 Q2087.88 1484.52 2084.81 1479.94 Q2081.75 1475.33 2081.75 1466.61 Q2081.75 1457.86 2084.81 1453.27 Q2087.88 1448.67 2093.69 1448.67 Z" fill="#000000" fill-rule="evenodd" fill-opacity="1" /><path clip-path="url(#clip360)" d="M 0 0 M1209.57 1568.04 L1191.43 1520.52 L1198.14 1520.52 L1213.2 1560.53 L1228.28 1520.52 L1234.97 1520.52 L1216.86 1568.04 L1209.57 1568.04 Z" fill="#000000" fill-rule="evenodd" fill-opacity="1" /><path clip-path="url(#clip360)" d="M 0 0 M1252.79 1550.12 Q1245.69 1550.12 1242.96 1551.75 Q1240.22 1553.37 1240.22 1557.29 Q1240.22 1560.4 1242.26 1562.25 Q1244.32 1564.07 1247.86 1564.07 Q1252.73 1564.07 1255.66 1560.63 Q1258.62 1557.16 1258.62 1551.43 L1258.62 1550.12 L1252.79 1550.12 M1264.47 1547.71 L1264.47 1568.04 L1258.62 1568.04 L1258.62 1562.63 Q1256.61 1565.88 1253.62 1567.44 Q1250.63 1568.97 1246.3 1568.97 Q1240.82 1568.97 1237.58 1565.91 Q1234.36 1562.82 1234.36 1557.67 Q1234.36 1551.65 1238.37 1548.6 Q1242.42 1545.54 1250.4 1545.54 L1258.62 1545.54 L1258.62 1544.97 Q1258.62 1540.93 1255.94 1538.73 Q1253.3 1536.5 1248.49 1536.5 Q1245.44 1536.5 1242.54 1537.23 Q1239.65 1537.97 1236.97 1539.43 L1236.97 1534.02 Q1240.19 1532.78 1243.21 1532.17 Q1246.23 1531.54 1249.1 1531.54 Q1256.83 1531.54 1260.65 1535.55 Q1264.47 1539.56 1264.47 1547.71 Z" fill="#000000" fill-rule="evenodd" fill-opacity="1" /><path clip-path="url(#clip360)" d="M 0 0 M1276.54 1518.52 L1282.39 1518.52 L1282.39 1568.04 L1276.54 1568.04 L1276.54 1518.52 Z" fill="#000000" fill-rule="evenodd" fill-opacity="1" /><path clip-path="url(#clip360)" d="M 0 0 M1294.04 1553.98 L1294.04 1532.4 L1299.9 1532.4 L1299.9 1553.75 Q1299.9 1558.81 1301.87 1561.36 Q1303.84 1563.87 1307.79 1563.87 Q1312.53 1563.87 1315.27 1560.85 Q1318.04 1557.83 1318.04 1552.61 L1318.04 1532.4 L1323.9 1532.4 L1323.9 1568.04 L1318.04 1568.04 L1318.04 1562.57 Q1315.91 1565.82 1313.07 1567.41 Q1310.27 1568.97 1306.55 1568.97 Q1300.41 1568.97 1297.22 1565.15 Q1294.04 1561.33 1294.04 1553.98 M1308.78 1531.54 L1308.78 1531.54 Z" fill="#000000" fill-rule="evenodd" fill-opacity="1" /><path clip-path="url(#clip360)" d="M 0 0 M1366.45 1548.76 L1366.45 1551.62 L1339.52 1551.62 Q1339.91 1557.67 1343.15 1560.85 Q1346.43 1564 1352.26 1564 Q1355.63 1564 1358.78 1563.17 Q1361.96 1562.35 1365.08 1560.69 L1365.08 1566.23 Q1361.93 1567.57 1358.62 1568.27 Q1355.31 1568.97 1351.91 1568.97 Q1343.38 1568.97 1338.38 1564 Q1333.41 1559.04 1333.41 1550.57 Q1333.41 1541.82 1338.12 1536.69 Q1342.87 1531.54 1350.89 1531.54 Q1358.08 1531.54 1362.25 1536.18 Q1366.45 1540.8 1366.45 1548.76 M1360.59 1547.04 Q1360.53 1542.23 1357.89 1539.37 Q1355.28 1536.5 1350.95 1536.5 Q1346.05 1536.5 1343.09 1539.27 Q1340.16 1542.04 1339.72 1547.07 L1360.59 1547.04 Z" fill="#000000" fill-rule="evenodd" fill-opacity="1" /><polyline clip-path="url(#clip362)" style="stroke:#000000; stroke-width:2; stroke-opacity:0.1; fill:none" points="
  205.121,1384.24 2352.76,1384.24 
  "/>
<polyline clip-path="url(#clip362)" style="stroke:#000000; stroke-width:2; stroke-opacity:0.1; fill:none" points="
  205.121,1067.64 2352.76,1067.64 
  "/>
<polyline clip-path="url(#clip362)" style="stroke:#000000; stroke-width:2; stroke-opacity:0.1; fill:none" points="
  205.121,751.042 2352.76,751.042 
  "/>
<polyline clip-path="url(#clip362)" style="stroke:#000000; stroke-width:2; stroke-opacity:0.1; fill:none" points="
  205.121,434.444 2352.76,434.444 
  "/>
<polyline clip-path="url(#clip362)" style="stroke:#000000; stroke-width:2; stroke-opacity:0.1; fill:none" points="
  205.121,117.845 2352.76,117.845 
  "/>
<polyline clip-path="url(#clip360)" style="stroke:#000000; stroke-width:4; stroke-opacity:1; fill:none" points="
  205.121,1423.18 205.121,47.2441 
  "/>
<polyline clip-path="url(#clip360)" style="stroke:#000000; stroke-width:4; stroke-opacity:1; fill:none" points="
  205.121,1384.24 230.893,1384.24 
  "/>
<polyline clip-path="url(#clip360)" style="stroke:#000000; stroke-width:4; stroke-opacity:1; fill:none" points="
  205.121,1067.64 230.893,1067.64 
  "/>
<polyline clip-path="url(#clip360)" style="stroke:#000000; stroke-width:4; stroke-opacity:1; fill:none" points="
  205.121,751.042 230.893,751.042 
  "/>
<polyline clip-path="url(#clip360)" style="stroke:#000000; stroke-width:4; stroke-opacity:1; fill:none" points="
  205.121,434.444 230.893,434.444 
  "/>
<polyline clip-path="url(#clip360)" style="stroke:#000000; stroke-width:4; stroke-opacity:1; fill:none" points="
  205.121,117.845 230.893,117.845 
  "/>
<path clip-path="url(#clip360)" d="M 0 0 M157.177 1370.04 Q153.566 1370.04 151.737 1373.6 Q149.931 1377.14 149.931 1384.27 Q149.931 1391.38 151.737 1394.94 Q153.566 1398.49 157.177 1398.49 Q160.811 1398.49 162.616 1394.94 Q164.445 1391.38 164.445 1384.27 Q164.445 1377.14 162.616 1373.6 Q160.811 1370.04 157.177 1370.04 M157.177 1366.33 Q162.987 1366.33 166.042 1370.94 Q169.121 1375.52 169.121 1384.27 Q169.121 1393 166.042 1397.61 Q162.987 1402.19 157.177 1402.19 Q151.366 1402.19 148.288 1397.61 Q145.232 1393 145.232 1384.27 Q145.232 1375.52 148.288 1370.94 Q151.366 1366.33 157.177 1366.33 Z" fill="#000000" fill-rule="evenodd" fill-opacity="1" /><path clip-path="url(#clip360)" d="M 0 0 M121.043 1080.98 L137.362 1080.98 L137.362 1084.92 L115.418 1084.92 L115.418 1080.98 Q118.08 1078.23 122.663 1073.6 Q127.269 1068.95 128.45 1067.61 Q130.695 1065.08 131.575 1063.35 Q132.478 1061.59 132.478 1059.9 Q132.478 1057.14 130.533 1055.41 Q128.612 1053.67 125.51 1053.67 Q123.311 1053.67 120.857 1054.43 Q118.427 1055.2 115.649 1056.75 L115.649 1052.03 Q118.473 1050.89 120.927 1050.31 Q123.38 1049.74 125.418 1049.74 Q130.788 1049.74 133.982 1052.42 Q137.177 1055.11 137.177 1059.6 Q137.177 1061.73 136.367 1063.65 Q135.579 1065.55 133.473 1068.14 Q132.894 1068.81 129.792 1072.03 Q126.691 1075.22 121.043 1080.98 Z" fill="#000000" fill-rule="evenodd" fill-opacity="1" /><path clip-path="url(#clip360)" d="M 0 0 M157.177 1053.44 Q153.566 1053.44 151.737 1057 Q149.931 1060.55 149.931 1067.67 Q149.931 1074.78 151.737 1078.35 Q153.566 1081.89 157.177 1081.89 Q160.811 1081.89 162.616 1078.35 Q164.445 1074.78 164.445 1067.67 Q164.445 1060.55 162.616 1057 Q160.811 1053.44 157.177 1053.44 M157.177 1049.74 Q162.987 1049.74 166.042 1054.34 Q169.121 1058.92 169.121 1067.67 Q169.121 1076.4 166.042 1081.01 Q162.987 1085.59 157.177 1085.59 Q151.366 1085.59 148.288 1081.01 Q145.232 1076.4 145.232 1067.67 Q145.232 1058.92 148.288 1054.34 Q151.366 1049.74 157.177 1049.74 Z" fill="#000000" fill-rule="evenodd" fill-opacity="1" /><path clip-path="url(#clip360)" d="M 0 0 M129.862 737.836 L118.056 756.285 L129.862 756.285 L129.862 737.836 M128.635 733.762 L134.515 733.762 L134.515 756.285 L139.445 756.285 L139.445 760.174 L134.515 760.174 L134.515 768.322 L129.862 768.322 L129.862 760.174 L114.26 760.174 L114.26 755.66 L128.635 733.762 Z" fill="#000000" fill-rule="evenodd" fill-opacity="1" /><path clip-path="url(#clip360)" d="M 0 0 M157.177 736.841 Q153.566 736.841 151.737 740.405 Q149.931 743.947 149.931 751.077 Q149.931 758.183 151.737 761.748 Q153.566 765.289 157.177 765.289 Q160.811 765.289 162.616 761.748 Q164.445 758.183 164.445 751.077 Q164.445 743.947 162.616 740.405 Q160.811 736.841 157.177 736.841 M157.177 733.137 Q162.987 733.137 166.042 737.743 Q169.121 742.327 169.121 751.077 Q169.121 759.803 166.042 764.41 Q162.987 768.993 157.177 768.993 Q151.366 768.993 148.288 764.41 Q145.232 759.803 145.232 751.077 Q145.232 742.327 148.288 737.743 Q151.366 733.137 157.177 733.137 Z" fill="#000000" fill-rule="evenodd" fill-opacity="1" /><path clip-path="url(#clip360)" d="M 0 0 M127.593 432.58 Q124.445 432.58 122.593 434.733 Q120.765 436.886 120.765 440.636 Q120.765 444.363 122.593 446.539 Q124.445 448.691 127.593 448.691 Q130.742 448.691 132.57 446.539 Q134.422 444.363 134.422 440.636 Q134.422 436.886 132.57 434.733 Q130.742 432.58 127.593 432.58 M136.876 417.928 L136.876 422.187 Q135.117 421.353 133.311 420.914 Q131.529 420.474 129.769 420.474 Q125.14 420.474 122.686 423.599 Q120.255 426.724 119.908 433.043 Q121.274 431.029 123.334 429.965 Q125.394 428.877 127.871 428.877 Q133.08 428.877 136.089 432.048 Q139.121 435.196 139.121 440.636 Q139.121 445.96 135.973 449.177 Q132.825 452.395 127.593 452.395 Q121.598 452.395 118.427 447.812 Q115.256 443.205 115.256 434.478 Q115.256 426.284 119.144 421.423 Q123.033 416.539 129.584 416.539 Q131.343 416.539 133.126 416.886 Q134.931 417.233 136.876 417.928 Z" fill="#000000" fill-rule="evenodd" fill-opacity="1" /><path clip-path="url(#clip360)" d="M 0 0 M157.177 420.242 Q153.566 420.242 151.737 423.807 Q149.931 427.349 149.931 434.478 Q149.931 441.585 151.737 445.15 Q153.566 448.691 157.177 448.691 Q160.811 448.691 162.616 445.15 Q164.445 441.585 164.445 434.478 Q164.445 427.349 162.616 423.807 Q160.811 420.242 157.177 420.242 M157.177 416.539 Q162.987 416.539 166.042 421.145 Q169.121 425.728 169.121 434.478 Q169.121 443.205 166.042 447.812 Q162.987 452.395 157.177 452.395 Q151.366 452.395 148.288 447.812 Q145.232 443.205 145.232 434.478 Q145.232 425.728 148.288 421.145 Q151.366 416.539 157.177 416.539 Z" fill="#000000" fill-rule="evenodd" fill-opacity="1" /><path clip-path="url(#clip360)" d="M 0 0 M127.015 118.714 Q123.681 118.714 121.76 120.496 Q119.862 122.278 119.862 125.403 Q119.862 128.528 121.76 130.311 Q123.681 132.093 127.015 132.093 Q130.348 132.093 132.269 130.311 Q134.191 128.505 134.191 125.403 Q134.191 122.278 132.269 120.496 Q130.371 118.714 127.015 118.714 M122.339 116.723 Q119.33 115.982 117.64 113.922 Q115.973 111.862 115.973 108.899 Q115.973 104.755 118.913 102.348 Q121.876 99.9405 127.015 99.9405 Q132.177 99.9405 135.117 102.348 Q138.056 104.755 138.056 108.899 Q138.056 111.862 136.367 113.922 Q134.7 115.982 131.714 116.723 Q135.093 117.51 136.968 119.801 Q138.867 122.093 138.867 125.403 Q138.867 130.426 135.788 133.112 Q132.732 135.797 127.015 135.797 Q121.297 135.797 118.218 133.112 Q115.163 130.426 115.163 125.403 Q115.163 122.093 117.061 119.801 Q118.959 117.51 122.339 116.723 M120.626 109.339 Q120.626 112.024 122.293 113.528 Q123.982 115.033 127.015 115.033 Q130.024 115.033 131.714 113.528 Q133.427 112.024 133.427 109.339 Q133.427 106.653 131.714 105.149 Q130.024 103.644 127.015 103.644 Q123.982 103.644 122.293 105.149 Q120.626 106.653 120.626 109.339 Z" fill="#000000" fill-rule="evenodd" fill-opacity="1" /><path clip-path="url(#clip360)" d="M 0 0 M157.177 103.644 Q153.566 103.644 151.737 107.209 Q149.931 110.751 149.931 117.88 Q149.931 124.987 151.737 128.551 Q153.566 132.093 157.177 132.093 Q160.811 132.093 162.616 128.551 Q164.445 124.987 164.445 117.88 Q164.445 110.751 162.616 107.209 Q160.811 103.644 157.177 103.644 M157.177 99.9405 Q162.987 99.9405 166.042 104.547 Q169.121 109.13 169.121 117.88 Q169.121 126.607 166.042 131.213 Q162.987 135.797 157.177 135.797 Q151.366 135.797 148.288 131.213 Q145.232 126.607 145.232 117.88 Q145.232 109.13 148.288 104.547 Q151.366 99.9405 157.177 99.9405 Z" fill="#000000" fill-rule="evenodd" fill-opacity="1" /><path clip-path="url(#clip360)" d="M 0 0 M16.4842 899.415 L16.4842 872.106 L21.895 872.106 L21.895 892.986 L35.8996 892.986 L35.8996 874.144 L41.3104 874.144 L41.3104 892.986 L64.0042 892.986 L64.0042 899.415 L16.4842 899.415 Z" fill="#000000" fill-rule="evenodd" fill-opacity="1" /><path clip-path="url(#clip360)" d="M 0 0 M33.8307 846.262 Q33.2578 847.248 33.0032 848.426 Q32.7167 849.572 32.7167 850.972 Q32.7167 855.938 35.9632 858.611 Q39.1779 861.253 45.2253 861.253 L64.0042 861.253 L64.0042 867.141 L28.3562 867.141 L28.3562 861.253 L33.8944 861.253 Q30.6479 859.407 29.0883 856.447 Q27.4968 853.487 27.4968 849.254 Q27.4968 848.649 27.5923 847.917 Q27.656 847.185 27.8151 846.294 L33.8307 846.262 Z" fill="#000000" fill-rule="evenodd" fill-opacity="1" /><path clip-path="url(#clip360)" d="M 0 0 M44.7161 811.059 L47.5806 811.059 L47.5806 837.986 Q53.6281 837.604 56.8109 834.358 Q59.9619 831.08 59.9619 825.255 Q59.9619 821.881 59.1344 818.73 Q58.3069 815.547 56.6518 812.428 L62.1899 812.428 Q63.5267 815.579 64.227 818.889 Q64.9272 822.199 64.9272 825.605 Q64.9272 834.135 59.9619 839.132 Q54.9967 844.097 46.5303 844.097 Q37.7774 844.097 32.6531 839.387 Q27.4968 834.644 27.4968 826.624 Q27.4968 819.43 32.1438 815.261 Q36.7589 811.059 44.7161 811.059 M42.9973 816.916 Q38.1912 816.979 35.3266 819.621 Q32.4621 822.231 32.4621 826.56 Q32.4621 831.461 35.2312 834.422 Q38.0002 837.35 43.0292 837.795 L42.9973 816.916 Z" fill="#000000" fill-rule="evenodd" fill-opacity="1" /><path clip-path="url(#clip360)" d="M 0 0 M46.212 797.946 Q52.6732 797.946 56.3653 795.304 Q60.0256 792.631 60.0256 787.984 Q60.0256 783.337 56.3653 780.663 Q52.6732 777.99 46.212 777.99 Q39.7508 777.99 36.0905 780.663 Q32.3984 783.337 32.3984 787.984 Q32.3984 792.631 36.0905 795.304 Q39.7508 797.946 46.212 797.946 M58.657 777.99 Q61.8398 779.836 63.3994 782.668 Q64.9272 785.469 64.9272 789.416 Q64.9272 795.877 59.771 799.951 Q54.6147 803.993 46.212 803.993 Q37.8093 803.993 32.6531 799.951 Q27.4968 795.877 27.4968 789.416 Q27.4968 785.469 29.0564 782.668 Q30.5842 779.836 33.7671 777.99 L28.3562 777.99 L28.3562 772.133 L77.5631 772.133 L77.5631 777.99 L58.657 777.99 Z" fill="#000000" fill-rule="evenodd" fill-opacity="1" /><path clip-path="url(#clip360)" d="M 0 0 M49.9359 760.675 L28.3562 760.675 L28.3562 754.818 L49.7131 754.818 Q54.7739 754.818 57.3202 752.845 Q59.8346 750.872 59.8346 746.925 Q59.8346 742.182 56.8109 739.445 Q53.7872 736.676 48.5673 736.676 L28.3562 736.676 L28.3562 730.82 L64.0042 730.82 L64.0042 736.676 L58.5296 736.676 Q61.7762 738.809 63.3676 741.641 Q64.9272 744.442 64.9272 748.166 Q64.9272 754.309 61.1078 757.492 Q57.2883 760.675 49.9359 760.675 M27.4968 745.938 L27.4968 745.938 Z" fill="#000000" fill-rule="evenodd" fill-opacity="1" /><path clip-path="url(#clip360)" d="M 0 0 M44.7161 688.265 L47.5806 688.265 L47.5806 715.192 Q53.6281 714.81 56.8109 711.563 Q59.9619 708.285 59.9619 702.46 Q59.9619 699.087 59.1344 695.936 Q58.3069 692.753 56.6518 689.634 L62.1899 689.634 Q63.5267 692.785 64.227 696.095 Q64.9272 699.405 64.9272 702.811 Q64.9272 711.341 59.9619 716.338 Q54.9967 721.303 46.5303 721.303 Q37.7774 721.303 32.6531 716.592 Q27.4968 711.85 27.4968 703.829 Q27.4968 696.636 32.1438 692.466 Q36.7589 688.265 44.7161 688.265 M42.9973 694.121 Q38.1912 694.185 35.3266 696.827 Q32.4621 699.437 32.4621 703.765 Q32.4621 708.667 35.2312 711.627 Q38.0002 714.555 43.0292 715.001 L42.9973 694.121 Z" fill="#000000" fill-rule="evenodd" fill-opacity="1" /><path clip-path="url(#clip360)" d="M 0 0 M42.4881 649.02 L64.0042 649.02 L64.0042 654.877 L42.679 654.877 Q37.6183 654.877 35.1038 656.85 Q32.5894 658.823 32.5894 662.77 Q32.5894 667.513 35.6131 670.25 Q38.6368 672.987 43.8567 672.987 L64.0042 672.987 L64.0042 678.875 L28.3562 678.875 L28.3562 672.987 L33.8944 672.987 Q30.6797 670.887 29.0883 668.054 Q27.4968 665.189 27.4968 661.465 Q27.4968 655.322 31.3163 652.171 Q35.1038 649.02 42.4881 649.02 Z" fill="#000000" fill-rule="evenodd" fill-opacity="1" /><path clip-path="url(#clip360)" d="M 0 0 M29.7248 611.685 L35.1993 611.685 Q33.8307 614.168 33.1623 616.683 Q32.4621 619.165 32.4621 621.711 Q32.4621 627.409 36.0905 630.56 Q39.6872 633.711 46.212 633.711 Q52.7369 633.711 56.3653 630.56 Q59.9619 627.409 59.9619 621.711 Q59.9619 619.165 59.2935 616.683 Q58.5933 614.168 57.2247 611.685 L62.6355 611.685 Q63.7814 614.136 64.3543 616.778 Q64.9272 619.388 64.9272 622.348 Q64.9272 630.401 59.8664 635.143 Q54.8057 639.886 46.212 639.886 Q37.491 639.886 32.4939 635.111 Q27.4968 630.305 27.4968 621.966 Q27.4968 619.261 28.0697 616.683 Q28.6108 614.104 29.7248 611.685 Z" fill="#000000" fill-rule="evenodd" fill-opacity="1" /><path clip-path="url(#clip360)" d="M 0 0 M67.3143 586.668 Q73.68 589.151 75.6216 591.506 Q77.5631 593.861 77.5631 597.808 L77.5631 602.487 L72.6615 602.487 L72.6615 599.05 Q72.6615 596.631 71.5157 595.294 Q70.3699 593.957 66.1048 592.334 L63.4312 591.283 L28.3562 605.702 L28.3562 599.495 L56.238 588.355 L28.3562 577.215 L28.3562 571.009 L67.3143 586.668 Z" fill="#000000" fill-rule="evenodd" fill-opacity="1" /><path clip-path="url(#clip362)" d="
M323.245 1368.41 L323.245 1384.24 L374.904 1384.24 L374.904 1368.41 L323.245 1368.41 L323.245 1368.41  Z
  " fill="#009af9" fill-rule="evenodd" fill-opacity="1"/>
<polyline clip-path="url(#clip362)" style="stroke:#000000; stroke-width:4; stroke-opacity:1; fill:none" points="
  323.245,1368.41 323.245,1384.24 374.904,1384.24 374.904,1368.41 323.245,1368.41 
  "/>
<path clip-path="url(#clip362)" d="
M374.904 1305.09 L374.904 1384.24 L426.563 1384.24 L426.563 1305.09 L374.904 1305.09 L374.904 1305.09  Z
  " fill="#009af9" fill-rule="evenodd" fill-opacity="1"/>
<polyline clip-path="url(#clip362)" style="stroke:#000000; stroke-width:4; stroke-opacity:1; fill:none" points="
  374.904,1305.09 374.904,1384.24 426.563,1384.24 426.563,1305.09 374.904,1305.09 
  "/>
<path clip-path="url(#clip362)" d="
M426.563 1273.43 L426.563 1384.24 L478.222 1384.24 L478.222 1273.43 L426.563 1273.43 L426.563 1273.43  Z
  " fill="#009af9" fill-rule="evenodd" fill-opacity="1"/>
<polyline clip-path="url(#clip362)" style="stroke:#000000; stroke-width:4; stroke-opacity:1; fill:none" points="
  426.563,1273.43 426.563,1384.24 478.222,1384.24 478.222,1273.43 426.563,1273.43 
  "/>
<path clip-path="url(#clip362)" d="
M478.222 1162.62 L478.222 1384.24 L529.881 1384.24 L529.881 1162.62 L478.222 1162.62 L478.222 1162.62  Z
  " fill="#009af9" fill-rule="evenodd" fill-opacity="1"/>
<polyline clip-path="url(#clip362)" style="stroke:#000000; stroke-width:4; stroke-opacity:1; fill:none" points="
  478.222,1162.62 478.222,1384.24 529.881,1384.24 529.881,1162.62 478.222,1162.62 
  "/>
<path clip-path="url(#clip362)" d="
M529.881 972.661 L529.881 1384.24 L581.54 1384.24 L581.54 972.661 L529.881 972.661 L529.881 972.661  Z
  " fill="#009af9" fill-rule="evenodd" fill-opacity="1"/>
<polyline clip-path="url(#clip362)" style="stroke:#000000; stroke-width:4; stroke-opacity:1; fill:none" points="
  529.881,972.661 529.881,1384.24 581.54,1384.24 581.54,972.661 529.881,972.661 
  "/>
<path clip-path="url(#clip362)" d="
M581.54 782.702 L581.54 1384.24 L633.199 1384.24 L633.199 782.702 L581.54 782.702 L581.54 782.702  Z
  " fill="#009af9" fill-rule="evenodd" fill-opacity="1"/>
<polyline clip-path="url(#clip362)" style="stroke:#000000; stroke-width:4; stroke-opacity:1; fill:none" points="
  581.54,782.702 581.54,1384.24 633.199,1384.24 633.199,782.702 581.54,782.702 
  "/>
<path clip-path="url(#clip362)" d="
M633.199 386.954 L633.199 1384.24 L684.859 1384.24 L684.859 386.954 L633.199 386.954 L633.199 386.954  Z
  " fill="#009af9" fill-rule="evenodd" fill-opacity="1"/>
<polyline clip-path="url(#clip362)" style="stroke:#000000; stroke-width:4; stroke-opacity:1; fill:none" points="
  633.199,386.954 633.199,1384.24 684.859,1384.24 684.859,386.954 633.199,386.954 
  "/>
<path clip-path="url(#clip362)" d="
M684.859 86.1857 L684.859 1384.24 L736.518 1384.24 L736.518 86.1857 L684.859 86.1857 L684.859 86.1857  Z
  " fill="#009af9" fill-rule="evenodd" fill-opacity="1"/>
<polyline clip-path="url(#clip362)" style="stroke:#000000; stroke-width:4; stroke-opacity:1; fill:none" points="
  684.859,86.1857 684.859,1384.24 736.518,1384.24 736.518,86.1857 684.859,86.1857 
  "/>
<path clip-path="url(#clip362)" d="
M736.518 386.954 L736.518 1384.24 L788.177 1384.24 L788.177 386.954 L736.518 386.954 L736.518 386.954  Z
  " fill="#009af9" fill-rule="evenodd" fill-opacity="1"/>
<polyline clip-path="url(#clip362)" style="stroke:#000000; stroke-width:4; stroke-opacity:1; fill:none" points="
  736.518,386.954 736.518,1384.24 788.177,1384.24 788.177,386.954 736.518,386.954 
  "/>
<path clip-path="url(#clip362)" d="
M788.177 561.083 L788.177 1384.24 L839.836 1384.24 L839.836 561.083 L788.177 561.083 L788.177 561.083  Z
  " fill="#009af9" fill-rule="evenodd" fill-opacity="1"/>
<polyline clip-path="url(#clip362)" style="stroke:#000000; stroke-width:4; stroke-opacity:1; fill:none" points="
  788.177,561.083 788.177,1384.24 839.836,1384.24 839.836,561.083 788.177,561.083 
  "/>
<path clip-path="url(#clip362)" d="
M839.836 529.423 L839.836 1384.24 L891.495 1384.24 L891.495 529.423 L839.836 529.423 L839.836 529.423  Z
  " fill="#009af9" fill-rule="evenodd" fill-opacity="1"/>
<polyline clip-path="url(#clip362)" style="stroke:#000000; stroke-width:4; stroke-opacity:1; fill:none" points="
  839.836,529.423 839.836,1384.24 891.495,1384.24 891.495,529.423 839.836,529.423 
  "/>
<path clip-path="url(#clip362)" d="
M891.495 640.233 L891.495 1384.24 L943.154 1384.24 L943.154 640.233 L891.495 640.233 L891.495 640.233  Z
  " fill="#009af9" fill-rule="evenodd" fill-opacity="1"/>
<polyline clip-path="url(#clip362)" style="stroke:#000000; stroke-width:4; stroke-opacity:1; fill:none" points="
  891.495,640.233 891.495,1384.24 943.154,1384.24 943.154,640.233 891.495,640.233 
  "/>
<path clip-path="url(#clip362)" d="
M943.154 956.831 L943.154 1384.24 L994.813 1384.24 L994.813 956.831 L943.154 956.831 L943.154 956.831  Z
  " fill="#009af9" fill-rule="evenodd" fill-opacity="1"/>
<polyline clip-path="url(#clip362)" style="stroke:#000000; stroke-width:4; stroke-opacity:1; fill:none" points="
  943.154,956.831 943.154,1384.24 994.813,1384.24 994.813,956.831 943.154,956.831 
  "/>
<path clip-path="url(#clip362)" d="
M994.813 1004.32 L994.813 1384.24 L1046.47 1384.24 L1046.47 1004.32 L994.813 1004.32 L994.813 1004.32  Z
  " fill="#009af9" fill-rule="evenodd" fill-opacity="1"/>
<polyline clip-path="url(#clip362)" style="stroke:#000000; stroke-width:4; stroke-opacity:1; fill:none" points="
  994.813,1004.32 994.813,1384.24 1046.47,1384.24 1046.47,1004.32 994.813,1004.32 
  "/>
<path clip-path="url(#clip362)" d="
M1046.47 1020.15 L1046.47 1384.24 L1098.13 1384.24 L1098.13 1020.15 L1046.47 1020.15 L1046.47 1020.15  Z
  " fill="#009af9" fill-rule="evenodd" fill-opacity="1"/>
<polyline clip-path="url(#clip362)" style="stroke:#000000; stroke-width:4; stroke-opacity:1; fill:none" points="
  1046.47,1020.15 1046.47,1384.24 1098.13,1384.24 1098.13,1020.15 1046.47,1020.15 
  "/>
<path clip-path="url(#clip362)" d="
M1098.13 988.491 L1098.13 1384.24 L1149.79 1384.24 L1149.79 988.491 L1098.13 988.491 L1098.13 988.491  Z
  " fill="#009af9" fill-rule="evenodd" fill-opacity="1"/>
<polyline clip-path="url(#clip362)" style="stroke:#000000; stroke-width:4; stroke-opacity:1; fill:none" points="
  1098.13,988.491 1098.13,1384.24 1149.79,1384.24 1149.79,988.491 1098.13,988.491 
  "/>
<path clip-path="url(#clip362)" d="
M1149.79 1083.47 L1149.79 1384.24 L1201.45 1384.24 L1201.45 1083.47 L1149.79 1083.47 L1149.79 1083.47  Z
  " fill="#009af9" fill-rule="evenodd" fill-opacity="1"/>
<polyline clip-path="url(#clip362)" style="stroke:#000000; stroke-width:4; stroke-opacity:1; fill:none" points="
  1149.79,1083.47 1149.79,1384.24 1201.45,1384.24 1201.45,1083.47 1149.79,1083.47 
  "/>
<path clip-path="url(#clip362)" d="
M1201.45 988.491 L1201.45 1384.24 L1253.11 1384.24 L1253.11 988.491 L1201.45 988.491 L1201.45 988.491  Z
  " fill="#009af9" fill-rule="evenodd" fill-opacity="1"/>
<polyline clip-path="url(#clip362)" style="stroke:#000000; stroke-width:4; stroke-opacity:1; fill:none" points="
  1201.45,988.491 1201.45,1384.24 1253.11,1384.24 1253.11,988.491 1201.45,988.491 
  "/>
<path clip-path="url(#clip362)" d="
M1253.11 1083.47 L1253.11 1384.24 L1304.77 1384.24 L1304.77 1083.47 L1253.11 1083.47 L1253.11 1083.47  Z
  " fill="#009af9" fill-rule="evenodd" fill-opacity="1"/>
<polyline clip-path="url(#clip362)" style="stroke:#000000; stroke-width:4; stroke-opacity:1; fill:none" points="
  1253.11,1083.47 1253.11,1384.24 1304.77,1384.24 1304.77,1083.47 1253.11,1083.47 
  "/>
<path clip-path="url(#clip362)" d="
M1304.77 1083.47 L1304.77 1384.24 L1356.43 1384.24 L1356.43 1083.47 L1304.77 1083.47 L1304.77 1083.47  Z
  " fill="#009af9" fill-rule="evenodd" fill-opacity="1"/>
<polyline clip-path="url(#clip362)" style="stroke:#000000; stroke-width:4; stroke-opacity:1; fill:none" points="
  1304.77,1083.47 1304.77,1384.24 1356.43,1384.24 1356.43,1083.47 1304.77,1083.47 
  "/>
<path clip-path="url(#clip362)" d="
M1356.43 1225.94 L1356.43 1384.24 L1408.09 1384.24 L1408.09 1225.94 L1356.43 1225.94 L1356.43 1225.94  Z
  " fill="#009af9" fill-rule="evenodd" fill-opacity="1"/>
<polyline clip-path="url(#clip362)" style="stroke:#000000; stroke-width:4; stroke-opacity:1; fill:none" points="
  1356.43,1225.94 1356.43,1384.24 1408.09,1384.24 1408.09,1225.94 1356.43,1225.94 
  "/>
<path clip-path="url(#clip362)" d="
M1408.09 1130.96 L1408.09 1384.24 L1459.75 1384.24 L1459.75 1130.96 L1408.09 1130.96 L1408.09 1130.96  Z
  " fill="#009af9" fill-rule="evenodd" fill-opacity="1"/>
<polyline clip-path="url(#clip362)" style="stroke:#000000; stroke-width:4; stroke-opacity:1; fill:none" points="
  1408.09,1130.96 1408.09,1384.24 1459.75,1384.24 1459.75,1130.96 1408.09,1130.96 
  "/>
<path clip-path="url(#clip362)" d="
M1459.75 1305.09 L1459.75 1384.24 L1511.4 1384.24 L1511.4 1305.09 L1459.75 1305.09 L1459.75 1305.09  Z
  " fill="#009af9" fill-rule="evenodd" fill-opacity="1"/>
<polyline clip-path="url(#clip362)" style="stroke:#000000; stroke-width:4; stroke-opacity:1; fill:none" points="
  1459.75,1305.09 1459.75,1384.24 1511.4,1384.24 1511.4,1305.09 1459.75,1305.09 
  "/>
<path clip-path="url(#clip362)" d="
M1511.4 1289.26 L1511.4 1384.24 L1563.06 1384.24 L1563.06 1289.26 L1511.4 1289.26 L1511.4 1289.26  Z
  " fill="#009af9" fill-rule="evenodd" fill-opacity="1"/>
<polyline clip-path="url(#clip362)" style="stroke:#000000; stroke-width:4; stroke-opacity:1; fill:none" points="
  1511.4,1289.26 1511.4,1384.24 1563.06,1384.24 1563.06,1289.26 1511.4,1289.26 
  "/>
<path clip-path="url(#clip362)" d="
M1563.06 1178.45 L1563.06 1384.24 L1614.72 1384.24 L1614.72 1178.45 L1563.06 1178.45 L1563.06 1178.45  Z
  " fill="#009af9" fill-rule="evenodd" fill-opacity="1"/>
<polyline clip-path="url(#clip362)" style="stroke:#000000; stroke-width:4; stroke-opacity:1; fill:none" points="
  1563.06,1178.45 1563.06,1384.24 1614.72,1384.24 1614.72,1178.45 1563.06,1178.45 
  "/>
<path clip-path="url(#clip362)" d="
M1614.72 1178.45 L1614.72 1384.24 L1666.38 1384.24 L1666.38 1178.45 L1614.72 1178.45 L1614.72 1178.45  Z
  " fill="#009af9" fill-rule="evenodd" fill-opacity="1"/>
<polyline clip-path="url(#clip362)" style="stroke:#000000; stroke-width:4; stroke-opacity:1; fill:none" points="
  1614.72,1178.45 1614.72,1384.24 1666.38,1384.24 1666.38,1178.45 1614.72,1178.45 
  "/>
<path clip-path="url(#clip362)" d="
M1666.38 1083.47 L1666.38 1384.24 L1718.04 1384.24 L1718.04 1083.47 L1666.38 1083.47 L1666.38 1083.47  Z
  " fill="#009af9" fill-rule="evenodd" fill-opacity="1"/>
<polyline clip-path="url(#clip362)" style="stroke:#000000; stroke-width:4; stroke-opacity:1; fill:none" points="
  1666.38,1083.47 1666.38,1384.24 1718.04,1384.24 1718.04,1083.47 1666.38,1083.47 
  "/>
<path clip-path="url(#clip362)" d="
M1718.04 861.851 L1718.04 1384.24 L1769.7 1384.24 L1769.7 861.851 L1718.04 861.851 L1718.04 861.851  Z
  " fill="#009af9" fill-rule="evenodd" fill-opacity="1"/>
<polyline clip-path="url(#clip362)" style="stroke:#000000; stroke-width:4; stroke-opacity:1; fill:none" points="
  1718.04,861.851 1718.04,1384.24 1769.7,1384.24 1769.7,861.851 1718.04,861.851 
  "/>
<path clip-path="url(#clip362)" d="
M1769.7 735.212 L1769.7 1384.24 L1821.36 1384.24 L1821.36 735.212 L1769.7 735.212 L1769.7 735.212  Z
  " fill="#009af9" fill-rule="evenodd" fill-opacity="1"/>
<polyline clip-path="url(#clip362)" style="stroke:#000000; stroke-width:4; stroke-opacity:1; fill:none" points="
  1769.7,735.212 1769.7,1384.24 1821.36,1384.24 1821.36,735.212 1769.7,735.212 
  "/>
<path clip-path="url(#clip362)" d="
M1821.36 529.423 L1821.36 1384.24 L1873.02 1384.24 L1873.02 529.423 L1821.36 529.423 L1821.36 529.423  Z
  " fill="#009af9" fill-rule="evenodd" fill-opacity="1"/>
<polyline clip-path="url(#clip362)" style="stroke:#000000; stroke-width:4; stroke-opacity:1; fill:none" points="
  1821.36,529.423 1821.36,1384.24 1873.02,1384.24 1873.02,529.423 1821.36,529.423 
  "/>
<path clip-path="url(#clip362)" d="
M1873.02 671.892 L1873.02 1384.24 L1924.68 1384.24 L1924.68 671.892 L1873.02 671.892 L1873.02 671.892  Z
  " fill="#009af9" fill-rule="evenodd" fill-opacity="1"/>
<polyline clip-path="url(#clip362)" style="stroke:#000000; stroke-width:4; stroke-opacity:1; fill:none" points="
  1873.02,671.892 1873.02,1384.24 1924.68,1384.24 1924.68,671.892 1873.02,671.892 
  "/>
<path clip-path="url(#clip362)" d="
M1924.68 656.062 L1924.68 1384.24 L1976.34 1384.24 L1976.34 656.062 L1924.68 656.062 L1924.68 656.062  Z
  " fill="#009af9" fill-rule="evenodd" fill-opacity="1"/>
<polyline clip-path="url(#clip362)" style="stroke:#000000; stroke-width:4; stroke-opacity:1; fill:none" points="
  1924.68,656.062 1924.68,1384.24 1976.34,1384.24 1976.34,656.062 1924.68,656.062 
  "/>
<path clip-path="url(#clip362)" d="
M1976.34 814.362 L1976.34 1384.24 L2028 1384.24 L2028 814.362 L1976.34 814.362 L1976.34 814.362  Z
  " fill="#009af9" fill-rule="evenodd" fill-opacity="1"/>
<polyline clip-path="url(#clip362)" style="stroke:#000000; stroke-width:4; stroke-opacity:1; fill:none" points="
  1976.34,814.362 1976.34,1384.24 2028,1384.24 2028,814.362 1976.34,814.362 
  "/>
<path clip-path="url(#clip362)" d="
M2028 1194.28 L2028 1384.24 L2079.65 1384.24 L2079.65 1194.28 L2028 1194.28 L2028 1194.28  Z
  " fill="#009af9" fill-rule="evenodd" fill-opacity="1"/>
<polyline clip-path="url(#clip362)" style="stroke:#000000; stroke-width:4; stroke-opacity:1; fill:none" points="
  2028,1194.28 2028,1384.24 2079.65,1384.24 2079.65,1194.28 2028,1194.28 
  "/>
<path clip-path="url(#clip362)" d="
M2079.65 1210.11 L2079.65 1384.24 L2131.31 1384.24 L2131.31 1210.11 L2079.65 1210.11 L2079.65 1210.11  Z
  " fill="#009af9" fill-rule="evenodd" fill-opacity="1"/>
<polyline clip-path="url(#clip362)" style="stroke:#000000; stroke-width:4; stroke-opacity:1; fill:none" points="
  2079.65,1210.11 2079.65,1384.24 2131.31,1384.24 2131.31,1210.11 2079.65,1210.11 
  "/>
<path clip-path="url(#clip362)" d="
M2131.31 1305.09 L2131.31 1384.24 L2182.97 1384.24 L2182.97 1305.09 L2131.31 1305.09 L2131.31 1305.09  Z
  " fill="#009af9" fill-rule="evenodd" fill-opacity="1"/>
<polyline clip-path="url(#clip362)" style="stroke:#000000; stroke-width:4; stroke-opacity:1; fill:none" points="
  2131.31,1305.09 2131.31,1384.24 2182.97,1384.24 2182.97,1305.09 2131.31,1305.09 
  "/>
<path clip-path="url(#clip362)" d="
M2182.97 1352.58 L2182.97 1384.24 L2234.63 1384.24 L2234.63 1352.58 L2182.97 1352.58 L2182.97 1352.58  Z
  " fill="#009af9" fill-rule="evenodd" fill-opacity="1"/>
<polyline clip-path="url(#clip362)" style="stroke:#000000; stroke-width:4; stroke-opacity:1; fill:none" points="
  2182.97,1352.58 2182.97,1384.24 2234.63,1384.24 2234.63,1352.58 2182.97,1352.58 
  "/>
<path clip-path="url(#clip360)" d="
M1990.11 214.069 L2281.17 214.069 L2281.17 93.1086 L1990.11 93.1086  Z
  " fill="#ffffff" fill-rule="evenodd" fill-opacity="1"/>
<polyline clip-path="url(#clip360)" style="stroke:#000000; stroke-width:4; stroke-opacity:1; fill:none" points="
  1990.11,214.069 2281.17,214.069 2281.17,93.1086 1990.11,93.1086 1990.11,214.069 
  "/>
<path clip-path="url(#clip360)" d="
M2013.97 177.781 L2157.15 177.781 L2157.15 129.397 L2013.97 129.397 L2013.97 177.781  Z
  " fill="#009af9" fill-rule="evenodd" fill-opacity="1"/>
<polyline clip-path="url(#clip360)" style="stroke:#000000; stroke-width:4; stroke-opacity:1; fill:none" points="
  2013.97,177.781 2157.15,177.781 2157.15,129.397 2013.97,129.397 2013.97,177.781 
  "/>
<path clip-path="url(#clip360)" d="M 0 0 M2194.86 173.276 Q2193.05 177.906 2191.34 179.318 Q2189.62 180.73 2186.75 180.73 L2183.35 180.73 L2183.35 177.165 L2185.85 177.165 Q2187.61 177.165 2188.58 176.332 Q2189.55 175.498 2190.73 172.396 L2191.5 170.452 L2181.01 144.943 L2185.53 144.943 L2193.63 165.221 L2201.73 144.943 L2206.24 144.943 L2194.86 173.276 Z" fill="#000000" fill-rule="evenodd" fill-opacity="1" /><path clip-path="url(#clip360)" d="M 0 0 M2213.54 166.933 L2221.17 166.933 L2221.17 140.568 L2212.86 142.235 L2212.86 137.975 L2221.13 136.309 L2225.8 136.309 L2225.8 166.933 L2233.44 166.933 L2233.44 170.869 L2213.54 170.869 L2213.54 166.933 Z" fill="#000000" fill-rule="evenodd" fill-opacity="1" /></svg>
