<?xml version="1.0" encoding="utf-8"?>
<svg xmlns="http://www.w3.org/2000/svg" xmlns:xlink="http://www.w3.org/1999/xlink" width="600" height="400" viewBox="0 0 2400 1600">
<defs>
  <clipPath id="clip300">
    <rect x="0" y="0" width="2400" height="1600"/>
  </clipPath>
</defs>
<path clip-path="url(#clip300)" d="
M0 1600 L2400 1600 L2400 0 L0 0  Z
  " fill="#ffffff" fill-rule="evenodd" fill-opacity="1"/>
<defs>
  <clipPath id="clip301">
    <rect x="480" y="0" width="1681" height="1600"/>
  </clipPath>
</defs>
<path clip-path="url(#clip300)" d="
M205.121 1423.18 L2352.76 1423.18 L2352.76 47.2441 L205.121 47.2441  Z
  " fill="#ffffff" fill-rule="evenodd" fill-opacity="1"/>
<defs>
  <clipPath id="clip302">
    <rect x="205" y="47" width="2149" height="1377"/>
  </clipPath>
</defs>
<polyline clip-path="url(#clip302)" style="stroke:#000000; stroke-width:2; stroke-opacity:0.1; fill:none" points="
  482.527,1423.18 482.527,47.2441 
  "/>
<polyline clip-path="url(#clip302)" style="stroke:#000000; stroke-width:2; stroke-opacity:0.1; fill:none" points="
  1013.47,1423.18 1013.47,47.2441 
  "/>
<polyline clip-path="url(#clip302)" style="stroke:#000000; stroke-width:2; stroke-opacity:0.1; fill:none" points="
  1544.41,1423.18 1544.41,47.2441 
  "/>
<polyline clip-path="url(#clip302)" style="stroke:#000000; stroke-width:2; stroke-opacity:0.1; fill:none" points="
  2075.35,1423.18 2075.35,47.2441 
  "/>
<polyline clip-path="url(#clip300)" style="stroke:#000000; stroke-width:4; stroke-opacity:1; fill:none" points="
  205.121,1423.18 2352.76,1423.18 
  "/>
<polyline clip-path="url(#clip300)" style="stroke:#000000; stroke-width:4; stroke-opacity:1; fill:none" points="
  482.527,1423.18 482.527,1406.67 
  "/>
<polyline clip-path="url(#clip300)" style="stroke:#000000; stroke-width:4; stroke-opacity:1; fill:none" points="
  1013.47,1423.18 1013.47,1406.67 
  "/>
<polyline clip-path="url(#clip300)" style="stroke:#000000; stroke-width:4; stroke-opacity:1; fill:none" points="
  1544.41,1423.18 1544.41,1406.67 
  "/>
<polyline clip-path="url(#clip300)" style="stroke:#000000; stroke-width:4; stroke-opacity:1; fill:none" points="
  2075.35,1423.18 2075.35,1406.67 
  "/>
<path clip-path="url(#clip300)" d="M 0 0 M452.168 1467.02 L481.844 1467.02 L481.844 1470.96 L452.168 1470.96 L452.168 1467.02 Z" fill="#000000" fill-rule="evenodd" fill-opacity="1" /><path clip-path="url(#clip300)" d="M 0 0 M491.983 1449.29 L510.339 1449.29 L510.339 1453.23 L496.265 1453.23 L496.265 1461.7 Q497.284 1461.35 498.302 1461.19 Q499.321 1461 500.339 1461 Q506.126 1461 509.506 1464.18 Q512.886 1467.35 512.886 1472.76 Q512.886 1478.34 509.413 1481.44 Q505.941 1484.52 499.622 1484.52 Q497.446 1484.52 495.177 1484.15 Q492.932 1483.78 490.525 1483.04 L490.525 1478.34 Q492.608 1479.48 494.83 1480.03 Q497.052 1480.59 499.529 1480.59 Q503.534 1480.59 505.872 1478.48 Q508.21 1476.38 508.21 1472.76 Q508.21 1469.15 505.872 1467.05 Q503.534 1464.94 499.529 1464.94 Q497.654 1464.94 495.779 1465.36 Q493.927 1465.77 491.983 1466.65 L491.983 1449.29 Z" fill="#000000" fill-rule="evenodd" fill-opacity="1" /><path clip-path="url(#clip300)" d="M 0 0 M1013.47 1452.37 Q1009.86 1452.37 1008.03 1455.94 Q1006.22 1459.48 1006.22 1466.61 Q1006.22 1473.71 1008.03 1477.28 Q1009.86 1480.82 1013.47 1480.82 Q1017.1 1480.82 1018.91 1477.28 Q1020.74 1473.71 1020.74 1466.61 Q1020.74 1459.48 1018.91 1455.94 Q1017.1 1452.37 1013.47 1452.37 M1013.47 1448.67 Q1019.28 1448.67 1022.33 1453.27 Q1025.41 1457.86 1025.41 1466.61 Q1025.41 1475.33 1022.33 1479.94 Q1019.28 1484.52 1013.47 1484.52 Q1007.66 1484.52 1004.58 1479.94 Q1001.52 1475.33 1001.52 1466.61 Q1001.52 1457.86 1004.58 1453.27 Q1007.66 1448.67 1013.47 1448.67 Z" fill="#000000" fill-rule="evenodd" fill-opacity="1" /><path clip-path="url(#clip300)" d="M 0 0 M1534.69 1449.29 L1553.04 1449.29 L1553.04 1453.23 L1538.97 1453.23 L1538.97 1461.7 Q1539.99 1461.35 1541.01 1461.19 Q1542.02 1461 1543.04 1461 Q1548.83 1461 1552.21 1464.18 Q1555.59 1467.35 1555.59 1472.76 Q1555.59 1478.34 1552.12 1481.44 Q1548.65 1484.52 1542.33 1484.52 Q1540.15 1484.52 1537.88 1484.15 Q1535.64 1483.78 1533.23 1483.04 L1533.23 1478.34 Q1535.31 1479.48 1537.53 1480.03 Q1539.76 1480.59 1542.23 1480.59 Q1546.24 1480.59 1548.58 1478.48 Q1550.91 1476.38 1550.91 1472.76 Q1550.91 1469.15 1548.58 1467.05 Q1546.24 1464.94 1542.23 1464.94 Q1540.36 1464.94 1538.48 1465.36 Q1536.63 1465.77 1534.69 1466.65 L1534.69 1449.29 Z" fill="#000000" fill-rule="evenodd" fill-opacity="1" /><path clip-path="url(#clip300)" d="M 0 0 M2050.04 1479.92 L2057.68 1479.92 L2057.68 1453.55 L2049.37 1455.22 L2049.37 1450.96 L2057.63 1449.29 L2062.31 1449.29 L2062.31 1479.92 L2069.94 1479.92 L2069.94 1483.85 L2050.04 1483.85 L2050.04 1479.92 Z" fill="#000000" fill-rule="evenodd" fill-opacity="1" /><path clip-path="url(#clip300)" d="M 0 0 M2089.39 1452.37 Q2085.78 1452.37 2083.95 1455.94 Q2082.14 1459.48 2082.14 1466.61 Q2082.14 1473.71 2083.95 1477.28 Q2085.78 1480.82 2089.39 1480.82 Q2093.02 1480.82 2094.83 1477.28 Q2096.66 1473.71 2096.66 1466.61 Q2096.66 1459.48 2094.83 1455.94 Q2093.02 1452.37 2089.39 1452.37 M2089.39 1448.67 Q2095.2 1448.67 2098.25 1453.27 Q2101.33 1457.86 2101.33 1466.61 Q2101.33 1475.33 2098.25 1479.94 Q2095.2 1484.52 2089.39 1484.52 Q2083.58 1484.52 2080.5 1479.94 Q2077.44 1475.33 2077.44 1466.61 Q2077.44 1457.86 2080.5 1453.27 Q2083.58 1448.67 2089.39 1448.67 Z" fill="#000000" fill-rule="evenodd" fill-opacity="1" /><path clip-path="url(#clip300)" d="M 0 0 M1209.57 1568.04 L1191.43 1520.52 L1198.14 1520.52 L1213.2 1560.53 L1228.28 1520.52 L1234.97 1520.52 L1216.86 1568.04 L1209.57 1568.04 Z" fill="#000000" fill-rule="evenodd" fill-opacity="1" /><path clip-path="url(#clip300)" d="M 0 0 M1252.79 1550.12 Q1245.69 1550.12 1242.96 1551.75 Q1240.22 1553.37 1240.22 1557.29 Q1240.22 1560.4 1242.26 1562.25 Q1244.32 1564.07 1247.86 1564.07 Q1252.73 1564.07 1255.66 1560.63 Q1258.62 1557.16 1258.62 1551.43 L1258.62 1550.12 L1252.79 1550.12 M1264.47 1547.71 L1264.47 1568.04 L1258.62 1568.04 L1258.62 1562.63 Q1256.61 1565.88 1253.62 1567.44 Q1250.63 1568.97 1246.3 1568.97 Q1240.82 1568.97 1237.58 1565.91 Q1234.36 1562.82 1234.36 1557.67 Q1234.36 1551.65 1238.37 1548.6 Q1242.42 1545.54 1250.4 1545.54 L1258.62 1545.54 L1258.62 1544.97 Q1258.62 1540.93 1255.94 1538.73 Q1253.3 1536.5 1248.49 1536.5 Q1245.44 1536.5 1242.54 1537.23 Q1239.65 1537.97 1236.97 1539.43 L1236.97 1534.02 Q1240.19 1532.78 1243.21 1532.17 Q1246.23 1531.54 1249.1 1531.54 Q1256.83 1531.54 1260.65 1535.55 Q1264.47 1539.56 1264.47 1547.71 Z" fill="#000000" fill-rule="evenodd" fill-opacity="1" /><path clip-path="url(#clip300)" d="M 0 0 M1276.54 1518.52 L1282.39 1518.52 L1282.39 1568.04 L1276.54 1568.04 L1276.54 1518.52 Z" fill="#000000" fill-rule="evenodd" fill-opacity="1" /><path clip-path="url(#clip300)" d="M 0 0 M1294.04 1553.98 L1294.04 1532.4 L1299.9 1532.4 L1299.9 1553.75 Q1299.9 1558.81 1301.87 1561.36 Q1303.84 1563.87 1307.79 1563.87 Q1312.53 1563.87 1315.27 1560.85 Q1318.04 1557.83 1318.04 1552.61 L1318.04 1532.4 L1323.9 1532.4 L1323.9 1568.04 L1318.04 1568.04 L1318.04 1562.57 Q1315.91 1565.82 1313.07 1567.41 Q1310.27 1568.97 1306.55 1568.97 Q1300.41 1568.97 1297.22 1565.15 Q1294.04 1561.33 1294.04 1553.98 M1308.78 1531.54 L1308.78 1531.54 Z" fill="#000000" fill-rule="evenodd" fill-opacity="1" /><path clip-path="url(#clip300)" d="M 0 0 M1366.45 1548.76 L1366.45 1551.62 L1339.52 1551.62 Q1339.91 1557.67 1343.15 1560.85 Q1346.43 1564 1352.26 1564 Q1355.63 1564 1358.78 1563.17 Q1361.96 1562.35 1365.08 1560.69 L1365.08 1566.23 Q1361.93 1567.57 1358.62 1568.27 Q1355.31 1568.97 1351.91 1568.97 Q1343.38 1568.97 1338.38 1564 Q1333.41 1559.04 1333.41 1550.57 Q1333.41 1541.82 1338.12 1536.69 Q1342.87 1531.54 1350.89 1531.54 Q1358.08 1531.54 1362.25 1536.18 Q1366.45 1540.8 1366.45 1548.76 M1360.59 1547.04 Q1360.53 1542.23 1357.89 1539.37 Q1355.28 1536.5 1350.95 1536.5 Q1346.05 1536.5 1343.09 1539.27 Q1340.16 1542.04 1339.72 1547.07 L1360.59 1547.04 Z" fill="#000000" fill-rule="evenodd" fill-opacity="1" /><polyline clip-path="url(#clip302)" style="stroke:#000000; stroke-width:2; stroke-opacity:0.1; fill:none" points="
  205.121,1384.24 2352.76,1384.24 
  "/>
<polyline clip-path="url(#clip302)" style="stroke:#000000; stroke-width:2; stroke-opacity:0.1; fill:none" points="
  205.121,1013.37 2352.76,1013.37 
  "/>
<polyline clip-path="url(#clip302)" style="stroke:#000000; stroke-width:2; stroke-opacity:0.1; fill:none" points="
  205.121,642.494 2352.76,642.494 
  "/>
<polyline clip-path="url(#clip302)" style="stroke:#000000; stroke-width:2; stroke-opacity:0.1; fill:none" points="
  205.121,271.622 2352.76,271.622 
  "/>
<polyline clip-path="url(#clip300)" style="stroke:#000000; stroke-width:4; stroke-opacity:1; fill:none" points="
  205.121,1423.18 205.121,47.2441 
  "/>
<polyline clip-path="url(#clip300)" style="stroke:#000000; stroke-width:4; stroke-opacity:1; fill:none" points="
  205.121,1384.24 230.893,1384.24 
  "/>
<polyline clip-path="url(#clip300)" style="stroke:#000000; stroke-width:4; stroke-opacity:1; fill:none" points="
  205.121,1013.37 230.893,1013.37 
  "/>
<polyline clip-path="url(#clip300)" style="stroke:#000000; stroke-width:4; stroke-opacity:1; fill:none" points="
  205.121,642.494 230.893,642.494 
  "/>
<polyline clip-path="url(#clip300)" style="stroke:#000000; stroke-width:4; stroke-opacity:1; fill:none" points="
  205.121,271.622 230.893,271.622 
  "/>
<path clip-path="url(#clip300)" d="M 0 0 M157.177 1370.04 Q153.566 1370.04 151.737 1373.6 Q149.931 1377.14 149.931 1384.27 Q149.931 1391.38 151.737 1394.94 Q153.566 1398.49 157.177 1398.49 Q160.811 1398.49 162.616 1394.94 Q164.445 1391.38 164.445 1384.27 Q164.445 1377.14 162.616 1373.6 Q160.811 1370.04 157.177 1370.04 M157.177 1366.33 Q162.987 1366.33 166.042 1370.94 Q169.121 1375.52 169.121 1384.27 Q169.121 1393 166.042 1397.61 Q162.987 1402.19 157.177 1402.19 Q151.366 1402.19 148.288 1397.61 Q145.232 1393 145.232 1384.27 Q145.232 1375.52 148.288 1370.94 Q151.366 1366.33 157.177 1366.33 Z" fill="#000000" fill-rule="evenodd" fill-opacity="1" /><path clip-path="url(#clip300)" d="M 0 0 M121.043 1026.71 L137.362 1026.71 L137.362 1030.65 L115.418 1030.65 L115.418 1026.71 Q118.08 1023.96 122.663 1019.33 Q127.269 1014.67 128.45 1013.33 Q130.695 1010.81 131.575 1009.07 Q132.478 1007.31 132.478 1005.62 Q132.478 1002.87 130.533 1001.13 Q128.612 999.396 125.51 999.396 Q123.311 999.396 120.857 1000.16 Q118.427 1000.92 115.649 1002.47 L115.649 997.753 Q118.473 996.619 120.927 996.04 Q123.38 995.461 125.418 995.461 Q130.788 995.461 133.982 998.146 Q137.177 1000.83 137.177 1005.32 Q137.177 1007.45 136.367 1009.37 Q135.579 1011.27 133.473 1013.86 Q132.894 1014.54 129.792 1017.75 Q126.691 1020.95 121.043 1026.71 Z" fill="#000000" fill-rule="evenodd" fill-opacity="1" /><path clip-path="url(#clip300)" d="M 0 0 M157.177 999.165 Q153.566 999.165 151.737 1002.73 Q149.931 1006.27 149.931 1013.4 Q149.931 1020.51 151.737 1024.07 Q153.566 1027.61 157.177 1027.61 Q160.811 1027.61 162.616 1024.07 Q164.445 1020.51 164.445 1013.4 Q164.445 1006.27 162.616 1002.73 Q160.811 999.165 157.177 999.165 M157.177 995.461 Q162.987 995.461 166.042 1000.07 Q169.121 1004.65 169.121 1013.4 Q169.121 1022.13 166.042 1026.73 Q162.987 1031.32 157.177 1031.32 Q151.366 1031.32 148.288 1026.73 Q145.232 1022.13 145.232 1013.4 Q145.232 1004.65 148.288 1000.07 Q151.366 995.461 157.177 995.461 Z" fill="#000000" fill-rule="evenodd" fill-opacity="1" /><path clip-path="url(#clip300)" d="M 0 0 M129.862 629.288 L118.056 647.737 L129.862 647.737 L129.862 629.288 M128.635 625.214 L134.515 625.214 L134.515 647.737 L139.445 647.737 L139.445 651.626 L134.515 651.626 L134.515 659.774 L129.862 659.774 L129.862 651.626 L114.26 651.626 L114.26 647.112 L128.635 625.214 Z" fill="#000000" fill-rule="evenodd" fill-opacity="1" /><path clip-path="url(#clip300)" d="M 0 0 M157.177 628.293 Q153.566 628.293 151.737 631.857 Q149.931 635.399 149.931 642.529 Q149.931 649.635 151.737 653.2 Q153.566 656.742 157.177 656.742 Q160.811 656.742 162.616 653.2 Q164.445 649.635 164.445 642.529 Q164.445 635.399 162.616 631.857 Q160.811 628.293 157.177 628.293 M157.177 624.589 Q162.987 624.589 166.042 629.195 Q169.121 633.779 169.121 642.529 Q169.121 651.255 166.042 655.862 Q162.987 660.445 157.177 660.445 Q151.366 660.445 148.288 655.862 Q145.232 651.255 145.232 642.529 Q145.232 633.779 148.288 629.195 Q151.366 624.589 157.177 624.589 Z" fill="#000000" fill-rule="evenodd" fill-opacity="1" /><path clip-path="url(#clip300)" d="M 0 0 M127.593 269.758 Q124.445 269.758 122.593 271.911 Q120.765 274.064 120.765 277.814 Q120.765 281.541 122.593 283.717 Q124.445 285.869 127.593 285.869 Q130.742 285.869 132.57 283.717 Q134.422 281.541 134.422 277.814 Q134.422 274.064 132.57 271.911 Q130.742 269.758 127.593 269.758 M136.876 255.106 L136.876 259.365 Q135.117 258.532 133.311 258.092 Q131.529 257.652 129.769 257.652 Q125.14 257.652 122.686 260.777 Q120.255 263.902 119.908 270.221 Q121.274 268.207 123.334 267.143 Q125.394 266.055 127.871 266.055 Q133.08 266.055 136.089 269.226 Q139.121 272.374 139.121 277.814 Q139.121 283.138 135.973 286.355 Q132.825 289.573 127.593 289.573 Q121.598 289.573 118.427 284.99 Q115.256 280.383 115.256 271.656 Q115.256 263.462 119.144 258.601 Q123.033 253.717 129.584 253.717 Q131.343 253.717 133.126 254.064 Q134.931 254.411 136.876 255.106 Z" fill="#000000" fill-rule="evenodd" fill-opacity="1" /><path clip-path="url(#clip300)" d="M 0 0 M157.177 257.42 Q153.566 257.42 151.737 260.985 Q149.931 264.527 149.931 271.656 Q149.931 278.763 151.737 282.328 Q153.566 285.869 157.177 285.869 Q160.811 285.869 162.616 282.328 Q164.445 278.763 164.445 271.656 Q164.445 264.527 162.616 260.985 Q160.811 257.42 157.177 257.42 M157.177 253.717 Q162.987 253.717 166.042 258.323 Q169.121 262.907 169.121 271.656 Q169.121 280.383 166.042 284.99 Q162.987 289.573 157.177 289.573 Q151.366 289.573 148.288 284.99 Q145.232 280.383 145.232 271.656 Q145.232 262.907 148.288 258.323 Q151.366 253.717 157.177 253.717 Z" fill="#000000" fill-rule="evenodd" fill-opacity="1" /><path clip-path="url(#clip300)" d="M 0 0 M16.4842 899.415 L16.4842 872.106 L21.895 872.106 L21.895 892.986 L35.8996 892.986 L35.8996 874.144 L41.3104 874.144 L41.3104 892.986 L64.0042 892.986 L64.0042 899.415 L16.4842 899.415 Z" fill="#000000" fill-rule="evenodd" fill-opacity="1" /><path clip-path="url(#clip300)" d="M 0 0 M33.8307 846.262 Q33.2578 847.248 33.0032 848.426 Q32.7167 849.572 32.7167 850.972 Q32.7167 855.938 35.9632 858.611 Q39.1779 861.253 45.2253 861.253 L64.0042 861.253 L64.0042 867.141 L28.3562 867.141 L28.3562 861.253 L33.8944 861.253 Q30.6479 859.407 29.0883 856.447 Q27.4968 853.487 27.4968 849.254 Q27.4968 848.649 27.5923 847.917 Q27.656 847.185 27.8151 846.294 L33.8307 846.262 Z" fill="#000000" fill-rule="evenodd" fill-opacity="1" /><path clip-path="url(#clip300)" d="M 0 0 M44.7161 811.059 L47.5806 811.059 L47.5806 837.986 Q53.6281 837.604 56.8109 834.358 Q59.9619 831.08 59.9619 825.255 Q59.9619 821.881 59.1344 818.73 Q58.3069 815.547 56.6518 812.428 L62.1899 812.428 Q63.5267 815.579 64.227 818.889 Q64.9272 822.199 64.9272 825.605 Q64.9272 834.135 59.9619 839.132 Q54.9967 844.097 46.5303 844.097 Q37.7774 844.097 32.6531 839.387 Q27.4968 834.644 27.4968 826.624 Q27.4968 819.43 32.1438 815.261 Q36.7589 811.059 44.7161 811.059 M42.9973 816.916 Q38.1912 816.979 35.3266 819.621 Q32.4621 822.231 32.4621 826.56 Q32.4621 831.461 35.2312 834.422 Q38.0002 837.35 43.0292 837.795 L42.9973 816.916 Z" fill="#000000" fill-rule="evenodd" fill-opacity="1" /><path clip-path="url(#clip300)" d="M 0 0 M46.212 797.946 Q52.6732 797.946 56.3653 795.304 Q60.0256 792.631 60.0256 787.984 Q60.0256 783.337 56.3653 780.663 Q52.6732 777.99 46.212 777.99 Q39.7508 777.99 36.0905 780.663 Q32.3984 783.337 32.3984 787.984 Q32.3984 792.631 36.0905 795.304 Q39.7508 797.946 46.212 797.946 M58.657 777.99 Q61.8398 779.836 63.3994 782.668 Q64.9272 785.469 64.9272 789.416 Q64.9272 795.877 59.771 799.951 Q54.6147 803.993 46.212 803.993 Q37.8093 803.993 32.6531 799.951 Q27.4968 795.877 27.4968 789.416 Q27.4968 785.469 29.0564 782.668 Q30.5842 779.836 33.7671 777.99 L28.3562 777.99 L28.3562 772.133 L77.5631 772.133 L77.5631 777.99 L58.657 777.99 Z" fill="#000000" fill-rule="evenodd" fill-opacity="1" /><path clip-path="url(#clip300)" d="M 0 0 M49.9359 760.675 L28.3562 760.675 L28.3562 754.818 L49.7131 754.818 Q54.7739 754.818 57.3202 752.845 Q59.8346 750.872 59.8346 746.925 Q59.8346 742.182 56.8109 739.445 Q53.7872 736.676 48.5673 736.676 L28.3562 736.676 L28.3562 730.82 L64.0042 730.82 L64.0042 736.676 L58.5296 736.676 Q61.7762 738.809 63.3676 741.641 Q64.9272 744.442 64.9272 748.166 Q64.9272 754.309 61.1078 757.492 Q57.2883 760.675 49.9359 760.675 M27.4968 745.938 L27.4968 745.938 Z" fill="#000000" fill-rule="evenodd" fill-opacity="1" /><path clip-path="url(#clip300)" d="M 0 0 M44.7161 688.265 L47.5806 688.265 L47.5806 715.192 Q53.6281 714.81 56.8109 711.563 Q59.9619 708.285 59.9619 702.46 Q59.9619 699.087 59.1344 695.936 Q58.3069 692.753 56.6518 689.634 L62.1899 689.634 Q63.5267 692.785 64.227 696.095 Q64.9272 699.405 64.9272 702.811 Q64.9272 711.341 59.9619 716.338 Q54.9967 721.303 46.5303 721.303 Q37.7774 721.303 32.6531 716.592 Q27.4968 711.85 27.4968 703.829 Q27.4968 696.636 32.1438 692.466 Q36.7589 688.265 44.7161 688.265 M42.9973 694.121 Q38.1912 694.185 35.3266 696.827 Q32.4621 699.437 32.4621 703.765 Q32.4621 708.667 35.2312 711.627 Q38.0002 714.555 43.0292 715.001 L42.9973 694.121 Z" fill="#000000" fill-rule="evenodd" fill-opacity="1" /><path clip-path="url(#clip300)" d="M 0 0 M42.4881 649.02 L64.0042 649.02 L64.0042 654.877 L42.679 654.877 Q37.6183 654.877 35.1038 656.85 Q32.5894 658.823 32.5894 662.77 Q32.5894 667.513 35.6131 670.25 Q38.6368 672.987 43.8567 672.987 L64.0042 672.987 L64.0042 678.875 L28.3562 678.875 L28.3562 672.987 L33.8944 672.987 Q30.6797 670.887 29.0883 668.054 Q27.4968 665.189 27.4968 661.465 Q27.4968 655.322 31.3163 652.171 Q35.1038 649.02 42.4881 649.02 Z" fill="#000000" fill-rule="evenodd" fill-opacity="1" /><path clip-path="url(#clip300)" d="M 0 0 M29.7248 611.685 L35.1993 611.685 Q33.8307 614.168 33.1623 616.683 Q32.4621 619.165 32.4621 621.711 Q32.4621 627.409 36.0905 630.56 Q39.6872 633.711 46.212 633.711 Q52.7369 633.711 56.3653 630.56 Q59.9619 627.409 59.9619 621.711 Q59.9619 619.165 59.2935 616.683 Q58.5933 614.168 57.2247 611.685 L62.6355 611.685 Q63.7814 614.136 64.3543 616.778 Q64.9272 619.388 64.9272 622.348 Q64.9272 630.401 59.8664 635.143 Q54.8057 639.886 46.212 639.886 Q37.491 639.886 32.4939 635.111 Q27.4968 630.305 27.4968 621.966 Q27.4968 619.261 28.0697 616.683 Q28.6108 614.104 29.7248 611.685 Z" fill="#000000" fill-rule="evenodd" fill-opacity="1" /><path clip-path="url(#clip300)" d="M 0 0 M67.3143 586.668 Q73.68 589.151 75.6216 591.506 Q77.5631 593.861 77.5631 597.808 L77.5631 602.487 L72.6615 602.487 L72.6615 599.05 Q72.6615 596.631 71.5157 595.294 Q70.3699 593.957 66.1048 592.334 L63.4312 591.283 L28.3562 605.702 L28.3562 599.495 L56.238 588.355 L28.3562 577.215 L28.3562 571.009 L67.3143 586.668 Z" fill="#000000" fill-rule="evenodd" fill-opacity="1" /><path clip-path="url(#clip302)" d="
M323.245 1272.98 L323.245 1384.24 L376.339 1384.24 L376.339 1272.98 L323.245 1272.98 L323.245 1272.98  Z
  " fill="#009af9" fill-rule="evenodd" fill-opacity="1"/>
<polyline clip-path="url(#clip302)" style="stroke:#000000; stroke-width:4; stroke-opacity:1; fill:none" points="
  323.245,1272.98 323.245,1384.24 376.339,1384.24 376.339,1272.98 323.245,1272.98 
  "/>
<path clip-path="url(#clip302)" d="
M376.339 1235.89 L376.339 1384.24 L429.433 1384.24 L429.433 1235.89 L376.339 1235.89 L376.339 1235.89  Z
  " fill="#009af9" fill-rule="evenodd" fill-opacity="1"/>
<polyline clip-path="url(#clip302)" style="stroke:#000000; stroke-width:4; stroke-opacity:1; fill:none" points="
  376.339,1235.89 376.339,1384.24 429.433,1384.24 429.433,1235.89 376.339,1235.89 
  "/>
<path clip-path="url(#clip302)" d="
M429.433 1031.91 L429.433 1384.24 L482.527 1384.24 L482.527 1031.91 L429.433 1031.91 L429.433 1031.91  Z
  " fill="#009af9" fill-rule="evenodd" fill-opacity="1"/>
<polyline clip-path="url(#clip302)" style="stroke:#000000; stroke-width:4; stroke-opacity:1; fill:none" points="
  429.433,1031.91 429.433,1384.24 482.527,1384.24 482.527,1031.91 429.433,1031.91 
  "/>
<path clip-path="url(#clip302)" d="
M482.527 883.561 L482.527 1384.24 L535.621 1384.24 L535.621 883.561 L482.527 883.561 L482.527 883.561  Z
  " fill="#009af9" fill-rule="evenodd" fill-opacity="1"/>
<polyline clip-path="url(#clip302)" style="stroke:#000000; stroke-width:4; stroke-opacity:1; fill:none" points="
  482.527,883.561 482.527,1384.24 535.621,1384.24 535.621,883.561 482.527,883.561 
  "/>
<path clip-path="url(#clip302)" d="
M535.621 920.648 L535.621 1384.24 L588.715 1384.24 L588.715 920.648 L535.621 920.648 L535.621 920.648  Z
  " fill="#009af9" fill-rule="evenodd" fill-opacity="1"/>
<polyline clip-path="url(#clip302)" style="stroke:#000000; stroke-width:4; stroke-opacity:1; fill:none" points="
  535.621,920.648 535.621,1384.24 588.715,1384.24 588.715,920.648 535.621,920.648 
  "/>
<path clip-path="url(#clip302)" d="
M588.715 735.212 L588.715 1384.24 L641.809 1384.24 L641.809 735.212 L588.715 735.212 L588.715 735.212  Z
  " fill="#009af9" fill-rule="evenodd" fill-opacity="1"/>
<polyline clip-path="url(#clip302)" style="stroke:#000000; stroke-width:4; stroke-opacity:1; fill:none" points="
  588.715,735.212 588.715,1384.24 641.809,1384.24 641.809,735.212 588.715,735.212 
  "/>
<path clip-path="url(#clip302)" d="
M641.809 86.1857 L641.809 1384.24 L694.903 1384.24 L694.903 86.1857 L641.809 86.1857 L641.809 86.1857  Z
  " fill="#009af9" fill-rule="evenodd" fill-opacity="1"/>
<polyline clip-path="url(#clip302)" style="stroke:#000000; stroke-width:4; stroke-opacity:1; fill:none" points="
  641.809,86.1857 641.809,1384.24 694.903,1384.24 694.903,86.1857 641.809,86.1857 
  "/>
<path clip-path="url(#clip302)" d="
M694.903 419.971 L694.903 1384.24 L747.997 1384.24 L747.997 419.971 L694.903 419.971 L694.903 419.971  Z
  " fill="#009af9" fill-rule="evenodd" fill-opacity="1"/>
<polyline clip-path="url(#clip302)" style="stroke:#000000; stroke-width:4; stroke-opacity:1; fill:none" points="
  694.903,419.971 694.903,1384.24 747.997,1384.24 747.997,419.971 694.903,419.971 
  "/>
<path clip-path="url(#clip302)" d="
M747.997 290.165 L747.997 1384.24 L801.092 1384.24 L801.092 290.165 L747.997 290.165 L747.997 290.165  Z
  " fill="#009af9" fill-rule="evenodd" fill-opacity="1"/>
<polyline clip-path="url(#clip302)" style="stroke:#000000; stroke-width:4; stroke-opacity:1; fill:none" points="
  747.997,290.165 747.997,1384.24 801.092,1384.24 801.092,290.165 747.997,290.165 
  "/>
<path clip-path="url(#clip302)" d="
M801.092 364.34 L801.092 1384.24 L854.186 1384.24 L854.186 364.34 L801.092 364.34 L801.092 364.34  Z
  " fill="#009af9" fill-rule="evenodd" fill-opacity="1"/>
<polyline clip-path="url(#clip302)" style="stroke:#000000; stroke-width:4; stroke-opacity:1; fill:none" points="
  801.092,364.34 801.092,1384.24 854.186,1384.24 854.186,364.34 801.092,364.34 
  "/>
<path clip-path="url(#clip302)" d="
M854.186 419.971 L854.186 1384.24 L907.28 1384.24 L907.28 419.971 L854.186 419.971 L854.186 419.971  Z
  " fill="#009af9" fill-rule="evenodd" fill-opacity="1"/>
<polyline clip-path="url(#clip302)" style="stroke:#000000; stroke-width:4; stroke-opacity:1; fill:none" points="
  854.186,419.971 854.186,1384.24 907.28,1384.24 907.28,419.971 854.186,419.971 
  "/>
<path clip-path="url(#clip302)" d="
M907.28 790.843 L907.28 1384.24 L960.374 1384.24 L960.374 790.843 L907.28 790.843 L907.28 790.843  Z
  " fill="#009af9" fill-rule="evenodd" fill-opacity="1"/>
<polyline clip-path="url(#clip302)" style="stroke:#000000; stroke-width:4; stroke-opacity:1; fill:none" points="
  907.28,790.843 907.28,1384.24 960.374,1384.24 960.374,790.843 907.28,790.843 
  "/>
<path clip-path="url(#clip302)" d="
M960.374 790.843 L960.374 1384.24 L1013.47 1384.24 L1013.47 790.843 L960.374 790.843 L960.374 790.843  Z
  " fill="#009af9" fill-rule="evenodd" fill-opacity="1"/>
<polyline clip-path="url(#clip302)" style="stroke:#000000; stroke-width:4; stroke-opacity:1; fill:none" points="
  960.374,790.843 960.374,1384.24 1013.47,1384.24 1013.47,790.843 960.374,790.843 
  "/>
<path clip-path="url(#clip302)" d="
M1013.47 809.386 L1013.47 1384.24 L1066.56 1384.24 L1066.56 809.386 L1013.47 809.386 L1013.47 809.386  Z
  " fill="#009af9" fill-rule="evenodd" fill-opacity="1"/>
<polyline clip-path="url(#clip302)" style="stroke:#000000; stroke-width:4; stroke-opacity:1; fill:none" points="
  1013.47,809.386 1013.47,1384.24 1066.56,1384.24 1066.56,809.386 1013.47,809.386 
  "/>
<path clip-path="url(#clip302)" d="
M1066.56 920.648 L1066.56 1384.24 L1119.66 1384.24 L1119.66 920.648 L1066.56 920.648 L1066.56 920.648  Z
  " fill="#009af9" fill-rule="evenodd" fill-opacity="1"/>
<polyline clip-path="url(#clip302)" style="stroke:#000000; stroke-width:4; stroke-opacity:1; fill:none" points="
  1066.56,920.648 1066.56,1384.24 1119.66,1384.24 1119.66,920.648 1066.56,920.648 
  "/>
<path clip-path="url(#clip302)" d="
M1119.66 1050.45 L1119.66 1384.24 L1172.75 1384.24 L1172.75 1050.45 L1119.66 1050.45 L1119.66 1050.45  Z
  " fill="#009af9" fill-rule="evenodd" fill-opacity="1"/>
<polyline clip-path="url(#clip302)" style="stroke:#000000; stroke-width:4; stroke-opacity:1; fill:none" points="
  1119.66,1050.45 1119.66,1384.24 1172.75,1384.24 1172.75,1050.45 1119.66,1050.45 
  "/>
<path clip-path="url(#clip302)" d="
M1172.75 976.279 L1172.75 1384.24 L1225.84 1384.24 L1225.84 976.279 L1172.75 976.279 L1172.75 976.279  Z
  " fill="#009af9" fill-rule="evenodd" fill-opacity="1"/>
<polyline clip-path="url(#clip302)" style="stroke:#000000; stroke-width:4; stroke-opacity:1; fill:none" points="
  1172.75,976.279 1172.75,1384.24 1225.84,1384.24 1225.84,976.279 1172.75,976.279 
  "/>
<path clip-path="url(#clip302)" d="
M1225.84 957.735 L1225.84 1384.24 L1278.94 1384.24 L1278.94 957.735 L1225.84 957.735 L1225.84 957.735  Z
  " fill="#009af9" fill-rule="evenodd" fill-opacity="1"/>
<polyline clip-path="url(#clip302)" style="stroke:#000000; stroke-width:4; stroke-opacity:1; fill:none" points="
  1225.84,957.735 1225.84,1384.24 1278.94,1384.24 1278.94,957.735 1225.84,957.735 
  "/>
<path clip-path="url(#clip302)" d="
M1278.94 1050.45 L1278.94 1384.24 L1332.03 1384.24 L1332.03 1050.45 L1278.94 1050.45 L1278.94 1050.45  Z
  " fill="#009af9" fill-rule="evenodd" fill-opacity="1"/>
<polyline clip-path="url(#clip302)" style="stroke:#000000; stroke-width:4; stroke-opacity:1; fill:none" points="
  1278.94,1050.45 1278.94,1384.24 1332.03,1384.24 1332.03,1050.45 1278.94,1050.45 
  "/>
<path clip-path="url(#clip302)" d="
M1332.03 1143.17 L1332.03 1384.24 L1385.13 1384.24 L1385.13 1143.17 L1332.03 1143.17 L1332.03 1143.17  Z
  " fill="#009af9" fill-rule="evenodd" fill-opacity="1"/>
<polyline clip-path="url(#clip302)" style="stroke:#000000; stroke-width:4; stroke-opacity:1; fill:none" points="
  1332.03,1143.17 1332.03,1384.24 1385.13,1384.24 1385.13,1143.17 1332.03,1143.17 
  "/>
<path clip-path="url(#clip302)" d="
M1385.13 1235.89 L1385.13 1384.24 L1438.22 1384.24 L1438.22 1235.89 L1385.13 1235.89 L1385.13 1235.89  Z
  " fill="#009af9" fill-rule="evenodd" fill-opacity="1"/>
<polyline clip-path="url(#clip302)" style="stroke:#000000; stroke-width:4; stroke-opacity:1; fill:none" points="
  1385.13,1235.89 1385.13,1384.24 1438.22,1384.24 1438.22,1235.89 1385.13,1235.89 
  "/>
<path clip-path="url(#clip302)" d="
M1438.22 1310.06 L1438.22 1384.24 L1491.31 1384.24 L1491.31 1310.06 L1438.22 1310.06 L1438.22 1310.06  Z
  " fill="#009af9" fill-rule="evenodd" fill-opacity="1"/>
<polyline clip-path="url(#clip302)" style="stroke:#000000; stroke-width:4; stroke-opacity:1; fill:none" points="
  1438.22,1310.06 1438.22,1384.24 1491.31,1384.24 1491.31,1310.06 1438.22,1310.06 
  "/>
<path clip-path="url(#clip302)" d="
M1491.31 1198.8 L1491.31 1384.24 L1544.41 1384.24 L1544.41 1198.8 L1491.31 1198.8 L1491.31 1198.8  Z
  " fill="#009af9" fill-rule="evenodd" fill-opacity="1"/>
<polyline clip-path="url(#clip302)" style="stroke:#000000; stroke-width:4; stroke-opacity:1; fill:none" points="
  1491.31,1198.8 1491.31,1384.24 1544.41,1384.24 1544.41,1198.8 1491.31,1198.8 
  "/>
<path clip-path="url(#clip302)" d="
M1544.41 1198.8 L1544.41 1384.24 L1597.5 1384.24 L1597.5 1198.8 L1544.41 1198.8 L1544.41 1198.8  Z
  " fill="#009af9" fill-rule="evenodd" fill-opacity="1"/>
<polyline clip-path="url(#clip302)" style="stroke:#000000; stroke-width:4; stroke-opacity:1; fill:none" points="
  1544.41,1198.8 1544.41,1384.24 1597.5,1384.24 1597.5,1198.8 1544.41,1198.8 
  "/>
<path clip-path="url(#clip302)" d="
M1597.5 1198.8 L1597.5 1384.24 L1650.6 1384.24 L1650.6 1198.8 L1597.5 1198.8 L1597.5 1198.8  Z
  " fill="#009af9" fill-rule="evenodd" fill-opacity="1"/>
<polyline clip-path="url(#clip302)" style="stroke:#000000; stroke-width:4; stroke-opacity:1; fill:none" points="
  1597.5,1198.8 1597.5,1384.24 1650.6,1384.24 1650.6,1198.8 1597.5,1198.8 
  "/>
<path clip-path="url(#clip302)" d="
M1650.6 865.017 L1650.6 1384.24 L1703.69 1384.24 L1703.69 865.017 L1650.6 865.017 L1650.6 865.017  Z
  " fill="#009af9" fill-rule="evenodd" fill-opacity="1"/>
<polyline clip-path="url(#clip302)" style="stroke:#000000; stroke-width:4; stroke-opacity:1; fill:none" points="
  1650.6,865.017 1650.6,1384.24 1703.69,1384.24 1703.69,865.017 1650.6,865.017 
  "/>
<path clip-path="url(#clip302)" d="
M1703.69 568.319 L1703.69 1384.24 L1756.79 1384.24 L1756.79 568.319 L1703.69 568.319 L1703.69 568.319  Z
  " fill="#009af9" fill-rule="evenodd" fill-opacity="1"/>
<polyline clip-path="url(#clip302)" style="stroke:#000000; stroke-width:4; stroke-opacity:1; fill:none" points="
  1703.69,568.319 1703.69,1384.24 1756.79,1384.24 1756.79,568.319 1703.69,568.319 
  "/>
<path clip-path="url(#clip302)" d="
M1756.79 438.514 L1756.79 1384.24 L1809.88 1384.24 L1809.88 438.514 L1756.79 438.514 L1756.79 438.514  Z
  " fill="#009af9" fill-rule="evenodd" fill-opacity="1"/>
<polyline clip-path="url(#clip302)" style="stroke:#000000; stroke-width:4; stroke-opacity:1; fill:none" points="
  1756.79,438.514 1756.79,1384.24 1809.88,1384.24 1809.88,438.514 1756.79,438.514 
  "/>
<path clip-path="url(#clip302)" d="
M1809.88 438.514 L1809.88 1384.24 L1862.97 1384.24 L1862.97 438.514 L1809.88 438.514 L1809.88 438.514  Z
  " fill="#009af9" fill-rule="evenodd" fill-opacity="1"/>
<polyline clip-path="url(#clip302)" style="stroke:#000000; stroke-width:4; stroke-opacity:1; fill:none" points="
  1809.88,438.514 1809.88,1384.24 1862.97,1384.24 1862.97,438.514 1809.88,438.514 
  "/>
<path clip-path="url(#clip302)" d="
M1862.97 512.689 L1862.97 1384.24 L1916.07 1384.24 L1916.07 512.689 L1862.97 512.689 L1862.97 512.689  Z
  " fill="#009af9" fill-rule="evenodd" fill-opacity="1"/>
<polyline clip-path="url(#clip302)" style="stroke:#000000; stroke-width:4; stroke-opacity:1; fill:none" points="
  1862.97,512.689 1862.97,1384.24 1916.07,1384.24 1916.07,512.689 1862.97,512.689 
  "/>
<path clip-path="url(#clip302)" d="
M1916.07 642.494 L1916.07 1384.24 L1969.16 1384.24 L1969.16 642.494 L1916.07 642.494 L1916.07 642.494  Z
  " fill="#009af9" fill-rule="evenodd" fill-opacity="1"/>
<polyline clip-path="url(#clip302)" style="stroke:#000000; stroke-width:4; stroke-opacity:1; fill:none" points="
  1916.07,642.494 1916.07,1384.24 1969.16,1384.24 1969.16,642.494 1916.07,642.494 
  "/>
<path clip-path="url(#clip302)" d="
M1969.16 735.212 L1969.16 1384.24 L2022.26 1384.24 L2022.26 735.212 L1969.16 735.212 L1969.16 735.212  Z
  " fill="#009af9" fill-rule="evenodd" fill-opacity="1"/>
<polyline clip-path="url(#clip302)" style="stroke:#000000; stroke-width:4; stroke-opacity:1; fill:none" points="
  1969.16,735.212 1969.16,1384.24 2022.26,1384.24 2022.26,735.212 1969.16,735.212 
  "/>
<path clip-path="url(#clip302)" d="
M2022.26 1069 L2022.26 1384.24 L2075.35 1384.24 L2075.35 1069 L2022.26 1069 L2022.26 1069  Z
  " fill="#009af9" fill-rule="evenodd" fill-opacity="1"/>
<polyline clip-path="url(#clip302)" style="stroke:#000000; stroke-width:4; stroke-opacity:1; fill:none" points="
  2022.26,1069 2022.26,1384.24 2075.35,1384.24 2075.35,1069 2022.26,1069 
  "/>
<path clip-path="url(#clip302)" d="
M2075.35 1143.17 L2075.35 1384.24 L2128.44 1384.24 L2128.44 1143.17 L2075.35 1143.17 L2075.35 1143.17  Z
  " fill="#009af9" fill-rule="evenodd" fill-opacity="1"/>
<polyline clip-path="url(#clip302)" style="stroke:#000000; stroke-width:4; stroke-opacity:1; fill:none" points="
  2075.35,1143.17 2075.35,1384.24 2128.44,1384.24 2128.44,1143.17 2075.35,1143.17 
  "/>
<path clip-path="url(#clip302)" d="
M2128.44 1272.98 L2128.44 1384.24 L2181.54 1384.24 L2181.54 1272.98 L2128.44 1272.98 L2128.44 1272.98  Z
  " fill="#009af9" fill-rule="evenodd" fill-opacity="1"/>
<polyline clip-path="url(#clip302)" style="stroke:#000000; stroke-width:4; stroke-opacity:1; fill:none" points="
  2128.44,1272.98 2128.44,1384.24 2181.54,1384.24 2181.54,1272.98 2128.44,1272.98 
  "/>
<path clip-path="url(#clip302)" d="
M2181.54 1310.06 L2181.54 1384.24 L2234.63 1384.24 L2234.63 1310.06 L2181.54 1310.06 L2181.54 1310.06  Z
  " fill="#009af9" fill-rule="evenodd" fill-opacity="1"/>
<polyline clip-path="url(#clip302)" style="stroke:#000000; stroke-width:4; stroke-opacity:1; fill:none" points="
  2181.54,1310.06 2181.54,1384.24 2234.63,1384.24 2234.63,1310.06 2181.54,1310.06 
  "/>
<path clip-path="url(#clip300)" d="
M1990.11 214.069 L2281.17 214.069 L2281.17 93.1086 L1990.11 93.1086  Z
  " fill="#ffffff" fill-rule="evenodd" fill-opacity="1"/>
<polyline clip-path="url(#clip300)" style="stroke:#000000; stroke-width:4; stroke-opacity:1; fill:none" points="
  1990.11,214.069 2281.17,214.069 2281.17,93.1086 1990.11,93.1086 1990.11,214.069 
  "/>
<path clip-path="url(#clip300)" d="
M2013.97 177.781 L2157.15 177.781 L2157.15 129.397 L2013.97 129.397 L2013.97 177.781  Z
  " fill="#009af9" fill-rule="evenodd" fill-opacity="1"/>
<polyline clip-path="url(#clip300)" style="stroke:#000000; stroke-width:4; stroke-opacity:1; fill:none" points="
  2013.97,177.781 2157.15,177.781 2157.15,129.397 2013.97,129.397 2013.97,177.781 
  "/>
<path clip-path="url(#clip300)" d="M 0 0 M2194.86 173.276 Q2193.05 177.906 2191.34 179.318 Q2189.62 180.73 2186.75 180.73 L2183.35 180.73 L2183.35 177.165 L2185.85 177.165 Q2187.61 177.165 2188.58 176.332 Q2189.55 175.498 2190.73 172.396 L2191.5 170.452 L2181.01 144.943 L2185.53 144.943 L2193.63 165.221 L2201.73 144.943 L2206.24 144.943 L2194.86 173.276 Z" fill="#000000" fill-rule="evenodd" fill-opacity="1" /><path clip-path="url(#clip300)" d="M 0 0 M2213.54 166.933 L2221.17 166.933 L2221.17 140.568 L2212.86 142.235 L2212.86 137.975 L2221.13 136.309 L2225.8 136.309 L2225.8 166.933 L2233.44 166.933 L2233.44 170.869 L2213.54 170.869 L2213.54 166.933 Z" fill="#000000" fill-rule="evenodd" fill-opacity="1" /></svg>
