<?xml version="1.0" encoding="utf-8"?>
<svg xmlns="http://www.w3.org/2000/svg" xmlns:xlink="http://www.w3.org/1999/xlink" width="600" height="400" viewBox="0 0 2400 1600">
<defs>
  <clipPath id="clip820">
    <rect x="0" y="0" width="2400" height="1600"/>
  </clipPath>
</defs>
<path clip-path="url(#clip820)" d="
M0 1600 L2400 1600 L2400 0 L0 0  Z
  " fill="#ffffff" fill-rule="evenodd" fill-opacity="1"/>
<defs>
  <clipPath id="clip821">
    <rect x="480" y="0" width="1681" height="1600"/>
  </clipPath>
</defs>
<path clip-path="url(#clip820)" d="
M205.121 1423.18 L2352.76 1423.18 L2352.76 47.2441 L205.121 47.2441  Z
  " fill="#ffffff" fill-rule="evenodd" fill-opacity="1"/>
<defs>
  <clipPath id="clip822">
    <rect x="205" y="47" width="2149" height="1377"/>
  </clipPath>
</defs>
<polyline clip-path="url(#clip822)" style="stroke:#000000; stroke-width:2; stroke-opacity:0.1; fill:none" points="
  461.417,1423.18 461.417,47.2441 
  "/>
<polyline clip-path="url(#clip822)" style="stroke:#000000; stroke-width:2; stroke-opacity:0.1; fill:none" points="
  1037.14,1423.18 1037.14,47.2441 
  "/>
<polyline clip-path="url(#clip822)" style="stroke:#000000; stroke-width:2; stroke-opacity:0.1; fill:none" points="
  1612.86,1423.18 1612.86,47.2441 
  "/>
<polyline clip-path="url(#clip822)" style="stroke:#000000; stroke-width:2; stroke-opacity:0.1; fill:none" points="
  2188.57,1423.18 2188.57,47.2441 
  "/>
<polyline clip-path="url(#clip820)" style="stroke:#000000; stroke-width:4; stroke-opacity:1; fill:none" points="
  205.121,1423.18 2352.76,1423.18 
  "/>
<polyline clip-path="url(#clip820)" style="stroke:#000000; stroke-width:4; stroke-opacity:1; fill:none" points="
  461.417,1423.18 461.417,1406.67 
  "/>
<polyline clip-path="url(#clip820)" style="stroke:#000000; stroke-width:4; stroke-opacity:1; fill:none" points="
  1037.14,1423.18 1037.14,1406.67 
  "/>
<polyline clip-path="url(#clip820)" style="stroke:#000000; stroke-width:4; stroke-opacity:1; fill:none" points="
  1612.86,1423.18 1612.86,1406.67 
  "/>
<polyline clip-path="url(#clip820)" style="stroke:#000000; stroke-width:4; stroke-opacity:1; fill:none" points="
  2188.57,1423.18 2188.57,1406.67 
  "/>
<path clip-path="url(#clip820)" d="M 0 0 M431.059 1467.02 L460.734 1467.02 L460.734 1470.96 L431.059 1470.96 L431.059 1467.02 Z" fill="#000000" fill-rule="evenodd" fill-opacity="1" /><path clip-path="url(#clip820)" d="M 0 0 M470.873 1449.29 L489.23 1449.29 L489.23 1453.23 L475.156 1453.23 L475.156 1461.7 Q476.174 1461.35 477.193 1461.19 Q478.211 1461 479.23 1461 Q485.017 1461 488.396 1464.18 Q491.776 1467.35 491.776 1472.76 Q491.776 1478.34 488.304 1481.44 Q484.832 1484.52 478.512 1484.52 Q476.336 1484.52 474.068 1484.15 Q471.822 1483.78 469.415 1483.04 L469.415 1478.34 Q471.498 1479.48 473.72 1480.03 Q475.943 1480.59 478.42 1480.59 Q482.424 1480.59 484.762 1478.48 Q487.1 1476.38 487.1 1472.76 Q487.1 1469.15 484.762 1467.05 Q482.424 1464.94 478.42 1464.94 Q476.545 1464.94 474.67 1465.36 Q472.818 1465.77 470.873 1466.65 L470.873 1449.29 Z" fill="#000000" fill-rule="evenodd" fill-opacity="1" /><path clip-path="url(#clip820)" d="M 0 0 M1037.14 1452.37 Q1033.53 1452.37 1031.7 1455.94 Q1029.89 1459.48 1029.89 1466.61 Q1029.89 1473.71 1031.7 1477.28 Q1033.53 1480.82 1037.14 1480.82 Q1040.77 1480.82 1042.58 1477.28 Q1044.4 1473.71 1044.4 1466.61 Q1044.4 1459.48 1042.58 1455.94 Q1040.77 1452.37 1037.14 1452.37 M1037.14 1448.67 Q1042.95 1448.67 1046 1453.27 Q1049.08 1457.86 1049.08 1466.61 Q1049.08 1475.33 1046 1479.94 Q1042.95 1484.52 1037.14 1484.52 Q1031.33 1484.52 1028.25 1479.94 Q1025.19 1475.33 1025.19 1466.61 Q1025.19 1457.86 1028.25 1453.27 Q1031.33 1448.67 1037.14 1448.67 Z" fill="#000000" fill-rule="evenodd" fill-opacity="1" /><path clip-path="url(#clip820)" d="M 0 0 M1603.13 1449.29 L1621.49 1449.29 L1621.49 1453.23 L1607.42 1453.23 L1607.42 1461.7 Q1608.43 1461.35 1609.45 1461.19 Q1610.47 1461 1611.49 1461 Q1617.28 1461 1620.66 1464.18 Q1624.04 1467.35 1624.04 1472.76 Q1624.04 1478.34 1620.56 1481.44 Q1617.09 1484.52 1610.77 1484.52 Q1608.6 1484.52 1606.33 1484.15 Q1604.08 1483.78 1601.68 1483.04 L1601.68 1478.34 Q1603.76 1479.48 1605.98 1480.03 Q1608.2 1480.59 1610.68 1480.59 Q1614.68 1480.59 1617.02 1478.48 Q1619.36 1476.38 1619.36 1472.76 Q1619.36 1469.15 1617.02 1467.05 Q1614.68 1464.94 1610.68 1464.94 Q1608.8 1464.94 1606.93 1465.36 Q1605.08 1465.77 1603.13 1466.65 L1603.13 1449.29 Z" fill="#000000" fill-rule="evenodd" fill-opacity="1" /><path clip-path="url(#clip820)" d="M 0 0 M2163.26 1479.92 L2170.9 1479.92 L2170.9 1453.55 L2162.59 1455.22 L2162.59 1450.96 L2170.85 1449.29 L2175.53 1449.29 L2175.53 1479.92 L2183.17 1479.92 L2183.17 1483.85 L2163.26 1483.85 L2163.26 1479.92 Z" fill="#000000" fill-rule="evenodd" fill-opacity="1" /><path clip-path="url(#clip820)" d="M 0 0 M2202.61 1452.37 Q2199 1452.37 2197.17 1455.94 Q2195.37 1459.48 2195.37 1466.61 Q2195.37 1473.71 2197.17 1477.28 Q2199 1480.82 2202.61 1480.82 Q2206.25 1480.82 2208.05 1477.28 Q2209.88 1473.71 2209.88 1466.61 Q2209.88 1459.48 2208.05 1455.94 Q2206.25 1452.37 2202.61 1452.37 M2202.61 1448.67 Q2208.42 1448.67 2211.48 1453.27 Q2214.56 1457.86 2214.56 1466.61 Q2214.56 1475.33 2211.48 1479.94 Q2208.42 1484.52 2202.61 1484.52 Q2196.8 1484.52 2193.73 1479.94 Q2190.67 1475.33 2190.67 1466.61 Q2190.67 1457.86 2193.73 1453.27 Q2196.8 1448.67 2202.61 1448.67 Z" fill="#000000" fill-rule="evenodd" fill-opacity="1" /><path clip-path="url(#clip820)" d="M 0 0 M1209.57 1568.04 L1191.43 1520.52 L1198.14 1520.52 L1213.2 1560.53 L1228.28 1520.52 L1234.97 1520.52 L1216.86 1568.04 L1209.57 1568.04 Z" fill="#000000" fill-rule="evenodd" fill-opacity="1" /><path clip-path="url(#clip820)" d="M 0 0 M1252.79 1550.12 Q1245.69 1550.12 1242.96 1551.75 Q1240.22 1553.37 1240.22 1557.29 Q1240.22 1560.4 1242.26 1562.25 Q1244.32 1564.07 1247.86 1564.07 Q1252.73 1564.07 1255.66 1560.63 Q1258.62 1557.16 1258.62 1551.43 L1258.62 1550.12 L1252.79 1550.12 M1264.47 1547.71 L1264.47 1568.04 L1258.62 1568.04 L1258.62 1562.63 Q1256.61 1565.88 1253.62 1567.44 Q1250.63 1568.97 1246.3 1568.97 Q1240.82 1568.97 1237.58 1565.91 Q1234.36 1562.82 1234.36 1557.67 Q1234.36 1551.65 1238.37 1548.6 Q1242.42 1545.54 1250.4 1545.54 L1258.62 1545.54 L1258.62 1544.97 Q1258.62 1540.93 1255.94 1538.73 Q1253.3 1536.5 1248.49 1536.5 Q1245.44 1536.5 1242.54 1537.23 Q1239.65 1537.97 1236.97 1539.43 L1236.97 1534.02 Q1240.19 1532.78 1243.21 1532.17 Q1246.23 1531.54 1249.1 1531.54 Q1256.83 1531.54 1260.65 1535.55 Q1264.47 1539.56 1264.47 1547.71 Z" fill="#000000" fill-rule="evenodd" fill-opacity="1" /><path clip-path="url(#clip820)" d="M 0 0 M1276.54 1518.52 L1282.39 1518.52 L1282.39 1568.04 L1276.54 1568.04 L1276.54 1518.52 Z" fill="#000000" fill-rule="evenodd" fill-opacity="1" /><path clip-path="url(#clip820)" d="M 0 0 M1294.04 1553.98 L1294.04 1532.4 L1299.9 1532.4 L1299.9 1553.75 Q1299.9 1558.81 1301.87 1561.36 Q1303.84 1563.87 1307.79 1563.87 Q1312.53 1563.87 1315.27 1560.85 Q1318.04 1557.83 1318.04 1552.61 L1318.04 1532.4 L1323.9 1532.4 L1323.9 1568.04 L1318.04 1568.04 L1318.04 1562.57 Q1315.91 1565.82 1313.07 1567.41 Q1310.27 1568.97 1306.55 1568.97 Q1300.41 1568.97 1297.22 1565.15 Q1294.04 1561.33 1294.04 1553.98 M1308.78 1531.54 L1308.78 1531.54 Z" fill="#000000" fill-rule="evenodd" fill-opacity="1" /><path clip-path="url(#clip820)" d="M 0 0 M1366.45 1548.76 L1366.45 1551.62 L1339.52 1551.62 Q1339.91 1557.67 1343.15 1560.85 Q1346.43 1564 1352.26 1564 Q1355.63 1564 1358.78 1563.17 Q1361.96 1562.35 1365.08 1560.69 L1365.08 1566.23 Q1361.93 1567.57 1358.62 1568.27 Q1355.31 1568.97 1351.91 1568.97 Q1343.38 1568.97 1338.38 1564 Q1333.41 1559.04 1333.41 1550.57 Q1333.41 1541.82 1338.12 1536.69 Q1342.87 1531.54 1350.89 1531.54 Q1358.08 1531.54 1362.25 1536.18 Q1366.45 1540.8 1366.45 1548.76 M1360.59 1547.04 Q1360.53 1542.23 1357.89 1539.37 Q1355.28 1536.5 1350.95 1536.5 Q1346.05 1536.5 1343.09 1539.27 Q1340.16 1542.04 1339.72 1547.07 L1360.59 1547.04 Z" fill="#000000" fill-rule="evenodd" fill-opacity="1" /><polyline clip-path="url(#clip822)" style="stroke:#000000; stroke-width:2; stroke-opacity:0.1; fill:none" points="
  205.121,1384.24 2352.76,1384.24 
  "/>
<polyline clip-path="url(#clip822)" style="stroke:#000000; stroke-width:2; stroke-opacity:0.1; fill:none" points="
  205.121,1075.18 2352.76,1075.18 
  "/>
<polyline clip-path="url(#clip822)" style="stroke:#000000; stroke-width:2; stroke-opacity:0.1; fill:none" points="
  205.121,766.118 2352.76,766.118 
  "/>
<polyline clip-path="url(#clip822)" style="stroke:#000000; stroke-width:2; stroke-opacity:0.1; fill:none" points="
  205.121,457.058 2352.76,457.058 
  "/>
<polyline clip-path="url(#clip822)" style="stroke:#000000; stroke-width:2; stroke-opacity:0.1; fill:none" points="
  205.121,147.998 2352.76,147.998 
  "/>
<polyline clip-path="url(#clip820)" style="stroke:#000000; stroke-width:4; stroke-opacity:1; fill:none" points="
  205.121,1423.18 205.121,47.2441 
  "/>
<polyline clip-path="url(#clip820)" style="stroke:#000000; stroke-width:4; stroke-opacity:1; fill:none" points="
  205.121,1384.24 230.893,1384.24 
  "/>
<polyline clip-path="url(#clip820)" style="stroke:#000000; stroke-width:4; stroke-opacity:1; fill:none" points="
  205.121,1075.18 230.893,1075.18 
  "/>
<polyline clip-path="url(#clip820)" style="stroke:#000000; stroke-width:4; stroke-opacity:1; fill:none" points="
  205.121,766.118 230.893,766.118 
  "/>
<polyline clip-path="url(#clip820)" style="stroke:#000000; stroke-width:4; stroke-opacity:1; fill:none" points="
  205.121,457.058 230.893,457.058 
  "/>
<polyline clip-path="url(#clip820)" style="stroke:#000000; stroke-width:4; stroke-opacity:1; fill:none" points="
  205.121,147.998 230.893,147.998 
  "/>
<path clip-path="url(#clip820)" d="M 0 0 M157.177 1370.04 Q153.566 1370.04 151.737 1373.6 Q149.931 1377.14 149.931 1384.27 Q149.931 1391.38 151.737 1394.94 Q153.566 1398.49 157.177 1398.49 Q160.811 1398.49 162.616 1394.94 Q164.445 1391.38 164.445 1384.27 Q164.445 1377.14 162.616 1373.6 Q160.811 1370.04 157.177 1370.04 M157.177 1366.33 Q162.987 1366.33 166.042 1370.94 Q169.121 1375.52 169.121 1384.27 Q169.121 1393 166.042 1397.61 Q162.987 1402.19 157.177 1402.19 Q151.366 1402.19 148.288 1397.61 Q145.232 1393 145.232 1384.27 Q145.232 1375.52 148.288 1370.94 Q151.366 1366.33 157.177 1366.33 Z" fill="#000000" fill-rule="evenodd" fill-opacity="1" /><path clip-path="url(#clip820)" d="M 0 0 M117.825 1088.52 L125.464 1088.52 L125.464 1062.16 L117.154 1063.82 L117.154 1059.56 L125.418 1057.9 L130.093 1057.9 L130.093 1088.52 L137.732 1088.52 L137.732 1092.46 L117.825 1092.46 L117.825 1088.52 Z" fill="#000000" fill-rule="evenodd" fill-opacity="1" /><path clip-path="url(#clip820)" d="M 0 0 M157.177 1060.98 Q153.566 1060.98 151.737 1064.54 Q149.931 1068.08 149.931 1075.21 Q149.931 1082.32 151.737 1085.88 Q153.566 1089.43 157.177 1089.43 Q160.811 1089.43 162.616 1085.88 Q164.445 1082.32 164.445 1075.21 Q164.445 1068.08 162.616 1064.54 Q160.811 1060.98 157.177 1060.98 M157.177 1057.27 Q162.987 1057.27 166.042 1061.88 Q169.121 1066.46 169.121 1075.21 Q169.121 1083.94 166.042 1088.55 Q162.987 1093.13 157.177 1093.13 Q151.366 1093.13 148.288 1088.55 Q145.232 1083.94 145.232 1075.21 Q145.232 1066.46 148.288 1061.88 Q151.366 1057.27 157.177 1057.27 Z" fill="#000000" fill-rule="evenodd" fill-opacity="1" /><path clip-path="url(#clip820)" d="M 0 0 M121.043 779.463 L137.362 779.463 L137.362 783.398 L115.418 783.398 L115.418 779.463 Q118.08 776.708 122.663 772.079 Q127.269 767.426 128.45 766.083 Q130.695 763.56 131.575 761.824 Q132.478 760.065 132.478 758.375 Q132.478 755.62 130.533 753.884 Q128.612 752.148 125.51 752.148 Q123.311 752.148 120.857 752.912 Q118.427 753.676 115.649 755.227 L115.649 750.505 Q118.473 749.37 120.927 748.792 Q123.38 748.213 125.418 748.213 Q130.788 748.213 133.982 750.898 Q137.177 753.583 137.177 758.074 Q137.177 760.204 136.367 762.125 Q135.579 764.023 133.473 766.616 Q132.894 767.287 129.792 770.505 Q126.691 773.699 121.043 779.463 Z" fill="#000000" fill-rule="evenodd" fill-opacity="1" /><path clip-path="url(#clip820)" d="M 0 0 M157.177 751.917 Q153.566 751.917 151.737 755.481 Q149.931 759.023 149.931 766.153 Q149.931 773.259 151.737 776.824 Q153.566 780.366 157.177 780.366 Q160.811 780.366 162.616 776.824 Q164.445 773.259 164.445 766.153 Q164.445 759.023 162.616 755.481 Q160.811 751.917 157.177 751.917 M157.177 748.213 Q162.987 748.213 166.042 752.819 Q169.121 757.403 169.121 766.153 Q169.121 774.88 166.042 779.486 Q162.987 784.069 157.177 784.069 Q151.366 784.069 148.288 779.486 Q145.232 774.88 145.232 766.153 Q145.232 757.403 148.288 752.819 Q151.366 748.213 157.177 748.213 Z" fill="#000000" fill-rule="evenodd" fill-opacity="1" /><path clip-path="url(#clip820)" d="M 0 0 M131.181 455.704 Q134.538 456.421 136.413 458.69 Q138.311 460.958 138.311 464.292 Q138.311 469.407 134.792 472.208 Q131.274 475.009 124.793 475.009 Q122.617 475.009 120.302 474.569 Q118.01 474.153 115.556 473.296 L115.556 468.782 Q117.501 469.917 119.816 470.495 Q122.13 471.074 124.654 471.074 Q129.052 471.074 131.343 469.338 Q133.658 467.602 133.658 464.292 Q133.658 461.236 131.505 459.523 Q129.376 457.787 125.556 457.787 L121.529 457.787 L121.529 453.944 L125.742 453.944 Q129.191 453.944 131.019 452.579 Q132.848 451.19 132.848 448.597 Q132.848 445.935 130.95 444.523 Q129.075 443.088 125.556 443.088 Q123.635 443.088 121.436 443.505 Q119.237 443.921 116.598 444.801 L116.598 440.634 Q119.26 439.894 121.575 439.523 Q123.913 439.153 125.973 439.153 Q131.297 439.153 134.399 441.583 Q137.501 443.991 137.501 448.111 Q137.501 450.981 135.857 452.972 Q134.214 454.94 131.181 455.704 Z" fill="#000000" fill-rule="evenodd" fill-opacity="1" /><path clip-path="url(#clip820)" d="M 0 0 M157.177 442.857 Q153.566 442.857 151.737 446.421 Q149.931 449.963 149.931 457.093 Q149.931 464.199 151.737 467.764 Q153.566 471.305 157.177 471.305 Q160.811 471.305 162.616 467.764 Q164.445 464.199 164.445 457.093 Q164.445 449.963 162.616 446.421 Q160.811 442.857 157.177 442.857 M157.177 439.153 Q162.987 439.153 166.042 443.759 Q169.121 448.343 169.121 457.093 Q169.121 465.819 166.042 470.426 Q162.987 475.009 157.177 475.009 Q151.366 475.009 148.288 470.426 Q145.232 465.819 145.232 457.093 Q145.232 448.343 148.288 443.759 Q151.366 439.153 157.177 439.153 Z" fill="#000000" fill-rule="evenodd" fill-opacity="1" /><path clip-path="url(#clip820)" d="M 0 0 M129.862 134.792 L118.056 153.241 L129.862 153.241 L129.862 134.792 M128.635 130.718 L134.515 130.718 L134.515 153.241 L139.445 153.241 L139.445 157.13 L134.515 157.13 L134.515 165.278 L129.862 165.278 L129.862 157.13 L114.26 157.13 L114.26 152.616 L128.635 130.718 Z" fill="#000000" fill-rule="evenodd" fill-opacity="1" /><path clip-path="url(#clip820)" d="M 0 0 M157.177 133.796 Q153.566 133.796 151.737 137.361 Q149.931 140.903 149.931 148.032 Q149.931 155.139 151.737 158.704 Q153.566 162.245 157.177 162.245 Q160.811 162.245 162.616 158.704 Q164.445 155.139 164.445 148.032 Q164.445 140.903 162.616 137.361 Q160.811 133.796 157.177 133.796 M157.177 130.093 Q162.987 130.093 166.042 134.699 Q169.121 139.282 169.121 148.032 Q169.121 156.759 166.042 161.366 Q162.987 165.949 157.177 165.949 Q151.366 165.949 148.288 161.366 Q145.232 156.759 145.232 148.032 Q145.232 139.282 148.288 134.699 Q151.366 130.093 157.177 130.093 Z" fill="#000000" fill-rule="evenodd" fill-opacity="1" /><path clip-path="url(#clip820)" d="M 0 0 M16.4842 899.415 L16.4842 872.106 L21.895 872.106 L21.895 892.986 L35.8996 892.986 L35.8996 874.144 L41.3104 874.144 L41.3104 892.986 L64.0042 892.986 L64.0042 899.415 L16.4842 899.415 Z" fill="#000000" fill-rule="evenodd" fill-opacity="1" /><path clip-path="url(#clip820)" d="M 0 0 M33.8307 846.262 Q33.2578 847.248 33.0032 848.426 Q32.7167 849.572 32.7167 850.972 Q32.7167 855.938 35.9632 858.611 Q39.1779 861.253 45.2253 861.253 L64.0042 861.253 L64.0042 867.141 L28.3562 867.141 L28.3562 861.253 L33.8944 861.253 Q30.6479 859.407 29.0883 856.447 Q27.4968 853.487 27.4968 849.254 Q27.4968 848.649 27.5923 847.917 Q27.656 847.185 27.8151 846.294 L33.8307 846.262 Z" fill="#000000" fill-rule="evenodd" fill-opacity="1" /><path clip-path="url(#clip820)" d="M 0 0 M44.7161 811.059 L47.5806 811.059 L47.5806 837.986 Q53.6281 837.604 56.8109 834.358 Q59.9619 831.08 59.9619 825.255 Q59.9619 821.881 59.1344 818.73 Q58.3069 815.547 56.6518 812.428 L62.1899 812.428 Q63.5267 815.579 64.227 818.889 Q64.9272 822.199 64.9272 825.605 Q64.9272 834.135 59.9619 839.132 Q54.9967 844.097 46.5303 844.097 Q37.7774 844.097 32.6531 839.387 Q27.4968 834.644 27.4968 826.624 Q27.4968 819.43 32.1438 815.261 Q36.7589 811.059 44.7161 811.059 M42.9973 816.916 Q38.1912 816.979 35.3266 819.621 Q32.4621 822.231 32.4621 826.56 Q32.4621 831.461 35.2312 834.422 Q38.0002 837.35 43.0292 837.795 L42.9973 816.916 Z" fill="#000000" fill-rule="evenodd" fill-opacity="1" /><path clip-path="url(#clip820)" d="M 0 0 M46.212 797.946 Q52.6732 797.946 56.3653 795.304 Q60.0256 792.631 60.0256 787.984 Q60.0256 783.337 56.3653 780.663 Q52.6732 777.99 46.212 777.99 Q39.7508 777.99 36.0905 780.663 Q32.3984 783.337 32.3984 787.984 Q32.3984 792.631 36.0905 795.304 Q39.7508 797.946 46.212 797.946 M58.657 777.99 Q61.8398 779.836 63.3994 782.668 Q64.9272 785.469 64.9272 789.416 Q64.9272 795.877 59.771 799.951 Q54.6147 803.993 46.212 803.993 Q37.8093 803.993 32.6531 799.951 Q27.4968 795.877 27.4968 789.416 Q27.4968 785.469 29.0564 782.668 Q30.5842 779.836 33.7671 777.99 L28.3562 777.99 L28.3562 772.133 L77.5631 772.133 L77.5631 777.99 L58.657 777.99 Z" fill="#000000" fill-rule="evenodd" fill-opacity="1" /><path clip-path="url(#clip820)" d="M 0 0 M49.9359 760.675 L28.3562 760.675 L28.3562 754.818 L49.7131 754.818 Q54.7739 754.818 57.3202 752.845 Q59.8346 750.872 59.8346 746.925 Q59.8346 742.182 56.8109 739.445 Q53.7872 736.676 48.5673 736.676 L28.3562 736.676 L28.3562 730.82 L64.0042 730.82 L64.0042 736.676 L58.5296 736.676 Q61.7762 738.809 63.3676 741.641 Q64.9272 744.442 64.9272 748.166 Q64.9272 754.309 61.1078 757.492 Q57.2883 760.675 49.9359 760.675 M27.4968 745.938 L27.4968 745.938 Z" fill="#000000" fill-rule="evenodd" fill-opacity="1" /><path clip-path="url(#clip820)" d="M 0 0 M44.7161 688.265 L47.5806 688.265 L47.5806 715.192 Q53.6281 714.81 56.8109 711.563 Q59.9619 708.285 59.9619 702.46 Q59.9619 699.087 59.1344 695.936 Q58.3069 692.753 56.6518 689.634 L62.1899 689.634 Q63.5267 692.785 64.227 696.095 Q64.9272 699.405 64.9272 702.811 Q64.9272 711.341 59.9619 716.338 Q54.9967 721.303 46.5303 721.303 Q37.7774 721.303 32.6531 716.592 Q27.4968 711.85 27.4968 703.829 Q27.4968 696.636 32.1438 692.466 Q36.7589 688.265 44.7161 688.265 M42.9973 694.121 Q38.1912 694.185 35.3266 696.827 Q32.4621 699.437 32.4621 703.765 Q32.4621 708.667 35.2312 711.627 Q38.0002 714.555 43.0292 715.001 L42.9973 694.121 Z" fill="#000000" fill-rule="evenodd" fill-opacity="1" /><path clip-path="url(#clip820)" d="M 0 0 M42.4881 649.02 L64.0042 649.02 L64.0042 654.877 L42.679 654.877 Q37.6183 654.877 35.1038 656.85 Q32.5894 658.823 32.5894 662.77 Q32.5894 667.513 35.6131 670.25 Q38.6368 672.987 43.8567 672.987 L64.0042 672.987 L64.0042 678.875 L28.3562 678.875 L28.3562 672.987 L33.8944 672.987 Q30.6797 670.887 29.0883 668.054 Q27.4968 665.189 27.4968 661.465 Q27.4968 655.322 31.3163 652.171 Q35.1038 649.02 42.4881 649.02 Z" fill="#000000" fill-rule="evenodd" fill-opacity="1" /><path clip-path="url(#clip820)" d="M 0 0 M29.7248 611.685 L35.1993 611.685 Q33.8307 614.168 33.1623 616.683 Q32.4621 619.165 32.4621 621.711 Q32.4621 627.409 36.0905 630.56 Q39.6872 633.711 46.212 633.711 Q52.7369 633.711 56.3653 630.56 Q59.9619 627.409 59.9619 621.711 Q59.9619 619.165 59.2935 616.683 Q58.5933 614.168 57.2247 611.685 L62.6355 611.685 Q63.7814 614.136 64.3543 616.778 Q64.9272 619.388 64.9272 622.348 Q64.9272 630.401 59.8664 635.143 Q54.8057 639.886 46.212 639.886 Q37.491 639.886 32.4939 635.111 Q27.4968 630.305 27.4968 621.966 Q27.4968 619.261 28.0697 616.683 Q28.6108 614.104 29.7248 611.685 Z" fill="#000000" fill-rule="evenodd" fill-opacity="1" /><path clip-path="url(#clip820)" d="M 0 0 M67.3143 586.668 Q73.68 589.151 75.6216 591.506 Q77.5631 593.861 77.5631 597.808 L77.5631 602.487 L72.6615 602.487 L72.6615 599.05 Q72.6615 596.631 71.5157 595.294 Q70.3699 593.957 66.1048 592.334 L63.4312 591.283 L28.3562 605.702 L28.3562 599.495 L56.238 588.355 L28.3562 577.215 L28.3562 571.009 L67.3143 586.668 Z" fill="#000000" fill-rule="evenodd" fill-opacity="1" /><path clip-path="url(#clip822)" d="
M323.245 1322.43 L323.245 1384.24 L346.273 1384.24 L346.273 1322.43 L323.245 1322.43 L323.245 1322.43  Z
  " fill="#009af9" fill-rule="evenodd" fill-opacity="1"/>
<polyline clip-path="url(#clip822)" style="stroke:#000000; stroke-width:4; stroke-opacity:1; fill:none" points="
  323.245,1322.43 323.245,1384.24 346.273,1384.24 346.273,1322.43 323.245,1322.43 
  "/>
<path clip-path="url(#clip822)" d="
M346.273 1322.43 L346.273 1384.24 L369.302 1384.24 L369.302 1322.43 L346.273 1322.43 L346.273 1322.43  Z
  " fill="#009af9" fill-rule="evenodd" fill-opacity="1"/>
<polyline clip-path="url(#clip822)" style="stroke:#000000; stroke-width:4; stroke-opacity:1; fill:none" points="
  346.273,1322.43 346.273,1384.24 369.302,1384.24 369.302,1322.43 346.273,1322.43 
  "/>
<path clip-path="url(#clip822)" d="
M369.302 1229.71 L369.302 1384.24 L392.331 1384.24 L392.331 1229.71 L369.302 1229.71 L369.302 1229.71  Z
  " fill="#009af9" fill-rule="evenodd" fill-opacity="1"/>
<polyline clip-path="url(#clip822)" style="stroke:#000000; stroke-width:4; stroke-opacity:1; fill:none" points="
  369.302,1229.71 369.302,1384.24 392.331,1384.24 392.331,1229.71 369.302,1229.71 
  "/>
<path clip-path="url(#clip822)" d="
M392.331 1229.71 L392.331 1384.24 L415.36 1384.24 L415.36 1229.71 L392.331 1229.71 L392.331 1229.71  Z
  " fill="#009af9" fill-rule="evenodd" fill-opacity="1"/>
<polyline clip-path="url(#clip822)" style="stroke:#000000; stroke-width:4; stroke-opacity:1; fill:none" points="
  392.331,1229.71 392.331,1384.24 415.36,1384.24 415.36,1229.71 392.331,1229.71 
  "/>
<path clip-path="url(#clip822)" d="
M415.36 1198.8 L415.36 1384.24 L438.389 1384.24 L438.389 1198.8 L415.36 1198.8 L415.36 1198.8  Z
  " fill="#009af9" fill-rule="evenodd" fill-opacity="1"/>
<polyline clip-path="url(#clip822)" style="stroke:#000000; stroke-width:4; stroke-opacity:1; fill:none" points="
  415.36,1198.8 415.36,1384.24 438.389,1384.24 438.389,1198.8 415.36,1198.8 
  "/>
<path clip-path="url(#clip822)" d="
M438.389 1291.52 L438.389 1384.24 L461.417 1384.24 L461.417 1291.52 L438.389 1291.52 L438.389 1291.52  Z
  " fill="#009af9" fill-rule="evenodd" fill-opacity="1"/>
<polyline clip-path="url(#clip822)" style="stroke:#000000; stroke-width:4; stroke-opacity:1; fill:none" points="
  438.389,1291.52 438.389,1384.24 461.417,1384.24 461.417,1291.52 438.389,1291.52 
  "/>
<path clip-path="url(#clip822)" d="
M461.417 1013.37 L461.417 1384.24 L484.446 1384.24 L484.446 1013.37 L461.417 1013.37 L461.417 1013.37  Z
  " fill="#009af9" fill-rule="evenodd" fill-opacity="1"/>
<polyline clip-path="url(#clip822)" style="stroke:#000000; stroke-width:4; stroke-opacity:1; fill:none" points="
  461.417,1013.37 461.417,1384.24 484.446,1384.24 484.446,1013.37 461.417,1013.37 
  "/>
<path clip-path="url(#clip822)" d="
M484.446 1013.37 L484.446 1384.24 L507.475 1384.24 L507.475 1013.37 L484.446 1013.37 L484.446 1013.37  Z
  " fill="#009af9" fill-rule="evenodd" fill-opacity="1"/>
<polyline clip-path="url(#clip822)" style="stroke:#000000; stroke-width:4; stroke-opacity:1; fill:none" points="
  484.446,1013.37 484.446,1384.24 507.475,1384.24 507.475,1013.37 484.446,1013.37 
  "/>
<path clip-path="url(#clip822)" d="
M507.475 951.554 L507.475 1384.24 L530.504 1384.24 L530.504 951.554 L507.475 951.554 L507.475 951.554  Z
  " fill="#009af9" fill-rule="evenodd" fill-opacity="1"/>
<polyline clip-path="url(#clip822)" style="stroke:#000000; stroke-width:4; stroke-opacity:1; fill:none" points="
  507.475,951.554 507.475,1384.24 530.504,1384.24 530.504,951.554 507.475,951.554 
  "/>
<path clip-path="url(#clip822)" d="
M530.504 827.93 L530.504 1384.24 L553.532 1384.24 L553.532 827.93 L530.504 827.93 L530.504 827.93  Z
  " fill="#009af9" fill-rule="evenodd" fill-opacity="1"/>
<polyline clip-path="url(#clip822)" style="stroke:#000000; stroke-width:4; stroke-opacity:1; fill:none" points="
  530.504,827.93 530.504,1384.24 553.532,1384.24 553.532,827.93 530.504,827.93 
  "/>
<path clip-path="url(#clip822)" d="
M553.532 549.776 L553.532 1384.24 L576.561 1384.24 L576.561 549.776 L553.532 549.776 L553.532 549.776  Z
  " fill="#009af9" fill-rule="evenodd" fill-opacity="1"/>
<polyline clip-path="url(#clip822)" style="stroke:#000000; stroke-width:4; stroke-opacity:1; fill:none" points="
  553.532,549.776 553.532,1384.24 576.561,1384.24 576.561,549.776 553.532,549.776 
  "/>
<path clip-path="url(#clip822)" d="
M576.561 642.494 L576.561 1384.24 L599.59 1384.24 L599.59 642.494 L576.561 642.494 L576.561 642.494  Z
  " fill="#009af9" fill-rule="evenodd" fill-opacity="1"/>
<polyline clip-path="url(#clip822)" style="stroke:#000000; stroke-width:4; stroke-opacity:1; fill:none" points="
  576.561,642.494 576.561,1384.24 599.59,1384.24 599.59,642.494 576.561,642.494 
  "/>
<path clip-path="url(#clip822)" d="
M599.59 673.4 L599.59 1384.24 L622.619 1384.24 L622.619 673.4 L599.59 673.4 L599.59 673.4  Z
  " fill="#009af9" fill-rule="evenodd" fill-opacity="1"/>
<polyline clip-path="url(#clip822)" style="stroke:#000000; stroke-width:4; stroke-opacity:1; fill:none" points="
  599.59,673.4 599.59,1384.24 622.619,1384.24 622.619,673.4 599.59,673.4 
  "/>
<path clip-path="url(#clip822)" d="
M622.619 642.494 L622.619 1384.24 L645.647 1384.24 L645.647 642.494 L622.619 642.494 L622.619 642.494  Z
  " fill="#009af9" fill-rule="evenodd" fill-opacity="1"/>
<polyline clip-path="url(#clip822)" style="stroke:#000000; stroke-width:4; stroke-opacity:1; fill:none" points="
  622.619,642.494 622.619,1384.24 645.647,1384.24 645.647,642.494 622.619,642.494 
  "/>
<path clip-path="url(#clip822)" d="
M645.647 487.964 L645.647 1384.24 L668.676 1384.24 L668.676 487.964 L645.647 487.964 L645.647 487.964  Z
  " fill="#009af9" fill-rule="evenodd" fill-opacity="1"/>
<polyline clip-path="url(#clip822)" style="stroke:#000000; stroke-width:4; stroke-opacity:1; fill:none" points="
  645.647,487.964 645.647,1384.24 668.676,1384.24 668.676,487.964 645.647,487.964 
  "/>
<path clip-path="url(#clip822)" d="
M668.676 735.212 L668.676 1384.24 L691.705 1384.24 L691.705 735.212 L668.676 735.212 L668.676 735.212  Z
  " fill="#009af9" fill-rule="evenodd" fill-opacity="1"/>
<polyline clip-path="url(#clip822)" style="stroke:#000000; stroke-width:4; stroke-opacity:1; fill:none" points="
  668.676,735.212 668.676,1384.24 691.705,1384.24 691.705,735.212 668.676,735.212 
  "/>
<path clip-path="url(#clip822)" d="
M691.705 673.4 L691.705 1384.24 L714.734 1384.24 L714.734 673.4 L691.705 673.4 L691.705 673.4  Z
  " fill="#009af9" fill-rule="evenodd" fill-opacity="1"/>
<polyline clip-path="url(#clip822)" style="stroke:#000000; stroke-width:4; stroke-opacity:1; fill:none" points="
  691.705,673.4 691.705,1384.24 714.734,1384.24 714.734,673.4 691.705,673.4 
  "/>
<path clip-path="url(#clip822)" d="
M714.734 642.494 L714.734 1384.24 L737.762 1384.24 L737.762 642.494 L714.734 642.494 L714.734 642.494  Z
  " fill="#009af9" fill-rule="evenodd" fill-opacity="1"/>
<polyline clip-path="url(#clip822)" style="stroke:#000000; stroke-width:4; stroke-opacity:1; fill:none" points="
  714.734,642.494 714.734,1384.24 737.762,1384.24 737.762,642.494 714.734,642.494 
  "/>
<path clip-path="url(#clip822)" d="
M737.762 86.1857 L737.762 1384.24 L760.791 1384.24 L760.791 86.1857 L737.762 86.1857 L737.762 86.1857  Z
  " fill="#009af9" fill-rule="evenodd" fill-opacity="1"/>
<polyline clip-path="url(#clip822)" style="stroke:#000000; stroke-width:4; stroke-opacity:1; fill:none" points="
  737.762,86.1857 737.762,1384.24 760.791,1384.24 760.791,86.1857 737.762,86.1857 
  "/>
<path clip-path="url(#clip822)" d="
M760.791 549.776 L760.791 1384.24 L783.82 1384.24 L783.82 549.776 L760.791 549.776 L760.791 549.776  Z
  " fill="#009af9" fill-rule="evenodd" fill-opacity="1"/>
<polyline clip-path="url(#clip822)" style="stroke:#000000; stroke-width:4; stroke-opacity:1; fill:none" points="
  760.791,549.776 760.791,1384.24 783.82,1384.24 783.82,549.776 760.791,549.776 
  "/>
<path clip-path="url(#clip822)" d="
M783.82 457.058 L783.82 1384.24 L806.849 1384.24 L806.849 457.058 L783.82 457.058 L783.82 457.058  Z
  " fill="#009af9" fill-rule="evenodd" fill-opacity="1"/>
<polyline clip-path="url(#clip822)" style="stroke:#000000; stroke-width:4; stroke-opacity:1; fill:none" points="
  783.82,457.058 783.82,1384.24 806.849,1384.24 806.849,457.058 783.82,457.058 
  "/>
<path clip-path="url(#clip822)" d="
M806.849 889.742 L806.849 1384.24 L829.878 1384.24 L829.878 889.742 L806.849 889.742 L806.849 889.742  Z
  " fill="#009af9" fill-rule="evenodd" fill-opacity="1"/>
<polyline clip-path="url(#clip822)" style="stroke:#000000; stroke-width:4; stroke-opacity:1; fill:none" points="
  806.849,889.742 806.849,1384.24 829.878,1384.24 829.878,889.742 806.849,889.742 
  "/>
<path clip-path="url(#clip822)" d="
M829.878 735.212 L829.878 1384.24 L852.906 1384.24 L852.906 735.212 L829.878 735.212 L829.878 735.212  Z
  " fill="#009af9" fill-rule="evenodd" fill-opacity="1"/>
<polyline clip-path="url(#clip822)" style="stroke:#000000; stroke-width:4; stroke-opacity:1; fill:none" points="
  829.878,735.212 829.878,1384.24 852.906,1384.24 852.906,735.212 829.878,735.212 
  "/>
<path clip-path="url(#clip822)" d="
M852.906 889.742 L852.906 1384.24 L875.935 1384.24 L875.935 889.742 L852.906 889.742 L852.906 889.742  Z
  " fill="#009af9" fill-rule="evenodd" fill-opacity="1"/>
<polyline clip-path="url(#clip822)" style="stroke:#000000; stroke-width:4; stroke-opacity:1; fill:none" points="
  852.906,889.742 852.906,1384.24 875.935,1384.24 875.935,889.742 852.906,889.742 
  "/>
<path clip-path="url(#clip822)" d="
M875.935 982.46 L875.935 1384.24 L898.964 1384.24 L898.964 982.46 L875.935 982.46 L875.935 982.46  Z
  " fill="#009af9" fill-rule="evenodd" fill-opacity="1"/>
<polyline clip-path="url(#clip822)" style="stroke:#000000; stroke-width:4; stroke-opacity:1; fill:none" points="
  875.935,982.46 875.935,1384.24 898.964,1384.24 898.964,982.46 875.935,982.46 
  "/>
<path clip-path="url(#clip822)" d="
M898.964 920.648 L898.964 1384.24 L921.993 1384.24 L921.993 920.648 L898.964 920.648 L898.964 920.648  Z
  " fill="#009af9" fill-rule="evenodd" fill-opacity="1"/>
<polyline clip-path="url(#clip822)" style="stroke:#000000; stroke-width:4; stroke-opacity:1; fill:none" points="
  898.964,920.648 898.964,1384.24 921.993,1384.24 921.993,920.648 898.964,920.648 
  "/>
<path clip-path="url(#clip822)" d="
M921.993 1075.18 L921.993 1384.24 L945.021 1384.24 L945.021 1075.18 L921.993 1075.18 L921.993 1075.18  Z
  " fill="#009af9" fill-rule="evenodd" fill-opacity="1"/>
<polyline clip-path="url(#clip822)" style="stroke:#000000; stroke-width:4; stroke-opacity:1; fill:none" points="
  921.993,1075.18 921.993,1384.24 945.021,1384.24 945.021,1075.18 921.993,1075.18 
  "/>
<path clip-path="url(#clip822)" d="
M945.021 858.836 L945.021 1384.24 L968.05 1384.24 L968.05 858.836 L945.021 858.836 L945.021 858.836  Z
  " fill="#009af9" fill-rule="evenodd" fill-opacity="1"/>
<polyline clip-path="url(#clip822)" style="stroke:#000000; stroke-width:4; stroke-opacity:1; fill:none" points="
  945.021,858.836 945.021,1384.24 968.05,1384.24 968.05,858.836 945.021,858.836 
  "/>
<path clip-path="url(#clip822)" d="
M968.05 1106.08 L968.05 1384.24 L991.079 1384.24 L991.079 1106.08 L968.05 1106.08 L968.05 1106.08  Z
  " fill="#009af9" fill-rule="evenodd" fill-opacity="1"/>
<polyline clip-path="url(#clip822)" style="stroke:#000000; stroke-width:4; stroke-opacity:1; fill:none" points="
  968.05,1106.08 968.05,1384.24 991.079,1384.24 991.079,1106.08 968.05,1106.08 
  "/>
<path clip-path="url(#clip822)" d="
M991.079 951.554 L991.079 1384.24 L1014.11 1384.24 L1014.11 951.554 L991.079 951.554 L991.079 951.554  Z
  " fill="#009af9" fill-rule="evenodd" fill-opacity="1"/>
<polyline clip-path="url(#clip822)" style="stroke:#000000; stroke-width:4; stroke-opacity:1; fill:none" points="
  991.079,951.554 991.079,1384.24 1014.11,1384.24 1014.11,951.554 991.079,951.554 
  "/>
<path clip-path="url(#clip822)" d="
M1014.11 982.46 L1014.11 1384.24 L1037.14 1384.24 L1037.14 982.46 L1014.11 982.46 L1014.11 982.46  Z
  " fill="#009af9" fill-rule="evenodd" fill-opacity="1"/>
<polyline clip-path="url(#clip822)" style="stroke:#000000; stroke-width:4; stroke-opacity:1; fill:none" points="
  1014.11,982.46 1014.11,1384.24 1037.14,1384.24 1037.14,982.46 1014.11,982.46 
  "/>
<path clip-path="url(#clip822)" d="
M1037.14 982.46 L1037.14 1384.24 L1060.17 1384.24 L1060.17 982.46 L1037.14 982.46 L1037.14 982.46  Z
  " fill="#009af9" fill-rule="evenodd" fill-opacity="1"/>
<polyline clip-path="url(#clip822)" style="stroke:#000000; stroke-width:4; stroke-opacity:1; fill:none" points="
  1037.14,982.46 1037.14,1384.24 1060.17,1384.24 1060.17,982.46 1037.14,982.46 
  "/>
<path clip-path="url(#clip822)" d="
M1060.17 1044.27 L1060.17 1384.24 L1083.19 1384.24 L1083.19 1044.27 L1060.17 1044.27 L1060.17 1044.27  Z
  " fill="#009af9" fill-rule="evenodd" fill-opacity="1"/>
<polyline clip-path="url(#clip822)" style="stroke:#000000; stroke-width:4; stroke-opacity:1; fill:none" points="
  1060.17,1044.27 1060.17,1384.24 1083.19,1384.24 1083.19,1044.27 1060.17,1044.27 
  "/>
<path clip-path="url(#clip822)" d="
M1083.19 1167.9 L1083.19 1384.24 L1106.22 1384.24 L1106.22 1167.9 L1083.19 1167.9 L1083.19 1167.9  Z
  " fill="#009af9" fill-rule="evenodd" fill-opacity="1"/>
<polyline clip-path="url(#clip822)" style="stroke:#000000; stroke-width:4; stroke-opacity:1; fill:none" points="
  1083.19,1167.9 1083.19,1384.24 1106.22,1384.24 1106.22,1167.9 1083.19,1167.9 
  "/>
<path clip-path="url(#clip822)" d="
M1106.22 1136.99 L1106.22 1384.24 L1129.25 1384.24 L1129.25 1136.99 L1106.22 1136.99 L1106.22 1136.99  Z
  " fill="#009af9" fill-rule="evenodd" fill-opacity="1"/>
<polyline clip-path="url(#clip822)" style="stroke:#000000; stroke-width:4; stroke-opacity:1; fill:none" points="
  1106.22,1136.99 1106.22,1384.24 1129.25,1384.24 1129.25,1136.99 1106.22,1136.99 
  "/>
<path clip-path="url(#clip822)" d="
M1129.25 1198.8 L1129.25 1384.24 L1152.28 1384.24 L1152.28 1198.8 L1129.25 1198.8 L1129.25 1198.8  Z
  " fill="#009af9" fill-rule="evenodd" fill-opacity="1"/>
<polyline clip-path="url(#clip822)" style="stroke:#000000; stroke-width:4; stroke-opacity:1; fill:none" points="
  1129.25,1198.8 1129.25,1384.24 1152.28,1384.24 1152.28,1198.8 1129.25,1198.8 
  "/>
<path clip-path="url(#clip822)" d="
M1152.28 1136.99 L1152.28 1384.24 L1175.31 1384.24 L1175.31 1136.99 L1152.28 1136.99 L1152.28 1136.99  Z
  " fill="#009af9" fill-rule="evenodd" fill-opacity="1"/>
<polyline clip-path="url(#clip822)" style="stroke:#000000; stroke-width:4; stroke-opacity:1; fill:none" points="
  1152.28,1136.99 1152.28,1384.24 1175.31,1384.24 1175.31,1136.99 1152.28,1136.99 
  "/>
<path clip-path="url(#clip822)" d="
M1175.31 1013.37 L1175.31 1384.24 L1198.34 1384.24 L1198.34 1013.37 L1175.31 1013.37 L1175.31 1013.37  Z
  " fill="#009af9" fill-rule="evenodd" fill-opacity="1"/>
<polyline clip-path="url(#clip822)" style="stroke:#000000; stroke-width:4; stroke-opacity:1; fill:none" points="
  1175.31,1013.37 1175.31,1384.24 1198.34,1384.24 1198.34,1013.37 1175.31,1013.37 
  "/>
<path clip-path="url(#clip822)" d="
M1198.34 1075.18 L1198.34 1384.24 L1221.37 1384.24 L1221.37 1075.18 L1198.34 1075.18 L1198.34 1075.18  Z
  " fill="#009af9" fill-rule="evenodd" fill-opacity="1"/>
<polyline clip-path="url(#clip822)" style="stroke:#000000; stroke-width:4; stroke-opacity:1; fill:none" points="
  1198.34,1075.18 1198.34,1384.24 1221.37,1384.24 1221.37,1075.18 1198.34,1075.18 
  "/>
<path clip-path="url(#clip822)" d="
M1221.37 1167.9 L1221.37 1384.24 L1244.4 1384.24 L1244.4 1167.9 L1221.37 1167.9 L1221.37 1167.9  Z
  " fill="#009af9" fill-rule="evenodd" fill-opacity="1"/>
<polyline clip-path="url(#clip822)" style="stroke:#000000; stroke-width:4; stroke-opacity:1; fill:none" points="
  1221.37,1167.9 1221.37,1384.24 1244.4,1384.24 1244.4,1167.9 1221.37,1167.9 
  "/>
<path clip-path="url(#clip822)" d="
M1244.4 1136.99 L1244.4 1384.24 L1267.42 1384.24 L1267.42 1136.99 L1244.4 1136.99 L1244.4 1136.99  Z
  " fill="#009af9" fill-rule="evenodd" fill-opacity="1"/>
<polyline clip-path="url(#clip822)" style="stroke:#000000; stroke-width:4; stroke-opacity:1; fill:none" points="
  1244.4,1136.99 1244.4,1384.24 1267.42,1384.24 1267.42,1136.99 1244.4,1136.99 
  "/>
<path clip-path="url(#clip822)" d="
M1267.42 1260.61 L1267.42 1384.24 L1290.45 1384.24 L1290.45 1260.61 L1267.42 1260.61 L1267.42 1260.61  Z
  " fill="#009af9" fill-rule="evenodd" fill-opacity="1"/>
<polyline clip-path="url(#clip822)" style="stroke:#000000; stroke-width:4; stroke-opacity:1; fill:none" points="
  1267.42,1260.61 1267.42,1384.24 1290.45,1384.24 1290.45,1260.61 1267.42,1260.61 
  "/>
<path clip-path="url(#clip822)" d="
M1290.45 1291.52 L1290.45 1384.24 L1313.48 1384.24 L1313.48 1291.52 L1290.45 1291.52 L1290.45 1291.52  Z
  " fill="#009af9" fill-rule="evenodd" fill-opacity="1"/>
<polyline clip-path="url(#clip822)" style="stroke:#000000; stroke-width:4; stroke-opacity:1; fill:none" points="
  1290.45,1291.52 1290.45,1384.24 1313.48,1384.24 1313.48,1291.52 1290.45,1291.52 
  "/>
<path clip-path="url(#clip822)" d="
M1313.48 1044.27 L1313.48 1384.24 L1336.51 1384.24 L1336.51 1044.27 L1313.48 1044.27 L1313.48 1044.27  Z
  " fill="#009af9" fill-rule="evenodd" fill-opacity="1"/>
<polyline clip-path="url(#clip822)" style="stroke:#000000; stroke-width:4; stroke-opacity:1; fill:none" points="
  1313.48,1044.27 1313.48,1384.24 1336.51,1384.24 1336.51,1044.27 1313.48,1044.27 
  "/>
<path clip-path="url(#clip822)" d="
M1336.51 1136.99 L1336.51 1384.24 L1359.54 1384.24 L1359.54 1136.99 L1336.51 1136.99 L1336.51 1136.99  Z
  " fill="#009af9" fill-rule="evenodd" fill-opacity="1"/>
<polyline clip-path="url(#clip822)" style="stroke:#000000; stroke-width:4; stroke-opacity:1; fill:none" points="
  1336.51,1136.99 1336.51,1384.24 1359.54,1384.24 1359.54,1136.99 1336.51,1136.99 
  "/>
<path clip-path="url(#clip822)" d="
M1359.54 1229.71 L1359.54 1384.24 L1382.57 1384.24 L1382.57 1229.71 L1359.54 1229.71 L1359.54 1229.71  Z
  " fill="#009af9" fill-rule="evenodd" fill-opacity="1"/>
<polyline clip-path="url(#clip822)" style="stroke:#000000; stroke-width:4; stroke-opacity:1; fill:none" points="
  1359.54,1229.71 1359.54,1384.24 1382.57,1384.24 1382.57,1229.71 1359.54,1229.71 
  "/>
<path clip-path="url(#clip822)" d="
M1382.57 1136.99 L1382.57 1384.24 L1405.6 1384.24 L1405.6 1136.99 L1382.57 1136.99 L1382.57 1136.99  Z
  " fill="#009af9" fill-rule="evenodd" fill-opacity="1"/>
<polyline clip-path="url(#clip822)" style="stroke:#000000; stroke-width:4; stroke-opacity:1; fill:none" points="
  1382.57,1136.99 1382.57,1384.24 1405.6,1384.24 1405.6,1136.99 1382.57,1136.99 
  "/>
<path clip-path="url(#clip822)" d="
M1405.6 1260.61 L1405.6 1384.24 L1428.63 1384.24 L1428.63 1260.61 L1405.6 1260.61 L1405.6 1260.61  Z
  " fill="#009af9" fill-rule="evenodd" fill-opacity="1"/>
<polyline clip-path="url(#clip822)" style="stroke:#000000; stroke-width:4; stroke-opacity:1; fill:none" points="
  1405.6,1260.61 1405.6,1384.24 1428.63,1384.24 1428.63,1260.61 1405.6,1260.61 
  "/>
<path clip-path="url(#clip822)" d="
M1428.63 1322.43 L1428.63 1384.24 L1451.65 1384.24 L1451.65 1322.43 L1428.63 1322.43 L1428.63 1322.43  Z
  " fill="#009af9" fill-rule="evenodd" fill-opacity="1"/>
<polyline clip-path="url(#clip822)" style="stroke:#000000; stroke-width:4; stroke-opacity:1; fill:none" points="
  1428.63,1322.43 1428.63,1384.24 1451.65,1384.24 1451.65,1322.43 1428.63,1322.43 
  "/>
<path clip-path="url(#clip822)" d="
M1451.65 1322.43 L1451.65 1384.24 L1474.68 1384.24 L1474.68 1322.43 L1451.65 1322.43 L1451.65 1322.43  Z
  " fill="#009af9" fill-rule="evenodd" fill-opacity="1"/>
<polyline clip-path="url(#clip822)" style="stroke:#000000; stroke-width:4; stroke-opacity:1; fill:none" points="
  1451.65,1322.43 1451.65,1384.24 1474.68,1384.24 1474.68,1322.43 1451.65,1322.43 
  "/>
<path clip-path="url(#clip822)" d="
M1474.68 1353.33 L1474.68 1384.24 L1497.71 1384.24 L1497.71 1353.33 L1474.68 1353.33 L1474.68 1353.33  Z
  " fill="#009af9" fill-rule="evenodd" fill-opacity="1"/>
<polyline clip-path="url(#clip822)" style="stroke:#000000; stroke-width:4; stroke-opacity:1; fill:none" points="
  1474.68,1353.33 1474.68,1384.24 1497.71,1384.24 1497.71,1353.33 1474.68,1353.33 
  "/>
<path clip-path="url(#clip822)" d="
M1497.71 1384.24 L1497.71 1384.24 L1520.74 1384.24 L1520.74 1384.24 L1497.71 1384.24 L1497.71 1384.24  Z
  " fill="#009af9" fill-rule="evenodd" fill-opacity="1"/>
<polyline clip-path="url(#clip822)" style="stroke:#000000; stroke-width:4; stroke-opacity:1; fill:none" points="
  1497.71,1384.24 1497.71,1384.24 1520.74,1384.24 1497.71,1384.24 
  "/>
<path clip-path="url(#clip822)" d="
M1520.74 1322.43 L1520.74 1384.24 L1543.77 1384.24 L1543.77 1322.43 L1520.74 1322.43 L1520.74 1322.43  Z
  " fill="#009af9" fill-rule="evenodd" fill-opacity="1"/>
<polyline clip-path="url(#clip822)" style="stroke:#000000; stroke-width:4; stroke-opacity:1; fill:none" points="
  1520.74,1322.43 1520.74,1384.24 1543.77,1384.24 1543.77,1322.43 1520.74,1322.43 
  "/>
<path clip-path="url(#clip822)" d="
M1543.77 1291.52 L1543.77 1384.24 L1566.8 1384.24 L1566.8 1291.52 L1543.77 1291.52 L1543.77 1291.52  Z
  " fill="#009af9" fill-rule="evenodd" fill-opacity="1"/>
<polyline clip-path="url(#clip822)" style="stroke:#000000; stroke-width:4; stroke-opacity:1; fill:none" points="
  1543.77,1291.52 1543.77,1384.24 1566.8,1384.24 1566.8,1291.52 1543.77,1291.52 
  "/>
<path clip-path="url(#clip822)" d="
M1566.8 1384.24 L1566.8 1384.24 L1589.83 1384.24 L1589.83 1384.24 L1566.8 1384.24 L1566.8 1384.24  Z
  " fill="#009af9" fill-rule="evenodd" fill-opacity="1"/>
<polyline clip-path="url(#clip822)" style="stroke:#000000; stroke-width:4; stroke-opacity:1; fill:none" points="
  1566.8,1384.24 1566.8,1384.24 1589.83,1384.24 1566.8,1384.24 
  "/>
<path clip-path="url(#clip822)" d="
M1589.83 1260.61 L1589.83 1384.24 L1612.86 1384.24 L1612.86 1260.61 L1589.83 1260.61 L1589.83 1260.61  Z
  " fill="#009af9" fill-rule="evenodd" fill-opacity="1"/>
<polyline clip-path="url(#clip822)" style="stroke:#000000; stroke-width:4; stroke-opacity:1; fill:none" points="
  1589.83,1260.61 1589.83,1384.24 1612.86,1384.24 1612.86,1260.61 1589.83,1260.61 
  "/>
<path clip-path="url(#clip822)" d="
M1612.86 1322.43 L1612.86 1384.24 L1635.88 1384.24 L1635.88 1322.43 L1612.86 1322.43 L1612.86 1322.43  Z
  " fill="#009af9" fill-rule="evenodd" fill-opacity="1"/>
<polyline clip-path="url(#clip822)" style="stroke:#000000; stroke-width:4; stroke-opacity:1; fill:none" points="
  1612.86,1322.43 1612.86,1384.24 1635.88,1384.24 1635.88,1322.43 1612.86,1322.43 
  "/>
<path clip-path="url(#clip822)" d="
M1635.88 1291.52 L1635.88 1384.24 L1658.91 1384.24 L1658.91 1291.52 L1635.88 1291.52 L1635.88 1291.52  Z
  " fill="#009af9" fill-rule="evenodd" fill-opacity="1"/>
<polyline clip-path="url(#clip822)" style="stroke:#000000; stroke-width:4; stroke-opacity:1; fill:none" points="
  1635.88,1291.52 1635.88,1384.24 1658.91,1384.24 1658.91,1291.52 1635.88,1291.52 
  "/>
<path clip-path="url(#clip822)" d="
M1658.91 1229.71 L1658.91 1384.24 L1681.94 1384.24 L1681.94 1229.71 L1658.91 1229.71 L1658.91 1229.71  Z
  " fill="#009af9" fill-rule="evenodd" fill-opacity="1"/>
<polyline clip-path="url(#clip822)" style="stroke:#000000; stroke-width:4; stroke-opacity:1; fill:none" points="
  1658.91,1229.71 1658.91,1384.24 1681.94,1384.24 1681.94,1229.71 1658.91,1229.71 
  "/>
<path clip-path="url(#clip822)" d="
M1681.94 1260.61 L1681.94 1384.24 L1704.97 1384.24 L1704.97 1260.61 L1681.94 1260.61 L1681.94 1260.61  Z
  " fill="#009af9" fill-rule="evenodd" fill-opacity="1"/>
<polyline clip-path="url(#clip822)" style="stroke:#000000; stroke-width:4; stroke-opacity:1; fill:none" points="
  1681.94,1260.61 1681.94,1384.24 1704.97,1384.24 1704.97,1260.61 1681.94,1260.61 
  "/>
<path clip-path="url(#clip822)" d="
M1704.97 1260.61 L1704.97 1384.24 L1728 1384.24 L1728 1260.61 L1704.97 1260.61 L1704.97 1260.61  Z
  " fill="#009af9" fill-rule="evenodd" fill-opacity="1"/>
<polyline clip-path="url(#clip822)" style="stroke:#000000; stroke-width:4; stroke-opacity:1; fill:none" points="
  1704.97,1260.61 1704.97,1384.24 1728,1384.24 1728,1260.61 1704.97,1260.61 
  "/>
<path clip-path="url(#clip822)" d="
M1728 1167.9 L1728 1384.24 L1751.03 1384.24 L1751.03 1167.9 L1728 1167.9 L1728 1167.9  Z
  " fill="#009af9" fill-rule="evenodd" fill-opacity="1"/>
<polyline clip-path="url(#clip822)" style="stroke:#000000; stroke-width:4; stroke-opacity:1; fill:none" points="
  1728,1167.9 1728,1384.24 1751.03,1384.24 1751.03,1167.9 1728,1167.9 
  "/>
<path clip-path="url(#clip822)" d="
M1751.03 1013.37 L1751.03 1384.24 L1774.06 1384.24 L1774.06 1013.37 L1751.03 1013.37 L1751.03 1013.37  Z
  " fill="#009af9" fill-rule="evenodd" fill-opacity="1"/>
<polyline clip-path="url(#clip822)" style="stroke:#000000; stroke-width:4; stroke-opacity:1; fill:none" points="
  1751.03,1013.37 1751.03,1384.24 1774.06,1384.24 1774.06,1013.37 1751.03,1013.37 
  "/>
<path clip-path="url(#clip822)" d="
M1774.06 951.554 L1774.06 1384.24 L1797.09 1384.24 L1797.09 951.554 L1774.06 951.554 L1774.06 951.554  Z
  " fill="#009af9" fill-rule="evenodd" fill-opacity="1"/>
<polyline clip-path="url(#clip822)" style="stroke:#000000; stroke-width:4; stroke-opacity:1; fill:none" points="
  1774.06,951.554 1774.06,1384.24 1797.09,1384.24 1797.09,951.554 1774.06,951.554 
  "/>
<path clip-path="url(#clip822)" d="
M1797.09 920.648 L1797.09 1384.24 L1820.11 1384.24 L1820.11 920.648 L1797.09 920.648 L1797.09 920.648  Z
  " fill="#009af9" fill-rule="evenodd" fill-opacity="1"/>
<polyline clip-path="url(#clip822)" style="stroke:#000000; stroke-width:4; stroke-opacity:1; fill:none" points="
  1797.09,920.648 1797.09,1384.24 1820.11,1384.24 1820.11,920.648 1797.09,920.648 
  "/>
<path clip-path="url(#clip822)" d="
M1820.11 889.742 L1820.11 1384.24 L1843.14 1384.24 L1843.14 889.742 L1820.11 889.742 L1820.11 889.742  Z
  " fill="#009af9" fill-rule="evenodd" fill-opacity="1"/>
<polyline clip-path="url(#clip822)" style="stroke:#000000; stroke-width:4; stroke-opacity:1; fill:none" points="
  1820.11,889.742 1820.11,1384.24 1843.14,1384.24 1843.14,889.742 1820.11,889.742 
  "/>
<path clip-path="url(#clip822)" d="
M1843.14 951.554 L1843.14 1384.24 L1866.17 1384.24 L1866.17 951.554 L1843.14 951.554 L1843.14 951.554  Z
  " fill="#009af9" fill-rule="evenodd" fill-opacity="1"/>
<polyline clip-path="url(#clip822)" style="stroke:#000000; stroke-width:4; stroke-opacity:1; fill:none" points="
  1843.14,951.554 1843.14,1384.24 1866.17,1384.24 1866.17,951.554 1843.14,951.554 
  "/>
<path clip-path="url(#clip822)" d="
M1866.17 642.494 L1866.17 1384.24 L1889.2 1384.24 L1889.2 642.494 L1866.17 642.494 L1866.17 642.494  Z
  " fill="#009af9" fill-rule="evenodd" fill-opacity="1"/>
<polyline clip-path="url(#clip822)" style="stroke:#000000; stroke-width:4; stroke-opacity:1; fill:none" points="
  1866.17,642.494 1866.17,1384.24 1889.2,1384.24 1889.2,642.494 1866.17,642.494 
  "/>
<path clip-path="url(#clip822)" d="
M1889.2 735.212 L1889.2 1384.24 L1912.23 1384.24 L1912.23 735.212 L1889.2 735.212 L1889.2 735.212  Z
  " fill="#009af9" fill-rule="evenodd" fill-opacity="1"/>
<polyline clip-path="url(#clip822)" style="stroke:#000000; stroke-width:4; stroke-opacity:1; fill:none" points="
  1889.2,735.212 1889.2,1384.24 1912.23,1384.24 1912.23,735.212 1889.2,735.212 
  "/>
<path clip-path="url(#clip822)" d="
M1912.23 673.4 L1912.23 1384.24 L1935.26 1384.24 L1935.26 673.4 L1912.23 673.4 L1912.23 673.4  Z
  " fill="#009af9" fill-rule="evenodd" fill-opacity="1"/>
<polyline clip-path="url(#clip822)" style="stroke:#000000; stroke-width:4; stroke-opacity:1; fill:none" points="
  1912.23,673.4 1912.23,1384.24 1935.26,1384.24 1935.26,673.4 1912.23,673.4 
  "/>
<path clip-path="url(#clip822)" d="
M1935.26 735.212 L1935.26 1384.24 L1958.29 1384.24 L1958.29 735.212 L1935.26 735.212 L1935.26 735.212  Z
  " fill="#009af9" fill-rule="evenodd" fill-opacity="1"/>
<polyline clip-path="url(#clip822)" style="stroke:#000000; stroke-width:4; stroke-opacity:1; fill:none" points="
  1935.26,735.212 1935.26,1384.24 1958.29,1384.24 1958.29,735.212 1935.26,735.212 
  "/>
<path clip-path="url(#clip822)" d="
M1958.29 920.648 L1958.29 1384.24 L1981.32 1384.24 L1981.32 920.648 L1958.29 920.648 L1958.29 920.648  Z
  " fill="#009af9" fill-rule="evenodd" fill-opacity="1"/>
<polyline clip-path="url(#clip822)" style="stroke:#000000; stroke-width:4; stroke-opacity:1; fill:none" points="
  1958.29,920.648 1958.29,1384.24 1981.32,1384.24 1981.32,920.648 1958.29,920.648 
  "/>
<path clip-path="url(#clip822)" d="
M1981.32 1044.27 L1981.32 1384.24 L2004.34 1384.24 L2004.34 1044.27 L1981.32 1044.27 L1981.32 1044.27  Z
  " fill="#009af9" fill-rule="evenodd" fill-opacity="1"/>
<polyline clip-path="url(#clip822)" style="stroke:#000000; stroke-width:4; stroke-opacity:1; fill:none" points="
  1981.32,1044.27 1981.32,1384.24 2004.34,1384.24 2004.34,1044.27 1981.32,1044.27 
  "/>
<path clip-path="url(#clip822)" d="
M2004.34 735.212 L2004.34 1384.24 L2027.37 1384.24 L2027.37 735.212 L2004.34 735.212 L2004.34 735.212  Z
  " fill="#009af9" fill-rule="evenodd" fill-opacity="1"/>
<polyline clip-path="url(#clip822)" style="stroke:#000000; stroke-width:4; stroke-opacity:1; fill:none" points="
  2004.34,735.212 2004.34,1384.24 2027.37,1384.24 2027.37,735.212 2004.34,735.212 
  "/>
<path clip-path="url(#clip822)" d="
M2027.37 951.554 L2027.37 1384.24 L2050.4 1384.24 L2050.4 951.554 L2027.37 951.554 L2027.37 951.554  Z
  " fill="#009af9" fill-rule="evenodd" fill-opacity="1"/>
<polyline clip-path="url(#clip822)" style="stroke:#000000; stroke-width:4; stroke-opacity:1; fill:none" points="
  2027.37,951.554 2027.37,1384.24 2050.4,1384.24 2050.4,951.554 2027.37,951.554 
  "/>
<path clip-path="url(#clip822)" d="
M2050.4 735.212 L2050.4 1384.24 L2073.43 1384.24 L2073.43 735.212 L2050.4 735.212 L2050.4 735.212  Z
  " fill="#009af9" fill-rule="evenodd" fill-opacity="1"/>
<polyline clip-path="url(#clip822)" style="stroke:#000000; stroke-width:4; stroke-opacity:1; fill:none" points="
  2050.4,735.212 2050.4,1384.24 2073.43,1384.24 2073.43,735.212 2050.4,735.212 
  "/>
<path clip-path="url(#clip822)" d="
M2073.43 1013.37 L2073.43 1384.24 L2096.46 1384.24 L2096.46 1013.37 L2073.43 1013.37 L2073.43 1013.37  Z
  " fill="#009af9" fill-rule="evenodd" fill-opacity="1"/>
<polyline clip-path="url(#clip822)" style="stroke:#000000; stroke-width:4; stroke-opacity:1; fill:none" points="
  2073.43,1013.37 2073.43,1384.24 2096.46,1384.24 2096.46,1013.37 2073.43,1013.37 
  "/>
<path clip-path="url(#clip822)" d="
M2096.46 766.118 L2096.46 1384.24 L2119.49 1384.24 L2119.49 766.118 L2096.46 766.118 L2096.46 766.118  Z
  " fill="#009af9" fill-rule="evenodd" fill-opacity="1"/>
<polyline clip-path="url(#clip822)" style="stroke:#000000; stroke-width:4; stroke-opacity:1; fill:none" points="
  2096.46,766.118 2096.46,1384.24 2119.49,1384.24 2119.49,766.118 2096.46,766.118 
  "/>
<path clip-path="url(#clip822)" d="
M2119.49 951.554 L2119.49 1384.24 L2142.52 1384.24 L2142.52 951.554 L2119.49 951.554 L2119.49 951.554  Z
  " fill="#009af9" fill-rule="evenodd" fill-opacity="1"/>
<polyline clip-path="url(#clip822)" style="stroke:#000000; stroke-width:4; stroke-opacity:1; fill:none" points="
  2119.49,951.554 2119.49,1384.24 2142.52,1384.24 2142.52,951.554 2119.49,951.554 
  "/>
<path clip-path="url(#clip822)" d="
M2142.52 1106.08 L2142.52 1384.24 L2165.55 1384.24 L2165.55 1106.08 L2142.52 1106.08 L2142.52 1106.08  Z
  " fill="#009af9" fill-rule="evenodd" fill-opacity="1"/>
<polyline clip-path="url(#clip822)" style="stroke:#000000; stroke-width:4; stroke-opacity:1; fill:none" points="
  2142.52,1106.08 2142.52,1384.24 2165.55,1384.24 2165.55,1106.08 2142.52,1106.08 
  "/>
<path clip-path="url(#clip822)" d="
M2165.55 1136.99 L2165.55 1384.24 L2188.57 1384.24 L2188.57 1136.99 L2165.55 1136.99 L2165.55 1136.99  Z
  " fill="#009af9" fill-rule="evenodd" fill-opacity="1"/>
<polyline clip-path="url(#clip822)" style="stroke:#000000; stroke-width:4; stroke-opacity:1; fill:none" points="
  2165.55,1136.99 2165.55,1384.24 2188.57,1384.24 2188.57,1136.99 2165.55,1136.99 
  "/>
<path clip-path="url(#clip822)" d="
M2188.57 1291.52 L2188.57 1384.24 L2211.6 1384.24 L2211.6 1291.52 L2188.57 1291.52 L2188.57 1291.52  Z
  " fill="#009af9" fill-rule="evenodd" fill-opacity="1"/>
<polyline clip-path="url(#clip822)" style="stroke:#000000; stroke-width:4; stroke-opacity:1; fill:none" points="
  2188.57,1291.52 2188.57,1384.24 2211.6,1384.24 2211.6,1291.52 2188.57,1291.52 
  "/>
<path clip-path="url(#clip822)" d="
M2211.6 1291.52 L2211.6 1384.24 L2234.63 1384.24 L2234.63 1291.52 L2211.6 1291.52 L2211.6 1291.52  Z
  " fill="#009af9" fill-rule="evenodd" fill-opacity="1"/>
<polyline clip-path="url(#clip822)" style="stroke:#000000; stroke-width:4; stroke-opacity:1; fill:none" points="
  2211.6,1291.52 2211.6,1384.24 2234.63,1384.24 2234.63,1291.52 2211.6,1291.52 
  "/>
<path clip-path="url(#clip820)" d="
M1990.11 214.069 L2281.17 214.069 L2281.17 93.1086 L1990.11 93.1086  Z
  " fill="#ffffff" fill-rule="evenodd" fill-opacity="1"/>
<polyline clip-path="url(#clip820)" style="stroke:#000000; stroke-width:4; stroke-opacity:1; fill:none" points="
  1990.11,214.069 2281.17,214.069 2281.17,93.1086 1990.11,93.1086 1990.11,214.069 
  "/>
<path clip-path="url(#clip820)" d="
M2013.97 177.781 L2157.15 177.781 L2157.15 129.397 L2013.97 129.397 L2013.97 177.781  Z
  " fill="#009af9" fill-rule="evenodd" fill-opacity="1"/>
<polyline clip-path="url(#clip820)" style="stroke:#000000; stroke-width:4; stroke-opacity:1; fill:none" points="
  2013.97,177.781 2157.15,177.781 2157.15,129.397 2013.97,129.397 2013.97,177.781 
  "/>
<path clip-path="url(#clip820)" d="M 0 0 M2194.86 173.276 Q2193.05 177.906 2191.34 179.318 Q2189.62 180.73 2186.75 180.73 L2183.35 180.73 L2183.35 177.165 L2185.85 177.165 Q2187.61 177.165 2188.58 176.332 Q2189.55 175.498 2190.73 172.396 L2191.5 170.452 L2181.01 144.943 L2185.53 144.943 L2193.63 165.221 L2201.73 144.943 L2206.24 144.943 L2194.86 173.276 Z" fill="#000000" fill-rule="evenodd" fill-opacity="1" /><path clip-path="url(#clip820)" d="M 0 0 M2213.54 166.933 L2221.17 166.933 L2221.17 140.568 L2212.86 142.235 L2212.86 137.975 L2221.13 136.309 L2225.8 136.309 L2225.8 166.933 L2233.44 166.933 L2233.44 170.869 L2213.54 170.869 L2213.54 166.933 Z" fill="#000000" fill-rule="evenodd" fill-opacity="1" /></svg>
