<?xml version="1.0" encoding="utf-8"?>
<svg xmlns="http://www.w3.org/2000/svg" xmlns:xlink="http://www.w3.org/1999/xlink" width="600" height="400" viewBox="0 0 2400 1600">
<defs>
  <clipPath id="clip040">
    <rect x="0" y="0" width="2400" height="1600"/>
  </clipPath>
</defs>
<path clip-path="url(#clip040)" d="
M0 1600 L2400 1600 L2400 0 L0 0  Z
  " fill="#ffffff" fill-rule="evenodd" fill-opacity="1"/>
<defs>
  <clipPath id="clip041">
    <rect x="480" y="0" width="1681" height="1600"/>
  </clipPath>
</defs>
<path clip-path="url(#clip040)" d="
M205.121 1423.18 L2352.76 1423.18 L2352.76 47.2441 L205.121 47.2441  Z
  " fill="#ffffff" fill-rule="evenodd" fill-opacity="1"/>
<defs>
  <clipPath id="clip042">
    <rect x="205" y="47" width="2149" height="1377"/>
  </clipPath>
</defs>
<polyline clip-path="url(#clip042)" style="stroke:#000000; stroke-width:2; stroke-opacity:0.1; fill:none" points="
  474.144,1423.18 474.144,47.2441 
  "/>
<polyline clip-path="url(#clip042)" style="stroke:#000000; stroke-width:2; stroke-opacity:0.1; fill:none" points="
  977.14,1423.18 977.14,47.2441 
  "/>
<polyline clip-path="url(#clip042)" style="stroke:#000000; stroke-width:2; stroke-opacity:0.1; fill:none" points="
  1480.14,1423.18 1480.14,47.2441 
  "/>
<polyline clip-path="url(#clip042)" style="stroke:#000000; stroke-width:2; stroke-opacity:0.1; fill:none" points="
  1983.13,1423.18 1983.13,47.2441 
  "/>
<polyline clip-path="url(#clip040)" style="stroke:#000000; stroke-width:4; stroke-opacity:1; fill:none" points="
  205.121,1423.18 2352.76,1423.18 
  "/>
<polyline clip-path="url(#clip040)" style="stroke:#000000; stroke-width:4; stroke-opacity:1; fill:none" points="
  474.144,1423.18 474.144,1406.67 
  "/>
<polyline clip-path="url(#clip040)" style="stroke:#000000; stroke-width:4; stroke-opacity:1; fill:none" points="
  977.14,1423.18 977.14,1406.67 
  "/>
<polyline clip-path="url(#clip040)" style="stroke:#000000; stroke-width:4; stroke-opacity:1; fill:none" points="
  1480.14,1423.18 1480.14,1406.67 
  "/>
<polyline clip-path="url(#clip040)" style="stroke:#000000; stroke-width:4; stroke-opacity:1; fill:none" points="
  1983.13,1423.18 1983.13,1406.67 
  "/>
<path clip-path="url(#clip040)" d="M 0 0 M443.785 1467.02 L473.461 1467.02 L473.461 1470.96 L443.785 1470.96 L443.785 1467.02 Z" fill="#000000" fill-rule="evenodd" fill-opacity="1" /><path clip-path="url(#clip040)" d="M 0 0 M483.6 1449.29 L501.956 1449.29 L501.956 1453.23 L487.882 1453.23 L487.882 1461.7 Q488.901 1461.35 489.919 1461.19 Q490.938 1461 491.956 1461 Q497.743 1461 501.123 1464.18 Q504.502 1467.35 504.502 1472.76 Q504.502 1478.34 501.03 1481.44 Q497.558 1484.52 491.239 1484.52 Q489.063 1484.52 486.794 1484.15 Q484.549 1483.78 482.141 1483.04 L482.141 1478.34 Q484.225 1479.48 486.447 1480.03 Q488.669 1480.59 491.146 1480.59 Q495.151 1480.59 497.489 1478.48 Q499.826 1476.38 499.826 1472.76 Q499.826 1469.15 497.489 1467.05 Q495.151 1464.94 491.146 1464.94 Q489.271 1464.94 487.396 1465.36 Q485.544 1465.77 483.6 1466.65 L483.6 1449.29 Z" fill="#000000" fill-rule="evenodd" fill-opacity="1" /><path clip-path="url(#clip040)" d="M 0 0 M977.14 1452.37 Q973.529 1452.37 971.701 1455.94 Q969.895 1459.48 969.895 1466.61 Q969.895 1473.71 971.701 1477.28 Q973.529 1480.82 977.14 1480.82 Q980.775 1480.82 982.58 1477.28 Q984.409 1473.71 984.409 1466.61 Q984.409 1459.48 982.58 1455.94 Q980.775 1452.37 977.14 1452.37 M977.14 1448.67 Q982.951 1448.67 986.006 1453.27 Q989.085 1457.86 989.085 1466.61 Q989.085 1475.33 986.006 1479.94 Q982.951 1484.52 977.14 1484.52 Q971.33 1484.52 968.252 1479.94 Q965.196 1475.33 965.196 1466.61 Q965.196 1457.86 968.252 1453.27 Q971.33 1448.67 977.14 1448.67 Z" fill="#000000" fill-rule="evenodd" fill-opacity="1" /><path clip-path="url(#clip040)" d="M 0 0 M1470.41 1449.29 L1488.77 1449.29 L1488.77 1453.23 L1474.7 1453.23 L1474.7 1461.7 Q1475.72 1461.35 1476.73 1461.19 Q1477.75 1461 1478.77 1461 Q1484.56 1461 1487.94 1464.18 Q1491.32 1467.35 1491.32 1472.76 Q1491.32 1478.34 1487.85 1481.44 Q1484.37 1484.52 1478.05 1484.52 Q1475.88 1484.52 1473.61 1484.15 Q1471.36 1483.78 1468.96 1483.04 L1468.96 1478.34 Q1471.04 1479.48 1473.26 1480.03 Q1475.48 1480.59 1477.96 1480.59 Q1481.97 1480.59 1484.3 1478.48 Q1486.64 1476.38 1486.64 1472.76 Q1486.64 1469.15 1484.3 1467.05 Q1481.97 1464.94 1477.96 1464.94 Q1476.09 1464.94 1474.21 1465.36 Q1472.36 1465.77 1470.41 1466.65 L1470.41 1449.29 Z" fill="#000000" fill-rule="evenodd" fill-opacity="1" /><path clip-path="url(#clip040)" d="M 0 0 M1957.82 1479.92 L1965.46 1479.92 L1965.46 1453.55 L1957.15 1455.22 L1957.15 1450.96 L1965.41 1449.29 L1970.09 1449.29 L1970.09 1479.92 L1977.73 1479.92 L1977.73 1483.85 L1957.82 1483.85 L1957.82 1479.92 Z" fill="#000000" fill-rule="evenodd" fill-opacity="1" /><path clip-path="url(#clip040)" d="M 0 0 M1997.17 1452.37 Q1993.56 1452.37 1991.73 1455.94 Q1989.93 1459.48 1989.93 1466.61 Q1989.93 1473.71 1991.73 1477.28 Q1993.56 1480.82 1997.17 1480.82 Q2000.81 1480.82 2002.61 1477.28 Q2004.44 1473.71 2004.44 1466.61 Q2004.44 1459.48 2002.61 1455.94 Q2000.81 1452.37 1997.17 1452.37 M1997.17 1448.67 Q2002.98 1448.67 2006.04 1453.27 Q2009.12 1457.86 2009.12 1466.61 Q2009.12 1475.33 2006.04 1479.94 Q2002.98 1484.52 1997.17 1484.52 Q1991.36 1484.52 1988.28 1479.94 Q1985.23 1475.33 1985.23 1466.61 Q1985.23 1457.86 1988.28 1453.27 Q1991.36 1448.67 1997.17 1448.67 Z" fill="#000000" fill-rule="evenodd" fill-opacity="1" /><path clip-path="url(#clip040)" d="M 0 0 M1209.57 1568.04 L1191.43 1520.52 L1198.14 1520.52 L1213.2 1560.53 L1228.28 1520.52 L1234.97 1520.52 L1216.86 1568.04 L1209.57 1568.04 Z" fill="#000000" fill-rule="evenodd" fill-opacity="1" /><path clip-path="url(#clip040)" d="M 0 0 M1252.79 1550.12 Q1245.69 1550.12 1242.96 1551.75 Q1240.22 1553.37 1240.22 1557.29 Q1240.22 1560.4 1242.26 1562.25 Q1244.32 1564.07 1247.86 1564.07 Q1252.73 1564.07 1255.66 1560.63 Q1258.62 1557.16 1258.62 1551.43 L1258.62 1550.12 L1252.79 1550.12 M1264.47 1547.71 L1264.47 1568.04 L1258.62 1568.04 L1258.62 1562.63 Q1256.61 1565.88 1253.62 1567.44 Q1250.63 1568.97 1246.3 1568.97 Q1240.82 1568.97 1237.58 1565.91 Q1234.36 1562.82 1234.36 1557.67 Q1234.36 1551.65 1238.37 1548.6 Q1242.42 1545.54 1250.4 1545.54 L1258.62 1545.54 L1258.62 1544.97 Q1258.62 1540.93 1255.94 1538.73 Q1253.3 1536.5 1248.49 1536.5 Q1245.44 1536.5 1242.54 1537.23 Q1239.65 1537.97 1236.97 1539.43 L1236.97 1534.02 Q1240.19 1532.78 1243.21 1532.17 Q1246.23 1531.54 1249.1 1531.54 Q1256.83 1531.54 1260.65 1535.55 Q1264.47 1539.56 1264.47 1547.71 Z" fill="#000000" fill-rule="evenodd" fill-opacity="1" /><path clip-path="url(#clip040)" d="M 0 0 M1276.54 1518.52 L1282.39 1518.52 L1282.39 1568.04 L1276.54 1568.04 L1276.54 1518.52 Z" fill="#000000" fill-rule="evenodd" fill-opacity="1" /><path clip-path="url(#clip040)" d="M 0 0 M1294.04 1553.98 L1294.04 1532.4 L1299.9 1532.4 L1299.9 1553.75 Q1299.9 1558.81 1301.87 1561.36 Q1303.84 1563.87 1307.79 1563.87 Q1312.53 1563.87 1315.27 1560.85 Q1318.04 1557.83 1318.04 1552.61 L1318.04 1532.4 L1323.9 1532.4 L1323.9 1568.04 L1318.04 1568.04 L1318.04 1562.57 Q1315.91 1565.82 1313.07 1567.41 Q1310.27 1568.97 1306.55 1568.97 Q1300.41 1568.97 1297.22 1565.15 Q1294.04 1561.33 1294.04 1553.98 M1308.78 1531.54 L1308.78 1531.54 Z" fill="#000000" fill-rule="evenodd" fill-opacity="1" /><path clip-path="url(#clip040)" d="M 0 0 M1366.45 1548.76 L1366.45 1551.62 L1339.52 1551.62 Q1339.91 1557.67 1343.15 1560.85 Q1346.43 1564 1352.26 1564 Q1355.63 1564 1358.78 1563.17 Q1361.96 1562.35 1365.08 1560.69 L1365.08 1566.23 Q1361.93 1567.57 1358.62 1568.27 Q1355.31 1568.97 1351.91 1568.97 Q1343.38 1568.97 1338.38 1564 Q1333.41 1559.04 1333.41 1550.57 Q1333.41 1541.82 1338.12 1536.69 Q1342.87 1531.54 1350.89 1531.54 Q1358.08 1531.54 1362.25 1536.18 Q1366.45 1540.8 1366.45 1548.76 M1360.59 1547.04 Q1360.53 1542.23 1357.89 1539.37 Q1355.28 1536.5 1350.95 1536.5 Q1346.05 1536.5 1343.09 1539.27 Q1340.16 1542.04 1339.72 1547.07 L1360.59 1547.04 Z" fill="#000000" fill-rule="evenodd" fill-opacity="1" /><polyline clip-path="url(#clip042)" style="stroke:#000000; stroke-width:2; stroke-opacity:0.1; fill:none" points="
  205.121,1384.24 2352.76,1384.24 
  "/>
<polyline clip-path="url(#clip042)" style="stroke:#000000; stroke-width:2; stroke-opacity:0.1; fill:none" points="
  205.121,1038.09 2352.76,1038.09 
  "/>
<polyline clip-path="url(#clip042)" style="stroke:#000000; stroke-width:2; stroke-opacity:0.1; fill:none" points="
  205.121,691.944 2352.76,691.944 
  "/>
<polyline clip-path="url(#clip042)" style="stroke:#000000; stroke-width:2; stroke-opacity:0.1; fill:none" points="
  205.121,345.796 2352.76,345.796 
  "/>
<polyline clip-path="url(#clip040)" style="stroke:#000000; stroke-width:4; stroke-opacity:1; fill:none" points="
  205.121,1423.18 205.121,47.2441 
  "/>
<polyline clip-path="url(#clip040)" style="stroke:#000000; stroke-width:4; stroke-opacity:1; fill:none" points="
  205.121,1384.24 230.893,1384.24 
  "/>
<polyline clip-path="url(#clip040)" style="stroke:#000000; stroke-width:4; stroke-opacity:1; fill:none" points="
  205.121,1038.09 230.893,1038.09 
  "/>
<polyline clip-path="url(#clip040)" style="stroke:#000000; stroke-width:4; stroke-opacity:1; fill:none" points="
  205.121,691.944 230.893,691.944 
  "/>
<polyline clip-path="url(#clip040)" style="stroke:#000000; stroke-width:4; stroke-opacity:1; fill:none" points="
  205.121,345.796 230.893,345.796 
  "/>
<path clip-path="url(#clip040)" d="M 0 0 M157.177 1370.04 Q153.566 1370.04 151.737 1373.6 Q149.931 1377.14 149.931 1384.27 Q149.931 1391.38 151.737 1394.94 Q153.566 1398.49 157.177 1398.49 Q160.811 1398.49 162.616 1394.94 Q164.445 1391.38 164.445 1384.27 Q164.445 1377.14 162.616 1373.6 Q160.811 1370.04 157.177 1370.04 M157.177 1366.33 Q162.987 1366.33 166.042 1370.94 Q169.121 1375.52 169.121 1384.27 Q169.121 1393 166.042 1397.61 Q162.987 1402.19 157.177 1402.19 Q151.366 1402.19 148.288 1397.61 Q145.232 1393 145.232 1384.27 Q145.232 1375.52 148.288 1370.94 Q151.366 1366.33 157.177 1366.33 Z" fill="#000000" fill-rule="evenodd" fill-opacity="1" /><path clip-path="url(#clip040)" d="M 0 0 M121.043 1051.44 L137.362 1051.44 L137.362 1055.37 L115.418 1055.37 L115.418 1051.44 Q118.08 1048.68 122.663 1044.05 Q127.269 1039.4 128.45 1038.06 Q130.695 1035.53 131.575 1033.8 Q132.478 1032.04 132.478 1030.35 Q132.478 1027.59 130.533 1025.86 Q128.612 1024.12 125.51 1024.12 Q123.311 1024.12 120.857 1024.88 Q118.427 1025.65 115.649 1027.2 L115.649 1022.48 Q118.473 1021.34 120.927 1020.76 Q123.38 1020.19 125.418 1020.19 Q130.788 1020.19 133.982 1022.87 Q137.177 1025.56 137.177 1030.05 Q137.177 1032.18 136.367 1034.1 Q135.579 1036 133.473 1038.59 Q132.894 1039.26 129.792 1042.48 Q126.691 1045.67 121.043 1051.44 Z" fill="#000000" fill-rule="evenodd" fill-opacity="1" /><path clip-path="url(#clip040)" d="M 0 0 M157.177 1023.89 Q153.566 1023.89 151.737 1027.45 Q149.931 1031 149.931 1038.13 Q149.931 1045.23 151.737 1048.8 Q153.566 1052.34 157.177 1052.34 Q160.811 1052.34 162.616 1048.8 Q164.445 1045.23 164.445 1038.13 Q164.445 1031 162.616 1027.45 Q160.811 1023.89 157.177 1023.89 M157.177 1020.19 Q162.987 1020.19 166.042 1024.79 Q169.121 1029.38 169.121 1038.13 Q169.121 1046.85 166.042 1051.46 Q162.987 1056.04 157.177 1056.04 Q151.366 1056.04 148.288 1051.46 Q145.232 1046.85 145.232 1038.13 Q145.232 1029.38 148.288 1024.79 Q151.366 1020.19 157.177 1020.19 Z" fill="#000000" fill-rule="evenodd" fill-opacity="1" /><path clip-path="url(#clip040)" d="M 0 0 M129.862 678.738 L118.056 697.187 L129.862 697.187 L129.862 678.738 M128.635 674.664 L134.515 674.664 L134.515 697.187 L139.445 697.187 L139.445 701.075 L134.515 701.075 L134.515 709.224 L129.862 709.224 L129.862 701.075 L114.26 701.075 L114.26 696.562 L128.635 674.664 Z" fill="#000000" fill-rule="evenodd" fill-opacity="1" /><path clip-path="url(#clip040)" d="M 0 0 M157.177 677.742 Q153.566 677.742 151.737 681.307 Q149.931 684.849 149.931 691.978 Q149.931 699.085 151.737 702.65 Q153.566 706.191 157.177 706.191 Q160.811 706.191 162.616 702.65 Q164.445 699.085 164.445 691.978 Q164.445 684.849 162.616 681.307 Q160.811 677.742 157.177 677.742 M157.177 674.039 Q162.987 674.039 166.042 678.645 Q169.121 683.228 169.121 691.978 Q169.121 700.705 166.042 705.312 Q162.987 709.895 157.177 709.895 Q151.366 709.895 148.288 705.312 Q145.232 700.705 145.232 691.978 Q145.232 683.228 148.288 678.645 Q151.366 674.039 157.177 674.039 Z" fill="#000000" fill-rule="evenodd" fill-opacity="1" /><path clip-path="url(#clip040)" d="M 0 0 M127.593 343.933 Q124.445 343.933 122.593 346.086 Q120.765 348.238 120.765 351.988 Q120.765 355.715 122.593 357.891 Q124.445 360.044 127.593 360.044 Q130.742 360.044 132.57 357.891 Q134.422 355.715 134.422 351.988 Q134.422 348.238 132.57 346.086 Q130.742 343.933 127.593 343.933 M136.876 329.28 L136.876 333.539 Q135.117 332.706 133.311 332.266 Q131.529 331.826 129.769 331.826 Q125.14 331.826 122.686 334.951 Q120.255 338.076 119.908 344.396 Q121.274 342.382 123.334 341.317 Q125.394 340.229 127.871 340.229 Q133.08 340.229 136.089 343.4 Q139.121 346.549 139.121 351.988 Q139.121 357.312 135.973 360.53 Q132.825 363.747 127.593 363.747 Q121.598 363.747 118.427 359.164 Q115.256 354.558 115.256 345.831 Q115.256 337.637 119.144 332.775 Q123.033 327.891 129.584 327.891 Q131.343 327.891 133.126 328.238 Q134.931 328.586 136.876 329.28 Z" fill="#000000" fill-rule="evenodd" fill-opacity="1" /><path clip-path="url(#clip040)" d="M 0 0 M157.177 331.595 Q153.566 331.595 151.737 335.16 Q149.931 338.701 149.931 345.831 Q149.931 352.937 151.737 356.502 Q153.566 360.044 157.177 360.044 Q160.811 360.044 162.616 356.502 Q164.445 352.937 164.445 345.831 Q164.445 338.701 162.616 335.16 Q160.811 331.595 157.177 331.595 M157.177 327.891 Q162.987 327.891 166.042 332.498 Q169.121 337.081 169.121 345.831 Q169.121 354.558 166.042 359.164 Q162.987 363.747 157.177 363.747 Q151.366 363.747 148.288 359.164 Q145.232 354.558 145.232 345.831 Q145.232 337.081 148.288 332.498 Q151.366 327.891 157.177 327.891 Z" fill="#000000" fill-rule="evenodd" fill-opacity="1" /><path clip-path="url(#clip040)" d="M 0 0 M16.4842 899.415 L16.4842 872.106 L21.895 872.106 L21.895 892.986 L35.8996 892.986 L35.8996 874.144 L41.3104 874.144 L41.3104 892.986 L64.0042 892.986 L64.0042 899.415 L16.4842 899.415 Z" fill="#000000" fill-rule="evenodd" fill-opacity="1" /><path clip-path="url(#clip040)" d="M 0 0 M33.8307 846.262 Q33.2578 847.248 33.0032 848.426 Q32.7167 849.572 32.7167 850.972 Q32.7167 855.938 35.9632 858.611 Q39.1779 861.253 45.2253 861.253 L64.0042 861.253 L64.0042 867.141 L28.3562 867.141 L28.3562 861.253 L33.8944 861.253 Q30.6479 859.407 29.0883 856.447 Q27.4968 853.487 27.4968 849.254 Q27.4968 848.649 27.5923 847.917 Q27.656 847.185 27.8151 846.294 L33.8307 846.262 Z" fill="#000000" fill-rule="evenodd" fill-opacity="1" /><path clip-path="url(#clip040)" d="M 0 0 M44.7161 811.059 L47.5806 811.059 L47.5806 837.986 Q53.6281 837.604 56.8109 834.358 Q59.9619 831.08 59.9619 825.255 Q59.9619 821.881 59.1344 818.73 Q58.3069 815.547 56.6518 812.428 L62.1899 812.428 Q63.5267 815.579 64.227 818.889 Q64.9272 822.199 64.9272 825.605 Q64.9272 834.135 59.9619 839.132 Q54.9967 844.097 46.5303 844.097 Q37.7774 844.097 32.6531 839.387 Q27.4968 834.644 27.4968 826.624 Q27.4968 819.43 32.1438 815.261 Q36.7589 811.059 44.7161 811.059 M42.9973 816.916 Q38.1912 816.979 35.3266 819.621 Q32.4621 822.231 32.4621 826.56 Q32.4621 831.461 35.2312 834.422 Q38.0002 837.35 43.0292 837.795 L42.9973 816.916 Z" fill="#000000" fill-rule="evenodd" fill-opacity="1" /><path clip-path="url(#clip040)" d="M 0 0 M46.212 797.946 Q52.6732 797.946 56.3653 795.304 Q60.0256 792.631 60.0256 787.984 Q60.0256 783.337 56.3653 780.663 Q52.6732 777.99 46.212 777.99 Q39.7508 777.99 36.0905 780.663 Q32.3984 783.337 32.3984 787.984 Q32.3984 792.631 36.0905 795.304 Q39.7508 797.946 46.212 797.946 M58.657 777.99 Q61.8398 779.836 63.3994 782.668 Q64.9272 785.469 64.9272 789.416 Q64.9272 795.877 59.771 799.951 Q54.6147 803.993 46.212 803.993 Q37.8093 803.993 32.6531 799.951 Q27.4968 795.877 27.4968 789.416 Q27.4968 785.469 29.0564 782.668 Q30.5842 779.836 33.7671 777.99 L28.3562 777.99 L28.3562 772.133 L77.5631 772.133 L77.5631 777.99 L58.657 777.99 Z" fill="#000000" fill-rule="evenodd" fill-opacity="1" /><path clip-path="url(#clip040)" d="M 0 0 M49.9359 760.675 L28.3562 760.675 L28.3562 754.818 L49.7131 754.818 Q54.7739 754.818 57.3202 752.845 Q59.8346 750.872 59.8346 746.925 Q59.8346 742.182 56.8109 739.445 Q53.7872 736.676 48.5673 736.676 L28.3562 736.676 L28.3562 730.82 L64.0042 730.82 L64.0042 736.676 L58.5296 736.676 Q61.7762 738.809 63.3676 741.641 Q64.9272 744.442 64.9272 748.166 Q64.9272 754.309 61.1078 757.492 Q57.2883 760.675 49.9359 760.675 M27.4968 745.938 L27.4968 745.938 Z" fill="#000000" fill-rule="evenodd" fill-opacity="1" /><path clip-path="url(#clip040)" d="M 0 0 M44.7161 688.265 L47.5806 688.265 L47.5806 715.192 Q53.6281 714.81 56.8109 711.563 Q59.9619 708.285 59.9619 702.46 Q59.9619 699.087 59.1344 695.936 Q58.3069 692.753 56.6518 689.634 L62.1899 689.634 Q63.5267 692.785 64.227 696.095 Q64.9272 699.405 64.9272 702.811 Q64.9272 711.341 59.9619 716.338 Q54.9967 721.303 46.5303 721.303 Q37.7774 721.303 32.6531 716.592 Q27.4968 711.85 27.4968 703.829 Q27.4968 696.636 32.1438 692.466 Q36.7589 688.265 44.7161 688.265 M42.9973 694.121 Q38.1912 694.185 35.3266 696.827 Q32.4621 699.437 32.4621 703.765 Q32.4621 708.667 35.2312 711.627 Q38.0002 714.555 43.0292 715.001 L42.9973 694.121 Z" fill="#000000" fill-rule="evenodd" fill-opacity="1" /><path clip-path="url(#clip040)" d="M 0 0 M42.4881 649.02 L64.0042 649.02 L64.0042 654.877 L42.679 654.877 Q37.6183 654.877 35.1038 656.85 Q32.5894 658.823 32.5894 662.77 Q32.5894 667.513 35.6131 670.25 Q38.6368 672.987 43.8567 672.987 L64.0042 672.987 L64.0042 678.875 L28.3562 678.875 L28.3562 672.987 L33.8944 672.987 Q30.6797 670.887 29.0883 668.054 Q27.4968 665.189 27.4968 661.465 Q27.4968 655.322 31.3163 652.171 Q35.1038 649.02 42.4881 649.02 Z" fill="#000000" fill-rule="evenodd" fill-opacity="1" /><path clip-path="url(#clip040)" d="M 0 0 M29.7248 611.685 L35.1993 611.685 Q33.8307 614.168 33.1623 616.683 Q32.4621 619.165 32.4621 621.711 Q32.4621 627.409 36.0905 630.56 Q39.6872 633.711 46.212 633.711 Q52.7369 633.711 56.3653 630.56 Q59.9619 627.409 59.9619 621.711 Q59.9619 619.165 59.2935 616.683 Q58.5933 614.168 57.2247 611.685 L62.6355 611.685 Q63.7814 614.136 64.3543 616.778 Q64.9272 619.388 64.9272 622.348 Q64.9272 630.401 59.8664 635.143 Q54.8057 639.886 46.212 639.886 Q37.491 639.886 32.4939 635.111 Q27.4968 630.305 27.4968 621.966 Q27.4968 619.261 28.0697 616.683 Q28.6108 614.104 29.7248 611.685 Z" fill="#000000" fill-rule="evenodd" fill-opacity="1" /><path clip-path="url(#clip040)" d="M 0 0 M67.3143 586.668 Q73.68 589.151 75.6216 591.506 Q77.5631 593.861 77.5631 597.808 L77.5631 602.487 L72.6615 602.487 L72.6615 599.05 Q72.6615 596.631 71.5157 595.294 Q70.3699 593.957 66.1048 592.334 L63.4312 591.283 L28.3562 605.702 L28.3562 599.495 L56.238 588.355 L28.3562 577.215 L28.3562 571.009 L67.3143 586.668 Z" fill="#000000" fill-rule="evenodd" fill-opacity="1" /><path clip-path="url(#clip042)" d="
M323.245 1332.32 L323.245 1384.24 L373.544 1384.24 L373.544 1332.32 L323.245 1332.32 L323.245 1332.32  Z
  " fill="#009af9" fill-rule="evenodd" fill-opacity="1"/>
<polyline clip-path="url(#clip042)" style="stroke:#000000; stroke-width:4; stroke-opacity:1; fill:none" points="
  323.245,1332.32 323.245,1384.24 373.544,1384.24 373.544,1332.32 323.245,1332.32 
  "/>
<path clip-path="url(#clip042)" d="
M373.544 1228.47 L373.544 1384.24 L423.844 1384.24 L423.844 1228.47 L373.544 1228.47 L373.544 1228.47  Z
  " fill="#009af9" fill-rule="evenodd" fill-opacity="1"/>
<polyline clip-path="url(#clip042)" style="stroke:#000000; stroke-width:4; stroke-opacity:1; fill:none" points="
  373.544,1228.47 373.544,1384.24 423.844,1384.24 423.844,1228.47 373.544,1228.47 
  "/>
<path clip-path="url(#clip042)" d="
M423.844 1176.55 L423.844 1384.24 L474.144 1384.24 L474.144 1176.55 L423.844 1176.55 L423.844 1176.55  Z
  " fill="#009af9" fill-rule="evenodd" fill-opacity="1"/>
<polyline clip-path="url(#clip042)" style="stroke:#000000; stroke-width:4; stroke-opacity:1; fill:none" points="
  423.844,1176.55 423.844,1384.24 474.144,1384.24 474.144,1176.55 423.844,1176.55 
  "/>
<path clip-path="url(#clip042)" d="
M474.144 934.247 L474.144 1384.24 L524.443 1384.24 L524.443 934.247 L474.144 934.247 L474.144 934.247  Z
  " fill="#009af9" fill-rule="evenodd" fill-opacity="1"/>
<polyline clip-path="url(#clip042)" style="stroke:#000000; stroke-width:4; stroke-opacity:1; fill:none" points="
  474.144,934.247 474.144,1384.24 524.443,1384.24 524.443,934.247 474.144,934.247 
  "/>
<path clip-path="url(#clip042)" d="
M524.443 743.866 L524.443 1384.24 L574.743 1384.24 L574.743 743.866 L524.443 743.866 L524.443 743.866  Z
  " fill="#009af9" fill-rule="evenodd" fill-opacity="1"/>
<polyline clip-path="url(#clip042)" style="stroke:#000000; stroke-width:4; stroke-opacity:1; fill:none" points="
  524.443,743.866 524.443,1384.24 574.743,1384.24 574.743,743.866 524.443,743.866 
  "/>
<path clip-path="url(#clip042)" d="
M574.743 449.64 L574.743 1384.24 L625.043 1384.24 L625.043 449.64 L574.743 449.64 L574.743 449.64  Z
  " fill="#009af9" fill-rule="evenodd" fill-opacity="1"/>
<polyline clip-path="url(#clip042)" style="stroke:#000000; stroke-width:4; stroke-opacity:1; fill:none" points="
  574.743,449.64 574.743,1384.24 625.043,1384.24 625.043,449.64 574.743,449.64 
  "/>
<path clip-path="url(#clip042)" d="
M625.043 207.337 L625.043 1384.24 L675.342 1384.24 L675.342 207.337 L625.043 207.337 L625.043 207.337  Z
  " fill="#009af9" fill-rule="evenodd" fill-opacity="1"/>
<polyline clip-path="url(#clip042)" style="stroke:#000000; stroke-width:4; stroke-opacity:1; fill:none" points="
  625.043,207.337 625.043,1384.24 675.342,1384.24 675.342,207.337 625.043,207.337 
  "/>
<path clip-path="url(#clip042)" d="
M675.342 86.1857 L675.342 1384.24 L725.642 1384.24 L725.642 86.1857 L675.342 86.1857 L675.342 86.1857  Z
  " fill="#009af9" fill-rule="evenodd" fill-opacity="1"/>
<polyline clip-path="url(#clip042)" style="stroke:#000000; stroke-width:4; stroke-opacity:1; fill:none" points="
  675.342,86.1857 675.342,1384.24 725.642,1384.24 725.642,86.1857 675.342,86.1857 
  "/>
<path clip-path="url(#clip042)" d="
M725.642 86.1857 L725.642 1384.24 L775.942 1384.24 L775.942 86.1857 L725.642 86.1857 L725.642 86.1857  Z
  " fill="#009af9" fill-rule="evenodd" fill-opacity="1"/>
<polyline clip-path="url(#clip042)" style="stroke:#000000; stroke-width:4; stroke-opacity:1; fill:none" points="
  725.642,86.1857 725.642,1384.24 775.942,1384.24 775.942,86.1857 725.642,86.1857 
  "/>
<path clip-path="url(#clip042)" d="
M775.942 432.333 L775.942 1384.24 L826.241 1384.24 L826.241 432.333 L775.942 432.333 L775.942 432.333  Z
  " fill="#009af9" fill-rule="evenodd" fill-opacity="1"/>
<polyline clip-path="url(#clip042)" style="stroke:#000000; stroke-width:4; stroke-opacity:1; fill:none" points="
  775.942,432.333 775.942,1384.24 826.241,1384.24 826.241,432.333 775.942,432.333 
  "/>
<path clip-path="url(#clip042)" d="
M826.241 622.714 L826.241 1384.24 L876.541 1384.24 L876.541 622.714 L826.241 622.714 L826.241 622.714  Z
  " fill="#009af9" fill-rule="evenodd" fill-opacity="1"/>
<polyline clip-path="url(#clip042)" style="stroke:#000000; stroke-width:4; stroke-opacity:1; fill:none" points="
  826.241,622.714 826.241,1384.24 876.541,1384.24 876.541,622.714 826.241,622.714 
  "/>
<path clip-path="url(#clip042)" d="
M876.541 865.017 L876.541 1384.24 L926.841 1384.24 L926.841 865.017 L876.541 865.017 L876.541 865.017  Z
  " fill="#009af9" fill-rule="evenodd" fill-opacity="1"/>
<polyline clip-path="url(#clip042)" style="stroke:#000000; stroke-width:4; stroke-opacity:1; fill:none" points="
  876.541,865.017 876.541,1384.24 926.841,1384.24 926.841,865.017 876.541,865.017 
  "/>
<path clip-path="url(#clip042)" d="
M926.841 1020.78 L926.841 1384.24 L977.14 1384.24 L977.14 1020.78 L926.841 1020.78 L926.841 1020.78  Z
  " fill="#009af9" fill-rule="evenodd" fill-opacity="1"/>
<polyline clip-path="url(#clip042)" style="stroke:#000000; stroke-width:4; stroke-opacity:1; fill:none" points="
  926.841,1020.78 926.841,1384.24 977.14,1384.24 977.14,1020.78 926.841,1020.78 
  "/>
<path clip-path="url(#clip042)" d="
M977.14 726.558 L977.14 1384.24 L1027.44 1384.24 L1027.44 726.558 L977.14 726.558 L977.14 726.558  Z
  " fill="#009af9" fill-rule="evenodd" fill-opacity="1"/>
<polyline clip-path="url(#clip042)" style="stroke:#000000; stroke-width:4; stroke-opacity:1; fill:none" points="
  977.14,726.558 977.14,1384.24 1027.44,1384.24 1027.44,726.558 977.14,726.558 
  "/>
<path clip-path="url(#clip042)" d="
M1027.44 865.017 L1027.44 1384.24 L1077.74 1384.24 L1077.74 865.017 L1027.44 865.017 L1027.44 865.017  Z
  " fill="#009af9" fill-rule="evenodd" fill-opacity="1"/>
<polyline clip-path="url(#clip042)" style="stroke:#000000; stroke-width:4; stroke-opacity:1; fill:none" points="
  1027.44,865.017 1027.44,1384.24 1077.74,1384.24 1077.74,865.017 1027.44,865.017 
  "/>
<path clip-path="url(#clip042)" d="
M1077.74 865.017 L1077.74 1384.24 L1128.04 1384.24 L1128.04 865.017 L1077.74 865.017 L1077.74 865.017  Z
  " fill="#009af9" fill-rule="evenodd" fill-opacity="1"/>
<polyline clip-path="url(#clip042)" style="stroke:#000000; stroke-width:4; stroke-opacity:1; fill:none" points="
  1077.74,865.017 1077.74,1384.24 1128.04,1384.24 1128.04,865.017 1077.74,865.017 
  "/>
<path clip-path="url(#clip042)" d="
M1128.04 1176.55 L1128.04 1384.24 L1178.34 1384.24 L1178.34 1176.55 L1128.04 1176.55 L1128.04 1176.55  Z
  " fill="#009af9" fill-rule="evenodd" fill-opacity="1"/>
<polyline clip-path="url(#clip042)" style="stroke:#000000; stroke-width:4; stroke-opacity:1; fill:none" points="
  1128.04,1176.55 1128.04,1384.24 1178.34,1384.24 1178.34,1176.55 1128.04,1176.55 
  "/>
<path clip-path="url(#clip042)" d="
M1178.34 1141.94 L1178.34 1384.24 L1228.64 1384.24 L1228.64 1141.94 L1178.34 1141.94 L1178.34 1141.94  Z
  " fill="#009af9" fill-rule="evenodd" fill-opacity="1"/>
<polyline clip-path="url(#clip042)" style="stroke:#000000; stroke-width:4; stroke-opacity:1; fill:none" points="
  1178.34,1141.94 1178.34,1384.24 1228.64,1384.24 1228.64,1141.94 1178.34,1141.94 
  "/>
<path clip-path="url(#clip042)" d="
M1228.64 1090.01 L1228.64 1384.24 L1278.94 1384.24 L1278.94 1090.01 L1228.64 1090.01 L1228.64 1090.01  Z
  " fill="#009af9" fill-rule="evenodd" fill-opacity="1"/>
<polyline clip-path="url(#clip042)" style="stroke:#000000; stroke-width:4; stroke-opacity:1; fill:none" points="
  1228.64,1090.01 1228.64,1384.24 1278.94,1384.24 1278.94,1090.01 1228.64,1090.01 
  "/>
<path clip-path="url(#clip042)" d="
M1278.94 1211.16 L1278.94 1384.24 L1329.24 1384.24 L1329.24 1211.16 L1278.94 1211.16 L1278.94 1211.16  Z
  " fill="#009af9" fill-rule="evenodd" fill-opacity="1"/>
<polyline clip-path="url(#clip042)" style="stroke:#000000; stroke-width:4; stroke-opacity:1; fill:none" points="
  1278.94,1211.16 1278.94,1384.24 1329.24,1384.24 1329.24,1211.16 1278.94,1211.16 
  "/>
<path clip-path="url(#clip042)" d="
M1329.24 1297.7 L1329.24 1384.24 L1379.54 1384.24 L1379.54 1297.7 L1329.24 1297.7 L1329.24 1297.7  Z
  " fill="#009af9" fill-rule="evenodd" fill-opacity="1"/>
<polyline clip-path="url(#clip042)" style="stroke:#000000; stroke-width:4; stroke-opacity:1; fill:none" points="
  1329.24,1297.7 1329.24,1384.24 1379.54,1384.24 1379.54,1297.7 1329.24,1297.7 
  "/>
<path clip-path="url(#clip042)" d="
M1379.54 1315.01 L1379.54 1384.24 L1429.84 1384.24 L1429.84 1315.01 L1379.54 1315.01 L1379.54 1315.01  Z
  " fill="#009af9" fill-rule="evenodd" fill-opacity="1"/>
<polyline clip-path="url(#clip042)" style="stroke:#000000; stroke-width:4; stroke-opacity:1; fill:none" points="
  1379.54,1315.01 1379.54,1384.24 1429.84,1384.24 1429.84,1315.01 1379.54,1315.01 
  "/>
<path clip-path="url(#clip042)" d="
M1429.84 1263.09 L1429.84 1384.24 L1480.14 1384.24 L1480.14 1263.09 L1429.84 1263.09 L1429.84 1263.09  Z
  " fill="#009af9" fill-rule="evenodd" fill-opacity="1"/>
<polyline clip-path="url(#clip042)" style="stroke:#000000; stroke-width:4; stroke-opacity:1; fill:none" points="
  1429.84,1263.09 1429.84,1384.24 1480.14,1384.24 1480.14,1263.09 1429.84,1263.09 
  "/>
<path clip-path="url(#clip042)" d="
M1480.14 1315.01 L1480.14 1384.24 L1530.44 1384.24 L1530.44 1315.01 L1480.14 1315.01 L1480.14 1315.01  Z
  " fill="#009af9" fill-rule="evenodd" fill-opacity="1"/>
<polyline clip-path="url(#clip042)" style="stroke:#000000; stroke-width:4; stroke-opacity:1; fill:none" points="
  1480.14,1315.01 1480.14,1384.24 1530.44,1384.24 1530.44,1315.01 1480.14,1315.01 
  "/>
<path clip-path="url(#clip042)" d="
M1530.44 1211.16 L1530.44 1384.24 L1580.74 1384.24 L1580.74 1211.16 L1530.44 1211.16 L1530.44 1211.16  Z
  " fill="#009af9" fill-rule="evenodd" fill-opacity="1"/>
<polyline clip-path="url(#clip042)" style="stroke:#000000; stroke-width:4; stroke-opacity:1; fill:none" points="
  1530.44,1211.16 1530.44,1384.24 1580.74,1384.24 1580.74,1211.16 1530.44,1211.16 
  "/>
<path clip-path="url(#clip042)" d="
M1580.74 1141.94 L1580.74 1384.24 L1631.04 1384.24 L1631.04 1141.94 L1580.74 1141.94 L1580.74 1141.94  Z
  " fill="#009af9" fill-rule="evenodd" fill-opacity="1"/>
<polyline clip-path="url(#clip042)" style="stroke:#000000; stroke-width:4; stroke-opacity:1; fill:none" points="
  1580.74,1141.94 1580.74,1384.24 1631.04,1384.24 1631.04,1141.94 1580.74,1141.94 
  "/>
<path clip-path="url(#clip042)" d="
M1631.04 986.169 L1631.04 1384.24 L1681.34 1384.24 L1681.34 986.169 L1631.04 986.169 L1631.04 986.169  Z
  " fill="#009af9" fill-rule="evenodd" fill-opacity="1"/>
<polyline clip-path="url(#clip042)" style="stroke:#000000; stroke-width:4; stroke-opacity:1; fill:none" points="
  1631.04,986.169 1631.04,1384.24 1681.34,1384.24 1681.34,986.169 1631.04,986.169 
  "/>
<path clip-path="url(#clip042)" d="
M1681.34 622.714 L1681.34 1384.24 L1731.64 1384.24 L1731.64 622.714 L1681.34 622.714 L1681.34 622.714  Z
  " fill="#009af9" fill-rule="evenodd" fill-opacity="1"/>
<polyline clip-path="url(#clip042)" style="stroke:#000000; stroke-width:4; stroke-opacity:1; fill:none" points="
  1681.34,622.714 1681.34,1384.24 1731.64,1384.24 1731.64,622.714 1681.34,622.714 
  "/>
<path clip-path="url(#clip042)" d="
M1731.64 501.563 L1731.64 1384.24 L1781.94 1384.24 L1781.94 501.563 L1731.64 501.563 L1731.64 501.563  Z
  " fill="#009af9" fill-rule="evenodd" fill-opacity="1"/>
<polyline clip-path="url(#clip042)" style="stroke:#000000; stroke-width:4; stroke-opacity:1; fill:none" points="
  1731.64,501.563 1731.64,1384.24 1781.94,1384.24 1781.94,501.563 1731.64,501.563 
  "/>
<path clip-path="url(#clip042)" d="
M1781.94 380.411 L1781.94 1384.24 L1832.23 1384.24 L1832.23 380.411 L1781.94 380.411 L1781.94 380.411  Z
  " fill="#009af9" fill-rule="evenodd" fill-opacity="1"/>
<polyline clip-path="url(#clip042)" style="stroke:#000000; stroke-width:4; stroke-opacity:1; fill:none" points="
  1781.94,380.411 1781.94,1384.24 1832.23,1384.24 1832.23,380.411 1781.94,380.411 
  "/>
<path clip-path="url(#clip042)" d="
M1832.23 380.411 L1832.23 1384.24 L1882.53 1384.24 L1882.53 380.411 L1832.23 380.411 L1832.23 380.411  Z
  " fill="#009af9" fill-rule="evenodd" fill-opacity="1"/>
<polyline clip-path="url(#clip042)" style="stroke:#000000; stroke-width:4; stroke-opacity:1; fill:none" points="
  1832.23,380.411 1832.23,1384.24 1882.53,1384.24 1882.53,380.411 1832.23,380.411 
  "/>
<path clip-path="url(#clip042)" d="
M1882.53 916.939 L1882.53 1384.24 L1932.83 1384.24 L1932.83 916.939 L1882.53 916.939 L1882.53 916.939  Z
  " fill="#009af9" fill-rule="evenodd" fill-opacity="1"/>
<polyline clip-path="url(#clip042)" style="stroke:#000000; stroke-width:4; stroke-opacity:1; fill:none" points="
  1882.53,916.939 1882.53,1384.24 1932.83,1384.24 1932.83,916.939 1882.53,916.939 
  "/>
<path clip-path="url(#clip042)" d="
M1932.83 1107.32 L1932.83 1384.24 L1983.13 1384.24 L1983.13 1107.32 L1932.83 1107.32 L1932.83 1107.32  Z
  " fill="#009af9" fill-rule="evenodd" fill-opacity="1"/>
<polyline clip-path="url(#clip042)" style="stroke:#000000; stroke-width:4; stroke-opacity:1; fill:none" points="
  1932.83,1107.32 1932.83,1384.24 1983.13,1384.24 1983.13,1107.32 1932.83,1107.32 
  "/>
<path clip-path="url(#clip042)" d="
M1983.13 1228.47 L1983.13 1384.24 L2033.43 1384.24 L2033.43 1228.47 L1983.13 1228.47 L1983.13 1228.47  Z
  " fill="#009af9" fill-rule="evenodd" fill-opacity="1"/>
<polyline clip-path="url(#clip042)" style="stroke:#000000; stroke-width:4; stroke-opacity:1; fill:none" points="
  1983.13,1228.47 1983.13,1384.24 2033.43,1384.24 2033.43,1228.47 1983.13,1228.47 
  "/>
<path clip-path="url(#clip042)" d="
M2033.43 1280.39 L2033.43 1384.24 L2083.73 1384.24 L2083.73 1280.39 L2033.43 1280.39 L2033.43 1280.39  Z
  " fill="#009af9" fill-rule="evenodd" fill-opacity="1"/>
<polyline clip-path="url(#clip042)" style="stroke:#000000; stroke-width:4; stroke-opacity:1; fill:none" points="
  2033.43,1280.39 2033.43,1384.24 2083.73,1384.24 2083.73,1280.39 2033.43,1280.39 
  "/>
<path clip-path="url(#clip042)" d="
M2083.73 1332.32 L2083.73 1384.24 L2134.03 1384.24 L2134.03 1332.32 L2083.73 1332.32 L2083.73 1332.32  Z
  " fill="#009af9" fill-rule="evenodd" fill-opacity="1"/>
<polyline clip-path="url(#clip042)" style="stroke:#000000; stroke-width:4; stroke-opacity:1; fill:none" points="
  2083.73,1332.32 2083.73,1384.24 2134.03,1384.24 2134.03,1332.32 2083.73,1332.32 
  "/>
<path clip-path="url(#clip042)" d="
M2134.03 1384.24 L2134.03 1384.24 L2184.33 1384.24 L2184.33 1384.24 L2134.03 1384.24 L2134.03 1384.24  Z
  " fill="#009af9" fill-rule="evenodd" fill-opacity="1"/>
<polyline clip-path="url(#clip042)" style="stroke:#000000; stroke-width:4; stroke-opacity:1; fill:none" points="
  2134.03,1384.24 2134.03,1384.24 2184.33,1384.24 2134.03,1384.24 
  "/>
<path clip-path="url(#clip042)" d="
M2184.33 1366.93 L2184.33 1384.24 L2234.63 1384.24 L2234.63 1366.93 L2184.33 1366.93 L2184.33 1366.93  Z
  " fill="#009af9" fill-rule="evenodd" fill-opacity="1"/>
<polyline clip-path="url(#clip042)" style="stroke:#000000; stroke-width:4; stroke-opacity:1; fill:none" points="
  2184.33,1366.93 2184.33,1384.24 2234.63,1384.24 2234.63,1366.93 2184.33,1366.93 
  "/>
<path clip-path="url(#clip040)" d="
M1990.11 214.069 L2281.17 214.069 L2281.17 93.1086 L1990.11 93.1086  Z
  " fill="#ffffff" fill-rule="evenodd" fill-opacity="1"/>
<polyline clip-path="url(#clip040)" style="stroke:#000000; stroke-width:4; stroke-opacity:1; fill:none" points="
  1990.11,214.069 2281.17,214.069 2281.17,93.1086 1990.11,93.1086 1990.11,214.069 
  "/>
<path clip-path="url(#clip040)" d="
M2013.97 177.781 L2157.15 177.781 L2157.15 129.397 L2013.97 129.397 L2013.97 177.781  Z
  " fill="#009af9" fill-rule="evenodd" fill-opacity="1"/>
<polyline clip-path="url(#clip040)" style="stroke:#000000; stroke-width:4; stroke-opacity:1; fill:none" points="
  2013.97,177.781 2157.15,177.781 2157.15,129.397 2013.97,129.397 2013.97,177.781 
  "/>
<path clip-path="url(#clip040)" d="M 0 0 M2194.86 173.276 Q2193.05 177.906 2191.34 179.318 Q2189.62 180.73 2186.75 180.73 L2183.35 180.73 L2183.35 177.165 L2185.85 177.165 Q2187.61 177.165 2188.58 176.332 Q2189.55 175.498 2190.73 172.396 L2191.5 170.452 L2181.01 144.943 L2185.53 144.943 L2193.63 165.221 L2201.73 144.943 L2206.24 144.943 L2194.86 173.276 Z" fill="#000000" fill-rule="evenodd" fill-opacity="1" /><path clip-path="url(#clip040)" d="M 0 0 M2213.54 166.933 L2221.17 166.933 L2221.17 140.568 L2212.86 142.235 L2212.86 137.975 L2221.13 136.309 L2225.8 136.309 L2225.8 166.933 L2233.44 166.933 L2233.44 170.869 L2213.54 170.869 L2213.54 166.933 Z" fill="#000000" fill-rule="evenodd" fill-opacity="1" /></svg>
