<?xml version="1.0" encoding="utf-8"?>
<svg xmlns="http://www.w3.org/2000/svg" xmlns:xlink="http://www.w3.org/1999/xlink" width="600" height="400" viewBox="0 0 2400 1600">
<defs>
  <clipPath id="clip820">
    <rect x="0" y="0" width="2400" height="1600"/>
  </clipPath>
</defs>
<path clip-path="url(#clip820)" d="
M0 1600 L2400 1600 L2400 0 L0 0  Z
  " fill="#ffffff" fill-rule="evenodd" fill-opacity="1"/>
<defs>
  <clipPath id="clip821">
    <rect x="480" y="0" width="1681" height="1600"/>
  </clipPath>
</defs>
<path clip-path="url(#clip820)" d="
M205.121 1423.18 L2352.76 1423.18 L2352.76 47.2441 L205.121 47.2441  Z
  " fill="#ffffff" fill-rule="evenodd" fill-opacity="1"/>
<defs>
  <clipPath id="clip822">
    <rect x="205" y="47" width="2149" height="1377"/>
  </clipPath>
</defs>
<polyline clip-path="url(#clip822)" style="stroke:#000000; stroke-width:2; stroke-opacity:0.1; fill:none" points="
  581.54,1423.18 581.54,47.2441 
  "/>
<polyline clip-path="url(#clip822)" style="stroke:#000000; stroke-width:2; stroke-opacity:0.1; fill:none" points="
  1098.13,1423.18 1098.13,47.2441 
  "/>
<polyline clip-path="url(#clip822)" style="stroke:#000000; stroke-width:2; stroke-opacity:0.1; fill:none" points="
  1614.72,1423.18 1614.72,47.2441 
  "/>
<polyline clip-path="url(#clip822)" style="stroke:#000000; stroke-width:2; stroke-opacity:0.1; fill:none" points="
  2131.31,1423.18 2131.31,47.2441 
  "/>
<polyline clip-path="url(#clip820)" style="stroke:#000000; stroke-width:4; stroke-opacity:1; fill:none" points="
  205.121,1423.18 2352.76,1423.18 
  "/>
<polyline clip-path="url(#clip820)" style="stroke:#000000; stroke-width:4; stroke-opacity:1; fill:none" points="
  581.54,1423.18 581.54,1406.67 
  "/>
<polyline clip-path="url(#clip820)" style="stroke:#000000; stroke-width:4; stroke-opacity:1; fill:none" points="
  1098.13,1423.18 1098.13,1406.67 
  "/>
<polyline clip-path="url(#clip820)" style="stroke:#000000; stroke-width:4; stroke-opacity:1; fill:none" points="
  1614.72,1423.18 1614.72,1406.67 
  "/>
<polyline clip-path="url(#clip820)" style="stroke:#000000; stroke-width:4; stroke-opacity:1; fill:none" points="
  2131.31,1423.18 2131.31,1406.67 
  "/>
<path clip-path="url(#clip820)" d="M 0 0 M551.182 1467.02 L580.857 1467.02 L580.857 1470.96 L551.182 1470.96 L551.182 1467.02 Z" fill="#000000" fill-rule="evenodd" fill-opacity="1" /><path clip-path="url(#clip820)" d="M 0 0 M590.996 1449.29 L609.353 1449.29 L609.353 1453.23 L595.279 1453.23 L595.279 1461.7 Q596.297 1461.35 597.316 1461.19 Q598.334 1461 599.353 1461 Q605.14 1461 608.519 1464.18 Q611.899 1467.35 611.899 1472.76 Q611.899 1478.34 608.427 1481.44 Q604.955 1484.52 598.635 1484.52 Q596.459 1484.52 594.191 1484.15 Q591.945 1483.78 589.538 1483.04 L589.538 1478.34 Q591.621 1479.48 593.843 1480.03 Q596.066 1480.59 598.543 1480.59 Q602.547 1480.59 604.885 1478.48 Q607.223 1476.38 607.223 1472.76 Q607.223 1469.15 604.885 1467.05 Q602.547 1464.94 598.543 1464.94 Q596.668 1464.94 594.793 1465.36 Q592.941 1465.77 590.996 1466.65 L590.996 1449.29 Z" fill="#000000" fill-rule="evenodd" fill-opacity="1" /><path clip-path="url(#clip820)" d="M 0 0 M1098.13 1452.37 Q1094.52 1452.37 1092.69 1455.94 Q1090.89 1459.48 1090.89 1466.61 Q1090.89 1473.71 1092.69 1477.28 Q1094.52 1480.82 1098.13 1480.82 Q1101.77 1480.82 1103.57 1477.28 Q1105.4 1473.71 1105.4 1466.61 Q1105.4 1459.48 1103.57 1455.94 Q1101.77 1452.37 1098.13 1452.37 M1098.13 1448.67 Q1103.94 1448.67 1107 1453.27 Q1110.08 1457.86 1110.08 1466.61 Q1110.08 1475.33 1107 1479.94 Q1103.94 1484.52 1098.13 1484.52 Q1092.32 1484.52 1089.24 1479.94 Q1086.19 1475.33 1086.19 1466.61 Q1086.19 1457.86 1089.24 1453.27 Q1092.32 1448.67 1098.13 1448.67 Z" fill="#000000" fill-rule="evenodd" fill-opacity="1" /><path clip-path="url(#clip820)" d="M 0 0 M1605 1449.29 L1623.36 1449.29 L1623.36 1453.23 L1609.28 1453.23 L1609.28 1461.7 Q1610.3 1461.35 1611.32 1461.19 Q1612.34 1461 1613.36 1461 Q1619.14 1461 1622.52 1464.18 Q1625.9 1467.35 1625.9 1472.76 Q1625.9 1478.34 1622.43 1481.44 Q1618.96 1484.52 1612.64 1484.52 Q1610.46 1484.52 1608.19 1484.15 Q1605.95 1483.78 1603.54 1483.04 L1603.54 1478.34 Q1605.63 1479.48 1607.85 1480.03 Q1610.07 1480.59 1612.55 1480.59 Q1616.55 1480.59 1618.89 1478.48 Q1621.23 1476.38 1621.23 1472.76 Q1621.23 1469.15 1618.89 1467.05 Q1616.55 1464.94 1612.55 1464.94 Q1610.67 1464.94 1608.8 1465.36 Q1606.94 1465.77 1605 1466.65 L1605 1449.29 Z" fill="#000000" fill-rule="evenodd" fill-opacity="1" /><path clip-path="url(#clip820)" d="M 0 0 M2106 1479.92 L2113.64 1479.92 L2113.64 1453.55 L2105.33 1455.22 L2105.33 1450.96 L2113.59 1449.29 L2118.27 1449.29 L2118.27 1479.92 L2125.91 1479.92 L2125.91 1483.85 L2106 1483.85 L2106 1479.92 Z" fill="#000000" fill-rule="evenodd" fill-opacity="1" /><path clip-path="url(#clip820)" d="M 0 0 M2145.35 1452.37 Q2141.74 1452.37 2139.91 1455.94 Q2138.11 1459.48 2138.11 1466.61 Q2138.11 1473.71 2139.91 1477.28 Q2141.74 1480.82 2145.35 1480.82 Q2148.99 1480.82 2150.79 1477.28 Q2152.62 1473.71 2152.62 1466.61 Q2152.62 1459.48 2150.79 1455.94 Q2148.99 1452.37 2145.35 1452.37 M2145.35 1448.67 Q2151.16 1448.67 2154.22 1453.27 Q2157.3 1457.86 2157.3 1466.61 Q2157.3 1475.33 2154.22 1479.94 Q2151.16 1484.52 2145.35 1484.52 Q2139.54 1484.52 2136.46 1479.94 Q2133.41 1475.33 2133.41 1466.61 Q2133.41 1457.86 2136.46 1453.27 Q2139.54 1448.67 2145.35 1448.67 Z" fill="#000000" fill-rule="evenodd" fill-opacity="1" /><path clip-path="url(#clip820)" d="M 0 0 M1209.57 1568.04 L1191.43 1520.52 L1198.14 1520.52 L1213.2 1560.53 L1228.28 1520.52 L1234.97 1520.52 L1216.86 1568.04 L1209.57 1568.04 Z" fill="#000000" fill-rule="evenodd" fill-opacity="1" /><path clip-path="url(#clip820)" d="M 0 0 M1252.79 1550.12 Q1245.69 1550.12 1242.96 1551.75 Q1240.22 1553.37 1240.22 1557.29 Q1240.22 1560.4 1242.26 1562.25 Q1244.32 1564.07 1247.86 1564.07 Q1252.73 1564.07 1255.66 1560.63 Q1258.62 1557.16 1258.62 1551.43 L1258.62 1550.12 L1252.79 1550.12 M1264.47 1547.71 L1264.47 1568.04 L1258.62 1568.04 L1258.62 1562.63 Q1256.61 1565.88 1253.62 1567.44 Q1250.63 1568.97 1246.3 1568.97 Q1240.82 1568.97 1237.58 1565.91 Q1234.36 1562.82 1234.36 1557.67 Q1234.36 1551.65 1238.37 1548.6 Q1242.42 1545.54 1250.4 1545.54 L1258.62 1545.54 L1258.62 1544.97 Q1258.62 1540.93 1255.94 1538.73 Q1253.3 1536.5 1248.49 1536.5 Q1245.44 1536.5 1242.54 1537.23 Q1239.65 1537.97 1236.97 1539.43 L1236.97 1534.02 Q1240.19 1532.78 1243.21 1532.17 Q1246.23 1531.54 1249.1 1531.54 Q1256.83 1531.54 1260.65 1535.55 Q1264.47 1539.56 1264.47 1547.71 Z" fill="#000000" fill-rule="evenodd" fill-opacity="1" /><path clip-path="url(#clip820)" d="M 0 0 M1276.54 1518.52 L1282.39 1518.52 L1282.39 1568.04 L1276.54 1568.04 L1276.54 1518.52 Z" fill="#000000" fill-rule="evenodd" fill-opacity="1" /><path clip-path="url(#clip820)" d="M 0 0 M1294.04 1553.98 L1294.04 1532.4 L1299.9 1532.4 L1299.9 1553.75 Q1299.9 1558.81 1301.87 1561.36 Q1303.84 1563.87 1307.79 1563.87 Q1312.53 1563.87 1315.27 1560.85 Q1318.04 1557.83 1318.04 1552.61 L1318.04 1532.4 L1323.9 1532.4 L1323.9 1568.04 L1318.04 1568.04 L1318.04 1562.57 Q1315.91 1565.82 1313.07 1567.41 Q1310.27 1568.97 1306.55 1568.97 Q1300.41 1568.97 1297.22 1565.15 Q1294.04 1561.33 1294.04 1553.98 M1308.78 1531.54 L1308.78 1531.54 Z" fill="#000000" fill-rule="evenodd" fill-opacity="1" /><path clip-path="url(#clip820)" d="M 0 0 M1366.45 1548.76 L1366.45 1551.62 L1339.52 1551.62 Q1339.91 1557.67 1343.15 1560.85 Q1346.43 1564 1352.26 1564 Q1355.63 1564 1358.78 1563.17 Q1361.96 1562.35 1365.08 1560.69 L1365.08 1566.23 Q1361.93 1567.57 1358.62 1568.27 Q1355.31 1568.97 1351.91 1568.97 Q1343.38 1568.97 1338.38 1564 Q1333.41 1559.04 1333.41 1550.57 Q1333.41 1541.82 1338.12 1536.69 Q1342.87 1531.54 1350.89 1531.54 Q1358.08 1531.54 1362.25 1536.18 Q1366.45 1540.8 1366.45 1548.76 M1360.59 1547.04 Q1360.53 1542.23 1357.89 1539.37 Q1355.28 1536.5 1350.95 1536.5 Q1346.05 1536.5 1343.09 1539.27 Q1340.16 1542.04 1339.72 1547.07 L1360.59 1547.04 Z" fill="#000000" fill-rule="evenodd" fill-opacity="1" /><polyline clip-path="url(#clip822)" style="stroke:#000000; stroke-width:2; stroke-opacity:0.1; fill:none" points="
  205.121,1384.24 2352.76,1384.24 
  "/>
<polyline clip-path="url(#clip822)" style="stroke:#000000; stroke-width:2; stroke-opacity:0.1; fill:none" points="
  205.121,1033.41 2352.76,1033.41 
  "/>
<polyline clip-path="url(#clip822)" style="stroke:#000000; stroke-width:2; stroke-opacity:0.1; fill:none" points="
  205.121,682.588 2352.76,682.588 
  "/>
<polyline clip-path="url(#clip822)" style="stroke:#000000; stroke-width:2; stroke-opacity:0.1; fill:none" points="
  205.121,331.763 2352.76,331.763 
  "/>
<polyline clip-path="url(#clip820)" style="stroke:#000000; stroke-width:4; stroke-opacity:1; fill:none" points="
  205.121,1423.18 205.121,47.2441 
  "/>
<polyline clip-path="url(#clip820)" style="stroke:#000000; stroke-width:4; stroke-opacity:1; fill:none" points="
  205.121,1384.24 230.893,1384.24 
  "/>
<polyline clip-path="url(#clip820)" style="stroke:#000000; stroke-width:4; stroke-opacity:1; fill:none" points="
  205.121,1033.41 230.893,1033.41 
  "/>
<polyline clip-path="url(#clip820)" style="stroke:#000000; stroke-width:4; stroke-opacity:1; fill:none" points="
  205.121,682.588 230.893,682.588 
  "/>
<polyline clip-path="url(#clip820)" style="stroke:#000000; stroke-width:4; stroke-opacity:1; fill:none" points="
  205.121,331.763 230.893,331.763 
  "/>
<path clip-path="url(#clip820)" d="M 0 0 M157.177 1370.04 Q153.566 1370.04 151.737 1373.6 Q149.931 1377.14 149.931 1384.27 Q149.931 1391.38 151.737 1394.94 Q153.566 1398.49 157.177 1398.49 Q160.811 1398.49 162.616 1394.94 Q164.445 1391.38 164.445 1384.27 Q164.445 1377.14 162.616 1373.6 Q160.811 1370.04 157.177 1370.04 M157.177 1366.33 Q162.987 1366.33 166.042 1370.94 Q169.121 1375.52 169.121 1384.27 Q169.121 1393 166.042 1397.61 Q162.987 1402.19 157.177 1402.19 Q151.366 1402.19 148.288 1397.61 Q145.232 1393 145.232 1384.27 Q145.232 1375.52 148.288 1370.94 Q151.366 1366.33 157.177 1366.33 Z" fill="#000000" fill-rule="evenodd" fill-opacity="1" /><path clip-path="url(#clip820)" d="M 0 0 M121.043 1046.76 L137.362 1046.76 L137.362 1050.69 L115.418 1050.69 L115.418 1046.76 Q118.08 1044 122.663 1039.37 Q127.269 1034.72 128.45 1033.38 Q130.695 1030.86 131.575 1029.12 Q132.478 1027.36 132.478 1025.67 Q132.478 1022.92 130.533 1021.18 Q128.612 1019.44 125.51 1019.44 Q123.311 1019.44 120.857 1020.21 Q118.427 1020.97 115.649 1022.52 L115.649 1017.8 Q118.473 1016.67 120.927 1016.09 Q123.38 1015.51 125.418 1015.51 Q130.788 1015.51 133.982 1018.19 Q137.177 1020.88 137.177 1025.37 Q137.177 1027.5 136.367 1029.42 Q135.579 1031.32 133.473 1033.91 Q132.894 1034.58 129.792 1037.8 Q126.691 1040.99 121.043 1046.76 Z" fill="#000000" fill-rule="evenodd" fill-opacity="1" /><path clip-path="url(#clip820)" d="M 0 0 M157.177 1019.21 Q153.566 1019.21 151.737 1022.78 Q149.931 1026.32 149.931 1033.45 Q149.931 1040.55 151.737 1044.12 Q153.566 1047.66 157.177 1047.66 Q160.811 1047.66 162.616 1044.12 Q164.445 1040.55 164.445 1033.45 Q164.445 1026.32 162.616 1022.78 Q160.811 1019.21 157.177 1019.21 M157.177 1015.51 Q162.987 1015.51 166.042 1020.11 Q169.121 1024.7 169.121 1033.45 Q169.121 1042.17 166.042 1046.78 Q162.987 1051.36 157.177 1051.36 Q151.366 1051.36 148.288 1046.78 Q145.232 1042.17 145.232 1033.45 Q145.232 1024.7 148.288 1020.11 Q151.366 1015.51 157.177 1015.51 Z" fill="#000000" fill-rule="evenodd" fill-opacity="1" /><path clip-path="url(#clip820)" d="M 0 0 M129.862 669.382 L118.056 687.831 L129.862 687.831 L129.862 669.382 M128.635 665.308 L134.515 665.308 L134.515 687.831 L139.445 687.831 L139.445 691.72 L134.515 691.72 L134.515 699.868 L129.862 699.868 L129.862 691.72 L114.26 691.72 L114.26 687.206 L128.635 665.308 Z" fill="#000000" fill-rule="evenodd" fill-opacity="1" /><path clip-path="url(#clip820)" d="M 0 0 M157.177 668.387 Q153.566 668.387 151.737 671.952 Q149.931 675.493 149.931 682.623 Q149.931 689.729 151.737 693.294 Q153.566 696.836 157.177 696.836 Q160.811 696.836 162.616 693.294 Q164.445 689.729 164.445 682.623 Q164.445 675.493 162.616 671.952 Q160.811 668.387 157.177 668.387 M157.177 664.683 Q162.987 664.683 166.042 669.29 Q169.121 673.873 169.121 682.623 Q169.121 691.35 166.042 695.956 Q162.987 700.54 157.177 700.54 Q151.366 700.54 148.288 695.956 Q145.232 691.35 145.232 682.623 Q145.232 673.873 148.288 669.29 Q151.366 664.683 157.177 664.683 Z" fill="#000000" fill-rule="evenodd" fill-opacity="1" /><path clip-path="url(#clip820)" d="M 0 0 M127.593 329.9 Q124.445 329.9 122.593 332.053 Q120.765 334.205 120.765 337.955 Q120.765 341.682 122.593 343.858 Q124.445 346.011 127.593 346.011 Q130.742 346.011 132.57 343.858 Q134.422 341.682 134.422 337.955 Q134.422 334.205 132.57 332.053 Q130.742 329.9 127.593 329.9 M136.876 315.247 L136.876 319.506 Q135.117 318.673 133.311 318.233 Q131.529 317.793 129.769 317.793 Q125.14 317.793 122.686 320.918 Q120.255 324.043 119.908 330.363 Q121.274 328.349 123.334 327.284 Q125.394 326.196 127.871 326.196 Q133.08 326.196 136.089 329.367 Q139.121 332.516 139.121 337.955 Q139.121 343.279 135.973 346.497 Q132.825 349.714 127.593 349.714 Q121.598 349.714 118.427 345.131 Q115.256 340.525 115.256 331.798 Q115.256 323.604 119.144 318.742 Q123.033 313.858 129.584 313.858 Q131.343 313.858 133.126 314.205 Q134.931 314.553 136.876 315.247 Z" fill="#000000" fill-rule="evenodd" fill-opacity="1" /><path clip-path="url(#clip820)" d="M 0 0 M157.177 317.562 Q153.566 317.562 151.737 321.127 Q149.931 324.668 149.931 331.798 Q149.931 338.904 151.737 342.469 Q153.566 346.011 157.177 346.011 Q160.811 346.011 162.616 342.469 Q164.445 338.904 164.445 331.798 Q164.445 324.668 162.616 321.127 Q160.811 317.562 157.177 317.562 M157.177 313.858 Q162.987 313.858 166.042 318.465 Q169.121 323.048 169.121 331.798 Q169.121 340.525 166.042 345.131 Q162.987 349.714 157.177 349.714 Q151.366 349.714 148.288 345.131 Q145.232 340.525 145.232 331.798 Q145.232 323.048 148.288 318.465 Q151.366 313.858 157.177 313.858 Z" fill="#000000" fill-rule="evenodd" fill-opacity="1" /><path clip-path="url(#clip820)" d="M 0 0 M16.4842 899.415 L16.4842 872.106 L21.895 872.106 L21.895 892.986 L35.8996 892.986 L35.8996 874.144 L41.3104 874.144 L41.3104 892.986 L64.0042 892.986 L64.0042 899.415 L16.4842 899.415 Z" fill="#000000" fill-rule="evenodd" fill-opacity="1" /><path clip-path="url(#clip820)" d="M 0 0 M33.8307 846.262 Q33.2578 847.248 33.0032 848.426 Q32.7167 849.572 32.7167 850.972 Q32.7167 855.938 35.9632 858.611 Q39.1779 861.253 45.2253 861.253 L64.0042 861.253 L64.0042 867.141 L28.3562 867.141 L28.3562 861.253 L33.8944 861.253 Q30.6479 859.407 29.0883 856.447 Q27.4968 853.487 27.4968 849.254 Q27.4968 848.649 27.5923 847.917 Q27.656 847.185 27.8151 846.294 L33.8307 846.262 Z" fill="#000000" fill-rule="evenodd" fill-opacity="1" /><path clip-path="url(#clip820)" d="M 0 0 M44.7161 811.059 L47.5806 811.059 L47.5806 837.986 Q53.6281 837.604 56.8109 834.358 Q59.9619 831.08 59.9619 825.255 Q59.9619 821.881 59.1344 818.73 Q58.3069 815.547 56.6518 812.428 L62.1899 812.428 Q63.5267 815.579 64.227 818.889 Q64.9272 822.199 64.9272 825.605 Q64.9272 834.135 59.9619 839.132 Q54.9967 844.097 46.5303 844.097 Q37.7774 844.097 32.6531 839.387 Q27.4968 834.644 27.4968 826.624 Q27.4968 819.43 32.1438 815.261 Q36.7589 811.059 44.7161 811.059 M42.9973 816.916 Q38.1912 816.979 35.3266 819.621 Q32.4621 822.231 32.4621 826.56 Q32.4621 831.461 35.2312 834.422 Q38.0002 837.35 43.0292 837.795 L42.9973 816.916 Z" fill="#000000" fill-rule="evenodd" fill-opacity="1" /><path clip-path="url(#clip820)" d="M 0 0 M46.212 797.946 Q52.6732 797.946 56.3653 795.304 Q60.0256 792.631 60.0256 787.984 Q60.0256 783.337 56.3653 780.663 Q52.6732 777.99 46.212 777.99 Q39.7508 777.99 36.0905 780.663 Q32.3984 783.337 32.3984 787.984 Q32.3984 792.631 36.0905 795.304 Q39.7508 797.946 46.212 797.946 M58.657 777.99 Q61.8398 779.836 63.3994 782.668 Q64.9272 785.469 64.9272 789.416 Q64.9272 795.877 59.771 799.951 Q54.6147 803.993 46.212 803.993 Q37.8093 803.993 32.6531 799.951 Q27.4968 795.877 27.4968 789.416 Q27.4968 785.469 29.0564 782.668 Q30.5842 779.836 33.7671 777.99 L28.3562 777.99 L28.3562 772.133 L77.5631 772.133 L77.5631 777.99 L58.657 777.99 Z" fill="#000000" fill-rule="evenodd" fill-opacity="1" /><path clip-path="url(#clip820)" d="M 0 0 M49.9359 760.675 L28.3562 760.675 L28.3562 754.818 L49.7131 754.818 Q54.7739 754.818 57.3202 752.845 Q59.8346 750.872 59.8346 746.925 Q59.8346 742.182 56.8109 739.445 Q53.7872 736.676 48.5673 736.676 L28.3562 736.676 L28.3562 730.82 L64.0042 730.82 L64.0042 736.676 L58.5296 736.676 Q61.7762 738.809 63.3676 741.641 Q64.9272 744.442 64.9272 748.166 Q64.9272 754.309 61.1078 757.492 Q57.2883 760.675 49.9359 760.675 M27.4968 745.938 L27.4968 745.938 Z" fill="#000000" fill-rule="evenodd" fill-opacity="1" /><path clip-path="url(#clip820)" d="M 0 0 M44.7161 688.265 L47.5806 688.265 L47.5806 715.192 Q53.6281 714.81 56.8109 711.563 Q59.9619 708.285 59.9619 702.46 Q59.9619 699.087 59.1344 695.936 Q58.3069 692.753 56.6518 689.634 L62.1899 689.634 Q63.5267 692.785 64.227 696.095 Q64.9272 699.405 64.9272 702.811 Q64.9272 711.341 59.9619 716.338 Q54.9967 721.303 46.5303 721.303 Q37.7774 721.303 32.6531 716.592 Q27.4968 711.85 27.4968 703.829 Q27.4968 696.636 32.1438 692.466 Q36.7589 688.265 44.7161 688.265 M42.9973 694.121 Q38.1912 694.185 35.3266 696.827 Q32.4621 699.437 32.4621 703.765 Q32.4621 708.667 35.2312 711.627 Q38.0002 714.555 43.0292 715.001 L42.9973 694.121 Z" fill="#000000" fill-rule="evenodd" fill-opacity="1" /><path clip-path="url(#clip820)" d="M 0 0 M42.4881 649.02 L64.0042 649.02 L64.0042 654.877 L42.679 654.877 Q37.6183 654.877 35.1038 656.85 Q32.5894 658.823 32.5894 662.77 Q32.5894 667.513 35.6131 670.25 Q38.6368 672.987 43.8567 672.987 L64.0042 672.987 L64.0042 678.875 L28.3562 678.875 L28.3562 672.987 L33.8944 672.987 Q30.6797 670.887 29.0883 668.054 Q27.4968 665.189 27.4968 661.465 Q27.4968 655.322 31.3163 652.171 Q35.1038 649.02 42.4881 649.02 Z" fill="#000000" fill-rule="evenodd" fill-opacity="1" /><path clip-path="url(#clip820)" d="M 0 0 M29.7248 611.685 L35.1993 611.685 Q33.8307 614.168 33.1623 616.683 Q32.4621 619.165 32.4621 621.711 Q32.4621 627.409 36.0905 630.56 Q39.6872 633.711 46.212 633.711 Q52.7369 633.711 56.3653 630.56 Q59.9619 627.409 59.9619 621.711 Q59.9619 619.165 59.2935 616.683 Q58.5933 614.168 57.2247 611.685 L62.6355 611.685 Q63.7814 614.136 64.3543 616.778 Q64.9272 619.388 64.9272 622.348 Q64.9272 630.401 59.8664 635.143 Q54.8057 639.886 46.212 639.886 Q37.491 639.886 32.4939 635.111 Q27.4968 630.305 27.4968 621.966 Q27.4968 619.261 28.0697 616.683 Q28.6108 614.104 29.7248 611.685 Z" fill="#000000" fill-rule="evenodd" fill-opacity="1" /><path clip-path="url(#clip820)" d="M 0 0 M67.3143 586.668 Q73.68 589.151 75.6216 591.506 Q77.5631 593.861 77.5631 597.808 L77.5631 602.487 L72.6615 602.487 L72.6615 599.05 Q72.6615 596.631 71.5157 595.294 Q70.3699 593.957 66.1048 592.334 L63.4312 591.283 L28.3562 605.702 L28.3562 599.495 L56.238 588.355 L28.3562 577.215 L28.3562 571.009 L67.3143 586.668 Z" fill="#000000" fill-rule="evenodd" fill-opacity="1" /><path clip-path="url(#clip822)" d="
M323.245 1366.7 L323.245 1384.24 L374.904 1384.24 L374.904 1366.7 L323.245 1366.7 L323.245 1366.7  Z
  " fill="#009af9" fill-rule="evenodd" fill-opacity="1"/>
<polyline clip-path="url(#clip822)" style="stroke:#000000; stroke-width:4; stroke-opacity:1; fill:none" points="
  323.245,1366.7 323.245,1384.24 374.904,1384.24 374.904,1366.7 323.245,1366.7 
  "/>
<path clip-path="url(#clip822)" d="
M374.904 1384.24 L374.904 1384.24 L426.563 1384.24 L426.563 1384.24 L374.904 1384.24 L374.904 1384.24  Z
  " fill="#009af9" fill-rule="evenodd" fill-opacity="1"/>
<polyline clip-path="url(#clip822)" style="stroke:#000000; stroke-width:4; stroke-opacity:1; fill:none" points="
  374.904,1384.24 374.904,1384.24 426.563,1384.24 374.904,1384.24 
  "/>
<path clip-path="url(#clip822)" d="
M426.563 1349.16 L426.563 1384.24 L478.222 1384.24 L478.222 1349.16 L426.563 1349.16 L426.563 1349.16  Z
  " fill="#009af9" fill-rule="evenodd" fill-opacity="1"/>
<polyline clip-path="url(#clip822)" style="stroke:#000000; stroke-width:4; stroke-opacity:1; fill:none" points="
  426.563,1349.16 426.563,1384.24 478.222,1384.24 478.222,1349.16 426.563,1349.16 
  "/>
<path clip-path="url(#clip822)" d="
M478.222 1261.45 L478.222 1384.24 L529.881 1384.24 L529.881 1261.45 L478.222 1261.45 L478.222 1261.45  Z
  " fill="#009af9" fill-rule="evenodd" fill-opacity="1"/>
<polyline clip-path="url(#clip822)" style="stroke:#000000; stroke-width:4; stroke-opacity:1; fill:none" points="
  478.222,1261.45 478.222,1384.24 529.881,1384.24 529.881,1261.45 478.222,1261.45 
  "/>
<path clip-path="url(#clip822)" d="
M529.881 1103.58 L529.881 1384.24 L581.54 1384.24 L581.54 1103.58 L529.881 1103.58 L529.881 1103.58  Z
  " fill="#009af9" fill-rule="evenodd" fill-opacity="1"/>
<polyline clip-path="url(#clip822)" style="stroke:#000000; stroke-width:4; stroke-opacity:1; fill:none" points="
  529.881,1103.58 529.881,1384.24 581.54,1384.24 581.54,1103.58 529.881,1103.58 
  "/>
<path clip-path="url(#clip822)" d="
M581.54 980.789 L581.54 1384.24 L633.199 1384.24 L633.199 980.789 L581.54 980.789 L581.54 980.789  Z
  " fill="#009af9" fill-rule="evenodd" fill-opacity="1"/>
<polyline clip-path="url(#clip822)" style="stroke:#000000; stroke-width:4; stroke-opacity:1; fill:none" points="
  581.54,980.789 581.54,1384.24 633.199,1384.24 633.199,980.789 581.54,980.789 
  "/>
<path clip-path="url(#clip822)" d="
M633.199 875.542 L633.199 1384.24 L684.859 1384.24 L684.859 875.542 L633.199 875.542 L633.199 875.542  Z
  " fill="#009af9" fill-rule="evenodd" fill-opacity="1"/>
<polyline clip-path="url(#clip822)" style="stroke:#000000; stroke-width:4; stroke-opacity:1; fill:none" points="
  633.199,875.542 633.199,1384.24 684.859,1384.24 684.859,875.542 633.199,875.542 
  "/>
<path clip-path="url(#clip822)" d="
M684.859 437.011 L684.859 1384.24 L736.518 1384.24 L736.518 437.011 L684.859 437.011 L684.859 437.011  Z
  " fill="#009af9" fill-rule="evenodd" fill-opacity="1"/>
<polyline clip-path="url(#clip822)" style="stroke:#000000; stroke-width:4; stroke-opacity:1; fill:none" points="
  684.859,437.011 684.859,1384.24 736.518,1384.24 736.518,437.011 684.859,437.011 
  "/>
<path clip-path="url(#clip822)" d="
M736.518 244.057 L736.518 1384.24 L788.177 1384.24 L788.177 244.057 L736.518 244.057 L736.518 244.057  Z
  " fill="#009af9" fill-rule="evenodd" fill-opacity="1"/>
<polyline clip-path="url(#clip822)" style="stroke:#000000; stroke-width:4; stroke-opacity:1; fill:none" points="
  736.518,244.057 736.518,1384.24 788.177,1384.24 788.177,244.057 736.518,244.057 
  "/>
<path clip-path="url(#clip822)" d="
M788.177 86.1857 L788.177 1384.24 L839.836 1384.24 L839.836 86.1857 L788.177 86.1857 L788.177 86.1857  Z
  " fill="#009af9" fill-rule="evenodd" fill-opacity="1"/>
<polyline clip-path="url(#clip822)" style="stroke:#000000; stroke-width:4; stroke-opacity:1; fill:none" points="
  788.177,86.1857 788.177,1384.24 839.836,1384.24 839.836,86.1857 788.177,86.1857 
  "/>
<path clip-path="url(#clip822)" d="
M839.836 331.763 L839.836 1384.24 L891.495 1384.24 L891.495 331.763 L839.836 331.763 L839.836 331.763  Z
  " fill="#009af9" fill-rule="evenodd" fill-opacity="1"/>
<polyline clip-path="url(#clip822)" style="stroke:#000000; stroke-width:4; stroke-opacity:1; fill:none" points="
  839.836,331.763 839.836,1384.24 891.495,1384.24 891.495,331.763 839.836,331.763 
  "/>
<path clip-path="url(#clip822)" d="
M891.495 191.433 L891.495 1384.24 L943.154 1384.24 L943.154 191.433 L891.495 191.433 L891.495 191.433  Z
  " fill="#009af9" fill-rule="evenodd" fill-opacity="1"/>
<polyline clip-path="url(#clip822)" style="stroke:#000000; stroke-width:4; stroke-opacity:1; fill:none" points="
  891.495,191.433 891.495,1384.24 943.154,1384.24 943.154,191.433 891.495,191.433 
  "/>
<path clip-path="url(#clip822)" d="
M943.154 682.588 L943.154 1384.24 L994.813 1384.24 L994.813 682.588 L943.154 682.588 L943.154 682.588  Z
  " fill="#009af9" fill-rule="evenodd" fill-opacity="1"/>
<polyline clip-path="url(#clip822)" style="stroke:#000000; stroke-width:4; stroke-opacity:1; fill:none" points="
  943.154,682.588 943.154,1384.24 994.813,1384.24 994.813,682.588 943.154,682.588 
  "/>
<path clip-path="url(#clip822)" d="
M994.813 594.882 L994.813 1384.24 L1046.47 1384.24 L1046.47 594.882 L994.813 594.882 L994.813 594.882  Z
  " fill="#009af9" fill-rule="evenodd" fill-opacity="1"/>
<polyline clip-path="url(#clip822)" style="stroke:#000000; stroke-width:4; stroke-opacity:1; fill:none" points="
  994.813,594.882 994.813,1384.24 1046.47,1384.24 1046.47,594.882 994.813,594.882 
  "/>
<path clip-path="url(#clip822)" d="
M1046.47 893.083 L1046.47 1384.24 L1098.13 1384.24 L1098.13 893.083 L1046.47 893.083 L1046.47 893.083  Z
  " fill="#009af9" fill-rule="evenodd" fill-opacity="1"/>
<polyline clip-path="url(#clip822)" style="stroke:#000000; stroke-width:4; stroke-opacity:1; fill:none" points="
  1046.47,893.083 1046.47,1384.24 1098.13,1384.24 1098.13,893.083 1046.47,893.083 
  "/>
<path clip-path="url(#clip822)" d="
M1098.13 910.624 L1098.13 1384.24 L1149.79 1384.24 L1149.79 910.624 L1098.13 910.624 L1098.13 910.624  Z
  " fill="#009af9" fill-rule="evenodd" fill-opacity="1"/>
<polyline clip-path="url(#clip822)" style="stroke:#000000; stroke-width:4; stroke-opacity:1; fill:none" points="
  1098.13,910.624 1098.13,1384.24 1149.79,1384.24 1149.79,910.624 1098.13,910.624 
  "/>
<path clip-path="url(#clip822)" d="
M1149.79 875.542 L1149.79 1384.24 L1201.45 1384.24 L1201.45 875.542 L1149.79 875.542 L1149.79 875.542  Z
  " fill="#009af9" fill-rule="evenodd" fill-opacity="1"/>
<polyline clip-path="url(#clip822)" style="stroke:#000000; stroke-width:4; stroke-opacity:1; fill:none" points="
  1149.79,875.542 1149.79,1384.24 1201.45,1384.24 1201.45,875.542 1149.79,875.542 
  "/>
<path clip-path="url(#clip822)" d="
M1201.45 1173.74 L1201.45 1384.24 L1253.11 1384.24 L1253.11 1173.74 L1201.45 1173.74 L1201.45 1173.74  Z
  " fill="#009af9" fill-rule="evenodd" fill-opacity="1"/>
<polyline clip-path="url(#clip822)" style="stroke:#000000; stroke-width:4; stroke-opacity:1; fill:none" points="
  1201.45,1173.74 1201.45,1384.24 1253.11,1384.24 1253.11,1173.74 1201.45,1173.74 
  "/>
<path clip-path="url(#clip822)" d="
M1253.11 1226.37 L1253.11 1384.24 L1304.77 1384.24 L1304.77 1226.37 L1253.11 1226.37 L1253.11 1226.37  Z
  " fill="#009af9" fill-rule="evenodd" fill-opacity="1"/>
<polyline clip-path="url(#clip822)" style="stroke:#000000; stroke-width:4; stroke-opacity:1; fill:none" points="
  1253.11,1226.37 1253.11,1384.24 1304.77,1384.24 1304.77,1226.37 1253.11,1226.37 
  "/>
<path clip-path="url(#clip822)" d="
M1304.77 1121.12 L1304.77 1384.24 L1356.43 1384.24 L1356.43 1121.12 L1304.77 1121.12 L1304.77 1121.12  Z
  " fill="#009af9" fill-rule="evenodd" fill-opacity="1"/>
<polyline clip-path="url(#clip822)" style="stroke:#000000; stroke-width:4; stroke-opacity:1; fill:none" points="
  1304.77,1121.12 1304.77,1384.24 1356.43,1384.24 1356.43,1121.12 1304.77,1121.12 
  "/>
<path clip-path="url(#clip822)" d="
M1356.43 1173.74 L1356.43 1384.24 L1408.09 1384.24 L1408.09 1173.74 L1356.43 1173.74 L1356.43 1173.74  Z
  " fill="#009af9" fill-rule="evenodd" fill-opacity="1"/>
<polyline clip-path="url(#clip822)" style="stroke:#000000; stroke-width:4; stroke-opacity:1; fill:none" points="
  1356.43,1173.74 1356.43,1384.24 1408.09,1384.24 1408.09,1173.74 1356.43,1173.74 
  "/>
<path clip-path="url(#clip822)" d="
M1408.09 1173.74 L1408.09 1384.24 L1459.75 1384.24 L1459.75 1173.74 L1408.09 1173.74 L1408.09 1173.74  Z
  " fill="#009af9" fill-rule="evenodd" fill-opacity="1"/>
<polyline clip-path="url(#clip822)" style="stroke:#000000; stroke-width:4; stroke-opacity:1; fill:none" points="
  1408.09,1173.74 1408.09,1384.24 1459.75,1384.24 1459.75,1173.74 1408.09,1173.74 
  "/>
<path clip-path="url(#clip822)" d="
M1459.75 1261.45 L1459.75 1384.24 L1511.4 1384.24 L1511.4 1261.45 L1459.75 1261.45 L1459.75 1261.45  Z
  " fill="#009af9" fill-rule="evenodd" fill-opacity="1"/>
<polyline clip-path="url(#clip822)" style="stroke:#000000; stroke-width:4; stroke-opacity:1; fill:none" points="
  1459.75,1261.45 1459.75,1384.24 1511.4,1384.24 1511.4,1261.45 1459.75,1261.45 
  "/>
<path clip-path="url(#clip822)" d="
M1511.4 1278.99 L1511.4 1384.24 L1563.06 1384.24 L1563.06 1278.99 L1511.4 1278.99 L1511.4 1278.99  Z
  " fill="#009af9" fill-rule="evenodd" fill-opacity="1"/>
<polyline clip-path="url(#clip822)" style="stroke:#000000; stroke-width:4; stroke-opacity:1; fill:none" points="
  1511.4,1278.99 1511.4,1384.24 1563.06,1384.24 1563.06,1278.99 1511.4,1278.99 
  "/>
<path clip-path="url(#clip822)" d="
M1563.06 1314.07 L1563.06 1384.24 L1614.72 1384.24 L1614.72 1314.07 L1563.06 1314.07 L1563.06 1314.07  Z
  " fill="#009af9" fill-rule="evenodd" fill-opacity="1"/>
<polyline clip-path="url(#clip822)" style="stroke:#000000; stroke-width:4; stroke-opacity:1; fill:none" points="
  1563.06,1314.07 1563.06,1384.24 1614.72,1384.24 1614.72,1314.07 1563.06,1314.07 
  "/>
<path clip-path="url(#clip822)" d="
M1614.72 1296.53 L1614.72 1384.24 L1666.38 1384.24 L1666.38 1296.53 L1614.72 1296.53 L1614.72 1296.53  Z
  " fill="#009af9" fill-rule="evenodd" fill-opacity="1"/>
<polyline clip-path="url(#clip822)" style="stroke:#000000; stroke-width:4; stroke-opacity:1; fill:none" points="
  1614.72,1296.53 1614.72,1384.24 1666.38,1384.24 1666.38,1296.53 1614.72,1296.53 
  "/>
<path clip-path="url(#clip822)" d="
M1666.38 1138.66 L1666.38 1384.24 L1718.04 1384.24 L1718.04 1138.66 L1666.38 1138.66 L1666.38 1138.66  Z
  " fill="#009af9" fill-rule="evenodd" fill-opacity="1"/>
<polyline clip-path="url(#clip822)" style="stroke:#000000; stroke-width:4; stroke-opacity:1; fill:none" points="
  1666.38,1138.66 1666.38,1384.24 1718.04,1384.24 1718.04,1138.66 1666.38,1138.66 
  "/>
<path clip-path="url(#clip822)" d="
M1718.04 1050.95 L1718.04 1384.24 L1769.7 1384.24 L1769.7 1050.95 L1718.04 1050.95 L1718.04 1050.95  Z
  " fill="#009af9" fill-rule="evenodd" fill-opacity="1"/>
<polyline clip-path="url(#clip822)" style="stroke:#000000; stroke-width:4; stroke-opacity:1; fill:none" points="
  1718.04,1050.95 1718.04,1384.24 1769.7,1384.24 1769.7,1050.95 1718.04,1050.95 
  "/>
<path clip-path="url(#clip822)" d="
M1769.7 963.248 L1769.7 1384.24 L1821.36 1384.24 L1821.36 963.248 L1769.7 963.248 L1769.7 963.248  Z
  " fill="#009af9" fill-rule="evenodd" fill-opacity="1"/>
<polyline clip-path="url(#clip822)" style="stroke:#000000; stroke-width:4; stroke-opacity:1; fill:none" points="
  1769.7,963.248 1769.7,1384.24 1821.36,1384.24 1821.36,963.248 1769.7,963.248 
  "/>
<path clip-path="url(#clip822)" d="
M1821.36 735.212 L1821.36 1384.24 L1873.02 1384.24 L1873.02 735.212 L1821.36 735.212 L1821.36 735.212  Z
  " fill="#009af9" fill-rule="evenodd" fill-opacity="1"/>
<polyline clip-path="url(#clip822)" style="stroke:#000000; stroke-width:4; stroke-opacity:1; fill:none" points="
  1821.36,735.212 1821.36,1384.24 1873.02,1384.24 1873.02,735.212 1821.36,735.212 
  "/>
<path clip-path="url(#clip822)" d="
M1873.02 279.139 L1873.02 1384.24 L1924.68 1384.24 L1924.68 279.139 L1873.02 279.139 L1873.02 279.139  Z
  " fill="#009af9" fill-rule="evenodd" fill-opacity="1"/>
<polyline clip-path="url(#clip822)" style="stroke:#000000; stroke-width:4; stroke-opacity:1; fill:none" points="
  1873.02,279.139 1873.02,1384.24 1924.68,1384.24 1924.68,279.139 1873.02,279.139 
  "/>
<path clip-path="url(#clip822)" d="
M1924.68 261.598 L1924.68 1384.24 L1976.34 1384.24 L1976.34 261.598 L1924.68 261.598 L1924.68 261.598  Z
  " fill="#009af9" fill-rule="evenodd" fill-opacity="1"/>
<polyline clip-path="url(#clip822)" style="stroke:#000000; stroke-width:4; stroke-opacity:1; fill:none" points="
  1924.68,261.598 1924.68,1384.24 1976.34,1384.24 1976.34,261.598 1924.68,261.598 
  "/>
<path clip-path="url(#clip822)" d="
M1976.34 314.222 L1976.34 1384.24 L2028 1384.24 L2028 314.222 L1976.34 314.222 L1976.34 314.222  Z
  " fill="#009af9" fill-rule="evenodd" fill-opacity="1"/>
<polyline clip-path="url(#clip822)" style="stroke:#000000; stroke-width:4; stroke-opacity:1; fill:none" points="
  1976.34,314.222 1976.34,1384.24 2028,1384.24 2028,314.222 1976.34,314.222 
  "/>
<path clip-path="url(#clip822)" d="
M2028 665.047 L2028 1384.24 L2079.65 1384.24 L2079.65 665.047 L2028 665.047 L2028 665.047  Z
  " fill="#009af9" fill-rule="evenodd" fill-opacity="1"/>
<polyline clip-path="url(#clip822)" style="stroke:#000000; stroke-width:4; stroke-opacity:1; fill:none" points="
  2028,665.047 2028,1384.24 2079.65,1384.24 2079.65,665.047 2028,665.047 
  "/>
<path clip-path="url(#clip822)" d="
M2079.65 1121.12 L2079.65 1384.24 L2131.31 1384.24 L2131.31 1121.12 L2079.65 1121.12 L2079.65 1121.12  Z
  " fill="#009af9" fill-rule="evenodd" fill-opacity="1"/>
<polyline clip-path="url(#clip822)" style="stroke:#000000; stroke-width:4; stroke-opacity:1; fill:none" points="
  2079.65,1121.12 2079.65,1384.24 2131.31,1384.24 2131.31,1121.12 2079.65,1121.12 
  "/>
<path clip-path="url(#clip822)" d="
M2131.31 1243.91 L2131.31 1384.24 L2182.97 1384.24 L2182.97 1243.91 L2131.31 1243.91 L2131.31 1243.91  Z
  " fill="#009af9" fill-rule="evenodd" fill-opacity="1"/>
<polyline clip-path="url(#clip822)" style="stroke:#000000; stroke-width:4; stroke-opacity:1; fill:none" points="
  2131.31,1243.91 2131.31,1384.24 2182.97,1384.24 2182.97,1243.91 2131.31,1243.91 
  "/>
<path clip-path="url(#clip822)" d="
M2182.97 1314.07 L2182.97 1384.24 L2234.63 1384.24 L2234.63 1314.07 L2182.97 1314.07 L2182.97 1314.07  Z
  " fill="#009af9" fill-rule="evenodd" fill-opacity="1"/>
<polyline clip-path="url(#clip822)" style="stroke:#000000; stroke-width:4; stroke-opacity:1; fill:none" points="
  2182.97,1314.07 2182.97,1384.24 2234.63,1384.24 2234.63,1314.07 2182.97,1314.07 
  "/>
<path clip-path="url(#clip820)" d="
M1990.11 214.069 L2281.17 214.069 L2281.17 93.1086 L1990.11 93.1086  Z
  " fill="#ffffff" fill-rule="evenodd" fill-opacity="1"/>
<polyline clip-path="url(#clip820)" style="stroke:#000000; stroke-width:4; stroke-opacity:1; fill:none" points="
  1990.11,214.069 2281.17,214.069 2281.17,93.1086 1990.11,93.1086 1990.11,214.069 
  "/>
<path clip-path="url(#clip820)" d="
M2013.97 177.781 L2157.15 177.781 L2157.15 129.397 L2013.97 129.397 L2013.97 177.781  Z
  " fill="#009af9" fill-rule="evenodd" fill-opacity="1"/>
<polyline clip-path="url(#clip820)" style="stroke:#000000; stroke-width:4; stroke-opacity:1; fill:none" points="
  2013.97,177.781 2157.15,177.781 2157.15,129.397 2013.97,129.397 2013.97,177.781 
  "/>
<path clip-path="url(#clip820)" d="M 0 0 M2194.86 173.276 Q2193.05 177.906 2191.34 179.318 Q2189.62 180.73 2186.75 180.73 L2183.35 180.73 L2183.35 177.165 L2185.85 177.165 Q2187.61 177.165 2188.58 176.332 Q2189.55 175.498 2190.73 172.396 L2191.5 170.452 L2181.01 144.943 L2185.53 144.943 L2193.63 165.221 L2201.73 144.943 L2206.24 144.943 L2194.86 173.276 Z" fill="#000000" fill-rule="evenodd" fill-opacity="1" /><path clip-path="url(#clip820)" d="M 0 0 M2213.54 166.933 L2221.17 166.933 L2221.17 140.568 L2212.86 142.235 L2212.86 137.975 L2221.13 136.309 L2225.8 136.309 L2225.8 166.933 L2233.44 166.933 L2233.44 170.869 L2213.54 170.869 L2213.54 166.933 Z" fill="#000000" fill-rule="evenodd" fill-opacity="1" /></svg>
