<?xml version="1.0" encoding="utf-8"?>
<svg xmlns="http://www.w3.org/2000/svg" xmlns:xlink="http://www.w3.org/1999/xlink" width="600" height="400" viewBox="0 0 2400 1600">
<defs>
  <clipPath id="clip850">
    <rect x="0" y="0" width="2400" height="1600"/>
  </clipPath>
</defs>
<path clip-path="url(#clip850)" d="
M0 1600 L2400 1600 L2400 0 L0 0  Z
  " fill="#ffffff" fill-rule="evenodd" fill-opacity="1"/>
<defs>
  <clipPath id="clip851">
    <rect x="480" y="0" width="1681" height="1600"/>
  </clipPath>
</defs>
<path clip-path="url(#clip850)" d="
M279.704 1423.18 L2352.76 1423.18 L2352.76 47.2441 L279.704 47.2441  Z
  " fill="#ffffff" fill-rule="evenodd" fill-opacity="1"/>
<defs>
  <clipPath id="clip852">
    <rect x="279" y="47" width="2074" height="1377"/>
  </clipPath>
</defs>
<polyline clip-path="url(#clip852)" style="stroke:#000000; stroke-width:2; stroke-opacity:0.1; fill:none" points="
  416.521,1423.18 416.521,47.2441 
  "/>
<polyline clip-path="url(#clip852)" style="stroke:#000000; stroke-width:2; stroke-opacity:0.1; fill:none" points="
  784.364,1423.18 784.364,47.2441 
  "/>
<polyline clip-path="url(#clip852)" style="stroke:#000000; stroke-width:2; stroke-opacity:0.1; fill:none" points="
  1152.21,1423.18 1152.21,47.2441 
  "/>
<polyline clip-path="url(#clip852)" style="stroke:#000000; stroke-width:2; stroke-opacity:0.1; fill:none" points="
  1520.05,1423.18 1520.05,47.2441 
  "/>
<polyline clip-path="url(#clip852)" style="stroke:#000000; stroke-width:2; stroke-opacity:0.1; fill:none" points="
  1887.89,1423.18 1887.89,47.2441 
  "/>
<polyline clip-path="url(#clip852)" style="stroke:#000000; stroke-width:2; stroke-opacity:0.1; fill:none" points="
  2255.73,1423.18 2255.73,47.2441 
  "/>
<polyline clip-path="url(#clip850)" style="stroke:#000000; stroke-width:4; stroke-opacity:1; fill:none" points="
  279.704,1423.18 2352.76,1423.18 
  "/>
<polyline clip-path="url(#clip850)" style="stroke:#000000; stroke-width:4; stroke-opacity:1; fill:none" points="
  416.521,1423.18 416.521,1406.67 
  "/>
<polyline clip-path="url(#clip850)" style="stroke:#000000; stroke-width:4; stroke-opacity:1; fill:none" points="
  784.364,1423.18 784.364,1406.67 
  "/>
<polyline clip-path="url(#clip850)" style="stroke:#000000; stroke-width:4; stroke-opacity:1; fill:none" points="
  1152.21,1423.18 1152.21,1406.67 
  "/>
<polyline clip-path="url(#clip850)" style="stroke:#000000; stroke-width:4; stroke-opacity:1; fill:none" points="
  1520.05,1423.18 1520.05,1406.67 
  "/>
<polyline clip-path="url(#clip850)" style="stroke:#000000; stroke-width:4; stroke-opacity:1; fill:none" points="
  1887.89,1423.18 1887.89,1406.67 
  "/>
<polyline clip-path="url(#clip850)" style="stroke:#000000; stroke-width:4; stroke-opacity:1; fill:none" points="
  2255.73,1423.18 2255.73,1406.67 
  "/>
<path clip-path="url(#clip850)" d="M 0 0 M370.584 1467.02 L400.26 1467.02 L400.26 1470.96 L370.584 1470.96 L370.584 1467.02 Z" fill="#000000" fill-rule="evenodd" fill-opacity="1" /><path clip-path="url(#clip850)" d="M 0 0 M411.163 1479.92 L418.801 1479.92 L418.801 1453.55 L410.491 1455.22 L410.491 1450.96 L418.755 1449.29 L423.431 1449.29 L423.431 1479.92 L431.07 1479.92 L431.07 1483.85 L411.163 1483.85 L411.163 1479.92 Z" fill="#000000" fill-rule="evenodd" fill-opacity="1" /><path clip-path="url(#clip850)" d="M 0 0 M450.514 1452.37 Q446.903 1452.37 445.074 1455.94 Q443.269 1459.48 443.269 1466.61 Q443.269 1473.71 445.074 1477.28 Q446.903 1480.82 450.514 1480.82 Q454.148 1480.82 455.954 1477.28 Q457.783 1473.71 457.783 1466.61 Q457.783 1459.48 455.954 1455.94 Q454.148 1452.37 450.514 1452.37 M450.514 1448.67 Q456.324 1448.67 459.38 1453.27 Q462.459 1457.86 462.459 1466.61 Q462.459 1475.33 459.38 1479.94 Q456.324 1484.52 450.514 1484.52 Q444.704 1484.52 441.625 1479.94 Q438.57 1475.33 438.57 1466.61 Q438.57 1457.86 441.625 1453.27 Q444.704 1448.67 450.514 1448.67 Z" fill="#000000" fill-rule="evenodd" fill-opacity="1" /><path clip-path="url(#clip850)" d="M 0 0 M754.005 1467.02 L783.681 1467.02 L783.681 1470.96 L754.005 1470.96 L754.005 1467.02 Z" fill="#000000" fill-rule="evenodd" fill-opacity="1" /><path clip-path="url(#clip850)" d="M 0 0 M793.82 1449.29 L812.176 1449.29 L812.176 1453.23 L798.102 1453.23 L798.102 1461.7 Q799.121 1461.35 800.139 1461.19 Q801.158 1461 802.176 1461 Q807.963 1461 811.343 1464.18 Q814.723 1467.35 814.723 1472.76 Q814.723 1478.34 811.251 1481.44 Q807.778 1484.52 801.459 1484.52 Q799.283 1484.52 797.014 1484.15 Q794.769 1483.78 792.362 1483.04 L792.362 1478.34 Q794.445 1479.48 796.667 1480.03 Q798.889 1480.59 801.366 1480.59 Q805.371 1480.59 807.709 1478.48 Q810.047 1476.38 810.047 1472.76 Q810.047 1469.15 807.709 1467.05 Q805.371 1464.94 801.366 1464.94 Q799.491 1464.94 797.616 1465.36 Q795.764 1465.77 793.82 1466.65 L793.82 1449.29 Z" fill="#000000" fill-rule="evenodd" fill-opacity="1" /><path clip-path="url(#clip850)" d="M 0 0 M1152.21 1452.37 Q1148.6 1452.37 1146.77 1455.94 Q1144.96 1459.48 1144.96 1466.61 Q1144.96 1473.71 1146.77 1477.28 Q1148.6 1480.82 1152.21 1480.82 Q1155.84 1480.82 1157.65 1477.28 Q1159.48 1473.71 1159.48 1466.61 Q1159.48 1459.48 1157.65 1455.94 Q1155.84 1452.37 1152.21 1452.37 M1152.21 1448.67 Q1158.02 1448.67 1161.07 1453.27 Q1164.15 1457.86 1164.15 1466.61 Q1164.15 1475.33 1161.07 1479.94 Q1158.02 1484.52 1152.21 1484.52 Q1146.4 1484.52 1143.32 1479.94 Q1140.26 1475.33 1140.26 1466.61 Q1140.26 1457.86 1143.32 1453.27 Q1146.4 1448.67 1152.21 1448.67 Z" fill="#000000" fill-rule="evenodd" fill-opacity="1" /><path clip-path="url(#clip850)" d="M 0 0 M1510.33 1449.29 L1528.68 1449.29 L1528.68 1453.23 L1514.61 1453.23 L1514.61 1461.7 Q1515.63 1461.35 1516.65 1461.19 Q1517.67 1461 1518.68 1461 Q1524.47 1461 1527.85 1464.18 Q1531.23 1467.35 1531.23 1472.76 Q1531.23 1478.34 1527.76 1481.44 Q1524.29 1484.52 1517.97 1484.52 Q1515.79 1484.52 1513.52 1484.15 Q1511.28 1483.78 1508.87 1483.04 L1508.87 1478.34 Q1510.95 1479.48 1513.17 1480.03 Q1515.4 1480.59 1517.87 1480.59 Q1521.88 1480.59 1524.22 1478.48 Q1526.55 1476.38 1526.55 1472.76 Q1526.55 1469.15 1524.22 1467.05 Q1521.88 1464.94 1517.87 1464.94 Q1516 1464.94 1514.12 1465.36 Q1512.27 1465.77 1510.33 1466.65 L1510.33 1449.29 Z" fill="#000000" fill-rule="evenodd" fill-opacity="1" /><path clip-path="url(#clip850)" d="M 0 0 M1862.58 1479.92 L1870.22 1479.92 L1870.22 1453.55 L1861.91 1455.22 L1861.91 1450.96 L1870.17 1449.29 L1874.85 1449.29 L1874.85 1479.92 L1882.49 1479.92 L1882.49 1483.85 L1862.58 1483.85 L1862.58 1479.92 Z" fill="#000000" fill-rule="evenodd" fill-opacity="1" /><path clip-path="url(#clip850)" d="M 0 0 M1901.93 1452.37 Q1898.32 1452.37 1896.49 1455.94 Q1894.69 1459.48 1894.69 1466.61 Q1894.69 1473.71 1896.49 1477.28 Q1898.32 1480.82 1901.93 1480.82 Q1905.57 1480.82 1907.37 1477.28 Q1909.2 1473.71 1909.2 1466.61 Q1909.2 1459.48 1907.37 1455.94 Q1905.57 1452.37 1901.93 1452.37 M1901.93 1448.67 Q1907.74 1448.67 1910.8 1453.27 Q1913.88 1457.86 1913.88 1466.61 Q1913.88 1475.33 1910.8 1479.94 Q1907.74 1484.52 1901.93 1484.52 Q1896.12 1484.52 1893.04 1479.94 Q1889.99 1475.33 1889.99 1466.61 Q1889.99 1457.86 1893.04 1453.27 Q1896.12 1448.67 1901.93 1448.67 Z" fill="#000000" fill-rule="evenodd" fill-opacity="1" /><path clip-path="url(#clip850)" d="M 0 0 M2230.92 1479.92 L2238.56 1479.92 L2238.56 1453.55 L2230.25 1455.22 L2230.25 1450.96 L2238.51 1449.29 L2243.19 1449.29 L2243.19 1479.92 L2250.83 1479.92 L2250.83 1483.85 L2230.92 1483.85 L2230.92 1479.92 Z" fill="#000000" fill-rule="evenodd" fill-opacity="1" /><path clip-path="url(#clip850)" d="M 0 0 M2260.32 1449.29 L2278.67 1449.29 L2278.67 1453.23 L2264.6 1453.23 L2264.6 1461.7 Q2265.62 1461.35 2266.64 1461.19 Q2267.66 1461 2268.67 1461 Q2274.46 1461 2277.84 1464.18 Q2281.22 1467.35 2281.22 1472.76 Q2281.22 1478.34 2277.75 1481.44 Q2274.28 1484.52 2267.96 1484.52 Q2265.78 1484.52 2263.51 1484.15 Q2261.27 1483.78 2258.86 1483.04 L2258.86 1478.34 Q2260.94 1479.48 2263.17 1480.03 Q2265.39 1480.59 2267.86 1480.59 Q2271.87 1480.59 2274.21 1478.48 Q2276.54 1476.38 2276.54 1472.76 Q2276.54 1469.15 2274.21 1467.05 Q2271.87 1464.94 2267.86 1464.94 Q2265.99 1464.94 2264.11 1465.36 Q2262.26 1465.77 2260.32 1466.65 L2260.32 1449.29 Z" fill="#000000" fill-rule="evenodd" fill-opacity="1" /><path clip-path="url(#clip850)" d="M 0 0 M1172.97 1537.81 L1172.97 1518.52 L1178.83 1518.52 L1178.83 1568.04 L1172.97 1568.04 L1172.97 1562.7 Q1171.12 1565.88 1168.29 1567.44 Q1165.49 1568.97 1161.54 1568.97 Q1155.08 1568.97 1151.01 1563.81 Q1146.97 1558.65 1146.97 1550.25 Q1146.97 1541.85 1151.01 1536.69 Q1155.08 1531.54 1161.54 1531.54 Q1165.49 1531.54 1168.29 1533.1 Q1171.12 1534.62 1172.97 1537.81 M1153.01 1550.25 Q1153.01 1556.71 1155.65 1560.4 Q1158.33 1564.07 1162.98 1564.07 Q1167.62 1564.07 1170.3 1560.4 Q1172.97 1556.71 1172.97 1550.25 Q1172.97 1543.79 1170.3 1540.13 Q1167.62 1536.44 1162.98 1536.44 Q1158.33 1536.44 1155.65 1540.13 Q1153.01 1543.79 1153.01 1550.25 Z" fill="#000000" fill-rule="evenodd" fill-opacity="1" /><path clip-path="url(#clip850)" d="M 0 0 M1207.09 1550.12 Q1199.99 1550.12 1197.25 1551.75 Q1194.52 1553.37 1194.52 1557.29 Q1194.52 1560.4 1196.55 1562.25 Q1198.62 1564.07 1202.16 1564.07 Q1207.03 1564.07 1209.95 1560.63 Q1212.91 1557.16 1212.91 1551.43 L1212.91 1550.12 L1207.09 1550.12 M1218.77 1547.71 L1218.77 1568.04 L1212.91 1568.04 L1212.91 1562.63 Q1210.91 1565.88 1207.92 1567.44 Q1204.93 1568.97 1200.6 1568.97 Q1195.12 1568.97 1191.88 1565.91 Q1188.66 1562.82 1188.66 1557.67 Q1188.66 1551.65 1192.67 1548.6 Q1196.71 1545.54 1204.7 1545.54 L1212.91 1545.54 L1212.91 1544.97 Q1212.91 1540.93 1210.24 1538.73 Q1207.6 1536.5 1202.79 1536.5 Q1199.74 1536.5 1196.84 1537.23 Q1193.94 1537.97 1191.27 1539.43 L1191.27 1534.02 Q1194.49 1532.78 1197.51 1532.17 Q1200.53 1531.54 1203.4 1531.54 Q1211.13 1531.54 1214.95 1535.55 Q1218.77 1539.56 1218.77 1547.71 Z" fill="#000000" fill-rule="evenodd" fill-opacity="1" /><path clip-path="url(#clip850)" d="M 0 0 M1236.63 1522.27 L1236.63 1532.4 L1248.69 1532.4 L1248.69 1536.95 L1236.63 1536.95 L1236.63 1556.3 Q1236.63 1560.66 1237.8 1561.9 Q1239.01 1563.14 1242.67 1563.14 L1248.69 1563.14 L1248.69 1568.04 L1242.67 1568.04 Q1235.89 1568.04 1233.32 1565.53 Q1230.74 1562.98 1230.74 1556.3 L1230.74 1536.95 L1226.44 1536.95 L1226.44 1532.4 L1230.74 1532.4 L1230.74 1522.27 L1236.63 1522.27 Z" fill="#000000" fill-rule="evenodd" fill-opacity="1" /><path clip-path="url(#clip850)" d="M 0 0 M1272.59 1550.12 Q1265.5 1550.12 1262.76 1551.75 Q1260.02 1553.37 1260.02 1557.29 Q1260.02 1560.4 1262.06 1562.25 Q1264.13 1564.07 1267.66 1564.07 Q1272.53 1564.07 1275.46 1560.63 Q1278.42 1557.16 1278.42 1551.43 L1278.42 1550.12 L1272.59 1550.12 M1284.27 1547.71 L1284.27 1568.04 L1278.42 1568.04 L1278.42 1562.63 Q1276.41 1565.88 1273.42 1567.44 Q1270.43 1568.97 1266.1 1568.97 Q1260.63 1568.97 1257.38 1565.91 Q1254.16 1562.82 1254.16 1557.67 Q1254.16 1551.65 1258.17 1548.6 Q1262.22 1545.54 1270.21 1545.54 L1278.42 1545.54 L1278.42 1544.97 Q1278.42 1540.93 1275.74 1538.73 Q1273.1 1536.5 1268.3 1536.5 Q1265.24 1536.5 1262.34 1537.23 Q1259.45 1537.97 1256.77 1539.43 L1256.77 1534.02 Q1259.99 1532.78 1263.01 1532.17 Q1266.04 1531.54 1268.9 1531.54 Q1276.64 1531.54 1280.45 1535.55 Q1284.27 1539.56 1284.27 1547.71 Z" fill="#000000" fill-rule="evenodd" fill-opacity="1" /><path clip-path="url(#clip850)" d="M 0 0 M1312.86 1532.4 L1319.06 1532.4 L1330.2 1562.31 L1341.34 1532.4 L1347.55 1532.4 L1334.18 1568.04 L1326.22 1568.04 L1312.86 1532.4 Z" fill="#000000" fill-rule="evenodd" fill-opacity="1" /><path clip-path="url(#clip850)" d="M 0 0 M1371.83 1550.12 Q1364.74 1550.12 1362 1551.75 Q1359.26 1553.37 1359.26 1557.29 Q1359.26 1560.4 1361.3 1562.25 Q1363.37 1564.07 1366.9 1564.07 Q1371.77 1564.07 1374.7 1560.63 Q1377.66 1557.16 1377.66 1551.43 L1377.66 1550.12 L1371.83 1550.12 M1383.52 1547.71 L1383.52 1568.04 L1377.66 1568.04 L1377.66 1562.63 Q1375.65 1565.88 1372.66 1567.44 Q1369.67 1568.97 1365.34 1568.97 Q1359.87 1568.97 1356.62 1565.91 Q1353.41 1562.82 1353.41 1557.67 Q1353.41 1551.65 1357.42 1548.6 Q1361.46 1545.54 1369.45 1545.54 L1377.66 1545.54 L1377.66 1544.97 Q1377.66 1540.93 1374.99 1538.73 Q1372.34 1536.5 1367.54 1536.5 Q1364.48 1536.5 1361.59 1537.23 Q1358.69 1537.97 1356.02 1539.43 L1356.02 1534.02 Q1359.23 1532.78 1362.25 1532.17 Q1365.28 1531.54 1368.14 1531.54 Q1375.88 1531.54 1379.7 1535.55 Q1383.52 1539.56 1383.52 1547.71 Z" fill="#000000" fill-rule="evenodd" fill-opacity="1" /><path clip-path="url(#clip850)" d="M 0 0 M1395.58 1518.52 L1401.43 1518.52 L1401.43 1568.04 L1395.58 1568.04 L1395.58 1518.52 Z" fill="#000000" fill-rule="evenodd" fill-opacity="1" /><path clip-path="url(#clip850)" d="M 0 0 M1413.08 1553.98 L1413.08 1532.4 L1418.94 1532.4 L1418.94 1553.75 Q1418.94 1558.81 1420.91 1561.36 Q1422.89 1563.87 1426.83 1563.87 Q1431.58 1563.87 1434.31 1560.85 Q1437.08 1557.83 1437.08 1552.61 L1437.08 1532.4 L1442.94 1532.4 L1442.94 1568.04 L1437.08 1568.04 L1437.08 1562.57 Q1434.95 1565.82 1432.12 1567.41 Q1429.32 1568.97 1425.59 1568.97 Q1419.45 1568.97 1416.27 1565.15 Q1413.08 1561.33 1413.08 1553.98 M1427.82 1531.54 L1427.82 1531.54 Z" fill="#000000" fill-rule="evenodd" fill-opacity="1" /><path clip-path="url(#clip850)" d="M 0 0 M1485.49 1548.76 L1485.49 1551.62 L1458.57 1551.62 Q1458.95 1557.67 1462.2 1560.85 Q1465.47 1564 1471.3 1564 Q1474.67 1564 1477.82 1563.17 Q1481.01 1562.35 1484.13 1560.69 L1484.13 1566.23 Q1480.97 1567.57 1477.66 1568.27 Q1474.35 1568.97 1470.95 1568.97 Q1462.42 1568.97 1457.42 1564 Q1452.46 1559.04 1452.46 1550.57 Q1452.46 1541.82 1457.17 1536.69 Q1461.91 1531.54 1469.93 1531.54 Q1477.12 1531.54 1481.29 1536.18 Q1485.49 1540.8 1485.49 1548.76 M1479.64 1547.04 Q1479.57 1542.23 1476.93 1539.37 Q1474.32 1536.5 1469.99 1536.5 Q1465.09 1536.5 1462.13 1539.27 Q1459.2 1542.04 1458.76 1547.07 L1479.64 1547.04 Z" fill="#000000" fill-rule="evenodd" fill-opacity="1" /><polyline clip-path="url(#clip852)" style="stroke:#000000; stroke-width:2; stroke-opacity:0.1; fill:none" points="
  279.704,1384.24 2352.76,1384.24 
  "/>
<polyline clip-path="url(#clip852)" style="stroke:#000000; stroke-width:2; stroke-opacity:0.1; fill:none" points="
  279.704,1096.72 2352.76,1096.72 
  "/>
<polyline clip-path="url(#clip852)" style="stroke:#000000; stroke-width:2; stroke-opacity:0.1; fill:none" points="
  279.704,809.205 2352.76,809.205 
  "/>
<polyline clip-path="url(#clip852)" style="stroke:#000000; stroke-width:2; stroke-opacity:0.1; fill:none" points="
  279.704,521.688 2352.76,521.688 
  "/>
<polyline clip-path="url(#clip852)" style="stroke:#000000; stroke-width:2; stroke-opacity:0.1; fill:none" points="
  279.704,234.172 2352.76,234.172 
  "/>
<polyline clip-path="url(#clip850)" style="stroke:#000000; stroke-width:4; stroke-opacity:1; fill:none" points="
  279.704,1423.18 279.704,47.2441 
  "/>
<polyline clip-path="url(#clip850)" style="stroke:#000000; stroke-width:4; stroke-opacity:1; fill:none" points="
  279.704,1384.24 304.581,1384.24 
  "/>
<polyline clip-path="url(#clip850)" style="stroke:#000000; stroke-width:4; stroke-opacity:1; fill:none" points="
  279.704,1096.72 304.581,1096.72 
  "/>
<polyline clip-path="url(#clip850)" style="stroke:#000000; stroke-width:4; stroke-opacity:1; fill:none" points="
  279.704,809.205 304.581,809.205 
  "/>
<polyline clip-path="url(#clip850)" style="stroke:#000000; stroke-width:4; stroke-opacity:1; fill:none" points="
  279.704,521.688 304.581,521.688 
  "/>
<polyline clip-path="url(#clip850)" style="stroke:#000000; stroke-width:4; stroke-opacity:1; fill:none" points="
  279.704,234.172 304.581,234.172 
  "/>
<path clip-path="url(#clip850)" d="M 0 0 M126.205 1370.04 Q122.593 1370.04 120.765 1373.6 Q118.959 1377.14 118.959 1384.27 Q118.959 1391.38 120.765 1394.94 Q122.593 1398.49 126.205 1398.49 Q129.839 1398.49 131.644 1394.94 Q133.473 1391.38 133.473 1384.27 Q133.473 1377.14 131.644 1373.6 Q129.839 1370.04 126.205 1370.04 M126.205 1366.33 Q132.015 1366.33 135.07 1370.94 Q138.149 1375.52 138.149 1384.27 Q138.149 1393 135.07 1397.61 Q132.015 1402.19 126.205 1402.19 Q120.394 1402.19 117.316 1397.61 Q114.26 1393 114.26 1384.27 Q114.26 1375.52 117.316 1370.94 Q120.394 1366.33 126.205 1366.33 Z" fill="#000000" fill-rule="evenodd" fill-opacity="1" /><path clip-path="url(#clip850)" d="M 0 0 M146.366 1395.64 L151.251 1395.64 L151.251 1401.52 L146.366 1401.52 L146.366 1395.64 Z" fill="#000000" fill-rule="evenodd" fill-opacity="1" /><path clip-path="url(#clip850)" d="M 0 0 M171.436 1370.04 Q167.825 1370.04 165.996 1373.6 Q164.19 1377.14 164.19 1384.27 Q164.19 1391.38 165.996 1394.94 Q167.825 1398.49 171.436 1398.49 Q175.07 1398.49 176.876 1394.94 Q178.704 1391.38 178.704 1384.27 Q178.704 1377.14 176.876 1373.6 Q175.07 1370.04 171.436 1370.04 M171.436 1366.33 Q177.246 1366.33 180.301 1370.94 Q183.38 1375.52 183.38 1384.27 Q183.38 1393 180.301 1397.61 Q177.246 1402.19 171.436 1402.19 Q165.626 1402.19 162.547 1397.61 Q159.491 1393 159.491 1384.27 Q159.491 1375.52 162.547 1370.94 Q165.626 1366.33 171.436 1366.33 Z" fill="#000000" fill-rule="evenodd" fill-opacity="1" /><path clip-path="url(#clip850)" d="M 0 0 M201.598 1370.04 Q197.987 1370.04 196.158 1373.6 Q194.352 1377.14 194.352 1384.27 Q194.352 1391.38 196.158 1394.94 Q197.987 1398.49 201.598 1398.49 Q205.232 1398.49 207.037 1394.94 Q208.866 1391.38 208.866 1384.27 Q208.866 1377.14 207.037 1373.6 Q205.232 1370.04 201.598 1370.04 M201.598 1366.33 Q207.408 1366.33 210.463 1370.94 Q213.542 1375.52 213.542 1384.27 Q213.542 1393 210.463 1397.61 Q207.408 1402.19 201.598 1402.19 Q195.787 1402.19 192.709 1397.61 Q189.653 1393 189.653 1384.27 Q189.653 1375.52 192.709 1370.94 Q195.787 1366.33 201.598 1366.33 Z" fill="#000000" fill-rule="evenodd" fill-opacity="1" /><path clip-path="url(#clip850)" d="M 0 0 M231.76 1370.04 Q228.148 1370.04 226.32 1373.6 Q224.514 1377.14 224.514 1384.27 Q224.514 1391.38 226.32 1394.94 Q228.148 1398.49 231.76 1398.49 Q235.394 1398.49 237.199 1394.94 Q239.028 1391.38 239.028 1384.27 Q239.028 1377.14 237.199 1373.6 Q235.394 1370.04 231.76 1370.04 M231.76 1366.33 Q237.57 1366.33 240.625 1370.94 Q243.704 1375.52 243.704 1384.27 Q243.704 1393 240.625 1397.61 Q237.57 1402.19 231.76 1402.19 Q225.949 1402.19 222.871 1397.61 Q219.815 1393 219.815 1384.27 Q219.815 1375.52 222.871 1370.94 Q225.949 1366.33 231.76 1366.33 Z" fill="#000000" fill-rule="evenodd" fill-opacity="1" /><path clip-path="url(#clip850)" d="M 0 0 M127.2 1082.52 Q123.589 1082.52 121.76 1086.09 Q119.955 1089.63 119.955 1096.76 Q119.955 1103.86 121.76 1107.43 Q123.589 1110.97 127.2 1110.97 Q130.834 1110.97 132.64 1107.43 Q134.468 1103.86 134.468 1096.76 Q134.468 1089.63 132.64 1086.09 Q130.834 1082.52 127.2 1082.52 M127.2 1078.82 Q133.01 1078.82 136.066 1083.42 Q139.144 1088.01 139.144 1096.76 Q139.144 1105.48 136.066 1110.09 Q133.01 1114.67 127.2 1114.67 Q121.39 1114.67 118.311 1110.09 Q115.256 1105.48 115.256 1096.76 Q115.256 1088.01 118.311 1083.42 Q121.39 1078.82 127.2 1078.82 Z" fill="#000000" fill-rule="evenodd" fill-opacity="1" /><path clip-path="url(#clip850)" d="M 0 0 M147.362 1108.12 L152.246 1108.12 L152.246 1114 L147.362 1114 L147.362 1108.12 Z" fill="#000000" fill-rule="evenodd" fill-opacity="1" /><path clip-path="url(#clip850)" d="M 0 0 M172.431 1082.52 Q168.82 1082.52 166.991 1086.09 Q165.186 1089.63 165.186 1096.76 Q165.186 1103.86 166.991 1107.43 Q168.82 1110.97 172.431 1110.97 Q176.065 1110.97 177.871 1107.43 Q179.7 1103.86 179.7 1096.76 Q179.7 1089.63 177.871 1086.09 Q176.065 1082.52 172.431 1082.52 M172.431 1078.82 Q178.241 1078.82 181.297 1083.42 Q184.376 1088.01 184.376 1096.76 Q184.376 1105.48 181.297 1110.09 Q178.241 1114.67 172.431 1114.67 Q166.621 1114.67 163.542 1110.09 Q160.487 1105.48 160.487 1096.76 Q160.487 1088.01 163.542 1083.42 Q166.621 1078.82 172.431 1078.82 Z" fill="#000000" fill-rule="evenodd" fill-opacity="1" /><path clip-path="url(#clip850)" d="M 0 0 M196.621 1110.07 L212.94 1110.07 L212.94 1114 L190.996 1114 L190.996 1110.07 Q193.658 1107.31 198.241 1102.68 Q202.848 1098.03 204.028 1096.69 Q206.274 1094.16 207.153 1092.43 Q208.056 1090.67 208.056 1088.98 Q208.056 1086.22 206.112 1084.49 Q204.19 1082.75 201.088 1082.75 Q198.889 1082.75 196.436 1083.52 Q194.005 1084.28 191.227 1085.83 L191.227 1081.11 Q194.051 1079.97 196.505 1079.4 Q198.959 1078.82 200.996 1078.82 Q206.366 1078.82 209.561 1081.5 Q212.755 1084.19 212.755 1088.68 Q212.755 1090.81 211.945 1092.73 Q211.158 1094.63 209.051 1097.22 Q208.473 1097.89 205.371 1101.11 Q202.269 1104.3 196.621 1110.07 Z" fill="#000000" fill-rule="evenodd" fill-opacity="1" /><path clip-path="url(#clip850)" d="M 0 0 M222.801 1079.44 L241.158 1079.44 L241.158 1083.38 L227.084 1083.38 L227.084 1091.85 Q228.102 1091.5 229.121 1091.34 Q230.139 1091.15 231.158 1091.15 Q236.945 1091.15 240.324 1094.33 Q243.704 1097.5 243.704 1102.91 Q243.704 1108.49 240.232 1111.59 Q236.76 1114.67 230.44 1114.67 Q228.264 1114.67 225.996 1114.3 Q223.75 1113.93 221.343 1113.19 L221.343 1108.49 Q223.426 1109.63 225.648 1110.18 Q227.871 1110.74 230.347 1110.74 Q234.352 1110.74 236.69 1108.63 Q239.028 1106.52 239.028 1102.91 Q239.028 1099.3 236.69 1097.2 Q234.352 1095.09 230.347 1095.09 Q228.473 1095.09 226.598 1095.51 Q224.746 1095.92 222.801 1096.8 L222.801 1079.44 Z" fill="#000000" fill-rule="evenodd" fill-opacity="1" /><path clip-path="url(#clip850)" d="M 0 0 M126.205 795.004 Q122.593 795.004 120.765 798.568 Q118.959 802.11 118.959 809.24 Q118.959 816.346 120.765 819.911 Q122.593 823.453 126.205 823.453 Q129.839 823.453 131.644 819.911 Q133.473 816.346 133.473 809.24 Q133.473 802.11 131.644 798.568 Q129.839 795.004 126.205 795.004 M126.205 791.3 Q132.015 791.3 135.07 795.906 Q138.149 800.49 138.149 809.24 Q138.149 817.967 135.07 822.573 Q132.015 827.156 126.205 827.156 Q120.394 827.156 117.316 822.573 Q114.26 817.967 114.26 809.24 Q114.26 800.49 117.316 795.906 Q120.394 791.3 126.205 791.3 Z" fill="#000000" fill-rule="evenodd" fill-opacity="1" /><path clip-path="url(#clip850)" d="M 0 0 M146.366 820.605 L151.251 820.605 L151.251 826.485 L146.366 826.485 L146.366 820.605 Z" fill="#000000" fill-rule="evenodd" fill-opacity="1" /><path clip-path="url(#clip850)" d="M 0 0 M171.436 795.004 Q167.825 795.004 165.996 798.568 Q164.19 802.11 164.19 809.24 Q164.19 816.346 165.996 819.911 Q167.825 823.453 171.436 823.453 Q175.07 823.453 176.876 819.911 Q178.704 816.346 178.704 809.24 Q178.704 802.11 176.876 798.568 Q175.07 795.004 171.436 795.004 M171.436 791.3 Q177.246 791.3 180.301 795.906 Q183.38 800.49 183.38 809.24 Q183.38 817.967 180.301 822.573 Q177.246 827.156 171.436 827.156 Q165.626 827.156 162.547 822.573 Q159.491 817.967 159.491 809.24 Q159.491 800.49 162.547 795.906 Q165.626 791.3 171.436 791.3 Z" fill="#000000" fill-rule="evenodd" fill-opacity="1" /><path clip-path="url(#clip850)" d="M 0 0 M191.644 791.925 L210 791.925 L210 795.86 L195.926 795.86 L195.926 804.332 Q196.945 803.985 197.963 803.823 Q198.982 803.638 200 803.638 Q205.787 803.638 209.167 806.809 Q212.547 809.98 212.547 815.397 Q212.547 820.976 209.074 824.078 Q205.602 827.156 199.283 827.156 Q197.107 827.156 194.838 826.786 Q192.593 826.416 190.186 825.675 L190.186 820.976 Q192.269 822.11 194.491 822.666 Q196.713 823.221 199.19 823.221 Q203.195 823.221 205.533 821.115 Q207.871 819.008 207.871 815.397 Q207.871 811.786 205.533 809.68 Q203.195 807.573 199.19 807.573 Q197.315 807.573 195.44 807.99 Q193.588 808.406 191.644 809.286 L191.644 791.925 Z" fill="#000000" fill-rule="evenodd" fill-opacity="1" /><path clip-path="url(#clip850)" d="M 0 0 M231.76 795.004 Q228.148 795.004 226.32 798.568 Q224.514 802.11 224.514 809.24 Q224.514 816.346 226.32 819.911 Q228.148 823.453 231.76 823.453 Q235.394 823.453 237.199 819.911 Q239.028 816.346 239.028 809.24 Q239.028 802.11 237.199 798.568 Q235.394 795.004 231.76 795.004 M231.76 791.3 Q237.57 791.3 240.625 795.906 Q243.704 800.49 243.704 809.24 Q243.704 817.967 240.625 822.573 Q237.57 827.156 231.76 827.156 Q225.949 827.156 222.871 822.573 Q219.815 817.967 219.815 809.24 Q219.815 800.49 222.871 795.906 Q225.949 791.3 231.76 791.3 Z" fill="#000000" fill-rule="evenodd" fill-opacity="1" /><path clip-path="url(#clip850)" d="M 0 0 M127.2 507.487 Q123.589 507.487 121.76 511.052 Q119.955 514.593 119.955 521.723 Q119.955 528.829 121.76 532.394 Q123.589 535.936 127.2 535.936 Q130.834 535.936 132.64 532.394 Q134.468 528.829 134.468 521.723 Q134.468 514.593 132.64 511.052 Q130.834 507.487 127.2 507.487 M127.2 503.783 Q133.01 503.783 136.066 508.39 Q139.144 512.973 139.144 521.723 Q139.144 530.45 136.066 535.056 Q133.01 539.64 127.2 539.64 Q121.39 539.64 118.311 535.056 Q115.256 530.45 115.256 521.723 Q115.256 512.973 118.311 508.39 Q121.39 503.783 127.2 503.783 Z" fill="#000000" fill-rule="evenodd" fill-opacity="1" /><path clip-path="url(#clip850)" d="M 0 0 M147.362 533.089 L152.246 533.089 L152.246 538.968 L147.362 538.968 L147.362 533.089 Z" fill="#000000" fill-rule="evenodd" fill-opacity="1" /><path clip-path="url(#clip850)" d="M 0 0 M172.431 507.487 Q168.82 507.487 166.991 511.052 Q165.186 514.593 165.186 521.723 Q165.186 528.829 166.991 532.394 Q168.82 535.936 172.431 535.936 Q176.065 535.936 177.871 532.394 Q179.7 528.829 179.7 521.723 Q179.7 514.593 177.871 511.052 Q176.065 507.487 172.431 507.487 M172.431 503.783 Q178.241 503.783 181.297 508.39 Q184.376 512.973 184.376 521.723 Q184.376 530.45 181.297 535.056 Q178.241 539.64 172.431 539.64 Q166.621 539.64 163.542 535.056 Q160.487 530.45 160.487 521.723 Q160.487 512.973 163.542 508.39 Q166.621 503.783 172.431 503.783 Z" fill="#000000" fill-rule="evenodd" fill-opacity="1" /><path clip-path="url(#clip850)" d="M 0 0 M191.413 504.408 L213.635 504.408 L213.635 506.399 L201.088 538.968 L196.204 538.968 L208.01 508.343 L191.413 508.343 L191.413 504.408 Z" fill="#000000" fill-rule="evenodd" fill-opacity="1" /><path clip-path="url(#clip850)" d="M 0 0 M222.801 504.408 L241.158 504.408 L241.158 508.343 L227.084 508.343 L227.084 516.816 Q228.102 516.468 229.121 516.306 Q230.139 516.121 231.158 516.121 Q236.945 516.121 240.324 519.292 Q243.704 522.464 243.704 527.88 Q243.704 533.459 240.232 536.561 Q236.76 539.64 230.44 539.64 Q228.264 539.64 225.996 539.269 Q223.75 538.899 221.343 538.158 L221.343 533.459 Q223.426 534.593 225.648 535.149 Q227.871 535.704 230.347 535.704 Q234.352 535.704 236.69 533.598 Q239.028 531.491 239.028 527.88 Q239.028 524.269 236.69 522.163 Q234.352 520.056 230.347 520.056 Q228.473 520.056 226.598 520.473 Q224.746 520.89 222.801 521.769 L222.801 504.408 Z" fill="#000000" fill-rule="evenodd" fill-opacity="1" /><path clip-path="url(#clip850)" d="M 0 0 M126.205 219.97 Q122.593 219.97 120.765 223.535 Q118.959 227.077 118.959 234.206 Q118.959 241.313 120.765 244.878 Q122.593 248.419 126.205 248.419 Q129.839 248.419 131.644 244.878 Q133.473 241.313 133.473 234.206 Q133.473 227.077 131.644 223.535 Q129.839 219.97 126.205 219.97 M126.205 216.267 Q132.015 216.267 135.07 220.873 Q138.149 225.456 138.149 234.206 Q138.149 242.933 135.07 247.54 Q132.015 252.123 126.205 252.123 Q120.394 252.123 117.316 247.54 Q114.26 242.933 114.26 234.206 Q114.26 225.456 117.316 220.873 Q120.394 216.267 126.205 216.267 Z" fill="#000000" fill-rule="evenodd" fill-opacity="1" /><path clip-path="url(#clip850)" d="M 0 0 M146.366 245.572 L151.251 245.572 L151.251 251.452 L146.366 251.452 L146.366 245.572 Z" fill="#000000" fill-rule="evenodd" fill-opacity="1" /><path clip-path="url(#clip850)" d="M 0 0 M162.246 247.516 L169.885 247.516 L169.885 221.151 L161.575 222.817 L161.575 218.558 L169.839 216.892 L174.514 216.892 L174.514 247.516 L182.153 247.516 L182.153 251.452 L162.246 251.452 L162.246 247.516 Z" fill="#000000" fill-rule="evenodd" fill-opacity="1" /><path clip-path="url(#clip850)" d="M 0 0 M201.598 219.97 Q197.987 219.97 196.158 223.535 Q194.352 227.077 194.352 234.206 Q194.352 241.313 196.158 244.878 Q197.987 248.419 201.598 248.419 Q205.232 248.419 207.037 244.878 Q208.866 241.313 208.866 234.206 Q208.866 227.077 207.037 223.535 Q205.232 219.97 201.598 219.97 M201.598 216.267 Q207.408 216.267 210.463 220.873 Q213.542 225.456 213.542 234.206 Q213.542 242.933 210.463 247.54 Q207.408 252.123 201.598 252.123 Q195.787 252.123 192.709 247.54 Q189.653 242.933 189.653 234.206 Q189.653 225.456 192.709 220.873 Q195.787 216.267 201.598 216.267 Z" fill="#000000" fill-rule="evenodd" fill-opacity="1" /><path clip-path="url(#clip850)" d="M 0 0 M231.76 219.97 Q228.148 219.97 226.32 223.535 Q224.514 227.077 224.514 234.206 Q224.514 241.313 226.32 244.878 Q228.148 248.419 231.76 248.419 Q235.394 248.419 237.199 244.878 Q239.028 241.313 239.028 234.206 Q239.028 227.077 237.199 223.535 Q235.394 219.97 231.76 219.97 M231.76 216.267 Q237.57 216.267 240.625 220.873 Q243.704 225.456 243.704 234.206 Q243.704 242.933 240.625 247.54 Q237.57 252.123 231.76 252.123 Q225.949 252.123 222.871 247.54 Q219.815 242.933 219.815 234.206 Q219.815 225.456 222.871 220.873 Q225.949 216.267 231.76 216.267 Z" fill="#000000" fill-rule="evenodd" fill-opacity="1" /><path clip-path="url(#clip850)" d="M 0 0 M58.657 1029.15 L77.5631 1029.15 L77.5631 1035.04 L28.3562 1035.04 L28.3562 1029.15 L33.7671 1029.15 Q30.5842 1027.3 29.0564 1024.5 Q27.4968 1021.67 27.4968 1017.75 Q27.4968 1011.26 32.6531 1007.22 Q37.8093 1003.14 46.212 1003.14 Q54.6147 1003.14 59.771 1007.22 Q64.9272 1011.26 64.9272 1017.75 Q64.9272 1021.67 63.3994 1024.5 Q61.8398 1027.3 58.657 1029.15 M46.212 1009.22 Q39.7508 1009.22 36.0905 1011.9 Q32.3984 1014.54 32.3984 1019.19 Q32.3984 1023.83 36.0905 1026.51 Q39.7508 1029.15 46.212 1029.15 Q52.6732 1029.15 56.3653 1026.51 Q60.0256 1023.83 60.0256 1019.19 Q60.0256 1014.54 56.3653 1011.9 Q52.6732 1009.22 46.212 1009.22 Z" fill="#000000" fill-rule="evenodd" fill-opacity="1" /><path clip-path="url(#clip850)" d="M 0 0 M33.8307 972.78 Q33.2578 973.767 33.0032 974.944 Q32.7167 976.09 32.7167 977.491 Q32.7167 982.456 35.9632 985.13 Q39.1779 987.771 45.2253 987.771 L64.0042 987.771 L64.0042 993.66 L28.3562 993.66 L28.3562 987.771 L33.8944 987.771 Q30.6479 985.925 29.0883 982.965 Q27.4968 980.005 27.4968 975.772 Q27.4968 975.167 27.5923 974.435 Q27.656 973.703 27.8151 972.812 L33.8307 972.78 Z" fill="#000000" fill-rule="evenodd" fill-opacity="1" /><path clip-path="url(#clip850)" d="M 0 0 M32.4621 954.256 Q32.4621 958.967 36.1542 961.704 Q39.8145 964.441 46.212 964.441 Q52.6095 964.441 56.3017 961.736 Q59.9619 958.998 59.9619 954.256 Q59.9619 949.577 56.2698 946.84 Q52.5777 944.103 46.212 944.103 Q39.8781 944.103 36.186 946.84 Q32.4621 949.577 32.4621 954.256 M27.4968 954.256 Q27.4968 946.617 32.4621 942.257 Q37.4273 937.896 46.212 937.896 Q54.9649 937.896 59.9619 942.257 Q64.9272 946.617 64.9272 954.256 Q64.9272 961.927 59.9619 966.287 Q54.9649 970.616 46.212 970.616 Q37.4273 970.616 32.4621 966.287 Q27.4968 961.927 27.4968 954.256 Z" fill="#000000" fill-rule="evenodd" fill-opacity="1" /><path clip-path="url(#clip850)" d="M 0 0 M46.212 902.598 Q39.7508 902.598 36.0905 905.272 Q32.3984 907.914 32.3984 912.561 Q32.3984 917.208 36.0905 919.881 Q39.7508 922.523 46.212 922.523 Q52.6732 922.523 56.3653 919.881 Q60.0256 917.208 60.0256 912.561 Q60.0256 907.914 56.3653 905.272 Q52.6732 902.598 46.212 902.598 M33.7671 922.523 Q30.5842 920.677 29.0564 917.876 Q27.4968 915.043 27.4968 911.128 Q27.4968 904.635 32.6531 900.593 Q37.8093 896.519 46.212 896.519 Q54.6147 896.519 59.771 900.593 Q64.9272 904.635 64.9272 911.128 Q64.9272 915.043 63.3994 917.876 Q61.8398 920.677 58.657 922.523 L64.0042 922.523 L64.0042 928.411 L14.479 928.411 L14.479 922.523 L33.7671 922.523 Z" fill="#000000" fill-rule="evenodd" fill-opacity="1" /><path clip-path="url(#clip850)" d="M 0 0 M46.0847 870.611 Q46.0847 877.708 47.7079 880.446 Q49.3312 883.183 53.2461 883.183 Q56.3653 883.183 58.2114 881.146 Q60.0256 879.077 60.0256 875.544 Q60.0256 870.674 56.5881 867.746 Q53.1188 864.786 47.3897 864.786 L46.0847 864.786 L46.0847 870.611 M43.6657 858.929 L64.0042 858.929 L64.0042 864.786 L58.5933 864.786 Q61.8398 866.791 63.3994 869.783 Q64.9272 872.775 64.9272 877.104 Q64.9272 882.578 61.8716 885.825 Q58.7843 889.039 53.6281 889.039 Q47.6125 889.039 44.5569 885.029 Q41.5014 880.987 41.5014 872.998 L41.5014 864.786 L40.9285 864.786 Q36.8862 864.786 34.6901 867.46 Q32.4621 870.101 32.4621 874.907 Q32.4621 877.963 33.1941 880.859 Q33.9262 883.756 35.3903 886.429 L29.9795 886.429 Q28.7381 883.215 28.1334 880.191 Q27.4968 877.167 27.4968 874.303 Q27.4968 866.568 31.5072 862.749 Q35.5176 858.929 43.6657 858.929 Z" fill="#000000" fill-rule="evenodd" fill-opacity="1" /><path clip-path="url(#clip850)" d="M 0 0 M46.212 821.276 Q39.7508 821.276 36.0905 823.95 Q32.3984 826.592 32.3984 831.239 Q32.3984 835.886 36.0905 838.559 Q39.7508 841.201 46.212 841.201 Q52.6732 841.201 56.3653 838.559 Q60.0256 835.886 60.0256 831.239 Q60.0256 826.592 56.3653 823.95 Q52.6732 821.276 46.212 821.276 M33.7671 841.201 Q30.5842 839.355 29.0564 836.554 Q27.4968 833.721 27.4968 829.806 Q27.4968 823.313 32.6531 819.271 Q37.8093 815.197 46.212 815.197 Q54.6147 815.197 59.771 819.271 Q64.9272 823.313 64.9272 829.806 Q64.9272 833.721 63.3994 836.554 Q61.8398 839.355 58.657 841.201 L64.0042 841.201 L64.0042 847.089 L14.479 847.089 L14.479 841.201 L33.7671 841.201 Z" fill="#000000" fill-rule="evenodd" fill-opacity="1" /><path clip-path="url(#clip850)" d="M 0 0 M28.3562 805.489 L28.3562 799.633 L64.0042 799.633 L64.0042 805.489 L28.3562 805.489 M14.479 805.489 L14.479 799.633 L21.895 799.633 L21.895 805.489 L14.479 805.489 Z" fill="#000000" fill-rule="evenodd" fill-opacity="1" /><path clip-path="url(#clip850)" d="M 0 0 M14.479 787.379 L14.479 781.522 L64.0042 781.522 L64.0042 787.379 L14.479 787.379 Z" fill="#000000" fill-rule="evenodd" fill-opacity="1" /><path clip-path="url(#clip850)" d="M 0 0 M28.3562 769.268 L28.3562 763.412 L64.0042 763.412 L64.0042 769.268 L28.3562 769.268 M14.479 769.268 L14.479 763.412 L21.895 763.412 L21.895 769.268 L14.479 769.268 Z" fill="#000000" fill-rule="evenodd" fill-opacity="1" /><path clip-path="url(#clip850)" d="M 0 0 M18.2347 745.365 L28.3562 745.365 L28.3562 733.302 L32.9077 733.302 L32.9077 745.365 L52.2594 745.365 Q56.6199 745.365 57.8613 744.188 Q59.1026 742.978 59.1026 739.318 L59.1026 733.302 L64.0042 733.302 L64.0042 739.318 Q64.0042 746.097 61.4897 748.675 Q58.9434 751.254 52.2594 751.254 L32.9077 751.254 L32.9077 755.55 L28.3562 755.55 L28.3562 751.254 L18.2347 751.254 L18.2347 745.365 Z" fill="#000000" fill-rule="evenodd" fill-opacity="1" /><path clip-path="url(#clip850)" d="M 0 0 M67.3143 710.768 Q73.68 713.25 75.6216 715.606 Q77.5631 717.961 77.5631 721.908 L77.5631 726.586 L72.6615 726.586 L72.6615 723.149 Q72.6615 720.73 71.5157 719.393 Q70.3699 718.056 66.1048 716.433 L63.4312 715.383 L28.3562 729.801 L28.3562 723.595 L56.238 712.455 L28.3562 701.315 L28.3562 695.108 L67.3143 710.768 Z" fill="#000000" fill-rule="evenodd" fill-opacity="1" /><path clip-path="url(#clip850)" d="M 0 0 M33.7671 642.846 L14.479 642.846 L14.479 636.989 L64.0042 636.989 L64.0042 642.846 L58.657 642.846 Q61.8398 644.692 63.3994 647.524 Q64.9272 650.325 64.9272 654.272 Q64.9272 660.733 59.771 664.807 Q54.6147 668.849 46.212 668.849 Q37.8093 668.849 32.6531 664.807 Q27.4968 660.733 27.4968 654.272 Q27.4968 650.325 29.0564 647.524 Q30.5842 644.692 33.7671 642.846 M46.212 662.802 Q52.6732 662.802 56.3653 660.16 Q60.0256 657.487 60.0256 652.84 Q60.0256 648.193 56.3653 645.519 Q52.6732 642.846 46.212 642.846 Q39.7508 642.846 36.0905 645.519 Q32.3984 648.193 32.3984 652.84 Q32.3984 657.487 36.0905 660.16 Q39.7508 662.802 46.212 662.802 Z" fill="#000000" fill-rule="evenodd" fill-opacity="1" /><path clip-path="url(#clip850)" d="M 0 0 M44.7161 594.434 L47.5806 594.434 L47.5806 621.361 Q53.6281 620.979 56.8109 617.733 Q59.9619 614.455 59.9619 608.63 Q59.9619 605.256 59.1344 602.105 Q58.3069 598.922 56.6518 595.803 L62.1899 595.803 Q63.5267 598.954 64.227 602.264 Q64.9272 605.574 64.9272 608.98 Q64.9272 617.51 59.9619 622.507 Q54.9967 627.472 46.5303 627.472 Q37.7774 627.472 32.6531 622.762 Q27.4968 618.019 27.4968 609.999 Q27.4968 602.805 32.1438 598.636 Q36.7589 594.434 44.7161 594.434 M42.9973 600.291 Q38.1912 600.354 35.3266 602.996 Q32.4621 605.606 32.4621 609.935 Q32.4621 614.836 35.2312 617.797 Q38.0002 620.725 43.0292 621.17 L42.9973 600.291 Z" fill="#000000" fill-rule="evenodd" fill-opacity="1" /><path clip-path="url(#clip850)" d="M 0 0 M42.4881 555.19 L64.0042 555.19 L64.0042 561.046 L42.679 561.046 Q37.6183 561.046 35.1038 563.02 Q32.5894 564.993 32.5894 568.94 Q32.5894 573.682 35.6131 576.419 Q38.6368 579.157 43.8567 579.157 L64.0042 579.157 L64.0042 585.045 L28.3562 585.045 L28.3562 579.157 L33.8944 579.157 Q30.6797 577.056 29.0883 574.223 Q27.4968 571.359 27.4968 567.635 Q27.4968 561.492 31.3163 558.341 Q35.1038 555.19 42.4881 555.19 Z" fill="#000000" fill-rule="evenodd" fill-opacity="1" /><path clip-path="url(#clip850)" d="M 0 0 M29.4065 520.783 L34.9447 520.783 Q33.6716 523.266 33.035 525.939 Q32.3984 528.613 32.3984 531.478 Q32.3984 535.838 33.7352 538.034 Q35.072 540.199 37.7456 540.199 Q39.7826 540.199 40.9603 538.639 Q42.1061 537.079 43.1565 532.369 L43.6021 530.364 Q44.9389 524.125 47.3897 521.515 Q49.8086 518.873 54.1691 518.873 Q59.1344 518.873 62.0308 522.82 Q64.9272 526.735 64.9272 533.61 Q64.9272 536.475 64.3543 539.594 Q63.8132 542.681 62.6992 546.119 L56.6518 546.119 Q58.3387 542.872 59.198 539.721 Q60.0256 536.57 60.0256 533.483 Q60.0256 529.345 58.6251 527.117 Q57.1929 524.889 54.6147 524.889 Q52.2276 524.889 50.9545 526.512 Q49.6813 528.104 48.5037 533.546 L48.0262 535.583 Q46.8804 541.026 44.5251 543.445 Q42.138 545.864 38.0002 545.864 Q32.9713 545.864 30.2341 542.299 Q27.4968 538.734 27.4968 532.178 Q27.4968 528.931 27.9743 526.067 Q28.4517 523.202 29.4065 520.783 Z" fill="#000000" fill-rule="evenodd" fill-opacity="1" /><path clip-path="url(#clip850)" d="M 0 0 M28.3562 509.548 L28.3562 503.691 L64.0042 503.691 L64.0042 509.548 L28.3562 509.548 M14.479 509.548 L14.479 503.691 L21.895 503.691 L21.895 509.548 L14.479 509.548 Z" fill="#000000" fill-rule="evenodd" fill-opacity="1" /><path clip-path="url(#clip850)" d="M 0 0 M18.2347 485.644 L28.3562 485.644 L28.3562 473.581 L32.9077 473.581 L32.9077 485.644 L52.2594 485.644 Q56.6199 485.644 57.8613 484.467 Q59.1026 483.257 59.1026 479.597 L59.1026 473.581 L64.0042 473.581 L64.0042 479.597 Q64.0042 486.376 61.4897 488.955 Q58.9434 491.533 52.2594 491.533 L32.9077 491.533 L32.9077 495.83 L28.3562 495.83 L28.3562 491.533 L18.2347 491.533 L18.2347 485.644 Z" fill="#000000" fill-rule="evenodd" fill-opacity="1" /><path clip-path="url(#clip850)" d="M 0 0 M67.3143 451.047 Q73.68 453.529 75.6216 455.885 Q77.5631 458.24 77.5631 462.187 L77.5631 466.866 L72.6615 466.866 L72.6615 463.428 Q72.6615 461.009 71.5157 459.672 Q70.3699 458.336 66.1048 456.712 L63.4312 455.662 L28.3562 470.08 L28.3562 463.874 L56.238 452.734 L28.3562 441.594 L28.3562 435.387 L67.3143 451.047 Z" fill="#000000" fill-rule="evenodd" fill-opacity="1" /><polyline clip-path="url(#clip852)" style="stroke:#009af9; stroke-width:4; stroke-opacity:1; fill:none" points="
  369.462,1384.23 378.903,1384.23 388.344,1384.22 397.785,1384.21 407.226,1384.2 416.667,1384.18 426.108,1384.15 435.549,1384.1 444.99,1384.03 454.431,1383.93 
  463.872,1383.79 473.313,1383.6 482.754,1383.32 492.195,1382.95 501.636,1382.44 511.077,1381.75 520.518,1380.84 529.959,1379.63 539.4,1378.07 548.841,1376.05 
  558.282,1373.48 567.723,1370.24 577.164,1366.2 586.605,1361.2 596.046,1355.08 605.487,1347.67 614.928,1338.75 624.369,1328.15 633.81,1315.64 643.251,1301.01 
  652.692,1284.06 662.133,1264.58 671.574,1242.39 681.015,1217.31 690.456,1189.21 699.897,1157.98 709.338,1123.56 718.779,1085.93 728.22,1045.14 737.661,1001.29 
  747.102,954.547 756.543,905.145 765.984,853.387 775.425,799.64 784.866,744.333 794.307,687.95 803.748,631.019 813.189,574.108 822.63,517.808 832.071,462.724 
  841.512,409.462 850.953,358.617 860.394,310.763 869.835,266.44 879.276,226.146 888.717,190.329 898.158,159.376 907.599,133.61 917.04,113.279 926.481,98.5545 
  935.922,89.5236 945.363,86.1857 954.804,88.4502 964.245,96.1364 973.685,108.975 983.126,126.612 992.567,148.619 1002.01,174.503 1011.45,203.72 1020.89,235.691 
  1030.33,269.823 1039.77,305.522 1049.21,342.217 1058.65,379.371 1068.1,416.499 1077.54,453.178 1086.98,489.049 1096.42,523.826 1105.86,557.295 1115.3,589.305 
  1124.74,619.766 1134.18,648.641 1143.62,675.935 1153.06,701.686 1162.51,725.96 1171.95,748.84 1181.39,770.422 1190.83,790.81 1200.27,810.113 1209.71,828.442 
  1219.15,845.911 1228.59,862.635 1238.03,878.726 1247.47,894.301 1256.92,909.47 1266.36,924.343 1275.8,939.023 1285.24,953.604 1294.68,968.168 1304.12,982.782 
  1313.56,997.489 1323,1012.31 1332.44,1027.24 1341.88,1042.24 1351.33,1057.24 1360.77,1072.12 1370.21,1086.75 1379.65,1100.96 1389.09,1114.53 1398.53,1127.25 
  1407.97,1138.86 1417.41,1149.11 1426.85,1157.73 1436.29,1164.44 1445.74,1169 1455.18,1171.15 1464.62,1170.68 1474.06,1167.38 1483.5,1161.1 1492.94,1151.68 
  1502.38,1139.06 1511.82,1123.17 1521.26,1104.03 1530.7,1081.67 1540.15,1056.22 1549.59,1027.82 1559.03,996.725 1568.47,963.2 1577.91,927.596 1587.35,890.313 
  1596.79,851.803 1606.23,812.562 1615.67,773.119 1625.11,734.029 1634.56,695.853 1644,659.15 1653.44,624.463 1662.88,592.303 1672.32,563.141 1681.76,537.393 
  1691.2,515.42 1700.64,497.517 1710.08,483.916 1719.52,474.782 1728.97,470.219 1738.41,470.272 1747.85,474.93 1757.29,484.134 1766.73,497.776 1776.17,515.707 
  1785.61,537.734 1795.05,563.623 1804.49,593.099 1813.93,625.846 1823.38,661.505 1832.82,699.678 1842.26,739.927 1851.7,781.784 1861.14,824.753 1870.58,868.322 
  1880.02,911.974 1889.46,955.199 1898.9,997.507 1908.34,1038.45 1917.79,1077.61 1927.23,1114.64 1936.67,1149.26 1946.11,1181.26 1955.55,1210.49 1964.99,1236.89 
  1974.43,1260.45 1983.87,1281.24 1993.31,1299.37 2002.75,1315 2012.2,1328.31 2021.64,1339.52 2031.08,1348.85 2040.52,1356.52 2049.96,1362.75 2059.4,1367.76 
  2068.84,1371.73 2078.28,1374.85 2087.72,1377.26 2097.16,1379.11 2106.61,1380.51 2116.05,1381.56 2125.49,1382.34 2134.93,1382.9 2144.37,1383.31 2153.81,1383.6 
  2163.25,1383.8 2172.69,1383.95 2182.13,1384.04 2191.57,1384.11 2201.02,1384.16 2210.46,1384.18 2219.9,1384.2 2229.34,1384.22 2238.78,1384.22 2248.22,1384.23 
  
  "/>
<polyline clip-path="url(#clip852)" style="stroke:#e26f46; stroke-width:4; stroke-opacity:1; fill:none" points="
  338.375,1384.24 348.203,1384.24 358.031,1384.24 367.858,1384.24 377.686,1384.23 387.514,1384.23 397.341,1384.22 407.169,1384.2 416.997,1384.17 426.824,1384.12 
  436.652,1384.03 446.48,1383.9 456.307,1383.7 466.135,1383.41 475.963,1382.99 485.79,1382.41 495.618,1381.62 505.446,1380.54 515.274,1379.1 525.101,1377.22 
  534.929,1374.81 544.757,1371.75 554.584,1367.95 564.412,1363.3 574.24,1357.69 584.067,1351.01 593.895,1343.16 603.723,1334.02 613.55,1323.46 623.378,1311.36 
  633.206,1297.55 643.033,1281.87 652.861,1264.13 662.689,1244.16 672.517,1221.73 682.344,1196.64 692.172,1168.63 702,1137.5 711.827,1103.03 721.655,1065.07 
  731.483,1023.58 741.31,978.578 751.138,930.244 760.966,878.882 770.793,824.94 780.621,768.998 790.449,711.752 800.276,653.981 810.104,596.504 819.932,540.137 
  829.759,485.638 839.587,433.663 849.415,384.739 859.243,339.25 869.07,297.467 878.898,259.6 888.726,225.87 898.553,196.562 908.381,172.041 918.209,152.721 
  928.036,138.987 937.864,131.109 947.692,129.163 957.519,133.007 967.347,142.295 977.175,156.528 987.002,175.115 996.83,197.434 1006.66,222.862 1016.49,250.792 
  1026.31,280.642 1036.14,311.859 1045.97,343.945 1055.8,376.476 1065.62,409.122 1075.45,441.65 1085.28,473.897 1095.11,505.741 1104.93,537.068 1114.76,567.751 
  1124.59,597.659 1134.42,626.672 1144.25,654.701 1154.07,681.696 1163.9,707.638 1173.73,732.529 1183.56,756.371 1193.38,779.171 1203.21,800.948 1213.04,821.745 
  1222.87,841.635 1232.69,860.716 1242.52,879.099 1252.35,896.89 1262.18,914.165 1272.01,930.968 1281.83,947.303 1291.66,963.149 1301.49,978.483 1311.32,993.311 
  1321.14,1007.7 1330.97,1021.78 1340.8,1035.71 1350.63,1049.66 1360.45,1063.68 1370.28,1077.71 1380.11,1091.51 1389.94,1104.71 1399.77,1116.86 1409.59,1127.55 
  1419.42,1136.41 1429.25,1143.2 1439.08,1147.76 1448.9,1150.01 1458.73,1149.85 1468.56,1147.17 1478.39,1141.83 1488.21,1133.68 1498.04,1122.6 1507.87,1108.51 
  1517.7,1091.42 1527.53,1071.4 1537.35,1048.58 1547.18,1023.14 1557.01,995.207 1566.84,964.918 1576.66,932.358 1586.49,897.609 1596.32,860.811 1606.15,822.229 
  1615.97,782.326 1625.8,741.791 1635.63,701.528 1645.46,662.589 1655.29,626.081 1665.11,593.059 1674.94,564.43 1684.77,540.884 1694.6,522.844 1704.42,510.445 
  1714.25,503.545 1724.08,501.763 1733.91,504.561 1743.73,511.351 1753.56,521.604 1763.39,534.944 1773.22,551.184 1783.04,570.306 1792.87,592.387 1802.7,617.513 
  1812.53,645.699 1822.36,676.851 1832.18,710.763 1842.01,747.138 1851.84,785.622 1861.67,825.815 1871.49,867.273 1881.32,909.497 1891.15,951.918 1900.98,993.907 
  1910.8,1034.8 1920.63,1073.94 1930.46,1110.78 1940.29,1144.87 1950.12,1175.97 1959.94,1204.04 1969.77,1229.15 1979.6,1251.51 1989.43,1271.36 1999.25,1288.94 
  2009.08,1304.44 2018.91,1318.03 2028.74,1329.85 2038.56,1340.02 2048.39,1348.67 2058.22,1355.95 2068.05,1361.98 2077.88,1366.93 2087.7,1370.94 2097.53,1374.14 
  2107.36,1376.67 2117.19,1378.64 2127.01,1380.16 2136.84,1381.32 2146.67,1382.19 2156.5,1382.83 2166.32,1383.3 2176.15,1383.63 2185.98,1383.85 2195.81,1384 
  2205.64,1384.1 2215.46,1384.16 2225.29,1384.2 2235.12,1384.22 2244.95,1384.23 2254.77,1384.23 2264.6,1384.24 2274.43,1384.24 2284.26,1384.24 2294.08,1384.24 
  
  "/>
<path clip-path="url(#clip850)" d="
M1118.34 274.549 L2283.65 274.549 L2283.65 93.1086 L1118.34 93.1086  Z
  " fill="#ffffff" fill-rule="evenodd" fill-opacity="1"/>
<polyline clip-path="url(#clip850)" style="stroke:#000000; stroke-width:4; stroke-opacity:1; fill:none" points="
  1118.34,274.549 2283.65,274.549 2283.65,93.1086 1118.34,93.1086 1118.34,274.549 
  "/>
<polyline clip-path="url(#clip850)" style="stroke:#009af9; stroke-width:4; stroke-opacity:1; fill:none" points="
  1141.38,153.589 1279.58,153.589 
  "/>
<path clip-path="url(#clip850)" d="M 0 0 M1303.29 166.933 L1310.92 166.933 L1310.92 140.568 L1302.61 142.235 L1302.61 137.975 L1310.88 136.309 L1315.55 136.309 L1315.55 166.933 L1323.19 166.933 L1323.19 170.869 L1303.29 170.869 L1303.29 166.933 Z" fill="#000000" fill-rule="evenodd" fill-opacity="1" /><path clip-path="url(#clip850)" d="M 0 0 M1342.64 139.387 Q1339.03 139.387 1337.2 142.952 Q1335.39 146.494 1335.39 153.623 Q1335.39 160.73 1337.2 164.295 Q1339.03 167.836 1342.64 167.836 Q1346.27 167.836 1348.08 164.295 Q1349.91 160.73 1349.91 153.623 Q1349.91 146.494 1348.08 142.952 Q1346.27 139.387 1342.64 139.387 M1342.64 135.684 Q1348.45 135.684 1351.5 140.29 Q1354.58 144.873 1354.58 153.623 Q1354.58 162.35 1351.5 166.957 Q1348.45 171.54 1342.64 171.54 Q1336.83 171.54 1333.75 166.957 Q1330.69 162.35 1330.69 153.623 Q1330.69 144.873 1333.75 140.29 Q1336.83 135.684 1342.64 135.684 Z" fill="#000000" fill-rule="evenodd" fill-opacity="1" /><path clip-path="url(#clip850)" d="M 0 0 M1372.8 139.387 Q1369.19 139.387 1367.36 142.952 Q1365.55 146.494 1365.55 153.623 Q1365.55 160.73 1367.36 164.295 Q1369.19 167.836 1372.8 167.836 Q1376.43 167.836 1378.24 164.295 Q1380.07 160.73 1380.07 153.623 Q1380.07 146.494 1378.24 142.952 Q1376.43 139.387 1372.8 139.387 M1372.8 135.684 Q1378.61 135.684 1381.67 140.29 Q1384.74 144.873 1384.74 153.623 Q1384.74 162.35 1381.67 166.957 Q1378.61 171.54 1372.8 171.54 Q1366.99 171.54 1363.91 166.957 Q1360.85 162.35 1360.85 153.623 Q1360.85 144.873 1363.91 140.29 Q1366.99 135.684 1372.8 135.684 Z" fill="#000000" fill-rule="evenodd" fill-opacity="1" /><path clip-path="url(#clip850)" d="M 0 0 M1402.96 139.387 Q1399.35 139.387 1397.52 142.952 Q1395.72 146.494 1395.72 153.623 Q1395.72 160.73 1397.52 164.295 Q1399.35 167.836 1402.96 167.836 Q1406.6 167.836 1408.4 164.295 Q1410.23 160.73 1410.23 153.623 Q1410.23 146.494 1408.4 142.952 Q1406.6 139.387 1402.96 139.387 M1402.96 135.684 Q1408.77 135.684 1411.83 140.29 Q1414.91 144.873 1414.91 153.623 Q1414.91 162.35 1411.83 166.957 Q1408.77 171.54 1402.96 171.54 Q1397.15 171.54 1394.07 166.957 Q1391.02 162.35 1391.02 153.623 Q1391.02 144.873 1394.07 140.29 Q1397.15 135.684 1402.96 135.684 Z" fill="#000000" fill-rule="evenodd" fill-opacity="1" /><path clip-path="url(#clip850)" d="M 0 0 M1433.12 139.387 Q1429.51 139.387 1427.68 142.952 Q1425.88 146.494 1425.88 153.623 Q1425.88 160.73 1427.68 164.295 Q1429.51 167.836 1433.12 167.836 Q1436.76 167.836 1438.56 164.295 Q1440.39 160.73 1440.39 153.623 Q1440.39 146.494 1438.56 142.952 Q1436.76 139.387 1433.12 139.387 M1433.12 135.684 Q1438.93 135.684 1441.99 140.29 Q1445.07 144.873 1445.07 153.623 Q1445.07 162.35 1441.99 166.957 Q1438.93 171.54 1433.12 171.54 Q1427.31 171.54 1424.23 166.957 Q1421.18 162.35 1421.18 153.623 Q1421.18 144.873 1424.23 140.29 Q1427.31 135.684 1433.12 135.684 Z" fill="#000000" fill-rule="evenodd" fill-opacity="1" /><path clip-path="url(#clip850)" d="M 0 0 M1487.94 149.92 Q1489.53 147.049 1491.76 145.684 Q1493.98 144.318 1496.99 144.318 Q1501.04 144.318 1503.24 147.165 Q1505.44 149.989 1505.44 155.221 L1505.44 170.869 L1501.16 170.869 L1501.16 155.359 Q1501.16 151.633 1499.84 149.827 Q1498.52 148.022 1495.81 148.022 Q1492.5 148.022 1490.58 150.221 Q1488.66 152.42 1488.66 156.216 L1488.66 170.869 L1484.37 170.869 L1484.37 155.359 Q1484.37 151.609 1483.05 149.827 Q1481.73 148.022 1478.98 148.022 Q1475.72 148.022 1473.79 150.244 Q1471.87 152.443 1471.87 156.216 L1471.87 170.869 L1467.59 170.869 L1467.59 144.943 L1471.87 144.943 L1471.87 148.971 Q1473.33 146.586 1475.37 145.452 Q1477.41 144.318 1480.21 144.318 Q1483.03 144.318 1485 145.753 Q1486.99 147.188 1487.94 149.92 Z" fill="#000000" fill-rule="evenodd" fill-opacity="1" /><path clip-path="url(#clip850)" d="M 0 0 M1513.93 144.943 L1518.19 144.943 L1518.19 170.869 L1513.93 170.869 L1513.93 144.943 M1513.93 134.85 L1518.19 134.85 L1518.19 140.244 L1513.93 140.244 L1513.93 134.85 Z" fill="#000000" fill-rule="evenodd" fill-opacity="1" /><path clip-path="url(#clip850)" d="M 0 0 M1548.65 144.943 L1539.28 157.559 L1549.14 170.869 L1544.12 170.869 L1536.57 160.683 L1529.03 170.869 L1524 170.869 L1534.07 157.304 L1524.86 144.943 L1529.88 144.943 L1536.76 154.179 L1543.63 144.943 L1548.65 144.943 Z" fill="#000000" fill-rule="evenodd" fill-opacity="1" /><path clip-path="url(#clip850)" d="M 0 0 M1559.37 137.582 L1559.37 144.943 L1568.15 144.943 L1568.15 148.253 L1559.37 148.253 L1559.37 162.327 Q1559.37 165.498 1560.23 166.401 Q1561.11 167.304 1563.77 167.304 L1568.15 167.304 L1568.15 170.869 L1563.77 170.869 Q1558.84 170.869 1556.96 169.04 Q1555.09 167.188 1555.09 162.327 L1555.09 148.253 L1551.97 148.253 L1551.97 144.943 L1555.09 144.943 L1555.09 137.582 L1559.37 137.582 Z" fill="#000000" fill-rule="evenodd" fill-opacity="1" /><path clip-path="url(#clip850)" d="M 0 0 M1573.31 160.637 L1573.31 144.943 L1577.57 144.943 L1577.57 160.475 Q1577.57 164.156 1579 166.008 Q1580.44 167.836 1583.31 167.836 Q1586.76 167.836 1588.75 165.637 Q1590.76 163.438 1590.76 159.642 L1590.76 144.943 L1595.02 144.943 L1595.02 170.869 L1590.76 170.869 L1590.76 166.887 Q1589.21 169.248 1587.15 170.406 Q1585.11 171.54 1582.4 171.54 Q1577.94 171.54 1575.62 168.762 Q1573.31 165.984 1573.31 160.637 M1584.03 144.318 L1584.03 144.318 Z" fill="#000000" fill-rule="evenodd" fill-opacity="1" /><path clip-path="url(#clip850)" d="M 0 0 M1618.82 148.924 Q1618.1 148.508 1617.24 148.322 Q1616.41 148.114 1615.39 148.114 Q1611.78 148.114 1609.84 150.475 Q1607.91 152.813 1607.91 157.211 L1607.91 170.869 L1603.63 170.869 L1603.63 144.943 L1607.91 144.943 L1607.91 148.971 Q1609.26 146.609 1611.41 145.475 Q1613.56 144.318 1616.64 144.318 Q1617.08 144.318 1617.61 144.387 Q1618.15 144.434 1618.79 144.549 L1618.82 148.924 Z" fill="#000000" fill-rule="evenodd" fill-opacity="1" /><path clip-path="url(#clip850)" d="M 0 0 M1644.42 156.841 L1644.42 158.924 L1624.84 158.924 Q1625.11 163.322 1627.47 165.637 Q1629.86 167.929 1634.09 167.929 Q1636.55 167.929 1638.84 167.327 Q1641.15 166.725 1643.42 165.521 L1643.42 169.549 Q1641.13 170.521 1638.72 171.031 Q1636.32 171.54 1633.84 171.54 Q1627.64 171.54 1624 167.929 Q1620.39 164.318 1620.39 158.16 Q1620.39 151.795 1623.82 148.068 Q1627.27 144.318 1633.1 144.318 Q1638.33 144.318 1641.36 147.697 Q1644.42 151.054 1644.42 156.841 M1640.16 155.591 Q1640.11 152.096 1638.19 150.012 Q1636.29 147.929 1633.15 147.929 Q1629.58 147.929 1627.43 149.943 Q1625.3 151.957 1624.97 155.614 L1640.16 155.591 Z" fill="#000000" fill-rule="evenodd" fill-opacity="1" /><path clip-path="url(#clip850)" d="M 0 0 M1686.66 149.92 Q1688.26 147.049 1690.48 145.684 Q1692.71 144.318 1695.71 144.318 Q1699.77 144.318 1701.96 147.165 Q1704.16 149.989 1704.16 155.221 L1704.16 170.869 L1699.88 170.869 L1699.88 155.359 Q1699.88 151.633 1698.56 149.827 Q1697.24 148.022 1694.53 148.022 Q1691.22 148.022 1689.3 150.221 Q1687.38 152.42 1687.38 156.216 L1687.38 170.869 L1683.1 170.869 L1683.1 155.359 Q1683.1 151.609 1681.78 149.827 Q1680.46 148.022 1677.71 148.022 Q1674.44 148.022 1672.52 150.244 Q1670.6 152.443 1670.6 156.216 L1670.6 170.869 L1666.32 170.869 L1666.32 144.943 L1670.6 144.943 L1670.6 148.971 Q1672.06 146.586 1674.09 145.452 Q1676.13 144.318 1678.93 144.318 Q1681.76 144.318 1683.72 145.753 Q1685.71 147.188 1686.66 149.92 Z" fill="#000000" fill-rule="evenodd" fill-opacity="1" /><path clip-path="url(#clip850)" d="M 0 0 M1722.7 147.929 Q1719.28 147.929 1717.29 150.614 Q1715.3 153.276 1715.3 157.929 Q1715.3 162.582 1717.27 165.267 Q1719.26 167.929 1722.7 167.929 Q1726.11 167.929 1728.1 165.244 Q1730.09 162.558 1730.09 157.929 Q1730.09 153.322 1728.1 150.637 Q1726.11 147.929 1722.7 147.929 M1722.7 144.318 Q1728.26 144.318 1731.43 147.929 Q1734.6 151.54 1734.6 157.929 Q1734.6 164.295 1731.43 167.929 Q1728.26 171.54 1722.7 171.54 Q1717.13 171.54 1713.95 167.929 Q1710.81 164.295 1710.81 157.929 Q1710.81 151.54 1713.95 147.929 Q1717.13 144.318 1722.7 144.318 Z" fill="#000000" fill-rule="evenodd" fill-opacity="1" /><path clip-path="url(#clip850)" d="M 0 0 M1758.72 148.878 L1758.72 134.85 L1762.98 134.85 L1762.98 170.869 L1758.72 170.869 L1758.72 166.98 Q1757.38 169.295 1755.32 170.429 Q1753.28 171.54 1750.41 171.54 Q1745.71 171.54 1742.75 167.79 Q1739.81 164.04 1739.81 157.929 Q1739.81 151.818 1742.75 148.068 Q1745.71 144.318 1750.41 144.318 Q1753.28 144.318 1755.32 145.452 Q1757.38 146.563 1758.72 148.878 M1744.21 157.929 Q1744.21 162.628 1746.13 165.313 Q1748.08 167.975 1751.45 167.975 Q1754.83 167.975 1756.78 165.313 Q1758.72 162.628 1758.72 157.929 Q1758.72 153.23 1756.78 150.568 Q1754.83 147.883 1751.45 147.883 Q1748.08 147.883 1746.13 150.568 Q1744.21 153.23 1744.21 157.929 Z" fill="#000000" fill-rule="evenodd" fill-opacity="1" /><path clip-path="url(#clip850)" d="M 0 0 M1793.93 156.841 L1793.93 158.924 L1774.35 158.924 Q1774.63 163.322 1776.99 165.637 Q1779.37 167.929 1783.61 167.929 Q1786.06 167.929 1788.35 167.327 Q1790.67 166.725 1792.94 165.521 L1792.94 169.549 Q1790.64 170.521 1788.24 171.031 Q1785.83 171.54 1783.35 171.54 Q1777.15 171.54 1773.51 167.929 Q1769.9 164.318 1769.9 158.16 Q1769.9 151.795 1773.33 148.068 Q1776.78 144.318 1782.61 144.318 Q1787.84 144.318 1790.88 147.697 Q1793.93 151.054 1793.93 156.841 M1789.67 155.591 Q1789.63 152.096 1787.7 150.012 Q1785.81 147.929 1782.66 147.929 Q1779.09 147.929 1776.94 149.943 Q1774.81 151.957 1774.49 155.614 L1789.67 155.591 Z" fill="#000000" fill-rule="evenodd" fill-opacity="1" /><path clip-path="url(#clip850)" d="M 0 0 M1800.92 134.85 L1805.18 134.85 L1805.18 170.869 L1800.92 170.869 L1800.92 134.85 Z" fill="#000000" fill-rule="evenodd" fill-opacity="1" /><path clip-path="url(#clip850)" d="M 0 0 M1839.39 134.897 Q1836.29 140.221 1834.79 145.429 Q1833.28 150.637 1833.28 155.984 Q1833.28 161.332 1834.79 166.586 Q1836.32 171.818 1839.39 177.119 L1835.69 177.119 Q1832.22 171.679 1830.48 166.424 Q1828.77 161.17 1828.77 155.984 Q1828.77 150.822 1830.48 145.591 Q1832.2 140.36 1835.69 134.897 L1839.39 134.897 Z" fill="#000000" fill-rule="evenodd" fill-opacity="1" /><path clip-path="url(#clip850)" d="M 0 0 M1847.84 136.309 L1854.81 136.309 L1863.63 159.827 L1872.5 136.309 L1879.46 136.309 L1879.46 170.869 L1874.9 170.869 L1874.9 140.522 L1865.99 164.225 L1861.29 164.225 L1852.38 140.522 L1852.38 170.869 L1847.84 170.869 L1847.84 136.309 Z" fill="#000000" fill-rule="evenodd" fill-opacity="1" /><path clip-path="url(#clip850)" d="M 0 0 M1887.89 134.897 L1891.59 134.897 Q1895.07 140.36 1896.78 145.591 Q1898.51 150.822 1898.51 155.984 Q1898.51 161.17 1896.78 166.424 Q1895.07 171.679 1891.59 177.119 L1887.89 177.119 Q1890.97 171.818 1892.47 166.586 Q1894 161.332 1894 155.984 Q1894 150.637 1892.47 145.429 Q1890.97 140.221 1887.89 134.897 Z" fill="#000000" fill-rule="evenodd" fill-opacity="1" /><path clip-path="url(#clip850)" d="M 0 0 M1938.65 145.707 L1938.65 149.734 Q1936.85 148.809 1934.9 148.346 Q1932.96 147.883 1930.88 147.883 Q1927.7 147.883 1926.11 148.855 Q1924.53 149.827 1924.53 151.771 Q1924.53 153.253 1925.67 154.109 Q1926.8 154.943 1930.23 155.707 L1931.69 156.031 Q1936.22 157.003 1938.12 158.785 Q1940.04 160.545 1940.04 163.716 Q1940.04 167.327 1937.17 169.433 Q1934.32 171.54 1929.32 171.54 Q1927.24 171.54 1924.97 171.123 Q1922.73 170.73 1920.23 169.92 L1920.23 165.521 Q1922.59 166.748 1924.88 167.373 Q1927.17 167.975 1929.42 167.975 Q1932.43 167.975 1934.05 166.957 Q1935.67 165.915 1935.67 164.04 Q1935.67 162.304 1934.49 161.378 Q1933.33 160.452 1929.37 159.596 L1927.89 159.248 Q1923.93 158.415 1922.17 156.702 Q1920.41 154.966 1920.41 151.957 Q1920.41 148.299 1923 146.309 Q1925.6 144.318 1930.37 144.318 Q1932.73 144.318 1934.81 144.665 Q1936.89 145.012 1938.65 145.707 Z" fill="#000000" fill-rule="evenodd" fill-opacity="1" /><path clip-path="url(#clip850)" d="M 0 0 M1958.61 157.836 Q1953.44 157.836 1951.45 159.017 Q1949.46 160.197 1949.46 163.045 Q1949.46 165.313 1950.94 166.656 Q1952.45 167.975 1955.02 167.975 Q1958.56 167.975 1960.69 165.475 Q1962.84 162.952 1962.84 158.785 L1962.84 157.836 L1958.61 157.836 M1967.1 156.077 L1967.1 170.869 L1962.84 170.869 L1962.84 166.933 Q1961.38 169.295 1959.21 170.429 Q1957.03 171.54 1953.88 171.54 Q1949.9 171.54 1947.54 169.318 Q1945.2 167.072 1945.2 163.322 Q1945.2 158.947 1948.12 156.725 Q1951.06 154.503 1956.87 154.503 L1962.84 154.503 L1962.84 154.086 Q1962.84 151.147 1960.9 149.549 Q1958.98 147.929 1955.48 147.929 Q1953.26 147.929 1951.15 148.461 Q1949.05 148.994 1947.1 150.059 L1947.1 146.123 Q1949.44 145.221 1951.64 144.781 Q1953.84 144.318 1955.92 144.318 Q1961.55 144.318 1964.32 147.234 Q1967.1 150.151 1967.1 156.077 Z" fill="#000000" fill-rule="evenodd" fill-opacity="1" /><path clip-path="url(#clip850)" d="M 0 0 M1996.06 149.92 Q1997.66 147.049 1999.88 145.684 Q2002.1 144.318 2005.11 144.318 Q2009.16 144.318 2011.36 147.165 Q2013.56 149.989 2013.56 155.221 L2013.56 170.869 L2009.28 170.869 L2009.28 155.359 Q2009.28 151.633 2007.96 149.827 Q2006.64 148.022 2003.93 148.022 Q2000.62 148.022 1998.7 150.221 Q1996.78 152.42 1996.78 156.216 L1996.78 170.869 L1992.5 170.869 L1992.5 155.359 Q1992.5 151.609 1991.18 149.827 Q1989.86 148.022 1987.1 148.022 Q1983.84 148.022 1981.92 150.244 Q1980 152.443 1980 156.216 L1980 170.869 L1975.71 170.869 L1975.71 144.943 L1980 144.943 L1980 148.971 Q1981.45 146.586 1983.49 145.452 Q1985.53 144.318 1988.33 144.318 Q1991.15 144.318 1993.12 145.753 Q1995.11 147.188 1996.06 149.92 Z" fill="#000000" fill-rule="evenodd" fill-opacity="1" /><path clip-path="url(#clip850)" d="M 0 0 M2026.18 166.98 L2026.18 180.73 L2021.89 180.73 L2021.89 144.943 L2026.18 144.943 L2026.18 148.878 Q2027.52 146.563 2029.56 145.452 Q2031.62 144.318 2034.46 144.318 Q2039.18 144.318 2042.12 148.068 Q2045.09 151.818 2045.09 157.929 Q2045.09 164.04 2042.12 167.79 Q2039.18 171.54 2034.46 171.54 Q2031.62 171.54 2029.56 170.429 Q2027.52 169.295 2026.18 166.98 M2040.67 157.929 Q2040.67 153.23 2038.72 150.568 Q2036.8 147.883 2033.42 147.883 Q2030.04 147.883 2028.1 150.568 Q2026.18 153.23 2026.18 157.929 Q2026.18 162.628 2028.1 165.313 Q2030.04 167.975 2033.42 167.975 Q2036.8 167.975 2038.72 165.313 Q2040.67 162.628 2040.67 157.929 Z" fill="#000000" fill-rule="evenodd" fill-opacity="1" /><path clip-path="url(#clip850)" d="M 0 0 M2052.15 134.85 L2056.41 134.85 L2056.41 170.869 L2052.15 170.869 L2052.15 134.85 Z" fill="#000000" fill-rule="evenodd" fill-opacity="1" /><path clip-path="url(#clip850)" d="M 0 0 M2087.49 156.841 L2087.49 158.924 L2067.91 158.924 Q2068.19 163.322 2070.55 165.637 Q2072.93 167.929 2077.17 167.929 Q2079.62 167.929 2081.92 167.327 Q2084.23 166.725 2086.5 165.521 L2086.5 169.549 Q2084.21 170.521 2081.8 171.031 Q2079.39 171.54 2076.92 171.54 Q2070.71 171.54 2067.08 167.929 Q2063.47 164.318 2063.47 158.16 Q2063.47 151.795 2066.89 148.068 Q2070.34 144.318 2076.18 144.318 Q2081.41 144.318 2084.44 147.697 Q2087.49 151.054 2087.49 156.841 M2083.24 155.591 Q2083.19 152.096 2081.27 150.012 Q2079.37 147.929 2076.22 147.929 Q2072.66 147.929 2070.5 149.943 Q2068.37 151.957 2068.05 155.614 L2083.24 155.591 Z" fill="#000000" fill-rule="evenodd" fill-opacity="1" /><path clip-path="url(#clip850)" d="M 0 0 M2111.01 145.707 L2111.01 149.734 Q2109.21 148.809 2107.26 148.346 Q2105.32 147.883 2103.24 147.883 Q2100.06 147.883 2098.47 148.855 Q2096.89 149.827 2096.89 151.771 Q2096.89 153.253 2098.03 154.109 Q2099.16 154.943 2102.59 155.707 L2104.05 156.031 Q2108.58 157.003 2110.48 158.785 Q2112.4 160.545 2112.4 163.716 Q2112.4 167.327 2109.53 169.433 Q2106.68 171.54 2101.68 171.54 Q2099.6 171.54 2097.33 171.123 Q2095.09 170.73 2092.59 169.92 L2092.59 165.521 Q2094.95 166.748 2097.24 167.373 Q2099.53 167.975 2101.78 167.975 Q2104.79 167.975 2106.41 166.957 Q2108.03 165.915 2108.03 164.04 Q2108.03 162.304 2106.85 161.378 Q2105.69 160.452 2101.73 159.596 L2100.25 159.248 Q2096.29 158.415 2094.53 156.702 Q2092.77 154.966 2092.77 151.957 Q2092.77 148.299 2095.36 146.309 Q2097.96 144.318 2102.73 144.318 Q2105.09 144.318 2107.17 144.665 Q2109.25 145.012 2111.01 145.707 Z" fill="#000000" fill-rule="evenodd" fill-opacity="1" /><polyline clip-path="url(#clip850)" style="stroke:#e26f46; stroke-width:4; stroke-opacity:1; fill:none" points="
  1141.38,214.069 1279.58,214.069 
  "/>
<path clip-path="url(#clip850)" d="M 0 0 M1304.07 196.789 L1322.43 196.789 L1322.43 200.724 L1308.36 200.724 L1308.36 209.196 Q1309.37 208.849 1310.39 208.687 Q1311.41 208.502 1312.43 208.502 Q1318.22 208.502 1321.6 211.673 Q1324.98 214.844 1324.98 220.261 Q1324.98 225.839 1321.5 228.941 Q1318.03 232.02 1311.71 232.02 Q1309.54 232.02 1307.27 231.65 Q1305.02 231.279 1302.61 230.538 L1302.61 225.839 Q1304.7 226.974 1306.92 227.529 Q1309.14 228.085 1311.62 228.085 Q1315.62 228.085 1317.96 225.978 Q1320.3 223.872 1320.3 220.261 Q1320.3 216.65 1317.96 214.543 Q1315.62 212.437 1311.62 212.437 Q1309.74 212.437 1307.87 212.853 Q1306.02 213.27 1304.07 214.15 L1304.07 196.789 Z" fill="#000000" fill-rule="evenodd" fill-opacity="1" /><path clip-path="url(#clip850)" d="M 0 0 M1344.19 199.867 Q1340.58 199.867 1338.75 203.432 Q1336.94 206.974 1336.94 214.103 Q1336.94 221.21 1338.75 224.775 Q1340.58 228.316 1344.19 228.316 Q1347.82 228.316 1349.63 224.775 Q1351.46 221.21 1351.46 214.103 Q1351.46 206.974 1349.63 203.432 Q1347.82 199.867 1344.19 199.867 M1344.19 196.164 Q1350 196.164 1353.05 200.77 Q1356.13 205.353 1356.13 214.103 Q1356.13 222.83 1353.05 227.437 Q1350 232.02 1344.19 232.02 Q1338.38 232.02 1335.3 227.437 Q1332.24 222.83 1332.24 214.103 Q1332.24 205.353 1335.3 200.77 Q1338.38 196.164 1344.19 196.164 Z" fill="#000000" fill-rule="evenodd" fill-opacity="1" /><path clip-path="url(#clip850)" d="M 0 0 M1374.35 199.867 Q1370.74 199.867 1368.91 203.432 Q1367.1 206.974 1367.1 214.103 Q1367.1 221.21 1368.91 224.775 Q1370.74 228.316 1374.35 228.316 Q1377.98 228.316 1379.79 224.775 Q1381.62 221.21 1381.62 214.103 Q1381.62 206.974 1379.79 203.432 Q1377.98 199.867 1374.35 199.867 M1374.35 196.164 Q1380.16 196.164 1383.22 200.77 Q1386.29 205.353 1386.29 214.103 Q1386.29 222.83 1383.22 227.437 Q1380.16 232.02 1374.35 232.02 Q1368.54 232.02 1365.46 227.437 Q1362.41 222.83 1362.41 214.103 Q1362.41 205.353 1365.46 200.77 Q1368.54 196.164 1374.35 196.164 Z" fill="#000000" fill-rule="evenodd" fill-opacity="1" /><path clip-path="url(#clip850)" d="M 0 0 M1404.51 199.867 Q1400.9 199.867 1399.07 203.432 Q1397.27 206.974 1397.27 214.103 Q1397.27 221.21 1399.07 224.775 Q1400.9 228.316 1404.51 228.316 Q1408.15 228.316 1409.95 224.775 Q1411.78 221.21 1411.78 214.103 Q1411.78 206.974 1409.95 203.432 Q1408.15 199.867 1404.51 199.867 M1404.51 196.164 Q1410.32 196.164 1413.38 200.77 Q1416.46 205.353 1416.46 214.103 Q1416.46 222.83 1413.38 227.437 Q1410.32 232.02 1404.51 232.02 Q1398.7 232.02 1395.62 227.437 Q1392.57 222.83 1392.57 214.103 Q1392.57 205.353 1395.62 200.77 Q1398.7 196.164 1404.51 196.164 Z" fill="#000000" fill-rule="evenodd" fill-opacity="1" /><path clip-path="url(#clip850)" d="M 0 0 M1434.67 199.867 Q1431.06 199.867 1429.23 203.432 Q1427.43 206.974 1427.43 214.103 Q1427.43 221.21 1429.23 224.775 Q1431.06 228.316 1434.67 228.316 Q1438.31 228.316 1440.11 224.775 Q1441.94 221.21 1441.94 214.103 Q1441.94 206.974 1440.11 203.432 Q1438.31 199.867 1434.67 199.867 M1434.67 196.164 Q1440.48 196.164 1443.54 200.77 Q1446.62 205.353 1446.62 214.103 Q1446.62 222.83 1443.54 227.437 Q1440.48 232.02 1434.67 232.02 Q1428.86 232.02 1425.79 227.437 Q1422.73 222.83 1422.73 214.103 Q1422.73 205.353 1425.79 200.77 Q1428.86 196.164 1434.67 196.164 Z" fill="#000000" fill-rule="evenodd" fill-opacity="1" /><path clip-path="url(#clip850)" d="M 0 0 M1485.83 206.187 L1485.83 210.214 Q1484.03 209.289 1482.08 208.826 Q1480.14 208.363 1478.05 208.363 Q1474.88 208.363 1473.28 209.335 Q1471.71 210.307 1471.71 212.251 Q1471.71 213.733 1472.85 214.589 Q1473.98 215.423 1477.41 216.187 L1478.86 216.511 Q1483.4 217.483 1485.3 219.265 Q1487.22 221.025 1487.22 224.196 Q1487.22 227.807 1484.35 229.913 Q1481.5 232.02 1476.5 232.02 Q1474.42 232.02 1472.15 231.603 Q1469.91 231.21 1467.41 230.4 L1467.41 226.001 Q1469.77 227.228 1472.06 227.853 Q1474.35 228.455 1476.6 228.455 Q1479.6 228.455 1481.22 227.437 Q1482.85 226.395 1482.85 224.52 Q1482.85 222.784 1481.66 221.858 Q1480.51 220.932 1476.55 220.076 L1475.07 219.728 Q1471.11 218.895 1469.35 217.182 Q1467.59 215.446 1467.59 212.437 Q1467.59 208.779 1470.18 206.789 Q1472.78 204.798 1477.54 204.798 Q1479.91 204.798 1481.99 205.145 Q1484.07 205.492 1485.83 206.187 Z" fill="#000000" fill-rule="evenodd" fill-opacity="1" /><path clip-path="url(#clip850)" d="M 0 0 M1505.78 218.316 Q1500.62 218.316 1498.63 219.497 Q1496.64 220.677 1496.64 223.525 Q1496.64 225.793 1498.12 227.136 Q1499.63 228.455 1502.2 228.455 Q1505.74 228.455 1507.87 225.955 Q1510.02 223.432 1510.02 219.265 L1510.02 218.316 L1505.78 218.316 M1514.28 216.557 L1514.28 231.349 L1510.02 231.349 L1510.02 227.413 Q1508.56 229.775 1506.39 230.909 Q1504.21 232.02 1501.06 232.02 Q1497.08 232.02 1494.72 229.798 Q1492.38 227.552 1492.38 223.802 Q1492.38 219.427 1495.3 217.205 Q1498.24 214.983 1504.05 214.983 L1510.02 214.983 L1510.02 214.566 Q1510.02 211.627 1508.08 210.029 Q1506.16 208.409 1502.66 208.409 Q1500.44 208.409 1498.33 208.941 Q1496.22 209.474 1494.28 210.539 L1494.28 206.603 Q1496.62 205.701 1498.82 205.261 Q1501.02 204.798 1503.1 204.798 Q1508.72 204.798 1511.5 207.714 Q1514.28 210.631 1514.28 216.557 Z" fill="#000000" fill-rule="evenodd" fill-opacity="1" /><path clip-path="url(#clip850)" d="M 0 0 M1543.24 210.4 Q1544.84 207.529 1547.06 206.164 Q1549.28 204.798 1552.29 204.798 Q1556.34 204.798 1558.54 207.645 Q1560.74 210.469 1560.74 215.701 L1560.74 231.349 L1556.46 231.349 L1556.46 215.839 Q1556.46 212.113 1555.14 210.307 Q1553.82 208.502 1551.11 208.502 Q1547.8 208.502 1545.88 210.701 Q1543.96 212.9 1543.96 216.696 L1543.96 231.349 L1539.67 231.349 L1539.67 215.839 Q1539.67 212.089 1538.35 210.307 Q1537.03 208.502 1534.28 208.502 Q1531.02 208.502 1529.09 210.724 Q1527.17 212.923 1527.17 216.696 L1527.17 231.349 L1522.89 231.349 L1522.89 205.423 L1527.17 205.423 L1527.17 209.451 Q1528.63 207.066 1530.67 205.932 Q1532.71 204.798 1535.51 204.798 Q1538.33 204.798 1540.3 206.233 Q1542.29 207.668 1543.24 210.4 Z" fill="#000000" fill-rule="evenodd" fill-opacity="1" /><path clip-path="url(#clip850)" d="M 0 0 M1573.35 227.46 L1573.35 241.21 L1569.07 241.21 L1569.07 205.423 L1573.35 205.423 L1573.35 209.358 Q1574.7 207.043 1576.73 205.932 Q1578.79 204.798 1581.64 204.798 Q1586.36 204.798 1589.3 208.548 Q1592.27 212.298 1592.27 218.409 Q1592.27 224.52 1589.3 228.27 Q1586.36 232.02 1581.64 232.02 Q1578.79 232.02 1576.73 230.909 Q1574.7 229.775 1573.35 227.46 M1587.84 218.409 Q1587.84 213.71 1585.9 211.048 Q1583.98 208.363 1580.6 208.363 Q1577.22 208.363 1575.28 211.048 Q1573.35 213.71 1573.35 218.409 Q1573.35 223.108 1575.28 225.793 Q1577.22 228.455 1580.6 228.455 Q1583.98 228.455 1585.9 225.793 Q1587.84 223.108 1587.84 218.409 Z" fill="#000000" fill-rule="evenodd" fill-opacity="1" /><path clip-path="url(#clip850)" d="M 0 0 M1599.33 195.33 L1603.59 195.33 L1603.59 231.349 L1599.33 231.349 L1599.33 195.33 Z" fill="#000000" fill-rule="evenodd" fill-opacity="1" /><path clip-path="url(#clip850)" d="M 0 0 M1634.67 217.321 L1634.67 219.404 L1615.09 219.404 Q1615.37 223.802 1617.73 226.117 Q1620.11 228.409 1624.35 228.409 Q1626.8 228.409 1629.09 227.807 Q1631.41 227.205 1633.68 226.001 L1633.68 230.029 Q1631.39 231.001 1628.98 231.511 Q1626.57 232.02 1624.09 232.02 Q1617.89 232.02 1614.26 228.409 Q1610.65 224.798 1610.65 218.64 Q1610.65 212.275 1614.07 208.548 Q1617.52 204.798 1623.35 204.798 Q1628.58 204.798 1631.62 208.177 Q1634.67 211.534 1634.67 217.321 M1630.41 216.071 Q1630.37 212.576 1628.45 210.492 Q1626.55 208.409 1623.4 208.409 Q1619.84 208.409 1617.68 210.423 Q1615.55 212.437 1615.23 216.094 L1630.41 216.071 Z" fill="#000000" fill-rule="evenodd" fill-opacity="1" /><path clip-path="url(#clip850)" d="M 0 0 M1658.19 206.187 L1658.19 210.214 Q1656.39 209.289 1654.44 208.826 Q1652.5 208.363 1650.41 208.363 Q1647.24 208.363 1645.65 209.335 Q1644.07 210.307 1644.07 212.251 Q1644.07 213.733 1645.21 214.589 Q1646.34 215.423 1649.77 216.187 L1651.22 216.511 Q1655.76 217.483 1657.66 219.265 Q1659.58 221.025 1659.58 224.196 Q1659.58 227.807 1656.71 229.913 Q1653.86 232.02 1648.86 232.02 Q1646.78 232.02 1644.51 231.603 Q1642.27 231.21 1639.77 230.4 L1639.77 226.001 Q1642.13 227.228 1644.42 227.853 Q1646.71 228.455 1648.96 228.455 Q1651.96 228.455 1653.58 227.437 Q1655.21 226.395 1655.21 224.52 Q1655.21 222.784 1654.02 221.858 Q1652.87 220.932 1648.91 220.076 L1647.43 219.728 Q1643.47 218.895 1641.71 217.182 Q1639.95 215.446 1639.95 212.437 Q1639.95 208.779 1642.54 206.789 Q1645.14 204.798 1649.9 204.798 Q1652.27 204.798 1654.35 205.145 Q1656.43 205.492 1658.19 206.187 Z" fill="#000000" fill-rule="evenodd" fill-opacity="1" /><path clip-path="url(#clip850)" d="M 0 0 M1694.56 195.33 L1694.56 198.872 L1690.48 198.872 Q1688.19 198.872 1687.29 199.798 Q1686.41 200.724 1686.41 203.131 L1686.41 205.423 L1693.42 205.423 L1693.42 208.733 L1686.41 208.733 L1686.41 231.349 L1682.13 231.349 L1682.13 208.733 L1678.05 208.733 L1678.05 205.423 L1682.13 205.423 L1682.13 203.617 Q1682.13 199.289 1684.14 197.321 Q1686.15 195.33 1690.53 195.33 L1694.56 195.33 Z" fill="#000000" fill-rule="evenodd" fill-opacity="1" /><path clip-path="url(#clip850)" d="M 0 0 M1713.14 209.404 Q1712.43 208.988 1711.57 208.802 Q1710.74 208.594 1709.72 208.594 Q1706.11 208.594 1704.16 210.955 Q1702.24 213.293 1702.24 217.691 L1702.24 231.349 L1697.96 231.349 L1697.96 205.423 L1702.24 205.423 L1702.24 209.451 Q1703.58 207.089 1705.74 205.955 Q1707.89 204.798 1710.97 204.798 Q1711.41 204.798 1711.94 204.867 Q1712.47 204.914 1713.12 205.029 L1713.14 209.404 Z" fill="#000000" fill-rule="evenodd" fill-opacity="1" /><path clip-path="url(#clip850)" d="M 0 0 M1726.62 208.409 Q1723.19 208.409 1721.2 211.094 Q1719.21 213.756 1719.21 218.409 Q1719.21 223.062 1721.18 225.747 Q1723.17 228.409 1726.62 228.409 Q1730.02 228.409 1732.01 225.724 Q1734 223.038 1734 218.409 Q1734 213.802 1732.01 211.117 Q1730.02 208.409 1726.62 208.409 M1726.62 204.798 Q1732.17 204.798 1735.34 208.409 Q1738.51 212.02 1738.51 218.409 Q1738.51 224.775 1735.34 228.409 Q1732.17 232.02 1726.62 232.02 Q1721.04 232.02 1717.87 228.409 Q1714.72 224.775 1714.72 218.409 Q1714.72 212.02 1717.87 208.409 Q1721.04 204.798 1726.62 204.798 Z" fill="#000000" fill-rule="evenodd" fill-opacity="1" /><path clip-path="url(#clip850)" d="M 0 0 M1765.76 210.4 Q1767.36 207.529 1769.58 206.164 Q1771.8 204.798 1774.81 204.798 Q1778.86 204.798 1781.06 207.645 Q1783.26 210.469 1783.26 215.701 L1783.26 231.349 L1778.98 231.349 L1778.98 215.839 Q1778.98 212.113 1777.66 210.307 Q1776.34 208.502 1773.63 208.502 Q1770.32 208.502 1768.4 210.701 Q1766.48 212.9 1766.48 216.696 L1766.48 231.349 L1762.2 231.349 L1762.2 215.839 Q1762.2 212.089 1760.88 210.307 Q1759.56 208.502 1756.8 208.502 Q1753.54 208.502 1751.62 210.724 Q1749.7 212.923 1749.7 216.696 L1749.7 231.349 L1745.41 231.349 L1745.41 205.423 L1749.7 205.423 L1749.7 209.451 Q1751.15 207.066 1753.19 205.932 Q1755.23 204.798 1758.03 204.798 Q1760.85 204.798 1762.82 206.233 Q1764.81 207.668 1765.76 210.4 Z" fill="#000000" fill-rule="evenodd" fill-opacity="1" /><path clip-path="url(#clip850)" d="M 0 0 M1807.01 196.789 L1811.69 196.789 L1811.69 211.395 L1827.2 196.789 L1833.21 196.789 L1816.06 212.9 L1834.44 231.349 L1828.28 231.349 L1811.69 214.705 L1811.69 231.349 L1807.01 231.349 L1807.01 196.789 Z" fill="#000000" fill-rule="evenodd" fill-opacity="1" /><path clip-path="url(#clip850)" d="M 0 0 M1842.77 200.631 L1842.77 227.506 L1848.42 227.506 Q1855.57 227.506 1858.88 224.265 Q1862.22 221.025 1862.22 214.034 Q1862.22 207.089 1858.88 203.872 Q1855.57 200.631 1848.42 200.631 L1842.77 200.631 M1838.1 196.789 L1847.7 196.789 Q1857.75 196.789 1862.45 200.978 Q1867.15 205.145 1867.15 214.034 Q1867.15 222.969 1862.43 227.159 Q1857.7 231.349 1847.7 231.349 L1838.1 231.349 L1838.1 196.789 Z" fill="#000000" fill-rule="evenodd" fill-opacity="1" /><path clip-path="url(#clip850)" d="M 0 0 M1874.6 196.789 L1896.45 196.789 L1896.45 200.724 L1879.28 200.724 L1879.28 210.955 L1895.74 210.955 L1895.74 214.89 L1879.28 214.89 L1879.28 227.413 L1896.87 227.413 L1896.87 231.349 L1874.6 231.349 L1874.6 196.789 Z" fill="#000000" fill-rule="evenodd" fill-opacity="1" /><path clip-path="url(#clip850)" d="M 0 0 M1941.62 217.321 L1941.62 219.404 L1922.03 219.404 Q1922.31 223.802 1924.67 226.117 Q1927.06 228.409 1931.29 228.409 Q1933.75 228.409 1936.04 227.807 Q1938.35 227.205 1940.62 226.001 L1940.62 230.029 Q1938.33 231.001 1935.92 231.511 Q1933.51 232.02 1931.04 232.02 Q1924.83 232.02 1921.2 228.409 Q1917.59 224.798 1917.59 218.64 Q1917.59 212.275 1921.01 208.548 Q1924.46 204.798 1930.3 204.798 Q1935.53 204.798 1938.56 208.177 Q1941.62 211.534 1941.62 217.321 M1937.36 216.071 Q1937.31 212.576 1935.39 210.492 Q1933.49 208.409 1930.34 208.409 Q1926.78 208.409 1924.63 210.423 Q1922.5 212.437 1922.17 216.094 L1937.36 216.071 Z" fill="#000000" fill-rule="evenodd" fill-opacity="1" /><path clip-path="url(#clip850)" d="M 0 0 M1965.13 206.187 L1965.13 210.214 Q1963.33 209.289 1961.38 208.826 Q1959.44 208.363 1957.36 208.363 Q1954.19 208.363 1952.59 209.335 Q1951.01 210.307 1951.01 212.251 Q1951.01 213.733 1952.15 214.589 Q1953.28 215.423 1956.71 216.187 L1958.17 216.511 Q1962.7 217.483 1964.6 219.265 Q1966.52 221.025 1966.52 224.196 Q1966.52 227.807 1963.65 229.913 Q1960.81 232.02 1955.81 232.02 Q1953.72 232.02 1951.45 231.603 Q1949.21 231.21 1946.71 230.4 L1946.71 226.001 Q1949.07 227.228 1951.36 227.853 Q1953.65 228.455 1955.9 228.455 Q1958.91 228.455 1960.53 227.437 Q1962.15 226.395 1962.15 224.52 Q1962.15 222.784 1960.97 221.858 Q1959.81 220.932 1955.85 220.076 L1954.37 219.728 Q1950.41 218.895 1948.65 217.182 Q1946.89 215.446 1946.89 212.437 Q1946.89 208.779 1949.49 206.789 Q1952.08 204.798 1956.85 204.798 Q1959.21 204.798 1961.29 205.145 Q1963.37 205.492 1965.13 206.187 Z" fill="#000000" fill-rule="evenodd" fill-opacity="1" /><path clip-path="url(#clip850)" d="M 0 0 M1977.52 198.062 L1977.52 205.423 L1986.29 205.423 L1986.29 208.733 L1977.52 208.733 L1977.52 222.807 Q1977.52 225.978 1978.37 226.881 Q1979.25 227.784 1981.92 227.784 L1986.29 227.784 L1986.29 231.349 L1981.92 231.349 Q1976.99 231.349 1975.11 229.52 Q1973.24 227.668 1973.24 222.807 L1973.24 208.733 L1970.11 208.733 L1970.11 205.423 L1973.24 205.423 L1973.24 198.062 L1977.52 198.062 Z" fill="#000000" fill-rule="evenodd" fill-opacity="1" /><path clip-path="url(#clip850)" d="M 0 0 M1991.89 205.423 L1996.15 205.423 L1996.15 231.349 L1991.89 231.349 L1991.89 205.423 M1991.89 195.33 L1996.15 195.33 L1996.15 200.724 L1991.89 200.724 L1991.89 195.33 Z" fill="#000000" fill-rule="evenodd" fill-opacity="1" /><path clip-path="url(#clip850)" d="M 0 0 M2025.25 210.4 Q2026.85 207.529 2029.07 206.164 Q2031.29 204.798 2034.3 204.798 Q2038.35 204.798 2040.55 207.645 Q2042.75 210.469 2042.75 215.701 L2042.75 231.349 L2038.47 231.349 L2038.47 215.839 Q2038.47 212.113 2037.15 210.307 Q2035.83 208.502 2033.12 208.502 Q2029.81 208.502 2027.89 210.701 Q2025.97 212.9 2025.97 216.696 L2025.97 231.349 L2021.68 231.349 L2021.68 215.839 Q2021.68 212.089 2020.37 210.307 Q2019.05 208.502 2016.29 208.502 Q2013.03 208.502 2011.11 210.724 Q2009.18 212.923 2009.18 216.696 L2009.18 231.349 L2004.9 231.349 L2004.9 205.423 L2009.18 205.423 L2009.18 209.451 Q2010.64 207.066 2012.68 205.932 Q2014.72 204.798 2017.52 204.798 Q2020.34 204.798 2022.31 206.233 Q2024.3 207.668 2025.25 210.4 Z" fill="#000000" fill-rule="evenodd" fill-opacity="1" /><path clip-path="url(#clip850)" d="M 0 0 M2063.03 218.316 Q2057.87 218.316 2055.87 219.497 Q2053.88 220.677 2053.88 223.525 Q2053.88 225.793 2055.37 227.136 Q2056.87 228.455 2059.44 228.455 Q2062.98 228.455 2065.11 225.955 Q2067.26 223.432 2067.26 219.265 L2067.26 218.316 L2063.03 218.316 M2071.52 216.557 L2071.52 231.349 L2067.26 231.349 L2067.26 227.413 Q2065.8 229.775 2063.63 230.909 Q2061.45 232.02 2058.3 232.02 Q2054.32 232.02 2051.96 229.798 Q2049.62 227.552 2049.62 223.802 Q2049.62 219.427 2052.54 217.205 Q2055.48 214.983 2061.29 214.983 L2067.26 214.983 L2067.26 214.566 Q2067.26 211.627 2065.32 210.029 Q2063.4 208.409 2059.9 208.409 Q2057.68 208.409 2055.57 208.941 Q2053.47 209.474 2051.52 210.539 L2051.52 206.603 Q2053.86 205.701 2056.06 205.261 Q2058.26 204.798 2060.34 204.798 Q2065.97 204.798 2068.74 207.714 Q2071.52 210.631 2071.52 216.557 Z" fill="#000000" fill-rule="evenodd" fill-opacity="1" /><path clip-path="url(#clip850)" d="M 0 0 M2084.51 198.062 L2084.51 205.423 L2093.28 205.423 L2093.28 208.733 L2084.51 208.733 L2084.51 222.807 Q2084.51 225.978 2085.36 226.881 Q2086.24 227.784 2088.91 227.784 L2093.28 227.784 L2093.28 231.349 L2088.91 231.349 Q2083.98 231.349 2082.1 229.52 Q2080.23 227.668 2080.23 222.807 L2080.23 208.733 L2077.1 208.733 L2077.1 205.423 L2080.23 205.423 L2080.23 198.062 L2084.51 198.062 Z" fill="#000000" fill-rule="evenodd" fill-opacity="1" /><path clip-path="url(#clip850)" d="M 0 0 M2121.06 217.321 L2121.06 219.404 L2101.48 219.404 Q2101.75 223.802 2104.11 226.117 Q2106.5 228.409 2110.74 228.409 Q2113.19 228.409 2115.48 227.807 Q2117.8 227.205 2120.06 226.001 L2120.06 230.029 Q2117.77 231.001 2115.36 231.511 Q2112.96 232.02 2110.48 232.02 Q2104.28 232.02 2100.64 228.409 Q2097.03 224.798 2097.03 218.64 Q2097.03 212.275 2100.46 208.548 Q2103.91 204.798 2109.74 204.798 Q2114.97 204.798 2118 208.177 Q2121.06 211.534 2121.06 217.321 M2116.8 216.071 Q2116.75 212.576 2114.83 210.492 Q2112.93 208.409 2109.79 208.409 Q2106.22 208.409 2104.07 210.423 Q2101.94 212.437 2101.61 216.094 L2116.8 216.071 Z" fill="#000000" fill-rule="evenodd" fill-opacity="1" /><path clip-path="url(#clip850)" d="M 0 0 M2147.33 198.062 L2147.33 205.423 L2156.11 205.423 L2156.11 208.733 L2147.33 208.733 L2147.33 222.807 Q2147.33 225.978 2148.19 226.881 Q2149.07 227.784 2151.73 227.784 L2156.11 227.784 L2156.11 231.349 L2151.73 231.349 Q2146.8 231.349 2144.92 229.52 Q2143.05 227.668 2143.05 222.807 L2143.05 208.733 L2139.92 208.733 L2139.92 205.423 L2143.05 205.423 L2143.05 198.062 L2147.33 198.062 Z" fill="#000000" fill-rule="evenodd" fill-opacity="1" /><path clip-path="url(#clip850)" d="M 0 0 M2171.75 208.409 Q2168.33 208.409 2166.34 211.094 Q2164.35 213.756 2164.35 218.409 Q2164.35 223.062 2166.31 225.747 Q2168.3 228.409 2171.75 228.409 Q2175.16 228.409 2177.15 225.724 Q2179.14 223.038 2179.14 218.409 Q2179.14 213.802 2177.15 211.117 Q2175.16 208.409 2171.75 208.409 M2171.75 204.798 Q2177.31 204.798 2180.48 208.409 Q2183.65 212.02 2183.65 218.409 Q2183.65 224.775 2180.48 228.409 Q2177.31 232.02 2171.75 232.02 Q2166.17 232.02 2163 228.409 Q2159.86 224.775 2159.86 218.409 Q2159.86 212.02 2163 208.409 Q2166.17 204.798 2171.75 204.798 Z" fill="#000000" fill-rule="evenodd" fill-opacity="1" /><path clip-path="url(#clip850)" d="M 0 0 M2205.97 196.789 L2212.93 196.789 L2221.75 220.307 L2230.62 196.789 L2237.59 196.789 L2237.59 231.349 L2233.03 231.349 L2233.03 201.002 L2224.11 224.705 L2219.42 224.705 L2210.5 201.002 L2210.5 231.349 L2205.97 231.349 L2205.97 196.789 Z" fill="#000000" fill-rule="evenodd" fill-opacity="1" /></svg>
