<?xml version="1.0" encoding="utf-8"?>
<svg xmlns="http://www.w3.org/2000/svg" xmlns:xlink="http://www.w3.org/1999/xlink" width="600" height="400" viewBox="0 0 2400 1600">
<defs>
  <clipPath id="clip850">
    <rect x="0" y="0" width="2400" height="1600"/>
  </clipPath>
</defs>
<path clip-path="url(#clip850)" d="
M0 1600 L2400 1600 L2400 0 L0 0  Z
  " fill="#ffffff" fill-rule="evenodd" fill-opacity="1"/>
<defs>
  <clipPath id="clip851">
    <rect x="480" y="0" width="1681" height="1600"/>
  </clipPath>
</defs>
<path clip-path="url(#clip850)" d="
M279.704 1423.18 L2352.76 1423.18 L2352.76 47.2441 L279.704 47.2441  Z
  " fill="#ffffff" fill-rule="evenodd" fill-opacity="1"/>
<defs>
  <clipPath id="clip852">
    <rect x="279" y="47" width="2074" height="1377"/>
  </clipPath>
</defs>
<polyline clip-path="url(#clip852)" style="stroke:#000000; stroke-width:2; stroke-opacity:0.1; fill:none" points="
  476.199,1423.18 476.199,47.2441 
  "/>
<polyline clip-path="url(#clip852)" style="stroke:#000000; stroke-width:2; stroke-opacity:0.1; fill:none" points="
  824.269,1423.18 824.269,47.2441 
  "/>
<polyline clip-path="url(#clip852)" style="stroke:#000000; stroke-width:2; stroke-opacity:0.1; fill:none" points="
  1172.34,1423.18 1172.34,47.2441 
  "/>
<polyline clip-path="url(#clip852)" style="stroke:#000000; stroke-width:2; stroke-opacity:0.1; fill:none" points="
  1520.41,1423.18 1520.41,47.2441 
  "/>
<polyline clip-path="url(#clip852)" style="stroke:#000000; stroke-width:2; stroke-opacity:0.1; fill:none" points="
  1868.48,1423.18 1868.48,47.2441 
  "/>
<polyline clip-path="url(#clip852)" style="stroke:#000000; stroke-width:2; stroke-opacity:0.1; fill:none" points="
  2216.55,1423.18 2216.55,47.2441 
  "/>
<polyline clip-path="url(#clip850)" style="stroke:#000000; stroke-width:4; stroke-opacity:1; fill:none" points="
  279.704,1423.18 2352.76,1423.18 
  "/>
<polyline clip-path="url(#clip850)" style="stroke:#000000; stroke-width:4; stroke-opacity:1; fill:none" points="
  476.199,1423.18 476.199,1406.67 
  "/>
<polyline clip-path="url(#clip850)" style="stroke:#000000; stroke-width:4; stroke-opacity:1; fill:none" points="
  824.269,1423.18 824.269,1406.67 
  "/>
<polyline clip-path="url(#clip850)" style="stroke:#000000; stroke-width:4; stroke-opacity:1; fill:none" points="
  1172.34,1423.18 1172.34,1406.67 
  "/>
<polyline clip-path="url(#clip850)" style="stroke:#000000; stroke-width:4; stroke-opacity:1; fill:none" points="
  1520.41,1423.18 1520.41,1406.67 
  "/>
<polyline clip-path="url(#clip850)" style="stroke:#000000; stroke-width:4; stroke-opacity:1; fill:none" points="
  1868.48,1423.18 1868.48,1406.67 
  "/>
<polyline clip-path="url(#clip850)" style="stroke:#000000; stroke-width:4; stroke-opacity:1; fill:none" points="
  2216.55,1423.18 2216.55,1406.67 
  "/>
<path clip-path="url(#clip850)" d="M 0 0 M430.262 1467.02 L459.938 1467.02 L459.938 1470.96 L430.262 1470.96 L430.262 1467.02 Z" fill="#000000" fill-rule="evenodd" fill-opacity="1" /><path clip-path="url(#clip850)" d="M 0 0 M470.84 1479.92 L478.479 1479.92 L478.479 1453.55 L470.169 1455.22 L470.169 1450.96 L478.433 1449.29 L483.109 1449.29 L483.109 1479.92 L490.748 1479.92 L490.748 1483.85 L470.84 1483.85 L470.84 1479.92 Z" fill="#000000" fill-rule="evenodd" fill-opacity="1" /><path clip-path="url(#clip850)" d="M 0 0 M510.192 1452.37 Q506.581 1452.37 504.752 1455.94 Q502.947 1459.48 502.947 1466.61 Q502.947 1473.71 504.752 1477.28 Q506.581 1480.82 510.192 1480.82 Q513.826 1480.82 515.632 1477.28 Q517.46 1473.71 517.46 1466.61 Q517.46 1459.48 515.632 1455.94 Q513.826 1452.37 510.192 1452.37 M510.192 1448.67 Q516.002 1448.67 519.058 1453.27 Q522.136 1457.86 522.136 1466.61 Q522.136 1475.33 519.058 1479.94 Q516.002 1484.52 510.192 1484.52 Q504.382 1484.52 501.303 1479.94 Q498.248 1475.33 498.248 1466.61 Q498.248 1457.86 501.303 1453.27 Q504.382 1448.67 510.192 1448.67 Z" fill="#000000" fill-rule="evenodd" fill-opacity="1" /><path clip-path="url(#clip850)" d="M 0 0 M793.911 1467.02 L823.586 1467.02 L823.586 1470.96 L793.911 1470.96 L793.911 1467.02 Z" fill="#000000" fill-rule="evenodd" fill-opacity="1" /><path clip-path="url(#clip850)" d="M 0 0 M833.725 1449.29 L852.082 1449.29 L852.082 1453.23 L838.008 1453.23 L838.008 1461.7 Q839.026 1461.35 840.045 1461.19 Q841.063 1461 842.082 1461 Q847.869 1461 851.248 1464.18 Q854.628 1467.35 854.628 1472.76 Q854.628 1478.34 851.156 1481.44 Q847.683 1484.52 841.364 1484.52 Q839.188 1484.52 836.92 1484.15 Q834.674 1483.78 832.267 1483.04 L832.267 1478.34 Q834.35 1479.48 836.572 1480.03 Q838.795 1480.59 841.271 1480.59 Q845.276 1480.59 847.614 1478.48 Q849.952 1476.38 849.952 1472.76 Q849.952 1469.15 847.614 1467.05 Q845.276 1464.94 841.271 1464.94 Q839.396 1464.94 837.521 1465.36 Q835.67 1465.77 833.725 1466.65 L833.725 1449.29 Z" fill="#000000" fill-rule="evenodd" fill-opacity="1" /><path clip-path="url(#clip850)" d="M 0 0 M1172.34 1452.37 Q1168.73 1452.37 1166.9 1455.94 Q1165.09 1459.48 1165.09 1466.61 Q1165.09 1473.71 1166.9 1477.28 Q1168.73 1480.82 1172.34 1480.82 Q1175.97 1480.82 1177.78 1477.28 Q1179.61 1473.71 1179.61 1466.61 Q1179.61 1459.48 1177.78 1455.94 Q1175.97 1452.37 1172.34 1452.37 M1172.34 1448.67 Q1178.15 1448.67 1181.2 1453.27 Q1184.28 1457.86 1184.28 1466.61 Q1184.28 1475.33 1181.2 1479.94 Q1178.15 1484.52 1172.34 1484.52 Q1166.53 1484.52 1163.45 1479.94 Q1160.39 1475.33 1160.39 1466.61 Q1160.39 1457.86 1163.45 1453.27 Q1166.53 1448.67 1172.34 1448.67 Z" fill="#000000" fill-rule="evenodd" fill-opacity="1" /><path clip-path="url(#clip850)" d="M 0 0 M1510.69 1449.29 L1529.04 1449.29 L1529.04 1453.23 L1514.97 1453.23 L1514.97 1461.7 Q1515.99 1461.35 1517.01 1461.19 Q1518.03 1461 1519.04 1461 Q1524.83 1461 1528.21 1464.18 Q1531.59 1467.35 1531.59 1472.76 Q1531.59 1478.34 1528.12 1481.44 Q1524.65 1484.52 1518.33 1484.52 Q1516.15 1484.52 1513.88 1484.15 Q1511.64 1483.78 1509.23 1483.04 L1509.23 1478.34 Q1511.31 1479.48 1513.53 1480.03 Q1515.76 1480.59 1518.23 1480.59 Q1522.24 1480.59 1524.58 1478.48 Q1526.91 1476.38 1526.91 1472.76 Q1526.91 1469.15 1524.58 1467.05 Q1522.24 1464.94 1518.23 1464.94 Q1516.36 1464.94 1514.48 1465.36 Q1512.63 1465.77 1510.69 1466.65 L1510.69 1449.29 Z" fill="#000000" fill-rule="evenodd" fill-opacity="1" /><path clip-path="url(#clip850)" d="M 0 0 M1843.17 1479.92 L1850.81 1479.92 L1850.81 1453.55 L1842.5 1455.22 L1842.5 1450.96 L1850.76 1449.29 L1855.44 1449.29 L1855.44 1479.92 L1863.07 1479.92 L1863.07 1483.85 L1843.17 1483.85 L1843.17 1479.92 Z" fill="#000000" fill-rule="evenodd" fill-opacity="1" /><path clip-path="url(#clip850)" d="M 0 0 M1882.52 1452.37 Q1878.91 1452.37 1877.08 1455.94 Q1875.27 1459.48 1875.27 1466.61 Q1875.27 1473.71 1877.08 1477.28 Q1878.91 1480.82 1882.52 1480.82 Q1886.15 1480.82 1887.96 1477.28 Q1889.79 1473.71 1889.79 1466.61 Q1889.79 1459.48 1887.96 1455.94 Q1886.15 1452.37 1882.52 1452.37 M1882.52 1448.67 Q1888.33 1448.67 1891.38 1453.27 Q1894.46 1457.86 1894.46 1466.61 Q1894.46 1475.33 1891.38 1479.94 Q1888.33 1484.52 1882.52 1484.52 Q1876.71 1484.52 1873.63 1479.94 Q1870.57 1475.33 1870.57 1466.61 Q1870.57 1457.86 1873.63 1453.27 Q1876.71 1448.67 1882.52 1448.67 Z" fill="#000000" fill-rule="evenodd" fill-opacity="1" /><path clip-path="url(#clip850)" d="M 0 0 M2191.73 1479.92 L2199.37 1479.92 L2199.37 1453.55 L2191.06 1455.22 L2191.06 1450.96 L2199.33 1449.29 L2204 1449.29 L2204 1479.92 L2211.64 1479.92 L2211.64 1483.85 L2191.73 1483.85 L2191.73 1479.92 Z" fill="#000000" fill-rule="evenodd" fill-opacity="1" /><path clip-path="url(#clip850)" d="M 0 0 M2221.13 1449.29 L2239.49 1449.29 L2239.49 1453.23 L2225.42 1453.23 L2225.42 1461.7 Q2226.43 1461.35 2227.45 1461.19 Q2228.47 1461 2229.49 1461 Q2235.28 1461 2238.66 1464.18 Q2242.04 1467.35 2242.04 1472.76 Q2242.04 1478.34 2238.56 1481.44 Q2235.09 1484.52 2228.77 1484.52 Q2226.6 1484.52 2224.33 1484.15 Q2222.08 1483.78 2219.67 1483.04 L2219.67 1478.34 Q2221.76 1479.48 2223.98 1480.03 Q2226.2 1480.59 2228.68 1480.59 Q2232.68 1480.59 2235.02 1478.48 Q2237.36 1476.38 2237.36 1472.76 Q2237.36 1469.15 2235.02 1467.05 Q2232.68 1464.94 2228.68 1464.94 Q2226.8 1464.94 2224.93 1465.36 Q2223.08 1465.77 2221.13 1466.65 L2221.13 1449.29 Z" fill="#000000" fill-rule="evenodd" fill-opacity="1" /><path clip-path="url(#clip850)" d="M 0 0 M1172.97 1537.81 L1172.97 1518.52 L1178.83 1518.52 L1178.83 1568.04 L1172.97 1568.04 L1172.97 1562.7 Q1171.12 1565.88 1168.29 1567.44 Q1165.49 1568.97 1161.54 1568.97 Q1155.08 1568.97 1151.01 1563.81 Q1146.97 1558.65 1146.97 1550.25 Q1146.97 1541.85 1151.01 1536.69 Q1155.08 1531.54 1161.54 1531.54 Q1165.49 1531.54 1168.29 1533.1 Q1171.12 1534.62 1172.97 1537.81 M1153.01 1550.25 Q1153.01 1556.71 1155.65 1560.4 Q1158.33 1564.07 1162.98 1564.07 Q1167.62 1564.07 1170.3 1560.4 Q1172.97 1556.71 1172.97 1550.25 Q1172.97 1543.79 1170.3 1540.13 Q1167.62 1536.44 1162.98 1536.44 Q1158.33 1536.44 1155.65 1540.13 Q1153.01 1543.79 1153.01 1550.25 Z" fill="#000000" fill-rule="evenodd" fill-opacity="1" /><path clip-path="url(#clip850)" d="M 0 0 M1207.09 1550.12 Q1199.99 1550.12 1197.25 1551.75 Q1194.52 1553.37 1194.52 1557.29 Q1194.52 1560.4 1196.55 1562.25 Q1198.62 1564.07 1202.16 1564.07 Q1207.03 1564.07 1209.95 1560.63 Q1212.91 1557.16 1212.91 1551.43 L1212.91 1550.12 L1207.09 1550.12 M1218.77 1547.71 L1218.77 1568.04 L1212.91 1568.04 L1212.91 1562.63 Q1210.91 1565.88 1207.92 1567.44 Q1204.93 1568.97 1200.6 1568.97 Q1195.12 1568.97 1191.88 1565.91 Q1188.66 1562.82 1188.66 1557.67 Q1188.66 1551.65 1192.67 1548.6 Q1196.71 1545.54 1204.7 1545.54 L1212.91 1545.54 L1212.91 1544.97 Q1212.91 1540.93 1210.24 1538.73 Q1207.6 1536.5 1202.79 1536.5 Q1199.74 1536.5 1196.84 1537.23 Q1193.94 1537.97 1191.27 1539.43 L1191.27 1534.02 Q1194.49 1532.78 1197.51 1532.17 Q1200.53 1531.54 1203.4 1531.54 Q1211.13 1531.54 1214.95 1535.55 Q1218.77 1539.56 1218.77 1547.71 Z" fill="#000000" fill-rule="evenodd" fill-opacity="1" /><path clip-path="url(#clip850)" d="M 0 0 M1236.63 1522.27 L1236.63 1532.4 L1248.69 1532.4 L1248.69 1536.95 L1236.63 1536.95 L1236.63 1556.3 Q1236.63 1560.66 1237.8 1561.9 Q1239.01 1563.14 1242.67 1563.14 L1248.69 1563.14 L1248.69 1568.04 L1242.67 1568.04 Q1235.89 1568.04 1233.32 1565.53 Q1230.74 1562.98 1230.74 1556.3 L1230.74 1536.95 L1226.44 1536.95 L1226.44 1532.4 L1230.74 1532.4 L1230.74 1522.27 L1236.63 1522.27 Z" fill="#000000" fill-rule="evenodd" fill-opacity="1" /><path clip-path="url(#clip850)" d="M 0 0 M1272.59 1550.12 Q1265.5 1550.12 1262.76 1551.75 Q1260.02 1553.37 1260.02 1557.29 Q1260.02 1560.4 1262.06 1562.25 Q1264.13 1564.07 1267.66 1564.07 Q1272.53 1564.07 1275.46 1560.63 Q1278.42 1557.16 1278.42 1551.43 L1278.42 1550.12 L1272.59 1550.12 M1284.27 1547.71 L1284.27 1568.04 L1278.42 1568.04 L1278.42 1562.63 Q1276.41 1565.88 1273.42 1567.44 Q1270.43 1568.97 1266.1 1568.97 Q1260.63 1568.97 1257.38 1565.91 Q1254.16 1562.82 1254.16 1557.67 Q1254.16 1551.65 1258.17 1548.6 Q1262.22 1545.54 1270.21 1545.54 L1278.42 1545.54 L1278.42 1544.97 Q1278.42 1540.93 1275.74 1538.73 Q1273.1 1536.5 1268.3 1536.5 Q1265.24 1536.5 1262.34 1537.23 Q1259.45 1537.97 1256.77 1539.43 L1256.77 1534.02 Q1259.99 1532.78 1263.01 1532.17 Q1266.04 1531.54 1268.9 1531.54 Q1276.64 1531.54 1280.45 1535.55 Q1284.27 1539.56 1284.27 1547.71 Z" fill="#000000" fill-rule="evenodd" fill-opacity="1" /><path clip-path="url(#clip850)" d="M 0 0 M1312.86 1532.4 L1319.06 1532.4 L1330.2 1562.31 L1341.34 1532.4 L1347.55 1532.4 L1334.18 1568.04 L1326.22 1568.04 L1312.86 1532.4 Z" fill="#000000" fill-rule="evenodd" fill-opacity="1" /><path clip-path="url(#clip850)" d="M 0 0 M1371.83 1550.12 Q1364.74 1550.12 1362 1551.75 Q1359.26 1553.37 1359.26 1557.29 Q1359.26 1560.4 1361.3 1562.25 Q1363.37 1564.07 1366.9 1564.07 Q1371.77 1564.07 1374.7 1560.63 Q1377.66 1557.16 1377.66 1551.43 L1377.66 1550.12 L1371.83 1550.12 M1383.52 1547.71 L1383.52 1568.04 L1377.66 1568.04 L1377.66 1562.63 Q1375.65 1565.88 1372.66 1567.44 Q1369.67 1568.97 1365.34 1568.97 Q1359.87 1568.97 1356.62 1565.91 Q1353.41 1562.82 1353.41 1557.67 Q1353.41 1551.65 1357.42 1548.6 Q1361.46 1545.54 1369.45 1545.54 L1377.66 1545.54 L1377.66 1544.97 Q1377.66 1540.93 1374.99 1538.73 Q1372.34 1536.5 1367.54 1536.5 Q1364.48 1536.5 1361.59 1537.23 Q1358.69 1537.97 1356.02 1539.43 L1356.02 1534.02 Q1359.23 1532.78 1362.25 1532.17 Q1365.28 1531.54 1368.14 1531.54 Q1375.88 1531.54 1379.7 1535.55 Q1383.52 1539.56 1383.52 1547.71 Z" fill="#000000" fill-rule="evenodd" fill-opacity="1" /><path clip-path="url(#clip850)" d="M 0 0 M1395.58 1518.52 L1401.43 1518.52 L1401.43 1568.04 L1395.58 1568.04 L1395.58 1518.52 Z" fill="#000000" fill-rule="evenodd" fill-opacity="1" /><path clip-path="url(#clip850)" d="M 0 0 M1413.08 1553.98 L1413.08 1532.4 L1418.94 1532.4 L1418.94 1553.75 Q1418.94 1558.81 1420.91 1561.36 Q1422.89 1563.87 1426.83 1563.87 Q1431.58 1563.87 1434.31 1560.85 Q1437.08 1557.83 1437.08 1552.61 L1437.08 1532.4 L1442.94 1532.4 L1442.94 1568.04 L1437.08 1568.04 L1437.08 1562.57 Q1434.95 1565.82 1432.12 1567.41 Q1429.32 1568.97 1425.59 1568.97 Q1419.45 1568.97 1416.27 1565.15 Q1413.08 1561.33 1413.08 1553.98 M1427.82 1531.54 L1427.82 1531.54 Z" fill="#000000" fill-rule="evenodd" fill-opacity="1" /><path clip-path="url(#clip850)" d="M 0 0 M1485.49 1548.76 L1485.49 1551.62 L1458.57 1551.62 Q1458.95 1557.67 1462.2 1560.85 Q1465.47 1564 1471.3 1564 Q1474.67 1564 1477.82 1563.17 Q1481.01 1562.35 1484.13 1560.69 L1484.13 1566.23 Q1480.97 1567.57 1477.66 1568.27 Q1474.35 1568.97 1470.95 1568.97 Q1462.42 1568.97 1457.42 1564 Q1452.46 1559.04 1452.46 1550.57 Q1452.46 1541.82 1457.17 1536.69 Q1461.91 1531.54 1469.93 1531.54 Q1477.12 1531.54 1481.29 1536.18 Q1485.49 1540.8 1485.49 1548.76 M1479.64 1547.04 Q1479.57 1542.23 1476.93 1539.37 Q1474.32 1536.5 1469.99 1536.5 Q1465.09 1536.5 1462.13 1539.27 Q1459.2 1542.04 1458.76 1547.07 L1479.64 1547.04 Z" fill="#000000" fill-rule="evenodd" fill-opacity="1" /><polyline clip-path="url(#clip852)" style="stroke:#000000; stroke-width:2; stroke-opacity:0.1; fill:none" points="
  279.704,1384.24 2352.76,1384.24 
  "/>
<polyline clip-path="url(#clip852)" style="stroke:#000000; stroke-width:2; stroke-opacity:0.1; fill:none" points="
  279.704,1098.06 2352.76,1098.06 
  "/>
<polyline clip-path="url(#clip852)" style="stroke:#000000; stroke-width:2; stroke-opacity:0.1; fill:none" points="
  279.704,811.888 2352.76,811.888 
  "/>
<polyline clip-path="url(#clip852)" style="stroke:#000000; stroke-width:2; stroke-opacity:0.1; fill:none" points="
  279.704,525.713 2352.76,525.713 
  "/>
<polyline clip-path="url(#clip852)" style="stroke:#000000; stroke-width:2; stroke-opacity:0.1; fill:none" points="
  279.704,239.538 2352.76,239.538 
  "/>
<polyline clip-path="url(#clip850)" style="stroke:#000000; stroke-width:4; stroke-opacity:1; fill:none" points="
  279.704,1423.18 279.704,47.2441 
  "/>
<polyline clip-path="url(#clip850)" style="stroke:#000000; stroke-width:4; stroke-opacity:1; fill:none" points="
  279.704,1384.24 304.581,1384.24 
  "/>
<polyline clip-path="url(#clip850)" style="stroke:#000000; stroke-width:4; stroke-opacity:1; fill:none" points="
  279.704,1098.06 304.581,1098.06 
  "/>
<polyline clip-path="url(#clip850)" style="stroke:#000000; stroke-width:4; stroke-opacity:1; fill:none" points="
  279.704,811.888 304.581,811.888 
  "/>
<polyline clip-path="url(#clip850)" style="stroke:#000000; stroke-width:4; stroke-opacity:1; fill:none" points="
  279.704,525.713 304.581,525.713 
  "/>
<polyline clip-path="url(#clip850)" style="stroke:#000000; stroke-width:4; stroke-opacity:1; fill:none" points="
  279.704,239.538 304.581,239.538 
  "/>
<path clip-path="url(#clip850)" d="M 0 0 M126.205 1370.04 Q122.593 1370.04 120.765 1373.6 Q118.959 1377.14 118.959 1384.27 Q118.959 1391.38 120.765 1394.94 Q122.593 1398.49 126.205 1398.49 Q129.839 1398.49 131.644 1394.94 Q133.473 1391.38 133.473 1384.27 Q133.473 1377.14 131.644 1373.6 Q129.839 1370.04 126.205 1370.04 M126.205 1366.33 Q132.015 1366.33 135.07 1370.94 Q138.149 1375.52 138.149 1384.27 Q138.149 1393 135.07 1397.61 Q132.015 1402.19 126.205 1402.19 Q120.394 1402.19 117.316 1397.61 Q114.26 1393 114.26 1384.27 Q114.26 1375.52 117.316 1370.94 Q120.394 1366.33 126.205 1366.33 Z" fill="#000000" fill-rule="evenodd" fill-opacity="1" /><path clip-path="url(#clip850)" d="M 0 0 M146.366 1395.64 L151.251 1395.64 L151.251 1401.52 L146.366 1401.52 L146.366 1395.64 Z" fill="#000000" fill-rule="evenodd" fill-opacity="1" /><path clip-path="url(#clip850)" d="M 0 0 M171.436 1370.04 Q167.825 1370.04 165.996 1373.6 Q164.19 1377.14 164.19 1384.27 Q164.19 1391.38 165.996 1394.94 Q167.825 1398.49 171.436 1398.49 Q175.07 1398.49 176.876 1394.94 Q178.704 1391.38 178.704 1384.27 Q178.704 1377.14 176.876 1373.6 Q175.07 1370.04 171.436 1370.04 M171.436 1366.33 Q177.246 1366.33 180.301 1370.94 Q183.38 1375.52 183.38 1384.27 Q183.38 1393 180.301 1397.61 Q177.246 1402.19 171.436 1402.19 Q165.626 1402.19 162.547 1397.61 Q159.491 1393 159.491 1384.27 Q159.491 1375.52 162.547 1370.94 Q165.626 1366.33 171.436 1366.33 Z" fill="#000000" fill-rule="evenodd" fill-opacity="1" /><path clip-path="url(#clip850)" d="M 0 0 M201.598 1370.04 Q197.987 1370.04 196.158 1373.6 Q194.352 1377.14 194.352 1384.27 Q194.352 1391.38 196.158 1394.94 Q197.987 1398.49 201.598 1398.49 Q205.232 1398.49 207.037 1394.94 Q208.866 1391.38 208.866 1384.27 Q208.866 1377.14 207.037 1373.6 Q205.232 1370.04 201.598 1370.04 M201.598 1366.33 Q207.408 1366.33 210.463 1370.94 Q213.542 1375.52 213.542 1384.27 Q213.542 1393 210.463 1397.61 Q207.408 1402.19 201.598 1402.19 Q195.787 1402.19 192.709 1397.61 Q189.653 1393 189.653 1384.27 Q189.653 1375.52 192.709 1370.94 Q195.787 1366.33 201.598 1366.33 Z" fill="#000000" fill-rule="evenodd" fill-opacity="1" /><path clip-path="url(#clip850)" d="M 0 0 M231.76 1370.04 Q228.148 1370.04 226.32 1373.6 Q224.514 1377.14 224.514 1384.27 Q224.514 1391.38 226.32 1394.94 Q228.148 1398.49 231.76 1398.49 Q235.394 1398.49 237.199 1394.94 Q239.028 1391.38 239.028 1384.27 Q239.028 1377.14 237.199 1373.6 Q235.394 1370.04 231.76 1370.04 M231.76 1366.33 Q237.57 1366.33 240.625 1370.94 Q243.704 1375.52 243.704 1384.27 Q243.704 1393 240.625 1397.61 Q237.57 1402.19 231.76 1402.19 Q225.949 1402.19 222.871 1397.61 Q219.815 1393 219.815 1384.27 Q219.815 1375.52 222.871 1370.94 Q225.949 1366.33 231.76 1366.33 Z" fill="#000000" fill-rule="evenodd" fill-opacity="1" /><path clip-path="url(#clip850)" d="M 0 0 M127.2 1083.86 Q123.589 1083.86 121.76 1087.43 Q119.955 1090.97 119.955 1098.1 Q119.955 1105.2 121.76 1108.77 Q123.589 1112.31 127.2 1112.31 Q130.834 1112.31 132.64 1108.77 Q134.468 1105.2 134.468 1098.1 Q134.468 1090.97 132.64 1087.43 Q130.834 1083.86 127.2 1083.86 M127.2 1080.16 Q133.01 1080.16 136.066 1084.76 Q139.144 1089.35 139.144 1098.1 Q139.144 1106.82 136.066 1111.43 Q133.01 1116.01 127.2 1116.01 Q121.39 1116.01 118.311 1111.43 Q115.256 1106.82 115.256 1098.1 Q115.256 1089.35 118.311 1084.76 Q121.39 1080.16 127.2 1080.16 Z" fill="#000000" fill-rule="evenodd" fill-opacity="1" /><path clip-path="url(#clip850)" d="M 0 0 M147.362 1109.46 L152.246 1109.46 L152.246 1115.34 L147.362 1115.34 L147.362 1109.46 Z" fill="#000000" fill-rule="evenodd" fill-opacity="1" /><path clip-path="url(#clip850)" d="M 0 0 M172.431 1083.86 Q168.82 1083.86 166.991 1087.43 Q165.186 1090.97 165.186 1098.1 Q165.186 1105.2 166.991 1108.77 Q168.82 1112.31 172.431 1112.31 Q176.065 1112.31 177.871 1108.77 Q179.7 1105.2 179.7 1098.1 Q179.7 1090.97 177.871 1087.43 Q176.065 1083.86 172.431 1083.86 M172.431 1080.16 Q178.241 1080.16 181.297 1084.76 Q184.376 1089.35 184.376 1098.1 Q184.376 1106.82 181.297 1111.43 Q178.241 1116.01 172.431 1116.01 Q166.621 1116.01 163.542 1111.43 Q160.487 1106.82 160.487 1098.1 Q160.487 1089.35 163.542 1084.76 Q166.621 1080.16 172.431 1080.16 Z" fill="#000000" fill-rule="evenodd" fill-opacity="1" /><path clip-path="url(#clip850)" d="M 0 0 M196.621 1111.41 L212.94 1111.41 L212.94 1115.34 L190.996 1115.34 L190.996 1111.41 Q193.658 1108.65 198.241 1104.02 Q202.848 1099.37 204.028 1098.03 Q206.274 1095.51 207.153 1093.77 Q208.056 1092.01 208.056 1090.32 Q208.056 1087.57 206.112 1085.83 Q204.19 1084.09 201.088 1084.09 Q198.889 1084.09 196.436 1084.86 Q194.005 1085.62 191.227 1087.17 L191.227 1082.45 Q194.051 1081.32 196.505 1080.74 Q198.959 1080.16 200.996 1080.16 Q206.366 1080.16 209.561 1082.84 Q212.755 1085.53 212.755 1090.02 Q212.755 1092.15 211.945 1094.07 Q211.158 1095.97 209.051 1098.56 Q208.473 1099.23 205.371 1102.45 Q202.269 1105.64 196.621 1111.41 Z" fill="#000000" fill-rule="evenodd" fill-opacity="1" /><path clip-path="url(#clip850)" d="M 0 0 M222.801 1080.78 L241.158 1080.78 L241.158 1084.72 L227.084 1084.72 L227.084 1093.19 Q228.102 1092.84 229.121 1092.68 Q230.139 1092.5 231.158 1092.5 Q236.945 1092.5 240.324 1095.67 Q243.704 1098.84 243.704 1104.26 Q243.704 1109.83 240.232 1112.94 Q236.76 1116.01 230.44 1116.01 Q228.264 1116.01 225.996 1115.64 Q223.75 1115.27 221.343 1114.53 L221.343 1109.83 Q223.426 1110.97 225.648 1111.52 Q227.871 1112.08 230.347 1112.08 Q234.352 1112.08 236.69 1109.97 Q239.028 1107.87 239.028 1104.26 Q239.028 1100.64 236.69 1098.54 Q234.352 1096.43 230.347 1096.43 Q228.473 1096.43 226.598 1096.85 Q224.746 1097.26 222.801 1098.14 L222.801 1080.78 Z" fill="#000000" fill-rule="evenodd" fill-opacity="1" /><path clip-path="url(#clip850)" d="M 0 0 M126.205 797.687 Q122.593 797.687 120.765 801.252 Q118.959 804.793 118.959 811.923 Q118.959 819.029 120.765 822.594 Q122.593 826.136 126.205 826.136 Q129.839 826.136 131.644 822.594 Q133.473 819.029 133.473 811.923 Q133.473 804.793 131.644 801.252 Q129.839 797.687 126.205 797.687 M126.205 793.983 Q132.015 793.983 135.07 798.59 Q138.149 803.173 138.149 811.923 Q138.149 820.65 135.07 825.256 Q132.015 829.839 126.205 829.839 Q120.394 829.839 117.316 825.256 Q114.26 820.65 114.26 811.923 Q114.26 803.173 117.316 798.59 Q120.394 793.983 126.205 793.983 Z" fill="#000000" fill-rule="evenodd" fill-opacity="1" /><path clip-path="url(#clip850)" d="M 0 0 M146.366 823.289 L151.251 823.289 L151.251 829.168 L146.366 829.168 L146.366 823.289 Z" fill="#000000" fill-rule="evenodd" fill-opacity="1" /><path clip-path="url(#clip850)" d="M 0 0 M171.436 797.687 Q167.825 797.687 165.996 801.252 Q164.19 804.793 164.19 811.923 Q164.19 819.029 165.996 822.594 Q167.825 826.136 171.436 826.136 Q175.07 826.136 176.876 822.594 Q178.704 819.029 178.704 811.923 Q178.704 804.793 176.876 801.252 Q175.07 797.687 171.436 797.687 M171.436 793.983 Q177.246 793.983 180.301 798.59 Q183.38 803.173 183.38 811.923 Q183.38 820.65 180.301 825.256 Q177.246 829.839 171.436 829.839 Q165.626 829.839 162.547 825.256 Q159.491 820.65 159.491 811.923 Q159.491 803.173 162.547 798.59 Q165.626 793.983 171.436 793.983 Z" fill="#000000" fill-rule="evenodd" fill-opacity="1" /><path clip-path="url(#clip850)" d="M 0 0 M191.644 794.608 L210 794.608 L210 798.543 L195.926 798.543 L195.926 807.015 Q196.945 806.668 197.963 806.506 Q198.982 806.321 200 806.321 Q205.787 806.321 209.167 809.492 Q212.547 812.664 212.547 818.08 Q212.547 823.659 209.074 826.761 Q205.602 829.839 199.283 829.839 Q197.107 829.839 194.838 829.469 Q192.593 829.099 190.186 828.358 L190.186 823.659 Q192.269 824.793 194.491 825.349 Q196.713 825.904 199.19 825.904 Q203.195 825.904 205.533 823.798 Q207.871 821.691 207.871 818.08 Q207.871 814.469 205.533 812.363 Q203.195 810.256 199.19 810.256 Q197.315 810.256 195.44 810.673 Q193.588 811.09 191.644 811.969 L191.644 794.608 Z" fill="#000000" fill-rule="evenodd" fill-opacity="1" /><path clip-path="url(#clip850)" d="M 0 0 M231.76 797.687 Q228.148 797.687 226.32 801.252 Q224.514 804.793 224.514 811.923 Q224.514 819.029 226.32 822.594 Q228.148 826.136 231.76 826.136 Q235.394 826.136 237.199 822.594 Q239.028 819.029 239.028 811.923 Q239.028 804.793 237.199 801.252 Q235.394 797.687 231.76 797.687 M231.76 793.983 Q237.57 793.983 240.625 798.59 Q243.704 803.173 243.704 811.923 Q243.704 820.65 240.625 825.256 Q237.57 829.839 231.76 829.839 Q225.949 829.839 222.871 825.256 Q219.815 820.65 219.815 811.923 Q219.815 803.173 222.871 798.59 Q225.949 793.983 231.76 793.983 Z" fill="#000000" fill-rule="evenodd" fill-opacity="1" /><path clip-path="url(#clip850)" d="M 0 0 M127.2 511.512 Q123.589 511.512 121.76 515.076 Q119.955 518.618 119.955 525.748 Q119.955 532.854 121.76 536.419 Q123.589 539.961 127.2 539.961 Q130.834 539.961 132.64 536.419 Q134.468 532.854 134.468 525.748 Q134.468 518.618 132.64 515.076 Q130.834 511.512 127.2 511.512 M127.2 507.808 Q133.01 507.808 136.066 512.414 Q139.144 516.998 139.144 525.748 Q139.144 534.475 136.066 539.081 Q133.01 543.664 127.2 543.664 Q121.39 543.664 118.311 539.081 Q115.256 534.475 115.256 525.748 Q115.256 516.998 118.311 512.414 Q121.39 507.808 127.2 507.808 Z" fill="#000000" fill-rule="evenodd" fill-opacity="1" /><path clip-path="url(#clip850)" d="M 0 0 M147.362 537.113 L152.246 537.113 L152.246 542.993 L147.362 542.993 L147.362 537.113 Z" fill="#000000" fill-rule="evenodd" fill-opacity="1" /><path clip-path="url(#clip850)" d="M 0 0 M172.431 511.512 Q168.82 511.512 166.991 515.076 Q165.186 518.618 165.186 525.748 Q165.186 532.854 166.991 536.419 Q168.82 539.961 172.431 539.961 Q176.065 539.961 177.871 536.419 Q179.7 532.854 179.7 525.748 Q179.7 518.618 177.871 515.076 Q176.065 511.512 172.431 511.512 M172.431 507.808 Q178.241 507.808 181.297 512.414 Q184.376 516.998 184.376 525.748 Q184.376 534.475 181.297 539.081 Q178.241 543.664 172.431 543.664 Q166.621 543.664 163.542 539.081 Q160.487 534.475 160.487 525.748 Q160.487 516.998 163.542 512.414 Q166.621 507.808 172.431 507.808 Z" fill="#000000" fill-rule="evenodd" fill-opacity="1" /><path clip-path="url(#clip850)" d="M 0 0 M191.413 508.433 L213.635 508.433 L213.635 510.424 L201.088 542.993 L196.204 542.993 L208.01 512.368 L191.413 512.368 L191.413 508.433 Z" fill="#000000" fill-rule="evenodd" fill-opacity="1" /><path clip-path="url(#clip850)" d="M 0 0 M222.801 508.433 L241.158 508.433 L241.158 512.368 L227.084 512.368 L227.084 520.84 Q228.102 520.493 229.121 520.331 Q230.139 520.146 231.158 520.146 Q236.945 520.146 240.324 523.317 Q243.704 526.488 243.704 531.905 Q243.704 537.484 240.232 540.586 Q236.76 543.664 230.44 543.664 Q228.264 543.664 225.996 543.294 Q223.75 542.924 221.343 542.183 L221.343 537.484 Q223.426 538.618 225.648 539.174 Q227.871 539.729 230.347 539.729 Q234.352 539.729 236.69 537.623 Q239.028 535.516 239.028 531.905 Q239.028 528.294 236.69 526.188 Q234.352 524.081 230.347 524.081 Q228.473 524.081 226.598 524.498 Q224.746 524.914 222.801 525.794 L222.801 508.433 Z" fill="#000000" fill-rule="evenodd" fill-opacity="1" /><path clip-path="url(#clip850)" d="M 0 0 M126.205 225.337 Q122.593 225.337 120.765 228.901 Q118.959 232.443 118.959 239.573 Q118.959 246.679 120.765 250.244 Q122.593 253.785 126.205 253.785 Q129.839 253.785 131.644 250.244 Q133.473 246.679 133.473 239.573 Q133.473 232.443 131.644 228.901 Q129.839 225.337 126.205 225.337 M126.205 221.633 Q132.015 221.633 135.07 226.239 Q138.149 230.823 138.149 239.573 Q138.149 248.299 135.07 252.906 Q132.015 257.489 126.205 257.489 Q120.394 257.489 117.316 252.906 Q114.26 248.299 114.26 239.573 Q114.26 230.823 117.316 226.239 Q120.394 221.633 126.205 221.633 Z" fill="#000000" fill-rule="evenodd" fill-opacity="1" /><path clip-path="url(#clip850)" d="M 0 0 M146.366 250.938 L151.251 250.938 L151.251 256.818 L146.366 256.818 L146.366 250.938 Z" fill="#000000" fill-rule="evenodd" fill-opacity="1" /><path clip-path="url(#clip850)" d="M 0 0 M162.246 252.883 L169.885 252.883 L169.885 226.517 L161.575 228.184 L161.575 223.925 L169.839 222.258 L174.514 222.258 L174.514 252.883 L182.153 252.883 L182.153 256.818 L162.246 256.818 L162.246 252.883 Z" fill="#000000" fill-rule="evenodd" fill-opacity="1" /><path clip-path="url(#clip850)" d="M 0 0 M201.598 225.337 Q197.987 225.337 196.158 228.901 Q194.352 232.443 194.352 239.573 Q194.352 246.679 196.158 250.244 Q197.987 253.785 201.598 253.785 Q205.232 253.785 207.037 250.244 Q208.866 246.679 208.866 239.573 Q208.866 232.443 207.037 228.901 Q205.232 225.337 201.598 225.337 M201.598 221.633 Q207.408 221.633 210.463 226.239 Q213.542 230.823 213.542 239.573 Q213.542 248.299 210.463 252.906 Q207.408 257.489 201.598 257.489 Q195.787 257.489 192.709 252.906 Q189.653 248.299 189.653 239.573 Q189.653 230.823 192.709 226.239 Q195.787 221.633 201.598 221.633 Z" fill="#000000" fill-rule="evenodd" fill-opacity="1" /><path clip-path="url(#clip850)" d="M 0 0 M231.76 225.337 Q228.148 225.337 226.32 228.901 Q224.514 232.443 224.514 239.573 Q224.514 246.679 226.32 250.244 Q228.148 253.785 231.76 253.785 Q235.394 253.785 237.199 250.244 Q239.028 246.679 239.028 239.573 Q239.028 232.443 237.199 228.901 Q235.394 225.337 231.76 225.337 M231.76 221.633 Q237.57 221.633 240.625 226.239 Q243.704 230.823 243.704 239.573 Q243.704 248.299 240.625 252.906 Q237.57 257.489 231.76 257.489 Q225.949 257.489 222.871 252.906 Q219.815 248.299 219.815 239.573 Q219.815 230.823 222.871 226.239 Q225.949 221.633 231.76 221.633 Z" fill="#000000" fill-rule="evenodd" fill-opacity="1" /><path clip-path="url(#clip850)" d="M 0 0 M58.657 1029.15 L77.5631 1029.15 L77.5631 1035.04 L28.3562 1035.04 L28.3562 1029.15 L33.7671 1029.15 Q30.5842 1027.3 29.0564 1024.5 Q27.4968 1021.67 27.4968 1017.75 Q27.4968 1011.26 32.6531 1007.22 Q37.8093 1003.14 46.212 1003.14 Q54.6147 1003.14 59.771 1007.22 Q64.9272 1011.26 64.9272 1017.75 Q64.9272 1021.67 63.3994 1024.5 Q61.8398 1027.3 58.657 1029.15 M46.212 1009.22 Q39.7508 1009.22 36.0905 1011.9 Q32.3984 1014.54 32.3984 1019.19 Q32.3984 1023.83 36.0905 1026.51 Q39.7508 1029.15 46.212 1029.15 Q52.6732 1029.15 56.3653 1026.51 Q60.0256 1023.83 60.0256 1019.19 Q60.0256 1014.54 56.3653 1011.9 Q52.6732 1009.22 46.212 1009.22 Z" fill="#000000" fill-rule="evenodd" fill-opacity="1" /><path clip-path="url(#clip850)" d="M 0 0 M33.8307 972.78 Q33.2578 973.767 33.0032 974.944 Q32.7167 976.09 32.7167 977.491 Q32.7167 982.456 35.9632 985.13 Q39.1779 987.771 45.2253 987.771 L64.0042 987.771 L64.0042 993.66 L28.3562 993.66 L28.3562 987.771 L33.8944 987.771 Q30.6479 985.925 29.0883 982.965 Q27.4968 980.005 27.4968 975.772 Q27.4968 975.167 27.5923 974.435 Q27.656 973.703 27.8151 972.812 L33.8307 972.78 Z" fill="#000000" fill-rule="evenodd" fill-opacity="1" /><path clip-path="url(#clip850)" d="M 0 0 M32.4621 954.256 Q32.4621 958.967 36.1542 961.704 Q39.8145 964.441 46.212 964.441 Q52.6095 964.441 56.3017 961.736 Q59.9619 958.998 59.9619 954.256 Q59.9619 949.577 56.2698 946.84 Q52.5777 944.103 46.212 944.103 Q39.8781 944.103 36.186 946.84 Q32.4621 949.577 32.4621 954.256 M27.4968 954.256 Q27.4968 946.617 32.4621 942.257 Q37.4273 937.896 46.212 937.896 Q54.9649 937.896 59.9619 942.257 Q64.9272 946.617 64.9272 954.256 Q64.9272 961.927 59.9619 966.287 Q54.9649 970.616 46.212 970.616 Q37.4273 970.616 32.4621 966.287 Q27.4968 961.927 27.4968 954.256 Z" fill="#000000" fill-rule="evenodd" fill-opacity="1" /><path clip-path="url(#clip850)" d="M 0 0 M46.212 902.598 Q39.7508 902.598 36.0905 905.272 Q32.3984 907.914 32.3984 912.561 Q32.3984 917.208 36.0905 919.881 Q39.7508 922.523 46.212 922.523 Q52.6732 922.523 56.3653 919.881 Q60.0256 917.208 60.0256 912.561 Q60.0256 907.914 56.3653 905.272 Q52.6732 902.598 46.212 902.598 M33.7671 922.523 Q30.5842 920.677 29.0564 917.876 Q27.4968 915.043 27.4968 911.128 Q27.4968 904.635 32.6531 900.593 Q37.8093 896.519 46.212 896.519 Q54.6147 896.519 59.771 900.593 Q64.9272 904.635 64.9272 911.128 Q64.9272 915.043 63.3994 917.876 Q61.8398 920.677 58.657 922.523 L64.0042 922.523 L64.0042 928.411 L14.479 928.411 L14.479 922.523 L33.7671 922.523 Z" fill="#000000" fill-rule="evenodd" fill-opacity="1" /><path clip-path="url(#clip850)" d="M 0 0 M46.0847 870.611 Q46.0847 877.708 47.7079 880.446 Q49.3312 883.183 53.2461 883.183 Q56.3653 883.183 58.2114 881.146 Q60.0256 879.077 60.0256 875.544 Q60.0256 870.674 56.5881 867.746 Q53.1188 864.786 47.3897 864.786 L46.0847 864.786 L46.0847 870.611 M43.6657 858.929 L64.0042 858.929 L64.0042 864.786 L58.5933 864.786 Q61.8398 866.791 63.3994 869.783 Q64.9272 872.775 64.9272 877.104 Q64.9272 882.578 61.8716 885.825 Q58.7843 889.039 53.6281 889.039 Q47.6125 889.039 44.5569 885.029 Q41.5014 880.987 41.5014 872.998 L41.5014 864.786 L40.9285 864.786 Q36.8862 864.786 34.6901 867.46 Q32.4621 870.101 32.4621 874.907 Q32.4621 877.963 33.1941 880.859 Q33.9262 883.756 35.3903 886.429 L29.9795 886.429 Q28.7381 883.215 28.1334 880.191 Q27.4968 877.167 27.4968 874.303 Q27.4968 866.568 31.5072 862.749 Q35.5176 858.929 43.6657 858.929 Z" fill="#000000" fill-rule="evenodd" fill-opacity="1" /><path clip-path="url(#clip850)" d="M 0 0 M46.212 821.276 Q39.7508 821.276 36.0905 823.95 Q32.3984 826.592 32.3984 831.239 Q32.3984 835.886 36.0905 838.559 Q39.7508 841.201 46.212 841.201 Q52.6732 841.201 56.3653 838.559 Q60.0256 835.886 60.0256 831.239 Q60.0256 826.592 56.3653 823.95 Q52.6732 821.276 46.212 821.276 M33.7671 841.201 Q30.5842 839.355 29.0564 836.554 Q27.4968 833.721 27.4968 829.806 Q27.4968 823.313 32.6531 819.271 Q37.8093 815.197 46.212 815.197 Q54.6147 815.197 59.771 819.271 Q64.9272 823.313 64.9272 829.806 Q64.9272 833.721 63.3994 836.554 Q61.8398 839.355 58.657 841.201 L64.0042 841.201 L64.0042 847.089 L14.479 847.089 L14.479 841.201 L33.7671 841.201 Z" fill="#000000" fill-rule="evenodd" fill-opacity="1" /><path clip-path="url(#clip850)" d="M 0 0 M28.3562 805.489 L28.3562 799.633 L64.0042 799.633 L64.0042 805.489 L28.3562 805.489 M14.479 805.489 L14.479 799.633 L21.895 799.633 L21.895 805.489 L14.479 805.489 Z" fill="#000000" fill-rule="evenodd" fill-opacity="1" /><path clip-path="url(#clip850)" d="M 0 0 M14.479 787.379 L14.479 781.522 L64.0042 781.522 L64.0042 787.379 L14.479 787.379 Z" fill="#000000" fill-rule="evenodd" fill-opacity="1" /><path clip-path="url(#clip850)" d="M 0 0 M28.3562 769.268 L28.3562 763.412 L64.0042 763.412 L64.0042 769.268 L28.3562 769.268 M14.479 769.268 L14.479 763.412 L21.895 763.412 L21.895 769.268 L14.479 769.268 Z" fill="#000000" fill-rule="evenodd" fill-opacity="1" /><path clip-path="url(#clip850)" d="M 0 0 M18.2347 745.365 L28.3562 745.365 L28.3562 733.302 L32.9077 733.302 L32.9077 745.365 L52.2594 745.365 Q56.6199 745.365 57.8613 744.188 Q59.1026 742.978 59.1026 739.318 L59.1026 733.302 L64.0042 733.302 L64.0042 739.318 Q64.0042 746.097 61.4897 748.675 Q58.9434 751.254 52.2594 751.254 L32.9077 751.254 L32.9077 755.55 L28.3562 755.55 L28.3562 751.254 L18.2347 751.254 L18.2347 745.365 Z" fill="#000000" fill-rule="evenodd" fill-opacity="1" /><path clip-path="url(#clip850)" d="M 0 0 M67.3143 710.768 Q73.68 713.25 75.6216 715.606 Q77.5631 717.961 77.5631 721.908 L77.5631 726.586 L72.6615 726.586 L72.6615 723.149 Q72.6615 720.73 71.5157 719.393 Q70.3699 718.056 66.1048 716.433 L63.4312 715.383 L28.3562 729.801 L28.3562 723.595 L56.238 712.455 L28.3562 701.315 L28.3562 695.108 L67.3143 710.768 Z" fill="#000000" fill-rule="evenodd" fill-opacity="1" /><path clip-path="url(#clip850)" d="M 0 0 M33.7671 642.846 L14.479 642.846 L14.479 636.989 L64.0042 636.989 L64.0042 642.846 L58.657 642.846 Q61.8398 644.692 63.3994 647.524 Q64.9272 650.325 64.9272 654.272 Q64.9272 660.733 59.771 664.807 Q54.6147 668.849 46.212 668.849 Q37.8093 668.849 32.6531 664.807 Q27.4968 660.733 27.4968 654.272 Q27.4968 650.325 29.0564 647.524 Q30.5842 644.692 33.7671 642.846 M46.212 662.802 Q52.6732 662.802 56.3653 660.16 Q60.0256 657.487 60.0256 652.84 Q60.0256 648.193 56.3653 645.519 Q52.6732 642.846 46.212 642.846 Q39.7508 642.846 36.0905 645.519 Q32.3984 648.193 32.3984 652.84 Q32.3984 657.487 36.0905 660.16 Q39.7508 662.802 46.212 662.802 Z" fill="#000000" fill-rule="evenodd" fill-opacity="1" /><path clip-path="url(#clip850)" d="M 0 0 M44.7161 594.434 L47.5806 594.434 L47.5806 621.361 Q53.6281 620.979 56.8109 617.733 Q59.9619 614.455 59.9619 608.63 Q59.9619 605.256 59.1344 602.105 Q58.3069 598.922 56.6518 595.803 L62.1899 595.803 Q63.5267 598.954 64.227 602.264 Q64.9272 605.574 64.9272 608.98 Q64.9272 617.51 59.9619 622.507 Q54.9967 627.472 46.5303 627.472 Q37.7774 627.472 32.6531 622.762 Q27.4968 618.019 27.4968 609.999 Q27.4968 602.805 32.1438 598.636 Q36.7589 594.434 44.7161 594.434 M42.9973 600.291 Q38.1912 600.354 35.3266 602.996 Q32.4621 605.606 32.4621 609.935 Q32.4621 614.836 35.2312 617.797 Q38.0002 620.725 43.0292 621.17 L42.9973 600.291 Z" fill="#000000" fill-rule="evenodd" fill-opacity="1" /><path clip-path="url(#clip850)" d="M 0 0 M42.4881 555.19 L64.0042 555.19 L64.0042 561.046 L42.679 561.046 Q37.6183 561.046 35.1038 563.02 Q32.5894 564.993 32.5894 568.94 Q32.5894 573.682 35.6131 576.419 Q38.6368 579.157 43.8567 579.157 L64.0042 579.157 L64.0042 585.045 L28.3562 585.045 L28.3562 579.157 L33.8944 579.157 Q30.6797 577.056 29.0883 574.223 Q27.4968 571.359 27.4968 567.635 Q27.4968 561.492 31.3163 558.341 Q35.1038 555.19 42.4881 555.19 Z" fill="#000000" fill-rule="evenodd" fill-opacity="1" /><path clip-path="url(#clip850)" d="M 0 0 M29.4065 520.783 L34.9447 520.783 Q33.6716 523.266 33.035 525.939 Q32.3984 528.613 32.3984 531.478 Q32.3984 535.838 33.7352 538.034 Q35.072 540.199 37.7456 540.199 Q39.7826 540.199 40.9603 538.639 Q42.1061 537.079 43.1565 532.369 L43.6021 530.364 Q44.9389 524.125 47.3897 521.515 Q49.8086 518.873 54.1691 518.873 Q59.1344 518.873 62.0308 522.82 Q64.9272 526.735 64.9272 533.61 Q64.9272 536.475 64.3543 539.594 Q63.8132 542.681 62.6992 546.119 L56.6518 546.119 Q58.3387 542.872 59.198 539.721 Q60.0256 536.57 60.0256 533.483 Q60.0256 529.345 58.6251 527.117 Q57.1929 524.889 54.6147 524.889 Q52.2276 524.889 50.9545 526.512 Q49.6813 528.104 48.5037 533.546 L48.0262 535.583 Q46.8804 541.026 44.5251 543.445 Q42.138 545.864 38.0002 545.864 Q32.9713 545.864 30.2341 542.299 Q27.4968 538.734 27.4968 532.178 Q27.4968 528.931 27.9743 526.067 Q28.4517 523.202 29.4065 520.783 Z" fill="#000000" fill-rule="evenodd" fill-opacity="1" /><path clip-path="url(#clip850)" d="M 0 0 M28.3562 509.548 L28.3562 503.691 L64.0042 503.691 L64.0042 509.548 L28.3562 509.548 M14.479 509.548 L14.479 503.691 L21.895 503.691 L21.895 509.548 L14.479 509.548 Z" fill="#000000" fill-rule="evenodd" fill-opacity="1" /><path clip-path="url(#clip850)" d="M 0 0 M18.2347 485.644 L28.3562 485.644 L28.3562 473.581 L32.9077 473.581 L32.9077 485.644 L52.2594 485.644 Q56.6199 485.644 57.8613 484.467 Q59.1026 483.257 59.1026 479.597 L59.1026 473.581 L64.0042 473.581 L64.0042 479.597 Q64.0042 486.376 61.4897 488.955 Q58.9434 491.533 52.2594 491.533 L32.9077 491.533 L32.9077 495.83 L28.3562 495.83 L28.3562 491.533 L18.2347 491.533 L18.2347 485.644 Z" fill="#000000" fill-rule="evenodd" fill-opacity="1" /><path clip-path="url(#clip850)" d="M 0 0 M67.3143 451.047 Q73.68 453.529 75.6216 455.885 Q77.5631 458.24 77.5631 462.187 L77.5631 466.866 L72.6615 466.866 L72.6615 463.428 Q72.6615 461.009 71.5157 459.672 Q70.3699 458.336 66.1048 456.712 L63.4312 455.662 L28.3562 470.08 L28.3562 463.874 L56.238 452.734 L28.3562 441.594 L28.3562 435.387 L67.3143 451.047 Z" fill="#000000" fill-rule="evenodd" fill-opacity="1" /><polyline clip-path="url(#clip852)" style="stroke:#009af9; stroke-width:4; stroke-opacity:1; fill:none" points="
  346.274,1384.23 355.848,1384.23 365.422,1384.23 374.996,1384.23 384.57,1384.23 394.144,1384.22 403.717,1384.22 413.291,1384.21 422.865,1384.19 432.439,1384.17 
  442.013,1384.14 451.587,1384.1 461.16,1384.04 470.734,1383.96 480.308,1383.85 489.882,1383.71 499.456,1383.53 509.03,1383.29 518.603,1382.97 528.177,1382.57 
  537.751,1382.05 547.325,1381.39 556.899,1380.55 566.472,1379.49 576.046,1378.16 585.62,1376.5 595.194,1374.44 604.768,1371.89 614.342,1368.76 623.915,1364.92 
  633.489,1360.25 643.063,1354.62 652.637,1347.85 662.211,1339.79 671.785,1330.26 681.358,1319.06 690.932,1306.02 700.506,1290.94 710.08,1273.63 719.654,1253.93 
  729.228,1231.66 738.801,1206.68 748.375,1178.86 757.949,1148.09 767.523,1114.3 777.097,1077.45 786.671,1037.52 796.244,994.566 805.818,948.67 815.392,899.982 
  824.966,848.713 834.54,795.144 844.113,739.632 853.687,682.613 863.261,624.598 872.835,566.178 882.409,508.01 891.983,450.806 901.556,395.323 911.13,342.336 
  920.704,292.622 930.278,246.931 939.852,205.961 949.426,170.334 958.999,140.572 968.573,117.078 978.147,100.122 987.721,89.8309 997.295,86.1857 1006.87,89.0265 
  1016.44,98.0619 1026.02,112.884 1035.59,132.989 1045.16,157.798 1054.74,186.687 1064.31,219.005 1073.89,254.101 1083.46,291.346 1093.03,330.149 1102.61,369.971 
  1112.18,410.335 1121.75,450.829 1131.33,491.11 1140.9,530.898 1150.48,569.972 1160.05,608.163 1169.62,645.341 1179.2,681.41 1188.77,716.297 1198.35,749.945 
  1207.92,782.305 1217.49,813.331 1227.07,842.982 1236.64,871.219 1246.21,898.007 1255.79,923.317 1265.36,947.133 1274.94,969.455 1284.51,990.3 1294.08,1009.71 
  1303.66,1027.74 1313.23,1044.48 1322.8,1060.02 1332.38,1074.46 1341.95,1087.92 1351.53,1100.48 1361.1,1112.24 1370.67,1123.26 1380.25,1133.57 1389.82,1143.16 
  1399.4,1151.98 1408.97,1159.96 1418.54,1166.97 1428.12,1172.86 1437.69,1177.44 1447.26,1180.51 1456.84,1181.85 1466.41,1181.25 1475.99,1178.48 1485.56,1173.32 
  1495.13,1165.59 1504.71,1155.1 1514.28,1141.7 1523.86,1125.27 1533.43,1105.7 1543,1082.94 1552.58,1056.95 1562.15,1027.76 1571.72,995.43 1581.3,960.065 
  1590.87,921.846 1600.45,881.017 1610.02,837.9 1619.59,792.902 1629.17,746.523 1638.74,699.354 1648.31,652.084 1657.89,605.486 1667.46,560.41 1677.04,517.761 
  1686.61,478.476 1696.18,443.496 1705.76,413.727 1715.33,390.008 1724.91,373.07 1734.48,363.504 1744.05,361.732 1753.63,367.976 1763.2,382.253 1772.77,404.36 
  1782.35,433.886 1791.92,470.221 1801.5,512.586 1811.07,560.061 1820.64,611.622 1830.22,666.189 1839.79,722.659 1849.37,779.957 1858.94,837.063 1868.51,893.052 
  1878.09,947.113 1887.66,998.567 1897.23,1046.88 1906.81,1091.66 1916.38,1132.65 1925.96,1169.73 1935.53,1202.89 1945.1,1232.21 1954.68,1257.86 1964.25,1280.06 
  1973.83,1299.09 1983.4,1315.22 1992.97,1328.77 2002.55,1340.04 2012.12,1349.33 2021.69,1356.9 2031.27,1363.02 2040.84,1367.91 2050.42,1371.79 2059.99,1374.84 
  2069.56,1377.21 2079.14,1379.03 2088.71,1380.42 2098.28,1381.46 2107.86,1382.24 2117.43,1382.82 2127.01,1383.24 2136.58,1383.54 2146.15,1383.76 2155.73,1383.91 
  2165.3,1384.02 2174.88,1384.09 2184.45,1384.14 2194.02,1384.18 2203.6,1384.2 2213.17,1384.21 2222.74,1384.22 2232.32,1384.23 2241.89,1384.23 2251.47,1384.23 
  
  "/>
<polyline clip-path="url(#clip852)" style="stroke:#e26f46; stroke-width:4; stroke-opacity:1; fill:none" points="
  338.375,1384.24 348.203,1384.24 358.031,1384.24 367.858,1384.24 377.686,1384.24 387.514,1384.23 397.341,1384.22 407.169,1384.21 416.997,1384.19 426.824,1384.15 
  436.652,1384.1 446.48,1384.04 456.307,1383.94 466.135,1383.82 475.963,1383.67 485.79,1383.47 495.618,1383.22 505.446,1382.88 515.274,1382.45 525.101,1381.89 
  534.929,1381.19 544.757,1380.3 554.584,1379.2 564.412,1377.83 574.24,1376.13 584.067,1374 593.895,1371.36 603.723,1368.1 613.55,1364.13 623.378,1359.33 
  633.206,1353.59 643.033,1346.78 652.861,1338.73 662.689,1329.28 672.517,1318.21 682.344,1305.35 692.172,1290.49 702,1273.46 711.827,1254.13 721.655,1232.34 
  731.483,1207.96 741.31,1180.84 751.138,1150.81 760.966,1117.71 770.793,1081.46 780.621,1042.05 790.449,999.612 800.276,954.408 810.104,906.78 819.932,857.124 
  829.759,805.829 839.587,753.259 849.415,699.763 859.243,645.716 869.07,591.588 878.898,537.976 888.726,485.613 898.553,435.317 908.381,387.9 918.209,344.082 
  928.036,304.414 937.864,269.25 947.692,238.746 957.519,212.903 967.347,191.635 977.175,174.844 987.002,162.501 996.83,154.683 1006.66,151.579 1016.49,153.418 
  1026.31,160.378 1036.14,172.486 1045.97,189.575 1055.8,211.296 1065.62,237.187 1075.45,266.738 1085.28,299.442 1095.11,334.782 1104.93,372.207 1114.76,411.114 
  1124.59,450.866 1134.42,490.857 1144.25,530.574 1154.07,569.639 1163.9,607.804 1173.73,644.903 1183.56,680.8 1193.38,715.358 1203.21,748.457 1213.04,780.019 
  1222.87,810.057 1232.69,838.682 1242.52,866.082 1252.35,892.471 1262.18,918.016 1272.01,942.787 1281.83,966.721 1291.66,989.64 1301.49,1011.3 1311.32,1031.47 
  1321.14,1050 1330.97,1066.87 1340.8,1082.2 1350.63,1096.19 1360.45,1109.08 1370.28,1121 1380.11,1132.01 1389.94,1142.01 1399.77,1150.85 1409.59,1158.31 
  1419.42,1164.19 1429.25,1168.35 1439.08,1170.68 1448.9,1171.11 1458.73,1169.55 1468.56,1165.87 1478.39,1159.89 1488.21,1151.41 1498.04,1140.21 1507.87,1126.1 
  1517.7,1108.99 1527.53,1088.93 1537.35,1066.04 1547.18,1040.56 1557.01,1012.73 1566.84,982.797 1576.66,950.91 1586.49,917.177 1596.32,881.664 1606.15,844.439 
  1615.97,805.615 1625.8,765.369 1635.63,723.971 1645.46,681.798 1655.29,639.373 1665.11,597.407 1674.94,556.832 1684.77,518.803 1694.6,484.622 1704.42,455.61 
  1714.25,432.931 1724.08,417.446 1733.91,409.624 1743.73,409.562 1753.56,417.06 1763.39,431.744 1773.22,453.149 1783.04,480.77 1792.87,514.059 1802.7,552.398 
  1812.53,595.077 1822.36,641.287 1832.18,690.147 1842.01,740.745 1851.84,792.194 1861.67,843.668 1871.49,894.426 1881.32,943.813 1891.15,991.256 1900.98,1036.27 
  1910.8,1078.46 1920.63,1117.56 1930.46,1153.42 1940.29,1186.02 1950.12,1215.39 1959.94,1241.66 1969.77,1264.95 1979.6,1285.4 1989.43,1303.18 1999.25,1318.47 
  2009.08,1331.48 2018.91,1342.4 2028.74,1351.47 2038.56,1358.91 2048.39,1364.91 2058.22,1369.67 2068.05,1373.39 2077.88,1376.24 2087.7,1378.39 2097.53,1379.97 
  2107.36,1381.13 2117.19,1381.97 2127.01,1382.58 2136.84,1383.02 2146.67,1383.35 2156.5,1383.6 2166.32,1383.79 2176.15,1383.93 2185.98,1384.03 2195.81,1384.11 
  2205.64,1384.16 2215.46,1384.19 2225.29,1384.21 2235.12,1384.23 2244.95,1384.23 2254.77,1384.24 2264.6,1384.24 2274.43,1384.24 2284.26,1384.24 2294.08,1384.24 
  
  "/>
<path clip-path="url(#clip850)" d="
M1118.34 274.549 L2283.65 274.549 L2283.65 93.1086 L1118.34 93.1086  Z
  " fill="#ffffff" fill-rule="evenodd" fill-opacity="1"/>
<polyline clip-path="url(#clip850)" style="stroke:#000000; stroke-width:4; stroke-opacity:1; fill:none" points="
  1118.34,274.549 2283.65,274.549 2283.65,93.1086 1118.34,93.1086 1118.34,274.549 
  "/>
<polyline clip-path="url(#clip850)" style="stroke:#009af9; stroke-width:4; stroke-opacity:1; fill:none" points="
  1141.38,153.589 1279.58,153.589 
  "/>
<path clip-path="url(#clip850)" d="M 0 0 M1303.29 166.933 L1310.92 166.933 L1310.92 140.568 L1302.61 142.235 L1302.61 137.975 L1310.88 136.309 L1315.55 136.309 L1315.55 166.933 L1323.19 166.933 L1323.19 170.869 L1303.29 170.869 L1303.29 166.933 Z" fill="#000000" fill-rule="evenodd" fill-opacity="1" /><path clip-path="url(#clip850)" d="M 0 0 M1342.64 139.387 Q1339.03 139.387 1337.2 142.952 Q1335.39 146.494 1335.39 153.623 Q1335.39 160.73 1337.2 164.295 Q1339.03 167.836 1342.64 167.836 Q1346.27 167.836 1348.08 164.295 Q1349.91 160.73 1349.91 153.623 Q1349.91 146.494 1348.08 142.952 Q1346.27 139.387 1342.64 139.387 M1342.64 135.684 Q1348.45 135.684 1351.5 140.29 Q1354.58 144.873 1354.58 153.623 Q1354.58 162.35 1351.5 166.957 Q1348.45 171.54 1342.64 171.54 Q1336.83 171.54 1333.75 166.957 Q1330.69 162.35 1330.69 153.623 Q1330.69 144.873 1333.75 140.29 Q1336.83 135.684 1342.64 135.684 Z" fill="#000000" fill-rule="evenodd" fill-opacity="1" /><path clip-path="url(#clip850)" d="M 0 0 M1372.8 139.387 Q1369.19 139.387 1367.36 142.952 Q1365.55 146.494 1365.55 153.623 Q1365.55 160.73 1367.36 164.295 Q1369.19 167.836 1372.8 167.836 Q1376.43 167.836 1378.24 164.295 Q1380.07 160.73 1380.07 153.623 Q1380.07 146.494 1378.24 142.952 Q1376.43 139.387 1372.8 139.387 M1372.8 135.684 Q1378.61 135.684 1381.67 140.29 Q1384.74 144.873 1384.74 153.623 Q1384.74 162.35 1381.67 166.957 Q1378.61 171.54 1372.8 171.54 Q1366.99 171.54 1363.91 166.957 Q1360.85 162.35 1360.85 153.623 Q1360.85 144.873 1363.91 140.29 Q1366.99 135.684 1372.8 135.684 Z" fill="#000000" fill-rule="evenodd" fill-opacity="1" /><path clip-path="url(#clip850)" d="M 0 0 M1402.96 139.387 Q1399.35 139.387 1397.52 142.952 Q1395.72 146.494 1395.72 153.623 Q1395.72 160.73 1397.52 164.295 Q1399.35 167.836 1402.96 167.836 Q1406.6 167.836 1408.4 164.295 Q1410.23 160.73 1410.23 153.623 Q1410.23 146.494 1408.4 142.952 Q1406.6 139.387 1402.96 139.387 M1402.96 135.684 Q1408.77 135.684 1411.83 140.29 Q1414.91 144.873 1414.91 153.623 Q1414.91 162.35 1411.83 166.957 Q1408.77 171.54 1402.96 171.54 Q1397.15 171.54 1394.07 166.957 Q1391.02 162.35 1391.02 153.623 Q1391.02 144.873 1394.07 140.29 Q1397.15 135.684 1402.96 135.684 Z" fill="#000000" fill-rule="evenodd" fill-opacity="1" /><path clip-path="url(#clip850)" d="M 0 0 M1433.12 139.387 Q1429.51 139.387 1427.68 142.952 Q1425.88 146.494 1425.88 153.623 Q1425.88 160.73 1427.68 164.295 Q1429.51 167.836 1433.12 167.836 Q1436.76 167.836 1438.56 164.295 Q1440.39 160.73 1440.39 153.623 Q1440.39 146.494 1438.56 142.952 Q1436.76 139.387 1433.12 139.387 M1433.12 135.684 Q1438.93 135.684 1441.99 140.29 Q1445.07 144.873 1445.07 153.623 Q1445.07 162.35 1441.99 166.957 Q1438.93 171.54 1433.12 171.54 Q1427.31 171.54 1424.23 166.957 Q1421.18 162.35 1421.18 153.623 Q1421.18 144.873 1424.23 140.29 Q1427.31 135.684 1433.12 135.684 Z" fill="#000000" fill-rule="evenodd" fill-opacity="1" /><path clip-path="url(#clip850)" d="M 0 0 M1487.94 149.92 Q1489.53 147.049 1491.76 145.684 Q1493.98 144.318 1496.99 144.318 Q1501.04 144.318 1503.24 147.165 Q1505.44 149.989 1505.44 155.221 L1505.44 170.869 L1501.16 170.869 L1501.16 155.359 Q1501.16 151.633 1499.84 149.827 Q1498.52 148.022 1495.81 148.022 Q1492.5 148.022 1490.58 150.221 Q1488.66 152.42 1488.66 156.216 L1488.66 170.869 L1484.37 170.869 L1484.37 155.359 Q1484.37 151.609 1483.05 149.827 Q1481.73 148.022 1478.98 148.022 Q1475.72 148.022 1473.79 150.244 Q1471.87 152.443 1471.87 156.216 L1471.87 170.869 L1467.59 170.869 L1467.59 144.943 L1471.87 144.943 L1471.87 148.971 Q1473.33 146.586 1475.37 145.452 Q1477.41 144.318 1480.21 144.318 Q1483.03 144.318 1485 145.753 Q1486.99 147.188 1487.94 149.92 Z" fill="#000000" fill-rule="evenodd" fill-opacity="1" /><path clip-path="url(#clip850)" d="M 0 0 M1513.93 144.943 L1518.19 144.943 L1518.19 170.869 L1513.93 170.869 L1513.93 144.943 M1513.93 134.85 L1518.19 134.85 L1518.19 140.244 L1513.93 140.244 L1513.93 134.85 Z" fill="#000000" fill-rule="evenodd" fill-opacity="1" /><path clip-path="url(#clip850)" d="M 0 0 M1548.65 144.943 L1539.28 157.559 L1549.14 170.869 L1544.12 170.869 L1536.57 160.683 L1529.03 170.869 L1524 170.869 L1534.07 157.304 L1524.86 144.943 L1529.88 144.943 L1536.76 154.179 L1543.63 144.943 L1548.65 144.943 Z" fill="#000000" fill-rule="evenodd" fill-opacity="1" /><path clip-path="url(#clip850)" d="M 0 0 M1559.37 137.582 L1559.37 144.943 L1568.15 144.943 L1568.15 148.253 L1559.37 148.253 L1559.37 162.327 Q1559.37 165.498 1560.23 166.401 Q1561.11 167.304 1563.77 167.304 L1568.15 167.304 L1568.15 170.869 L1563.77 170.869 Q1558.84 170.869 1556.96 169.04 Q1555.09 167.188 1555.09 162.327 L1555.09 148.253 L1551.97 148.253 L1551.97 144.943 L1555.09 144.943 L1555.09 137.582 L1559.37 137.582 Z" fill="#000000" fill-rule="evenodd" fill-opacity="1" /><path clip-path="url(#clip850)" d="M 0 0 M1573.31 160.637 L1573.31 144.943 L1577.57 144.943 L1577.57 160.475 Q1577.57 164.156 1579 166.008 Q1580.44 167.836 1583.31 167.836 Q1586.76 167.836 1588.75 165.637 Q1590.76 163.438 1590.76 159.642 L1590.76 144.943 L1595.02 144.943 L1595.02 170.869 L1590.76 170.869 L1590.76 166.887 Q1589.21 169.248 1587.15 170.406 Q1585.11 171.54 1582.4 171.54 Q1577.94 171.54 1575.62 168.762 Q1573.31 165.984 1573.31 160.637 M1584.03 144.318 L1584.03 144.318 Z" fill="#000000" fill-rule="evenodd" fill-opacity="1" /><path clip-path="url(#clip850)" d="M 0 0 M1618.82 148.924 Q1618.1 148.508 1617.24 148.322 Q1616.41 148.114 1615.39 148.114 Q1611.78 148.114 1609.84 150.475 Q1607.91 152.813 1607.91 157.211 L1607.91 170.869 L1603.63 170.869 L1603.63 144.943 L1607.91 144.943 L1607.91 148.971 Q1609.26 146.609 1611.41 145.475 Q1613.56 144.318 1616.64 144.318 Q1617.08 144.318 1617.61 144.387 Q1618.15 144.434 1618.79 144.549 L1618.82 148.924 Z" fill="#000000" fill-rule="evenodd" fill-opacity="1" /><path clip-path="url(#clip850)" d="M 0 0 M1644.42 156.841 L1644.42 158.924 L1624.84 158.924 Q1625.11 163.322 1627.47 165.637 Q1629.86 167.929 1634.09 167.929 Q1636.55 167.929 1638.84 167.327 Q1641.15 166.725 1643.42 165.521 L1643.42 169.549 Q1641.13 170.521 1638.72 171.031 Q1636.32 171.54 1633.84 171.54 Q1627.64 171.54 1624 167.929 Q1620.39 164.318 1620.39 158.16 Q1620.39 151.795 1623.82 148.068 Q1627.27 144.318 1633.1 144.318 Q1638.33 144.318 1641.36 147.697 Q1644.42 151.054 1644.42 156.841 M1640.16 155.591 Q1640.11 152.096 1638.19 150.012 Q1636.29 147.929 1633.15 147.929 Q1629.58 147.929 1627.43 149.943 Q1625.3 151.957 1624.97 155.614 L1640.16 155.591 Z" fill="#000000" fill-rule="evenodd" fill-opacity="1" /><path clip-path="url(#clip850)" d="M 0 0 M1686.66 149.92 Q1688.26 147.049 1690.48 145.684 Q1692.71 144.318 1695.71 144.318 Q1699.77 144.318 1701.96 147.165 Q1704.16 149.989 1704.16 155.221 L1704.16 170.869 L1699.88 170.869 L1699.88 155.359 Q1699.88 151.633 1698.56 149.827 Q1697.24 148.022 1694.53 148.022 Q1691.22 148.022 1689.3 150.221 Q1687.38 152.42 1687.38 156.216 L1687.38 170.869 L1683.1 170.869 L1683.1 155.359 Q1683.1 151.609 1681.78 149.827 Q1680.46 148.022 1677.71 148.022 Q1674.44 148.022 1672.52 150.244 Q1670.6 152.443 1670.6 156.216 L1670.6 170.869 L1666.32 170.869 L1666.32 144.943 L1670.6 144.943 L1670.6 148.971 Q1672.06 146.586 1674.09 145.452 Q1676.13 144.318 1678.93 144.318 Q1681.76 144.318 1683.72 145.753 Q1685.71 147.188 1686.66 149.92 Z" fill="#000000" fill-rule="evenodd" fill-opacity="1" /><path clip-path="url(#clip850)" d="M 0 0 M1722.7 147.929 Q1719.28 147.929 1717.29 150.614 Q1715.3 153.276 1715.3 157.929 Q1715.3 162.582 1717.27 165.267 Q1719.26 167.929 1722.7 167.929 Q1726.11 167.929 1728.1 165.244 Q1730.09 162.558 1730.09 157.929 Q1730.09 153.322 1728.1 150.637 Q1726.11 147.929 1722.7 147.929 M1722.7 144.318 Q1728.26 144.318 1731.43 147.929 Q1734.6 151.54 1734.6 157.929 Q1734.6 164.295 1731.43 167.929 Q1728.26 171.54 1722.7 171.54 Q1717.13 171.54 1713.95 167.929 Q1710.81 164.295 1710.81 157.929 Q1710.81 151.54 1713.95 147.929 Q1717.13 144.318 1722.7 144.318 Z" fill="#000000" fill-rule="evenodd" fill-opacity="1" /><path clip-path="url(#clip850)" d="M 0 0 M1758.72 148.878 L1758.72 134.85 L1762.98 134.85 L1762.98 170.869 L1758.72 170.869 L1758.72 166.98 Q1757.38 169.295 1755.32 170.429 Q1753.28 171.54 1750.41 171.54 Q1745.71 171.54 1742.75 167.79 Q1739.81 164.04 1739.81 157.929 Q1739.81 151.818 1742.75 148.068 Q1745.71 144.318 1750.41 144.318 Q1753.28 144.318 1755.32 145.452 Q1757.38 146.563 1758.72 148.878 M1744.21 157.929 Q1744.21 162.628 1746.13 165.313 Q1748.08 167.975 1751.45 167.975 Q1754.83 167.975 1756.78 165.313 Q1758.72 162.628 1758.72 157.929 Q1758.72 153.23 1756.78 150.568 Q1754.83 147.883 1751.45 147.883 Q1748.08 147.883 1746.13 150.568 Q1744.21 153.23 1744.21 157.929 Z" fill="#000000" fill-rule="evenodd" fill-opacity="1" /><path clip-path="url(#clip850)" d="M 0 0 M1793.93 156.841 L1793.93 158.924 L1774.35 158.924 Q1774.63 163.322 1776.99 165.637 Q1779.37 167.929 1783.61 167.929 Q1786.06 167.929 1788.35 167.327 Q1790.67 166.725 1792.94 165.521 L1792.94 169.549 Q1790.64 170.521 1788.24 171.031 Q1785.83 171.54 1783.35 171.54 Q1777.15 171.54 1773.51 167.929 Q1769.9 164.318 1769.9 158.16 Q1769.9 151.795 1773.33 148.068 Q1776.78 144.318 1782.61 144.318 Q1787.84 144.318 1790.88 147.697 Q1793.93 151.054 1793.93 156.841 M1789.67 155.591 Q1789.63 152.096 1787.7 150.012 Q1785.81 147.929 1782.66 147.929 Q1779.09 147.929 1776.94 149.943 Q1774.81 151.957 1774.49 155.614 L1789.67 155.591 Z" fill="#000000" fill-rule="evenodd" fill-opacity="1" /><path clip-path="url(#clip850)" d="M 0 0 M1800.92 134.85 L1805.18 134.85 L1805.18 170.869 L1800.92 170.869 L1800.92 134.85 Z" fill="#000000" fill-rule="evenodd" fill-opacity="1" /><path clip-path="url(#clip850)" d="M 0 0 M1839.39 134.897 Q1836.29 140.221 1834.79 145.429 Q1833.28 150.637 1833.28 155.984 Q1833.28 161.332 1834.79 166.586 Q1836.32 171.818 1839.39 177.119 L1835.69 177.119 Q1832.22 171.679 1830.48 166.424 Q1828.77 161.17 1828.77 155.984 Q1828.77 150.822 1830.48 145.591 Q1832.2 140.36 1835.69 134.897 L1839.39 134.897 Z" fill="#000000" fill-rule="evenodd" fill-opacity="1" /><path clip-path="url(#clip850)" d="M 0 0 M1847.84 136.309 L1854.81 136.309 L1863.63 159.827 L1872.5 136.309 L1879.46 136.309 L1879.46 170.869 L1874.9 170.869 L1874.9 140.522 L1865.99 164.225 L1861.29 164.225 L1852.38 140.522 L1852.38 170.869 L1847.84 170.869 L1847.84 136.309 Z" fill="#000000" fill-rule="evenodd" fill-opacity="1" /><path clip-path="url(#clip850)" d="M 0 0 M1887.89 134.897 L1891.59 134.897 Q1895.07 140.36 1896.78 145.591 Q1898.51 150.822 1898.51 155.984 Q1898.51 161.17 1896.78 166.424 Q1895.07 171.679 1891.59 177.119 L1887.89 177.119 Q1890.97 171.818 1892.47 166.586 Q1894 161.332 1894 155.984 Q1894 150.637 1892.47 145.429 Q1890.97 140.221 1887.89 134.897 Z" fill="#000000" fill-rule="evenodd" fill-opacity="1" /><path clip-path="url(#clip850)" d="M 0 0 M1938.65 145.707 L1938.65 149.734 Q1936.85 148.809 1934.9 148.346 Q1932.96 147.883 1930.88 147.883 Q1927.7 147.883 1926.11 148.855 Q1924.53 149.827 1924.53 151.771 Q1924.53 153.253 1925.67 154.109 Q1926.8 154.943 1930.23 155.707 L1931.69 156.031 Q1936.22 157.003 1938.12 158.785 Q1940.04 160.545 1940.04 163.716 Q1940.04 167.327 1937.17 169.433 Q1934.32 171.54 1929.32 171.54 Q1927.24 171.54 1924.97 171.123 Q1922.73 170.73 1920.23 169.92 L1920.23 165.521 Q1922.59 166.748 1924.88 167.373 Q1927.17 167.975 1929.42 167.975 Q1932.43 167.975 1934.05 166.957 Q1935.67 165.915 1935.67 164.04 Q1935.67 162.304 1934.49 161.378 Q1933.33 160.452 1929.37 159.596 L1927.89 159.248 Q1923.93 158.415 1922.17 156.702 Q1920.41 154.966 1920.41 151.957 Q1920.41 148.299 1923 146.309 Q1925.6 144.318 1930.37 144.318 Q1932.73 144.318 1934.81 144.665 Q1936.89 145.012 1938.65 145.707 Z" fill="#000000" fill-rule="evenodd" fill-opacity="1" /><path clip-path="url(#clip850)" d="M 0 0 M1958.61 157.836 Q1953.44 157.836 1951.45 159.017 Q1949.46 160.197 1949.46 163.045 Q1949.46 165.313 1950.94 166.656 Q1952.45 167.975 1955.02 167.975 Q1958.56 167.975 1960.69 165.475 Q1962.84 162.952 1962.84 158.785 L1962.84 157.836 L1958.61 157.836 M1967.1 156.077 L1967.1 170.869 L1962.84 170.869 L1962.84 166.933 Q1961.38 169.295 1959.21 170.429 Q1957.03 171.54 1953.88 171.54 Q1949.9 171.54 1947.54 169.318 Q1945.2 167.072 1945.2 163.322 Q1945.2 158.947 1948.12 156.725 Q1951.06 154.503 1956.87 154.503 L1962.84 154.503 L1962.84 154.086 Q1962.84 151.147 1960.9 149.549 Q1958.98 147.929 1955.48 147.929 Q1953.26 147.929 1951.15 148.461 Q1949.05 148.994 1947.1 150.059 L1947.1 146.123 Q1949.44 145.221 1951.64 144.781 Q1953.84 144.318 1955.92 144.318 Q1961.55 144.318 1964.32 147.234 Q1967.1 150.151 1967.1 156.077 Z" fill="#000000" fill-rule="evenodd" fill-opacity="1" /><path clip-path="url(#clip850)" d="M 0 0 M1996.06 149.92 Q1997.66 147.049 1999.88 145.684 Q2002.1 144.318 2005.11 144.318 Q2009.16 144.318 2011.36 147.165 Q2013.56 149.989 2013.56 155.221 L2013.56 170.869 L2009.28 170.869 L2009.28 155.359 Q2009.28 151.633 2007.96 149.827 Q2006.64 148.022 2003.93 148.022 Q2000.62 148.022 1998.7 150.221 Q1996.78 152.42 1996.78 156.216 L1996.78 170.869 L1992.5 170.869 L1992.5 155.359 Q1992.5 151.609 1991.18 149.827 Q1989.86 148.022 1987.1 148.022 Q1983.84 148.022 1981.92 150.244 Q1980 152.443 1980 156.216 L1980 170.869 L1975.71 170.869 L1975.71 144.943 L1980 144.943 L1980 148.971 Q1981.45 146.586 1983.49 145.452 Q1985.53 144.318 1988.33 144.318 Q1991.15 144.318 1993.12 145.753 Q1995.11 147.188 1996.06 149.92 Z" fill="#000000" fill-rule="evenodd" fill-opacity="1" /><path clip-path="url(#clip850)" d="M 0 0 M2026.18 166.98 L2026.18 180.73 L2021.89 180.73 L2021.89 144.943 L2026.18 144.943 L2026.18 148.878 Q2027.52 146.563 2029.56 145.452 Q2031.62 144.318 2034.46 144.318 Q2039.18 144.318 2042.12 148.068 Q2045.09 151.818 2045.09 157.929 Q2045.09 164.04 2042.12 167.79 Q2039.18 171.54 2034.46 171.54 Q2031.62 171.54 2029.56 170.429 Q2027.52 169.295 2026.18 166.98 M2040.67 157.929 Q2040.67 153.23 2038.72 150.568 Q2036.8 147.883 2033.42 147.883 Q2030.04 147.883 2028.1 150.568 Q2026.18 153.23 2026.18 157.929 Q2026.18 162.628 2028.1 165.313 Q2030.04 167.975 2033.42 167.975 Q2036.8 167.975 2038.72 165.313 Q2040.67 162.628 2040.67 157.929 Z" fill="#000000" fill-rule="evenodd" fill-opacity="1" /><path clip-path="url(#clip850)" d="M 0 0 M2052.15 134.85 L2056.41 134.85 L2056.41 170.869 L2052.15 170.869 L2052.15 134.85 Z" fill="#000000" fill-rule="evenodd" fill-opacity="1" /><path clip-path="url(#clip850)" d="M 0 0 M2087.49 156.841 L2087.49 158.924 L2067.91 158.924 Q2068.19 163.322 2070.55 165.637 Q2072.93 167.929 2077.17 167.929 Q2079.62 167.929 2081.92 167.327 Q2084.23 166.725 2086.5 165.521 L2086.5 169.549 Q2084.21 170.521 2081.8 171.031 Q2079.39 171.54 2076.92 171.54 Q2070.71 171.54 2067.08 167.929 Q2063.47 164.318 2063.47 158.16 Q2063.47 151.795 2066.89 148.068 Q2070.34 144.318 2076.18 144.318 Q2081.41 144.318 2084.44 147.697 Q2087.49 151.054 2087.49 156.841 M2083.24 155.591 Q2083.19 152.096 2081.27 150.012 Q2079.37 147.929 2076.22 147.929 Q2072.66 147.929 2070.5 149.943 Q2068.37 151.957 2068.05 155.614 L2083.24 155.591 Z" fill="#000000" fill-rule="evenodd" fill-opacity="1" /><path clip-path="url(#clip850)" d="M 0 0 M2111.01 145.707 L2111.01 149.734 Q2109.21 148.809 2107.26 148.346 Q2105.32 147.883 2103.24 147.883 Q2100.06 147.883 2098.47 148.855 Q2096.89 149.827 2096.89 151.771 Q2096.89 153.253 2098.03 154.109 Q2099.16 154.943 2102.59 155.707 L2104.05 156.031 Q2108.58 157.003 2110.48 158.785 Q2112.4 160.545 2112.4 163.716 Q2112.4 167.327 2109.53 169.433 Q2106.68 171.54 2101.68 171.54 Q2099.6 171.54 2097.33 171.123 Q2095.09 170.73 2092.59 169.92 L2092.59 165.521 Q2094.95 166.748 2097.24 167.373 Q2099.53 167.975 2101.78 167.975 Q2104.79 167.975 2106.41 166.957 Q2108.03 165.915 2108.03 164.04 Q2108.03 162.304 2106.85 161.378 Q2105.69 160.452 2101.73 159.596 L2100.25 159.248 Q2096.29 158.415 2094.53 156.702 Q2092.77 154.966 2092.77 151.957 Q2092.77 148.299 2095.36 146.309 Q2097.96 144.318 2102.73 144.318 Q2105.09 144.318 2107.17 144.665 Q2109.25 145.012 2111.01 145.707 Z" fill="#000000" fill-rule="evenodd" fill-opacity="1" /><polyline clip-path="url(#clip850)" style="stroke:#e26f46; stroke-width:4; stroke-opacity:1; fill:none" points="
  1141.38,214.069 1279.58,214.069 
  "/>
<path clip-path="url(#clip850)" d="M 0 0 M1304.07 196.789 L1322.43 196.789 L1322.43 200.724 L1308.36 200.724 L1308.36 209.196 Q1309.37 208.849 1310.39 208.687 Q1311.41 208.502 1312.43 208.502 Q1318.22 208.502 1321.6 211.673 Q1324.98 214.844 1324.98 220.261 Q1324.98 225.839 1321.5 228.941 Q1318.03 232.02 1311.71 232.02 Q1309.54 232.02 1307.27 231.65 Q1305.02 231.279 1302.61 230.538 L1302.61 225.839 Q1304.7 226.974 1306.92 227.529 Q1309.14 228.085 1311.62 228.085 Q1315.62 228.085 1317.96 225.978 Q1320.3 223.872 1320.3 220.261 Q1320.3 216.65 1317.96 214.543 Q1315.62 212.437 1311.62 212.437 Q1309.74 212.437 1307.87 212.853 Q1306.02 213.27 1304.07 214.15 L1304.07 196.789 Z" fill="#000000" fill-rule="evenodd" fill-opacity="1" /><path clip-path="url(#clip850)" d="M 0 0 M1344.19 199.867 Q1340.58 199.867 1338.75 203.432 Q1336.94 206.974 1336.94 214.103 Q1336.94 221.21 1338.75 224.775 Q1340.58 228.316 1344.19 228.316 Q1347.82 228.316 1349.63 224.775 Q1351.46 221.21 1351.46 214.103 Q1351.46 206.974 1349.63 203.432 Q1347.82 199.867 1344.19 199.867 M1344.19 196.164 Q1350 196.164 1353.05 200.77 Q1356.13 205.353 1356.13 214.103 Q1356.13 222.83 1353.05 227.437 Q1350 232.02 1344.19 232.02 Q1338.38 232.02 1335.3 227.437 Q1332.24 222.83 1332.24 214.103 Q1332.24 205.353 1335.3 200.77 Q1338.38 196.164 1344.19 196.164 Z" fill="#000000" fill-rule="evenodd" fill-opacity="1" /><path clip-path="url(#clip850)" d="M 0 0 M1374.35 199.867 Q1370.74 199.867 1368.91 203.432 Q1367.1 206.974 1367.1 214.103 Q1367.1 221.21 1368.91 224.775 Q1370.74 228.316 1374.35 228.316 Q1377.98 228.316 1379.79 224.775 Q1381.62 221.21 1381.62 214.103 Q1381.62 206.974 1379.79 203.432 Q1377.98 199.867 1374.35 199.867 M1374.35 196.164 Q1380.16 196.164 1383.22 200.77 Q1386.29 205.353 1386.29 214.103 Q1386.29 222.83 1383.22 227.437 Q1380.16 232.02 1374.35 232.02 Q1368.54 232.02 1365.46 227.437 Q1362.41 222.83 1362.41 214.103 Q1362.41 205.353 1365.46 200.77 Q1368.54 196.164 1374.35 196.164 Z" fill="#000000" fill-rule="evenodd" fill-opacity="1" /><path clip-path="url(#clip850)" d="M 0 0 M1404.51 199.867 Q1400.9 199.867 1399.07 203.432 Q1397.27 206.974 1397.27 214.103 Q1397.27 221.21 1399.07 224.775 Q1400.9 228.316 1404.51 228.316 Q1408.15 228.316 1409.95 224.775 Q1411.78 221.21 1411.78 214.103 Q1411.78 206.974 1409.95 203.432 Q1408.15 199.867 1404.51 199.867 M1404.51 196.164 Q1410.32 196.164 1413.38 200.77 Q1416.46 205.353 1416.46 214.103 Q1416.46 222.83 1413.38 227.437 Q1410.32 232.02 1404.51 232.02 Q1398.7 232.02 1395.62 227.437 Q1392.57 222.83 1392.57 214.103 Q1392.57 205.353 1395.62 200.77 Q1398.7 196.164 1404.51 196.164 Z" fill="#000000" fill-rule="evenodd" fill-opacity="1" /><path clip-path="url(#clip850)" d="M 0 0 M1434.67 199.867 Q1431.06 199.867 1429.23 203.432 Q1427.43 206.974 1427.43 214.103 Q1427.43 221.21 1429.23 224.775 Q1431.06 228.316 1434.67 228.316 Q1438.31 228.316 1440.11 224.775 Q1441.94 221.21 1441.94 214.103 Q1441.94 206.974 1440.11 203.432 Q1438.31 199.867 1434.67 199.867 M1434.67 196.164 Q1440.48 196.164 1443.54 200.77 Q1446.62 205.353 1446.62 214.103 Q1446.62 222.83 1443.54 227.437 Q1440.48 232.02 1434.67 232.02 Q1428.86 232.02 1425.79 227.437 Q1422.73 222.83 1422.73 214.103 Q1422.73 205.353 1425.79 200.77 Q1428.86 196.164 1434.67 196.164 Z" fill="#000000" fill-rule="evenodd" fill-opacity="1" /><path clip-path="url(#clip850)" d="M 0 0 M1485.83 206.187 L1485.83 210.214 Q1484.03 209.289 1482.08 208.826 Q1480.14 208.363 1478.05 208.363 Q1474.88 208.363 1473.28 209.335 Q1471.71 210.307 1471.71 212.251 Q1471.71 213.733 1472.85 214.589 Q1473.98 215.423 1477.41 216.187 L1478.86 216.511 Q1483.4 217.483 1485.3 219.265 Q1487.22 221.025 1487.22 224.196 Q1487.22 227.807 1484.35 229.913 Q1481.5 232.02 1476.5 232.02 Q1474.42 232.02 1472.15 231.603 Q1469.91 231.21 1467.41 230.4 L1467.41 226.001 Q1469.77 227.228 1472.06 227.853 Q1474.35 228.455 1476.6 228.455 Q1479.6 228.455 1481.22 227.437 Q1482.85 226.395 1482.85 224.52 Q1482.85 222.784 1481.66 221.858 Q1480.51 220.932 1476.55 220.076 L1475.07 219.728 Q1471.11 218.895 1469.35 217.182 Q1467.59 215.446 1467.59 212.437 Q1467.59 208.779 1470.18 206.789 Q1472.78 204.798 1477.54 204.798 Q1479.91 204.798 1481.99 205.145 Q1484.07 205.492 1485.83 206.187 Z" fill="#000000" fill-rule="evenodd" fill-opacity="1" /><path clip-path="url(#clip850)" d="M 0 0 M1505.78 218.316 Q1500.62 218.316 1498.63 219.497 Q1496.64 220.677 1496.64 223.525 Q1496.64 225.793 1498.12 227.136 Q1499.63 228.455 1502.2 228.455 Q1505.74 228.455 1507.87 225.955 Q1510.02 223.432 1510.02 219.265 L1510.02 218.316 L1505.78 218.316 M1514.28 216.557 L1514.28 231.349 L1510.02 231.349 L1510.02 227.413 Q1508.56 229.775 1506.39 230.909 Q1504.21 232.02 1501.06 232.02 Q1497.08 232.02 1494.72 229.798 Q1492.38 227.552 1492.38 223.802 Q1492.38 219.427 1495.3 217.205 Q1498.24 214.983 1504.05 214.983 L1510.02 214.983 L1510.02 214.566 Q1510.02 211.627 1508.08 210.029 Q1506.16 208.409 1502.66 208.409 Q1500.44 208.409 1498.33 208.941 Q1496.22 209.474 1494.28 210.539 L1494.28 206.603 Q1496.62 205.701 1498.82 205.261 Q1501.02 204.798 1503.1 204.798 Q1508.72 204.798 1511.5 207.714 Q1514.28 210.631 1514.28 216.557 Z" fill="#000000" fill-rule="evenodd" fill-opacity="1" /><path clip-path="url(#clip850)" d="M 0 0 M1543.24 210.4 Q1544.84 207.529 1547.06 206.164 Q1549.28 204.798 1552.29 204.798 Q1556.34 204.798 1558.54 207.645 Q1560.74 210.469 1560.74 215.701 L1560.74 231.349 L1556.46 231.349 L1556.46 215.839 Q1556.46 212.113 1555.14 210.307 Q1553.82 208.502 1551.11 208.502 Q1547.8 208.502 1545.88 210.701 Q1543.96 212.9 1543.96 216.696 L1543.96 231.349 L1539.67 231.349 L1539.67 215.839 Q1539.67 212.089 1538.35 210.307 Q1537.03 208.502 1534.28 208.502 Q1531.02 208.502 1529.09 210.724 Q1527.17 212.923 1527.17 216.696 L1527.17 231.349 L1522.89 231.349 L1522.89 205.423 L1527.17 205.423 L1527.17 209.451 Q1528.63 207.066 1530.67 205.932 Q1532.71 204.798 1535.51 204.798 Q1538.33 204.798 1540.3 206.233 Q1542.29 207.668 1543.24 210.4 Z" fill="#000000" fill-rule="evenodd" fill-opacity="1" /><path clip-path="url(#clip850)" d="M 0 0 M1573.35 227.46 L1573.35 241.21 L1569.07 241.21 L1569.07 205.423 L1573.35 205.423 L1573.35 209.358 Q1574.7 207.043 1576.73 205.932 Q1578.79 204.798 1581.64 204.798 Q1586.36 204.798 1589.3 208.548 Q1592.27 212.298 1592.27 218.409 Q1592.27 224.52 1589.3 228.27 Q1586.36 232.02 1581.64 232.02 Q1578.79 232.02 1576.73 230.909 Q1574.7 229.775 1573.35 227.46 M1587.84 218.409 Q1587.84 213.71 1585.9 211.048 Q1583.98 208.363 1580.6 208.363 Q1577.22 208.363 1575.28 211.048 Q1573.35 213.71 1573.35 218.409 Q1573.35 223.108 1575.28 225.793 Q1577.22 228.455 1580.6 228.455 Q1583.98 228.455 1585.9 225.793 Q1587.84 223.108 1587.84 218.409 Z" fill="#000000" fill-rule="evenodd" fill-opacity="1" /><path clip-path="url(#clip850)" d="M 0 0 M1599.33 195.33 L1603.59 195.33 L1603.59 231.349 L1599.33 231.349 L1599.33 195.33 Z" fill="#000000" fill-rule="evenodd" fill-opacity="1" /><path clip-path="url(#clip850)" d="M 0 0 M1634.67 217.321 L1634.67 219.404 L1615.09 219.404 Q1615.37 223.802 1617.73 226.117 Q1620.11 228.409 1624.35 228.409 Q1626.8 228.409 1629.09 227.807 Q1631.41 227.205 1633.68 226.001 L1633.68 230.029 Q1631.39 231.001 1628.98 231.511 Q1626.57 232.02 1624.09 232.02 Q1617.89 232.02 1614.26 228.409 Q1610.65 224.798 1610.65 218.64 Q1610.65 212.275 1614.07 208.548 Q1617.52 204.798 1623.35 204.798 Q1628.58 204.798 1631.62 208.177 Q1634.67 211.534 1634.67 217.321 M1630.41 216.071 Q1630.37 212.576 1628.45 210.492 Q1626.55 208.409 1623.4 208.409 Q1619.84 208.409 1617.68 210.423 Q1615.55 212.437 1615.23 216.094 L1630.41 216.071 Z" fill="#000000" fill-rule="evenodd" fill-opacity="1" /><path clip-path="url(#clip850)" d="M 0 0 M1658.19 206.187 L1658.19 210.214 Q1656.39 209.289 1654.44 208.826 Q1652.5 208.363 1650.41 208.363 Q1647.24 208.363 1645.65 209.335 Q1644.07 210.307 1644.07 212.251 Q1644.07 213.733 1645.21 214.589 Q1646.34 215.423 1649.77 216.187 L1651.22 216.511 Q1655.76 217.483 1657.66 219.265 Q1659.58 221.025 1659.58 224.196 Q1659.58 227.807 1656.71 229.913 Q1653.86 232.02 1648.86 232.02 Q1646.78 232.02 1644.51 231.603 Q1642.27 231.21 1639.77 230.4 L1639.77 226.001 Q1642.13 227.228 1644.42 227.853 Q1646.71 228.455 1648.96 228.455 Q1651.96 228.455 1653.58 227.437 Q1655.21 226.395 1655.21 224.52 Q1655.21 222.784 1654.02 221.858 Q1652.87 220.932 1648.91 220.076 L1647.43 219.728 Q1643.47 218.895 1641.71 217.182 Q1639.95 215.446 1639.95 212.437 Q1639.95 208.779 1642.54 206.789 Q1645.14 204.798 1649.9 204.798 Q1652.27 204.798 1654.35 205.145 Q1656.43 205.492 1658.19 206.187 Z" fill="#000000" fill-rule="evenodd" fill-opacity="1" /><path clip-path="url(#clip850)" d="M 0 0 M1694.56 195.33 L1694.56 198.872 L1690.48 198.872 Q1688.19 198.872 1687.29 199.798 Q1686.41 200.724 1686.41 203.131 L1686.41 205.423 L1693.42 205.423 L1693.42 208.733 L1686.41 208.733 L1686.41 231.349 L1682.13 231.349 L1682.13 208.733 L1678.05 208.733 L1678.05 205.423 L1682.13 205.423 L1682.13 203.617 Q1682.13 199.289 1684.14 197.321 Q1686.15 195.33 1690.53 195.33 L1694.56 195.33 Z" fill="#000000" fill-rule="evenodd" fill-opacity="1" /><path clip-path="url(#clip850)" d="M 0 0 M1713.14 209.404 Q1712.43 208.988 1711.57 208.802 Q1710.74 208.594 1709.72 208.594 Q1706.11 208.594 1704.16 210.955 Q1702.24 213.293 1702.24 217.691 L1702.24 231.349 L1697.96 231.349 L1697.96 205.423 L1702.24 205.423 L1702.24 209.451 Q1703.58 207.089 1705.74 205.955 Q1707.89 204.798 1710.97 204.798 Q1711.41 204.798 1711.94 204.867 Q1712.47 204.914 1713.12 205.029 L1713.14 209.404 Z" fill="#000000" fill-rule="evenodd" fill-opacity="1" /><path clip-path="url(#clip850)" d="M 0 0 M1726.62 208.409 Q1723.19 208.409 1721.2 211.094 Q1719.21 213.756 1719.21 218.409 Q1719.21 223.062 1721.18 225.747 Q1723.17 228.409 1726.62 228.409 Q1730.02 228.409 1732.01 225.724 Q1734 223.038 1734 218.409 Q1734 213.802 1732.01 211.117 Q1730.02 208.409 1726.62 208.409 M1726.62 204.798 Q1732.17 204.798 1735.34 208.409 Q1738.51 212.02 1738.51 218.409 Q1738.51 224.775 1735.34 228.409 Q1732.17 232.02 1726.62 232.02 Q1721.04 232.02 1717.87 228.409 Q1714.72 224.775 1714.72 218.409 Q1714.72 212.02 1717.87 208.409 Q1721.04 204.798 1726.62 204.798 Z" fill="#000000" fill-rule="evenodd" fill-opacity="1" /><path clip-path="url(#clip850)" d="M 0 0 M1765.76 210.4 Q1767.36 207.529 1769.58 206.164 Q1771.8 204.798 1774.81 204.798 Q1778.86 204.798 1781.06 207.645 Q1783.26 210.469 1783.26 215.701 L1783.26 231.349 L1778.98 231.349 L1778.98 215.839 Q1778.98 212.113 1777.66 210.307 Q1776.34 208.502 1773.63 208.502 Q1770.32 208.502 1768.4 210.701 Q1766.48 212.9 1766.48 216.696 L1766.48 231.349 L1762.2 231.349 L1762.2 215.839 Q1762.2 212.089 1760.88 210.307 Q1759.56 208.502 1756.8 208.502 Q1753.54 208.502 1751.62 210.724 Q1749.7 212.923 1749.7 216.696 L1749.7 231.349 L1745.41 231.349 L1745.41 205.423 L1749.7 205.423 L1749.7 209.451 Q1751.15 207.066 1753.19 205.932 Q1755.23 204.798 1758.03 204.798 Q1760.85 204.798 1762.82 206.233 Q1764.81 207.668 1765.76 210.4 Z" fill="#000000" fill-rule="evenodd" fill-opacity="1" /><path clip-path="url(#clip850)" d="M 0 0 M1807.01 196.789 L1811.69 196.789 L1811.69 211.395 L1827.2 196.789 L1833.21 196.789 L1816.06 212.9 L1834.44 231.349 L1828.28 231.349 L1811.69 214.705 L1811.69 231.349 L1807.01 231.349 L1807.01 196.789 Z" fill="#000000" fill-rule="evenodd" fill-opacity="1" /><path clip-path="url(#clip850)" d="M 0 0 M1842.77 200.631 L1842.77 227.506 L1848.42 227.506 Q1855.57 227.506 1858.88 224.265 Q1862.22 221.025 1862.22 214.034 Q1862.22 207.089 1858.88 203.872 Q1855.57 200.631 1848.42 200.631 L1842.77 200.631 M1838.1 196.789 L1847.7 196.789 Q1857.75 196.789 1862.45 200.978 Q1867.15 205.145 1867.15 214.034 Q1867.15 222.969 1862.43 227.159 Q1857.7 231.349 1847.7 231.349 L1838.1 231.349 L1838.1 196.789 Z" fill="#000000" fill-rule="evenodd" fill-opacity="1" /><path clip-path="url(#clip850)" d="M 0 0 M1874.6 196.789 L1896.45 196.789 L1896.45 200.724 L1879.28 200.724 L1879.28 210.955 L1895.74 210.955 L1895.74 214.89 L1879.28 214.89 L1879.28 227.413 L1896.87 227.413 L1896.87 231.349 L1874.6 231.349 L1874.6 196.789 Z" fill="#000000" fill-rule="evenodd" fill-opacity="1" /><path clip-path="url(#clip850)" d="M 0 0 M1941.62 217.321 L1941.62 219.404 L1922.03 219.404 Q1922.31 223.802 1924.67 226.117 Q1927.06 228.409 1931.29 228.409 Q1933.75 228.409 1936.04 227.807 Q1938.35 227.205 1940.62 226.001 L1940.62 230.029 Q1938.33 231.001 1935.92 231.511 Q1933.51 232.02 1931.04 232.02 Q1924.83 232.02 1921.2 228.409 Q1917.59 224.798 1917.59 218.64 Q1917.59 212.275 1921.01 208.548 Q1924.46 204.798 1930.3 204.798 Q1935.53 204.798 1938.56 208.177 Q1941.62 211.534 1941.62 217.321 M1937.36 216.071 Q1937.31 212.576 1935.39 210.492 Q1933.49 208.409 1930.34 208.409 Q1926.78 208.409 1924.63 210.423 Q1922.5 212.437 1922.17 216.094 L1937.36 216.071 Z" fill="#000000" fill-rule="evenodd" fill-opacity="1" /><path clip-path="url(#clip850)" d="M 0 0 M1965.13 206.187 L1965.13 210.214 Q1963.33 209.289 1961.38 208.826 Q1959.44 208.363 1957.36 208.363 Q1954.19 208.363 1952.59 209.335 Q1951.01 210.307 1951.01 212.251 Q1951.01 213.733 1952.15 214.589 Q1953.28 215.423 1956.71 216.187 L1958.17 216.511 Q1962.7 217.483 1964.6 219.265 Q1966.52 221.025 1966.52 224.196 Q1966.52 227.807 1963.65 229.913 Q1960.81 232.02 1955.81 232.02 Q1953.72 232.02 1951.45 231.603 Q1949.21 231.21 1946.71 230.4 L1946.71 226.001 Q1949.07 227.228 1951.36 227.853 Q1953.65 228.455 1955.9 228.455 Q1958.91 228.455 1960.53 227.437 Q1962.15 226.395 1962.15 224.52 Q1962.15 222.784 1960.97 221.858 Q1959.81 220.932 1955.85 220.076 L1954.37 219.728 Q1950.41 218.895 1948.65 217.182 Q1946.89 215.446 1946.89 212.437 Q1946.89 208.779 1949.49 206.789 Q1952.08 204.798 1956.85 204.798 Q1959.21 204.798 1961.29 205.145 Q1963.37 205.492 1965.13 206.187 Z" fill="#000000" fill-rule="evenodd" fill-opacity="1" /><path clip-path="url(#clip850)" d="M 0 0 M1977.52 198.062 L1977.52 205.423 L1986.29 205.423 L1986.29 208.733 L1977.52 208.733 L1977.52 222.807 Q1977.52 225.978 1978.37 226.881 Q1979.25 227.784 1981.92 227.784 L1986.29 227.784 L1986.29 231.349 L1981.92 231.349 Q1976.99 231.349 1975.11 229.52 Q1973.24 227.668 1973.24 222.807 L1973.24 208.733 L1970.11 208.733 L1970.11 205.423 L1973.24 205.423 L1973.24 198.062 L1977.52 198.062 Z" fill="#000000" fill-rule="evenodd" fill-opacity="1" /><path clip-path="url(#clip850)" d="M 0 0 M1991.89 205.423 L1996.15 205.423 L1996.15 231.349 L1991.89 231.349 L1991.89 205.423 M1991.89 195.33 L1996.15 195.33 L1996.15 200.724 L1991.89 200.724 L1991.89 195.33 Z" fill="#000000" fill-rule="evenodd" fill-opacity="1" /><path clip-path="url(#clip850)" d="M 0 0 M2025.25 210.4 Q2026.85 207.529 2029.07 206.164 Q2031.29 204.798 2034.3 204.798 Q2038.35 204.798 2040.55 207.645 Q2042.75 210.469 2042.75 215.701 L2042.75 231.349 L2038.47 231.349 L2038.47 215.839 Q2038.47 212.113 2037.15 210.307 Q2035.83 208.502 2033.12 208.502 Q2029.81 208.502 2027.89 210.701 Q2025.97 212.9 2025.97 216.696 L2025.97 231.349 L2021.68 231.349 L2021.68 215.839 Q2021.68 212.089 2020.37 210.307 Q2019.05 208.502 2016.29 208.502 Q2013.03 208.502 2011.11 210.724 Q2009.18 212.923 2009.18 216.696 L2009.18 231.349 L2004.9 231.349 L2004.9 205.423 L2009.18 205.423 L2009.18 209.451 Q2010.64 207.066 2012.68 205.932 Q2014.72 204.798 2017.52 204.798 Q2020.34 204.798 2022.31 206.233 Q2024.3 207.668 2025.25 210.4 Z" fill="#000000" fill-rule="evenodd" fill-opacity="1" /><path clip-path="url(#clip850)" d="M 0 0 M2063.03 218.316 Q2057.87 218.316 2055.87 219.497 Q2053.88 220.677 2053.88 223.525 Q2053.88 225.793 2055.37 227.136 Q2056.87 228.455 2059.44 228.455 Q2062.98 228.455 2065.11 225.955 Q2067.26 223.432 2067.26 219.265 L2067.26 218.316 L2063.03 218.316 M2071.52 216.557 L2071.52 231.349 L2067.26 231.349 L2067.26 227.413 Q2065.8 229.775 2063.63 230.909 Q2061.45 232.02 2058.3 232.02 Q2054.32 232.02 2051.96 229.798 Q2049.62 227.552 2049.62 223.802 Q2049.62 219.427 2052.54 217.205 Q2055.48 214.983 2061.29 214.983 L2067.26 214.983 L2067.26 214.566 Q2067.26 211.627 2065.32 210.029 Q2063.4 208.409 2059.9 208.409 Q2057.68 208.409 2055.57 208.941 Q2053.47 209.474 2051.52 210.539 L2051.52 206.603 Q2053.86 205.701 2056.06 205.261 Q2058.26 204.798 2060.34 204.798 Q2065.97 204.798 2068.74 207.714 Q2071.52 210.631 2071.52 216.557 Z" fill="#000000" fill-rule="evenodd" fill-opacity="1" /><path clip-path="url(#clip850)" d="M 0 0 M2084.51 198.062 L2084.51 205.423 L2093.28 205.423 L2093.28 208.733 L2084.51 208.733 L2084.51 222.807 Q2084.51 225.978 2085.36 226.881 Q2086.24 227.784 2088.91 227.784 L2093.28 227.784 L2093.28 231.349 L2088.91 231.349 Q2083.98 231.349 2082.1 229.52 Q2080.23 227.668 2080.23 222.807 L2080.23 208.733 L2077.1 208.733 L2077.1 205.423 L2080.23 205.423 L2080.23 198.062 L2084.51 198.062 Z" fill="#000000" fill-rule="evenodd" fill-opacity="1" /><path clip-path="url(#clip850)" d="M 0 0 M2121.06 217.321 L2121.06 219.404 L2101.48 219.404 Q2101.75 223.802 2104.11 226.117 Q2106.5 228.409 2110.74 228.409 Q2113.19 228.409 2115.48 227.807 Q2117.8 227.205 2120.06 226.001 L2120.06 230.029 Q2117.77 231.001 2115.36 231.511 Q2112.96 232.02 2110.48 232.02 Q2104.28 232.02 2100.64 228.409 Q2097.03 224.798 2097.03 218.64 Q2097.03 212.275 2100.46 208.548 Q2103.91 204.798 2109.74 204.798 Q2114.97 204.798 2118 208.177 Q2121.06 211.534 2121.06 217.321 M2116.8 216.071 Q2116.75 212.576 2114.83 210.492 Q2112.93 208.409 2109.79 208.409 Q2106.22 208.409 2104.07 210.423 Q2101.94 212.437 2101.61 216.094 L2116.8 216.071 Z" fill="#000000" fill-rule="evenodd" fill-opacity="1" /><path clip-path="url(#clip850)" d="M 0 0 M2147.33 198.062 L2147.33 205.423 L2156.11 205.423 L2156.11 208.733 L2147.33 208.733 L2147.33 222.807 Q2147.33 225.978 2148.19 226.881 Q2149.07 227.784 2151.73 227.784 L2156.11 227.784 L2156.11 231.349 L2151.73 231.349 Q2146.8 231.349 2144.92 229.52 Q2143.05 227.668 2143.05 222.807 L2143.05 208.733 L2139.92 208.733 L2139.92 205.423 L2143.05 205.423 L2143.05 198.062 L2147.33 198.062 Z" fill="#000000" fill-rule="evenodd" fill-opacity="1" /><path clip-path="url(#clip850)" d="M 0 0 M2171.75 208.409 Q2168.33 208.409 2166.34 211.094 Q2164.35 213.756 2164.35 218.409 Q2164.35 223.062 2166.31 225.747 Q2168.3 228.409 2171.75 228.409 Q2175.16 228.409 2177.15 225.724 Q2179.14 223.038 2179.14 218.409 Q2179.14 213.802 2177.15 211.117 Q2175.16 208.409 2171.75 208.409 M2171.75 204.798 Q2177.31 204.798 2180.48 208.409 Q2183.65 212.02 2183.65 218.409 Q2183.65 224.775 2180.48 228.409 Q2177.31 232.02 2171.75 232.02 Q2166.17 232.02 2163 228.409 Q2159.86 224.775 2159.86 218.409 Q2159.86 212.02 2163 208.409 Q2166.17 204.798 2171.75 204.798 Z" fill="#000000" fill-rule="evenodd" fill-opacity="1" /><path clip-path="url(#clip850)" d="M 0 0 M2205.97 196.789 L2212.93 196.789 L2221.75 220.307 L2230.62 196.789 L2237.59 196.789 L2237.59 231.349 L2233.03 231.349 L2233.03 201.002 L2224.11 224.705 L2219.42 224.705 L2210.5 201.002 L2210.5 231.349 L2205.97 231.349 L2205.97 196.789 Z" fill="#000000" fill-rule="evenodd" fill-opacity="1" /></svg>
