<?xml version="1.0" encoding="utf-8"?>
<svg xmlns="http://www.w3.org/2000/svg" xmlns:xlink="http://www.w3.org/1999/xlink" width="600" height="400" viewBox="0 0 2400 1600">
<defs>
  <clipPath id="clip9100">
    <rect x="0" y="0" width="2400" height="1600"/>
  </clipPath>
</defs>
<polygon clip-path="url(#clip9100)" points="
0,1600 2400,1600 2400,0 0,0 
  " fill="#ffffff" fill-rule="evenodd" fill-opacity="1"/>
<defs>
  <clipPath id="clip9101">
    <rect x="480" y="0" width="1681" height="1600"/>
  </clipPath>
</defs>
<polygon clip-path="url(#clip9100)" points="
215.754,625.619 2352.76,625.619 2352.76,47.2441 215.754,47.2441 
  " fill="#ffffff" fill-rule="evenodd" fill-opacity="1"/>
<defs>
  <clipPath id="clip9102">
    <rect x="215" y="47" width="2138" height="579"/>
  </clipPath>
</defs>
<polyline clip-path="url(#clip9102)" style="stroke:#000000; stroke-width:2; stroke-opacity:0.1; fill:none" points="
  336.669,625.619 336.669,47.2441 
  "/>
<polyline clip-path="url(#clip9102)" style="stroke:#000000; stroke-width:2; stroke-opacity:0.1; fill:none" points="
  826.715,625.619 826.715,47.2441 
  "/>
<polyline clip-path="url(#clip9102)" style="stroke:#000000; stroke-width:2; stroke-opacity:0.1; fill:none" points="
  1316.76,625.619 1316.76,47.2441 
  "/>
<polyline clip-path="url(#clip9102)" style="stroke:#000000; stroke-width:2; stroke-opacity:0.1; fill:none" points="
  1806.81,625.619 1806.81,47.2441 
  "/>
<polyline clip-path="url(#clip9102)" style="stroke:#000000; stroke-width:2; stroke-opacity:0.1; fill:none" points="
  2296.85,625.619 2296.85,47.2441 
  "/>
<polyline clip-path="url(#clip9102)" style="stroke:#000000; stroke-width:2; stroke-opacity:0.1; fill:none" points="
  215.754,609.25 2352.76,609.25 
  "/>
<polyline clip-path="url(#clip9102)" style="stroke:#000000; stroke-width:2; stroke-opacity:0.1; fill:none" points="
  215.754,520.433 2352.76,520.433 
  "/>
<polyline clip-path="url(#clip9102)" style="stroke:#000000; stroke-width:2; stroke-opacity:0.1; fill:none" points="
  215.754,431.616 2352.76,431.616 
  "/>
<polyline clip-path="url(#clip9102)" style="stroke:#000000; stroke-width:2; stroke-opacity:0.1; fill:none" points="
  215.754,342.799 2352.76,342.799 
  "/>
<polyline clip-path="url(#clip9102)" style="stroke:#000000; stroke-width:2; stroke-opacity:0.1; fill:none" points="
  215.754,253.982 2352.76,253.982 
  "/>
<polyline clip-path="url(#clip9102)" style="stroke:#000000; stroke-width:2; stroke-opacity:0.1; fill:none" points="
  215.754,165.165 2352.76,165.165 
  "/>
<polyline clip-path="url(#clip9102)" style="stroke:#000000; stroke-width:2; stroke-opacity:0.1; fill:none" points="
  215.754,76.3482 2352.76,76.3482 
  "/>
<polyline clip-path="url(#clip9100)" style="stroke:#000000; stroke-width:4; stroke-opacity:1; fill:none" points="
  215.754,625.619 2352.76,625.619 
  "/>
<polyline clip-path="url(#clip9100)" style="stroke:#000000; stroke-width:4; stroke-opacity:1; fill:none" points="
  215.754,625.619 215.754,47.2441 
  "/>
<polyline clip-path="url(#clip9100)" style="stroke:#000000; stroke-width:4; stroke-opacity:1; fill:none" points="
  336.669,625.619 336.669,616.943 
  "/>
<polyline clip-path="url(#clip9100)" style="stroke:#000000; stroke-width:4; stroke-opacity:1; fill:none" points="
  826.715,625.619 826.715,616.943 
  "/>
<polyline clip-path="url(#clip9100)" style="stroke:#000000; stroke-width:4; stroke-opacity:1; fill:none" points="
  1316.76,625.619 1316.76,616.943 
  "/>
<polyline clip-path="url(#clip9100)" style="stroke:#000000; stroke-width:4; stroke-opacity:1; fill:none" points="
  1806.81,625.619 1806.81,616.943 
  "/>
<polyline clip-path="url(#clip9100)" style="stroke:#000000; stroke-width:4; stroke-opacity:1; fill:none" points="
  2296.85,625.619 2296.85,616.943 
  "/>
<polyline clip-path="url(#clip9100)" style="stroke:#000000; stroke-width:4; stroke-opacity:1; fill:none" points="
  215.754,609.25 247.809,609.25 
  "/>
<polyline clip-path="url(#clip9100)" style="stroke:#000000; stroke-width:4; stroke-opacity:1; fill:none" points="
  215.754,520.433 247.809,520.433 
  "/>
<polyline clip-path="url(#clip9100)" style="stroke:#000000; stroke-width:4; stroke-opacity:1; fill:none" points="
  215.754,431.616 247.809,431.616 
  "/>
<polyline clip-path="url(#clip9100)" style="stroke:#000000; stroke-width:4; stroke-opacity:1; fill:none" points="
  215.754,342.799 247.809,342.799 
  "/>
<polyline clip-path="url(#clip9100)" style="stroke:#000000; stroke-width:4; stroke-opacity:1; fill:none" points="
  215.754,253.982 247.809,253.982 
  "/>
<polyline clip-path="url(#clip9100)" style="stroke:#000000; stroke-width:4; stroke-opacity:1; fill:none" points="
  215.754,165.165 247.809,165.165 
  "/>
<polyline clip-path="url(#clip9100)" style="stroke:#000000; stroke-width:4; stroke-opacity:1; fill:none" points="
  215.754,76.3482 247.809,76.3482 
  "/>
<g clip-path="url(#clip9100)">
<text style="fill:#000000; fill-opacity:1; font-family:Arial,Helvetica Neue,Helvetica,sans-serif; font-size:48px; text-anchor:middle;" transform="rotate(0, 336.669, 679.619)" x="336.669" y="679.619">-7.5</text>
</g>
<g clip-path="url(#clip9100)">
<text style="fill:#000000; fill-opacity:1; font-family:Arial,Helvetica Neue,Helvetica,sans-serif; font-size:48px; text-anchor:middle;" transform="rotate(0, 826.715, 679.619)" x="826.715" y="679.619">-5.0</text>
</g>
<g clip-path="url(#clip9100)">
<text style="fill:#000000; fill-opacity:1; font-family:Arial,Helvetica Neue,Helvetica,sans-serif; font-size:48px; text-anchor:middle;" transform="rotate(0, 1316.76, 679.619)" x="1316.76" y="679.619">-2.5</text>
</g>
<g clip-path="url(#clip9100)">
<text style="fill:#000000; fill-opacity:1; font-family:Arial,Helvetica Neue,Helvetica,sans-serif; font-size:48px; text-anchor:middle;" transform="rotate(0, 1806.81, 679.619)" x="1806.81" y="679.619">0.0</text>
</g>
<g clip-path="url(#clip9100)">
<text style="fill:#000000; fill-opacity:1; font-family:Arial,Helvetica Neue,Helvetica,sans-serif; font-size:48px; text-anchor:middle;" transform="rotate(0, 2296.85, 679.619)" x="2296.85" y="679.619">2.5</text>
</g>
<g clip-path="url(#clip9100)">
<text style="fill:#000000; fill-opacity:1; font-family:Arial,Helvetica Neue,Helvetica,sans-serif; font-size:48px; text-anchor:end;" transform="rotate(0, 191.754, 626.75)" x="191.754" y="626.75">0.0</text>
</g>
<g clip-path="url(#clip9100)">
<text style="fill:#000000; fill-opacity:1; font-family:Arial,Helvetica Neue,Helvetica,sans-serif; font-size:48px; text-anchor:end;" transform="rotate(0, 191.754, 537.933)" x="191.754" y="537.933">0.2</text>
</g>
<g clip-path="url(#clip9100)">
<text style="fill:#000000; fill-opacity:1; font-family:Arial,Helvetica Neue,Helvetica,sans-serif; font-size:48px; text-anchor:end;" transform="rotate(0, 191.754, 449.116)" x="191.754" y="449.116">0.4</text>
</g>
<g clip-path="url(#clip9100)">
<text style="fill:#000000; fill-opacity:1; font-family:Arial,Helvetica Neue,Helvetica,sans-serif; font-size:48px; text-anchor:end;" transform="rotate(0, 191.754, 360.299)" x="191.754" y="360.299">0.6</text>
</g>
<g clip-path="url(#clip9100)">
<text style="fill:#000000; fill-opacity:1; font-family:Arial,Helvetica Neue,Helvetica,sans-serif; font-size:48px; text-anchor:end;" transform="rotate(0, 191.754, 271.482)" x="191.754" y="271.482">0.8</text>
</g>
<g clip-path="url(#clip9100)">
<text style="fill:#000000; fill-opacity:1; font-family:Arial,Helvetica Neue,Helvetica,sans-serif; font-size:48px; text-anchor:end;" transform="rotate(0, 191.754, 182.665)" x="191.754" y="182.665">1.0</text>
</g>
<g clip-path="url(#clip9100)">
<text style="fill:#000000; fill-opacity:1; font-family:Arial,Helvetica Neue,Helvetica,sans-serif; font-size:48px; text-anchor:end;" transform="rotate(0, 191.754, 93.8482)" x="191.754" y="93.8482">1.2</text>
</g>
<g clip-path="url(#clip9100)">
<text style="fill:#000000; fill-opacity:1; font-family:Arial,Helvetica Neue,Helvetica,sans-serif; font-size:66px; text-anchor:middle;" transform="rotate(0, 1284.25, 759.48)" x="1284.25" y="759.48">Value</text>
</g>
<g clip-path="url(#clip9100)">
<text style="fill:#000000; fill-opacity:1; font-family:Arial,Helvetica Neue,Helvetica,sans-serif; font-size:66px; text-anchor:middle;" transform="rotate(-90, 89.2861, 336.431)" x="89.2861" y="336.431">Density</text>
</g>
<polyline clip-path="url(#clip9102)" style="stroke:#009af9; stroke-width:4; stroke-opacity:1; fill:none" points="
  556.395,609.249 564.878,609.247 573.361,609.227 581.844,609.166 590.327,609.093 598.81,609.099 607.293,609.169 615.776,609.193 624.259,609.123 632.742,609.067 
  641.226,609.128 649.709,609.214 658.192,609.245 666.675,609.249 675.158,609.249 683.641,609.247 692.124,609.226 700.607,609.16 709.09,609.074 717.573,609.035 
  726.056,609.02 734.54,609.005 743.023,609.012 751.506,609.058 759.989,609.141 768.472,609.153 776.955,609.007 785.438,608.879 793.921,608.946 802.404,608.989 
  810.887,608.909 819.371,608.889 827.854,608.896 836.337,608.784 844.82,608.643 853.303,608.651 861.786,608.732 870.269,608.72 878.752,608.703 887.235,608.86 
  895.718,609.063 904.202,609.103 912.685,608.99 921.168,608.845 929.651,608.793 938.134,608.819 946.617,608.675 955.1,608.545 963.583,608.726 972.066,608.863 
  980.549,608.712 989.032,608.5 997.516,608.462 1006,608.615 1014.48,608.665 1022.96,608.509 1031.45,608.392 1039.93,608.477 1048.41,608.707 1056.9,608.826 
  1065.38,608.687 1073.86,608.44 1082.35,608.297 1090.83,608.328 1099.31,608.334 1107.8,608.338 1116.28,608.493 1124.76,608.614 1133.25,608.56 1141.73,608.484 
  1150.21,608.568 1158.69,608.644 1167.18,608.329 1175.66,607.636 1184.14,606.977 1192.63,606.842 1201.11,607.323 1209.59,607.703 1218.08,607.474 1226.56,606.964 
  1235.04,606.628 1243.53,606.641 1252.01,606.933 1260.49,607.159 1268.97,607.066 1277.46,607.028 1285.94,607.283 1294.42,607.47 1302.91,607.379 1311.39,606.829 
  1319.87,605.975 1328.36,605.575 1336.84,605.739 1345.32,605.825 1353.81,605.562 1362.29,605.102 1370.77,604.433 1379.25,603.648 1387.74,603.188 1396.22,603.446 
  1404.7,604.105 1413.19,604.7 1421.67,604.831 1430.15,604.305 1438.64,603.115 1447.12,601.631 1455.6,600.516 1464.09,599.586 1472.57,598.868 1481.05,598.882 
  1489.54,599.316 1498.02,598.893 1506.5,597.516 1514.98,596.767 1523.47,596.854 1531.95,596.587 1540.43,595.397 1548.92,593.676 1557.4,592.189 1565.88,591.417 
  1574.37,590.901 1582.85,588.983 1591.33,584.933 1599.82,580.966 1608.3,579.117 1616.78,578.385 1625.26,577.44 1633.75,576.148 1642.23,573.751 1650.71,569.791 
  1659.2,565.615 1667.68,561.666 1676.16,556.82 1684.65,549.806 1693.13,540.871 1701.61,531.966 1710.1,523.4 1718.58,514.389 1727.06,506.057 1735.55,497.407 
  1744.03,483.729 1752.51,463.861 1760.99,441.349 1769.48,418.642 1777.96,388.444 1786.44,336.28 1794.93,265.326 1803.41,236.782 1811.89,287.85 1820.38,337.026 
  1828.86,322.828 1837.34,267.748 1845.83,201.355 1854.31,138.769 1862.79,92.9818 1871.27,67.8886 1879.76,63.6132 1888.24,86.2115 1896.72,134.311 1905.21,196.349 
  1913.69,261.3 1922.17,321.528 1930.66,371.681 1939.14,411.852 1947.62,445.123 1956.11,474.984 1964.59,501.601 1973.07,522.586 1981.55,538.889 1990.04,552.533 
  1998.52,563.305 2007,571.564 2015.49,578.661 2023.97,584.421 2032.45,588.324 2040.94,591.215 2049.42,593.915 2057.9,596.281 2066.39,598.273 2074.87,600.225 
  2083.35,601.772 2091.84,602.857 2100.32,603.813 2108.8,604.794 2117.28,605.975 2125.77,606.869 2134.25,607.115 2142.73,607.086 2151.22,607.329 2159.7,607.967 
  2168.18,608.527 2176.67,608.816 2185.15,608.948 2193.63,608.954 2202.12,608.931 2210.6,609.011 2219.08,609.144 2227.56,609.225 2236.05,609.246 2244.53,609.25 
  
  "/>
<polygon clip-path="url(#clip9100)" points="
1818.67,251.724 2280.76,251.724 2280.76,130.764 1818.67,130.764 
  " fill="#ffffff" fill-rule="evenodd" fill-opacity="1"/>
<polyline clip-path="url(#clip9100)" style="stroke:#000000; stroke-width:4; stroke-opacity:1; fill:none" points="
  1818.67,251.724 2280.76,251.724 2280.76,130.764 1818.67,130.764 1818.67,251.724 
  "/>
<polyline clip-path="url(#clip9100)" style="stroke:#009af9; stroke-width:4; stroke-opacity:1; fill:none" points="
  1842.67,191.244 1986.67,191.244 
  "/>
<g clip-path="url(#clip9100)">
<text style="fill:#000000; fill-opacity:1; font-family:Arial,Helvetica Neue,Helvetica,sans-serif; font-size:48px; text-anchor:start;" transform="rotate(0, 2010.67, 208.744)" x="2010.67" y="208.744">population</text>
</g>
<polygon clip-path="url(#clip9100)" points="
215.754,1425.62 2352.76,1425.62 2352.76,847.244 215.754,847.244 
  " fill="#ffffff" fill-rule="evenodd" fill-opacity="1"/>
<defs>
  <clipPath id="clip9103">
    <rect x="215" y="847" width="2138" height="579"/>
  </clipPath>
</defs>
<polyline clip-path="url(#clip9103)" style="stroke:#000000; stroke-width:2; stroke-opacity:0.1; fill:none" points="
  336.669,1425.62 336.669,847.244 
  "/>
<polyline clip-path="url(#clip9103)" style="stroke:#000000; stroke-width:2; stroke-opacity:0.1; fill:none" points="
  826.715,1425.62 826.715,847.244 
  "/>
<polyline clip-path="url(#clip9103)" style="stroke:#000000; stroke-width:2; stroke-opacity:0.1; fill:none" points="
  1316.76,1425.62 1316.76,847.244 
  "/>
<polyline clip-path="url(#clip9103)" style="stroke:#000000; stroke-width:2; stroke-opacity:0.1; fill:none" points="
  1806.81,1425.62 1806.81,847.244 
  "/>
<polyline clip-path="url(#clip9103)" style="stroke:#000000; stroke-width:2; stroke-opacity:0.1; fill:none" points="
  2296.85,1425.62 2296.85,847.244 
  "/>
<polyline clip-path="url(#clip9103)" style="stroke:#000000; stroke-width:2; stroke-opacity:0.1; fill:none" points="
  215.754,1409.25 2352.76,1409.25 
  "/>
<polyline clip-path="url(#clip9103)" style="stroke:#000000; stroke-width:2; stroke-opacity:0.1; fill:none" points="
  215.754,1306.61 2352.76,1306.61 
  "/>
<polyline clip-path="url(#clip9103)" style="stroke:#000000; stroke-width:2; stroke-opacity:0.1; fill:none" points="
  215.754,1203.97 2352.76,1203.97 
  "/>
<polyline clip-path="url(#clip9103)" style="stroke:#000000; stroke-width:2; stroke-opacity:0.1; fill:none" points="
  215.754,1101.33 2352.76,1101.33 
  "/>
<polyline clip-path="url(#clip9103)" style="stroke:#000000; stroke-width:2; stroke-opacity:0.1; fill:none" points="
  215.754,998.693 2352.76,998.693 
  "/>
<polyline clip-path="url(#clip9103)" style="stroke:#000000; stroke-width:2; stroke-opacity:0.1; fill:none" points="
  215.754,896.054 2352.76,896.054 
  "/>
<polyline clip-path="url(#clip9100)" style="stroke:#000000; stroke-width:4; stroke-opacity:1; fill:none" points="
  215.754,1425.62 2352.76,1425.62 
  "/>
<polyline clip-path="url(#clip9100)" style="stroke:#000000; stroke-width:4; stroke-opacity:1; fill:none" points="
  215.754,1425.62 215.754,847.244 
  "/>
<polyline clip-path="url(#clip9100)" style="stroke:#000000; stroke-width:4; stroke-opacity:1; fill:none" points="
  336.669,1425.62 336.669,1416.94 
  "/>
<polyline clip-path="url(#clip9100)" style="stroke:#000000; stroke-width:4; stroke-opacity:1; fill:none" points="
  826.715,1425.62 826.715,1416.94 
  "/>
<polyline clip-path="url(#clip9100)" style="stroke:#000000; stroke-width:4; stroke-opacity:1; fill:none" points="
  1316.76,1425.62 1316.76,1416.94 
  "/>
<polyline clip-path="url(#clip9100)" style="stroke:#000000; stroke-width:4; stroke-opacity:1; fill:none" points="
  1806.81,1425.62 1806.81,1416.94 
  "/>
<polyline clip-path="url(#clip9100)" style="stroke:#000000; stroke-width:4; stroke-opacity:1; fill:none" points="
  2296.85,1425.62 2296.85,1416.94 
  "/>
<polyline clip-path="url(#clip9100)" style="stroke:#000000; stroke-width:4; stroke-opacity:1; fill:none" points="
  215.754,1409.25 247.809,1409.25 
  "/>
<polyline clip-path="url(#clip9100)" style="stroke:#000000; stroke-width:4; stroke-opacity:1; fill:none" points="
  215.754,1306.61 247.809,1306.61 
  "/>
<polyline clip-path="url(#clip9100)" style="stroke:#000000; stroke-width:4; stroke-opacity:1; fill:none" points="
  215.754,1203.97 247.809,1203.97 
  "/>
<polyline clip-path="url(#clip9100)" style="stroke:#000000; stroke-width:4; stroke-opacity:1; fill:none" points="
  215.754,1101.33 247.809,1101.33 
  "/>
<polyline clip-path="url(#clip9100)" style="stroke:#000000; stroke-width:4; stroke-opacity:1; fill:none" points="
  215.754,998.693 247.809,998.693 
  "/>
<polyline clip-path="url(#clip9100)" style="stroke:#000000; stroke-width:4; stroke-opacity:1; fill:none" points="
  215.754,896.054 247.809,896.054 
  "/>
<g clip-path="url(#clip9100)">
<text style="fill:#000000; fill-opacity:1; font-family:Arial,Helvetica Neue,Helvetica,sans-serif; font-size:48px; text-anchor:middle;" transform="rotate(0, 336.669, 1479.62)" x="336.669" y="1479.62">-7.5</text>
</g>
<g clip-path="url(#clip9100)">
<text style="fill:#000000; fill-opacity:1; font-family:Arial,Helvetica Neue,Helvetica,sans-serif; font-size:48px; text-anchor:middle;" transform="rotate(0, 826.715, 1479.62)" x="826.715" y="1479.62">-5.0</text>
</g>
<g clip-path="url(#clip9100)">
<text style="fill:#000000; fill-opacity:1; font-family:Arial,Helvetica Neue,Helvetica,sans-serif; font-size:48px; text-anchor:middle;" transform="rotate(0, 1316.76, 1479.62)" x="1316.76" y="1479.62">-2.5</text>
</g>
<g clip-path="url(#clip9100)">
<text style="fill:#000000; fill-opacity:1; font-family:Arial,Helvetica Neue,Helvetica,sans-serif; font-size:48px; text-anchor:middle;" transform="rotate(0, 1806.81, 1479.62)" x="1806.81" y="1479.62">0.0</text>
</g>
<g clip-path="url(#clip9100)">
<text style="fill:#000000; fill-opacity:1; font-family:Arial,Helvetica Neue,Helvetica,sans-serif; font-size:48px; text-anchor:middle;" transform="rotate(0, 2296.85, 1479.62)" x="2296.85" y="1479.62">2.5</text>
</g>
<g clip-path="url(#clip9100)">
<text style="fill:#000000; fill-opacity:1; font-family:Arial,Helvetica Neue,Helvetica,sans-serif; font-size:48px; text-anchor:end;" transform="rotate(0, 191.754, 1426.75)" x="191.754" y="1426.75">0.0</text>
</g>
<g clip-path="url(#clip9100)">
<text style="fill:#000000; fill-opacity:1; font-family:Arial,Helvetica Neue,Helvetica,sans-serif; font-size:48px; text-anchor:end;" transform="rotate(0, 191.754, 1324.11)" x="191.754" y="1324.11">0.5</text>
</g>
<g clip-path="url(#clip9100)">
<text style="fill:#000000; fill-opacity:1; font-family:Arial,Helvetica Neue,Helvetica,sans-serif; font-size:48px; text-anchor:end;" transform="rotate(0, 191.754, 1221.47)" x="191.754" y="1221.47">1.0</text>
</g>
<g clip-path="url(#clip9100)">
<text style="fill:#000000; fill-opacity:1; font-family:Arial,Helvetica Neue,Helvetica,sans-serif; font-size:48px; text-anchor:end;" transform="rotate(0, 191.754, 1118.83)" x="191.754" y="1118.83">1.5</text>
</g>
<g clip-path="url(#clip9100)">
<text style="fill:#000000; fill-opacity:1; font-family:Arial,Helvetica Neue,Helvetica,sans-serif; font-size:48px; text-anchor:end;" transform="rotate(0, 191.754, 1016.19)" x="191.754" y="1016.19">2.0</text>
</g>
<g clip-path="url(#clip9100)">
<text style="fill:#000000; fill-opacity:1; font-family:Arial,Helvetica Neue,Helvetica,sans-serif; font-size:48px; text-anchor:end;" transform="rotate(0, 191.754, 913.554)" x="191.754" y="913.554">2.5</text>
</g>
<g clip-path="url(#clip9100)">
<text style="fill:#000000; fill-opacity:1; font-family:Arial,Helvetica Neue,Helvetica,sans-serif; font-size:66px; text-anchor:middle;" transform="rotate(0, 1284.25, 1559.48)" x="1284.25" y="1559.48">Value</text>
</g>
<g clip-path="url(#clip9100)">
<text style="fill:#000000; fill-opacity:1; font-family:Arial,Helvetica Neue,Helvetica,sans-serif; font-size:66px; text-anchor:middle;" transform="rotate(-90, 89.2861, 1136.43)" x="89.2861" y="1136.43">Density</text>
</g>
<polyline clip-path="url(#clip9103)" style="stroke:#009af9; stroke-width:4; stroke-opacity:1; fill:none" points="
  1380.87,1409.25 1385.45,1409.25 1390.03,1409.25 1394.61,1409.25 1399.19,1409.25 1403.77,1409.24 1408.35,1409.24 1412.93,1409.23 1417.51,1409.21 1422.09,1409.2 
  1426.67,1409.18 1431.25,1409.17 1435.83,1409.16 1440.41,1409.14 1444.99,1409.13 1449.57,1409.1 1454.15,1409.08 1458.73,1409.05 1463.31,1409.03 1467.89,1409.02 
  1472.47,1409 1477.05,1408.98 1481.63,1408.96 1486.21,1408.93 1490.79,1408.9 1495.37,1408.86 1499.95,1408.82 1504.53,1408.77 1509.11,1408.71 1513.69,1408.64 
  1518.27,1408.55 1522.85,1408.44 1527.43,1408.29 1532.01,1408.11 1536.59,1407.88 1541.17,1407.63 1545.75,1407.38 1550.32,1407.14 1554.9,1406.92 1559.48,1406.69 
  1564.06,1406.44 1568.64,1406.14 1573.22,1405.76 1577.8,1405.31 1582.38,1404.77 1586.96,1404.16 1591.54,1403.48 1596.12,1402.77 1600.7,1402.05 1605.28,1401.32 
  1609.86,1400.6 1614.44,1399.83 1619.02,1398.98 1623.6,1398.02 1628.18,1396.92 1632.76,1395.67 1637.34,1394.28 1641.92,1392.74 1646.5,1391.1 1651.08,1389.39 
  1655.66,1387.63 1660.24,1385.79 1664.82,1383.8 1669.4,1381.58 1673.98,1379.09 1678.56,1376.33 1683.14,1373.38 1687.72,1370.26 1692.3,1366.97 1696.88,1363.5 
  1701.46,1359.83 1706.04,1356.04 1710.62,1352.24 1715.2,1348.5 1719.78,1344.87 1724.36,1341.31 1728.94,1337.75 1733.52,1334.15 1738.1,1330.49 1742.68,1326.73 
  1747.26,1322.83 1751.84,1318.77 1756.42,1314.58 1761,1310.28 1765.58,1305.93 1770.16,1301.56 1774.74,1297.19 1779.32,1292.84 1783.9,1288.6 1788.48,1284.56 
  1793.06,1280.82 1797.64,1277.43 1802.22,1274.37 1806.8,1271.56 1811.38,1268.88 1815.96,1266.32 1820.54,1263.93 1825.12,1261.87 1829.7,1260.26 1834.28,1259.14 
  1838.86,1258.43 1843.44,1258 1848.02,1257.72 1852.6,1257.47 1857.18,1257.19 1861.76,1256.85 1866.34,1256.49 1870.92,1256.2 1875.5,1256.14 1880.08,1256.48 
  1884.66,1257.32 1889.24,1258.7 1893.82,1260.54 1898.4,1262.78 1902.98,1265.33 1907.56,1268.16 1912.14,1271.29 1916.72,1274.75 1921.3,1278.54 1925.88,1282.64 
  1930.46,1286.95 1935.04,1291.34 1939.62,1295.69 1944.2,1299.9 1948.78,1303.92 1953.36,1307.77 1957.94,1311.51 1962.52,1315.24 1967.1,1319.06 1971.68,1323.04 
  1976.26,1327.16 1980.84,1331.35 1985.42,1335.47 1990,1339.38 1994.58,1343.02 1999.16,1346.44 2003.74,1349.73 2008.32,1352.96 2012.9,1356.16 2017.48,1359.29 
  2022.06,1362.35 2026.64,1365.36 2031.22,1368.39 2035.8,1371.47 2040.38,1374.6 2044.96,1377.71 2049.54,1380.71 2054.12,1383.52 2058.7,1386.11 2063.28,1388.51 
  2067.86,1390.73 2072.44,1392.78 2077.02,1394.65 2081.6,1396.3 2086.18,1397.7 2090.76,1398.83 2095.34,1399.72 2099.92,1400.41 2104.5,1400.99 2109.08,1401.55 
  2113.66,1402.17 2118.24,1402.88 2122.82,1403.65 2127.4,1404.43 2131.98,1405.15 2136.56,1405.75 2141.14,1406.23 2145.72,1406.6 2150.3,1406.88 2154.88,1407.12 
  2159.46,1407.34 2164.04,1407.54 2168.62,1407.73 2173.2,1407.91 2177.78,1408.08 2182.36,1408.26 2186.94,1408.43 2191.52,1408.58 2196.1,1408.72 2200.68,1408.83 
  2205.26,1408.9 2209.84,1408.95 2214.42,1408.97 2219,1408.99 2223.58,1409 2228.16,1409.01 2232.74,1409.02 2237.32,1409.05 2241.9,1409.08 2246.48,1409.12 
  2251.06,1409.16 2255.64,1409.19 2260.22,1409.22 2264.8,1409.23 2269.38,1409.24 2273.95,1409.25 2278.53,1409.25 2283.11,1409.25 2287.69,1409.25 2292.27,1409.25 
  
  "/>
<polyline clip-path="url(#clip9103)" style="stroke:#e26f46; stroke-width:4; stroke-opacity:1; fill:none" points="
  1739.06,1409.25 1740.36,1409.25 1741.65,1409.25 1742.94,1409.25 1744.23,1409.24 1745.52,1409.23 1746.81,1409.21 1748.1,1409.18 1749.4,1409.14 1750.69,1409.09 
  1751.98,1409.04 1753.27,1409.01 1754.56,1408.98 1755.85,1408.95 1757.15,1408.91 1758.44,1408.83 1759.73,1408.72 1761.02,1408.57 1762.31,1408.42 1763.6,1408.26 
  1764.9,1408.12 1766.19,1407.98 1767.48,1407.83 1768.77,1407.62 1770.06,1407.33 1771.35,1406.91 1772.64,1406.32 1773.94,1405.53 1775.23,1404.53 1776.52,1403.38 
  1777.81,1402.17 1779.1,1401.04 1780.39,1400.07 1781.69,1399.32 1782.98,1398.73 1784.27,1398.19 1785.56,1397.58 1786.85,1396.77 1788.14,1395.71 1789.44,1394.38 
  1790.73,1392.79 1792.02,1390.94 1793.31,1388.82 1794.6,1386.43 1795.89,1383.75 1797.18,1380.76 1798.48,1377.44 1799.77,1373.77 1801.06,1369.71 1802.35,1365.21 
  1803.64,1360.15 1804.93,1354.43 1806.23,1347.96 1807.52,1340.76 1808.81,1332.96 1810.1,1324.78 1811.39,1316.43 1812.68,1308.01 1813.98,1299.48 1815.27,1290.64 
  1816.56,1281.34 1817.85,1271.55 1819.14,1261.46 1820.43,1251.42 1821.72,1241.73 1823.02,1232.43 1824.31,1223.26 1825.6,1213.66 1826.89,1203.1 1828.18,1191.19 
  1829.47,1177.96 1830.77,1163.75 1832.06,1149.09 1833.35,1134.5 1834.64,1120.28 1835.93,1106.51 1837.22,1093.01 1838.52,1079.45 1839.81,1065.53 1841.1,1051.08 
  1842.39,1036.21 1843.68,1021.3 1844.97,1006.83 1846.26,993.135 1847.56,980.235 1848.85,967.88 1850.14,955.732 1851.43,943.59 1852.72,931.491 1854.01,919.709 
  1855.31,908.703 1856.6,899.06 1857.89,891.368 1859.18,886.01 1860.47,882.938 1861.76,881.574 1863.06,880.921 1864.35,879.871 1865.64,877.629 1866.93,874.052 
  1868.22,869.751 1869.51,865.867 1870.8,863.613 1872.1,863.848 1873.39,866.864 1874.68,872.483 1875.97,880.315 1877.26,889.983 1878.55,901.173 1879.85,913.537 
  1881.14,926.601 1882.43,939.817 1883.72,952.702 1885.01,964.974 1886.3,976.577 1887.6,987.631 1888.89,998.341 1890.18,1008.94 1891.47,1019.63 1892.76,1030.63 
  1894.05,1042.19 1895.34,1054.59 1896.64,1068.11 1897.93,1082.81 1899.22,1098.44 1900.51,1114.48 1901.8,1130.31 1903.09,1145.47 1904.39,1159.72 1905.68,1173.04 
  1906.97,1185.51 1908.26,1197.29 1909.55,1208.6 1910.84,1219.68 1912.14,1230.72 1913.43,1241.8 1914.72,1252.85 1916.01,1263.67 1917.3,1274.02 1918.59,1283.7 
  1919.88,1292.6 1921.18,1300.73 1922.47,1308.21 1923.76,1315.17 1925.05,1321.72 1926.34,1327.89 1927.63,1333.74 1928.93,1339.36 1930.22,1344.88 1931.51,1350.42 
  1932.8,1356 1934.09,1361.52 1935.38,1366.84 1936.68,1371.79 1937.97,1376.25 1939.26,1380.19 1940.55,1383.61 1941.84,1386.55 1943.13,1389.07 1944.42,1391.25 
  1945.72,1393.15 1947.01,1394.84 1948.3,1396.36 1949.59,1397.8 1950.88,1399.17 1952.17,1400.48 1953.47,1401.65 1954.76,1402.64 1956.05,1403.43 1957.34,1404.07 
  1958.63,1404.64 1959.92,1405.21 1961.22,1405.78 1962.51,1406.31 1963.8,1406.75 1965.09,1407.06 1966.38,1407.24 1967.67,1407.31 1968.96,1407.34 1970.26,1407.39 
  1971.55,1407.49 1972.84,1407.63 1974.13,1407.81 1975.42,1407.99 1976.71,1408.15 1978.01,1408.3 1979.3,1408.44 1980.59,1408.58 1981.88,1408.72 1983.17,1408.85 
  1984.46,1408.98 1985.76,1409.08 1987.05,1409.15 1988.34,1409.2 1989.63,1409.23 1990.92,1409.24 1992.21,1409.25 1993.5,1409.25 1994.8,1409.25 1996.09,1409.25 
  
  "/>
<polyline clip-path="url(#clip9103)" style="stroke:#3da44d; stroke-width:4; stroke-opacity:1; fill:none" points="
  1723.49,1409.25 1725.4,1409.25 1727.31,1409.25 1729.22,1409.25 1731.13,1409.24 1733.04,1409.23 1734.95,1409.21 1736.86,1409.19 1738.77,1409.15 1740.68,1409.1 
  1742.59,1409.05 1744.5,1409 1746.41,1408.94 1748.32,1408.87 1750.23,1408.78 1752.15,1408.7 1754.06,1408.62 1755.97,1408.53 1757.88,1408.42 1759.79,1408.26 
  1761.7,1408.03 1763.61,1407.75 1765.52,1407.4 1767.43,1406.99 1769.34,1406.5 1771.25,1405.91 1773.16,1405.22 1775.07,1404.41 1776.98,1403.46 1778.89,1402.38 
  1780.8,1401.16 1782.71,1399.84 1784.62,1398.5 1786.53,1397.15 1788.44,1395.75 1790.35,1394.21 1792.26,1392.44 1794.17,1390.42 1796.08,1388.18 1797.99,1385.78 
  1799.9,1383.21 1801.81,1380.43 1803.72,1377.34 1805.63,1373.88 1807.54,1369.98 1809.45,1365.61 1811.37,1360.67 1813.28,1355.11 1815.19,1348.95 1817.1,1342.3 
  1819.01,1335.36 1820.92,1328.24 1822.83,1320.93 1824.74,1313.35 1826.65,1305.46 1828.56,1297.35 1830.47,1289.21 1832.38,1281.19 1834.29,1273.23 1836.2,1265.18 
  1838.11,1256.88 1840.02,1248.34 1841.93,1239.72 1843.84,1231.18 1845.75,1222.71 1847.66,1214.15 1849.57,1205.34 1851.48,1196.2 1853.39,1186.75 1855.3,1177.1 
  1857.21,1167.36 1859.12,1157.6 1861.03,1147.85 1862.94,1138.04 1864.85,1128.05 1866.76,1117.81 1868.67,1107.37 1870.59,1096.96 1872.5,1086.88 1874.41,1077.37 
  1876.32,1068.51 1878.23,1060.27 1880.14,1052.72 1882.05,1046.08 1883.96,1040.64 1885.87,1036.51 1887.78,1033.56 1889.69,1031.5 1891.6,1030.12 1893.51,1029.36 
  1895.42,1029.2 1897.33,1029.42 1899.24,1029.68 1901.15,1029.77 1903.06,1029.87 1904.97,1030.57 1906.88,1032.52 1908.79,1036.06 1910.7,1041.08 1912.61,1047.17 
  1914.52,1053.94 1916.43,1061.14 1918.34,1068.75 1920.25,1076.89 1922.16,1085.73 1924.07,1095.44 1925.98,1105.99 1927.89,1117.17 1929.8,1128.58 1931.72,1139.78 
  1933.63,1150.52 1935.54,1160.83 1937.45,1170.98 1939.36,1181.29 1941.27,1191.96 1943.18,1202.95 1945.09,1214.03 1947,1224.97 1948.91,1235.61 1950.82,1245.86 
  1952.73,1255.73 1954.64,1265.19 1956.55,1274.26 1958.46,1282.93 1960.37,1291.22 1962.28,1299.16 1964.19,1306.71 1966.1,1313.85 1968.01,1320.63 1969.92,1327.17 
  1971.83,1333.63 1973.74,1340.09 1975.65,1346.51 1977.56,1352.7 1979.47,1358.44 1981.38,1363.59 1983.29,1368.17 1985.2,1372.31 1987.11,1376.19 1989.02,1379.9 
  1990.94,1383.42 1992.85,1386.67 1994.76,1389.56 1996.67,1392.02 1998.58,1394.03 2000.49,1395.63 2002.4,1396.91 2004.31,1397.98 2006.22,1398.95 2008.13,1399.91 
  2010.04,1400.87 2011.95,1401.79 2013.86,1402.66 2015.77,1403.44 2017.68,1404.13 2019.59,1404.69 2021.5,1405.13 2023.41,1405.48 2025.32,1405.78 2027.23,1406.1 
  2029.14,1406.47 2031.05,1406.88 2032.96,1407.3 2034.87,1407.68 2036.78,1408.02 2038.69,1408.28 2040.6,1408.49 2042.51,1408.65 2044.42,1408.79 2046.33,1408.91 
  2048.24,1409.02 2050.16,1409.1 2052.07,1409.16 2053.98,1409.19 2055.89,1409.19 2057.8,1409.18 2059.71,1409.15 2061.62,1409.12 2063.53,1409.1 2065.44,1409.1 
  2067.35,1409.11 2069.26,1409.14 2071.17,1409.17 2073.08,1409.18 2074.99,1409.18 2076.9,1409.17 2078.81,1409.14 2080.72,1409.11 2082.63,1409.1 2084.54,1409.1 
  2086.45,1409.12 2088.36,1409.16 2090.27,1409.19 2092.18,1409.21 2094.09,1409.23 2096,1409.24 2097.91,1409.25 2099.82,1409.25 2101.73,1409.25 2103.64,1409.25 
  
  "/>
<polyline clip-path="url(#clip9103)" style="stroke:#c271d2; stroke-width:4; stroke-opacity:1; fill:none" points="
  276.235,1409.24 284.15,1409.25 292.064,1409.25 299.978,1409.24 307.893,1409.21 315.807,1409.19 323.721,1409.18 331.636,1409.21 339.55,1409.23 347.465,1409.24 
  355.379,1409.25 363.293,1409.25 371.208,1409.25 379.122,1409.25 387.036,1409.25 394.951,1409.25 402.865,1409.25 410.78,1409.25 418.694,1409.25 426.608,1409.25 
  434.523,1409.25 442.437,1409.25 450.351,1409.25 458.266,1409.25 466.18,1409.25 474.095,1409.25 482.009,1409.25 489.923,1409.25 497.838,1409.25 505.752,1409.25 
  513.666,1409.25 521.581,1409.24 529.495,1409.21 537.409,1409.15 545.324,1409.09 553.238,1409.06 561.153,1409.07 569.067,1409.08 576.981,1409.07 584.896,1409.06 
  592.81,1409.09 600.724,1409.15 608.639,1409.19 616.553,1409.19 624.468,1409.17 632.382,1409.14 640.296,1409.11 648.211,1409.09 656.125,1409.08 664.039,1409.09 
  671.954,1409.13 679.868,1409.13 687.782,1409.11 695.697,1409.1 703.611,1409.12 711.526,1409.13 719.44,1409.12 727.354,1409.09 735.269,1409.03 743.183,1408.96 
  751.097,1408.91 759.012,1408.92 766.926,1408.98 774.841,1409.04 782.755,1409.07 790.669,1409.05 798.584,1409.03 806.498,1409.03 814.412,1409.06 822.327,1409.07 
  830.241,1409.05 838.155,1409.01 846.07,1408.97 853.984,1408.93 861.899,1408.88 869.813,1408.86 877.727,1408.86 885.642,1408.88 893.556,1408.9 901.47,1408.94 
  909.385,1409 917.299,1409.02 925.214,1408.96 933.128,1408.81 941.042,1408.66 948.957,1408.55 956.871,1408.46 964.785,1408.39 972.7,1408.32 980.614,1408.23 
  988.529,1408.12 996.443,1408.04 1004.36,1408.04 1012.27,1408.1 1020.19,1408.21 1028.1,1408.37 1036.01,1408.49 1043.93,1408.44 1051.84,1408.25 1059.76,1408.03 
  1067.67,1407.9 1075.59,1407.87 1083.5,1407.91 1091.42,1407.92 1099.33,1407.81 1107.24,1407.56 1115.16,1407.29 1123.07,1407.12 1130.99,1407.06 1138.9,1407.01 
  1146.82,1406.94 1154.73,1406.95 1162.64,1407.01 1170.56,1406.87 1178.47,1406.44 1186.39,1405.98 1194.3,1405.63 1202.22,1405.34 1210.13,1405.16 1218.05,1405.2 
  1225.96,1405.42 1233.87,1405.6 1241.79,1405.48 1249.7,1405 1257.62,1404.44 1265.53,1404.11 1273.45,1404.07 1281.36,1404.08 1289.27,1403.9 1297.19,1403.51 
  1305.1,1403.28 1313.02,1403.5 1320.93,1403.94 1328.85,1404.1 1336.76,1403.87 1344.68,1403.42 1352.59,1402.76 1360.5,1401.88 1368.42,1400.97 1376.33,1400.28 
  1384.25,1399.96 1392.16,1399.88 1400.08,1399.75 1407.99,1399.35 1415.9,1398.7 1423.82,1397.9 1431.73,1396.99 1439.65,1396 1447.56,1395.07 1455.48,1394.36 
  1463.39,1393.79 1471.31,1393.14 1479.22,1392.32 1487.13,1391.38 1495.05,1390.34 1502.96,1389.25 1510.88,1388.22 1518.79,1387.4 1526.71,1386.54 1534.62,1385.23 
  1542.53,1383.55 1550.45,1381.85 1558.36,1380.16 1566.28,1378.36 1574.19,1376.53 1582.11,1374.75 1590.02,1372.86 1597.93,1370.73 1605.85,1368.27 1613.76,1365.42 
  1621.68,1362.16 1629.59,1358.54 1637.51,1354.82 1645.42,1351.33 1653.34,1347.9 1661.25,1343.92 1669.16,1338.9 1677.08,1332.92 1684.99,1326.49 1692.91,1319.85 
  1700.82,1313 1708.74,1305.98 1716.65,1298.15 1724.56,1288.47 1732.48,1276.81 1740.39,1263.52 1748.31,1247.8 1756.22,1227.91 1764.14,1201.82 1772.05,1164.84 
  1779.97,1107.15 1787.88,1024.77 1795.79,953.708 1803.71,972.188 1811.62,1103.98 1819.54,1262.82 1827.45,1362.31 1835.37,1399.34 1843.28,1407.89 1851.19,1409.13 
  
  "/>
<polygon clip-path="url(#clip9100)" points="
1989.93,1233.16 2280.76,1233.16 2280.76,930.764 1989.93,930.764 
  " fill="#ffffff" fill-rule="evenodd" fill-opacity="1"/>
<polyline clip-path="url(#clip9100)" style="stroke:#000000; stroke-width:4; stroke-opacity:1; fill:none" points="
  1989.93,1233.16 2280.76,1233.16 2280.76,930.764 1989.93,930.764 1989.93,1233.16 
  "/>
<polyline clip-path="url(#clip9100)" style="stroke:#009af9; stroke-width:4; stroke-opacity:1; fill:none" points="
  2013.93,991.244 2157.93,991.244 
  "/>
<g clip-path="url(#clip9100)">
<text style="fill:#000000; fill-opacity:1; font-family:Arial,Helvetica Neue,Helvetica,sans-serif; font-size:48px; text-anchor:start;" transform="rotate(0, 2181.93, 1008.74)" x="2181.93" y="1008.74">v1</text>
</g>
<polyline clip-path="url(#clip9100)" style="stroke:#e26f46; stroke-width:4; stroke-opacity:1; fill:none" points="
  2013.93,1051.72 2157.93,1051.72 
  "/>
<g clip-path="url(#clip9100)">
<text style="fill:#000000; fill-opacity:1; font-family:Arial,Helvetica Neue,Helvetica,sans-serif; font-size:48px; text-anchor:start;" transform="rotate(0, 2181.93, 1069.22)" x="2181.93" y="1069.22">v2</text>
</g>
<polyline clip-path="url(#clip9100)" style="stroke:#3da44d; stroke-width:4; stroke-opacity:1; fill:none" points="
  2013.93,1112.2 2157.93,1112.2 
  "/>
<g clip-path="url(#clip9100)">
<text style="fill:#000000; fill-opacity:1; font-family:Arial,Helvetica Neue,Helvetica,sans-serif; font-size:48px; text-anchor:start;" transform="rotate(0, 2181.93, 1129.7)" x="2181.93" y="1129.7">v3</text>
</g>
<polyline clip-path="url(#clip9100)" style="stroke:#c271d2; stroke-width:4; stroke-opacity:1; fill:none" points="
  2013.93,1172.68 2157.93,1172.68 
  "/>
<g clip-path="url(#clip9100)">
<text style="fill:#000000; fill-opacity:1; font-family:Arial,Helvetica Neue,Helvetica,sans-serif; font-size:48px; text-anchor:start;" transform="rotate(0, 2181.93, 1190.18)" x="2181.93" y="1190.18">v4</text>
</g>
</svg>
