<?xml version="1.0" encoding="utf-8"?>
<svg xmlns="http://www.w3.org/2000/svg" xmlns:xlink="http://www.w3.org/1999/xlink" width="600" height="400" viewBox="0 0 2400 1600">
<defs>
  <clipPath id="clip5200">
    <rect x="0" y="0" width="2000" height="2000"/>
  </clipPath>
</defs>
<defs>
  <clipPath id="clip5201">
    <rect x="0" y="0" width="2400" height="1600"/>
  </clipPath>
</defs>
<polygon clip-path="url(#clip5201)" points="
0,1600 2400,1600 2400,0 0,0 
  " fill="#ffffff" fill-rule="evenodd" fill-opacity="1"/>
<defs>
  <clipPath id="clip5202">
    <rect x="480" y="0" width="1681" height="1600"/>
  </clipPath>
</defs>
<polygon clip-path="url(#clip5201)" points="
304.673,1440.48 2321.26,1440.48 2321.26,47.2441 304.673,47.2441 
  " fill="#ffffff" fill-rule="evenodd" fill-opacity="1"/>
<defs>
  <clipPath id="clip5203">
    <rect x="304" y="47" width="2018" height="1394"/>
  </clipPath>
</defs>
<polyline clip-path="url(#clip5203)" style="stroke:#000000; stroke-width:2; stroke-opacity:0.1; fill:none" points="
  594.779,1440.48 594.779,47.2441 
  "/>
<polyline clip-path="url(#clip5203)" style="stroke:#000000; stroke-width:2; stroke-opacity:0.1; fill:none" points="
  907.889,1440.48 907.889,47.2441 
  "/>
<polyline clip-path="url(#clip5203)" style="stroke:#000000; stroke-width:2; stroke-opacity:0.1; fill:none" points="
  1221,1440.48 1221,47.2441 
  "/>
<polyline clip-path="url(#clip5203)" style="stroke:#000000; stroke-width:2; stroke-opacity:0.1; fill:none" points="
  1534.11,1440.48 1534.11,47.2441 
  "/>
<polyline clip-path="url(#clip5203)" style="stroke:#000000; stroke-width:2; stroke-opacity:0.1; fill:none" points="
  1847.22,1440.48 1847.22,47.2441 
  "/>
<polyline clip-path="url(#clip5203)" style="stroke:#000000; stroke-width:2; stroke-opacity:0.1; fill:none" points="
  2160.33,1440.48 2160.33,47.2441 
  "/>
<polyline clip-path="url(#clip5203)" style="stroke:#000000; stroke-width:2; stroke-opacity:0.1; fill:none" points="
  304.673,1401.07 2321.26,1401.07 
  "/>
<polyline clip-path="url(#clip5203)" style="stroke:#000000; stroke-width:2; stroke-opacity:0.1; fill:none" points="
  304.673,1124.02 2321.26,1124.02 
  "/>
<polyline clip-path="url(#clip5203)" style="stroke:#000000; stroke-width:2; stroke-opacity:0.1; fill:none" points="
  304.673,846.976 2321.26,846.976 
  "/>
<polyline clip-path="url(#clip5203)" style="stroke:#000000; stroke-width:2; stroke-opacity:0.1; fill:none" points="
  304.673,569.931 2321.26,569.931 
  "/>
<polyline clip-path="url(#clip5203)" style="stroke:#000000; stroke-width:2; stroke-opacity:0.1; fill:none" points="
  304.673,292.887 2321.26,292.887 
  "/>
<polyline clip-path="url(#clip5201)" style="stroke:#000000; stroke-width:4; stroke-opacity:1; fill:none" points="
  304.673,1440.48 2321.26,1440.48 
  "/>
<polyline clip-path="url(#clip5201)" style="stroke:#000000; stroke-width:4; stroke-opacity:1; fill:none" points="
  304.673,1440.48 304.673,47.2441 
  "/>
<polyline clip-path="url(#clip5201)" style="stroke:#000000; stroke-width:4; stroke-opacity:1; fill:none" points="
  594.779,1440.48 594.779,1419.58 
  "/>
<polyline clip-path="url(#clip5201)" style="stroke:#000000; stroke-width:4; stroke-opacity:1; fill:none" points="
  907.889,1440.48 907.889,1419.58 
  "/>
<polyline clip-path="url(#clip5201)" style="stroke:#000000; stroke-width:4; stroke-opacity:1; fill:none" points="
  1221,1440.48 1221,1419.58 
  "/>
<polyline clip-path="url(#clip5201)" style="stroke:#000000; stroke-width:4; stroke-opacity:1; fill:none" points="
  1534.11,1440.48 1534.11,1419.58 
  "/>
<polyline clip-path="url(#clip5201)" style="stroke:#000000; stroke-width:4; stroke-opacity:1; fill:none" points="
  1847.22,1440.48 1847.22,1419.58 
  "/>
<polyline clip-path="url(#clip5201)" style="stroke:#000000; stroke-width:4; stroke-opacity:1; fill:none" points="
  2160.33,1440.48 2160.33,1419.58 
  "/>
<polyline clip-path="url(#clip5201)" style="stroke:#000000; stroke-width:4; stroke-opacity:1; fill:none" points="
  304.673,1401.07 334.922,1401.07 
  "/>
<polyline clip-path="url(#clip5201)" style="stroke:#000000; stroke-width:4; stroke-opacity:1; fill:none" points="
  304.673,1124.02 334.922,1124.02 
  "/>
<polyline clip-path="url(#clip5201)" style="stroke:#000000; stroke-width:4; stroke-opacity:1; fill:none" points="
  304.673,846.976 334.922,846.976 
  "/>
<polyline clip-path="url(#clip5201)" style="stroke:#000000; stroke-width:4; stroke-opacity:1; fill:none" points="
  304.673,569.931 334.922,569.931 
  "/>
<polyline clip-path="url(#clip5201)" style="stroke:#000000; stroke-width:4; stroke-opacity:1; fill:none" points="
  304.673,292.887 334.922,292.887 
  "/>
<g clip-path="url(#clip5201)">
<text style="fill:#000000; fill-opacity:1; font-family:Arial,Helvetica Neue,Helvetica,sans-serif; font-size:48px; text-anchor:middle;" transform="rotate(0, 594.779, 1494.48)" x="594.779" y="1494.48">-7.5</text>
</g>
<g clip-path="url(#clip5201)">
<text style="fill:#000000; fill-opacity:1; font-family:Arial,Helvetica Neue,Helvetica,sans-serif; font-size:48px; text-anchor:middle;" transform="rotate(0, 907.889, 1494.48)" x="907.889" y="1494.48">-5.0</text>
</g>
<g clip-path="url(#clip5201)">
<text style="fill:#000000; fill-opacity:1; font-family:Arial,Helvetica Neue,Helvetica,sans-serif; font-size:48px; text-anchor:middle;" transform="rotate(0, 1221, 1494.48)" x="1221" y="1494.48">-2.5</text>
</g>
<g clip-path="url(#clip5201)">
<text style="fill:#000000; fill-opacity:1; font-family:Arial,Helvetica Neue,Helvetica,sans-serif; font-size:48px; text-anchor:middle;" transform="rotate(0, 1534.11, 1494.48)" x="1534.11" y="1494.48">0.0</text>
</g>
<g clip-path="url(#clip5201)">
<text style="fill:#000000; fill-opacity:1; font-family:Arial,Helvetica Neue,Helvetica,sans-serif; font-size:48px; text-anchor:middle;" transform="rotate(0, 1847.22, 1494.48)" x="1847.22" y="1494.48">2.5</text>
</g>
<g clip-path="url(#clip5201)">
<text style="fill:#000000; fill-opacity:1; font-family:Arial,Helvetica Neue,Helvetica,sans-serif; font-size:48px; text-anchor:middle;" transform="rotate(0, 2160.33, 1494.48)" x="2160.33" y="1494.48">5.0</text>
</g>
<g clip-path="url(#clip5201)">
<text style="fill:#000000; fill-opacity:1; font-family:Arial,Helvetica Neue,Helvetica,sans-serif; font-size:48px; text-anchor:end;" transform="rotate(0, 280.673, 1418.57)" x="280.673" y="1418.57">0.0000</text>
</g>
<g clip-path="url(#clip5201)">
<text style="fill:#000000; fill-opacity:1; font-family:Arial,Helvetica Neue,Helvetica,sans-serif; font-size:48px; text-anchor:end;" transform="rotate(0, 280.673, 1141.52)" x="280.673" y="1141.52">0.0003</text>
</g>
<g clip-path="url(#clip5201)">
<text style="fill:#000000; fill-opacity:1; font-family:Arial,Helvetica Neue,Helvetica,sans-serif; font-size:48px; text-anchor:end;" transform="rotate(0, 280.673, 864.476)" x="280.673" y="864.476">0.0006</text>
</g>
<g clip-path="url(#clip5201)">
<text style="fill:#000000; fill-opacity:1; font-family:Arial,Helvetica Neue,Helvetica,sans-serif; font-size:48px; text-anchor:end;" transform="rotate(0, 280.673, 587.431)" x="280.673" y="587.431">0.0009</text>
</g>
<g clip-path="url(#clip5201)">
<text style="fill:#000000; fill-opacity:1; font-family:Arial,Helvetica Neue,Helvetica,sans-serif; font-size:48px; text-anchor:end;" transform="rotate(0, 280.673, 310.387)" x="280.673" y="310.387">0.0012</text>
</g>
<g clip-path="url(#clip5201)">
<text style="fill:#000000; fill-opacity:1; font-family:Arial,Helvetica Neue,Helvetica,sans-serif; font-size:66px; text-anchor:middle;" transform="rotate(0, 1312.97, 1590.4)" x="1312.97" y="1590.4">Value</text>
</g>
<g clip-path="url(#clip5201)">
<text style="fill:#000000; fill-opacity:1; font-family:Arial,Helvetica Neue,Helvetica,sans-serif; font-size:66px; text-anchor:middle;" transform="rotate(-90, 57.6, 743.863)" x="57.6" y="743.863">Density</text>
</g>
<polyline clip-path="url(#clip5203)" style="stroke:#009af9; stroke-width:4; stroke-opacity:1; fill:none" points="
  361.746,1401.05 362.676,1401.05 363.605,1401.05 364.535,1401.05 365.464,1401.05 366.393,1401.05 367.323,1401.05 368.252,1401.05 369.181,1401.05 370.111,1401.05 
  371.04,1401.05 371.97,1401.05 372.899,1401.05 373.828,1401.04 374.758,1401.04 375.687,1401.04 376.616,1401.04 377.546,1401.04 378.475,1401.04 379.405,1401.04 
  380.334,1401.04 381.263,1401.04 382.193,1401.04 383.122,1401.04 384.052,1401.04 384.981,1401.04 385.91,1401.03 386.84,1401.03 387.769,1401.03 388.698,1401.03 
  389.628,1401.03 390.557,1401.03 391.487,1401.03 392.416,1401.02 393.345,1401.02 394.275,1401.02 395.204,1401.02 396.133,1401.02 397.063,1401.02 397.992,1401.02 
  398.922,1401.01 399.851,1401.01 400.78,1401.01 401.71,1401.01 402.639,1401 403.568,1401 404.498,1401 405.427,1401 406.357,1401 407.286,1400.99 
  408.215,1400.99 409.145,1400.99 410.074,1400.98 411.004,1400.98 411.933,1400.98 412.862,1400.97 413.792,1400.97 414.721,1400.97 415.65,1400.96 416.58,1400.96 
  417.509,1400.96 418.439,1400.95 419.368,1400.95 420.297,1400.94 421.227,1400.94 422.156,1400.93 423.085,1400.93 424.015,1400.92 424.944,1400.92 425.874,1400.91 
  426.803,1400.91 427.732,1400.9 428.662,1400.9 429.591,1400.89 430.52,1400.89 431.45,1400.88 432.379,1400.87 433.309,1400.86 434.238,1400.86 435.167,1400.85 
  436.097,1400.84 437.026,1400.83 437.956,1400.83 438.885,1400.82 439.814,1400.81 440.744,1400.8 441.673,1400.79 442.602,1400.78 443.532,1400.77 444.461,1400.76 
  445.391,1400.75 446.32,1400.74 447.249,1400.73 448.179,1400.72 449.108,1400.7 450.037,1400.69 450.967,1400.68 451.896,1400.67 452.826,1400.65 453.755,1400.64 
  454.684,1400.62 455.614,1400.61 456.543,1400.59 457.473,1400.58 458.402,1400.56 459.331,1400.54 460.261,1400.53 461.19,1400.51 462.119,1400.49 463.049,1400.47 
  463.978,1400.45 464.908,1400.43 465.837,1400.41 466.766,1400.39 467.696,1400.37 468.625,1400.34 469.554,1400.32 470.484,1400.29 471.413,1400.27 472.343,1400.24 
  473.272,1400.22 474.201,1400.19 475.131,1400.16 476.06,1400.13 476.989,1400.1 477.919,1400.07 478.848,1400.04 479.778,1400.01 480.707,1399.97 481.636,1399.94 
  482.566,1399.9 483.495,1399.86 484.425,1399.83 485.354,1399.79 486.283,1399.75 487.213,1399.7 488.142,1399.66 489.071,1399.62 490.001,1399.57 490.93,1399.53 
  491.86,1399.48 492.789,1399.43 493.718,1399.38 494.648,1399.33 495.577,1399.27 496.506,1399.22 497.436,1399.16 498.365,1399.11 499.295,1399.05 500.224,1398.99 
  501.153,1398.92 502.083,1398.86 503.012,1398.79 503.941,1398.72 504.871,1398.65 505.8,1398.58 506.73,1398.51 507.659,1398.43 508.588,1398.35 509.518,1398.27 
  510.447,1398.19 511.377,1398.11 512.306,1398.02 513.235,1397.93 514.165,1397.84 515.094,1397.74 516.023,1397.65 516.953,1397.55 517.882,1397.45 518.812,1397.34 
  519.741,1397.24 520.67,1397.13 521.6,1397.01 522.529,1396.9 523.458,1396.78 524.388,1396.66 525.317,1396.53 526.247,1396.41 527.176,1396.27 528.105,1396.14 
  529.035,1396 529.964,1395.86 530.893,1395.72 531.823,1395.57 532.752,1395.42 533.682,1395.26 534.611,1395.1 535.54,1394.94 536.47,1394.77 537.399,1394.6 
  538.329,1394.42 539.258,1394.24 540.187,1394.05 541.117,1393.86 542.046,1393.67 542.975,1393.47 543.905,1393.27 544.834,1393.06 545.764,1392.85 546.693,1392.63 
  547.622,1392.4 548.552,1392.17 549.481,1391.94 550.41,1391.7 551.34,1391.45 552.269,1391.2 553.199,1390.95 554.128,1390.68 555.057,1390.41 555.987,1390.14 
  556.916,1389.86 557.846,1389.57 558.775,1389.27 559.704,1388.97 560.634,1388.66 561.563,1388.35 562.492,1388.03 563.422,1387.7 564.351,1387.36 565.281,1387.02 
  566.21,1386.66 567.139,1386.3 568.069,1385.94 568.998,1385.56 569.927,1385.18 570.857,1384.79 571.786,1384.38 572.716,1383.97 573.645,1383.56 574.574,1383.13 
  575.504,1382.69 576.433,1382.25 577.362,1381.79 578.292,1381.33 579.221,1380.85 580.151,1380.37 581.08,1379.87 582.009,1379.37 582.939,1378.85 583.868,1378.33 
  584.798,1377.79 585.727,1377.24 586.656,1376.69 587.586,1376.12 588.515,1375.53 589.444,1374.94 590.374,1374.33 591.303,1373.72 592.233,1373.09 593.162,1372.44 
  594.091,1371.79 595.021,1371.12 595.95,1370.44 596.879,1369.75 597.809,1369.04 598.738,1368.32 599.668,1367.58 600.597,1366.83 601.526,1366.07 602.456,1365.29 
  603.385,1364.5 604.314,1363.69 605.244,1362.87 606.173,1362.03 607.103,1361.17 608.032,1360.3 608.961,1359.42 609.891,1358.51 610.82,1357.59 611.75,1356.66 
  612.679,1355.71 613.608,1354.74 614.538,1353.75 615.467,1352.74 616.396,1351.72 617.326,1350.68 618.255,1349.62 619.185,1348.54 620.114,1347.44 621.043,1346.33 
  621.973,1345.19 622.902,1344.04 623.831,1342.86 624.761,1341.67 625.69,1340.45 626.62,1339.22 627.549,1337.96 628.478,1336.68 629.408,1335.38 630.337,1334.06 
  631.267,1332.72 632.196,1331.35 633.125,1329.97 634.055,1328.56 634.984,1327.13 635.913,1325.67 636.843,1324.19 637.772,1322.69 638.702,1321.16 639.631,1319.61 
  640.56,1318.04 641.49,1316.44 642.419,1314.81 643.348,1313.17 644.278,1311.49 645.207,1309.79 646.137,1308.06 647.066,1306.31 647.995,1304.53 648.925,1302.73 
  649.854,1300.9 650.783,1299.04 651.713,1297.15 652.642,1295.24 653.572,1293.3 654.501,1291.33 655.43,1289.33 656.36,1287.3 657.289,1285.25 658.219,1283.16 
  659.148,1281.05 660.077,1278.91 661.007,1276.73 661.936,1274.53 662.865,1272.3 663.795,1270.03 664.724,1267.74 665.654,1265.41 666.583,1263.06 667.512,1260.67 
  668.442,1258.25 669.371,1255.8 670.3,1253.32 671.23,1250.8 672.159,1248.26 673.089,1245.68 674.018,1243.07 674.947,1240.42 675.877,1237.74 676.806,1235.03 
  677.735,1232.29 678.665,1229.51 679.594,1226.7 680.524,1223.85 681.453,1220.97 682.382,1218.05 683.312,1215.1 684.241,1212.12 685.171,1209.1 686.1,1206.05 
  687.029,1202.96 687.959,1199.84 688.888,1196.68 689.817,1193.48 690.747,1190.25 691.676,1186.99 692.606,1183.68 693.535,1180.35 694.464,1176.97 695.394,1173.56 
  696.323,1170.12 697.252,1166.63 698.182,1163.12 699.111,1159.56 700.041,1155.97 700.97,1152.34 701.899,1148.68 702.829,1144.98 703.758,1141.24 704.688,1137.47 
  705.617,1133.66 706.546,1129.81 707.476,1125.92 708.405,1122 709.334,1118.05 710.264,1114.05 711.193,1110.02 712.123,1105.96 713.052,1101.85 713.981,1097.71 
  714.911,1093.53 715.84,1089.32 716.769,1085.07 717.699,1080.79 718.628,1076.46 719.558,1072.11 720.487,1067.71 721.416,1063.28 722.346,1058.82 723.275,1054.32 
  724.204,1049.78 725.134,1045.21 726.063,1040.6 726.993,1035.96 727.922,1031.28 728.851,1026.57 729.781,1021.83 730.71,1017.05 731.64,1012.23 732.569,1007.38 
  733.498,1002.5 734.428,997.588 735.357,992.64 736.286,987.66 737.216,982.647 738.145,977.601 739.075,972.524 740.004,967.415 740.933,962.274 741.863,957.103 
  742.792,951.9 743.721,946.668 744.651,941.405 745.58,936.112 746.51,930.79 747.439,925.44 748.368,920.06 749.298,914.653 750.227,909.217 751.156,903.754 
  752.086,898.265 753.015,892.748 753.945,887.206 754.874,881.638 755.803,876.045 756.733,870.427 757.662,864.785 758.592,859.12 759.521,853.431 760.45,847.719 
  761.38,841.986 762.309,836.23 763.238,830.454 764.168,824.657 765.097,818.84 766.027,813.004 766.956,807.148 767.885,801.275 768.815,795.384 769.744,789.475 
  770.673,783.551 771.603,777.61 772.532,771.655 773.462,765.685 774.391,759.7 775.32,753.703 776.25,747.693 777.179,741.672 778.108,735.639 779.038,729.595 
  779.967,723.542 780.897,717.479 781.826,711.409 782.755,705.33 783.685,699.245 784.614,693.153 785.544,687.056 786.473,680.954 787.402,674.849 788.332,668.74 
  789.261,662.628 790.19,656.515 791.12,650.402 792.049,644.288 792.979,638.175 793.908,632.063 794.837,625.954 795.767,619.848 796.696,613.746 797.625,607.649 
  798.555,601.557 799.484,595.472 800.414,589.394 801.343,583.325 802.272,577.264 803.202,571.214 804.131,565.174 805.061,559.145 805.99,553.13 806.919,547.127 
  807.849,541.139 808.778,535.165 809.707,529.208 810.637,523.267 811.566,517.344 812.496,511.44 813.425,505.555 814.354,499.691 815.284,493.848 816.213,488.027 
  817.142,482.229 818.072,476.454 819.001,470.705 819.931,464.981 820.86,459.284 821.789,453.615 822.719,447.974 823.648,442.362 824.577,436.78 825.507,431.229 
  826.436,425.71 827.366,420.224 828.295,414.772 829.224,409.354 830.154,403.971 831.083,398.625 832.013,393.316 832.942,388.046 833.871,382.814 834.801,377.621 
  835.73,372.47 836.659,367.36 837.589,362.292 838.518,357.268 839.448,352.288 840.377,347.352 841.306,342.462 842.236,337.619 843.165,332.823 844.094,328.075 
  845.024,323.376 845.953,318.727 846.883,314.129 847.812,309.582 848.741,305.087 849.671,300.645 850.6,296.256 851.529,291.922 852.459,287.644 853.388,283.421 
  854.318,279.254 855.247,275.146 856.176,271.095 857.106,267.103 858.035,263.171 858.965,259.298 859.894,255.487 860.823,251.737 861.753,248.05 862.682,244.425 
  863.611,240.863 864.541,237.366 865.47,233.934 866.4,230.567 867.329,227.266 868.258,224.031 869.188,220.863 870.117,217.763 871.046,214.732 871.976,211.769 
  872.905,208.875 873.835,206.051 874.764,203.297 875.693,200.614 876.623,198.002 877.552,195.462 878.482,192.994 879.411,190.599 880.34,188.276 881.27,186.027 
  882.199,183.852 883.128,181.751 884.058,179.724 884.987,177.772 885.917,175.896 886.846,174.095 887.775,172.37 888.705,170.721 889.634,169.149 890.563,167.653 
  891.493,166.234 892.422,164.893 893.352,163.629 894.281,162.442 895.21,161.333 896.14,160.303 897.069,159.35 897.998,158.476 898.928,157.68 899.857,156.963 
  900.787,156.325 901.716,155.765 902.645,155.284 903.575,154.882 904.504,154.559 905.434,154.315 906.363,154.151 907.292,154.065 908.222,154.058 909.151,154.13 
  910.08,154.281 911.01,154.51 911.939,154.819 912.869,155.206 913.798,155.672 914.727,156.216 915.657,156.839 916.586,157.54 917.515,158.319 918.445,159.176 
  919.374,160.11 920.304,161.122 921.233,162.211 922.162,163.377 923.092,164.62 924.021,165.939 924.95,167.335 925.88,168.806 926.809,170.353 927.739,171.975 
  928.668,173.673 929.597,175.444 930.527,177.291 931.456,179.211 932.386,181.204 933.315,183.271 934.244,185.41 935.174,187.621 936.103,189.905 937.032,192.26 
  937.962,194.685 938.891,197.181 939.821,199.747 940.75,202.383 941.679,205.087 942.609,207.86 943.538,210.701 944.467,213.609 945.397,216.584 946.326,219.625 
  947.256,222.731 948.185,225.903 949.114,229.139 950.044,232.439 950.973,235.803 951.903,239.229 952.832,242.716 953.761,246.266 954.691,249.876 955.62,253.545 
  956.549,257.275 957.479,261.062 958.408,264.908 959.338,268.811 960.267,272.771 961.196,276.786 962.126,280.857 963.055,284.981 963.984,289.16 964.914,293.391 
  965.843,297.675 966.773,302.01 967.702,306.395 968.631,310.831 969.561,315.315 970.49,319.848 971.419,324.428 972.349,329.055 973.278,333.728 974.208,338.446 
  975.137,343.208 976.066,348.014 976.996,352.863 977.925,357.753 978.855,362.684 979.784,367.656 980.713,372.666 981.643,377.716 982.572,382.803 983.501,387.927 
  984.431,393.087 985.36,398.282 986.29,403.511 987.219,408.774 988.148,414.07 989.078,419.397 990.007,424.755 990.936,430.143 991.866,435.561 992.795,441.007 
  993.725,446.48 994.654,451.98 995.583,457.505 996.513,463.056 997.442,468.631 998.371,474.228 999.301,479.849 1000.23,485.49 1001.16,491.153 1002.09,496.835 
  1003.02,502.536 1003.95,508.255 1004.88,513.991 1005.81,519.744 1006.74,525.512 1007.67,531.295 1008.59,537.092 1009.52,542.902 1010.45,548.724 1011.38,554.558 
  1012.31,560.402 1013.24,566.255 1014.17,572.118 1015.1,577.989 1016.03,583.867 1016.96,589.751 1017.89,595.642 1018.82,601.537 1019.75,607.436 1020.68,613.338 
  1021.61,619.243 1022.54,625.15 1023.46,631.058 1024.39,636.965 1025.32,642.873 1026.25,648.779 1027.18,654.682 1028.11,660.583 1029.04,666.481 1029.97,672.374 
  1030.9,678.262 1031.83,684.144 1032.76,690.019 1033.69,695.888 1034.62,701.748 1035.55,707.6 1036.48,713.443 1037.41,719.276 1038.33,725.098 1039.26,730.908 
  1040.19,736.707 1041.12,742.493 1042.05,748.265 1042.98,754.024 1043.91,759.768 1044.84,765.497 1045.77,771.21 1046.7,776.906 1047.63,782.585 1048.56,788.247 
  1049.49,793.89 1050.42,799.515 1051.35,805.12 1052.28,810.705 1053.2,816.27 1054.13,821.813 1055.06,827.335 1055.99,832.835 1056.92,838.312 1057.85,843.765 
  1058.78,849.195 1059.71,854.6 1060.64,859.981 1061.57,865.337 1062.5,870.667 1063.43,875.97 1064.36,881.247 1065.29,886.497 1066.22,891.719 1067.15,896.913 
  1068.07,902.078 1069,907.215 1069.93,912.322 1070.86,917.4 1071.79,922.448 1072.72,927.465 1073.65,932.451 1074.58,937.405 1075.51,942.329 1076.44,947.22 
  1077.37,952.078 1078.3,956.904 1079.23,961.697 1080.16,966.457 1081.09,971.183 1082.02,975.875 1082.95,980.532 1083.87,985.155 1084.8,989.743 1085.73,994.295 
  1086.66,998.813 1087.59,1003.29 1088.52,1007.74 1089.45,1012.15 1090.38,1016.52 1091.31,1020.86 1092.24,1025.16 1093.17,1029.42 1094.1,1033.64 1095.03,1037.83 
  1095.96,1041.98 1096.89,1046.09 1097.82,1050.16 1098.74,1054.19 1099.67,1058.19 1100.6,1062.14 1101.53,1066.06 1102.46,1069.94 1103.39,1073.78 1104.32,1077.58 
  1105.25,1081.34 1106.18,1085.06 1107.11,1088.74 1108.04,1092.38 1108.97,1095.98 1109.9,1099.54 1110.83,1103.06 1111.76,1106.54 1112.69,1109.98 1113.61,1113.38 
  1114.54,1116.74 1115.47,1120.06 1116.4,1123.33 1117.33,1126.57 1118.26,1129.76 1119.19,1132.92 1120.12,1136.03 1121.05,1139.1 1121.98,1142.13 1122.91,1145.12 
  1123.84,1148.07 1124.77,1150.98 1125.7,1153.85 1126.63,1156.67 1127.56,1159.46 1128.48,1162.2 1129.41,1164.9 1130.34,1167.56 1131.27,1170.18 1132.2,1172.76 
  1133.13,1175.3 1134.06,1177.79 1134.99,1180.25 1135.92,1182.66 1136.85,1185.03 1137.78,1187.36 1138.71,1189.65 1139.64,1191.9 1140.57,1194.11 1141.5,1196.28 
  1142.43,1198.41 1143.35,1200.49 1144.28,1202.54 1145.21,1204.54 1146.14,1206.5 1147.07,1208.43 1148,1210.31 1148.93,1212.15 1149.86,1213.95 1150.79,1215.71 
  1151.72,1217.43 1152.65,1219.12 1153.58,1220.76 1154.51,1222.36 1155.44,1223.92 1156.37,1225.44 1157.3,1226.92 1158.22,1228.36 1159.15,1229.76 1160.08,1231.12 
  1161.01,1232.44 1161.94,1233.73 1162.87,1234.97 1163.8,1236.18 1164.73,1237.34 1165.66,1238.47 1166.59,1239.56 1167.52,1240.6 1168.45,1241.61 1169.38,1242.59 
  1170.31,1243.52 1171.24,1244.41 1172.17,1245.27 1173.09,1246.09 1174.02,1246.87 1174.95,1247.61 1175.88,1248.31 1176.81,1248.98 1177.74,1249.61 1178.67,1250.2 
  1179.6,1250.75 1180.53,1251.27 1181.46,1251.74 1182.39,1252.18 1183.32,1252.59 1184.25,1252.96 1185.18,1253.29 1186.11,1253.58 1187.04,1253.84 1187.96,1254.06 
  1188.89,1254.24 1189.82,1254.39 1190.75,1254.5 1191.68,1254.57 1192.61,1254.61 1193.54,1254.61 1194.47,1254.58 1195.4,1254.51 1196.33,1254.41 1197.26,1254.27 
  1198.19,1254.09 1199.12,1253.88 1200.05,1253.63 1200.98,1253.35 1201.91,1253.03 1202.84,1252.68 1203.76,1252.29 1204.69,1251.87 1205.62,1251.42 1206.55,1250.93 
  1207.48,1250.4 1208.41,1249.84 1209.34,1249.24 1210.27,1248.62 1211.2,1247.95 1212.13,1247.26 1213.06,1246.53 1213.99,1245.76 1214.92,1244.96 1215.85,1244.13 
  1216.78,1243.26 1217.71,1242.36 1218.63,1241.43 1219.56,1240.46 1220.49,1239.46 1221.42,1238.43 1222.35,1237.36 1223.28,1236.26 1224.21,1235.13 1225.14,1233.96 
  1226.07,1232.76 1227,1231.53 1227.93,1230.27 1228.86,1228.97 1229.79,1227.64 1230.72,1226.28 1231.65,1224.88 1232.58,1223.46 1233.5,1222 1234.43,1220.5 
  1235.36,1218.98 1236.29,1217.42 1237.22,1215.84 1238.15,1214.22 1239.08,1212.56 1240.01,1210.88 1240.94,1209.17 1241.87,1207.42 1242.8,1205.64 1243.73,1203.83 
  1244.66,1201.99 1245.59,1200.11 1246.52,1198.21 1247.45,1196.27 1248.37,1194.31 1249.3,1192.31 1250.23,1190.28 1251.16,1188.22 1252.09,1186.13 1253.02,1184 
  1253.95,1181.85 1254.88,1179.67 1255.81,1177.45 1256.74,1175.21 1257.67,1172.93 1258.6,1170.62 1259.53,1168.29 1260.46,1165.92 1261.39,1163.52 1262.32,1161.1 
  1263.24,1158.64 1264.17,1156.15 1265.1,1153.63 1266.03,1151.08 1266.96,1148.51 1267.89,1145.9 1268.82,1143.26 1269.75,1140.6 1270.68,1137.9 1271.61,1135.17 
  1272.54,1132.42 1273.47,1129.63 1274.4,1126.82 1275.33,1123.98 1276.26,1121.11 1277.19,1118.2 1278.11,1115.28 1279.04,1112.32 1279.97,1109.33 1280.9,1106.31 
  1281.83,1103.27 1282.76,1100.2 1283.69,1097.1 1284.62,1093.97 1285.55,1090.81 1286.48,1087.62 1287.41,1084.41 1288.34,1081.17 1289.27,1077.9 1290.2,1074.6 
  1291.13,1071.28 1292.06,1067.93 1292.98,1064.55 1293.91,1061.15 1294.84,1057.71 1295.77,1054.25 1296.7,1050.77 1297.63,1047.25 1298.56,1043.72 1299.49,1040.15 
  1300.42,1036.56 1301.35,1032.94 1302.28,1029.3 1303.21,1025.63 1304.14,1021.93 1305.07,1018.21 1306,1014.46 1306.93,1010.69 1307.85,1006.9 1308.78,1003.08 
  1309.71,999.229 1310.64,995.359 1311.57,991.464 1312.5,987.545 1313.43,983.601 1314.36,979.634 1315.29,975.644 1316.22,971.629 1317.15,967.592 1318.08,963.531 
  1319.01,959.448 1319.94,955.341 1320.87,951.212 1321.8,947.061 1322.73,942.888 1323.65,938.693 1324.58,934.476 1325.51,930.237 1326.44,925.977 1327.37,921.697 
  1328.3,917.395 1329.23,913.073 1330.16,908.73 1331.09,904.367 1332.02,899.985 1332.95,895.583 1333.88,891.161 1334.81,886.72 1335.74,882.26 1336.67,877.782 
  1337.6,873.285 1338.52,868.77 1339.45,864.237 1340.38,859.686 1341.31,855.119 1342.24,850.534 1343.17,845.932 1344.1,841.314 1345.03,836.679 1345.96,832.029 
  1346.89,827.363 1347.82,822.682 1348.75,817.985 1349.68,813.274 1350.61,808.548 1351.54,803.809 1352.47,799.055 1353.39,794.288 1354.32,789.507 1355.25,784.714 
  1356.18,779.908 1357.11,775.09 1358.04,770.26 1358.97,765.418 1359.9,760.566 1360.83,755.702 1361.76,750.827 1362.69,745.943 1363.62,741.048 1364.55,736.144 
  1365.48,731.231 1366.41,726.309 1367.34,721.378 1368.26,716.44 1369.19,711.493 1370.12,706.539 1371.05,701.578 1371.98,696.611 1372.91,691.637 1373.84,686.657 
  1374.77,681.672 1375.7,676.681 1376.63,671.686 1377.56,666.686 1378.49,661.683 1379.42,656.675 1380.35,651.665 1381.28,646.651 1382.21,641.635 1383.13,636.617 
  1384.06,631.598 1384.99,626.577 1385.92,621.555 1386.85,616.533 1387.78,611.511 1388.71,606.489 1389.64,601.468 1390.57,596.448 1391.5,591.43 1392.43,586.413 
  1393.36,581.399 1394.29,576.388 1395.22,571.38 1396.15,566.376 1397.08,561.376 1398,556.38 1398.93,551.389 1399.86,546.404 1400.79,541.425 1401.72,536.451 
  1402.65,531.484 1403.58,526.525 1404.51,521.572 1405.44,516.628 1406.37,511.692 1407.3,506.765 1408.23,501.846 1409.16,496.938 1410.09,492.04 1411.02,487.152 
  1411.95,482.275 1412.87,477.409 1413.8,472.555 1414.73,467.713 1415.66,462.884 1416.59,458.068 1417.52,453.265 1418.45,448.477 1419.38,443.702 1420.31,438.943 
  1421.24,434.199 1422.17,429.47 1423.1,424.758 1424.03,420.062 1424.96,415.382 1425.89,410.721 1426.82,406.077 1427.74,401.451 1428.67,396.844 1429.6,392.256 
  1430.53,387.688 1431.46,383.139 1432.39,378.611 1433.32,374.104 1434.25,369.617 1435.18,365.153 1436.11,360.71 1437.04,356.29 1437.97,351.893 1438.9,347.519 
  1439.83,343.168 1440.76,338.842 1441.69,334.54 1442.61,330.263 1443.54,326.012 1444.47,321.786 1445.4,317.587 1446.33,313.413 1447.26,309.267 1448.19,305.148 
  1449.12,301.057 1450.05,296.994 1450.98,292.96 1451.91,288.954 1452.84,284.978 1453.77,281.031 1454.7,277.115 1455.63,273.229 1456.56,269.374 1457.49,265.55 
  1458.41,261.757 1459.34,257.996 1460.27,254.268 1461.2,250.573 1462.13,246.91 1463.06,243.281 1463.99,239.686 1464.92,236.124 1465.85,232.598 1466.78,229.106 
  1467.71,225.649 1468.64,222.227 1469.57,218.842 1470.5,215.493 1471.43,212.18 1472.36,208.904 1473.28,205.665 1474.21,202.464 1475.14,199.3 1476.07,196.175 
  1477,193.088 1477.93,190.04 1478.86,187.031 1479.79,184.061 1480.72,181.131 1481.65,178.241 1482.58,175.391 1483.51,172.582 1484.44,169.814 1485.37,167.086 
  1486.3,164.401 1487.23,161.756 1488.15,159.154 1489.08,156.594 1490.01,154.076 1490.94,151.601 1491.87,149.17 1492.8,146.781 1493.73,144.436 1494.66,142.134 
  1495.59,139.877 1496.52,137.663 1497.45,135.494 1498.38,133.37 1499.31,131.291 1500.24,129.256 1501.17,127.267 1502.1,125.324 1503.02,123.426 1503.95,121.574 
  1504.88,119.768 1505.81,118.008 1506.74,116.295 1507.67,114.628 1508.6,113.009 1509.53,111.436 1510.46,109.91 1511.39,108.432 1512.32,107.001 1513.25,105.618 
  1514.18,104.283 1515.11,102.995 1516.04,101.756 1516.97,100.564 1517.89,99.4212 1518.82,98.3266 1519.75,97.2805 1520.68,96.283 1521.61,95.3343 1522.54,94.4345 
  1523.47,93.5836 1524.4,92.7817 1525.33,92.029 1526.26,91.3255 1527.19,90.6712 1528.12,90.0663 1529.05,89.5108 1529.98,89.0048 1530.91,88.5484 1531.84,88.1415 
  1532.76,87.7842 1533.69,87.4766 1534.62,87.2187 1535.55,87.0105 1536.48,86.8521 1537.41,86.7434 1538.34,86.6845 1539.27,86.6754 1540.2,86.716 1541.13,86.8065 
  1542.06,86.9467 1542.99,87.1367 1543.92,87.3765 1544.85,87.6659 1545.78,88.005 1546.71,88.3938 1547.63,88.8322 1548.56,89.3201 1549.49,89.8576 1550.42,90.4445 
  1551.35,91.0808 1552.28,91.7664 1553.21,92.5012 1554.14,93.2852 1555.07,94.1183 1556,95.0004 1556.93,95.9314 1557.86,96.9112 1558.79,97.9397 1559.72,99.0167 
  1560.65,100.142 1561.58,101.316 1562.5,102.538 1563.43,103.808 1564.36,105.127 1565.29,106.492 1566.22,107.906 1567.15,109.367 1568.08,110.876 1569.01,112.431 
  1569.94,114.034 1570.87,115.683 1571.8,117.38 1572.73,119.122 1573.66,120.911 1574.59,122.746 1575.52,124.627 1576.45,126.554 1577.38,128.526 1578.3,130.543 
  1579.23,132.606 1580.16,134.713 1581.09,136.865 1582.02,139.061 1582.95,141.302 1583.88,143.586 1584.81,145.914 1585.74,148.286 1586.67,150.7 1587.6,153.158 
  1588.53,155.658 1589.46,158.2 1590.39,160.785 1591.32,163.411 1592.25,166.079 1593.17,168.788 1594.1,171.538 1595.03,174.328 1595.96,177.16 1596.89,180.031 
  1597.82,182.941 1598.75,185.892 1599.68,188.881 1600.61,191.909 1601.54,194.976 1602.47,198.081 1603.4,201.223 1604.33,204.403 1605.26,207.621 1606.19,210.875 
  1607.12,214.165 1608.04,217.492 1608.97,220.854 1609.9,224.252 1610.83,227.685 1611.76,231.153 1612.69,234.655 1613.62,238.19 1614.55,241.76 1615.48,245.363 
  1616.41,248.998 1617.34,252.666 1618.27,256.366 1619.2,260.098 1620.13,263.861 1621.06,267.655 1621.99,271.48 1622.91,275.334 1623.84,279.219 1624.77,283.132 
  1625.7,287.075 1626.63,291.046 1627.56,295.046 1628.49,299.073 1629.42,303.127 1630.35,307.208 1631.28,311.316 1632.21,315.45 1633.14,319.61 1634.07,323.794 
  1635,328.004 1635.93,332.238 1636.86,336.496 1637.78,340.777 1638.71,345.082 1639.64,349.409 1640.57,353.758 1641.5,358.13 1642.43,362.522 1643.36,366.936 
  1644.29,371.37 1645.22,375.824 1646.15,380.298 1647.08,384.792 1648.01,389.304 1648.94,393.834 1649.87,398.382 1650.8,402.948 1651.73,407.531 1652.65,412.13 
  1653.58,416.746 1654.51,421.377 1655.44,426.024 1656.37,430.686 1657.3,435.362 1658.23,440.052 1659.16,444.755 1660.09,449.472 1661.02,454.201 1661.95,458.943 
  1662.88,463.696 1663.81,468.461 1664.74,473.237 1665.67,478.023 1666.6,482.819 1667.52,487.625 1668.45,492.441 1669.38,497.265 1670.31,502.097 1671.24,506.937 
  1672.17,511.785 1673.1,516.64 1674.03,521.502 1674.96,526.369 1675.89,531.243 1676.82,536.122 1677.75,541.006 1678.68,545.895 1679.61,550.787 1680.54,555.684 
  1681.47,560.584 1682.39,565.487 1683.32,570.392 1684.25,575.299 1685.18,580.209 1686.11,585.119 1687.04,590.03 1687.97,594.942 1688.9,599.854 1689.83,604.766 
  1690.76,609.677 1691.69,614.587 1692.62,619.496 1693.55,624.403 1694.48,629.308 1695.41,634.21 1696.34,639.109 1697.27,644.005 1698.19,648.897 1699.12,653.786 
  1700.05,658.669 1700.98,663.549 1701.91,668.423 1702.84,673.291 1703.77,678.154 1704.7,683.011 1705.63,687.861 1706.56,692.704 1707.49,697.54 1708.42,702.369 
  1709.35,707.19 1710.28,712.002 1711.21,716.807 1712.14,721.602 1713.06,726.388 1713.99,731.165 1714.92,735.932 1715.85,740.689 1716.78,745.436 1717.71,750.172 
  1718.64,754.897 1719.57,759.611 1720.5,764.313 1721.43,769.004 1722.36,773.682 1723.29,778.348 1724.22,783.002 1725.15,787.642 1726.08,792.27 1727.01,796.884 
  1727.93,801.484 1728.86,806.07 1729.79,810.642 1730.72,815.2 1731.65,819.743 1732.58,824.271 1733.51,828.784 1734.44,833.282 1735.37,837.764 1736.3,842.23 
  1737.23,846.68 1738.16,851.114 1739.09,855.531 1740.02,859.932 1740.95,864.316 1741.88,868.682 1742.8,873.032 1743.73,877.364 1744.66,881.678 1745.59,885.974 
  1746.52,890.253 1747.45,894.513 1748.38,898.755 1749.31,902.978 1750.24,907.183 1751.17,911.369 1752.1,915.536 1753.03,919.683 1753.96,923.812 1754.89,927.921 
  1755.82,932.01 1756.75,936.08 1757.67,940.13 1758.6,944.159 1759.53,948.169 1760.46,952.159 1761.39,956.128 1762.32,960.076 1763.25,964.005 1764.18,967.912 
  1765.11,971.799 1766.04,975.665 1766.97,979.51 1767.9,983.333 1768.83,987.136 1769.76,990.918 1770.69,994.678 1771.62,998.417 1772.54,1002.13 1773.47,1005.83 
  1774.4,1009.5 1775.33,1013.16 1776.26,1016.79 1777.19,1020.4 1778.12,1023.99 1779.05,1027.55 1779.98,1031.09 1780.91,1034.62 1781.84,1038.12 1782.77,1041.59 
  1783.7,1045.05 1784.63,1048.48 1785.56,1051.9 1786.49,1055.29 1787.41,1058.65 1788.34,1062 1789.27,1065.32 1790.2,1068.62 1791.13,1071.9 1792.06,1075.16 
  1792.99,1078.39 1793.92,1081.61 1794.85,1084.8 1795.78,1087.96 1796.71,1091.11 1797.64,1094.23 1798.57,1097.34 1799.5,1100.42 1800.43,1103.47 1801.36,1106.51 
  1802.28,1109.52 1803.21,1112.51 1804.14,1115.48 1805.07,1118.43 1806,1121.36 1806.93,1124.26 1807.86,1127.14 1808.79,1130 1809.72,1132.84 1810.65,1135.66 
  1811.58,1138.45 1812.51,1141.23 1813.44,1143.98 1814.37,1146.71 1815.3,1149.42 1816.23,1152.11 1817.15,1154.77 1818.08,1157.42 1819.01,1160.04 1819.94,1162.64 
  1820.87,1165.23 1821.8,1167.79 1822.73,1170.33 1823.66,1172.85 1824.59,1175.34 1825.52,1177.82 1826.45,1180.28 1827.38,1182.72 1828.31,1185.13 1829.24,1187.53 
  1830.17,1189.9 1831.1,1192.26 1832.03,1194.59 1832.95,1196.91 1833.88,1199.2 1834.81,1201.48 1835.74,1203.73 1836.67,1205.97 1837.6,1208.19 1838.53,1210.38 
  1839.46,1212.56 1840.39,1214.72 1841.32,1216.86 1842.25,1218.98 1843.18,1221.08 1844.11,1223.16 1845.04,1225.22 1845.97,1227.27 1846.9,1229.29 1847.82,1231.3 
  1848.75,1233.29 1849.68,1235.26 1850.61,1237.21 1851.54,1239.14 1852.47,1241.06 1853.4,1242.96 1854.33,1244.84 1855.26,1246.7 1856.19,1248.55 1857.12,1250.37 
  1858.05,1252.18 1858.98,1253.98 1859.91,1255.75 1860.84,1257.51 1861.77,1259.25 1862.69,1260.98 1863.62,1262.69 1864.55,1264.38 1865.48,1266.05 1866.41,1267.71 
  1867.34,1269.35 1868.27,1270.98 1869.2,1272.59 1870.13,1274.18 1871.06,1275.76 1871.99,1277.32 1872.92,1278.87 1873.85,1280.4 1874.78,1281.92 1875.71,1283.42 
  1876.64,1284.9 1877.56,1286.37 1878.49,1287.83 1879.42,1289.27 1880.35,1290.7 1881.28,1292.11 1882.21,1293.5 1883.14,1294.88 1884.07,1296.25 1885,1297.61 
  1885.93,1298.94 1886.86,1300.27 1887.79,1301.58 1888.72,1302.88 1889.65,1304.16 1890.58,1305.43 1891.51,1306.69 1892.43,1307.93 1893.36,1309.16 1894.29,1310.38 
  1895.22,1311.58 1896.15,1312.77 1897.08,1313.95 1898.01,1315.12 1898.94,1316.27 1899.87,1317.41 1900.8,1318.54 1901.73,1319.65 1902.66,1320.75 1903.59,1321.84 
  1904.52,1322.92 1905.45,1323.99 1906.38,1325.04 1907.3,1326.09 1908.23,1327.12 1909.16,1328.14 1910.09,1329.15 1911.02,1330.14 1911.95,1331.13 1912.88,1332.1 
  1913.81,1333.07 1914.74,1334.02 1915.67,1334.96 1916.6,1335.89 1917.53,1336.81 1918.46,1337.72 1919.39,1338.62 1920.32,1339.51 1921.25,1340.39 1922.17,1341.26 
  1923.1,1342.11 1924.03,1342.96 1924.96,1343.8 1925.89,1344.63 1926.82,1345.45 1927.75,1346.25 1928.68,1347.05 1929.61,1347.84 1930.54,1348.62 1931.47,1349.39 
  1932.4,1350.15 1933.33,1350.91 1934.26,1351.65 1935.19,1352.38 1936.12,1353.11 1937.04,1353.82 1937.97,1354.53 1938.9,1355.23 1939.83,1355.92 1940.76,1356.6 
  1941.69,1357.27 1942.62,1357.94 1943.55,1358.59 1944.48,1359.24 1945.41,1359.88 1946.34,1360.51 1947.27,1361.14 1948.2,1361.75 1949.13,1362.36 1950.06,1362.96 
  1950.99,1363.56 1951.92,1364.14 1952.84,1364.72 1953.77,1365.29 1954.7,1365.85 1955.63,1366.41 1956.56,1366.96 1957.49,1367.5 1958.42,1368.03 1959.35,1368.56 
  1960.28,1369.08 1961.21,1369.59 1962.14,1370.1 1963.07,1370.6 1964,1371.09 1964.93,1371.58 1965.86,1372.06 1966.79,1372.53 1967.71,1373 1968.64,1373.46 
  1969.57,1373.91 1970.5,1374.36 1971.43,1374.8 1972.36,1375.24 1973.29,1375.67 1974.22,1376.09 1975.15,1376.51 1976.08,1376.93 1977.01,1377.33 1977.94,1377.73 
  1978.87,1378.13 1979.8,1378.52 1980.73,1378.9 1981.66,1379.28 1982.58,1379.65 1983.51,1380.02 1984.44,1380.39 1985.37,1380.74 1986.3,1381.1 1987.23,1381.44 
  1988.16,1381.79 1989.09,1382.12 1990.02,1382.46 1990.95,1382.78 1991.88,1383.11 1992.81,1383.42 1993.74,1383.74 1994.67,1384.04 1995.6,1384.35 1996.53,1384.65 
  1997.45,1384.94 1998.38,1385.23 1999.31,1385.52 2000.24,1385.8 2001.17,1386.08 2002.1,1386.35 2003.03,1386.62 2003.96,1386.89 2004.89,1387.15 2005.82,1387.4 
  2006.75,1387.66 2007.68,1387.91 2008.61,1388.15 2009.54,1388.39 2010.47,1388.63 2011.4,1388.86 2012.32,1389.09 2013.25,1389.32 2014.18,1389.54 2015.11,1389.76 
  2016.04,1389.97 2016.97,1390.19 2017.9,1390.4 2018.83,1390.6 2019.76,1390.8 2020.69,1391 2021.62,1391.2 2022.55,1391.39 2023.48,1391.58 2024.41,1391.76 
  2025.34,1391.94 2026.27,1392.12 2027.19,1392.3 2028.12,1392.47 2029.05,1392.65 2029.98,1392.81 2030.91,1392.98 2031.84,1393.14 2032.77,1393.3 2033.7,1393.46 
  2034.63,1393.61 2035.56,1393.76 2036.49,1393.91 2037.42,1394.06 2038.35,1394.2 2039.28,1394.34 2040.21,1394.48 2041.14,1394.61 2042.06,1394.75 2042.99,1394.88 
  2043.92,1395.01 2044.85,1395.13 2045.78,1395.26 2046.71,1395.38 2047.64,1395.5 2048.57,1395.62 2049.5,1395.73 2050.43,1395.85 2051.36,1395.96 2052.29,1396.07 
  2053.22,1396.17 2054.15,1396.28 2055.08,1396.38 2056.01,1396.48 2056.93,1396.58 2057.86,1396.68 2058.79,1396.78 2059.72,1396.87 2060.65,1396.96 2061.58,1397.05 
  2062.51,1397.14 2063.44,1397.23 2064.37,1397.31 2065.3,1397.4 2066.23,1397.48 2067.16,1397.56 2068.09,1397.64 2069.02,1397.71 2069.95,1397.79 2070.88,1397.86 
  2071.81,1397.94 2072.73,1398.01 2073.66,1398.08 2074.59,1398.15 2075.52,1398.21 2076.45,1398.28 2077.38,1398.34 2078.31,1398.41 2079.24,1398.47 2080.17,1398.53 
  2081.1,1398.59 2082.03,1398.65 2082.96,1398.7 2083.89,1398.76 2084.82,1398.81 2085.75,1398.87 2086.68,1398.92 2087.6,1398.97 2088.53,1399.02 2089.46,1399.07 
  2090.39,1399.12 2091.32,1399.17 2092.25,1399.21 2093.18,1399.26 2094.11,1399.3 2095.04,1399.34 2095.97,1399.39 2096.9,1399.43 2097.83,1399.47 2098.76,1399.51 
  2099.69,1399.55 2100.62,1399.58 2101.55,1399.62 2102.47,1399.66 2103.4,1399.69 2104.33,1399.73 2105.26,1399.76 2106.19,1399.79 2107.12,1399.82 2108.05,1399.86 
  2108.98,1399.89 2109.91,1399.92 2110.84,1399.95 2111.77,1399.98 2112.7,1400 2113.63,1400.03 2114.56,1400.06 2115.49,1400.08 2116.42,1400.11 2117.34,1400.13 
  2118.27,1400.16 2119.2,1400.18 2120.13,1400.21 2121.06,1400.23 2121.99,1400.25 2122.92,1400.27 2123.85,1400.29 2124.78,1400.31 2125.71,1400.33 2126.64,1400.35 
  2127.57,1400.37 2128.5,1400.39 2129.43,1400.41 2130.36,1400.43 2131.29,1400.44 2132.21,1400.46 2133.14,1400.48 2134.07,1400.49 2135,1400.51 2135.93,1400.52 
  2136.86,1400.54 2137.79,1400.55 2138.72,1400.57 2139.65,1400.58 2140.58,1400.6 2141.51,1400.61 2142.44,1400.62 2143.37,1400.63 2144.3,1400.65 2145.23,1400.66 
  2146.16,1400.67 2147.08,1400.68 2148.01,1400.69 2148.94,1400.7 2149.87,1400.71 2150.8,1400.72 2151.73,1400.73 2152.66,1400.74 2153.59,1400.75 2154.52,1400.76 
  2155.45,1400.77 2156.38,1400.78 2157.31,1400.79 2158.24,1400.8 2159.17,1400.8 2160.1,1400.81 2161.03,1400.82 2161.95,1400.83 2162.88,1400.83 2163.81,1400.84 
  2164.74,1400.85 2165.67,1400.85 2166.6,1400.86 2167.53,1400.87 2168.46,1400.87 2169.39,1400.88 2170.32,1400.88 2171.25,1400.89 2172.18,1400.89 2173.11,1400.9 
  2174.04,1400.9 2174.97,1400.91 2175.9,1400.91 2176.82,1400.92 2177.75,1400.92 2178.68,1400.93 2179.61,1400.93 2180.54,1400.94 2181.47,1400.94 2182.4,1400.94 
  2183.33,1400.95 2184.26,1400.95 2185.19,1400.96 2186.12,1400.96 2187.05,1400.96 2187.98,1400.97 2188.91,1400.97 2189.84,1400.97 2190.77,1400.97 2191.7,1400.98 
  2192.62,1400.98 2193.55,1400.98 2194.48,1400.99 2195.41,1400.99 2196.34,1400.99 2197.27,1400.99 2198.2,1401 2199.13,1401 2200.06,1401 2200.99,1401 
  2201.92,1401 2202.85,1401.01 2203.78,1401.01 2204.71,1401.01 2205.64,1401.01 2206.57,1401.01 2207.49,1401.02 2208.42,1401.02 2209.35,1401.02 2210.28,1401.02 
  2211.21,1401.02 2212.14,1401.02 2213.07,1401.02 2214,1401.03 2214.93,1401.03 2215.86,1401.03 2216.79,1401.03 2217.72,1401.03 2218.65,1401.03 2219.58,1401.03 
  2220.51,1401.03 2221.44,1401.03 2222.36,1401.04 2223.29,1401.04 2224.22,1401.04 2225.15,1401.04 2226.08,1401.04 2227.01,1401.04 2227.94,1401.04 2228.87,1401.04 
  2229.8,1401.04 2230.73,1401.04 2231.66,1401.04 2232.59,1401.04 2233.52,1401.04 2234.45,1401.05 2235.38,1401.05 2236.31,1401.05 2237.23,1401.05 2238.16,1401.05 
  2239.09,1401.05 2240.02,1401.05 2240.95,1401.05 2241.88,1401.05 2242.81,1401.05 2243.74,1401.05 2244.67,1401.05 2245.6,1401.05 2246.53,1401.05 2247.46,1401.05 
  2248.39,1401.05 2249.32,1401.05 2250.25,1401.05 2251.18,1401.05 2252.1,1401.05 2253.03,1401.05 2253.96,1401.05 2254.89,1401.05 2255.82,1401.05 2256.75,1401.05 
  2257.68,1401.05 2258.61,1401.05 2259.54,1401.05 2260.47,1401.05 2261.4,1401.05 2262.33,1401.05 2263.26,1401.05 2264.19,1401.05 
  "/>
</svg>
