<?xml version="1.0" encoding="utf-8" standalone="no"?>
<!DOCTYPE svg PUBLIC "-//W3C//DTD SVG 1.1//EN"
  "http://www.w3.org/Graphics/SVG/1.1/DTD/svg11.dtd">
<!-- Created with matplotlib (https://matplotlib.org/) -->
<svg height="288pt" version="1.1" viewBox="0 0 432 288" width="432pt" xmlns="http://www.w3.org/2000/svg" xmlns:xlink="http://www.w3.org/1999/xlink">
 <defs>
  <style type="text/css">
*{stroke-linecap:butt;stroke-linejoin:round;}
  </style>
 </defs>
 <g id="figure_1">
  <g id="patch_1">
   <path d="M 0 288 
L 432 288 
L 432 0 
L 0 0 
z
" style="fill:#ffffff;"/>
  </g>
  <g id="axes_1">
   <g id="patch_2">
    <path d="M 42.464646 117.105354 
L 429.165354 117.105354 
L 429.165354 18.194646 
L 42.464646 18.194646 
z
" style="fill:#ffffff;"/>
   </g>
   <g id="matplotlib.axis_1">
    <g id="xtick_1">
     <g id="line2d_1">
      <path clip-path="url(#p1b5b129c9c)" d="M 70.821711 117.105354 
L 70.821711 18.194646 
" style="fill:none;stroke:#000000;stroke-linecap:square;stroke-opacity:0.1;stroke-width:0.5;"/>
     </g>
     <g id="line2d_2">
      <defs>
       <path d="M 0 0 
L 0 -3.5 
" id="m22f930ac62" style="stroke:#000000;stroke-width:0.8;"/>
      </defs>
      <g>
       <use style="stroke:#000000;stroke-width:0.8;" x="70.821711" xlink:href="#m22f930ac62" y="117.105354"/>
      </g>
     </g>
     <g id="text_1">
      <!-- 1 -->
      <defs>
       <path d="M 12.40625 8.296875 
L 28.515625 8.296875 
L 28.515625 63.921875 
L 10.984375 60.40625 
L 10.984375 69.390625 
L 28.421875 72.90625 
L 38.28125 72.90625 
L 38.28125 8.296875 
L 54.390625 8.296875 
L 54.390625 0 
L 12.40625 0 
z
" id="DejaVuSans-49"/>
      </defs>
      <g transform="translate(68.276711 126.684104)scale(0.08 -0.08)">
       <use xlink:href="#DejaVuSans-49"/>
      </g>
     </g>
    </g>
    <g id="xtick_2">
     <g id="line2d_3">
      <path clip-path="url(#p1b5b129c9c)" d="M 151.354159 117.105354 
L 151.354159 18.194646 
" style="fill:none;stroke:#000000;stroke-linecap:square;stroke-opacity:0.1;stroke-width:0.5;"/>
     </g>
     <g id="line2d_4">
      <g>
       <use style="stroke:#000000;stroke-width:0.8;" x="151.354159" xlink:href="#m22f930ac62" y="117.105354"/>
      </g>
     </g>
     <g id="text_2">
      <!-- 2 -->
      <defs>
       <path d="M 19.1875 8.296875 
L 53.609375 8.296875 
L 53.609375 0 
L 7.328125 0 
L 7.328125 8.296875 
Q 12.9375 14.109375 22.625 23.890625 
Q 32.328125 33.6875 34.8125 36.53125 
Q 39.546875 41.84375 41.421875 45.53125 
Q 43.3125 49.21875 43.3125 52.78125 
Q 43.3125 58.59375 39.234375 62.25 
Q 35.15625 65.921875 28.609375 65.921875 
Q 23.96875 65.921875 18.8125 64.3125 
Q 13.671875 62.703125 7.8125 59.421875 
L 7.8125 69.390625 
Q 13.765625 71.78125 18.9375 73 
Q 24.125 74.21875 28.421875 74.21875 
Q 39.75 74.21875 46.484375 68.546875 
Q 53.21875 62.890625 53.21875 53.421875 
Q 53.21875 48.921875 51.53125 44.890625 
Q 49.859375 40.875 45.40625 35.40625 
Q 44.1875 33.984375 37.640625 27.21875 
Q 31.109375 20.453125 19.1875 8.296875 
z
" id="DejaVuSans-50"/>
      </defs>
      <g transform="translate(148.809159 126.684104)scale(0.08 -0.08)">
       <use xlink:href="#DejaVuSans-50"/>
      </g>
     </g>
    </g>
    <g id="xtick_3">
     <g id="line2d_5">
      <path clip-path="url(#p1b5b129c9c)" d="M 231.886607 117.105354 
L 231.886607 18.194646 
" style="fill:none;stroke:#000000;stroke-linecap:square;stroke-opacity:0.1;stroke-width:0.5;"/>
     </g>
     <g id="line2d_6">
      <g>
       <use style="stroke:#000000;stroke-width:0.8;" x="231.886607" xlink:href="#m22f930ac62" y="117.105354"/>
      </g>
     </g>
     <g id="text_3">
      <!-- 3 -->
      <defs>
       <path d="M 40.578125 39.3125 
Q 47.65625 37.796875 51.625 33 
Q 55.609375 28.21875 55.609375 21.1875 
Q 55.609375 10.40625 48.1875 4.484375 
Q 40.765625 -1.421875 27.09375 -1.421875 
Q 22.515625 -1.421875 17.65625 -0.515625 
Q 12.796875 0.390625 7.625 2.203125 
L 7.625 11.71875 
Q 11.71875 9.328125 16.59375 8.109375 
Q 21.484375 6.890625 26.8125 6.890625 
Q 36.078125 6.890625 40.9375 10.546875 
Q 45.796875 14.203125 45.796875 21.1875 
Q 45.796875 27.640625 41.28125 31.265625 
Q 36.765625 34.90625 28.71875 34.90625 
L 20.21875 34.90625 
L 20.21875 43.015625 
L 29.109375 43.015625 
Q 36.375 43.015625 40.234375 45.921875 
Q 44.09375 48.828125 44.09375 54.296875 
Q 44.09375 59.90625 40.109375 62.90625 
Q 36.140625 65.921875 28.71875 65.921875 
Q 24.65625 65.921875 20.015625 65.03125 
Q 15.375 64.15625 9.8125 62.3125 
L 9.8125 71.09375 
Q 15.4375 72.65625 20.34375 73.4375 
Q 25.25 74.21875 29.59375 74.21875 
Q 40.828125 74.21875 47.359375 69.109375 
Q 53.90625 64.015625 53.90625 55.328125 
Q 53.90625 49.265625 50.4375 45.09375 
Q 46.96875 40.921875 40.578125 39.3125 
z
" id="DejaVuSans-51"/>
      </defs>
      <g transform="translate(229.341607 126.684104)scale(0.08 -0.08)">
       <use xlink:href="#DejaVuSans-51"/>
      </g>
     </g>
    </g>
    <g id="xtick_4">
     <g id="line2d_7">
      <path clip-path="url(#p1b5b129c9c)" d="M 312.419055 117.105354 
L 312.419055 18.194646 
" style="fill:none;stroke:#000000;stroke-linecap:square;stroke-opacity:0.1;stroke-width:0.5;"/>
     </g>
     <g id="line2d_8">
      <g>
       <use style="stroke:#000000;stroke-width:0.8;" x="312.419055" xlink:href="#m22f930ac62" y="117.105354"/>
      </g>
     </g>
     <g id="text_4">
      <!-- 4 -->
      <defs>
       <path d="M 37.796875 64.3125 
L 12.890625 25.390625 
L 37.796875 25.390625 
z
M 35.203125 72.90625 
L 47.609375 72.90625 
L 47.609375 25.390625 
L 58.015625 25.390625 
L 58.015625 17.1875 
L 47.609375 17.1875 
L 47.609375 0 
L 37.796875 0 
L 37.796875 17.1875 
L 4.890625 17.1875 
L 4.890625 26.703125 
z
" id="DejaVuSans-52"/>
      </defs>
      <g transform="translate(309.874055 126.684104)scale(0.08 -0.08)">
       <use xlink:href="#DejaVuSans-52"/>
      </g>
     </g>
    </g>
    <g id="xtick_5">
     <g id="line2d_9">
      <path clip-path="url(#p1b5b129c9c)" d="M 392.951503 117.105354 
L 392.951503 18.194646 
" style="fill:none;stroke:#000000;stroke-linecap:square;stroke-opacity:0.1;stroke-width:0.5;"/>
     </g>
     <g id="line2d_10">
      <g>
       <use style="stroke:#000000;stroke-width:0.8;" x="392.951503" xlink:href="#m22f930ac62" y="117.105354"/>
      </g>
     </g>
     <g id="text_5">
      <!-- 5 -->
      <defs>
       <path d="M 10.796875 72.90625 
L 49.515625 72.90625 
L 49.515625 64.59375 
L 19.828125 64.59375 
L 19.828125 46.734375 
Q 21.96875 47.46875 24.109375 47.828125 
Q 26.265625 48.1875 28.421875 48.1875 
Q 40.625 48.1875 47.75 41.5 
Q 54.890625 34.8125 54.890625 23.390625 
Q 54.890625 11.625 47.5625 5.09375 
Q 40.234375 -1.421875 26.90625 -1.421875 
Q 22.3125 -1.421875 17.546875 -0.640625 
Q 12.796875 0.140625 7.71875 1.703125 
L 7.71875 11.625 
Q 12.109375 9.234375 16.796875 8.0625 
Q 21.484375 6.890625 26.703125 6.890625 
Q 35.15625 6.890625 40.078125 11.328125 
Q 45.015625 15.765625 45.015625 23.390625 
Q 45.015625 31 40.078125 35.4375 
Q 35.15625 39.890625 26.703125 39.890625 
Q 22.75 39.890625 18.8125 39.015625 
Q 14.890625 38.140625 10.796875 36.28125 
z
" id="DejaVuSans-53"/>
      </defs>
      <g transform="translate(390.406503 126.684104)scale(0.08 -0.08)">
       <use xlink:href="#DejaVuSans-53"/>
      </g>
     </g>
    </g>
    <g id="text_6">
     <!-- value -->
     <defs>
      <path d="M 2.984375 54.6875 
L 12.5 54.6875 
L 29.59375 8.796875 
L 46.6875 54.6875 
L 56.203125 54.6875 
L 35.6875 0 
L 23.484375 0 
z
" id="DejaVuSans-118"/>
      <path d="M 34.28125 27.484375 
Q 23.390625 27.484375 19.1875 25 
Q 14.984375 22.515625 14.984375 16.5 
Q 14.984375 11.71875 18.140625 8.90625 
Q 21.296875 6.109375 26.703125 6.109375 
Q 34.1875 6.109375 38.703125 11.40625 
Q 43.21875 16.703125 43.21875 25.484375 
L 43.21875 27.484375 
z
M 52.203125 31.203125 
L 52.203125 0 
L 43.21875 0 
L 43.21875 8.296875 
Q 40.140625 3.328125 35.546875 0.953125 
Q 30.953125 -1.421875 24.3125 -1.421875 
Q 15.921875 -1.421875 10.953125 3.296875 
Q 6 8.015625 6 15.921875 
Q 6 25.140625 12.171875 29.828125 
Q 18.359375 34.515625 30.609375 34.515625 
L 43.21875 34.515625 
L 43.21875 35.40625 
Q 43.21875 41.609375 39.140625 45 
Q 35.0625 48.390625 27.6875 48.390625 
Q 23 48.390625 18.546875 47.265625 
Q 14.109375 46.140625 10.015625 43.890625 
L 10.015625 52.203125 
Q 14.9375 54.109375 19.578125 55.046875 
Q 24.21875 56 28.609375 56 
Q 40.484375 56 46.34375 49.84375 
Q 52.203125 43.703125 52.203125 31.203125 
z
" id="DejaVuSans-97"/>
      <path d="M 9.421875 75.984375 
L 18.40625 75.984375 
L 18.40625 0 
L 9.421875 0 
z
" id="DejaVuSans-108"/>
      <path d="M 8.5 21.578125 
L 8.5 54.6875 
L 17.484375 54.6875 
L 17.484375 21.921875 
Q 17.484375 14.15625 20.5 10.265625 
Q 23.53125 6.390625 29.59375 6.390625 
Q 36.859375 6.390625 41.078125 11.03125 
Q 45.3125 15.671875 45.3125 23.6875 
L 45.3125 54.6875 
L 54.296875 54.6875 
L 54.296875 0 
L 45.3125 0 
L 45.3125 8.40625 
Q 42.046875 3.421875 37.71875 1 
Q 33.40625 -1.421875 27.6875 -1.421875 
Q 18.265625 -1.421875 13.375 4.4375 
Q 8.5 10.296875 8.5 21.578125 
z
M 31.109375 56 
z
" id="DejaVuSans-117"/>
      <path d="M 56.203125 29.59375 
L 56.203125 25.203125 
L 14.890625 25.203125 
Q 15.484375 15.921875 20.484375 11.0625 
Q 25.484375 6.203125 34.421875 6.203125 
Q 39.59375 6.203125 44.453125 7.46875 
Q 49.3125 8.734375 54.109375 11.28125 
L 54.109375 2.78125 
Q 49.265625 0.734375 44.1875 -0.34375 
Q 39.109375 -1.421875 33.890625 -1.421875 
Q 20.796875 -1.421875 13.15625 6.1875 
Q 5.515625 13.8125 5.515625 26.8125 
Q 5.515625 40.234375 12.765625 48.109375 
Q 20.015625 56 32.328125 56 
Q 43.359375 56 49.78125 48.890625 
Q 56.203125 41.796875 56.203125 29.59375 
z
M 47.21875 32.234375 
Q 47.125 39.59375 43.09375 43.984375 
Q 39.0625 48.390625 32.421875 48.390625 
Q 24.90625 48.390625 20.390625 44.140625 
Q 15.875 39.890625 15.1875 32.171875 
z
" id="DejaVuSans-101"/>
     </defs>
     <g transform="translate(220.791406 140.706136)scale(0.11 -0.11)">
      <use xlink:href="#DejaVuSans-118"/>
      <use x="59.179688" xlink:href="#DejaVuSans-97"/>
      <use x="120.458984" xlink:href="#DejaVuSans-108"/>
      <use x="148.242188" xlink:href="#DejaVuSans-117"/>
      <use x="211.621094" xlink:href="#DejaVuSans-101"/>
     </g>
    </g>
   </g>
   <g id="matplotlib.axis_2">
    <g id="ytick_1">
     <g id="line2d_11">
      <path clip-path="url(#p1b5b129c9c)" d="M 42.464646 114.305995 
L 429.165354 114.305995 
" style="fill:none;stroke:#000000;stroke-linecap:square;stroke-opacity:0.1;stroke-width:0.5;"/>
     </g>
     <g id="line2d_12">
      <defs>
       <path d="M 0 0 
L 3.5 0 
" id="m634680eb9f" style="stroke:#000000;stroke-width:0.8;"/>
      </defs>
      <g>
       <use style="stroke:#000000;stroke-width:0.8;" x="42.464646" xlink:href="#m634680eb9f" y="114.305995"/>
      </g>
     </g>
     <g id="text_7">
      <!-- 0.000 -->
      <defs>
       <path d="M 31.78125 66.40625 
Q 24.171875 66.40625 20.328125 58.90625 
Q 16.5 51.421875 16.5 36.375 
Q 16.5 21.390625 20.328125 13.890625 
Q 24.171875 6.390625 31.78125 6.390625 
Q 39.453125 6.390625 43.28125 13.890625 
Q 47.125 21.390625 47.125 36.375 
Q 47.125 51.421875 43.28125 58.90625 
Q 39.453125 66.40625 31.78125 66.40625 
z
M 31.78125 74.21875 
Q 44.046875 74.21875 50.515625 64.515625 
Q 56.984375 54.828125 56.984375 36.375 
Q 56.984375 17.96875 50.515625 8.265625 
Q 44.046875 -1.421875 31.78125 -1.421875 
Q 19.53125 -1.421875 13.0625 8.265625 
Q 6.59375 17.96875 6.59375 36.375 
Q 6.59375 54.828125 13.0625 64.515625 
Q 19.53125 74.21875 31.78125 74.21875 
z
" id="DejaVuSans-48"/>
       <path d="M 10.6875 12.40625 
L 21 12.40625 
L 21 0 
L 10.6875 0 
z
" id="DejaVuSans-46"/>
      </defs>
      <g transform="translate(16.062146 117.34537)scale(0.08 -0.08)">
       <use xlink:href="#DejaVuSans-48"/>
       <use x="63.623047" xlink:href="#DejaVuSans-46"/>
       <use x="95.410156" xlink:href="#DejaVuSans-48"/>
       <use x="159.033203" xlink:href="#DejaVuSans-48"/>
       <use x="222.65625" xlink:href="#DejaVuSans-48"/>
      </g>
     </g>
    </g>
    <g id="ytick_2">
     <g id="line2d_13">
      <path clip-path="url(#p1b5b129c9c)" d="M 42.464646 100.162556 
L 429.165354 100.162556 
" style="fill:none;stroke:#000000;stroke-linecap:square;stroke-opacity:0.1;stroke-width:0.5;"/>
     </g>
     <g id="line2d_14">
      <g>
       <use style="stroke:#000000;stroke-width:0.8;" x="42.464646" xlink:href="#m634680eb9f" y="100.162556"/>
      </g>
     </g>
     <g id="text_8">
      <!-- 0.002 -->
      <g transform="translate(16.062146 103.201931)scale(0.08 -0.08)">
       <use xlink:href="#DejaVuSans-48"/>
       <use x="63.623047" xlink:href="#DejaVuSans-46"/>
       <use x="95.410156" xlink:href="#DejaVuSans-48"/>
       <use x="159.033203" xlink:href="#DejaVuSans-48"/>
       <use x="222.65625" xlink:href="#DejaVuSans-50"/>
      </g>
     </g>
    </g>
    <g id="ytick_3">
     <g id="line2d_15">
      <path clip-path="url(#p1b5b129c9c)" d="M 42.464646 86.019118 
L 429.165354 86.019118 
" style="fill:none;stroke:#000000;stroke-linecap:square;stroke-opacity:0.1;stroke-width:0.5;"/>
     </g>
     <g id="line2d_16">
      <g>
       <use style="stroke:#000000;stroke-width:0.8;" x="42.464646" xlink:href="#m634680eb9f" y="86.019118"/>
      </g>
     </g>
     <g id="text_9">
      <!-- 0.004 -->
      <g transform="translate(16.062146 89.058493)scale(0.08 -0.08)">
       <use xlink:href="#DejaVuSans-48"/>
       <use x="63.623047" xlink:href="#DejaVuSans-46"/>
       <use x="95.410156" xlink:href="#DejaVuSans-48"/>
       <use x="159.033203" xlink:href="#DejaVuSans-48"/>
       <use x="222.65625" xlink:href="#DejaVuSans-52"/>
      </g>
     </g>
    </g>
    <g id="ytick_4">
     <g id="line2d_17">
      <path clip-path="url(#p1b5b129c9c)" d="M 42.464646 71.875679 
L 429.165354 71.875679 
" style="fill:none;stroke:#000000;stroke-linecap:square;stroke-opacity:0.1;stroke-width:0.5;"/>
     </g>
     <g id="line2d_18">
      <g>
       <use style="stroke:#000000;stroke-width:0.8;" x="42.464646" xlink:href="#m634680eb9f" y="71.875679"/>
      </g>
     </g>
     <g id="text_10">
      <!-- 0.006 -->
      <defs>
       <path d="M 33.015625 40.375 
Q 26.375 40.375 22.484375 35.828125 
Q 18.609375 31.296875 18.609375 23.390625 
Q 18.609375 15.53125 22.484375 10.953125 
Q 26.375 6.390625 33.015625 6.390625 
Q 39.65625 6.390625 43.53125 10.953125 
Q 47.40625 15.53125 47.40625 23.390625 
Q 47.40625 31.296875 43.53125 35.828125 
Q 39.65625 40.375 33.015625 40.375 
z
M 52.59375 71.296875 
L 52.59375 62.3125 
Q 48.875 64.0625 45.09375 64.984375 
Q 41.3125 65.921875 37.59375 65.921875 
Q 27.828125 65.921875 22.671875 59.328125 
Q 17.53125 52.734375 16.796875 39.40625 
Q 19.671875 43.65625 24.015625 45.921875 
Q 28.375 48.1875 33.59375 48.1875 
Q 44.578125 48.1875 50.953125 41.515625 
Q 57.328125 34.859375 57.328125 23.390625 
Q 57.328125 12.15625 50.6875 5.359375 
Q 44.046875 -1.421875 33.015625 -1.421875 
Q 20.359375 -1.421875 13.671875 8.265625 
Q 6.984375 17.96875 6.984375 36.375 
Q 6.984375 53.65625 15.1875 63.9375 
Q 23.390625 74.21875 37.203125 74.21875 
Q 40.921875 74.21875 44.703125 73.484375 
Q 48.484375 72.75 52.59375 71.296875 
z
" id="DejaVuSans-54"/>
      </defs>
      <g transform="translate(16.062146 74.915054)scale(0.08 -0.08)">
       <use xlink:href="#DejaVuSans-48"/>
       <use x="63.623047" xlink:href="#DejaVuSans-46"/>
       <use x="95.410156" xlink:href="#DejaVuSans-48"/>
       <use x="159.033203" xlink:href="#DejaVuSans-48"/>
       <use x="222.65625" xlink:href="#DejaVuSans-54"/>
      </g>
     </g>
    </g>
    <g id="ytick_5">
     <g id="line2d_19">
      <path clip-path="url(#p1b5b129c9c)" d="M 42.464646 57.732241 
L 429.165354 57.732241 
" style="fill:none;stroke:#000000;stroke-linecap:square;stroke-opacity:0.1;stroke-width:0.5;"/>
     </g>
     <g id="line2d_20">
      <g>
       <use style="stroke:#000000;stroke-width:0.8;" x="42.464646" xlink:href="#m634680eb9f" y="57.732241"/>
      </g>
     </g>
     <g id="text_11">
      <!-- 0.008 -->
      <defs>
       <path d="M 31.78125 34.625 
Q 24.75 34.625 20.71875 30.859375 
Q 16.703125 27.09375 16.703125 20.515625 
Q 16.703125 13.921875 20.71875 10.15625 
Q 24.75 6.390625 31.78125 6.390625 
Q 38.8125 6.390625 42.859375 10.171875 
Q 46.921875 13.96875 46.921875 20.515625 
Q 46.921875 27.09375 42.890625 30.859375 
Q 38.875 34.625 31.78125 34.625 
z
M 21.921875 38.8125 
Q 15.578125 40.375 12.03125 44.71875 
Q 8.5 49.078125 8.5 55.328125 
Q 8.5 64.0625 14.71875 69.140625 
Q 20.953125 74.21875 31.78125 74.21875 
Q 42.671875 74.21875 48.875 69.140625 
Q 55.078125 64.0625 55.078125 55.328125 
Q 55.078125 49.078125 51.53125 44.71875 
Q 48 40.375 41.703125 38.8125 
Q 48.828125 37.15625 52.796875 32.3125 
Q 56.78125 27.484375 56.78125 20.515625 
Q 56.78125 9.90625 50.3125 4.234375 
Q 43.84375 -1.421875 31.78125 -1.421875 
Q 19.734375 -1.421875 13.25 4.234375 
Q 6.78125 9.90625 6.78125 20.515625 
Q 6.78125 27.484375 10.78125 32.3125 
Q 14.796875 37.15625 21.921875 38.8125 
z
M 18.3125 54.390625 
Q 18.3125 48.734375 21.84375 45.5625 
Q 25.390625 42.390625 31.78125 42.390625 
Q 38.140625 42.390625 41.71875 45.5625 
Q 45.3125 48.734375 45.3125 54.390625 
Q 45.3125 60.0625 41.71875 63.234375 
Q 38.140625 66.40625 31.78125 66.40625 
Q 25.390625 66.40625 21.84375 63.234375 
Q 18.3125 60.0625 18.3125 54.390625 
z
" id="DejaVuSans-56"/>
      </defs>
      <g transform="translate(16.062146 60.771616)scale(0.08 -0.08)">
       <use xlink:href="#DejaVuSans-48"/>
       <use x="63.623047" xlink:href="#DejaVuSans-46"/>
       <use x="95.410156" xlink:href="#DejaVuSans-48"/>
       <use x="159.033203" xlink:href="#DejaVuSans-48"/>
       <use x="222.65625" xlink:href="#DejaVuSans-56"/>
      </g>
     </g>
    </g>
    <g id="ytick_6">
     <g id="line2d_21">
      <path clip-path="url(#p1b5b129c9c)" d="M 42.464646 43.588802 
L 429.165354 43.588802 
" style="fill:none;stroke:#000000;stroke-linecap:square;stroke-opacity:0.1;stroke-width:0.5;"/>
     </g>
     <g id="line2d_22">
      <g>
       <use style="stroke:#000000;stroke-width:0.8;" x="42.464646" xlink:href="#m634680eb9f" y="43.588802"/>
      </g>
     </g>
     <g id="text_12">
      <!-- 0.010 -->
      <g transform="translate(16.062146 46.628177)scale(0.08 -0.08)">
       <use xlink:href="#DejaVuSans-48"/>
       <use x="63.623047" xlink:href="#DejaVuSans-46"/>
       <use x="95.410156" xlink:href="#DejaVuSans-48"/>
       <use x="159.033203" xlink:href="#DejaVuSans-49"/>
       <use x="222.65625" xlink:href="#DejaVuSans-48"/>
      </g>
     </g>
    </g>
    <g id="ytick_7">
     <g id="line2d_23">
      <path clip-path="url(#p1b5b129c9c)" d="M 42.464646 29.445364 
L 429.165354 29.445364 
" style="fill:none;stroke:#000000;stroke-linecap:square;stroke-opacity:0.1;stroke-width:0.5;"/>
     </g>
     <g id="line2d_24">
      <g>
       <use style="stroke:#000000;stroke-width:0.8;" x="42.464646" xlink:href="#m634680eb9f" y="29.445364"/>
      </g>
     </g>
     <g id="text_13">
      <!-- 0.012 -->
      <g transform="translate(16.062146 32.484739)scale(0.08 -0.08)">
       <use xlink:href="#DejaVuSans-48"/>
       <use x="63.623047" xlink:href="#DejaVuSans-46"/>
       <use x="95.410156" xlink:href="#DejaVuSans-48"/>
       <use x="159.033203" xlink:href="#DejaVuSans-49"/>
       <use x="222.65625" xlink:href="#DejaVuSans-50"/>
      </g>
     </g>
    </g>
    <g id="text_14">
     <!-- probability -->
     <defs>
      <path d="M 18.109375 8.203125 
L 18.109375 -20.796875 
L 9.078125 -20.796875 
L 9.078125 54.6875 
L 18.109375 54.6875 
L 18.109375 46.390625 
Q 20.953125 51.265625 25.265625 53.625 
Q 29.59375 56 35.59375 56 
Q 45.5625 56 51.78125 48.09375 
Q 58.015625 40.1875 58.015625 27.296875 
Q 58.015625 14.40625 51.78125 6.484375 
Q 45.5625 -1.421875 35.59375 -1.421875 
Q 29.59375 -1.421875 25.265625 0.953125 
Q 20.953125 3.328125 18.109375 8.203125 
z
M 48.6875 27.296875 
Q 48.6875 37.203125 44.609375 42.84375 
Q 40.53125 48.484375 33.40625 48.484375 
Q 26.265625 48.484375 22.1875 42.84375 
Q 18.109375 37.203125 18.109375 27.296875 
Q 18.109375 17.390625 22.1875 11.75 
Q 26.265625 6.109375 33.40625 6.109375 
Q 40.53125 6.109375 44.609375 11.75 
Q 48.6875 17.390625 48.6875 27.296875 
z
" id="DejaVuSans-112"/>
      <path d="M 41.109375 46.296875 
Q 39.59375 47.171875 37.8125 47.578125 
Q 36.03125 48 33.890625 48 
Q 26.265625 48 22.1875 43.046875 
Q 18.109375 38.09375 18.109375 28.8125 
L 18.109375 0 
L 9.078125 0 
L 9.078125 54.6875 
L 18.109375 54.6875 
L 18.109375 46.1875 
Q 20.953125 51.171875 25.484375 53.578125 
Q 30.03125 56 36.53125 56 
Q 37.453125 56 38.578125 55.875 
Q 39.703125 55.765625 41.0625 55.515625 
z
" id="DejaVuSans-114"/>
      <path d="M 30.609375 48.390625 
Q 23.390625 48.390625 19.1875 42.75 
Q 14.984375 37.109375 14.984375 27.296875 
Q 14.984375 17.484375 19.15625 11.84375 
Q 23.34375 6.203125 30.609375 6.203125 
Q 37.796875 6.203125 41.984375 11.859375 
Q 46.1875 17.53125 46.1875 27.296875 
Q 46.1875 37.015625 41.984375 42.703125 
Q 37.796875 48.390625 30.609375 48.390625 
z
M 30.609375 56 
Q 42.328125 56 49.015625 48.375 
Q 55.71875 40.765625 55.71875 27.296875 
Q 55.71875 13.875 49.015625 6.21875 
Q 42.328125 -1.421875 30.609375 -1.421875 
Q 18.84375 -1.421875 12.171875 6.21875 
Q 5.515625 13.875 5.515625 27.296875 
Q 5.515625 40.765625 12.171875 48.375 
Q 18.84375 56 30.609375 56 
z
" id="DejaVuSans-111"/>
      <path d="M 48.6875 27.296875 
Q 48.6875 37.203125 44.609375 42.84375 
Q 40.53125 48.484375 33.40625 48.484375 
Q 26.265625 48.484375 22.1875 42.84375 
Q 18.109375 37.203125 18.109375 27.296875 
Q 18.109375 17.390625 22.1875 11.75 
Q 26.265625 6.109375 33.40625 6.109375 
Q 40.53125 6.109375 44.609375 11.75 
Q 48.6875 17.390625 48.6875 27.296875 
z
M 18.109375 46.390625 
Q 20.953125 51.265625 25.265625 53.625 
Q 29.59375 56 35.59375 56 
Q 45.5625 56 51.78125 48.09375 
Q 58.015625 40.1875 58.015625 27.296875 
Q 58.015625 14.40625 51.78125 6.484375 
Q 45.5625 -1.421875 35.59375 -1.421875 
Q 29.59375 -1.421875 25.265625 0.953125 
Q 20.953125 3.328125 18.109375 8.203125 
L 18.109375 0 
L 9.078125 0 
L 9.078125 75.984375 
L 18.109375 75.984375 
z
" id="DejaVuSans-98"/>
      <path d="M 9.421875 54.6875 
L 18.40625 54.6875 
L 18.40625 0 
L 9.421875 0 
z
M 9.421875 75.984375 
L 18.40625 75.984375 
L 18.40625 64.59375 
L 9.421875 64.59375 
z
" id="DejaVuSans-105"/>
      <path d="M 18.3125 70.21875 
L 18.3125 54.6875 
L 36.8125 54.6875 
L 36.8125 47.703125 
L 18.3125 47.703125 
L 18.3125 18.015625 
Q 18.3125 11.328125 20.140625 9.421875 
Q 21.96875 7.515625 27.59375 7.515625 
L 36.8125 7.515625 
L 36.8125 0 
L 27.59375 0 
Q 17.1875 0 13.234375 3.875 
Q 9.28125 7.765625 9.28125 18.015625 
L 9.28125 47.703125 
L 2.6875 47.703125 
L 2.6875 54.6875 
L 9.28125 54.6875 
L 9.28125 70.21875 
z
" id="DejaVuSans-116"/>
      <path d="M 32.171875 -5.078125 
Q 28.375 -14.84375 24.75 -17.8125 
Q 21.140625 -20.796875 15.09375 -20.796875 
L 7.90625 -20.796875 
L 7.90625 -13.28125 
L 13.1875 -13.28125 
Q 16.890625 -13.28125 18.9375 -11.515625 
Q 21 -9.765625 23.484375 -3.21875 
L 25.09375 0.875 
L 2.984375 54.6875 
L 12.5 54.6875 
L 29.59375 11.921875 
L 46.6875 54.6875 
L 56.203125 54.6875 
z
" id="DejaVuSans-121"/>
     </defs>
     <g transform="translate(9.774489 97.115391)rotate(-90)scale(0.11 -0.11)">
      <use xlink:href="#DejaVuSans-112"/>
      <use x="63.476562" xlink:href="#DejaVuSans-114"/>
      <use x="104.558594" xlink:href="#DejaVuSans-111"/>
      <use x="165.740234" xlink:href="#DejaVuSans-98"/>
      <use x="229.216797" xlink:href="#DejaVuSans-97"/>
      <use x="290.496094" xlink:href="#DejaVuSans-98"/>
      <use x="353.972656" xlink:href="#DejaVuSans-105"/>
      <use x="381.755859" xlink:href="#DejaVuSans-108"/>
      <use x="409.539062" xlink:href="#DejaVuSans-105"/>
      <use x="437.322266" xlink:href="#DejaVuSans-116"/>
      <use x="476.53125" xlink:href="#DejaVuSans-121"/>
     </g>
    </g>
   </g>
   <g id="line2d_25">
    <path clip-path="url(#p1b5b129c9c)" d="M 53.409005 114.302938 
L 91.259256 114.17926 
L 104.949772 113.913814 
L 113.808341 113.54009 
L 121.056262 113.028447 
L 127.498857 112.346802 
L 133.136129 111.517021 
L 137.968076 110.589553 
L 142.800023 109.424462 
L 146.826645 108.246034 
L 150.853267 106.857982 
L 154.87989 105.243077 
L 158.906512 103.387751 
L 162.933135 101.283489 
L 166.959757 98.928224 
L 170.986379 96.327668 
L 175.818326 92.904523 
L 180.650273 89.193828 
L 187.092869 83.915109 
L 202.394034 71.156541 
L 206.420656 68.109048 
L 210.447279 65.338453 
L 213.668577 63.370867 
L 216.889875 61.66222 
L 220.111173 60.243367 
L 222.527146 59.385339 
L 224.94312 58.714185 
L 227.359093 58.237041 
L 229.775066 57.959016 
L 232.19104 57.883101 
L 234.607013 58.010114 
L 237.022987 58.338687 
L 239.43896 58.865288 
L 241.854934 59.584288 
L 244.270907 60.488056 
L 247.492205 61.963843 
L 250.713503 63.723925 
L 253.934801 65.736662 
L 257.961423 68.55396 
L 262.79337 72.278291 
L 269.235966 77.608102 
L 282.121158 88.394156 
L 287.758429 92.758889 
L 292.590376 96.194728 
L 296.616998 98.806953 
L 300.643621 101.174387 
L 304.670243 103.290905 
L 308.696865 105.158226 
L 312.723488 106.784582 
L 316.75011 108.183327 
L 320.776733 109.371541 
L 325.608679 110.547064 
L 330.440626 111.483482 
L 336.077898 112.321888 
L 341.715169 112.938322 
L 348.157765 113.433239 
L 356.21101 113.825823 
L 366.680228 114.097986 
L 381.981393 114.251761 
L 414.999697 114.304172 
L 418.220995 114.304732 
L 418.220995 114.304732 
" style="fill:none;stroke:#009afa;stroke-linecap:round;"/>
   </g>
   <g id="line2d_26">
    <path clip-path="url(#p1b5b129c9c)" d="M 187.61619 114.305995 
L 188.421515 114.305995 
L 189.226839 114.305995 
L 190.032164 114.305995 
L 190.837488 114.305995 
L 191.642813 114.305995 
L 192.448137 114.305995 
L 193.253462 114.305995 
L 194.058786 114.305995 
L 194.864111 114.305995 
L 195.669435 114.305995 
L 196.47476 114.305995 
L 197.280084 114.305995 
L 198.085409 48.703317 
L 198.890733 47.605967 
L 199.696058 46.517382 
L 200.501382 45.438583 
L 201.306706 44.370595 
L 202.112031 43.314448 
L 202.917355 42.271171 
L 203.72268 41.241793 
L 204.528004 40.227343 
L 205.333329 39.228845 
L 206.138653 38.247318 
L 206.943978 37.283774 
L 207.749302 36.339216 
L 208.554627 35.414637 
L 209.359951 34.511019 
L 210.165276 33.629327 
L 210.9706 32.770515 
L 211.775925 31.935515 
L 212.581249 31.125242 
L 213.386574 30.340592 
L 214.191898 29.582437 
L 214.997223 28.851624 
L 215.802547 28.148977 
L 216.607872 27.475292 
L 217.413196 26.831336 
L 218.218521 26.217847 
L 219.023845 25.63553 
L 219.82917 25.085059 
L 220.634494 24.567074 
L 221.439818 24.082178 
L 222.245143 23.63094 
L 223.050467 23.213888 
L 223.855792 22.831516 
L 224.661116 22.484275 
L 225.466441 22.172576 
L 226.271765 21.89679 
L 227.07709 21.657246 
L 227.882414 21.454229 
L 228.687739 21.287981 
L 229.493063 21.158703 
L 230.298388 21.066548 
L 231.103712 21.011627 
L 231.909037 20.994005 
L 232.714361 21.013705 
L 233.519686 21.070703 
L 234.32501 21.164929 
L 235.130335 21.296271 
L 235.935659 21.464573 
L 236.740984 21.669631 
L 237.546308 21.911202 
L 238.351633 22.188998 
L 239.156957 22.502686 
L 239.962282 22.851896 
L 240.767606 23.236212 
L 241.57293 23.655181 
L 242.378255 24.108309 
L 243.183579 24.595063 
L 243.988904 25.114874 
L 244.794228 25.667136 
L 245.599553 26.251207 
L 246.404877 26.866412 
L 247.210202 27.512044 
L 248.015526 28.187363 
L 248.820851 28.8916 
L 249.626175 29.623957 
L 250.4315 30.383611 
L 251.236824 31.169712 
L 252.042149 31.981385 
L 252.847473 32.817736 
L 253.652798 33.677848 
L 254.458122 34.560786 
L 255.263447 35.465597 
L 256.068771 36.391315 
L 256.874096 37.336957 
L 257.67942 38.301529 
L 258.484745 39.284028 
L 259.290069 40.283442 
L 260.095394 41.29875 
L 260.900718 42.328929 
L 261.706042 43.37295 
L 262.511367 44.429784 
L 263.316691 45.498401 
L 264.122016 46.577772 
L 264.92734 47.666872 
L 265.732665 48.764681 
L 266.537989 114.305995 
L 267.343314 114.305995 
L 268.148638 114.305995 
L 268.953963 114.305995 
L 269.759287 114.305995 
L 270.564612 114.305995 
L 271.369936 114.305995 
L 272.175261 114.305995 
L 272.980585 114.305995 
L 273.78591 114.305995 
L 274.591234 114.305995 
L 275.396559 114.305995 
L 276.201883 114.305995 
L 277.007208 114.305995 
L 277.812532 114.305995 
L 278.617857 114.305995 
L 279.423181 114.305995 
" style="fill:none;stroke:#e36f47;stroke-linecap:round;"/>
   </g>
   <g id="patch_3">
    <path d="M 42.464646 117.105354 
L 42.464646 18.194646 
" style="fill:none;stroke:#000000;stroke-linecap:square;stroke-linejoin:miter;"/>
   </g>
   <g id="patch_4">
    <path d="M 42.464646 117.105354 
L 429.165354 117.105354 
" style="fill:none;stroke:#000000;stroke-linecap:square;stroke-linejoin:miter;"/>
   </g>
   <g id="line2d_27">
    <path clip-path="url(#p1b5b129c9c)" d="M 78.526521 114.261596 
L 97.048984 114.075694 
L 107.518203 113.774212 
L 115.571447 113.339221 
L 122.014043 112.790724 
L 127.651315 112.107429 
L 132.483262 111.328019 
L 137.315208 110.329972 
L 141.341831 109.302446 
L 145.368453 108.072028 
L 149.395076 106.616323 
L 153.421698 104.915073 
L 157.44832 102.951556 
L 161.474943 100.714094 
L 165.501565 98.197618 
L 169.528188 95.405186 
L 173.55481 92.349345 
L 178.386757 88.368011 
L 184.024028 83.370015 
L 192.077273 75.844771 
L 200.130518 68.363927 
L 204.962465 64.165969 
L 208.989087 60.96608 
L 212.210385 58.661832 
L 215.431683 56.628362 
L 218.652981 54.901986 
L 221.068954 53.82792 
L 223.484928 52.955692 
L 225.900901 52.294529 
L 228.316875 51.851482 
L 230.732848 51.631305 
L 233.148821 51.636369 
L 235.564795 51.86662 
L 237.980768 52.319578 
L 240.396742 52.990384 
L 242.812715 53.871885 
L 245.228689 54.954763 
L 248.449987 56.692022 
L 251.671285 58.735222 
L 254.892582 61.047908 
L 258.919205 64.256372 
L 263.751152 68.46158 
L 270.193748 74.427472 
L 281.46829 84.927562 
L 283.078939 86.361871 
L 283.884264 114.305995 
L 297.57478 114.305995 
L 297.57478 114.305995 
" style="fill:none;stroke:#3ea44e;stroke-linecap:round;"/>
   </g>
   <g id="text_15">
    <!-- Quantile truncation -->
    <defs>
     <path d="M 39.40625 66.21875 
Q 28.65625 66.21875 22.328125 58.203125 
Q 16.015625 50.203125 16.015625 36.375 
Q 16.015625 22.609375 22.328125 14.59375 
Q 28.65625 6.59375 39.40625 6.59375 
Q 50.140625 6.59375 56.421875 14.59375 
Q 62.703125 22.609375 62.703125 36.375 
Q 62.703125 50.203125 56.421875 58.203125 
Q 50.140625 66.21875 39.40625 66.21875 
z
M 53.21875 1.3125 
L 66.21875 -12.890625 
L 54.296875 -12.890625 
L 43.5 -1.21875 
Q 41.890625 -1.3125 41.03125 -1.359375 
Q 40.1875 -1.421875 39.40625 -1.421875 
Q 24.03125 -1.421875 14.8125 8.859375 
Q 5.609375 19.140625 5.609375 36.375 
Q 5.609375 53.65625 14.8125 63.9375 
Q 24.03125 74.21875 39.40625 74.21875 
Q 54.734375 74.21875 63.90625 63.9375 
Q 73.09375 53.65625 73.09375 36.375 
Q 73.09375 23.6875 67.984375 14.640625 
Q 62.890625 5.609375 53.21875 1.3125 
z
" id="DejaVuSans-81"/>
     <path d="M 54.890625 33.015625 
L 54.890625 0 
L 45.90625 0 
L 45.90625 32.71875 
Q 45.90625 40.484375 42.875 44.328125 
Q 39.84375 48.1875 33.796875 48.1875 
Q 26.515625 48.1875 22.3125 43.546875 
Q 18.109375 38.921875 18.109375 30.90625 
L 18.109375 0 
L 9.078125 0 
L 9.078125 54.6875 
L 18.109375 54.6875 
L 18.109375 46.1875 
Q 21.34375 51.125 25.703125 53.5625 
Q 30.078125 56 35.796875 56 
Q 45.21875 56 50.046875 50.171875 
Q 54.890625 44.34375 54.890625 33.015625 
z
" id="DejaVuSans-110"/>
     <path id="DejaVuSans-32"/>
     <path d="M 48.78125 52.59375 
L 48.78125 44.1875 
Q 44.96875 46.296875 41.140625 47.34375 
Q 37.3125 48.390625 33.40625 48.390625 
Q 24.65625 48.390625 19.8125 42.84375 
Q 14.984375 37.3125 14.984375 27.296875 
Q 14.984375 17.28125 19.8125 11.734375 
Q 24.65625 6.203125 33.40625 6.203125 
Q 37.3125 6.203125 41.140625 7.25 
Q 44.96875 8.296875 48.78125 10.40625 
L 48.78125 2.09375 
Q 45.015625 0.34375 40.984375 -0.53125 
Q 36.96875 -1.421875 32.421875 -1.421875 
Q 20.0625 -1.421875 12.78125 6.34375 
Q 5.515625 14.109375 5.515625 27.296875 
Q 5.515625 40.671875 12.859375 48.328125 
Q 20.21875 56 33.015625 56 
Q 37.15625 56 41.109375 55.140625 
Q 45.0625 54.296875 48.78125 52.59375 
z
" id="DejaVuSans-99"/>
    </defs>
    <g transform="translate(167.935781 12.194646)scale(0.14 -0.14)">
     <use xlink:href="#DejaVuSans-81"/>
     <use x="78.710938" xlink:href="#DejaVuSans-117"/>
     <use x="142.089844" xlink:href="#DejaVuSans-97"/>
     <use x="203.369141" xlink:href="#DejaVuSans-110"/>
     <use x="266.748047" xlink:href="#DejaVuSans-116"/>
     <use x="305.957031" xlink:href="#DejaVuSans-105"/>
     <use x="333.740234" xlink:href="#DejaVuSans-108"/>
     <use x="361.523438" xlink:href="#DejaVuSans-101"/>
     <use x="423.046875" xlink:href="#DejaVuSans-32"/>
     <use x="454.833984" xlink:href="#DejaVuSans-116"/>
     <use x="494.042969" xlink:href="#DejaVuSans-114"/>
     <use x="535.15625" xlink:href="#DejaVuSans-117"/>
     <use x="598.535156" xlink:href="#DejaVuSans-110"/>
     <use x="661.914062" xlink:href="#DejaVuSans-99"/>
     <use x="716.894531" xlink:href="#DejaVuSans-97"/>
     <use x="778.173828" xlink:href="#DejaVuSans-116"/>
     <use x="817.382812" xlink:href="#DejaVuSans-105"/>
     <use x="845.166016" xlink:href="#DejaVuSans-111"/>
     <use x="906.347656" xlink:href="#DejaVuSans-110"/>
    </g>
   </g>
   <g id="line2d_28">
    <path clip-path="url(#p1b5b129c9c)" d="M 170.788183 114.305995 
L 179.646752 114.305995 
L 180.452077 86.60926 
L 186.089348 81.508729 
L 203.806486 65.199844 
L 207.833109 61.915748 
L 211.054407 59.526859 
L 214.275705 57.394444 
L 217.497003 55.556224 
L 219.912976 54.390872 
L 222.328949 53.421981 
L 224.744923 52.659748 
L 227.160896 52.112274 
L 229.57687 51.785417 
L 231.992843 51.682693 
L 234.408817 51.805208 
L 236.82479 52.151643 
L 239.240764 52.718272 
L 241.656737 53.499036 
L 244.07271 54.485643 
L 246.488684 55.66772 
L 249.709982 57.526425 
L 252.93128 59.676961 
L 256.152578 62.081354 
L 260.1792 65.380893 
L 265.011147 69.65958 
L 273.064392 77.182638 
L 281.117636 84.648387 
L 286.754908 89.557881 
L 291.586855 93.441838 
L 295.613477 96.406565 
L 299.640099 99.102809 
L 303.666722 101.521396 
L 307.693344 103.662197 
L 311.719967 105.53269 
L 315.746589 107.146426 
L 319.773211 108.521472 
L 323.799834 109.678933 
L 328.631781 110.812839 
L 333.463728 111.706573 
L 339.100999 112.497817 
L 345.543595 113.14009 
L 352.791515 113.615797 
L 361.650084 113.957996 
L 373.729952 114.179474 
L 393.863064 114.28681 
L 400.305659 114.296044 
L 400.305659 114.296044 
" style="fill:none;stroke:#c371d2;stroke-linecap:round;"/>
   </g>
   <g id="legend_1">
    <g id="patch_5">
     <path d="M 339.359104 71.564646 
L 423.565354 71.564646 
Q 425.165354 71.564646 425.165354 69.964646 
L 425.165354 23.794646 
Q 425.165354 22.194646 423.565354 22.194646 
L 339.359104 22.194646 
Q 337.759104 22.194646 337.759104 23.794646 
L 337.759104 69.964646 
Q 337.759104 71.564646 339.359104 71.564646 
z
" style="fill:#ffffff;stroke:#000000;stroke-linejoin:miter;"/>
    </g>
    <g id="line2d_29">
     <path d="M 340.959104 28.673396 
L 356.959104 28.673396 
" style="fill:none;stroke:#009afa;stroke-linecap:square;"/>
    </g>
    <g id="line2d_30"/>
    <g id="text_16">
     <!-- full support -->
     <defs>
      <path d="M 37.109375 75.984375 
L 37.109375 68.5 
L 28.515625 68.5 
Q 23.6875 68.5 21.796875 66.546875 
Q 19.921875 64.59375 19.921875 59.515625 
L 19.921875 54.6875 
L 34.71875 54.6875 
L 34.71875 47.703125 
L 19.921875 47.703125 
L 19.921875 0 
L 10.890625 0 
L 10.890625 47.703125 
L 2.296875 47.703125 
L 2.296875 54.6875 
L 10.890625 54.6875 
L 10.890625 58.5 
Q 10.890625 67.625 15.140625 71.796875 
Q 19.390625 75.984375 28.609375 75.984375 
z
" id="DejaVuSans-102"/>
      <path d="M 44.28125 53.078125 
L 44.28125 44.578125 
Q 40.484375 46.53125 36.375 47.5 
Q 32.28125 48.484375 27.875 48.484375 
Q 21.1875 48.484375 17.84375 46.4375 
Q 14.5 44.390625 14.5 40.28125 
Q 14.5 37.15625 16.890625 35.375 
Q 19.28125 33.59375 26.515625 31.984375 
L 29.59375 31.296875 
Q 39.15625 29.25 43.1875 25.515625 
Q 47.21875 21.78125 47.21875 15.09375 
Q 47.21875 7.46875 41.1875 3.015625 
Q 35.15625 -1.421875 24.609375 -1.421875 
Q 20.21875 -1.421875 15.453125 -0.5625 
Q 10.6875 0.296875 5.421875 2 
L 5.421875 11.28125 
Q 10.40625 8.6875 15.234375 7.390625 
Q 20.0625 6.109375 24.8125 6.109375 
Q 31.15625 6.109375 34.5625 8.28125 
Q 37.984375 10.453125 37.984375 14.40625 
Q 37.984375 18.0625 35.515625 20.015625 
Q 33.0625 21.96875 24.703125 23.78125 
L 21.578125 24.515625 
Q 13.234375 26.265625 9.515625 29.90625 
Q 5.8125 33.546875 5.8125 39.890625 
Q 5.8125 47.609375 11.28125 51.796875 
Q 16.75 56 26.8125 56 
Q 31.78125 56 36.171875 55.265625 
Q 40.578125 54.546875 44.28125 53.078125 
z
" id="DejaVuSans-115"/>
     </defs>
     <g transform="translate(363.359104 31.473396)scale(0.08 -0.08)">
      <use xlink:href="#DejaVuSans-102"/>
      <use x="35.205078" xlink:href="#DejaVuSans-117"/>
      <use x="98.583984" xlink:href="#DejaVuSans-108"/>
      <use x="126.367188" xlink:href="#DejaVuSans-108"/>
      <use x="154.150391" xlink:href="#DejaVuSans-32"/>
      <use x="185.9375" xlink:href="#DejaVuSans-115"/>
      <use x="238.037109" xlink:href="#DejaVuSans-117"/>
      <use x="301.416016" xlink:href="#DejaVuSans-112"/>
      <use x="364.892578" xlink:href="#DejaVuSans-112"/>
      <use x="428.369141" xlink:href="#DejaVuSans-111"/>
      <use x="489.550781" xlink:href="#DejaVuSans-114"/>
      <use x="530.664062" xlink:href="#DejaVuSans-116"/>
     </g>
    </g>
    <g id="line2d_31">
     <path d="M 340.959104 40.415896 
L 356.959104 40.415896 
" style="fill:none;stroke:#e36f47;stroke-linecap:square;"/>
    </g>
    <g id="line2d_32"/>
    <g id="text_17">
     <!-- quantile range -->
     <defs>
      <path d="M 14.796875 27.296875 
Q 14.796875 17.390625 18.875 11.75 
Q 22.953125 6.109375 30.078125 6.109375 
Q 37.203125 6.109375 41.296875 11.75 
Q 45.40625 17.390625 45.40625 27.296875 
Q 45.40625 37.203125 41.296875 42.84375 
Q 37.203125 48.484375 30.078125 48.484375 
Q 22.953125 48.484375 18.875 42.84375 
Q 14.796875 37.203125 14.796875 27.296875 
z
M 45.40625 8.203125 
Q 42.578125 3.328125 38.25 0.953125 
Q 33.9375 -1.421875 27.875 -1.421875 
Q 17.96875 -1.421875 11.734375 6.484375 
Q 5.515625 14.40625 5.515625 27.296875 
Q 5.515625 40.1875 11.734375 48.09375 
Q 17.96875 56 27.875 56 
Q 33.9375 56 38.25 53.625 
Q 42.578125 51.265625 45.40625 46.390625 
L 45.40625 54.6875 
L 54.390625 54.6875 
L 54.390625 -20.796875 
L 45.40625 -20.796875 
z
" id="DejaVuSans-113"/>
      <path d="M 45.40625 27.984375 
Q 45.40625 37.75 41.375 43.109375 
Q 37.359375 48.484375 30.078125 48.484375 
Q 22.859375 48.484375 18.828125 43.109375 
Q 14.796875 37.75 14.796875 27.984375 
Q 14.796875 18.265625 18.828125 12.890625 
Q 22.859375 7.515625 30.078125 7.515625 
Q 37.359375 7.515625 41.375 12.890625 
Q 45.40625 18.265625 45.40625 27.984375 
z
M 54.390625 6.78125 
Q 54.390625 -7.171875 48.1875 -13.984375 
Q 42 -20.796875 29.203125 -20.796875 
Q 24.46875 -20.796875 20.265625 -20.09375 
Q 16.0625 -19.390625 12.109375 -17.921875 
L 12.109375 -9.1875 
Q 16.0625 -11.328125 19.921875 -12.34375 
Q 23.78125 -13.375 27.78125 -13.375 
Q 36.625 -13.375 41.015625 -8.765625 
Q 45.40625 -4.15625 45.40625 5.171875 
L 45.40625 9.625 
Q 42.625 4.78125 38.28125 2.390625 
Q 33.9375 0 27.875 0 
Q 17.828125 0 11.671875 7.65625 
Q 5.515625 15.328125 5.515625 27.984375 
Q 5.515625 40.671875 11.671875 48.328125 
Q 17.828125 56 27.875 56 
Q 33.9375 56 38.28125 53.609375 
Q 42.625 51.21875 45.40625 46.390625 
L 45.40625 54.6875 
L 54.390625 54.6875 
z
" id="DejaVuSans-103"/>
     </defs>
     <g transform="translate(363.359104 43.215896)scale(0.08 -0.08)">
      <use xlink:href="#DejaVuSans-113"/>
      <use x="63.476562" xlink:href="#DejaVuSans-117"/>
      <use x="126.855469" xlink:href="#DejaVuSans-97"/>
      <use x="188.134766" xlink:href="#DejaVuSans-110"/>
      <use x="251.513672" xlink:href="#DejaVuSans-116"/>
      <use x="290.722656" xlink:href="#DejaVuSans-105"/>
      <use x="318.505859" xlink:href="#DejaVuSans-108"/>
      <use x="346.289062" xlink:href="#DejaVuSans-101"/>
      <use x="407.8125" xlink:href="#DejaVuSans-32"/>
      <use x="439.599609" xlink:href="#DejaVuSans-114"/>
      <use x="480.712891" xlink:href="#DejaVuSans-97"/>
      <use x="541.992188" xlink:href="#DejaVuSans-110"/>
      <use x="605.371094" xlink:href="#DejaVuSans-103"/>
      <use x="668.847656" xlink:href="#DejaVuSans-101"/>
     </g>
    </g>
    <g id="line2d_33">
     <path d="M 340.959104 52.158396 
L 356.959104 52.158396 
" style="fill:none;stroke:#3ea44e;stroke-linecap:square;"/>
    </g>
    <g id="line2d_34"/>
    <g id="text_18">
     <!-- upper quantile -->
     <g transform="translate(363.359104 54.958396)scale(0.08 -0.08)">
      <use xlink:href="#DejaVuSans-117"/>
      <use x="63.378906" xlink:href="#DejaVuSans-112"/>
      <use x="126.855469" xlink:href="#DejaVuSans-112"/>
      <use x="190.332031" xlink:href="#DejaVuSans-101"/>
      <use x="251.855469" xlink:href="#DejaVuSans-114"/>
      <use x="292.96875" xlink:href="#DejaVuSans-32"/>
      <use x="324.755859" xlink:href="#DejaVuSans-113"/>
      <use x="388.232422" xlink:href="#DejaVuSans-117"/>
      <use x="451.611328" xlink:href="#DejaVuSans-97"/>
      <use x="512.890625" xlink:href="#DejaVuSans-110"/>
      <use x="576.269531" xlink:href="#DejaVuSans-116"/>
      <use x="615.478516" xlink:href="#DejaVuSans-105"/>
      <use x="643.261719" xlink:href="#DejaVuSans-108"/>
      <use x="671.044922" xlink:href="#DejaVuSans-101"/>
     </g>
    </g>
    <g id="line2d_35">
     <path d="M 340.959104 63.900896 
L 356.959104 63.900896 
" style="fill:none;stroke:#c371d2;stroke-linecap:square;"/>
    </g>
    <g id="line2d_36"/>
    <g id="text_19">
     <!-- lower quantile -->
     <defs>
      <path d="M 4.203125 54.6875 
L 13.1875 54.6875 
L 24.421875 12.015625 
L 35.59375 54.6875 
L 46.1875 54.6875 
L 57.421875 12.015625 
L 68.609375 54.6875 
L 77.59375 54.6875 
L 63.28125 0 
L 52.6875 0 
L 40.921875 44.828125 
L 29.109375 0 
L 18.5 0 
z
" id="DejaVuSans-119"/>
     </defs>
     <g transform="translate(363.359104 66.700896)scale(0.08 -0.08)">
      <use xlink:href="#DejaVuSans-108"/>
      <use x="27.783203" xlink:href="#DejaVuSans-111"/>
      <use x="88.964844" xlink:href="#DejaVuSans-119"/>
      <use x="170.751953" xlink:href="#DejaVuSans-101"/>
      <use x="232.275391" xlink:href="#DejaVuSans-114"/>
      <use x="273.388672" xlink:href="#DejaVuSans-32"/>
      <use x="305.175781" xlink:href="#DejaVuSans-113"/>
      <use x="368.652344" xlink:href="#DejaVuSans-117"/>
      <use x="432.03125" xlink:href="#DejaVuSans-97"/>
      <use x="493.310547" xlink:href="#DejaVuSans-110"/>
      <use x="556.689453" xlink:href="#DejaVuSans-116"/>
      <use x="595.898438" xlink:href="#DejaVuSans-105"/>
      <use x="623.681641" xlink:href="#DejaVuSans-108"/>
      <use x="651.464844" xlink:href="#DejaVuSans-101"/>
     </g>
    </g>
   </g>
  </g>
  <g id="axes_2">
   <g id="patch_6">
    <path d="M 42.464646 261.105354 
L 429.165354 261.105354 
L 429.165354 162.194646 
L 42.464646 162.194646 
z
" style="fill:#ffffff;"/>
   </g>
   <g id="matplotlib.axis_3">
    <g id="xtick_6">
     <g id="line2d_37">
      <path clip-path="url(#p56372d3ee4)" d="M 70.821711 261.105354 
L 70.821711 162.194646 
" style="fill:none;stroke:#000000;stroke-linecap:square;stroke-opacity:0.1;stroke-width:0.5;"/>
     </g>
     <g id="line2d_38">
      <g>
       <use style="stroke:#000000;stroke-width:0.8;" x="70.821711" xlink:href="#m22f930ac62" y="261.105354"/>
      </g>
     </g>
     <g id="text_20">
      <!-- 1 -->
      <g transform="translate(68.276711 270.684104)scale(0.08 -0.08)">
       <use xlink:href="#DejaVuSans-49"/>
      </g>
     </g>
    </g>
    <g id="xtick_7">
     <g id="line2d_39">
      <path clip-path="url(#p56372d3ee4)" d="M 151.354159 261.105354 
L 151.354159 162.194646 
" style="fill:none;stroke:#000000;stroke-linecap:square;stroke-opacity:0.1;stroke-width:0.5;"/>
     </g>
     <g id="line2d_40">
      <g>
       <use style="stroke:#000000;stroke-width:0.8;" x="151.354159" xlink:href="#m22f930ac62" y="261.105354"/>
      </g>
     </g>
     <g id="text_21">
      <!-- 2 -->
      <g transform="translate(148.809159 270.684104)scale(0.08 -0.08)">
       <use xlink:href="#DejaVuSans-50"/>
      </g>
     </g>
    </g>
    <g id="xtick_8">
     <g id="line2d_41">
      <path clip-path="url(#p56372d3ee4)" d="M 231.886607 261.105354 
L 231.886607 162.194646 
" style="fill:none;stroke:#000000;stroke-linecap:square;stroke-opacity:0.1;stroke-width:0.5;"/>
     </g>
     <g id="line2d_42">
      <g>
       <use style="stroke:#000000;stroke-width:0.8;" x="231.886607" xlink:href="#m22f930ac62" y="261.105354"/>
      </g>
     </g>
     <g id="text_22">
      <!-- 3 -->
      <g transform="translate(229.341607 270.684104)scale(0.08 -0.08)">
       <use xlink:href="#DejaVuSans-51"/>
      </g>
     </g>
    </g>
    <g id="xtick_9">
     <g id="line2d_43">
      <path clip-path="url(#p56372d3ee4)" d="M 312.419055 261.105354 
L 312.419055 162.194646 
" style="fill:none;stroke:#000000;stroke-linecap:square;stroke-opacity:0.1;stroke-width:0.5;"/>
     </g>
     <g id="line2d_44">
      <g>
       <use style="stroke:#000000;stroke-width:0.8;" x="312.419055" xlink:href="#m22f930ac62" y="261.105354"/>
      </g>
     </g>
     <g id="text_23">
      <!-- 4 -->
      <g transform="translate(309.874055 270.684104)scale(0.08 -0.08)">
       <use xlink:href="#DejaVuSans-52"/>
      </g>
     </g>
    </g>
    <g id="xtick_10">
     <g id="line2d_45">
      <path clip-path="url(#p56372d3ee4)" d="M 392.951503 261.105354 
L 392.951503 162.194646 
" style="fill:none;stroke:#000000;stroke-linecap:square;stroke-opacity:0.1;stroke-width:0.5;"/>
     </g>
     <g id="line2d_46">
      <g>
       <use style="stroke:#000000;stroke-width:0.8;" x="392.951503" xlink:href="#m22f930ac62" y="261.105354"/>
      </g>
     </g>
     <g id="text_24">
      <!-- 5 -->
      <g transform="translate(390.406503 270.684104)scale(0.08 -0.08)">
       <use xlink:href="#DejaVuSans-53"/>
      </g>
     </g>
    </g>
    <g id="text_25">
     <!-- value -->
     <g transform="translate(220.791406 284.706136)scale(0.11 -0.11)">
      <use xlink:href="#DejaVuSans-118"/>
      <use x="59.179688" xlink:href="#DejaVuSans-97"/>
      <use x="120.458984" xlink:href="#DejaVuSans-108"/>
      <use x="148.242188" xlink:href="#DejaVuSans-117"/>
      <use x="211.621094" xlink:href="#DejaVuSans-101"/>
     </g>
    </g>
   </g>
   <g id="matplotlib.axis_4">
    <g id="ytick_8">
     <g id="line2d_47">
      <path clip-path="url(#p56372d3ee4)" d="M 42.464646 258.305995 
L 429.165354 258.305995 
" style="fill:none;stroke:#000000;stroke-linecap:square;stroke-opacity:0.1;stroke-width:0.5;"/>
     </g>
     <g id="line2d_48">
      <g>
       <use style="stroke:#000000;stroke-width:0.8;" x="42.464646" xlink:href="#m634680eb9f" y="258.305995"/>
      </g>
     </g>
     <g id="text_26">
      <!-- 0.000 -->
      <g transform="translate(16.062146 261.34537)scale(0.08 -0.08)">
       <use xlink:href="#DejaVuSans-48"/>
       <use x="63.623047" xlink:href="#DejaVuSans-46"/>
       <use x="95.410156" xlink:href="#DejaVuSans-48"/>
       <use x="159.033203" xlink:href="#DejaVuSans-48"/>
       <use x="222.65625" xlink:href="#DejaVuSans-48"/>
      </g>
     </g>
    </g>
    <g id="ytick_9">
     <g id="line2d_49">
      <path clip-path="url(#p56372d3ee4)" d="M 42.464646 235.980508 
L 429.165354 235.980508 
" style="fill:none;stroke:#000000;stroke-linecap:square;stroke-opacity:0.1;stroke-width:0.5;"/>
     </g>
     <g id="line2d_50">
      <g>
       <use style="stroke:#000000;stroke-width:0.8;" x="42.464646" xlink:href="#m634680eb9f" y="235.980508"/>
      </g>
     </g>
     <g id="text_27">
      <!-- 0.002 -->
      <g transform="translate(16.062146 239.019883)scale(0.08 -0.08)">
       <use xlink:href="#DejaVuSans-48"/>
       <use x="63.623047" xlink:href="#DejaVuSans-46"/>
       <use x="95.410156" xlink:href="#DejaVuSans-48"/>
       <use x="159.033203" xlink:href="#DejaVuSans-48"/>
       <use x="222.65625" xlink:href="#DejaVuSans-50"/>
      </g>
     </g>
    </g>
    <g id="ytick_10">
     <g id="line2d_51">
      <path clip-path="url(#p56372d3ee4)" d="M 42.464646 213.655022 
L 429.165354 213.655022 
" style="fill:none;stroke:#000000;stroke-linecap:square;stroke-opacity:0.1;stroke-width:0.5;"/>
     </g>
     <g id="line2d_52">
      <g>
       <use style="stroke:#000000;stroke-width:0.8;" x="42.464646" xlink:href="#m634680eb9f" y="213.655022"/>
      </g>
     </g>
     <g id="text_28">
      <!-- 0.004 -->
      <g transform="translate(16.062146 216.694397)scale(0.08 -0.08)">
       <use xlink:href="#DejaVuSans-48"/>
       <use x="63.623047" xlink:href="#DejaVuSans-46"/>
       <use x="95.410156" xlink:href="#DejaVuSans-48"/>
       <use x="159.033203" xlink:href="#DejaVuSans-48"/>
       <use x="222.65625" xlink:href="#DejaVuSans-52"/>
      </g>
     </g>
    </g>
    <g id="ytick_11">
     <g id="line2d_53">
      <path clip-path="url(#p56372d3ee4)" d="M 42.464646 191.329535 
L 429.165354 191.329535 
" style="fill:none;stroke:#000000;stroke-linecap:square;stroke-opacity:0.1;stroke-width:0.5;"/>
     </g>
     <g id="line2d_54">
      <g>
       <use style="stroke:#000000;stroke-width:0.8;" x="42.464646" xlink:href="#m634680eb9f" y="191.329535"/>
      </g>
     </g>
     <g id="text_29">
      <!-- 0.006 -->
      <g transform="translate(16.062146 194.36891)scale(0.08 -0.08)">
       <use xlink:href="#DejaVuSans-48"/>
       <use x="63.623047" xlink:href="#DejaVuSans-46"/>
       <use x="95.410156" xlink:href="#DejaVuSans-48"/>
       <use x="159.033203" xlink:href="#DejaVuSans-48"/>
       <use x="222.65625" xlink:href="#DejaVuSans-54"/>
      </g>
     </g>
    </g>
    <g id="ytick_12">
     <g id="line2d_55">
      <path clip-path="url(#p56372d3ee4)" d="M 42.464646 169.004049 
L 429.165354 169.004049 
" style="fill:none;stroke:#000000;stroke-linecap:square;stroke-opacity:0.1;stroke-width:0.5;"/>
     </g>
     <g id="line2d_56">
      <g>
       <use style="stroke:#000000;stroke-width:0.8;" x="42.464646" xlink:href="#m634680eb9f" y="169.004049"/>
      </g>
     </g>
     <g id="text_30">
      <!-- 0.008 -->
      <g transform="translate(16.062146 172.043424)scale(0.08 -0.08)">
       <use xlink:href="#DejaVuSans-48"/>
       <use x="63.623047" xlink:href="#DejaVuSans-46"/>
       <use x="95.410156" xlink:href="#DejaVuSans-48"/>
       <use x="159.033203" xlink:href="#DejaVuSans-48"/>
       <use x="222.65625" xlink:href="#DejaVuSans-56"/>
      </g>
     </g>
    </g>
    <g id="text_31">
     <!-- probability -->
     <g transform="translate(9.774489 241.115391)rotate(-90)scale(0.11 -0.11)">
      <use xlink:href="#DejaVuSans-112"/>
      <use x="63.476562" xlink:href="#DejaVuSans-114"/>
      <use x="104.558594" xlink:href="#DejaVuSans-111"/>
      <use x="165.740234" xlink:href="#DejaVuSans-98"/>
      <use x="229.216797" xlink:href="#DejaVuSans-97"/>
      <use x="290.496094" xlink:href="#DejaVuSans-98"/>
      <use x="353.972656" xlink:href="#DejaVuSans-105"/>
      <use x="381.755859" xlink:href="#DejaVuSans-108"/>
      <use x="409.539062" xlink:href="#DejaVuSans-105"/>
      <use x="437.322266" xlink:href="#DejaVuSans-116"/>
      <use x="476.53125" xlink:href="#DejaVuSans-121"/>
     </g>
    </g>
   </g>
   <g id="line2d_57">
    <path clip-path="url(#p56372d3ee4)" d="M 80.099665 258.232858 
L 95.40083 258.02097 
L 105.064724 257.681292 
L 112.312644 257.222441 
L 118.75524 256.585556 
L 124.392511 255.781297 
L 129.224458 254.852898 
L 133.251081 253.872315 
L 137.277703 252.669917 
L 141.304325 251.212722 
L 144.525623 249.841218 
L 147.746921 248.268973 
L 150.968219 246.480625 
L 154.189517 244.46252 
L 157.410815 242.203395 
L 160.632113 239.695093 
L 163.853411 236.933297 
L 167.074709 233.918242 
L 171.101331 229.802134 
L 175.127953 225.322806 
L 179.154576 220.519322 
L 183.986523 214.406332 
L 191.234443 204.797956 
L 200.093012 193.087667 
L 204.119635 188.081372 
L 208.146257 183.443168 
L 211.367555 180.078261 
L 214.588853 177.083599 
L 217.004826 175.112754 
L 219.4208 173.400299 
L 221.836773 171.963985 
L 224.252747 170.818895 
L 226.66872 169.977176 
L 229.084694 169.447824 
L 231.500667 169.236528 
L 233.916641 169.345564 
L 236.332614 169.773757 
L 238.748587 170.5165 
L 241.164561 171.56584 
L 243.580534 172.910614 
L 245.996508 174.536653 
L 248.412481 176.427026 
L 250.828455 178.562334 
L 254.049753 181.75294 
L 257.27105 185.284722 
L 261.297673 190.087939 
L 266.12962 196.261025 
L 274.988189 208.078224 
L 281.430785 216.52249 
L 286.262732 222.516594 
L 290.289354 227.193476 
L 294.315976 231.528314 
L 298.342599 235.488508 
L 301.563897 238.374642 
L 304.785195 241.006786 
L 308.006493 243.387115 
L 311.227791 245.521996 
L 314.449088 247.421263 
L 317.670386 249.097486 
L 320.891684 250.565275 
L 324.918307 252.131339 
L 328.944929 253.429574 
L 332.971552 254.493171 
L 337.803498 255.505152 
L 342.635445 256.277954 
L 348.272717 256.93955 
L 354.715312 257.45645 
L 362.768557 257.853571 
L 373.237776 258.118132 
L 389.344265 258.263408 
L 404.64543 258.297029 
L 404.64543 258.297029 
" style="fill:none;stroke:#009afa;stroke-linecap:round;"/>
   </g>
   <g id="line2d_58">
    <path clip-path="url(#p56372d3ee4)" d="M 143.336858 258.305995 
L 150.584778 258.305995 
L 151.390103 245.655024 
L 154.611401 243.508432 
L 157.832699 241.108029 
L 161.053997 238.445756 
L 164.275295 235.517671 
L 167.496592 232.3247 
L 171.523215 227.971437 
L 175.549837 223.241176 
L 179.57646 218.176602 
L 184.408407 211.743195 
L 191.656327 201.658868 
L 199.709572 190.499178 
L 204.541519 184.210435 
L 207.762816 180.323514 
L 210.984114 176.756284 
L 214.205412 173.569924 
L 216.621386 171.464217 
L 219.037359 169.626006 
L 221.453333 168.074305 
L 223.869306 166.825376 
L 226.28528 165.892448 
L 228.701253 165.285484 
L 231.117226 165.011 
L 232.727875 165.014331 
L 234.338524 165.166804 
L 236.754498 165.673362 
L 239.170471 166.508232 
L 241.586445 167.662482 
L 244.002418 169.123854 
L 246.418391 170.876976 
L 248.834365 172.903639 
L 251.250338 175.183104 
L 254.471636 178.575772 
L 257.692934 182.317853 
L 261.719557 187.390565 
L 266.551503 193.888779 
L 285.073967 219.305657 
L 289.100589 224.301897 
L 293.127211 228.953083 
L 297.153834 233.220181 
L 300.375132 236.341416 
L 303.59643 239.19699 
L 306.817727 241.787374 
L 310.039025 244.117706 
L 311.649674 245.18805 
L 312.454999 258.305995 
L 327.756164 258.305995 
L 327.756164 258.305995 
" style="fill:none;stroke:#e36f47;stroke-dasharray:3.7,1.6;stroke-dashoffset:0;"/>
   </g>
   <g id="patch_7">
    <path d="M 42.464646 261.105354 
L 42.464646 162.194646 
" style="fill:none;stroke:#000000;stroke-linecap:square;stroke-linejoin:miter;"/>
   </g>
   <g id="patch_8">
    <path d="M 42.464646 261.105354 
L 429.165354 261.105354 
" style="fill:none;stroke:#000000;stroke-linecap:square;stroke-linejoin:miter;"/>
   </g>
   <g id="line2d_59">
    <path clip-path="url(#p56372d3ee4)" d="M 62.663542 258.292961 
L 88.433925 258.1496 
L 100.513792 257.870639 
L 108.567037 257.486503 
L 115.009633 256.985315 
L 120.646904 256.342529 
L 125.478851 255.590366 
L 130.310798 254.603761 
L 134.33742 253.565237 
L 138.364043 252.295798 
L 142.390665 250.762255 
L 145.611963 249.323061 
L 148.833261 247.677538 
L 152.054559 245.810809 
L 155.275857 243.709931 
L 158.497155 241.364594 
L 161.718453 238.767847 
L 164.939751 235.916826 
L 168.161049 232.813458 
L 172.187671 228.591163 
L 176.214293 224.014173 
L 181.04624 218.115939 
L 186.683512 210.812897 
L 202.790001 189.61441 
L 206.816624 184.835251 
L 210.037922 181.329836 
L 213.259219 178.171677 
L 215.675193 176.064453 
L 218.091166 174.205126 
L 220.50714 172.612815 
L 222.923113 171.304127 
L 225.339087 170.292871 
L 227.75506 169.589815 
L 230.171034 169.202494 
L 232.587007 169.135075 
L 235.00298 169.388286 
L 237.418954 169.959399 
L 239.834927 170.842281 
L 242.250901 172.027502 
L 244.666874 173.502504 
L 247.082848 175.251824 
L 249.498821 177.257361 
L 252.720119 180.29437 
L 255.941417 183.696609 
L 259.162715 187.405687 
L 263.189337 192.379833 
L 268.826609 199.754878 
L 281.7118 216.829204 
L 286.543747 222.809047 
L 290.570369 227.469241 
L 294.596992 231.784173 
L 298.623614 235.722294 
L 301.844912 238.589868 
L 305.06621 241.203141 
L 308.287508 243.564684 
L 311.508806 245.681205 
L 314.730104 247.562819 
L 317.951402 249.222316 
L 321.1727 250.67447 
L 325.199322 252.222689 
L 329.225945 253.505069 
L 333.252567 254.554819 
L 338.084514 255.552745 
L 342.916461 256.314083 
L 348.553732 256.965204 
L 352.580354 257.307473 
L 353.385679 258.305995 
L 370.297493 258.305995 
L 370.297493 258.305995 
" style="fill:none;stroke:#3ea44e;stroke-dasharray:3.7,1.6;stroke-dashoffset:0;"/>
   </g>
   <g id="text_32">
    <!-- Value truncation -->
    <defs>
     <path d="M 28.609375 0 
L 0.78125 72.90625 
L 11.078125 72.90625 
L 34.1875 11.53125 
L 57.328125 72.90625 
L 67.578125 72.90625 
L 39.796875 0 
z
" id="DejaVuSans-86"/>
    </defs>
    <g transform="translate(177.790469 156.194646)scale(0.14 -0.14)">
     <use xlink:href="#DejaVuSans-86"/>
     <use x="68.298828" xlink:href="#DejaVuSans-97"/>
     <use x="129.578125" xlink:href="#DejaVuSans-108"/>
     <use x="157.361328" xlink:href="#DejaVuSans-117"/>
     <use x="220.740234" xlink:href="#DejaVuSans-101"/>
     <use x="282.263672" xlink:href="#DejaVuSans-32"/>
     <use x="314.050781" xlink:href="#DejaVuSans-116"/>
     <use x="353.259766" xlink:href="#DejaVuSans-114"/>
     <use x="394.373047" xlink:href="#DejaVuSans-117"/>
     <use x="457.751953" xlink:href="#DejaVuSans-110"/>
     <use x="521.130859" xlink:href="#DejaVuSans-99"/>
     <use x="576.111328" xlink:href="#DejaVuSans-97"/>
     <use x="637.390625" xlink:href="#DejaVuSans-116"/>
     <use x="676.599609" xlink:href="#DejaVuSans-105"/>
     <use x="704.382812" xlink:href="#DejaVuSans-111"/>
     <use x="765.564453" xlink:href="#DejaVuSans-110"/>
    </g>
   </g>
   <g id="line2d_60">
    <path clip-path="url(#p56372d3ee4)" d="M 65.376617 258.288757 
L 89.536351 258.133867 
L 100.810894 257.860626 
L 108.864138 257.468891 
L 115.306734 256.958524 
L 120.944006 256.304767 
L 125.775953 255.540587 
L 130.607899 254.539234 
L 134.634522 253.486167 
L 138.661144 252.200062 
L 142.687767 250.647743 
L 145.909065 249.192084 
L 149.130362 247.528932 
L 152.35166 245.643579 
L 155.572958 243.523312 
L 158.794256 241.158114 
L 162.015554 238.541388 
L 165.236852 235.670687 
L 168.45815 232.54841 
L 172.484772 228.30436 
L 176.511395 223.70873 
L 181.343342 217.793846 
L 186.980613 210.481702 
L 202.281778 190.332346 
L 206.3084 185.511316 
L 209.529698 181.961109 
L 212.750996 178.748559 
L 215.16697 176.594649 
L 217.582943 174.684006 
L 219.998917 173.036212 
L 222.41489 171.668405 
L 224.830864 170.594985 
L 227.246837 169.827363 
L 229.66281 169.373757 
L 232.078784 169.239043 
L 234.494757 169.424675 
L 236.910731 169.928652 
L 239.326704 170.745557 
L 241.742678 171.866653 
L 244.158651 173.280041 
L 246.574624 174.970864 
L 248.990598 176.921576 
L 251.406571 179.112237 
L 254.627869 182.368113 
L 257.849167 185.954664 
L 261.87579 190.810788 
L 266.707736 197.024136 
L 284.424875 220.283274 
L 288.451497 225.10079 
L 292.47812 229.596458 
L 296.504742 233.730443 
L 299.72604 236.760423 
L 302.947338 239.537334 
L 306.168636 242.060646 
L 309.389934 244.334421 
L 312.611232 246.366604 
L 315.83253 248.168294 
L 319.053828 249.753018 
L 323.08045 251.452202 
L 327.107072 252.868465 
L 331.133695 254.034996 
L 335.160317 254.984648 
L 339.992264 255.882047 
L 344.824211 256.562267 
L 350.461482 257.140021 
L 357.709403 257.630765 
L 366.567972 257.974569 
L 378.647839 258.189834 
L 398.780951 258.289425 
L 406.028871 258.298263 
L 406.028871 258.298263 
" style="fill:none;stroke:#c371d2;stroke-dasharray:3.7,1.6;stroke-dashoffset:0;"/>
   </g>
   <g id="legend_2">
    <g id="patch_9">
     <path d="M 330.720354 215.564646 
L 423.565354 215.564646 
Q 425.165354 215.564646 425.165354 213.964646 
L 425.165354 167.794646 
Q 425.165354 166.194646 423.565354 166.194646 
L 330.720354 166.194646 
Q 329.120354 166.194646 329.120354 167.794646 
L 329.120354 213.964646 
Q 329.120354 215.564646 330.720354 215.564646 
z
" style="fill:#ffffff;stroke:#000000;stroke-linejoin:miter;"/>
    </g>
    <g id="line2d_61">
     <path d="M 332.320354 172.673396 
L 348.320354 172.673396 
" style="fill:none;stroke:#009afa;stroke-linecap:square;"/>
    </g>
    <g id="line2d_62"/>
    <g id="text_33">
     <!-- full support -->
     <g transform="translate(354.720354 175.473396)scale(0.08 -0.08)">
      <use xlink:href="#DejaVuSans-102"/>
      <use x="35.205078" xlink:href="#DejaVuSans-117"/>
      <use x="98.583984" xlink:href="#DejaVuSans-108"/>
      <use x="126.367188" xlink:href="#DejaVuSans-108"/>
      <use x="154.150391" xlink:href="#DejaVuSans-32"/>
      <use x="185.9375" xlink:href="#DejaVuSans-115"/>
      <use x="238.037109" xlink:href="#DejaVuSans-117"/>
      <use x="301.416016" xlink:href="#DejaVuSans-112"/>
      <use x="364.892578" xlink:href="#DejaVuSans-112"/>
      <use x="428.369141" xlink:href="#DejaVuSans-111"/>
      <use x="489.550781" xlink:href="#DejaVuSans-114"/>
      <use x="530.664062" xlink:href="#DejaVuSans-116"/>
     </g>
    </g>
    <g id="line2d_63">
     <path d="M 332.320354 184.415896 
L 348.320354 184.415896 
" style="fill:none;stroke:#e36f47;stroke-dasharray:3.7,1.6;stroke-dashoffset:0;"/>
    </g>
    <g id="line2d_64"/>
    <g id="text_34">
     <!-- value range -->
     <g transform="translate(354.720354 187.215896)scale(0.08 -0.08)">
      <use xlink:href="#DejaVuSans-118"/>
      <use x="59.179688" xlink:href="#DejaVuSans-97"/>
      <use x="120.458984" xlink:href="#DejaVuSans-108"/>
      <use x="148.242188" xlink:href="#DejaVuSans-117"/>
      <use x="211.621094" xlink:href="#DejaVuSans-101"/>
      <use x="273.144531" xlink:href="#DejaVuSans-32"/>
      <use x="304.931641" xlink:href="#DejaVuSans-114"/>
      <use x="346.044922" xlink:href="#DejaVuSans-97"/>
      <use x="407.324219" xlink:href="#DejaVuSans-110"/>
      <use x="470.703125" xlink:href="#DejaVuSans-103"/>
      <use x="534.179688" xlink:href="#DejaVuSans-101"/>
     </g>
    </g>
    <g id="line2d_65">
     <path d="M 332.320354 196.158396 
L 348.320354 196.158396 
" style="fill:none;stroke:#3ea44e;stroke-dasharray:3.7,1.6;stroke-dashoffset:0;"/>
    </g>
    <g id="line2d_66"/>
    <g id="text_35">
     <!-- maximum value  -->
     <defs>
      <path d="M 52 44.1875 
Q 55.375 50.25 60.0625 53.125 
Q 64.75 56 71.09375 56 
Q 79.640625 56 84.28125 50.015625 
Q 88.921875 44.046875 88.921875 33.015625 
L 88.921875 0 
L 79.890625 0 
L 79.890625 32.71875 
Q 79.890625 40.578125 77.09375 44.375 
Q 74.3125 48.1875 68.609375 48.1875 
Q 61.625 48.1875 57.5625 43.546875 
Q 53.515625 38.921875 53.515625 30.90625 
L 53.515625 0 
L 44.484375 0 
L 44.484375 32.71875 
Q 44.484375 40.625 41.703125 44.40625 
Q 38.921875 48.1875 33.109375 48.1875 
Q 26.21875 48.1875 22.15625 43.53125 
Q 18.109375 38.875 18.109375 30.90625 
L 18.109375 0 
L 9.078125 0 
L 9.078125 54.6875 
L 18.109375 54.6875 
L 18.109375 46.1875 
Q 21.1875 51.21875 25.484375 53.609375 
Q 29.78125 56 35.6875 56 
Q 41.65625 56 45.828125 52.96875 
Q 50 49.953125 52 44.1875 
z
" id="DejaVuSans-109"/>
      <path d="M 54.890625 54.6875 
L 35.109375 28.078125 
L 55.90625 0 
L 45.3125 0 
L 29.390625 21.484375 
L 13.484375 0 
L 2.875 0 
L 24.125 28.609375 
L 4.6875 54.6875 
L 15.28125 54.6875 
L 29.78125 35.203125 
L 44.28125 54.6875 
z
" id="DejaVuSans-120"/>
     </defs>
     <g transform="translate(354.720354 198.958396)scale(0.08 -0.08)">
      <use xlink:href="#DejaVuSans-109"/>
      <use x="97.412109" xlink:href="#DejaVuSans-97"/>
      <use x="158.691406" xlink:href="#DejaVuSans-120"/>
      <use x="217.871094" xlink:href="#DejaVuSans-105"/>
      <use x="245.654297" xlink:href="#DejaVuSans-109"/>
      <use x="343.066406" xlink:href="#DejaVuSans-117"/>
      <use x="406.445312" xlink:href="#DejaVuSans-109"/>
      <use x="503.857422" xlink:href="#DejaVuSans-32"/>
      <use x="535.644531" xlink:href="#DejaVuSans-118"/>
      <use x="594.824219" xlink:href="#DejaVuSans-97"/>
      <use x="656.103516" xlink:href="#DejaVuSans-108"/>
      <use x="683.886719" xlink:href="#DejaVuSans-117"/>
      <use x="747.265625" xlink:href="#DejaVuSans-101"/>
      <use x="808.789062" xlink:href="#DejaVuSans-32"/>
     </g>
    </g>
    <g id="line2d_67">
     <path d="M 332.320354 207.900896 
L 348.320354 207.900896 
" style="fill:none;stroke:#c371d2;stroke-dasharray:3.7,1.6;stroke-dashoffset:0;"/>
    </g>
    <g id="line2d_68"/>
    <g id="text_36">
     <!-- minimum value -->
     <g transform="translate(354.720354 210.700896)scale(0.08 -0.08)">
      <use xlink:href="#DejaVuSans-109"/>
      <use x="97.412109" xlink:href="#DejaVuSans-105"/>
      <use x="125.195312" xlink:href="#DejaVuSans-110"/>
      <use x="188.574219" xlink:href="#DejaVuSans-105"/>
      <use x="216.357422" xlink:href="#DejaVuSans-109"/>
      <use x="313.769531" xlink:href="#DejaVuSans-117"/>
      <use x="377.148438" xlink:href="#DejaVuSans-109"/>
      <use x="474.560547" xlink:href="#DejaVuSans-32"/>
      <use x="506.347656" xlink:href="#DejaVuSans-118"/>
      <use x="565.527344" xlink:href="#DejaVuSans-97"/>
      <use x="626.806641" xlink:href="#DejaVuSans-108"/>
      <use x="654.589844" xlink:href="#DejaVuSans-117"/>
      <use x="717.96875" xlink:href="#DejaVuSans-101"/>
     </g>
    </g>
   </g>
  </g>
 </g>
 <defs>
  <clipPath id="p1b5b129c9c">
   <rect height="98.910709" width="386.700709" x="42.464646" y="18.194646"/>
  </clipPath>
  <clipPath id="p56372d3ee4">
   <rect height="98.910709" width="386.700709" x="42.464646" y="162.194646"/>
  </clipPath>
 </defs>
</svg>
