<?xml version="1.0" encoding="utf-8"?>
<svg xmlns="http://www.w3.org/2000/svg" xmlns:xlink="http://www.w3.org/1999/xlink" width="600" height="400" viewBox="0 0 2400 1600">
<defs>
  <clipPath id="clip5800">
    <rect x="0" y="0" width="2000" height="2000"/>
  </clipPath>
</defs>
<defs>
  <clipPath id="clip5801">
    <rect x="0" y="0" width="2400" height="1600"/>
  </clipPath>
</defs>
<polygon clip-path="url(#clip5801)" points="
0,1600 2400,1600 2400,0 0,0 
  " fill="#ffffff" fill-rule="evenodd" fill-opacity="1"/>
<defs>
  <clipPath id="clip5802">
    <rect x="480" y="0" width="1681" height="1600"/>
  </clipPath>
</defs>
<polygon clip-path="url(#clip5801)" points="
212.353,1440.48 2321.26,1440.48 2321.26,47.2441 212.353,47.2441 
  " fill="#ffffff" fill-rule="evenodd" fill-opacity="1"/>
<defs>
  <clipPath id="clip5803">
    <rect x="212" y="47" width="2110" height="1394"/>
  </clipPath>
</defs>
<polyline clip-path="url(#clip5803)" style="stroke:#000000; stroke-width:2; stroke-opacity:0.1; fill:none" points="
  329.181,1440.48 329.181,47.2441 
  "/>
<polyline clip-path="url(#clip5803)" style="stroke:#000000; stroke-width:2; stroke-opacity:0.1; fill:none" points="
  972.972,1440.48 972.972,47.2441 
  "/>
<polyline clip-path="url(#clip5803)" style="stroke:#000000; stroke-width:2; stroke-opacity:0.1; fill:none" points="
  1616.76,1440.48 1616.76,47.2441 
  "/>
<polyline clip-path="url(#clip5803)" style="stroke:#000000; stroke-width:2; stroke-opacity:0.1; fill:none" points="
  2260.55,1440.48 2260.55,47.2441 
  "/>
<polyline clip-path="url(#clip5803)" style="stroke:#000000; stroke-width:2; stroke-opacity:0.1; fill:none" points="
  212.353,1432.33 2321.26,1432.33 
  "/>
<polyline clip-path="url(#clip5803)" style="stroke:#000000; stroke-width:2; stroke-opacity:0.1; fill:none" points="
  212.353,1029.14 2321.26,1029.14 
  "/>
<polyline clip-path="url(#clip5803)" style="stroke:#000000; stroke-width:2; stroke-opacity:0.1; fill:none" points="
  212.353,625.948 2321.26,625.948 
  "/>
<polyline clip-path="url(#clip5803)" style="stroke:#000000; stroke-width:2; stroke-opacity:0.1; fill:none" points="
  212.353,222.758 2321.26,222.758 
  "/>
<polyline clip-path="url(#clip5801)" style="stroke:#000000; stroke-width:4; stroke-opacity:1; fill:none" points="
  212.353,1440.48 2321.26,1440.48 
  "/>
<polyline clip-path="url(#clip5801)" style="stroke:#000000; stroke-width:4; stroke-opacity:1; fill:none" points="
  212.353,1440.48 212.353,47.2441 
  "/>
<polyline clip-path="url(#clip5801)" style="stroke:#000000; stroke-width:4; stroke-opacity:1; fill:none" points="
  329.181,1440.48 329.181,1419.58 
  "/>
<polyline clip-path="url(#clip5801)" style="stroke:#000000; stroke-width:4; stroke-opacity:1; fill:none" points="
  972.972,1440.48 972.972,1419.58 
  "/>
<polyline clip-path="url(#clip5801)" style="stroke:#000000; stroke-width:4; stroke-opacity:1; fill:none" points="
  1616.76,1440.48 1616.76,1419.58 
  "/>
<polyline clip-path="url(#clip5801)" style="stroke:#000000; stroke-width:4; stroke-opacity:1; fill:none" points="
  2260.55,1440.48 2260.55,1419.58 
  "/>
<polyline clip-path="url(#clip5801)" style="stroke:#000000; stroke-width:4; stroke-opacity:1; fill:none" points="
  212.353,1432.33 243.986,1432.33 
  "/>
<polyline clip-path="url(#clip5801)" style="stroke:#000000; stroke-width:4; stroke-opacity:1; fill:none" points="
  212.353,1029.14 243.986,1029.14 
  "/>
<polyline clip-path="url(#clip5801)" style="stroke:#000000; stroke-width:4; stroke-opacity:1; fill:none" points="
  212.353,625.948 243.986,625.948 
  "/>
<polyline clip-path="url(#clip5801)" style="stroke:#000000; stroke-width:4; stroke-opacity:1; fill:none" points="
  212.353,222.758 243.986,222.758 
  "/>
<g clip-path="url(#clip5801)">
<text style="fill:#000000; fill-opacity:1; font-family:Arial,Helvetica Neue,Helvetica,sans-serif; font-size:48px; text-anchor:middle;" transform="rotate(0, 329.181, 1494.48)" x="329.181" y="1494.48">0</text>
</g>
<g clip-path="url(#clip5801)">
<text style="fill:#000000; fill-opacity:1; font-family:Arial,Helvetica Neue,Helvetica,sans-serif; font-size:48px; text-anchor:middle;" transform="rotate(0, 972.972, 1494.48)" x="972.972" y="1494.48">5</text>
</g>
<g clip-path="url(#clip5801)">
<text style="fill:#000000; fill-opacity:1; font-family:Arial,Helvetica Neue,Helvetica,sans-serif; font-size:48px; text-anchor:middle;" transform="rotate(0, 1616.76, 1494.48)" x="1616.76" y="1494.48">10</text>
</g>
<g clip-path="url(#clip5801)">
<text style="fill:#000000; fill-opacity:1; font-family:Arial,Helvetica Neue,Helvetica,sans-serif; font-size:48px; text-anchor:middle;" transform="rotate(0, 2260.55, 1494.48)" x="2260.55" y="1494.48">15</text>
</g>
<g clip-path="url(#clip5801)">
<text style="fill:#000000; fill-opacity:1; font-family:Arial,Helvetica Neue,Helvetica,sans-serif; font-size:48px; text-anchor:end;" transform="rotate(0, 188.353, 1449.83)" x="188.353" y="1449.83">-1</text>
</g>
<g clip-path="url(#clip5801)">
<text style="fill:#000000; fill-opacity:1; font-family:Arial,Helvetica Neue,Helvetica,sans-serif; font-size:48px; text-anchor:end;" transform="rotate(0, 188.353, 1046.64)" x="188.353" y="1046.64">0</text>
</g>
<g clip-path="url(#clip5801)">
<text style="fill:#000000; fill-opacity:1; font-family:Arial,Helvetica Neue,Helvetica,sans-serif; font-size:48px; text-anchor:end;" transform="rotate(0, 188.353, 643.448)" x="188.353" y="643.448">1</text>
</g>
<g clip-path="url(#clip5801)">
<text style="fill:#000000; fill-opacity:1; font-family:Arial,Helvetica Neue,Helvetica,sans-serif; font-size:48px; text-anchor:end;" transform="rotate(0, 188.353, 240.258)" x="188.353" y="240.258">2</text>
</g>
<g clip-path="url(#clip5801)">
<text style="fill:#000000; fill-opacity:1; font-family:Arial,Helvetica Neue,Helvetica,sans-serif; font-size:66px; text-anchor:middle;" transform="rotate(0, 1266.81, 1590.4)" x="1266.81" y="1590.4">Index</text>
</g>
<g clip-path="url(#clip5801)">
<text style="fill:#000000; fill-opacity:1; font-family:Arial,Helvetica Neue,Helvetica,sans-serif; font-size:66px; text-anchor:middle;" transform="rotate(-90, 57.6, 743.863)" x="57.6" y="743.863">Value</text>
</g>
<polyline clip-path="url(#clip5803)" style="stroke:#009af9; stroke-width:4; stroke-opacity:1; fill:none" points="
  272.039,818.13 643.84,818.13 
  "/>
<line clip-path="url(#clip5803)" x1="272.039" y1="798.13" x2="272.039" y2="838.13" style="stroke:#000000; stroke-width:4; stroke-opacity:1"/>
<line clip-path="url(#clip5803)" x1="643.84" y1="798.13" x2="643.84" y2="838.13" style="stroke:#000000; stroke-width:4; stroke-opacity:1"/>
<polyline clip-path="url(#clip5803)" style="stroke:#009af9; stroke-width:4; stroke-opacity:1; fill:none" points="
  457.939,1365.17 457.939,271.087 
  "/>
<line clip-path="url(#clip5803)" x1="477.939" y1="1365.17" x2="437.939" y2="1365.17" style="stroke:#000000; stroke-width:4; stroke-opacity:1"/>
<line clip-path="url(#clip5803)" x1="477.939" y1="271.087" x2="437.939" y2="271.087" style="stroke:#000000; stroke-width:4; stroke-opacity:1"/>
<polyline clip-path="url(#clip5803)" style="stroke:#e26f46; stroke-width:4; stroke-opacity:1; fill:none" points="
  390.542,692.39 782.853,692.39 
  "/>
<line clip-path="url(#clip5803)" x1="390.542" y1="672.39" x2="390.542" y2="712.39" style="stroke:#000000; stroke-width:4; stroke-opacity:1"/>
<line clip-path="url(#clip5803)" x1="782.853" y1="672.39" x2="782.853" y2="712.39" style="stroke:#000000; stroke-width:4; stroke-opacity:1"/>
<polyline clip-path="url(#clip5803)" style="stroke:#e26f46; stroke-width:4; stroke-opacity:1; fill:none" points="
  586.698,955.186 586.698,429.593 
  "/>
<line clip-path="url(#clip5803)" x1="606.698" y1="955.186" x2="566.698" y2="955.186" style="stroke:#000000; stroke-width:4; stroke-opacity:1"/>
<line clip-path="url(#clip5803)" x1="606.698" y1="429.593" x2="566.698" y2="429.593" style="stroke:#000000; stroke-width:4; stroke-opacity:1"/>
<polyline clip-path="url(#clip5803)" style="stroke:#3da44d; stroke-width:4; stroke-opacity:1; fill:none" points="
  639.972,917.086 790.94,917.086 
  "/>
<line clip-path="url(#clip5803)" x1="639.972" y1="897.086" x2="639.972" y2="937.086" style="stroke:#000000; stroke-width:4; stroke-opacity:1"/>
<line clip-path="url(#clip5803)" x1="790.94" y1="897.086" x2="790.94" y2="937.086" style="stroke:#000000; stroke-width:4; stroke-opacity:1"/>
<polyline clip-path="url(#clip5803)" style="stroke:#3da44d; stroke-width:4; stroke-opacity:1; fill:none" points="
  715.456,1089.86 715.456,744.308 
  "/>
<line clip-path="url(#clip5803)" x1="735.456" y1="1089.86" x2="695.456" y2="1089.86" style="stroke:#000000; stroke-width:4; stroke-opacity:1"/>
<line clip-path="url(#clip5803)" x1="735.456" y1="744.308" x2="695.456" y2="744.308" style="stroke:#000000; stroke-width:4; stroke-opacity:1"/>
<polyline clip-path="url(#clip5803)" style="stroke:#c271d2; stroke-width:4; stroke-opacity:1; fill:none" points="
  768.758,943.447 919.67,943.447 
  "/>
<line clip-path="url(#clip5803)" x1="768.758" y1="923.447" x2="768.758" y2="963.447" style="stroke:#000000; stroke-width:4; stroke-opacity:1"/>
<line clip-path="url(#clip5803)" x1="919.67" y1="923.447" x2="919.67" y2="963.447" style="stroke:#000000; stroke-width:4; stroke-opacity:1"/>
<polyline clip-path="url(#clip5803)" style="stroke:#c271d2; stroke-width:4; stroke-opacity:1; fill:none" points="
  844.214,1208.91 844.214,677.981 
  "/>
<line clip-path="url(#clip5803)" x1="864.214" y1="1208.91" x2="824.214" y2="1208.91" style="stroke:#000000; stroke-width:4; stroke-opacity:1"/>
<line clip-path="url(#clip5803)" x1="864.214" y1="677.981" x2="824.214" y2="677.981" style="stroke:#000000; stroke-width:4; stroke-opacity:1"/>
<polyline clip-path="url(#clip5803)" style="stroke:#ac8d18; stroke-width:4; stroke-opacity:1; fill:none" points="
  825.871,848.41 1120.07,848.41 
  "/>
<line clip-path="url(#clip5803)" x1="825.871" y1="828.41" x2="825.871" y2="868.41" style="stroke:#000000; stroke-width:4; stroke-opacity:1"/>
<line clip-path="url(#clip5803)" x1="1120.07" y1="828.41" x2="1120.07" y2="868.41" style="stroke:#000000; stroke-width:4; stroke-opacity:1"/>
<polyline clip-path="url(#clip5803)" style="stroke:#ac8d18; stroke-width:4; stroke-opacity:1; fill:none" points="
  972.972,971.918 972.972,724.902 
  "/>
<line clip-path="url(#clip5803)" x1="992.972" y1="971.918" x2="952.972" y2="971.918" style="stroke:#000000; stroke-width:4; stroke-opacity:1"/>
<line clip-path="url(#clip5803)" x1="992.972" y1="724.902" x2="952.972" y2="724.902" style="stroke:#000000; stroke-width:4; stroke-opacity:1"/>
<polyline clip-path="url(#clip5803)" style="stroke:#00a9ad; stroke-width:4; stroke-opacity:1; fill:none" points="
  895.98,745.375 1307.48,745.375 
  "/>
<line clip-path="url(#clip5803)" x1="895.98" y1="725.375" x2="895.98" y2="765.375" style="stroke:#000000; stroke-width:4; stroke-opacity:1"/>
<line clip-path="url(#clip5803)" x1="1307.48" y1="725.375" x2="1307.48" y2="765.375" style="stroke:#000000; stroke-width:4; stroke-opacity:1"/>
<polyline clip-path="url(#clip5803)" style="stroke:#00a9ad; stroke-width:4; stroke-opacity:1; fill:none" points="
  1101.73,930.943 1101.73,559.807 
  "/>
<line clip-path="url(#clip5803)" x1="1121.73" y1="930.943" x2="1081.73" y2="930.943" style="stroke:#000000; stroke-width:4; stroke-opacity:1"/>
<line clip-path="url(#clip5803)" x1="1121.73" y1="559.807" x2="1081.73" y2="559.807" style="stroke:#000000; stroke-width:4; stroke-opacity:1"/>
<polyline clip-path="url(#clip5803)" style="stroke:#ed5d92; stroke-width:4; stroke-opacity:1; fill:none" points="
  1141.64,640.786 1319.34,640.786 
  "/>
<line clip-path="url(#clip5803)" x1="1141.64" y1="620.786" x2="1141.64" y2="660.786" style="stroke:#000000; stroke-width:4; stroke-opacity:1"/>
<line clip-path="url(#clip5803)" x1="1319.34" y1="620.786" x2="1319.34" y2="660.786" style="stroke:#000000; stroke-width:4; stroke-opacity:1"/>
<polyline clip-path="url(#clip5803)" style="stroke:#ed5d92; stroke-width:4; stroke-opacity:1; fill:none" points="
  1230.49,884.6 1230.49,396.973 
  "/>
<line clip-path="url(#clip5803)" x1="1250.49" y1="884.6" x2="1210.49" y2="884.6" style="stroke:#000000; stroke-width:4; stroke-opacity:1"/>
<line clip-path="url(#clip5803)" x1="1250.49" y1="396.973" x2="1210.49" y2="396.973" style="stroke:#000000; stroke-width:4; stroke-opacity:1"/>
<polyline clip-path="url(#clip5803)" style="stroke:#c68125; stroke-width:4; stroke-opacity:1; fill:none" points="
  1358.37,689.271 1360.12,689.271 
  "/>
<line clip-path="url(#clip5803)" x1="1358.37" y1="669.271" x2="1358.37" y2="709.271" style="stroke:#000000; stroke-width:4; stroke-opacity:1"/>
<line clip-path="url(#clip5803)" x1="1360.12" y1="669.271" x2="1360.12" y2="709.271" style="stroke:#000000; stroke-width:4; stroke-opacity:1"/>
<polyline clip-path="url(#clip5803)" style="stroke:#c68125; stroke-width:4; stroke-opacity:1; fill:none" points="
  1359.25,1212.18 1359.25,166.366 
  "/>
<line clip-path="url(#clip5803)" x1="1379.25" y1="1212.18" x2="1339.25" y2="1212.18" style="stroke:#000000; stroke-width:4; stroke-opacity:1"/>
<line clip-path="url(#clip5803)" x1="1379.25" y1="166.366" x2="1339.25" y2="166.366" style="stroke:#000000; stroke-width:4; stroke-opacity:1"/>
<polyline clip-path="url(#clip5803)" style="stroke:#00a98d; stroke-width:4; stroke-opacity:1; fill:none" points="
  1453.43,777.861 1522.58,777.861 
  "/>
<line clip-path="url(#clip5803)" x1="1453.43" y1="757.861" x2="1453.43" y2="797.861" style="stroke:#000000; stroke-width:4; stroke-opacity:1"/>
<line clip-path="url(#clip5803)" x1="1522.58" y1="757.861" x2="1522.58" y2="797.861" style="stroke:#000000; stroke-width:4; stroke-opacity:1"/>
<polyline clip-path="url(#clip5803)" style="stroke:#00a98d; stroke-width:4; stroke-opacity:1; fill:none" points="
  1488.01,1317.96 1488.01,237.763 
  "/>
<line clip-path="url(#clip5803)" x1="1508.01" y1="1317.96" x2="1468.01" y2="1317.96" style="stroke:#000000; stroke-width:4; stroke-opacity:1"/>
<line clip-path="url(#clip5803)" x1="1508.01" y1="237.763" x2="1468.01" y2="237.763" style="stroke:#000000; stroke-width:4; stroke-opacity:1"/>
<polyline clip-path="url(#clip5803)" style="stroke:#8e971d; stroke-width:4; stroke-opacity:1; fill:none" points="
  1450.96,636.728 1782.57,636.728 
  "/>
<line clip-path="url(#clip5803)" x1="1450.96" y1="616.728" x2="1450.96" y2="656.728" style="stroke:#000000; stroke-width:4; stroke-opacity:1"/>
<line clip-path="url(#clip5803)" x1="1782.57" y1="616.728" x2="1782.57" y2="656.728" style="stroke:#000000; stroke-width:4; stroke-opacity:1"/>
<polyline clip-path="url(#clip5803)" style="stroke:#8e971d; stroke-width:4; stroke-opacity:1; fill:none" points="
  1616.76,1186.78 1616.76,86.6754 
  "/>
<line clip-path="url(#clip5803)" x1="1636.76" y1="1186.78" x2="1596.76" y2="1186.78" style="stroke:#000000; stroke-width:4; stroke-opacity:1"/>
<line clip-path="url(#clip5803)" x1="1636.76" y1="86.6754" x2="1596.76" y2="86.6754" style="stroke:#000000; stroke-width:4; stroke-opacity:1"/>
<polyline clip-path="url(#clip5803)" style="stroke:#00a8cb; stroke-width:4; stroke-opacity:1; fill:none" points="
  1615.9,825.148 1875.15,825.148 
  "/>
<line clip-path="url(#clip5803)" x1="1615.9" y1="805.148" x2="1615.9" y2="845.148" style="stroke:#000000; stroke-width:4; stroke-opacity:1"/>
<line clip-path="url(#clip5803)" x1="1875.15" y1="805.148" x2="1875.15" y2="845.148" style="stroke:#000000; stroke-width:4; stroke-opacity:1"/>
<polyline clip-path="url(#clip5803)" style="stroke:#00a8cb; stroke-width:4; stroke-opacity:1; fill:none" points="
  1745.52,1010.77 1745.52,645.244 
  "/>
<line clip-path="url(#clip5803)" x1="1765.52" y1="1010.77" x2="1725.52" y2="1010.77" style="stroke:#000000; stroke-width:4; stroke-opacity:1"/>
<line clip-path="url(#clip5803)" x1="1765.52" y1="645.244" x2="1725.52" y2="645.244" style="stroke:#000000; stroke-width:4; stroke-opacity:1"/>
<polyline clip-path="url(#clip5803)" style="stroke:#9b7fe8; stroke-width:4; stroke-opacity:1; fill:none" points="
  1810.93,827.52 1937.63,827.52 
  "/>
<line clip-path="url(#clip5803)" x1="1810.93" y1="807.52" x2="1810.93" y2="847.52" style="stroke:#000000; stroke-width:4; stroke-opacity:1"/>
<line clip-path="url(#clip5803)" x1="1937.63" y1="807.52" x2="1937.63" y2="847.52" style="stroke:#000000; stroke-width:4; stroke-opacity:1"/>
<polyline clip-path="url(#clip5803)" style="stroke:#9b7fe8; stroke-width:4; stroke-opacity:1; fill:none" points="
  1874.28,1008.92 1874.28,646.119 
  "/>
<line clip-path="url(#clip5803)" x1="1894.28" y1="1008.92" x2="1854.28" y2="1008.92" style="stroke:#000000; stroke-width:4; stroke-opacity:1"/>
<line clip-path="url(#clip5803)" x1="1894.28" y1="646.119" x2="1854.28" y2="646.119" style="stroke:#000000; stroke-width:4; stroke-opacity:1"/>
<polyline clip-path="url(#clip5803)" style="stroke:#608cf6; stroke-width:4; stroke-opacity:1; fill:none" points="
  1982.86,1069.46 2023.22,1069.46 
  "/>
<line clip-path="url(#clip5803)" x1="1982.86" y1="1049.46" x2="1982.86" y2="1089.46" style="stroke:#000000; stroke-width:4; stroke-opacity:1"/>
<line clip-path="url(#clip5803)" x1="2023.22" y1="1049.46" x2="2023.22" y2="1089.46" style="stroke:#000000; stroke-width:4; stroke-opacity:1"/>
<polyline clip-path="url(#clip5803)" style="stroke:#608cf6; stroke-width:4; stroke-opacity:1; fill:none" points="
  2003.04,1401.05 2003.04,737.863 
  "/>
<line clip-path="url(#clip5803)" x1="2023.04" y1="1401.05" x2="1983.04" y2="1401.05" style="stroke:#000000; stroke-width:4; stroke-opacity:1"/>
<line clip-path="url(#clip5803)" x1="2023.04" y1="737.863" x2="1983.04" y2="737.863" style="stroke:#000000; stroke-width:4; stroke-opacity:1"/>
<polyline clip-path="url(#clip5803)" style="stroke:#f05f73; stroke-width:4; stroke-opacity:1; fill:none" points="
  2002.02,982.343 2261.57,982.343 
  "/>
<line clip-path="url(#clip5803)" x1="2002.02" y1="962.343" x2="2002.02" y2="1002.34" style="stroke:#000000; stroke-width:4; stroke-opacity:1"/>
<line clip-path="url(#clip5803)" x1="2261.57" y1="962.343" x2="2261.57" y2="1002.34" style="stroke:#000000; stroke-width:4; stroke-opacity:1"/>
<polyline clip-path="url(#clip5803)" style="stroke:#f05f73; stroke-width:4; stroke-opacity:1; fill:none" points="
  2131.8,1029 2131.8,493.069 
  "/>
<line clip-path="url(#clip5803)" x1="2151.8" y1="1029" x2="2111.8" y2="1029" style="stroke:#000000; stroke-width:4; stroke-opacity:1"/>
<line clip-path="url(#clip5803)" x1="2151.8" y1="493.069" x2="2111.8" y2="493.069" style="stroke:#000000; stroke-width:4; stroke-opacity:1"/>
</svg>
