<?xml version="1.0" encoding="utf-8"?>
<svg xmlns="http://www.w3.org/2000/svg" xmlns:xlink="http://www.w3.org/1999/xlink" width="600" height="400" viewBox="0 0 2400 1600">
<defs>
  <clipPath id="clip4600">
    <rect x="0" y="0" width="2000" height="2000"/>
  </clipPath>
</defs>
<defs>
  <clipPath id="clip4601">
    <rect x="0" y="0" width="2400" height="1600"/>
  </clipPath>
</defs>
<polygon clip-path="url(#clip4601)" points="
0,1600 2400,1600 2400,0 0,0 
  " fill="#ffffff" fill-rule="evenodd" fill-opacity="1"/>
<defs>
  <clipPath id="clip4602">
    <rect x="480" y="0" width="1681" height="1600"/>
  </clipPath>
</defs>
<polygon clip-path="url(#clip4601)" points="
252.496,1440.48 2321.26,1440.48 2321.26,47.2441 252.496,47.2441 
  " fill="#ffffff" fill-rule="evenodd" fill-opacity="1"/>
<defs>
  <clipPath id="clip4603">
    <rect x="252" y="47" width="2070" height="1394"/>
  </clipPath>
</defs>
<polyline clip-path="url(#clip4603)" style="stroke:#000000; stroke-width:2; stroke-opacity:0.1; fill:none" points="
  580.612,1440.48 580.612,47.2441 
  "/>
<polyline clip-path="url(#clip4603)" style="stroke:#000000; stroke-width:2; stroke-opacity:0.1; fill:none" points="
  937.91,1440.48 937.91,47.2441 
  "/>
<polyline clip-path="url(#clip4603)" style="stroke:#000000; stroke-width:2; stroke-opacity:0.1; fill:none" points="
  1295.21,1440.48 1295.21,47.2441 
  "/>
<polyline clip-path="url(#clip4603)" style="stroke:#000000; stroke-width:2; stroke-opacity:0.1; fill:none" points="
  1652.51,1440.48 1652.51,47.2441 
  "/>
<polyline clip-path="url(#clip4603)" style="stroke:#000000; stroke-width:2; stroke-opacity:0.1; fill:none" points="
  2009.8,1440.48 2009.8,47.2441 
  "/>
<polyline clip-path="url(#clip4603)" style="stroke:#000000; stroke-width:2; stroke-opacity:0.1; fill:none" points="
  252.496,1305.96 2321.26,1305.96 
  "/>
<polyline clip-path="url(#clip4603)" style="stroke:#000000; stroke-width:2; stroke-opacity:0.1; fill:none" points="
  252.496,1147.42 2321.26,1147.42 
  "/>
<polyline clip-path="url(#clip4603)" style="stroke:#000000; stroke-width:2; stroke-opacity:0.1; fill:none" points="
  252.496,988.878 2321.26,988.878 
  "/>
<polyline clip-path="url(#clip4603)" style="stroke:#000000; stroke-width:2; stroke-opacity:0.1; fill:none" points="
  252.496,830.337 2321.26,830.337 
  "/>
<polyline clip-path="url(#clip4603)" style="stroke:#000000; stroke-width:2; stroke-opacity:0.1; fill:none" points="
  252.496,671.796 2321.26,671.796 
  "/>
<polyline clip-path="url(#clip4603)" style="stroke:#000000; stroke-width:2; stroke-opacity:0.1; fill:none" points="
  252.496,513.254 2321.26,513.254 
  "/>
<polyline clip-path="url(#clip4603)" style="stroke:#000000; stroke-width:2; stroke-opacity:0.1; fill:none" points="
  252.496,354.713 2321.26,354.713 
  "/>
<polyline clip-path="url(#clip4603)" style="stroke:#000000; stroke-width:2; stroke-opacity:0.1; fill:none" points="
  252.496,196.172 2321.26,196.172 
  "/>
<polyline clip-path="url(#clip4601)" style="stroke:#000000; stroke-width:4; stroke-opacity:1; fill:none" points="
  252.496,1440.48 2321.26,1440.48 
  "/>
<polyline clip-path="url(#clip4601)" style="stroke:#000000; stroke-width:4; stroke-opacity:1; fill:none" points="
  252.496,1440.48 252.496,47.2441 
  "/>
<polyline clip-path="url(#clip4601)" style="stroke:#000000; stroke-width:4; stroke-opacity:1; fill:none" points="
  580.612,1440.48 580.612,1419.58 
  "/>
<polyline clip-path="url(#clip4601)" style="stroke:#000000; stroke-width:4; stroke-opacity:1; fill:none" points="
  937.91,1440.48 937.91,1419.58 
  "/>
<polyline clip-path="url(#clip4601)" style="stroke:#000000; stroke-width:4; stroke-opacity:1; fill:none" points="
  1295.21,1440.48 1295.21,1419.58 
  "/>
<polyline clip-path="url(#clip4601)" style="stroke:#000000; stroke-width:4; stroke-opacity:1; fill:none" points="
  1652.51,1440.48 1652.51,1419.58 
  "/>
<polyline clip-path="url(#clip4601)" style="stroke:#000000; stroke-width:4; stroke-opacity:1; fill:none" points="
  2009.8,1440.48 2009.8,1419.58 
  "/>
<polyline clip-path="url(#clip4601)" style="stroke:#000000; stroke-width:4; stroke-opacity:1; fill:none" points="
  252.496,1305.96 283.528,1305.96 
  "/>
<polyline clip-path="url(#clip4601)" style="stroke:#000000; stroke-width:4; stroke-opacity:1; fill:none" points="
  252.496,1147.42 283.528,1147.42 
  "/>
<polyline clip-path="url(#clip4601)" style="stroke:#000000; stroke-width:4; stroke-opacity:1; fill:none" points="
  252.496,988.878 283.528,988.878 
  "/>
<polyline clip-path="url(#clip4601)" style="stroke:#000000; stroke-width:4; stroke-opacity:1; fill:none" points="
  252.496,830.337 283.528,830.337 
  "/>
<polyline clip-path="url(#clip4601)" style="stroke:#000000; stroke-width:4; stroke-opacity:1; fill:none" points="
  252.496,671.796 283.528,671.796 
  "/>
<polyline clip-path="url(#clip4601)" style="stroke:#000000; stroke-width:4; stroke-opacity:1; fill:none" points="
  252.496,513.254 283.528,513.254 
  "/>
<polyline clip-path="url(#clip4601)" style="stroke:#000000; stroke-width:4; stroke-opacity:1; fill:none" points="
  252.496,354.713 283.528,354.713 
  "/>
<polyline clip-path="url(#clip4601)" style="stroke:#000000; stroke-width:4; stroke-opacity:1; fill:none" points="
  252.496,196.172 283.528,196.172 
  "/>
<g clip-path="url(#clip4601)">
<text style="fill:#000000; fill-opacity:1; font-family:Arial,Helvetica Neue,Helvetica,sans-serif; font-size:48px; text-anchor:middle;" transform="rotate(0, 580.612, 1494.48)" x="580.612" y="1494.48">2.5</text>
</g>
<g clip-path="url(#clip4601)">
<text style="fill:#000000; fill-opacity:1; font-family:Arial,Helvetica Neue,Helvetica,sans-serif; font-size:48px; text-anchor:middle;" transform="rotate(0, 937.91, 1494.48)" x="937.91" y="1494.48">5.0</text>
</g>
<g clip-path="url(#clip4601)">
<text style="fill:#000000; fill-opacity:1; font-family:Arial,Helvetica Neue,Helvetica,sans-serif; font-size:48px; text-anchor:middle;" transform="rotate(0, 1295.21, 1494.48)" x="1295.21" y="1494.48">7.5</text>
</g>
<g clip-path="url(#clip4601)">
<text style="fill:#000000; fill-opacity:1; font-family:Arial,Helvetica Neue,Helvetica,sans-serif; font-size:48px; text-anchor:middle;" transform="rotate(0, 1652.51, 1494.48)" x="1652.51" y="1494.48">10.0</text>
</g>
<g clip-path="url(#clip4601)">
<text style="fill:#000000; fill-opacity:1; font-family:Arial,Helvetica Neue,Helvetica,sans-serif; font-size:48px; text-anchor:middle;" transform="rotate(0, 2009.8, 1494.48)" x="2009.8" y="1494.48">12.5</text>
</g>
<g clip-path="url(#clip4601)">
<text style="fill:#000000; fill-opacity:1; font-family:Arial,Helvetica Neue,Helvetica,sans-serif; font-size:48px; text-anchor:end;" transform="rotate(0, 228.496, 1323.46)" x="228.496" y="1323.46">-0.2</text>
</g>
<g clip-path="url(#clip4601)">
<text style="fill:#000000; fill-opacity:1; font-family:Arial,Helvetica Neue,Helvetica,sans-serif; font-size:48px; text-anchor:end;" transform="rotate(0, 228.496, 1164.92)" x="228.496" y="1164.92">0.0</text>
</g>
<g clip-path="url(#clip4601)">
<text style="fill:#000000; fill-opacity:1; font-family:Arial,Helvetica Neue,Helvetica,sans-serif; font-size:48px; text-anchor:end;" transform="rotate(0, 228.496, 1006.38)" x="228.496" y="1006.38">0.2</text>
</g>
<g clip-path="url(#clip4601)">
<text style="fill:#000000; fill-opacity:1; font-family:Arial,Helvetica Neue,Helvetica,sans-serif; font-size:48px; text-anchor:end;" transform="rotate(0, 228.496, 847.837)" x="228.496" y="847.837">0.4</text>
</g>
<g clip-path="url(#clip4601)">
<text style="fill:#000000; fill-opacity:1; font-family:Arial,Helvetica Neue,Helvetica,sans-serif; font-size:48px; text-anchor:end;" transform="rotate(0, 228.496, 689.296)" x="228.496" y="689.296">0.6</text>
</g>
<g clip-path="url(#clip4601)">
<text style="fill:#000000; fill-opacity:1; font-family:Arial,Helvetica Neue,Helvetica,sans-serif; font-size:48px; text-anchor:end;" transform="rotate(0, 228.496, 530.754)" x="228.496" y="530.754">0.8</text>
</g>
<g clip-path="url(#clip4601)">
<text style="fill:#000000; fill-opacity:1; font-family:Arial,Helvetica Neue,Helvetica,sans-serif; font-size:48px; text-anchor:end;" transform="rotate(0, 228.496, 372.213)" x="228.496" y="372.213">1.0</text>
</g>
<g clip-path="url(#clip4601)">
<text style="fill:#000000; fill-opacity:1; font-family:Arial,Helvetica Neue,Helvetica,sans-serif; font-size:48px; text-anchor:end;" transform="rotate(0, 228.496, 213.672)" x="228.496" y="213.672">1.2</text>
</g>
<g clip-path="url(#clip4601)">
<text style="fill:#000000; fill-opacity:1; font-family:Arial,Helvetica Neue,Helvetica,sans-serif; font-size:66px; text-anchor:middle;" transform="rotate(0, 1286.88, 1590.4)" x="1286.88" y="1590.4">Index</text>
</g>
<g clip-path="url(#clip4601)">
<text style="fill:#000000; fill-opacity:1; font-family:Arial,Helvetica Neue,Helvetica,sans-serif; font-size:66px; text-anchor:middle;" transform="rotate(-90, 57.6, 743.863)" x="57.6" y="743.863">Value</text>
</g>
<polyline clip-path="url(#clip4603)" style="stroke:#009af9; stroke-width:4; stroke-opacity:1; fill:none" points="
  311.046,732.56 421.42,732.56 
  "/>
<line clip-path="url(#clip4603)" x1="311.046" y1="712.56" x2="311.046" y2="752.56" style="stroke:#000000; stroke-width:4; stroke-opacity:1"/>
<line clip-path="url(#clip4603)" x1="421.42" y1="712.56" x2="421.42" y2="752.56" style="stroke:#000000; stroke-width:4; stroke-opacity:1"/>
<polyline clip-path="url(#clip4603)" style="stroke:#009af9; stroke-width:4; stroke-opacity:1; fill:none" points="
  366.233,1020.21 366.233,444.91 
  "/>
<line clip-path="url(#clip4603)" x1="386.233" y1="1020.21" x2="346.233" y2="1020.21" style="stroke:#000000; stroke-width:4; stroke-opacity:1"/>
<line clip-path="url(#clip4603)" x1="386.233" y1="444.91" x2="346.233" y2="444.91" style="stroke:#000000; stroke-width:4; stroke-opacity:1"/>
<polyline clip-path="url(#clip4603)" style="stroke:#e26f46; stroke-width:4; stroke-opacity:1; fill:none" points="
  450.921,485.343 567.384,485.343 
  "/>
<line clip-path="url(#clip4603)" x1="450.921" y1="465.343" x2="450.921" y2="505.343" style="stroke:#000000; stroke-width:4; stroke-opacity:1"/>
<line clip-path="url(#clip4603)" x1="567.384" y1="465.343" x2="567.384" y2="505.343" style="stroke:#000000; stroke-width:4; stroke-opacity:1"/>
<polyline clip-path="url(#clip4603)" style="stroke:#e26f46; stroke-width:4; stroke-opacity:1; fill:none" points="
  509.152,623.529 509.152,347.158 
  "/>
<line clip-path="url(#clip4603)" x1="529.152" y1="623.529" x2="489.152" y2="623.529" style="stroke:#000000; stroke-width:4; stroke-opacity:1"/>
<line clip-path="url(#clip4603)" x1="529.152" y1="347.158" x2="489.152" y2="347.158" style="stroke:#000000; stroke-width:4; stroke-opacity:1"/>
<polyline clip-path="url(#clip4603)" style="stroke:#3da44d; stroke-width:4; stroke-opacity:1; fill:none" points="
  629.663,927.116 674.48,927.116 
  "/>
<line clip-path="url(#clip4603)" x1="629.663" y1="907.116" x2="629.663" y2="947.116" style="stroke:#000000; stroke-width:4; stroke-opacity:1"/>
<line clip-path="url(#clip4603)" x1="674.48" y1="907.116" x2="674.48" y2="947.116" style="stroke:#000000; stroke-width:4; stroke-opacity:1"/>
<polyline clip-path="url(#clip4603)" style="stroke:#3da44d; stroke-width:4; stroke-opacity:1; fill:none" points="
  652.072,1017.97 652.072,836.265 
  "/>
<line clip-path="url(#clip4603)" x1="672.072" y1="1017.97" x2="632.072" y2="1017.97" style="stroke:#000000; stroke-width:4; stroke-opacity:1"/>
<line clip-path="url(#clip4603)" x1="672.072" y1="836.265" x2="632.072" y2="836.265" style="stroke:#000000; stroke-width:4; stroke-opacity:1"/>
<polyline clip-path="url(#clip4603)" style="stroke:#c271d2; stroke-width:4; stroke-opacity:1; fill:none" points="
  772.591,978.943 817.391,978.943 
  "/>
<line clip-path="url(#clip4603)" x1="772.591" y1="958.943" x2="772.591" y2="998.943" style="stroke:#000000; stroke-width:4; stroke-opacity:1"/>
<line clip-path="url(#clip4603)" x1="817.391" y1="958.943" x2="817.391" y2="998.943" style="stroke:#000000; stroke-width:4; stroke-opacity:1"/>
<polyline clip-path="url(#clip4603)" style="stroke:#c271d2; stroke-width:4; stroke-opacity:1; fill:none" points="
  794.991,1118.53 794.991,839.354 
  "/>
<line clip-path="url(#clip4603)" x1="814.991" y1="1118.53" x2="774.991" y2="1118.53" style="stroke:#000000; stroke-width:4; stroke-opacity:1"/>
<line clip-path="url(#clip4603)" x1="814.991" y1="839.354" x2="774.991" y2="839.354" style="stroke:#000000; stroke-width:4; stroke-opacity:1"/>
<polyline clip-path="url(#clip4603)" style="stroke:#ac8d18; stroke-width:4; stroke-opacity:1; fill:none" points="
  894.241,792.092 981.579,792.092 
  "/>
<line clip-path="url(#clip4603)" x1="894.241" y1="772.092" x2="894.241" y2="812.092" style="stroke:#000000; stroke-width:4; stroke-opacity:1"/>
<line clip-path="url(#clip4603)" x1="981.579" y1="772.092" x2="981.579" y2="812.092" style="stroke:#000000; stroke-width:4; stroke-opacity:1"/>
<polyline clip-path="url(#clip4603)" style="stroke:#ac8d18; stroke-width:4; stroke-opacity:1; fill:none" points="
  937.91,857.036 937.91,727.148 
  "/>
<line clip-path="url(#clip4603)" x1="957.91" y1="857.036" x2="917.91" y2="857.036" style="stroke:#000000; stroke-width:4; stroke-opacity:1"/>
<line clip-path="url(#clip4603)" x1="957.91" y1="727.148" x2="917.91" y2="727.148" style="stroke:#000000; stroke-width:4; stroke-opacity:1"/>
<polyline clip-path="url(#clip4603)" style="stroke:#00a9ad; stroke-width:4; stroke-opacity:1; fill:none" points="
  1019.75,589.516 1141.91,589.516 
  "/>
<line clip-path="url(#clip4603)" x1="1019.75" y1="569.516" x2="1019.75" y2="609.516" style="stroke:#000000; stroke-width:4; stroke-opacity:1"/>
<line clip-path="url(#clip4603)" x1="1141.91" y1="569.516" x2="1141.91" y2="609.516" style="stroke:#000000; stroke-width:4; stroke-opacity:1"/>
<polyline clip-path="url(#clip4603)" style="stroke:#00a9ad; stroke-width:4; stroke-opacity:1; fill:none" points="
  1080.83,687.093 1080.83,491.939 
  "/>
<line clip-path="url(#clip4603)" x1="1100.83" y1="687.093" x2="1060.83" y2="687.093" style="stroke:#000000; stroke-width:4; stroke-opacity:1"/>
<line clip-path="url(#clip4603)" x1="1100.83" y1="491.939" x2="1060.83" y2="491.939" style="stroke:#000000; stroke-width:4; stroke-opacity:1"/>
<polyline clip-path="url(#clip4603)" style="stroke:#ed5d92; stroke-width:4; stroke-opacity:1; fill:none" points="
  1197.37,383.886 1250.12,383.886 
  "/>
<line clip-path="url(#clip4603)" x1="1197.37" y1="363.886" x2="1197.37" y2="403.886" style="stroke:#000000; stroke-width:4; stroke-opacity:1"/>
<line clip-path="url(#clip4603)" x1="1250.12" y1="363.886" x2="1250.12" y2="403.886" style="stroke:#000000; stroke-width:4; stroke-opacity:1"/>
<polyline clip-path="url(#clip4603)" style="stroke:#ed5d92; stroke-width:4; stroke-opacity:1; fill:none" points="
  1223.75,512.09 1223.75,255.683 
  "/>
<line clip-path="url(#clip4603)" x1="1243.75" y1="512.09" x2="1203.75" y2="512.09" style="stroke:#000000; stroke-width:4; stroke-opacity:1"/>
<line clip-path="url(#clip4603)" x1="1243.75" y1="255.683" x2="1203.75" y2="255.683" style="stroke:#000000; stroke-width:4; stroke-opacity:1"/>
<polyline clip-path="url(#clip4603)" style="stroke:#c68125; stroke-width:4; stroke-opacity:1; fill:none" points="
  1366.41,479.212 1366.93,479.212 
  "/>
<line clip-path="url(#clip4603)" x1="1366.41" y1="459.212" x2="1366.41" y2="499.212" style="stroke:#000000; stroke-width:4; stroke-opacity:1"/>
<line clip-path="url(#clip4603)" x1="1366.93" y1="459.212" x2="1366.93" y2="499.212" style="stroke:#000000; stroke-width:4; stroke-opacity:1"/>
<polyline clip-path="url(#clip4603)" style="stroke:#c68125; stroke-width:4; stroke-opacity:1; fill:none" points="
  1366.67,754.17 1366.67,204.255 
  "/>
<line clip-path="url(#clip4603)" x1="1386.67" y1="754.17" x2="1346.67" y2="754.17" style="stroke:#000000; stroke-width:4; stroke-opacity:1"/>
<line clip-path="url(#clip4603)" x1="1386.67" y1="204.255" x2="1346.67" y2="204.255" style="stroke:#000000; stroke-width:4; stroke-opacity:1"/>
<polyline clip-path="url(#clip4603)" style="stroke:#00a98d; stroke-width:4; stroke-opacity:1; fill:none" points="
  1499.32,653.388 1519.85,653.388 
  "/>
<line clip-path="url(#clip4603)" x1="1499.32" y1="633.388" x2="1499.32" y2="673.388" style="stroke:#000000; stroke-width:4; stroke-opacity:1"/>
<line clip-path="url(#clip4603)" x1="1519.85" y1="633.388" x2="1519.85" y2="673.388" style="stroke:#000000; stroke-width:4; stroke-opacity:1"/>
<polyline clip-path="url(#clip4603)" style="stroke:#00a98d; stroke-width:4; stroke-opacity:1; fill:none" points="
  1509.59,937.386 1509.59,369.39 
  "/>
<line clip-path="url(#clip4603)" x1="1529.59" y1="937.386" x2="1489.59" y2="937.386" style="stroke:#000000; stroke-width:4; stroke-opacity:1"/>
<line clip-path="url(#clip4603)" x1="1529.59" y1="369.39" x2="1489.59" y2="369.39" style="stroke:#000000; stroke-width:4; stroke-opacity:1"/>
<polyline clip-path="url(#clip4603)" style="stroke:#8e971d; stroke-width:4; stroke-opacity:1; fill:none" points="
  1603.29,375.908 1701.73,375.908 
  "/>
<line clip-path="url(#clip4603)" x1="1603.29" y1="355.908" x2="1603.29" y2="395.908" style="stroke:#000000; stroke-width:4; stroke-opacity:1"/>
<line clip-path="url(#clip4603)" x1="1701.73" y1="355.908" x2="1701.73" y2="395.908" style="stroke:#000000; stroke-width:4; stroke-opacity:1"/>
<polyline clip-path="url(#clip4603)" style="stroke:#8e971d; stroke-width:4; stroke-opacity:1; fill:none" points="
  1652.51,665.14 1652.51,86.6754 
  "/>
<line clip-path="url(#clip4603)" x1="1672.51" y1="665.14" x2="1632.51" y2="665.14" style="stroke:#000000; stroke-width:4; stroke-opacity:1"/>
<line clip-path="url(#clip4603)" x1="1672.51" y1="86.6754" x2="1632.51" y2="86.6754" style="stroke:#000000; stroke-width:4; stroke-opacity:1"/>
<polyline clip-path="url(#clip4603)" style="stroke:#00a8cb; stroke-width:4; stroke-opacity:1; fill:none" points="
  1756.94,744.13 1833.91,744.13 
  "/>
<line clip-path="url(#clip4603)" x1="1756.94" y1="724.13" x2="1756.94" y2="764.13" style="stroke:#000000; stroke-width:4; stroke-opacity:1"/>
<line clip-path="url(#clip4603)" x1="1833.91" y1="724.13" x2="1833.91" y2="764.13" style="stroke:#000000; stroke-width:4; stroke-opacity:1"/>
<polyline clip-path="url(#clip4603)" style="stroke:#00a8cb; stroke-width:4; stroke-opacity:1; fill:none" points="
  1795.43,883.726 1795.43,605.047 
  "/>
<line clip-path="url(#clip4603)" x1="1815.43" y1="883.726" x2="1775.43" y2="883.726" style="stroke:#000000; stroke-width:4; stroke-opacity:1"/>
<line clip-path="url(#clip4603)" x1="1815.43" y1="605.047" x2="1775.43" y2="605.047" style="stroke:#000000; stroke-width:4; stroke-opacity:1"/>
<polyline clip-path="url(#clip4603)" style="stroke:#9b7fe8; stroke-width:4; stroke-opacity:1; fill:none" points="
  1919.54,751.02 1957.15,751.02 
  "/>
<line clip-path="url(#clip4603)" x1="1919.54" y1="731.02" x2="1919.54" y2="771.02" style="stroke:#000000; stroke-width:4; stroke-opacity:1"/>
<line clip-path="url(#clip4603)" x1="1957.15" y1="731.02" x2="1957.15" y2="771.02" style="stroke:#000000; stroke-width:4; stroke-opacity:1"/>
<polyline clip-path="url(#clip4603)" style="stroke:#9b7fe8; stroke-width:4; stroke-opacity:1; fill:none" points="
  1938.35,885.755 1938.35,616.286 
  "/>
<line clip-path="url(#clip4603)" x1="1958.35" y1="885.755" x2="1918.35" y2="885.755" style="stroke:#000000; stroke-width:4; stroke-opacity:1"/>
<line clip-path="url(#clip4603)" x1="1958.35" y1="616.286" x2="1918.35" y2="616.286" style="stroke:#000000; stroke-width:4; stroke-opacity:1"/>
<polyline clip-path="url(#clip4603)" style="stroke:#608cf6; stroke-width:4; stroke-opacity:1; fill:none" points="
  2075.27,1226.69 2087.25,1226.69 
  "/>
<line clip-path="url(#clip4603)" x1="2075.27" y1="1206.69" x2="2075.27" y2="1246.69" style="stroke:#000000; stroke-width:4; stroke-opacity:1"/>
<line clip-path="url(#clip4603)" x1="2087.25" y1="1206.69" x2="2087.25" y2="1246.69" style="stroke:#000000; stroke-width:4; stroke-opacity:1"/>
<polyline clip-path="url(#clip4603)" style="stroke:#608cf6; stroke-width:4; stroke-opacity:1; fill:none" points="
  2081.26,1401.05 2081.26,1052.33 
  "/>
<line clip-path="url(#clip4603)" x1="2101.26" y1="1401.05" x2="2061.26" y2="1401.05" style="stroke:#000000; stroke-width:4; stroke-opacity:1"/>
<line clip-path="url(#clip4603)" x1="2101.26" y1="1052.33" x2="2061.26" y2="1052.33" style="stroke:#000000; stroke-width:4; stroke-opacity:1"/>
<polyline clip-path="url(#clip4603)" style="stroke:#f05f73; stroke-width:4; stroke-opacity:1; fill:none" points="
  2185.66,1055.42 2262.71,1055.42 
  "/>
<line clip-path="url(#clip4603)" x1="2185.66" y1="1035.42" x2="2185.66" y2="1075.42" style="stroke:#000000; stroke-width:4; stroke-opacity:1"/>
<line clip-path="url(#clip4603)" x1="2262.71" y1="1035.42" x2="2262.71" y2="1075.42" style="stroke:#000000; stroke-width:4; stroke-opacity:1"/>
<polyline clip-path="url(#clip4603)" style="stroke:#f05f73; stroke-width:4; stroke-opacity:1; fill:none" points="
  2224.18,1116.98 2224.18,929.157 
  "/>
<line clip-path="url(#clip4603)" x1="2244.18" y1="1116.98" x2="2204.18" y2="1116.98" style="stroke:#000000; stroke-width:4; stroke-opacity:1"/>
<line clip-path="url(#clip4603)" x1="2244.18" y1="929.157" x2="2204.18" y2="929.157" style="stroke:#000000; stroke-width:4; stroke-opacity:1"/>
</svg>
